<?xml version="1.0" encoding="iso-8859-1"?>
<!-- Generator: Adobe Illustrator 19.0.0, SVG Export Plug-In . SVG Version: 6.00 Build 0)  -->
<svg version="1.1" id="Capa_1" xmlns="http://www.w3.org/2000/svg" xmlns:xlink="http://www.w3.org/1999/xlink" x="0px" y="0px"
	 viewBox="0 0 466 466" style="enable-background:new 0 0 466 466;" xml:space="preserve">
<g>
	<path d="M372.225,169.27c0.002-0.005,0.003-0.01,0.005-0.014l18.766-55.941c0.001-0.003,0.002-0.007,0.003-0.01l11.852-35.331
		c1.405-4.189-0.852-8.724-5.041-10.129c-4.187-1.403-8.724,0.852-10.129,5.04l-10.921,32.554l-21.938,13.529l28.552-85.111
		c1.405-4.189-0.852-8.724-5.041-10.129c-4.187-1.403-8.724,0.852-10.129,5.04l-28.552,85.111l-9.341-24.022l10.92-32.553
		c1.405-4.189-0.852-8.724-5.041-10.129c-4.187-1.404-8.724,0.852-10.129,5.04l-52.567,156.701v-9.973c0-0.002,0-0.003,0-0.005
		v-59.013c0-0.002,0-0.003,0-0.005V43.632c0-4.418-3.582-8-8-8s-8,3.582-8,8v34.336L241,97.772V8c0-4.418-3.582-8-8-8s-8,3.582-8,8
		v89.772l-16.496-19.804V43.632c0-4.418-3.582-8-8-8s-8,3.582-8,8v96.286c0,0.002,0,0.003,0,0.005v59.013c0,0.002,0,0.003,0,0.005
		v9.973L139.937,52.214c-1.404-4.189-5.941-6.445-10.129-5.04c-4.189,1.405-6.446,5.94-5.041,10.129l10.92,32.553l-9.341,24.022
		L97.795,28.768c-1.404-4.189-5.94-6.444-10.129-5.04c-4.189,1.405-6.446,5.94-5.041,10.129l28.552,85.111l-21.938-13.529
		L78.318,72.884c-1.405-4.189-5.945-6.444-10.129-5.04c-4.189,1.405-6.446,5.94-5.041,10.129l11.852,35.331
		c0.001,0.003,0.002,0.007,0.003,0.01l18.766,55.941c0.002,0.005,0.003,0.01,0.005,0.014l18.765,55.937
		c0.002,0.006,0.004,0.012,0.006,0.019l18.755,55.907c0.596,1.773,1.793,3.283,3.386,4.265l40.752,25.133l11.507,34.302h-4.414
		c-4.418,0-8,3.582-8,8s3.582,8,8,8h15.51c0.008,0,0.017,0.002,0.025,0.002c0.008,0,0.016-0.002,0.024-0.002h69.817
		c0.008,0,0.016,0.002,0.024,0.002c0.008,0,0.017-0.002,0.025-0.002h15.51c4.418,0,8-3.582,8-8s-3.582-8-8-8h-4.414l11.507-34.302
		l40.752-25.133c1.593-0.982,2.79-2.491,3.386-4.265l18.755-55.907c0.002-0.006,0.004-0.013,0.006-0.019L372.225,169.27z
		 M303.592,169.511l9.34,24.022l-10.82,32.252l-9.34-24.022L303.592,169.511z M328.102,198.622l21.937-13.529l-10.82,32.252
		l-21.937,13.529L328.102,198.622z M368.81,129.139l-10.82,32.252l-21.937,13.529l10.819-32.252L368.81,129.139z M331.702,137.58
		l-10.819,32.252l-9.341-24.022l10.82-32.253L331.702,137.58z M284.821,225.465l9.34,24.022l-10.82,32.252l-9.34-24.022
		L284.821,225.465z M257.496,196.003L241,215.808v-34.017l16.496-19.805V196.003z M225,215.808l-16.496-19.805v-34.017L225,181.791
		V215.808z M208.504,221.004L225,240.809v34.018l-16.496-19.805V221.004z M241,240.809l16.496-19.805v34.018L241,274.827V240.809z
		 M257.496,102.967v34.018L241,156.79v-34.019L257.496,102.967z M225,122.771v34.019l-16.496-19.806v-34.018L225,122.771z
		 M115.961,185.093l21.937,13.529l10.82,32.252l-21.937-13.529L115.961,185.093z M173.228,201.764l-9.34,24.022l-10.82-32.252
		l9.34-24.022L173.228,201.764z M171.838,249.487l9.34-24.022l10.819,32.252l-9.34,24.022L171.838,249.487z M143.638,113.557
		l10.82,32.253l-9.341,24.022l-10.819-32.252L143.638,113.557z M119.128,142.669l10.819,32.252l-21.937-13.529l-10.82-32.252
		L119.128,142.669z M145.551,273.298l-10.819-32.252l21.937,13.529l10.82,32.252L145.551,273.298z M190.609,305.441l12.433-31.976
		L225,299.828v45.004h-21.177L190.609,305.441z M241,344.832v-45.004l21.958-26.363l12.433,31.976l-13.214,39.391H241z
		 M298.512,286.828l10.82-32.252l21.937-13.529l-10.819,32.252L298.512,286.828z"/>
	<path d="M283.468,367.542H182.532c-4.418,0-8,3.582-8,8s3.582,8,8,8h100.936c4.418,0,8-3.582,8-8S287.886,367.542,283.468,367.542z
		"/>
	<path d="M198.068,390.252c-4.418,0-8,3.582-8,8v49.654c0,4.418,3.582,8,8,8s8-3.582,8-8v-49.654
		C206.068,393.834,202.486,390.252,198.068,390.252z"/>
	<path d="M233,390.252c-4.418,0-8,3.582-8,8V458c0,4.418,3.582,8,8,8s8-3.582,8-8v-59.748C241,393.834,237.418,390.252,233,390.252z
		"/>
	<path d="M267.932,390.252c-4.418,0-8,3.582-8,8v49.654c0,4.418,3.582,8,8,8s8-3.582,8-8v-49.654
		C275.932,393.834,272.35,390.252,267.932,390.252z"/>
</g>
<g>
</g>
<g>
</g>
<g>
</g>
<g>
</g>
<g>
</g>
<g>
</g>
<g>
</g>
<g>
</g>
<g>
</g>
<g>
</g>
<g>
</g>
<g>
</g>
<g>
</g>
<g>
</g>
<g>
</g>
</svg>
