<?xml version="1.0" encoding="iso-8859-1"?>
<!-- Generator: Adobe Illustrator 19.0.0, SVG Export Plug-In . SVG Version: 6.00 Build 0)  -->
<svg xmlns="http://www.w3.org/2000/svg" xmlns:xlink="http://www.w3.org/1999/xlink" version="1.1" id="Capa_1" x="0px" y="0px" viewBox="0 0 512 512" style="enable-background:new 0 0 512 512;" xml:space="preserve">
<g>
	<g>
		<path d="M425.005,240.117c-1.061-20.938-3.59-41.725-5.209-62.618c-0.843-10.876-2.862-21.588-4.104-32.414    c-0.623-5.429-1.014-12.216-3.909-17.239c3.399-3.466,6.123-7.557,7.348-12.327c1.62-6.309,0.259-12.998-1.428-19.156    c-2.095-7.65-5.338-16.022-11.328-21.491c-3.197-2.919-6.796-2.84-10.121-4.84c-3.475-2.091-3.572-6.658-4.245-10.065    c-1.251-6.335-3.889-12.662-6.644-18.479c-4.566-9.639-11.501-16.932-20.722-22.252C345.485,8.181,321.287,3.74,299.572,1.476    c-26.768-2.79-53.939-1.367-80.573,2.12C196,6.607,171.603,9.698,150.349,19.49c-7.947,3.661-14.058,7.96-18.88,15.211    c-4.547,6.838-8.122,14.362-11.188,21.964c-2.23,5.53-4.607,11.792-4.885,17.923c-5.223,1.142-8.905,5.739-11.571,10.073    c-5.699,9.262-10.12,22.685-4.841,33.017c1.6,3.132,3.941,5.823,6.713,8.186c-2.216,7.398-3.059,15.541-4.535,23.01    c-1.861,9.414-3.938,18.784-5.925,28.172c-3.864,18.253-7.094,36.583-8.499,55.205c-2.869,38.019-0.157,75.815,4.251,113.587    c1.061,9.096,1.865,18.216,3.34,27.26c0.91,5.582,1.735,13.154,4.386,19.119c-13.908,4.313,2.181,35.491,6.945,42.1    c2.967,4.116,6.649,7.125,10.736,9.497c-0.644,8.434,2.714,17.616,5.771,25.195c3.799,9.417,8.81,18.103,17.661,23.533    c18.954,11.63,43.113,12.713,64.585,15.641c29.949,4.084,60.633,4.18,90.81,3.499c13.863-0.313,27.776-1.316,41.386-4.09    c11.639-2.372,23.623-5.652,32.787-13.572c7.286-6.298,12.644-15.075,17.289-23.428c3.562-6.405,10.217-16.46,7.55-24.258    c6.64-3.802,12.134-8.863,15.739-16.107c3.393-6.818,7.103-15.529,6.284-23.303c-0.376-3.569-1.754-5.979-3.734-7.538    c1.684-3.932,2.732-8.291,3.635-11.675c2.317-8.679,3.497-17.623,4.768-26.501c2.8-19.56,4.892-39.014,5.361-58.788    C426.779,281.646,426.056,260.864,425.005,240.117z M362.439,31.325c4.639,3.278,8.606,7.356,11.522,12.623    c3.12,5.634,5.555,11.763,7.265,17.971c1.435,5.21,1.654,9.986,3.296,14.783c-1.106,1.806-3.003,3.254-4.645,4.413    c-2.821,1.991-5.901,3.607-9.082,5.023c-1.061-5.532-3.822-11.425-5.556-15.537c-2.149-5.098-4.917-11.731-9.019-16.238    c2.798-4.487,2.637-10.374-0.755-14.687c-2.54-3.23-4.843-4.539,0.026-6.501C356.223,32.879,361.983,31.003,362.439,31.325z     M319.103,67.829c5.587-1.038,11.143-2.231,16.706-3.505c5.135-1.176,10.938-2.312,15.522-5.222    c0.953,1.499,1.963,2.972,2.825,4.529c2.019,3.644,3.687,7.455,5.058,11.388c1.421,4.078,2.06,9.581,3.679,14.248    c-1.206,0.434-2.41,0.861-3.605,1.28c-10.833,3.792-21.493,7.513-32.384,10.446c-0.049-1.119-0.342-2.313-0.559-3.676    c-0.698-4.39-1.215-8.806-1.907-13.196C323.538,78.414,322.268,72.564,319.103,67.829z M320.176,102.686    c-6.387,1.497-12.878,2.684-19.556,3.41c-5.182,0.563-10.383,0.969-15.595,1.248c-0.076-0.994-0.339-2.002-0.557-2.825    c-1.141-4.306-1.608-8.557-1.872-12.999c-0.373-6.282-0.228-13.555-3.148-19.329c8.843-0.418,17.67-1.125,26.458-2.258    c2.32-0.299,4.627-0.641,6.928-1.011c2.658,6.687,4.243,13.205,5.078,20.554C318.315,93.026,318.092,99.059,320.176,102.686z     M310.042,17.919c1.626-0.972,3.424-1.836,5.025-2.909c12.137,2.08,24.084,5.23,35.291,9.847c1.04,0.428,2.062,0.879,3.072,1.346    c-1.279,0.328-2.516,0.745-3.645,1.184c-1.886,0.733-4.879,2.491-6.233,4.685c-1.391-0.537-2.785-1.042-4.14-1.554    c-11.168-4.221-22.769-6.873-34.541-8.468C306.438,20.534,308.037,19.117,310.042,17.919z M272.55,11.546    c3.085,0.019,6.17,0.065,9.252,0.173c7.396,0.26,14.91,0.803,22.413,1.708c-2.892,2.295-5.012,5.073-4.83,7.957    c-8.962-0.967-17.999-1.374-27.002-1.414c-0.063-0.469-0.115-0.903-0.126-1.262C272.187,16.375,272.497,13.944,272.55,11.546z     M267.311,11.548c-0.67,2.176-1.248,4.374-1.475,6.619c-0.044,0.438-0.062,0.965-0.05,1.531c-2.749-0.057-5.527,0.028-8.318,0.155    c-2.027,0.093-4.054,0.223-6.082,0.36c-6.824,0.154-13.648,0.376-20.465,0.723c-0.123,0.006-0.245,0.013-0.368,0.019    c-0.586-2.385-1.307-4.837-2.301-6.958C241.221,12.544,254.269,11.674,267.311,11.548z M234.177,30.086    c6.578-0.122,13.252,0.465,19.881,0.411c18.559-0.153,37.019-0.3,55.389,2.786c9.315,1.565,18.354,3.955,27.196,7.275    c2.896,1.087,11.066,3.052,11.248,6.878c0.216,4.525-10.521,5.955-13.669,6.677c-8.15,1.87-16.261,3.72-24.531,4.999    c-34.973,5.406-70.3,3.398-105.507,2.54c-7.891-0.192-15.845-0.5-23.642-1.806c-2.758-0.462-5.931-0.997-9.047-1.816    c-0.308-0.239-0.723-0.342-1.137-0.314c-3.56-1.025-6.969-2.46-9.508-4.628c-6.082-5.194,12.294-12.137,15.707-13.403    c16.21-6.011,34.18-7.302,51.223-9.207C229.899,30.24,232.033,30.126,234.177,30.086z M277.603,107.648    c-12.146,0.35-24.329-0.009-36.441-0.966c-0.113-0.873-0.21-1.737-0.177-2.556c0.172-4.173,1.087-8.292,1.892-12.377    c0.903-4.577,1.634-9.201,2.227-13.828c0.221-1.723,0.585-3.583,0.697-5.406c9.087,0.209,18.185,0.209,27.271-0.074    c2.19,8.146,1.88,16.152,2.471,24.535C275.667,98.732,276.126,103.963,277.603,107.648z M194.23,100.212    c-10.685-2.13-21.286-4.776-31.568-8.142c0.04-0.613,0.067-1.261,0.138-1.953c0.418-4.079,1.495-8.085,2.815-11.957    c1.303-3.821,3.042-7.4,4.389-11.098c5.054,1.301,9.989,2.02,13.289,2.466c5.825,0.787,11.712,1.301,17.627,1.654    c-1.796,3.545-2.957,7.586-3.846,10.766C195.847,86.344,192.609,95.067,194.23,100.212z M201.452,95.482    c0.521-3.646,1.217-7.27,2.112-10.842c1.08-4.309,3.184-8.696,4.641-13.097c10.555,0.428,21.152,0.492,31.597,0.819    c-0.296,1.275-0.517,2.593-0.801,3.877c-1.003,4.54-1.885,9.102-2.948,13.629c-1.17,4.986-2.863,10.694-2.814,16.108    c-2.913-0.292-5.82-0.613-8.72-0.968c-8.111-0.995-16.3-2.204-24.464-3.688C201.194,99.733,201.099,97.948,201.452,95.482z     M210.067,16.406c2.042-0.31,4.085-0.607,6.131-0.89c2.474-0.342,4.207-1.284,5.505,0.819c2.089,3.384,0.264,5.451-2.897,6.018    c-8.94,1.606-18.056,2.067-26.993,3.807c-0.725-2.148-2.723-3.517-4.366-5.037c-0.321-0.297-0.637-0.605-0.954-0.914    C194.42,18.693,202.398,17.571,210.067,16.406z M149.519,32.82c8.634-5.102,18.313-8.375,28.285-10.751    c0.767,0.418,1.5,0.921,2.178,1.591c1.266,1.252,2.622,2.919,4.151,4.241c-3.21,0.832-6.373,1.782-9.454,2.914    c-5.249,1.928-13.236,4.899-18.622,9.5c-3.264-2.311-8.236-3.182-12.183-3.01C145.591,35.556,147.466,34.033,149.519,32.82z     M126.785,75.018c0.205-3.041,1.204-6.085,2.144-8.965c1.31-4.013,2.723-7.998,4.398-11.875    c2.848-6.598,3.937-11.882,12.304-10.478c2.1,0.353,4.152,1.089,6.235,1.56c-0.861,1.55-1.411,3.232-1.528,5.063    c-0.471,7.379,5.823,11.916,13.344,14.761c-2.373,4.019-4.031,8.562-5.5,12.913c-0.896,2.654-2.57,7.372-2.817,11.544    c-1.668-0.613-3.329-1.241-4.976-1.896c-7.347-2.922-16.057-4.793-22.501-9.533C126.453,77.057,126.613,77.567,126.785,75.018z     M107.694,101.33c1.12-4.623,3.08-9.198,5.83-13.092c2.159-3.058,4.117-3.431,7.072-1.485c3.499,2.304,6.933,4.163,10.82,5.771    c49.099,20.31,103.997,29.113,157.027,25.845c15.347-0.945,30.733-3.053,45.554-7.225c10.358-2.915,20.531-6.953,30.667-10.591    c8.872-3.184,18.549-6.741,25.542-13.31c1.702-1.598,3.269-3.466,4.434-5.538c7.47,0.661,10.91,13.729,12.456,19.427    c1.115,4.112,2.333,8.522,0.832,12.695c-1.818,5.056-6.32,8.722-10.727,11.49c-11.993,7.532-26.878,11.184-40.474,14.542    c-15.71,3.88-31.721,6.398-47.841,7.768c-31.952,2.715-64.092,1.245-95.973-1.696c-29.26-2.699-59.331-7.511-86.188-20.018    c-5.574-2.595-12.203-5.413-16.499-9.959C106.328,111.827,106.413,106.616,107.694,101.33z M234.744,189.016    c-0.211-6.466-0.35-12.927-0.336-19.396c0.006-2.671,0.149-5.352,0.144-8.019c-0.001-0.509-0.147-1.702-0.209-2.688    c16.371,1.124,32.812,1.503,49.13,1.072c2.447,14.165,3.247,28.372,4.254,42.716c1.32,18.805,2.444,37.387,2.693,56.243    c0.498,37.791,2.455,75.612-2.149,113.241c-0.987,8.066-1.412,16.185-2.256,24.266c-0.469,4.492-1.065,8.98-2.053,13.391    c-0.615,2.748-1.51,5.267-1.823,7.928c-15.238,0.165-30.448-0.581-45.645-1.817c-1.323-20.155-2.742-40.159-2.756-60.374    c-0.015-21.015-0.03-42.029-0.045-63.044c-0.014-20.65-0.201-41.305,0.337-61.95C234.391,216.698,235.198,202.899,234.744,189.016    z M292.901,405.343c1.206-7.849,1.755-15.771,2.442-23.677c1.599-18.411,3.718-36.564,4.008-55.082    c0.624-39.808-0.148-79.976-3.355-119.647c-1.228-15.19-0.585-32.396-5.501-47.196c3.371-0.138,6.738-0.299,10.094-0.508    c9.433-0.588,18.858-1.522,28.229-2.84c3.84,20.06,4.985,40.327,6.895,60.656c2.196,23.376,2.797,46.418,2.27,69.887    c-0.509,22.658-1.586,45.297-3.461,67.885c-0.964,11.607-1.998,23.163-3.988,34.648c-0.992,5.724-2.181,11.409-3.227,17.122    c-0.473,2.585-1.032,5.25-1.225,7.905c-6.405,0.87-12.828,1.604-19.272,2.144c-5.579,0.468-11.153,0.777-16.723,0.959    C291.773,413.828,292.288,409.334,292.901,405.343z M337.704,397.083c1.6-8.572,2.971-17.184,3.834-25.863    c1.807-18.164,2.791-36.419,3.54-54.654c0.768-18.706,1.124-37.434,1.114-56.156c-0.01-18.627-2.387-37.059-4.181-55.567    c-1.59-16.41-1.944-33.694-7.792-49.264c8.204-1.292,16.36-2.876,24.427-4.83c5.768-1.397,11.808-2.863,17.807-4.625    c0.04,5.955,1.594,12.282,2.291,17.758c1.178,9.245,2.394,18.493,3.201,27.779c1.677,19.291,3.549,38.584,4.688,57.916    c2.233,37.922-3.333,75.362-10.231,112.553c-1.911,10.3-4.273,20.463-6.541,30.684c-1.053,4.746-1.387,9.485-2.25,14.147    c-4.842,1.221-9.745,2.204-14.654,3.131c-6.044,1.14-12.107,2.196-18.185,3.141C336.27,407.896,336.799,401.928,337.704,397.083z     M179.66,286.137c0.191,22.793,1.101,45.584,2.838,68.312c0.861,11.266,1.939,22.518,3.005,33.766    c0.71,7.495,1.502,15.193,1.998,22.624c-8.185-2.929-18.407-1.289-26.977-3.671c-10.661-2.963-11.953-9.083-14.408-19.022    c-2.185-8.846-4.072-17.771-5.424-26.784c-2.67-17.791-3.599-35.852-3.717-53.827c-0.118-18.13,0.677-36.253,1.858-54.341    c1.182-18.11,2.11-36.308,4.088-54.351c1.193-10.885,3.041-21.688,4.621-32.521c0.987-6.766,1.015-14.062,2.029-20.973    c11.864,3.53,24.02,6.125,36.223,8.059c0.497,0.079,0.997,0.149,1.494,0.227c-3.991,20.833-4.925,42.652-6.049,63.771    C180.023,240.291,179.468,263.218,179.66,286.137z M188.696,219.542c0.999-21.67,3.545-43.412,3.968-65.092    c11.635,1.696,23.395,3.025,35.204,3.978c-2.292,5.637-1.27,14.732-1.247,19.003c0.062,11.509,0.417,22.903-0.036,34.408    c-1.725,43.813-1.066,87.706-1.098,131.544c-0.017,24.086,1.122,47.834,2.707,71.845c-8.177-0.753-16.351-1.621-24.525-2.543    c-2.297-0.259-4.601-0.517-6.908-0.776c-0.406-2.977-0.961-5.948-1.325-8.886c-0.698-5.634-1.268-11.283-1.818-16.933    c-1.094-11.245-2.221-22.49-3.101-33.754c-1.72-22.024-2.665-44.109-2.943-66.199    C187.295,263.933,187.674,241.724,188.696,219.542z M97.757,293.912c-2.354-37.05-0.282-73.406,7.03-109.807    c2.032-10.117,4.2-20.206,6.152-30.339c1.33-6.903,3.168-14.573,3.651-21.984c6.139,3.288,12.85,5.746,18.411,7.921    c3.61,1.411,7.269,2.692,10.954,3.896c-1.303,4.236-1.382,9.045-2.046,13.361c-1.481,9.623-3.05,19.232-4.542,28.853    c-2.924,18.851-3.862,37.911-5.32,56.911c-2.867,37.356-4.685,75.134-0.212,112.441c1.171,9.762,2.838,19.43,5.035,29.014    c1.171,5.106,2.46,10.185,3.812,15.246c0.178,0.667,0.351,1.326,0.525,1.98c-6.432-1.204-12.859-2.464-19.19-4.126    c-3.273-0.859-6.695-2.33-10.138-3.547c-0.131-2.848-1.033-5.427-1.892-8.254c-1.284-4.223-2.24-8.541-3.024-12.883    c-1.434-7.942-2.245-15.984-3.255-23.987C101.408,330.385,98.923,312.258,97.757,293.912z M154.886,486.769    c-10.148-3.728-16.476-9.607-21.317-19.21c-3.031-6.013-4.638-12.828-7.048-19.167c3.623,1.309,7.358,2.431,11.054,3.595    c6.907,2.175,13.895,4.084,20.94,5.758c0.57,3.01,1.961,5.879,2.92,8.792c1.357,4.124,2.502,8.309,3.957,12.402    c1.376,3.872,2.844,8.229,4.688,12.288C164.886,490.027,159.796,488.573,154.886,486.769z M180.375,493.27    c-2.737-6.431-6.068-12.573-8.518-19.173c-1.562-4.207-2.834-9.919-5.192-14.534c4.667,0.984,9.354,1.88,14.057,2.671    c6.074,1.022,12.168,1.886,18.278,2.62c-0.749,6.207,1.369,12.645,3.109,18.529c1.158,3.916,2.384,7.818,3.318,11.796    c0.104,0.441,0.191,0.863,0.275,1.27C197.31,495.641,188.772,494.703,180.375,493.27z M216.836,497.486    c-0.865-0.08-1.74-0.16-2.611-0.24c0.255-4.564-2.682-10.25-3.901-13.992c-1.892-5.806-3.328-11.987-5.531-17.745    c10.69,1.13,21.421,1.84,32.167,2.194c0.91,5.029,1.865,9.993,2.215,15.116c0.367,5.381,0.232,10.82,0.882,16.177    C232.294,498.671,224.545,498.199,216.836,497.486z M273.521,485.157c-0.675,3.987-2.458,9.475-2.583,14.351    c-7.504,0.034-15.016-0.019-22.518-0.22c0-0.007,0.001-0.013,0.001-0.02c-0.431-9.419,0.305-22.384-4.394-31.38    c7.67,0.14,15.344,0.104,23.013-0.098c3.716-0.097,7.442-0.206,11.172-0.331C275.169,472.572,274.428,479.8,273.521,485.157z     M307.72,498.605c-3.809,0.233-7.623,0.393-11.438,0.493c-5.747,0.15-11.513,0.256-17.285,0.33    c1.091-3.792,1.255-8.189,1.699-11.336c0.559-3.959,1.068-7.921,1.816-11.85c0.568-2.981,1.548-5.973,1.811-9.006    c10.742-0.42,21.514-1.03,32.236-2.007c-2.16,5.653-3.561,11.896-5.1,17.373C310.104,487.422,308.154,493.251,307.72,498.605z     M338.245,494.341c-0.979,0.225-1.956,0.444-2.925,0.657c-6.655,1.462-13.387,2.411-20.154,3.041    c1.767-4.064,2.413-9.137,3.319-12.689c1.708-6.702,4.165-13.728,4.441-20.758c9.245-0.98,18.443-2.251,27.535-3.975    c0.252-0.048,0.503-0.102,0.755-0.151c-3.162,4.776-4.946,11.563-6.732,16.085C342.325,482.017,338.981,488.199,338.245,494.341z     M381.023,454.049c-1.539,3.704-3.52,7.268-5.499,10.751c-3.703,6.513-7.769,13.155-13.114,18.454    c-4.498,4.46-10.185,7.103-16.164,8.975c1.887-4.225,3.117-8.926,4.635-12.858c2.206-5.717,7.052-13.662,6.895-20.281    c8.191-1.859,16.245-4.218,24.098-7.201C381.558,452.725,381.251,453.5,381.023,454.049z M406.02,414.644    c-1.255,5.74-4.836,11.423-8.472,15.964c-6.058,7.564-16.617,10.836-25.47,13.739c-23.79,7.8-48.979,9.992-73.837,11.374    c-51.697,2.872-103.904,1.776-153.858-13.309c-7.007-2.116-14.428-4.163-21.063-7.293c-5.454-2.573-8.884-7.177-11.554-12.429    c-2.141-4.212-3.819-8.726-5.428-13.169c-0.684-1.89-1.439-3.846-1.823-5.832c2.098,0.655,5.032,1.493,5.206,1.551    c3.078,1.033,6.207,1.913,9.356,2.702c5.811,1.456,11.701,2.571,17.599,3.618c0.452,0.136,0.9,0.281,1.354,0.415    c20.69,6.07,42.439,9.556,63.886,11.487c11.839,1.066,23.678,2.132,35.517,3.198c11.209,1.009,22.713,2.868,33.892,2.205    c11.666-0.692,23.36-0.275,35.047-1.222c11.919-0.966,23.793-2.461,35.597-4.375c13.193-2.139,26.699-4.121,39.29-8.746    c4.074-1.496,7.941-3.561,12.112-4.797C399.632,407.868,408.192,404.707,406.02,414.644z M409.482,352.483    c-1.347,9.141-2.533,18.299-4.415,27.351c-1.007,4.841-2.279,9.543-3.717,14.271c-0.314,1.034-0.647,2.038-0.958,3.032    c-1.836,0.221-3.663,0.59-5.377,1.033c-6.333,1.636-12.387,4.171-18.582,6.236c-0.492,0.164-0.987,0.314-1.48,0.47    c0.462-1.239,0.865-2.453,1.215-3.571c2.433-7.785,3.834-16.184,5.493-24.161c3.898-18.74,7.138-37.668,9.655-56.642    c2.559-19.29,4.207-38.752,3.742-58.225c-0.469-19.645-2.637-39.258-4.38-58.818c-0.923-10.359-1.841-20.682-3.329-30.979    c-1.368-9.463-3.398-18.822-4.823-28.262c7.383-2.478,14.541-5.538,20.866-9.643c0.313,4.096,0.171,8.351,0.511,12.279    c0.798,9.214,2.399,18.337,3.167,27.552c1.676,20.115,3.86,40.247,4.948,60.404C414.133,274.037,415.227,313.499,409.482,352.483z    "/>
	</g>
</g>
<g>
</g>
<g>
</g>
<g>
</g>
<g>
</g>
<g>
</g>
<g>
</g>
<g>
</g>
<g>
</g>
<g>
</g>
<g>
</g>
<g>
</g>
<g>
</g>
<g>
</g>
<g>
</g>
<g>
</g>
</svg>
