<?xml version="1.0" encoding="iso-8859-1"?>
<!-- Generator: Adobe Illustrator 19.0.0, SVG Export Plug-In . SVG Version: 6.00 Build 0)  -->
<svg xmlns="http://www.w3.org/2000/svg" xmlns:xlink="http://www.w3.org/1999/xlink" version="1.1" id="Capa_1" x="0px" y="0px" viewBox="0 0 512 512" style="enable-background:new 0 0 512 512;" xml:space="preserve">
<g>
	<g>
		<path d="M411.803,117.811c-11.6-5.874-18.301,11.092-19.437,19.617c-0.805,6.045-1.3,12.882,0.934,18.8    c2.241,5.938,9.14,12.214,15.943,10.514c5.69-1.422,9.164-7.311,10.841-12.514C423.559,143.447,423.77,123.871,411.803,117.811z     M415.039,151.491c-1.473,5.316-6.267,13.446-12.348,8.377c-2.029-1.692-3.39-3.672-4.246-5.84    c-1.126-3.907-1.005-8.537-0.637-12.587c1.012-5.6,1.774-13.798,6.527-17.661c6.149-4.998,10.623,5.557,11.489,10.278    C416.863,139.726,416.576,145.943,415.039,151.491z"/>
	</g>
</g>
<g>
	<g>
		<path d="M254.833,117.811c-11.6-5.874-18.301,11.092-19.437,19.617c-0.805,6.045-1.3,12.882,0.933,18.8    c2.241,5.938,9.14,12.214,15.944,10.514c5.689-1.422,9.164-7.311,10.841-12.514C266.589,143.447,266.8,123.871,254.833,117.811z     M258.069,151.491c-1.473,5.316-6.267,13.446-12.348,8.377c-2.029-1.692-3.39-3.672-4.246-5.84    c-1.127-3.907-1.005-8.537-0.638-12.587c1.011-5.6,1.774-13.798,6.528-17.661c6.149-4.998,10.623,5.557,11.489,10.278    C259.893,139.726,259.606,145.943,258.069,151.491z"/>
	</g>
</g>
<g>
	<g>
		<path d="M97.862,117.811c-11.6-5.874-18.301,11.092-19.437,19.617c-0.805,6.045-1.3,12.882,0.934,18.8    c2.241,5.938,9.139,12.214,15.943,10.514c5.689-1.422,9.164-7.311,10.841-12.514C109.618,143.447,109.829,123.871,97.862,117.811z     M101.098,151.491c-1.473,5.316-6.267,13.446-12.348,8.377c-2.029-1.692-3.39-3.672-4.246-5.84    c-1.127-3.907-1.005-8.537-0.638-12.587c1.011-5.6,1.774-13.798,6.528-17.661c6.149-4.998,10.623,5.557,11.489,10.278    C102.922,139.726,102.635,145.943,101.098,151.491z"/>
	</g>
</g>
<g>
	<g>
		<path d="M69.474,317.34c-3.018-8.069-11.995-11.696-19.293-6.535c-4.855,3.434-6.567,10.014-5.147,15.642    c0.535,7.519,7.963,12.345,15.211,10.214C68.394,334.264,72.381,325.107,69.474,317.34z M63.747,325.781    c-1.185,3.448-7.307,7.728-10.814,4.785c-3.265-2.741-2.781-10.144-0.263-13.125c0.454-0.537,1.023-1.029,1.733-1.465    C60.531,312.214,65.636,320.284,63.747,325.781z"/>
	</g>
</g>
<g>
	<g>
		<path d="M70.02,421.917c-3.02-8.07-11.997-11.696-19.294-6.535c-4.855,3.434-6.567,10.014-5.147,15.642    c0.535,7.519,7.963,12.345,15.212,10.214C68.94,438.841,72.927,429.684,70.02,421.917z M64.291,430.358    c-1.398,4.065-7.337,7.082-10.86,4.759c-2.587-1.705-1.939-11.059-0.217-13.1c0.454-0.537,1.023-1.029,1.733-1.465    C61.076,416.791,66.181,424.861,64.291,430.358z"/>
	</g>
</g>
<g>
	<g>
		<path d="M511.884,358.343c0.585-7.012-1.247-14.072-0.991-21.139c0.349-9.645,0.101-19.055-0.486-28.691    c-0.274-4.492-0.709-8.935-0.581-13.436c0.09-3.174,0.045-6.422-0.868-9.497c-1.813-6.108-6.561-9.373-12.218-10.953    c2.056-6.205,0.962-12.626,0.934-19.483c-0.022-5.193,1.938-11.101-2.585-14.967c-5.389-4.607-13.065-2.402-19.436-2.475    c-0.508-0.006-1.015-0.005-1.522-0.011c-0.564-15.882-0.47-31.805-2.012-47.633c-1.308-13.43-4.34-25.447-12.615-36.35    c-9.239-12.173-20.436-23.564-24.612-38.694c-3.981-14.426-4.503-30.351-4.17-45.254c0.107-4.81,0.784-9.229,0.007-13.705    c3.625-1.94,6.355-4.87,7.352-9.292c1.919-8.515-3.774-16.135-11.454-19.023c-8.102-3.047-17.348-2.676-25.851-2.29    c-10.178,0.462-23.682,1.004-29.24,11.108c-1.989,3.616-3.149,8.232-1.737,12.249c1.453,4.135,5.989,6.392,9.962,7.846    c-2.286,13.46-2.381,27.146-2.356,40.783c0.022,12.524,2.901,28.482-4.048,39.675c-6.945,11.186-21.844,18.09-23.977,31.845    c-2.576,16.609-3.413,33.591-3.899,50.37c-0.479,16.538-1.084,33.072-1.679,49.606c-8.475,0.027-16.951,0.061-25.427,0.031    c-0.302-8.908-0.642-17.815-1.041-26.719c-0.78-17.39-0.496-34.847-2.185-52.187c-1.308-13.43-4.34-25.447-12.615-36.35    c-9.239-12.173-20.436-23.564-24.612-38.694c-3.981-14.426-4.504-30.351-4.17-45.254c0.107-4.81,0.784-9.229,0.007-13.705    c3.625-1.94,6.355-4.87,7.352-9.292c1.919-8.515-3.774-16.135-11.454-19.023c-8.102-3.047-17.348-2.676-25.851-2.29    c-10.178,0.462-23.682,1.004-29.24,11.108c-1.989,3.616-3.149,8.232-1.737,12.249c1.453,4.135,5.989,6.392,9.962,7.846    c-2.286,13.46-2.381,27.146-2.356,40.783c0.022,12.524,2.901,28.482-4.048,39.675c-6.945,11.186-21.844,18.09-23.977,31.845    c-2.576,16.609-3.413,33.591-3.899,50.37c-0.48,16.552-1.086,33.101-1.681,49.65c-8.469-0.001-16.937-0.044-25.405-0.06    c-0.305-8.893-0.663-17.783-1.062-26.671c-0.78-17.39-0.496-34.847-2.185-52.187c-1.308-13.43-4.34-25.447-12.615-36.35    c-9.239-12.173-20.436-23.564-24.612-38.694c-3.981-14.426-4.504-30.351-4.17-45.254c0.108-4.81,0.784-9.229,0.007-13.705    c3.625-1.94,6.355-4.87,7.352-9.292c1.919-8.515-3.774-16.135-11.454-19.023c-8.102-3.047-17.348-2.676-25.851-2.29    c-10.178,0.462-23.682,1.004-29.24,11.108c-1.989,3.616-3.149,8.232-1.737,12.249c1.453,4.135,5.989,6.392,9.963,7.846    c-2.286,13.46-2.381,27.146-2.356,40.783c0.022,12.524,2.901,28.482-4.048,39.675c-6.945,11.186-21.844,18.09-23.977,31.845    c-2.576,16.609-3.413,33.591-3.899,50.37c-0.175,6.039-0.384,12.076-0.587,18.114c-4.969-0.36-10.113-0.623-14.043,2.736    c-4.522,3.866-2.563,9.775-2.584,14.967c-0.029,6.857-1.122,13.278,0.933,19.483c-5.657,1.58-10.404,4.845-12.218,10.953    c-0.913,3.075-0.958,6.323-0.868,9.497c0.128,4.501-0.307,8.944-0.581,13.436c-0.587,9.636-0.835,19.047-0.486,28.691    c0.256,7.067-1.576,14.126-0.991,21.139c0.718,8.613,5.751,12.14,12.132,13.424c-0.09,1.288-0.084,2.604-0.095,3.909    c-0.016,2.018-0.039,4.104,0.367,6.042c-0.292,0.077-0.586,0.152-0.873,0.24c-6.467,1.99-8.245,7.709-8.654,13.842    c-0.451,6.768,0.203,13.48-0.352,20.272c-0.837,10.242-0.758,20.242-0.011,30.486c0.538,7.38-0.194,16.049,1.87,23.199    c2.146,7.429,8.113,9.79,15.292,9.541c9.264-0.322,18.489,1.552,27.732,2.196c56.706,3.951,113.894,4.608,170.739,5.138    c57.661,0.537,115.333-0.155,172.964-2.078c17.288-0.577,34.573-1.264,51.853-2.062c8.068-0.372,16.179-0.571,24.228-1.23    c8.306-0.681,16.53-2.255,24.897-1.964c7.179,0.249,13.147-2.112,15.292-9.541c2.065-7.15,1.332-15.818,1.87-23.199    c0.747-10.244,0.826-20.243-0.011-30.486c-0.555-6.792,0.098-13.504-0.353-20.272c-0.409-6.133-2.187-11.852-8.654-13.842    c-0.287-0.088-0.58-0.163-0.873-0.24c0.406-1.938,0.383-4.024,0.367-6.042c-0.01-1.305-0.004-2.621-0.094-3.909    C506.133,370.483,511.166,366.956,511.884,358.343z M486.447,247.568c0.429,0.083,0.857,0.167,1.286,0.25    c-0.057,0.539-0.191,1.096-0.239,1.595c-0.296,3.065-0.262,6.059-0.057,9.132c0.323,4.837,0.882,9.757,1.11,14.629    c-16.237-2.137-33.086-1.62-49.352-2.244c-6.53-0.251-13.061-0.49-19.592-0.72c-0.009-2.085-0.212-4.201-0.221-6.211    c-0.02-4.179-0.07-8.508,0.682-12.633c0.188-1.034,0.396-2.072,0.795-3.036c0.185-0.009,0.729-0.184,1.785-0.2    c1.181-0.017,2.371,0.122,3.546,0.216c5.948,0.478,11.788-0.077,17.747-0.205c7.813-0.168,15.649-0.344,23.464-0.315    C473.49,247.847,480.437,248.78,486.447,247.568z M379.562,46.304c-0.031-0.042-0.062-0.085-0.091-0.127    c-0.094-0.157-0.169-0.321-0.22-0.495c-0.415-1.432,1.711-3.964,2.594-4.778c2.255-2.08,5.66-2.943,8.567-3.617    c3.158-0.733,6.361-0.975,9.574-1.302c1.215-0.013,2.384-0.027,3.466-0.07c6.024-0.24,12.354-0.437,18.207,1.235    c3.349,0.957,8.833,4.09,6.369,8.445c-1.869,3.303-8.765,3.743-12.025,4.048c-4.418,0.413-8.871,0.389-13.304,0.382    c-4.355-0.007-8.745-0.106-13.074-0.629C387.493,49.139,381.181,48.667,379.562,46.304z M419.252,76.492    c-4.547-1.129-10.544-0.099-14.49,0.101c-5.254,0.266-11.596-0.101-17.146,0.904c0.051-6.275,0.296-12.54,0.957-18.759    c4.931,0.703,9.792,0.821,13.048,0.87c5.079,0.076,12.357,0.426,19.108-0.556c-0.257,1.057-0.538,2.12-0.743,3.222    c-0.56,3.023-0.758,6.097-0.763,9.164C419.219,73.121,419.232,74.806,419.252,76.492z M381.444,144.382    c7.961-11.437,6.837-25.38,6.622-38.641c-0.111-6.863-0.338-13.776-0.426-20.691c5.265,0.575,11.122-0.49,16.106-0.691    c3.362-0.136,6.73-0.233,10.094-0.155c2.018,0.047,3.85,0.364,5.607,0.188c0.128,3.443,0.308,6.885,0.575,10.314    c1.107,14.191,3.621,27.886,10.995,40.266c4.966,8.337,11.812,15.513,17.607,23.312c-2.528,1.208-4.145,3.898-5.909,6.267    c-3.003,4.034-6.083,8.037-9.908,11.339c-7.879,6.804-19.797,11.171-30.21,10.681c-16.268-0.765-30.198-10.623-37.165-24.864    C371.021,156.167,376.923,150.876,381.444,144.382z M355.679,235.921c0.256-18.628,0.488-37.35,2.74-55.866    c0.521-4.28,0.766-7.94,2.058-11.313c5.009,15.026,26.467,24.621,40.297,26.05c11.329,1.17,23.764-2.768,33.233-8.896    c5.016-3.246,9.124-7.427,12.816-12.089c1.991-2.513,4.908-5.421,6.457-8.598c0.711,1.195,1.395,2.407,2.018,3.655    c6.179,12.352,5.835,27.934,6.281,41.383c0.303,9.118,0.637,18.24,0.964,27.361c-5.572-0.02-11.144-0.019-16.724,0.022    c-4.672,0.034-9.341,0.484-14.008,0.499c-3.07,0.01-6.103-0.589-9.171-0.607c-5.481-0.032-9.657,1.836-11.742,7.06    c-0.054,0.135-0.093,0.276-0.144,0.412c-1.798-0.029-3.597-0.062-5.395-0.109c-10.454-0.271-20.87-1.048-31.313-1.534    c-5.129-0.239-10.325-0.294-15.452,0.049c-0.96,0.064-2.004,0.142-3.059,0.273C355.587,241.089,355.644,238.505,355.679,235.921z     M355.358,252.102c1.694,0.036,3.383-0.049,4.856-0.035c4.915,0.048,9.821,0.407,14.727,0.678    c11.178,0.617,22.328,1.424,33.524,1.71c0.135,0.003,0.27,0.004,0.405,0.008c-0.147,1.79-0.229,3.575-0.303,5.306    c-0.129,3.024-0.501,6.645-0.345,10.054c-10.524-0.333-21.049-0.607-31.577-0.772c-7.256-0.113-14.512-0.142-21.768-0.139    C355.054,263.309,355.222,257.706,355.358,252.102z M222.591,46.304c-0.031-0.042-0.062-0.085-0.091-0.127    c-0.093-0.157-0.169-0.321-0.22-0.495c-0.415-1.432,1.711-3.964,2.594-4.778c2.255-2.08,5.66-2.943,8.566-3.617    c3.159-0.733,6.362-0.975,9.574-1.302c1.215-0.013,2.384-0.027,3.466-0.07c6.024-0.24,12.354-0.437,18.207,1.235    c3.349,0.957,8.833,4.09,6.369,8.445c-1.869,3.303-8.765,3.743-12.024,4.048c-4.418,0.413-8.871,0.389-13.304,0.382    c-4.355-0.007-8.745-0.106-13.074-0.629C230.523,49.139,224.21,48.667,222.591,46.304z M262.281,76.492    c-4.547-1.129-10.544-0.099-14.49,0.101c-5.254,0.266-11.596-0.101-17.146,0.904c0.051-6.275,0.296-12.54,0.957-18.759    c4.931,0.703,9.792,0.821,13.048,0.87c5.079,0.076,12.357,0.426,19.108-0.556c-0.257,1.057-0.538,2.12-0.743,3.222    c-0.56,3.023-0.758,6.097-0.764,9.164C262.249,73.121,262.261,74.806,262.281,76.492z M224.473,144.382    c7.961-11.437,6.837-25.38,6.622-38.641c-0.111-6.863-0.338-13.776-0.426-20.691c5.265,0.575,11.122-0.49,16.106-0.691    c3.362-0.136,6.73-0.233,10.094-0.155c2.018,0.047,3.85,0.364,5.607,0.188c0.128,3.443,0.308,6.885,0.575,10.314    c1.107,14.191,3.621,27.886,10.995,40.266c4.966,8.337,11.812,15.513,17.607,23.312c-2.528,1.208-4.145,3.898-5.909,6.267    c-3.003,4.034-6.083,8.037-9.908,11.339c-7.879,6.804-19.797,11.171-30.21,10.681c-16.268-0.765-30.198-10.623-37.165-24.864    C214.05,156.167,219.952,150.876,224.473,144.382z M198.708,235.921c0.256-18.628,0.488-37.35,2.74-55.866    c0.521-4.28,0.766-7.94,2.059-11.313c5.008,15.026,26.467,24.621,40.297,26.05c11.329,1.17,23.765-2.768,33.233-8.896    c5.016-3.246,9.124-7.427,12.816-12.089c1.991-2.513,4.908-5.421,6.457-8.598c0.711,1.195,1.395,2.407,2.019,3.655    c6.179,12.352,5.834,27.934,6.281,41.383c0.384,11.555,0.815,23.113,1.224,34.674c-7.079-0.41-14.374,0.024-21.345,0.103    c-12.032,0.137-24.068,0.173-36.098-0.138c-10.454-0.271-20.87-1.048-31.313-1.534c-5.129-0.239-10.325-0.294-15.452,0.049    c-0.961,0.064-2.004,0.142-3.06,0.273C198.616,241.089,198.673,238.505,198.708,235.921z M198.387,252.102    c1.694,0.036,3.383-0.049,4.856-0.035c4.915,0.048,9.821,0.407,14.727,0.678c11.178,0.617,22.328,1.424,33.524,1.71    c12.023,0.307,24.048,0.266,36.074,0.19c5.636-0.036,12.624,1.154,18.601-0.024c0.162,4.78,0.292,9.561,0.432,14.342    c-15.579,0.102-31.106,0.658-46.75,0.779c-2.831,0.022-5.661,0.044-8.492,0.066c-17.954,0.139-35.503-0.92-53.453-0.853    C198.083,263.338,198.25,257.721,198.387,252.102z M149.646,268.923c-4.763,0.017-9.527,0.053-14.29,0.128    c-10.529,0.164-21.054,0.438-31.578,0.772c0.156-3.409-0.215-7.03-0.345-10.054c-0.072-1.685-0.153-3.422-0.292-5.164    c9.151,0.123,18.303,0.098,27.455,0.041c5.636-0.036,12.624,1.154,18.601-0.024C149.358,259.388,149.505,264.156,149.646,268.923z     M65.621,46.304c-0.031-0.042-0.062-0.085-0.091-0.127c-0.093-0.157-0.169-0.321-0.22-0.495c-0.415-1.432,1.71-3.964,2.594-4.778    c2.255-2.08,5.66-2.943,8.567-3.617c3.159-0.733,6.362-0.975,9.574-1.302c1.215-0.013,2.384-0.027,3.466-0.07    c6.024-0.24,12.354-0.437,18.207,1.235c3.349,0.957,8.833,4.09,6.369,8.445c-1.869,3.303-8.765,3.743-12.024,4.048    c-4.418,0.413-8.871,0.389-13.304,0.382c-4.355-0.007-8.745-0.106-13.074-0.629C73.552,49.139,67.24,48.667,65.621,46.304z     M105.311,76.492c-4.547-1.129-10.544-0.099-14.49,0.101c-5.254,0.266-11.596-0.101-17.146,0.904    c0.051-6.275,0.296-12.54,0.957-18.759c4.931,0.703,9.792,0.821,13.048,0.87c5.079,0.076,12.357,0.426,19.108-0.556    c-0.257,1.057-0.538,2.12-0.743,3.222c-0.56,3.023-0.758,6.097-0.764,9.164C105.278,73.121,105.291,74.806,105.311,76.492z     M67.502,144.382c7.961-11.437,6.837-25.38,6.622-38.641c-0.111-6.863-0.338-13.776-0.426-20.691    c5.265,0.575,11.122-0.49,16.106-0.691c3.362-0.136,6.73-0.233,10.094-0.155c2.018,0.047,3.85,0.364,5.607,0.188    c0.128,3.443,0.308,6.885,0.575,10.314c1.107,14.191,3.621,27.886,10.995,40.266c4.966,8.337,11.812,15.513,17.607,23.312    c-2.528,1.208-4.145,3.898-5.909,6.267c-3.003,4.034-6.083,8.037-9.908,11.339c-7.879,6.804-19.797,11.171-30.21,10.681    c-16.268-0.765-30.198-10.623-37.165-24.864C57.08,156.167,62.982,150.876,67.502,144.382z M41.736,235.922    c0.257-18.629,0.49-37.351,2.742-55.867c0.521-4.28,0.766-7.94,2.059-11.313c5.008,15.026,26.467,24.621,40.297,26.05    c11.329,1.17,23.765-2.768,33.233-8.896c5.016-3.246,9.124-7.427,12.816-12.089c1.991-2.513,4.908-5.421,6.457-8.598    c0.711,1.195,1.395,2.407,2.019,3.655c6.179,12.352,5.834,27.934,6.281,41.383c0.384,11.555,0.815,23.113,1.224,34.674    c-7.079-0.41-14.374,0.024-21.345,0.103c-8.75,0.099-17.502,0.142-26.252,0.04c-0.059-0.159-0.106-0.324-0.169-0.481    c-2.085-5.225-6.26-7.092-11.742-7.06c-3.068,0.018-6.101,0.617-9.171,0.607c-4.666-0.015-9.336-0.465-14.008-0.499    c-8.166-0.06-16.316-0.035-24.473,0.033C41.714,237.083,41.728,236.503,41.736,235.922z M24.505,249.413    c-0.048-0.499-0.182-1.056-0.239-1.595c0.429-0.083,0.857-0.167,1.286-0.25c6.01,1.213,12.957,0.279,19.048,0.257    c7.815-0.029,15.651,0.148,23.464,0.315c5.959,0.128,11.799,0.683,17.747,0.205c1.175-0.094,2.365-0.233,3.546-0.216    c0.763,0.011,1.25,0.105,1.536,0.16c0.095,0.043,0.189,0.087,0.282,0.133c0.375,0.938,0.58,1.943,0.762,2.944    c0.752,4.126,0.702,8.455,0.682,12.633c-0.01,2.011-0.213,4.126-0.221,6.211c-6.531,0.23-13.062,0.47-19.593,0.72    c-16.266,0.624-33.115,0.107-49.352,2.244c0.228-4.872,0.787-9.792,1.11-14.629C24.767,255.472,24.802,252.478,24.505,249.413z     M498.974,432.813c-0.289,8.579-1.649,17.088-1.989,25.657c-0.085,2.142,0.575,6.747-0.879,8.47    c-1.143,1.354-4.589,0.408-6.523,0.377c-8.973-0.146-18.132,1.866-27.104,2.451c-56.521,3.683-113.447,4.241-170.073,4.71    c-57.138,0.474-114.26-0.278-171.378-1.778c-14.841-0.39-29.667-1.13-44.504-1.594c-9.003-0.391-18.01-0.752-27.003-1.338    c-8.972-0.585-18.132-2.596-27.104-2.451c-1.934,0.031-5.38,0.978-6.523-0.377c-1.454-1.723-0.794-6.328-0.879-8.47    c-0.339-8.569-1.7-17.077-1.989-25.657c-0.29-8.599,1.105-17.109,1.016-25.677c-0.033-3.153-1.673-12.654,0.568-14.666    c1.114-1.001,5.928-0.462,7.675-0.446c4.154,0.039,8.3-0.225,12.45-0.4c9.346-0.394,18.69-0.829,28.033-1.282    c19.374-0.94,38.747-1.915,58.132-2.58c21.835-0.749,43.658-0.728,65.501-0.927c9.866-0.09,19.741-0.312,29.6,0.182    c9.822,0.492,19.618,1.332,29.454,1.553c12.999,0.293,26.052,0.021,39.042-0.208c6.913-0.122,13.79-0.879,20.683-1.348    c6.823-0.464,13.624-0.241,20.419-0.179c21.842,0.199,43.666,0.178,65.501,0.927c19.385,0.665,38.759,1.64,58.132,2.58    c9.343,0.453,18.687,0.888,28.033,1.282c4.15,0.175,8.296,0.439,12.45,0.4c1.747-0.016,6.561-0.556,7.675,0.446    c2.24,2.013,0.601,11.513,0.568,14.666C497.869,415.704,499.264,424.214,498.974,432.813z M23.784,375.04    c-0.031-0.885-0.055-1.806-0.118-2.728c1.028-0.05,2.043-0.116,3.049-0.186c-0.105,2.506-0.202,5.013-0.328,7.518    c-0.018,0.35-0.029,0.7-0.046,1.05c-0.825-0.015-1.655-0.028-2.485-0.033C24.01,378.785,23.847,376.832,23.784,375.04z     M89.395,374.368c0.116,1.264,0.367,2.647,0.863,3.908c-8.46,0.351-16.919,0.724-25.378,1.107    c-9.111,0.413-18.223,0.804-27.336,1.17c0.11-3.048,0.221-6.096,0.328-9.144c17.158-1.009,34.354-1.632,51.535-2.069    C89.215,371.013,89.244,372.728,89.395,374.368z M100.47,369.096c16.276-0.329,32.555-0.464,48.834-0.498    c-0.067,2.686-0.107,5.37-0.116,8.051c-6.609,0.055-13.217,0.139-19.826,0.295c-9.623,0.228-19.243,0.554-28.862,0.922    c0.171-0.529,0.299-1.097,0.38-1.714C101.152,374.071,100.949,371.551,100.47,369.096z M161.298,376.578    c0.037-2.662,0.085-5.326,0.143-7.99c0.424,0,0.849-0.001,1.274-0.001c7,0.007,14.049,0.089,21.114,0.138    c-0.105,2.646-0.219,5.292-0.343,7.937C176.09,376.608,168.694,376.569,161.298,376.578z M194.65,376.75    c0.096-2.664,0.191-5.328,0.283-7.991c10.341-0.025,20.682-0.246,30.923-1.017c6.113,0.123,12.226,0.316,18.342,0.555    c14.722,0.575,29.448,1.098,44.183,1.015c5.941-0.034,11.939,0.257,17.857,0.046c-0.057,2.498-0.083,4.994-0.09,7.489    c-5.885,0.044-11.77,0.069-17.655,0.026c-13.067-0.096-26.197,1.077-39.296,1.23c-8.638,0.1-17.046-1.293-25.69-1.23    C213.887,376.944,204.27,376.84,194.65,376.75z M318.276,376.74c0.035-2.66,0.068-5.324,0.123-7.986    c7.486,0.005,14.968-0.073,22.412-0.127c-0.102,2.659-0.225,5.316-0.348,7.974c-7.062,0.024-14.124,0.066-21.186,0.13    C318.943,376.734,318.61,376.737,318.276,376.74z M411.12,376.152c0.081,0.618,0.209,1.185,0.38,1.714    c-9.619-0.368-19.239-0.694-28.862-0.922c-10.335-0.245-20.671-0.344-31.007-0.362c0.096-2.664,0.188-5.328,0.28-7.992    c19.874-0.01,39.749,0.104,59.618,0.506C411.05,371.551,410.847,374.07,411.12,376.152z M422.593,369.339    c19.119,0.487,38.259,1.175,57.343,2.404c2.6,0.168,5.473,0.427,8.398,0.569c-0.063,0.922-0.087,1.842-0.118,2.728    c-0.062,1.792-0.225,3.745-0.072,5.621c-3.387,0.021-6.763,0.17-9.861,0.049c-10.389-0.408-20.776-0.857-31.162-1.328    c-8.459-0.383-16.918-0.756-25.378-1.107c0.496-1.261,0.747-2.644,0.863-3.908C422.756,372.728,422.785,371.013,422.593,369.339z     M497.826,361.379c-6.087,1.49-13.733-0.411-19.903-0.791c-9.051-0.557-18.112-0.923-27.172-1.316    c-19.003-0.824-38.017-1.306-57.036-1.542c-19.384-0.241-38.798-0.458-58.182-0.143c-16.552,0.269-33.278-0.052-49.816,1.18    c-14.18-0.562-28.371-0.991-42.571-1.378c-13.778-0.375-27.529-0.477-41.302,0.145c-2.124,0.096-4.278,0.16-6.445,0.224    c-6.322-0.049-12.64-0.068-18.933-0.171c-19.384-0.315-38.798-0.097-58.182,0.143c-19.019,0.236-38.033,0.719-57.036,1.542    c-9.059,0.393-18.121,0.759-27.172,1.316c-6.17,0.38-13.816,2.281-19.903,0.791c-5.763-1.411-3.107-10.293-2.678-14.635    c0.782-7.927-0.503-15.862-0.24-23.803c0.286-8.649,1.365-17.224,1.876-25.852c0.15-2.53-0.137-6.093,1.052-8.438    c1.331-2.625,4.637-3.064,7.299-3.546c16.708-3.02,34.411-2.418,51.321-3.21c19.077-0.893,38.157-1.779,57.247-2.355    c21.294-0.643,42.592-0.573,63.891-0.942c21.992-0.38,43.986,0.183,65.967,0.845c19.515,0.587,38.698-1.181,58.148-0.845    c21.298,0.368,42.597,0.299,63.891,0.942c19.09,0.576,38.17,1.462,57.247,2.355c16.911,0.791,34.614,0.19,51.322,3.21    c2.662,0.481,5.968,0.921,7.299,3.546c1.189,2.345,0.902,5.908,1.052,8.438c0.512,8.628,1.59,17.204,1.876,25.852    c0.262,7.941-1.022,15.876-0.24,23.803C500.932,351.086,503.589,359.968,497.826,361.379z"/>
	</g>
</g>
<g>
	<g>
		<path d="M461.818,310.805c-7.297-5.161-16.274-1.534-19.293,6.534c-2.907,7.767,1.08,16.924,9.229,19.321    c7.249,2.132,14.677-2.695,15.212-10.214C468.386,320.818,466.674,314.239,461.818,310.805z M459.067,330.565    c-3.507,2.944-9.628-1.337-10.814-4.785c-1.89-5.497,3.216-13.567,9.344-9.805c0.71,0.436,1.279,0.928,1.733,1.465    C461.848,320.422,462.332,327.825,459.067,330.565z"/>
	</g>
</g>
<g>
	<g>
		<path d="M461.274,415.382c-7.298-5.161-16.274-1.534-19.294,6.534c-2.906,7.767,1.08,16.924,9.229,19.321    c7.249,2.132,14.677-2.695,15.211-10.214C467.841,425.395,466.129,418.815,461.274,415.382z M458.569,435.117    c-3.523,2.322-9.462-0.694-10.86-4.759c-1.89-5.497,3.216-13.567,9.344-9.805c0.71,0.435,1.279,0.928,1.733,1.465    C460.508,424.058,461.156,433.412,458.569,435.117z"/>
	</g>
</g>
<g>
</g>
<g>
</g>
<g>
</g>
<g>
</g>
<g>
</g>
<g>
</g>
<g>
</g>
<g>
</g>
<g>
</g>
<g>
</g>
<g>
</g>
<g>
</g>
<g>
</g>
<g>
</g>
<g>
</g>
</svg>
