<?xml version="1.0" encoding="iso-8859-1"?>
<!-- Generator: Adobe Illustrator 19.0.0, SVG Export Plug-In . SVG Version: 6.00 Build 0)  -->
<svg version="1.1" id="Capa_1" xmlns="http://www.w3.org/2000/svg" xmlns:xlink="http://www.w3.org/1999/xlink" x="0px" y="0px"
	 viewBox="0 0 512.004 512.004" style="enable-background:new 0 0 512.004 512.004;" xml:space="preserve">
<g>
	<g>
		<path d="M511.223,423.971c-2.079-3.532-8.4-4.534-11.977-5.655c-3.777-1.184-7.603-2.142-11.467-2.95
			c1.593-2.435,0.451-5.388-2.288-6.657c-6.969-3.229-13.928-6.481-21.509-7.605c1.073-0.824,2.114-1.694,3.109-2.624
			c6.67-6.24,11.521-14.027,19.314-19.05c2.498-1.61,2.789-5.965,0.243-7.708c-1.516-1.038-3.074-1.967-4.656-2.826
			c7.561-5.229,14.764-14.334,17.287-18.828c1.479-2.636-0.693-6.519-3.64-6.802c-2.345-0.226-4.687-0.905-7.028-1.761
			c8.688-6.421,7.551-22.207,9.543-31.478c0.586-2.727-2.209-4.348-4.525-3.759c-2.566,0.652-4.96,1.368-7.243,2.182
			c1.872-5.931,2.704-14.932-3.725-15.601c-4.077-0.424-8.636,4.067-11.662,6.279c-3.195,2.336-6.238,4.845-9.183,7.475
			c-1.013-2.728-4.068-3.562-6.714-2.112c-8.011,4.388-16.047,8.735-21.809,16.069c-1.207,1.536-2.382,3.22-3.343,4.992
			c-1.397-1.157-3.397-1.475-5.099-0.186c-0.376,0.284-0.748,0.564-1.122,0.846c-0.827-0.459-1.848-0.634-2.807-0.43
			c-2.59,0.551-5.009,1.171-7.323,1.895c2.104-5.853,3.29-14.814-3.108-15.736c-4.057-0.584-8.789,3.724-11.9,5.815
			c-0.716,0.482-1.401,1.002-2.104,1.501c1.109-4.214,2.42-8.357,4.64-12.244c1.474-2.581-0.275-6.579-3.339-6.952
			c-1.824-0.222-3.635-0.328-5.434-0.361c4.298-8.126,6.491-19.526,6.658-24.678c0.097-3.021-3.62-5.465-6.366-4.357
			c-2.185,0.881-4.576,1.358-7.048,1.678c4.748-9.704-3.54-23.188-6.046-32.332c-0.737-2.69-3.965-2.84-5.749-1.249
			c-1.976,1.762-3.77,3.5-5.42,5.276c-1.073-6.126-4.486-14.497-10.499-12.126c-3.813,1.503-5.788,7.591-7.453,10.949
			c-1.758,3.547-3.301,7.177-4.702,10.867c-0.208-0.188-0.426-0.345-0.649-0.484c0.869-8.757,1.74-17.513,2.576-26.272
			c2.39-25.018,7.825-52.491,3.196-77.708c0.957-3.158,1.609-6.463,1.894-9.897c17.465-6.486,21.081-30.374,16.139-47.295
			c-6.194-21.205-27.726-23.017-46.415-20.913c-2.79-15.618-17.178-22.135-30.698-26.776c-16.295-5.593-30.756-14.778-48.548-9.399
			c-13.885,4.198-24.098,16.198-25.417,30.087c-16.094-1.175-32.561,4.103-42.851,17.193c-3.062,3.895-5.467,8.228-6.962,12.969
			c-1.363,4.322-0.448,8.528-1.185,12.758c-0.536,3.078-1.541,2.691-4.326,4.123c-1.453,0.747-2.754,1.652-4.045,2.652
			c-3.195,2.477-5.794,5.571-7.72,9.131c-7.394,13.674-2.9,29.419,8.898,38.289c-0.916,12.156,0.547,25.231,1.432,37.383
			c0.685,9.399,1.672,18.776,2.961,28.111c0.562,4.067,1.228,8.123,1.594,12.19c0.136,1.517,2.224,12.752,1.321,13.374
			c-0.223,0.139-0.441,0.296-0.649,0.484c-1.4-3.691-2.943-7.321-4.702-10.867c-1.665-3.358-3.64-9.446-7.453-10.949
			c-6.013-2.371-9.426,6-10.499,12.126c-1.65-1.775-3.444-3.513-5.421-5.276c-1.784-1.591-5.011-1.44-5.749,1.249
			c-2.507,9.145-10.794,22.628-6.046,32.332c-2.471-0.32-4.863-0.796-7.048-1.678c-2.745-1.108-6.463,1.336-6.366,4.357
			c0.166,5.152,2.359,16.552,6.658,24.678c-1.8,0.032-3.61,0.138-5.434,0.361c-3.063,0.373-4.813,4.371-3.339,6.952
			c2.22,3.886,3.531,8.03,4.64,12.244c-0.703-0.498-1.388-1.019-2.104-1.501c-3.111-2.091-7.843-6.4-11.9-5.815
			c-6.398,0.922-5.212,9.883-3.108,15.736c-2.313-0.724-4.733-1.344-7.323-1.895c-0.959-0.204-1.98-0.028-2.807,0.43
			c-0.374-0.282-0.746-0.562-1.122-0.846c-1.701-1.289-3.701-0.97-5.099,0.186c-0.961-1.772-2.136-3.457-3.343-4.992
			c-5.762-7.333-13.798-11.681-21.809-16.069c-2.647-1.45-5.701-0.616-6.714,2.112c-2.944-2.63-5.987-5.139-9.183-7.475
			c-3.026-2.212-7.585-6.704-11.662-6.279c-6.429,0.669-5.597,9.67-3.725,15.601c-2.283-0.814-4.676-1.53-7.243-2.182
			c-2.317-0.589-5.111,1.032-4.525,3.759c1.992,9.271,0.856,25.057,9.543,31.478c-2.341,0.856-4.682,1.536-7.028,1.761
			c-2.947,0.283-5.119,4.166-3.64,6.802c2.523,4.495,9.725,13.599,17.287,18.828c-1.582,0.859-3.14,1.788-4.656,2.826
			c-2.546,1.743-2.255,6.098,0.243,7.708c7.793,5.023,12.645,12.811,19.314,19.05c0.995,0.931,2.036,1.801,3.109,2.624
			c-7.581,1.123-14.54,4.375-21.509,7.605c-2.738,1.269-3.881,4.222-2.287,6.657c-3.864,0.808-7.69,1.766-11.467,2.95
			c-3.577,1.121-9.898,2.123-11.977,5.655c-3.279,5.57,4.457,10.246,10.341,12.261c-2.011,1.354-4.007,2.854-6.056,4.532
			c-1.849,1.514-2.204,4.725,0.338,5.873c8.642,3.902,20.669,14.19,30.995,11.012c-0.701,2.392-1.545,4.68-2.756,6.701
			c-1.522,2.539,0.313,6.592,3.312,6.968c5.115,0.639,16.717,0.249,25.415-2.729c-0.249,1.783-0.426,3.588-0.491,5.424
			c-0.109,3.084,3.568,5.435,6.346,4.381c8.669-3.288,17.816-2.567,26.797-4.229c7.029-1.301,13.582-4.314,19.146-8.815
			c6.217-5.029,9.426-11.184,13.674-17.596c1.863-2.81,3.194-6.016,3.967-9.362c1.99,0.19,4.021,0.203,5.973,0.353
			c3.289,0.252,6.787,0.638,9.991-0.418c4.764-1.57,7.917-6.31,6.636-11.33c-0.016-0.063-0.041-0.121-0.058-0.184
			c2.617-0.244,5.257-0.573,8.007-0.822c3.358-0.303,6.693-1.267,9.787-2.754c1.096,1.671,2.355,3.266,3.458,4.883
			c1.859,2.725,3.744,5.697,6.571,7.538c4.203,2.738,9.873,2.237,12.992-1.901c3.819-5.067,1.999-12.106-1.484-16.84
			c-2.033-2.763-4.853-4.84-7.448-7.043c-0.176-0.15-0.35-0.302-0.523-0.455c0.149-0.36,0.307-0.716,0.439-1.084
			c0.457-1.286,0.844-2.596,1.176-3.922c2.67,3.352,6.278,6.073,11.219,7.845c9.069,3.252,19.596,3.565,29.091,4.568
			c18.924,1.999,37.874,1.993,56.728,0c9.495-1.004,20.022-1.316,29.091-4.568c4.941-1.772,8.549-4.493,11.219-7.845
			c0.332,1.326,0.719,2.635,1.176,3.922c0.131,0.368,0.289,0.724,0.439,1.084c-0.173,0.153-0.347,0.305-0.523,0.455
			c-2.595,2.203-5.415,4.28-7.448,7.043c-3.483,4.734-5.302,11.772-1.483,16.84c3.119,4.138,8.789,4.639,12.992,1.901
			c2.827-1.841,4.712-4.813,6.571-7.538c1.103-1.617,2.362-3.212,3.458-4.883c3.094,1.488,6.429,2.452,9.787,2.754
			c2.751,0.248,5.39,0.577,8.007,0.822c-0.017,0.063-0.042,0.121-0.058,0.184c-1.281,5.021,1.872,9.76,6.636,11.33
			c3.204,1.056,6.703,0.67,9.991,0.418c1.952-0.15,3.984-0.163,5.973-0.353c0.772,3.346,2.104,6.551,3.967,9.362
			c4.249,6.412,7.457,12.567,13.674,17.596c5.564,4.501,12.117,7.514,19.146,8.815c8.981,1.661,18.128,0.941,26.797,4.229
			c2.779,1.054,6.456-1.297,6.346-4.381c-0.065-1.836-0.242-3.641-0.491-5.424c8.697,2.979,20.3,3.368,25.415,2.729
			c2.999-0.375,4.834-4.428,3.312-6.968c-1.211-2.021-2.055-4.309-2.756-6.701c10.326,3.177,22.353-7.111,30.995-11.012
			c2.542-1.148,2.187-4.359,0.338-5.873c-2.049-1.677-4.045-3.178-6.056-4.532C506.765,434.218,514.502,429.542,511.223,423.971z
			 M476.112,414.613c-5.837,5.517-12.165,10.194-20.018,11.052c-2.492-1.445-5.386-2.762-8.396-3.717
			c4.369-0.239,8.949-0.49,12.772-2.446c0.738-0.379,0.621-1.452-0.134-1.726c-5.388-1.958-11.852-0.847-17.478-0.584
			c-0.572,0.027-1.16,0.03-1.754,0.025c1.741-2.073,3.434-4.197,5.139-6.287c4.831,0.975,10.073-0.095,14.955,0.336
			C466.221,411.709,471.259,412.956,476.112,414.613z M426.858,405.482c-7.482,1.457-14.129,5.3-21.149,8.137
			c-2.129,0.86-4.408,1.598-6.703,2.358c3.669-3.54,7.502-7.019,11.606-10.013c9.439-6.888,20.558-6.498,31.091-3.288
			c-7.557,8.866-14.472,20.481-26.76,20.72c-1.651,0.032-3.295-0.042-4.931-0.164c-2.479-0.737-4.996-1.242-7.513-1.493
			c1.411-0.474,2.795-0.97,4.133-1.442c7.811-2.76,15.963-5.721,21.695-11.922C429.426,407.185,428.605,405.143,426.858,405.482z
			 M489.39,314.851c-2.006,8.186-2.189,16.649-9.018,22.865c-0.122,0.111-0.221,0.228-0.325,0.344
			c-1.716-0.657-3.433-1.224-5.15-1.615c0.058-0.063,0.117-0.129,0.175-0.191c2.634-2.789,5.076-5.613,7.023-8.93
			c0.563-0.959-0.745-1.677-1.509-1.237c-3.704,2.132-6.753,4.958-9.867,7.852c-0.586,0.544-1.181,1.072-1.757,1.607
			c-0.82-0.067-1.641-0.118-2.462-0.141c2.44-2.981,4.699-6.238,7.135-8.707C477.835,322.445,483.473,317.651,489.39,314.851z
			 M464.202,316.445c3.066-2.837,6.181-5.602,9.485-8.162c1.596-1.237,3.223-2.434,4.879-3.591c-0.005,0.07-0.005,0.14-0.01,0.21
			c-0.106,2.146-0.209,4.233-0.084,6.383c0.014,0.246,0.053,0.472,0.106,0.685c-3.204,1.788-6.268,3.969-9.346,6.791
			c-1.822,1.671-3.889,3.56-5.906,5.609c0.057-2.471-0.029-4.932-0.188-7.254C463.505,316.96,463.865,316.757,464.202,316.445z
			 M460.614,345.083c4.815-1.028,9.767-0.662,14.55,0.318c3.626,0.743,8.397,1.859,12.308,3.72
			c-4.861,5.914-10.973,13.747-17.967,14.944c-4.943-1.205-10.038-1.685-15.162-1.471c4.556-3.004,9.91-5.23,13.927-8.896
			c0.296-0.27,0.284-0.887-0.215-0.932c-5.838-0.523-11.717,2.15-16.826,4.746c-2.646,1.345-5.353,2.661-7.52,4.687
			c-1.136,1.062-2.685,3.311-4.481,3.692c-0.269,0.057-0.544,0.072-0.824,0.035c-4.837-0.645,7.914-13.169,9.273-14.274
			C451.504,348.544,455.738,346.125,460.614,345.083z M442.736,325.555c3.339-3.779,7.333-7.093,11.548-10.012
			c0.973,7.972,0.979,15.841-2.994,22.67c-2.642,1.148-5.42,2.694-7.976,4.549c2.402-3.657,4.92-7.492,5.615-11.73
			c0.135-0.819-0.799-1.362-1.467-0.917c-4.775,3.173-7.72,9.033-10.848,13.717c-0.318,0.476-0.665,0.951-1.022,1.426
			c-0.634-2.631-1.337-5.255-2.007-7.868C437.238,334.081,439.491,329.229,442.736,325.555z M444.289,374.206
			c9.966-2.926,21.132-3.007,30.488,1.494c-8.002,6.852-13.412,16.646-23.032,21.528c-0.304-0.187-0.632-0.352-1.012-0.464
			c-4.398-1.297-8.663-2.634-12.853-3.67c6.02-3.237,11.942-6.629,17.897-9.983c2.041-1.15,0.197-4.435-1.891-3.588
			c-7.552,3.066-15.113,6.062-22.572,9.362c-1.789,0.791-3.789,1.543-5.82,2.349c-1.969-0.045-3.933,0.061-5.899,0.351
			C423.822,382.559,435.644,376.745,444.289,374.206z M421.037,351.271c1.616-4.72,2.303-10.142,3.036-14.99
			c0.06-0.045,0.115-0.095,0.175-0.139c2.646,11.345,7.885,23.807,0.781,33.836c-0.954,1.347-1.99,2.627-3.06,3.87
			c-0.055,0.041-0.104,0.087-0.158,0.128c1.286-1.604,2.329-3.058,3.034-4.206c1.582-2.576-0.436-6.541-3.369-6.94
			c-0.249-0.034-0.496-0.092-0.744-0.136C421.395,358.911,421.622,355.091,421.037,351.271z M419.671,376.516
			c-1.228,5.523-3.326,11.007-5.503,16.371c-0.435,0.146-0.87,0.302-1.306,0.47c-0.209-0.956-0.676-1.841-1.49-2.447
			c-1.474-1.097-2.994-2.087-4.541-3.007C411.534,384.917,416.154,380.508,419.671,376.516z M393.538,371.239
			c-5.813-0.753-11.793,1.687-17,4.08c-2.696,1.24-5.453,2.448-7.698,4.388c-1.177,1.016-2.813,3.203-4.623,3.512
			c-0.271,0.047-0.546,0.051-0.824,0.003c-4.808-0.835,8.426-12.847,9.828-13.898c3.947-2.958,8.273-5.208,13.186-6.056
			c4.852-0.838,9.786-0.277,14.527,0.891c3.594,0.886,8.317,2.189,12.152,4.201c-5.09,5.718-11.506,13.304-18.542,14.225
			c-4.892-1.399-9.964-2.079-15.092-2.066c4.671-2.823,10.108-4.836,14.266-8.341C394.022,371.919,394.035,371.302,393.538,371.239z
			 M373.854,347.792c-4.897,2.982-8.069,8.722-11.38,13.279c-0.337,0.463-0.702,0.924-1.077,1.384
			c-0.53-2.654-1.13-5.304-1.696-7.941c3.78-3.161,6.221-7.922,9.609-11.464c3.485-3.645,7.607-6.798,11.934-9.55
			c0.658,8.005,0.355,15.868-3.884,22.534c-2.685,1.043-5.522,2.479-8.149,4.232c2.544-3.56,5.211-7.293,6.073-11.499
			C375.451,347.954,374.539,347.375,373.854,347.792z M416.35,334.19c-2.326,8.1-2.843,16.55-9.912,22.493
			c-0.126,0.106-0.229,0.219-0.338,0.331c-1.689-0.724-3.382-1.359-5.082-1.817c0.061-0.06,0.121-0.124,0.182-0.184
			c2.742-2.683,5.293-5.408,7.37-8.647c0.6-0.936-0.679-1.705-1.459-1.296c-3.785,1.985-6.943,4.688-10.168,7.457
			c-0.607,0.521-1.222,1.025-1.819,1.537c-0.817-0.099-1.635-0.183-2.455-0.237c2.556-2.882,4.941-6.048,7.473-8.419
			C404.504,341.323,410.327,336.755,416.35,334.19z M390.028,335.421c0.374-0.142,0.742-0.331,1.09-0.63
			c3.176-2.714,6.397-5.353,9.799-7.782c1.643-1.173,3.317-2.306,5.016-3.395c-0.008,0.07-0.011,0.14-0.019,0.21
			c-0.19,2.14-0.375,4.222-0.335,6.375c0.004,0.246,0.034,0.473,0.079,0.689c-3.272,1.661-6.419,3.719-9.606,6.418
			c-1.887,1.598-4.026,3.404-6.122,5.372C390.084,340.211,390.094,337.747,390.028,335.421z M385.322,321.917
			c-0.913-0.067-1.886,0.105-2.824,0.572c-2.844,1.415-5.688,2.828-8.446,4.364c0.532-0.817,1.062-1.634,1.596-2.451
			c1.281-1.961-1.87-4.027-3.332-2.312c-5.288,6.203-10.615,12.348-15.712,18.715c-0.299,0.374-0.617,0.754-0.938,1.135
			c-1.258-0.689-2.81-0.763-4.217,0.217c-1.267,0.883-2.523,1.75-3.769,2.614c1.339-8.763,7.998-17.532,13.669-22.974
			c7.494-7.191,17.365-12.412,27.742-12.732C387.425,313.193,386.41,317.573,385.322,321.917z M388.1,279.627
			c-1.587,7.489-3.399,17.258-9.053,21.546c-4.943,1.21-9.684,3.133-14.132,5.686c2.657-4.767,6.382-9.21,8.256-14.315
			c0.138-0.376-0.157-0.918-0.621-0.728c-5.422,2.228-9.406,7.31-12.742,11.97c-1.728,2.413-3.522,4.829-4.512,7.626
			c-0.518,1.466-0.856,4.176-2.274,5.342c-0.212,0.175-0.449,0.315-0.715,0.411c-4.59,1.658,0.95-15.335,1.647-16.942
			c1.962-4.526,4.604-8.624,8.45-11.796c3.799-3.132,8.362-5.091,13.058-6.427C379.024,280.989,383.772,279.78,388.1,279.627z
			 M365.483,266.109c1.765-5.711,4.558-12.563,8.517-17.777c1.994,8.189,5.734,15.783,2.54,24.448
			c-0.057,0.154-0.091,0.304-0.13,0.455c-1.826,0.208-3.611,0.496-5.314,0.941c0.023-0.082,0.044-0.168,0.067-0.25
			c1.052-3.69,1.916-7.321,2.115-11.163c0.057-1.111-1.434-1.144-1.909-0.402c-2.304,3.6-3.707,7.513-5.135,11.517
			c-0.269,0.753-0.553,1.496-0.818,2.236c-0.758,0.319-1.511,0.652-2.25,1.011C363.957,273.354,364.46,269.422,365.483,266.109z
			 M352.384,261.359c1.413-3.931,2.902-7.82,4.653-11.616c0.846-1.833,1.738-3.646,2.674-5.436c0.028,0.065,0.06,0.127,0.088,0.192
			c0.896,1.953,1.767,3.853,2.869,5.703c0.126,0.212,0.264,0.394,0.41,0.559c-2.019,3.064-3.732,6.412-5.162,10.335
			c-0.846,2.323-1.81,4.952-2.655,7.7c-1.089-2.219-2.3-4.363-3.511-6.351C352.003,262.138,352.229,261.792,352.384,261.359z
			 M350.964,286.63c-1.815,2.236-3.567,4.89-4.98,7.714c0.445-4.353,0.911-8.917-0.425-12.997c-0.258-0.789-1.337-0.84-1.725-0.138
			c-1.251,2.262-1.905,4.842-2.319,7.501c0.769-7.541,1.537-15.082,2.295-22.624C348.043,272.429,351.323,279.116,350.964,286.63z
			 M342.308,326.924c-0.226,1.636-0.555,3.249-0.931,4.845c-1.114,2.333-2.006,4.742-2.645,7.188
			c-0.249-1.468-0.522-2.912-0.781-4.307c-0.238-1.282-0.48-2.574-0.739-3.866c0.607-5.92,1.213-11.84,1.82-17.761
			C341.542,317.211,343.022,321.747,342.308,326.924z M165.655,125.379c4.985-4.136,11.63-4.008,13.835-11.211
			c1.988-6.493,0.866-12.988,4.408-19.189c8.013-14.031,24.818-16.67,39.561-14.683c6.439,0.868,10.725-4.47,8.083-10.514
			c-9.164-20.962,23.229-31.087,37.81-25.057c13.591,5.621,43.587,13.393,42.029,32.894c-0.328,4.105,3.897,5.996,7.236,5.512
			c12.024-1.74,31.309-3.91,36.736,10.563c3.279,8.746,3.882,32.284-9.228,33.627c-3.583,0.367-6.88,2.812-6.787,6.787
			c0.536,22.928-18.949,39.155-41.343,36.327c-4.856-0.613-6.528,5.245-4.995,8.704c4.673,10.548,5.102,22.76,2.085,33.834
			c-2.603,9.555-8.445,21.227-19,23.701c-12.799,3-17.656-9.96-18.054-20.39c-0.47-12.319,3.689-24.238,7.719-35.701
			c1.251-3.557-2.136-8.517-6.11-8.021c-12.617,1.576-34.531-0.435-34.044-17.949c0.089-3.184-3.563-6.506-6.81-5.188
			c-13.927,5.655-31.513,12.387-46.299,5.972C160.65,150.26,154.245,134.846,165.655,125.379z M168.198,266.086
			c0.758,7.542,1.526,15.083,2.295,22.624c-0.414-2.659-1.068-5.239-2.319-7.501c-0.388-0.702-1.467-0.651-1.725,0.138
			c-1.337,4.081-0.871,8.644-0.425,12.997c-1.413-2.825-3.165-5.478-4.98-7.714C160.685,279.116,163.965,272.429,168.198,266.086z
			 M172.976,313.025c0.606,5.92,1.213,11.841,1.82,17.761c-0.259,1.292-0.501,2.583-0.739,3.866
			c-0.258,1.396-0.532,2.839-0.781,4.307c-0.64-2.447-1.531-4.855-2.646-7.188c-0.376-1.597-0.705-3.21-0.931-4.845
			C168.986,321.747,170.466,317.211,172.976,313.025z M149.341,250.203c1.102-1.85,1.973-3.749,2.869-5.703
			c0.028-0.065,0.06-0.127,0.088-0.192c0.936,1.789,1.828,3.603,2.674,5.436c1.751,3.795,3.24,7.685,4.653,11.616
			c0.155,0.432,0.381,0.779,0.635,1.087c-1.211,1.988-2.423,4.133-3.511,6.351c-0.845-2.748-1.808-5.378-2.655-7.7
			c-1.43-3.923-3.143-7.271-5.162-10.335C149.077,250.598,149.215,250.414,149.341,250.203z M138.008,248.332
			c3.959,5.214,6.752,12.066,8.517,17.777c1.024,3.314,1.526,7.246,2.317,11.016c-0.739-0.359-1.491-0.692-2.25-1.011
			c-0.264-0.74-0.549-1.483-0.818-2.236c-1.428-4.004-2.831-7.917-5.135-11.517c-0.475-0.742-1.967-0.709-1.91,0.402
			c0.198,3.841,1.063,7.473,2.115,11.163c0.023,0.082,0.044,0.168,0.067,0.25c-1.704-0.445-3.488-0.733-5.314-0.941
			c-0.039-0.151-0.073-0.301-0.13-0.455C132.274,264.114,136.014,256.52,138.008,248.332z M136.545,282.002
			c4.696,1.335,9.26,3.294,13.058,6.427c3.846,3.171,6.488,7.27,8.45,11.796c0.696,1.607,6.236,18.6,1.647,16.942
			c-0.265-0.096-0.502-0.236-0.715-0.411c-1.418-1.166-1.755-3.876-2.274-5.342c-0.989-2.797-2.784-5.214-4.511-7.626
			c-3.336-4.66-7.321-9.743-12.743-11.97c-0.464-0.19-0.759,0.352-0.62,0.728c1.874,5.105,5.599,9.548,8.256,14.315
			c-4.448-2.553-9.19-4.476-14.132-5.686c-5.654-4.287-7.466-14.056-9.053-21.546C128.236,279.78,132.984,280.989,136.545,282.002z
			 M150.66,321.797c5.671,5.442,12.329,14.211,13.669,22.974c-1.247-0.864-2.503-1.731-3.77-2.614
			c-1.406-0.98-2.958-0.906-4.216-0.217c-0.321-0.381-0.638-0.761-0.938-1.135c-5.097-6.367-10.424-12.512-15.712-18.715
			c-1.462-1.715-4.613,0.351-3.332,2.312c0.533,0.816,1.064,1.634,1.596,2.451c-2.758-1.536-5.602-2.949-8.446-4.364
			c-0.938-0.467-1.911-0.639-2.824-0.572c-1.088-4.344-2.103-8.724-3.768-12.852C133.295,309.385,143.166,314.606,150.66,321.797z
			 M118.293,372.177c4.158,3.505,9.596,5.517,14.266,8.341c-5.128-0.013-10.2,0.668-15.092,2.066
			c-7.035-0.921-13.452-8.507-18.542-14.225c3.835-2.013,8.558-3.316,12.152-4.201c4.741-1.168,9.675-1.728,14.527-0.891
			c4.912,0.848,9.239,3.098,13.186,6.056c1.401,1.05,14.636,13.063,9.828,13.898c-0.278,0.048-0.553,0.044-0.824-0.003
			c-1.81-0.31-3.446-2.496-4.623-3.512c-2.245-1.939-5.002-3.148-7.699-4.388c-5.208-2.394-11.187-4.833-17-4.08
			C117.973,371.302,117.986,371.919,118.293,372.177z M149.535,361.07c-3.311-4.557-6.483-10.297-11.38-13.279
			c-0.685-0.417-1.597,0.161-1.43,0.975c0.861,4.207,3.528,7.94,6.073,11.499c-2.627-1.753-5.464-3.189-8.149-4.232
			c-4.239-6.666-4.542-14.529-3.884-22.534c4.327,2.752,8.448,5.905,11.934,9.55c3.387,3.542,5.829,8.303,9.609,11.465
			c-0.566,2.637-1.166,5.287-1.696,7.941C150.236,361.995,149.872,361.534,149.535,361.07z M111.091,327.01
			c3.402,2.429,6.623,5.068,9.799,7.782c0.349,0.298,0.717,0.488,1.09,0.63c-0.066,2.326-0.056,4.789,0.098,7.256
			c-2.096-1.968-4.236-3.774-6.122-5.372c-3.187-2.699-6.334-4.757-9.606-6.418c0.044-0.215,0.074-0.442,0.079-0.689
			c0.04-2.153-0.145-4.234-0.335-6.375c-0.008-0.07-0.011-0.14-0.019-0.21C107.775,324.703,109.448,325.836,111.091,327.01z
			 M111.867,345.409c2.532,2.371,4.917,5.537,7.473,8.419c-0.82,0.054-1.638,0.138-2.455,0.237
			c-0.596-0.512-1.212-1.016-1.819-1.537c-3.225-2.77-6.383-5.473-10.168-7.457c-0.78-0.409-2.06,0.359-1.459,1.296
			c2.076,3.238,4.628,5.964,7.37,8.647c0.061,0.059,0.122,0.124,0.182,0.184c-1.7,0.458-3.393,1.093-5.082,1.817
			c-0.109-0.112-0.212-0.225-0.338-0.331c-7.069-5.943-7.585-14.392-9.912-22.493C101.681,336.755,107.504,341.323,111.867,345.409z
			 M105.177,387.904c-1.547,0.92-3.067,1.91-4.541,3.007c-0.814,0.606-1.281,1.49-1.49,2.447c-0.436-0.168-0.871-0.324-1.306-0.47
			c-2.177-5.364-4.275-10.847-5.503-16.371C95.854,380.508,100.474,384.917,105.177,387.904z M83.682,408.375
			c5.732,6.201,13.885,9.162,21.696,11.922c1.338,0.473,2.722,0.968,4.133,1.442c-2.517,0.251-5.034,0.756-7.513,1.493
			c-1.636,0.122-3.281,0.196-4.931,0.164c-12.288-0.239-19.204-11.854-26.76-20.72c10.533-3.209,21.652-3.6,31.091,3.288
			c4.104,2.995,7.937,6.473,11.606,10.013c-2.296-0.76-4.575-1.499-6.703-2.358c-7.02-2.836-13.667-6.68-21.149-8.137
			C83.403,405.143,82.582,407.185,83.682,408.375z M87.761,336.143c0.06,0.044,0.115,0.095,0.175,0.139
			c0.733,4.849,1.42,10.27,3.036,14.99c-0.586,3.82-0.358,7.641,0.304,11.423c-0.248,0.044-0.496,0.102-0.744,0.136
			c-2.934,0.399-4.951,4.364-3.369,6.94c0.705,1.148,1.749,2.602,3.034,4.206c-0.054-0.042-0.104-0.087-0.158-0.128
			c-1.07-1.243-2.106-2.523-3.06-3.87C79.875,359.948,85.114,347.487,87.761,336.143z M57.724,315.544
			c4.215,2.919,8.209,6.233,11.548,10.012c3.245,3.673,5.497,8.526,9.15,11.834c-0.669,2.613-1.373,5.237-2.007,7.868
			c-0.357-0.475-0.703-0.949-1.022-1.426c-3.129-4.684-6.073-10.544-10.848-13.717c-0.668-0.444-1.602,0.098-1.468,0.917
			c0.695,4.238,3.213,8.072,5.615,11.73c-2.556-1.855-5.334-3.402-7.976-4.549C56.745,331.385,56.751,323.516,57.724,315.544z
			 M33.453,304.903c-0.005-0.07-0.005-0.14-0.01-0.21c1.655,1.156,3.283,2.354,4.879,3.591c3.304,2.56,6.418,5.325,9.485,8.162
			c0.337,0.311,0.697,0.515,1.065,0.672c-0.158,2.322-0.244,4.784-0.188,7.254c-2.017-2.049-4.084-3.938-5.906-5.609
			c-3.078-2.822-6.142-5.003-9.346-6.791c0.053-0.213,0.092-0.439,0.106-0.685C33.662,309.135,33.559,307.049,33.453,304.903z
			 M22.618,314.851c5.917,2.801,11.555,7.594,15.754,11.847c2.437,2.469,4.695,5.726,7.136,8.707
			c-0.821,0.022-1.642,0.074-2.462,0.141c-0.576-0.535-1.171-1.063-1.757-1.607c-3.113-2.894-6.163-5.719-9.867-7.852
			c-0.764-0.439-2.072,0.278-1.509,1.237c1.947,3.317,4.389,6.141,7.024,8.93c0.058,0.061,0.117,0.128,0.175,0.191
			c-1.717,0.391-3.433,0.958-5.15,1.615c-0.104-0.116-0.203-0.233-0.325-0.344C24.807,331.5,24.624,323.036,22.618,314.851z
			 M24.536,349.122c3.911-1.86,8.682-2.976,12.308-3.72c4.783-0.98,9.736-1.346,14.551-0.318c4.875,1.041,9.109,3.459,12.937,6.57
			c1.359,1.105,14.11,13.629,9.273,14.274c-0.28,0.037-0.554,0.022-0.823-0.035c-1.796-0.381-3.345-2.63-4.481-3.692
			c-2.167-2.026-4.874-3.342-7.52-4.687c-5.109-2.597-10.988-5.27-16.826-4.746c-0.499,0.045-0.511,0.662-0.215,0.932
			c4.017,3.666,9.371,5.891,13.927,8.896c-5.124-0.215-10.218,0.266-15.162,1.471C35.51,362.869,29.397,355.036,24.536,349.122z
			 M37.232,375.701c9.356-4.501,20.522-4.42,30.488-1.494c8.645,2.538,20.467,8.352,24.694,17.379
			c-1.966-0.29-3.931-0.396-5.899-0.351c-2.031-0.806-4.031-1.558-5.82-2.349c-7.459-3.3-15.019-6.296-22.572-9.362
			c-2.088-0.847-3.932,2.439-1.891,3.588c5.955,3.354,11.877,6.745,17.896,9.983c-4.19,1.036-8.455,2.373-12.853,3.67
			c-0.38,0.112-0.709,0.277-1.012,0.464C50.644,392.346,45.234,382.554,37.232,375.701z M50.809,411.266
			c4.882-0.43,10.124,0.639,14.955-0.336c1.705,2.09,3.398,4.214,5.139,6.287c-0.594,0.005-1.181,0.002-1.754-0.025
			c-5.626-0.263-12.09-1.374-17.478,0.584c-0.754,0.274-0.872,1.348-0.133,1.726c3.822,1.957,8.403,2.208,12.772,2.446
			c-3.01,0.955-5.904,2.272-8.396,3.717c-7.853-0.858-14.181-5.535-20.018-11.052C40.748,412.955,45.786,411.708,50.809,411.266z
			 M12.748,427.708c1.913-0.645,3.843-1.244,5.786-1.793c4.022-1.138,8.096-2.003,12.199-2.785c0.451-0.086,0.829-0.255,1.173-0.458
			c1.775,1.506,3.704,3.037,5.726,4.458c-2.846,0.406-5.594,0.948-8.02,1.422c-4.099,0.801-7.672,1.971-11.014,3.487
			c-0.14-0.169-0.299-0.335-0.488-0.492c-1.656-1.377-3.396-2.533-5.186-3.723C12.864,427.786,12.807,427.745,12.748,427.708z
			 M40.938,438.76c-4.177,0.787-8.261,1.563-12.176,3.277c-0.807,0.353-1.007,1.832,0.099,1.949
			c3.826,0.403,7.548,0.115,11.356-0.348c0.084-0.01,0.173-0.018,0.257-0.027c-0.705,1.613-1.268,3.331-1.758,5.103
			c-0.155,0.015-0.308,0.025-0.47,0.057c-9.057,1.804-15.976-3.074-23.753-6.321c5.767-3.098,12.971-4.789,18.887-5.641
			c3.433-0.495,7.395-0.378,11.243-0.572c-0.47,0.674-0.916,1.365-1.349,2.065C42.502,438.447,41.724,438.612,40.938,438.76z
			 M65.901,455.672c-5.116,4.916-15.048,5.184-22.693,5.583c0.826-4.252,2.76-8.753,4.315-12.112
			c2.051-4.431,4.698-8.633,8.384-11.897c3.732-3.305,8.192-5.276,12.969-6.508c1.696-0.438,19.345-3.261,16.991,1.014
			c-0.136,0.247-0.311,0.459-0.517,0.642c-1.373,1.219-4.102,1.13-5.632,1.413c-2.917,0.541-5.584,1.937-8.236,3.268
			c-5.123,2.569-10.765,5.713-13.81,10.721c-0.26,0.428,0.229,0.804,0.622,0.726c5.335-1.055,10.304-4.042,15.427-5.923
			C70.506,446.594,67.867,450.979,65.901,455.672z M89.378,455.935c6.935-3.115,13.888-6.156,20.743-9.454
			c3.057-1.471,6.871-2.89,10.431-4.644c-3.571,7.191-8.261,13.696-15.302,18.059c-10.11,6.265-22.093,4.381-33.119,6.926
			c1.934-10.2,8.629-19.137,16.901-25.418c7.909-6.006,21.32-12.789,31.584-8.716c-4.272,1.877-8.384,4.89-12.068,6.992
			c-7.084,4.042-13.984,8.346-20.936,12.603C85.692,453.46,87.241,456.895,89.378,455.935z M136.696,432.744
			c-1.417-0.044-2.803-0.039-4.131,0.13c0.088-2.154-0.072-4.307-0.469-6.405c0.162-0.034,0.324-0.068,0.484-0.098
			c1.187-0.225,2.792-0.579,4.517-0.833c0.983,0.291,1.976,0.556,2.983,0.777c2.248,0.492,4.408,0.712,6.535,0.787
			c0.279,0.288,0.536,0.603,0.743,0.976C150.764,434.24,139.815,432.841,136.696,432.744z M131.934,401.076
			c6.766,3.467,13.486,6.994,20.345,10.284c3.059,1.467,6.55,3.557,10.145,5.241c-7.845,1.707-15.855,2.111-23.661-0.658
			c-11.21-3.976-17.228-14.508-26.106-21.524c9.171-4.866,20.332-5.224,30.405-2.693c9.631,2.42,23.308,8.649,26.544,19.207
			c-4.135-2.161-9.057-3.488-13.001-5.051c-7.583-3.003-15.256-5.7-22.923-8.466C131.562,396.651,129.849,400.008,131.934,401.076z
			 M175.543,387.838c-2.173-7.253-3.327-14.844-6.867-21.595c-0.827-1.577-2.934-0.94-3.175,0.661
			c-1.258,8.35,1.526,16.565,4.253,24.387c0.467,1.34,0.946,2.73,1.457,4.128c-1.769-1.808-3.736-3.458-5.861-4.932
			c-1.118-1.201-2.203-2.438-3.21-3.747c-7.494-9.742-2.749-22.4-0.551-33.84c9.088,6.216,16.342,14.652,16.865,26.325
			c0.227,5.075-0.093,10.241-0.563,15.318C177.05,392.276,176.202,390.036,175.543,387.838z M189.916,428.924
			c-2.68,6.51-8.432-2.911-10.305-5.406c-0.851-1.134-1.722-2.212-2.684-3.144c1.736-1.277,3.317-2.748,4.707-4.369
			c0.128,0.105,0.255,0.21,0.379,0.316C185.022,418.9,191.906,424.091,189.916,428.924z M322.361,363.999
			c-0.974,9.389-0.608,20.33-3.978,29.233c-3.201,8.456-12.503,9.477-20.394,10.479c-28.633,3.634-55.334,3.634-83.97,0
			c-7.891-1.001-17.192-2.023-20.394-10.479c-3.371-8.904-3.005-19.844-3.979-29.233c-2.217-21.371-4.434-42.743-6.651-64.114
			c-4.4-42.417-7.662-85.465-11.899-128.038c-0.13-1.31-0.232-2.646-0.349-3.983c15.028,4.92,30.25,0.264,44.845-5.58
			c3.54,15.845,19.113,23.444,35.048,23.672c-4.141,13.312-6.976,27.269-3.556,41.031c3.469,13.956,14.448,24.32,29.461,22.069
			c14.109-2.115,23.233-14.131,27.902-26.754c4.736-12.805,4.851-26.591,1.567-39.654c12.798-0.099,24.554-5.289,33.097-13.81
			c-0.39,7.897-0.407,15.856-0.85,23.52c-1.049,18.133-1.28,36.226-3.611,54.263c-2.285,17.684-3.799,35.52-5.639,53.263
			C326.795,321.257,324.578,342.628,322.361,363.999z M332.397,423.518c-1.874,2.495-7.625,11.916-10.305,5.406
			c-1.99-4.835,4.894-10.026,7.904-12.603c0.124-0.106,0.251-0.211,0.379-0.316c1.39,1.621,2.971,3.091,4.707,4.369
			C334.119,421.307,333.248,422.385,332.397,423.518z M346.507,366.905c-0.241-1.602-2.349-2.238-3.175-0.661
			c-3.539,6.751-4.693,14.342-6.866,21.595c-0.659,2.199-1.507,4.439-2.348,6.707c-0.47-5.077-0.79-10.243-0.563-15.318
			c0.522-11.674,7.776-20.109,16.865-26.325c2.198,11.44,6.943,24.098-0.551,33.84c-1.007,1.309-2.092,2.546-3.21,3.747
			c-2.125,1.474-4.092,3.124-5.861,4.932c0.512-1.398,0.99-2.788,1.457-4.128C344.982,383.469,347.765,375.255,346.507,366.905z
			 M379.444,432.875c-1.328-0.169-2.714-0.175-4.131-0.13c-3.119,0.097-14.068,1.496-10.661-4.665
			c0.207-0.373,0.464-0.688,0.743-0.976c2.126-0.075,4.287-0.295,6.535-0.787c1.008-0.22,2-0.486,2.983-0.777
			c1.726,0.254,3.33,0.608,4.517,0.833c0.16,0.03,0.322,0.064,0.484,0.098C379.516,428.568,379.356,430.721,379.444,432.875z
			 M373.246,415.943c-7.807,2.769-15.816,2.365-23.661,0.658c3.595-1.684,7.086-3.773,10.145-5.241
			c6.859-3.29,13.579-6.817,20.345-10.284c2.085-1.068,0.372-4.424-1.748-3.66c-7.667,2.766-15.34,5.463-22.923,8.466
			c-3.944,1.562-8.866,2.889-13.001,5.051c3.235-10.558,16.912-16.788,26.544-19.207c10.073-2.531,21.234-2.173,30.405,2.693
			C390.473,401.435,384.455,411.966,373.246,415.943z M406.757,459.896c-7.04-4.363-11.731-10.868-15.302-18.059
			c3.561,1.754,7.374,3.173,10.432,4.644c6.855,3.298,13.808,6.34,20.743,9.454c2.137,0.96,3.686-2.475,1.764-3.652
			c-6.951-4.256-13.852-8.56-20.935-12.603c-3.685-2.103-7.797-5.115-12.068-6.992c10.264-4.073,23.675,2.71,31.584,8.716
			c8.272,6.281,14.967,15.218,16.901,25.418C428.85,464.276,416.867,466.161,406.757,459.896z M446.107,455.672
			c-1.966-4.693-4.604-9.078-7.819-13.073c5.123,1.882,10.092,4.868,15.427,5.923c0.393,0.078,0.883-0.298,0.622-0.726
			c-3.046-5.008-8.687-8.152-13.81-10.721c-2.653-1.33-5.32-2.727-8.236-3.268c-1.529-0.284-4.259-0.194-5.632-1.413
			c-0.206-0.183-0.381-0.395-0.517-0.642c-2.354-4.275,15.295-1.452,16.991-1.014c4.776,1.232,9.236,3.203,12.969,6.508
			c3.686,3.264,6.333,7.466,8.384,11.897c1.555,3.359,3.49,7.86,4.316,12.112C461.155,460.856,451.223,460.589,446.107,455.672z
			 M473.762,448.77c-0.161-0.032-0.315-0.042-0.47-0.057c-0.491-1.771-1.053-3.489-1.758-5.103c0.085,0.01,0.173,0.017,0.257,0.027
			c3.808,0.463,7.531,0.752,11.356,0.348c1.107-0.117,0.907-1.595,0.1-1.949c-3.915-1.714-7.999-2.49-12.176-3.277
			c-0.786-0.148-1.564-0.313-2.336-0.459c-0.433-0.699-0.879-1.391-1.349-2.065c3.847,0.194,7.81,0.077,11.243,0.572
			c5.916,0.852,13.12,2.544,18.887,5.641C489.737,445.695,482.819,450.573,473.762,448.77z M499.085,427.823
			c-1.79,1.189-3.53,2.346-5.186,3.723c-0.189,0.157-0.348,0.322-0.488,0.492c-3.341-1.516-6.915-2.686-11.014-3.487
			c-2.426-0.474-5.174-1.015-8.02-1.422c2.022-1.421,3.951-2.952,5.726-4.458c0.344,0.203,0.722,0.372,1.173,0.458
			c4.103,0.783,8.177,1.647,12.199,2.785c1.942,0.549,3.872,1.148,5.786,1.793C499.201,427.745,499.145,427.786,499.085,427.823z"/>
	</g>
</g>
<g>
</g>
<g>
</g>
<g>
</g>
<g>
</g>
<g>
</g>
<g>
</g>
<g>
</g>
<g>
</g>
<g>
</g>
<g>
</g>
<g>
</g>
<g>
</g>
<g>
</g>
<g>
</g>
<g>
</g>
</svg>
