<?xml version="1.0" encoding="iso-8859-1"?>
<!-- Generator: Adobe Illustrator 19.0.0, SVG Export Plug-In . SVG Version: 6.00 Build 0)  -->
<svg xmlns="http://www.w3.org/2000/svg" xmlns:xlink="http://www.w3.org/1999/xlink" version="1.1" id="Capa_1" x="0px" y="0px" viewBox="0 0 512.003 512.003" style="enable-background:new 0 0 512.003 512.003;" xml:space="preserve">
<g>
	<g>
		<path d="M504.284,1.043c-11.426,15.145-26.735,26.906-43.187,36.139c-30.536,17.138-63.683,27.71-98.488,31.592    c-18.181,2.028-36.709,2.867-54.996,3.141c-8.407,0.126-16.815,0.183-25.221,0.397c-16.209,0.413-32.489,0.152-48.7,0.046    c-1.357-0.009-2.713-0.011-4.079-0.046c-8.405-0.214-16.813-0.271-25.22-0.397c-18.288-0.274-36.816-1.113-54.997-3.141    c-34.805-3.883-67.952-14.455-98.488-31.592C34.455,27.95,19.146,16.189,7.719,1.044C5.898-1.37,1.811,0.811,3.546,3.484    c12.137,18.705,29.29,33.27,48.446,44.526c-2.153,7.061-1.204,14.307-0.268,21.621c1.23,9.612,1.979,19.294,2.985,28.932    c0.948,9.082,1.928,18.166,3.153,27.215c0.762,5.63,0.853,16.607,6.611,20.032c6.258,3.723,12.539-4.078,16.502-7.766    c6.771-6.301,13.502-12.647,20.077-19.153c11.012-10.898,22.508-21.994,32.238-34.221c2.371,6.911,4.213,14.019,6.459,20.96    c3.181,9.826,6.238,19.683,9.144,29.594c2.333,7.957,4.338,15.975,6.536,23.959c1.429,5.191,3.787,12.564,10.325,12.715    c6.362,0.147,9.022-6.769,11.413-11.471c4.821-9.48,10.162-18.722,15.202-28.089c4.632-8.608,9.223-17.213,13.371-26.066    c2.673-5.705,5.327-11.54,8.572-16.988c0.305,0.96,0.618,1.918,0.968,2.866c1.38,3.729,3.242,7.265,4.89,10.878    c4.115,9.023,7.547,18.277,10.91,27.599c2.885,7.996,5.728,16.01,8.642,23.994c1.38,3.781,2.776,7.466,4.929,10.599    c0.041,0.088,0.077,0.177,0.119,0.265c1.729,3.677,3.978,8.238,8.111,9.664c10.132,3.495,16.913-13.715,19.4-20.528    c2.915-7.984,5.757-15.998,8.642-23.994c3.364-9.321,6.796-18.576,10.91-27.599c1.648-3.613,3.51-7.149,4.89-10.878    c0.35-0.947,0.663-1.906,0.968-2.866c3.246,5.448,5.899,11.283,8.572,16.988c4.148,8.853,8.74,17.458,13.371,26.066    c5.04,9.366,10.381,18.608,15.202,28.089c2.391,4.701,5.051,11.617,11.413,11.471c6.538-0.151,8.896-7.524,10.325-12.715    c2.198-7.984,4.203-16.002,6.536-23.959c2.906-9.911,5.963-19.768,9.144-29.594c2.247-6.941,4.088-14.049,6.46-20.96    c9.73,12.227,21.227,23.322,32.238,34.221c6.574,6.507,13.306,12.853,20.077,19.153c3.963,3.688,10.244,11.489,16.502,7.766    c5.758-3.425,5.849-14.402,6.611-20.032c1.225-9.049,2.205-18.133,3.153-27.215c1.006-9.638,1.755-19.32,2.985-28.932    c0.936-7.314,1.884-14.559-0.268-21.621c19.156-11.257,36.309-25.821,48.446-44.527C510.193,0.81,506.105-1.371,504.284,1.043z     M98.704,106.732c-5.765,5.917-11.683,11.683-17.662,17.382c-2.866,2.732-5.75,5.446-8.635,8.158    c-0.626,0.588-1.693,1.322-2.599,2.084c-0.487-2.498-1.515-5.203-1.883-7.487c-0.634-3.947-1.11-7.918-1.607-11.884    c-1.03-8.211-1.939-16.437-2.833-24.664c-0.796-7.322-1.561-14.64-2.73-21.914c-0.891-5.542-1.973-11.194-2.442-16.838    c8.384,4.523,17.075,8.454,25.839,11.855c14.115,5.479,28.546,9.336,43.181,12.097C118.845,86.725,108.462,96.718,98.704,106.732z     M188.485,116.973c-4.515,8.482-9.117,16.917-13.714,25.354c-2.297,4.216-4.706,8.397-6.89,12.673    c-0.164,0.321-0.908,1.59-1.653,2.919c-0.246-0.571-0.481-1.114-0.605-1.546c-0.702-2.454-1.213-4.956-1.872-7.421    c-2.364-8.838-5.109-17.609-7.757-26.366c-4.472-14.79-8.483-30.198-14.147-44.675c17.955,2.547,36.158,3.721,54.408,4.444    c3.238,0.128,6.495,0.255,9.76,0.363C199.236,93.568,194.486,105.699,188.485,116.973z M287.594,86.441    c-1.249,3.938-3.007,7.599-4.706,11.359c-3.627,8.025-6.929,16.158-9.959,24.426c-2.92,7.97-5.47,16.07-8.342,24.057    c-1.106,3.076-3.835,15.55-7.737,16.398c-5.12,1.112-8.039-12.527-9.277-15.955c-2.936-8.13-5.526-16.382-8.501-24.5    c-3.03-8.269-6.332-16.401-9.959-24.426c-1.699-3.76-3.457-7.421-4.706-11.359c-0.367-1.158-0.729-2.315-1.109-3.462    c1.506-0.014,3.01-0.038,4.509-0.08c3.005-0.084,6.143-0.273,9.278-0.668c3.501,0.075,7.001,0.148,10.501,0.22    c8.26,0.17,16.504,0.608,24.759,0.858c4.423,0.134,9.067,0.25,13.529-0.38c0.943,0.019,1.884,0.041,2.829,0.05    C288.323,84.126,287.961,85.283,287.594,86.441z M356.008,122.586c-2.648,8.757-5.393,17.529-7.757,26.366    c-0.659,2.465-1.169,4.966-1.872,7.421c-0.124,0.431-0.358,0.974-0.605,1.546c-0.745-1.328-1.489-2.598-1.654-2.919    c-2.184-4.276-4.593-8.456-6.89-12.673c-4.597-8.437-9.199-16.873-13.714-25.354c-6.002-11.274-10.752-23.405-17.53-34.255    c3.266-0.108,6.524-0.235,9.761-0.363c18.25-0.723,36.453-1.896,54.408-4.444C364.491,92.388,360.48,107.796,356.008,122.586z     M451.247,68.409c-1.169,7.274-1.934,14.591-2.73,21.914c-0.894,8.227-1.804,16.452-2.833,24.664    c-0.497,3.966-0.973,7.937-1.607,11.884c-0.367,2.284-1.396,4.99-1.882,7.487c-0.906-0.762-1.973-1.495-2.599-2.084    c-2.885-2.712-5.769-5.426-8.635-8.158c-5.98-5.699-11.897-11.465-17.663-17.382c-9.758-10.014-20.141-20.007-28.629-31.211    c14.635-2.763,29.067-6.62,43.181-12.099c8.763-3.402,17.455-7.332,25.839-11.853C453.22,57.214,452.138,62.867,451.247,68.409z"/>
	</g>
</g>
<g>
	<g>
		<path d="M504.282,337.432c-11.426,15.145-26.735,26.906-43.187,36.14c-30.536,17.138-63.683,27.71-98.488,31.592    c-18.181,2.028-36.709,2.867-54.996,3.141c-8.407,0.126-16.815,0.183-25.221,0.397c-16.209,0.413-32.489,0.152-48.7,0.046    c-1.357-0.009-2.713-0.012-4.079-0.046c-8.405-0.214-16.813-0.271-25.22-0.397c-18.288-0.274-36.816-1.113-54.997-3.141    c-34.805-3.883-67.952-14.455-98.488-31.592c-16.452-9.233-31.761-20.995-43.187-36.14c-1.821-2.414-5.908-0.233-4.174,2.44    c12.138,18.705,29.291,33.27,48.446,44.527c-2.153,7.061-1.204,14.307-0.268,21.621c1.23,9.612,1.979,19.293,2.985,28.932    c0.948,9.082,1.928,18.166,3.153,27.215c0.762,5.63,0.853,16.607,6.611,20.032c6.258,3.723,12.539-4.078,16.502-7.766    c6.771-6.301,13.502-12.647,20.077-19.153c11.012-10.898,22.508-21.994,32.238-34.221c2.371,6.911,4.213,14.019,6.459,20.96    c3.181,9.826,6.238,19.683,9.144,29.595c2.333,7.956,4.338,15.974,6.536,23.959c1.429,5.191,3.787,12.565,10.325,12.715    c6.362,0.147,9.022-6.769,11.413-11.47c4.821-9.48,10.162-18.722,15.202-28.089c4.632-8.608,9.223-17.213,13.371-26.066    c2.673-5.705,5.327-11.54,8.572-16.988c0.305,0.96,0.618,1.918,0.968,2.866c1.38,3.729,3.242,7.265,4.89,10.878    c4.115,9.023,7.547,18.277,10.91,27.599c2.885,7.996,5.728,16.01,8.642,23.994c1.38,3.781,2.776,7.466,4.929,10.599    c0.041,0.089,0.077,0.177,0.119,0.265c1.729,3.677,3.978,8.238,8.111,9.664c10.132,3.495,16.913-13.715,19.4-20.528    c2.915-7.984,5.757-15.998,8.642-23.994c3.364-9.322,6.796-18.576,10.91-27.599c1.648-3.613,3.51-7.148,4.89-10.878    c0.35-0.947,0.663-1.906,0.968-2.866c3.246,5.448,5.899,11.283,8.572,16.988c4.148,8.853,8.74,17.458,13.371,26.066    c5.04,9.366,10.381,18.608,15.202,28.089c2.391,4.701,5.051,11.617,11.413,11.47c6.538-0.151,8.896-7.524,10.325-12.715    c2.198-7.984,4.203-16.002,6.536-23.959c2.906-9.911,5.963-19.768,9.144-29.595c2.247-6.941,4.088-14.049,6.46-20.96    c9.73,12.227,21.227,23.322,32.238,34.221c6.574,6.507,13.306,12.853,20.077,19.153c3.963,3.688,10.244,11.489,16.502,7.766    c5.758-3.425,5.849-14.402,6.611-20.032c1.225-9.049,2.205-18.133,3.153-27.215c1.006-9.638,1.755-19.32,2.985-28.932    c0.936-7.314,1.884-14.559-0.268-21.621c19.156-11.257,36.309-25.821,48.446-44.527    C510.191,337.199,506.104,335.018,504.282,337.432z M98.704,443.121c-5.765,5.917-11.683,11.683-17.662,17.382    c-2.866,2.732-5.75,5.446-8.635,8.158c-0.626,0.589-1.693,1.322-2.599,2.084c-0.487-2.497-1.515-5.203-1.883-7.487    c-0.634-3.946-1.11-7.918-1.607-11.884c-1.03-8.211-1.939-16.437-2.833-24.664c-0.796-7.322-1.561-14.64-2.73-21.914    c-0.891-5.542-1.973-11.195-2.442-16.838c8.384,4.521,17.076,8.452,25.839,11.853c14.115,5.479,28.546,9.336,43.181,12.097    C118.845,423.114,108.462,433.107,98.704,443.121z M188.484,453.361c-4.515,8.482-9.117,16.917-13.714,25.354    c-2.297,4.216-4.706,8.397-6.89,12.673c-0.164,0.321-0.908,1.59-1.653,2.919c-0.246-0.571-0.481-1.114-0.605-1.546    c-0.702-2.454-1.213-4.956-1.872-7.421c-2.364-8.838-5.109-17.609-7.757-26.366c-4.472-14.79-8.483-30.198-14.147-44.675    c17.956,2.547,36.158,3.72,54.408,4.444c3.238,0.128,6.495,0.255,9.76,0.363C199.236,429.956,194.486,442.087,188.484,453.361z     M287.595,422.83c-1.249,3.938-3.007,7.599-4.706,11.359c-3.627,8.025-6.929,16.158-9.959,24.426    c-2.92,7.97-5.47,16.07-8.342,24.057c-1.106,3.076-3.835,15.55-7.737,16.397c-5.12,1.112-8.039-12.527-9.277-15.955    c-2.936-8.13-5.526-16.382-8.501-24.5c-3.03-8.269-6.332-16.401-9.959-24.426c-1.699-3.76-3.457-7.421-4.706-11.359    c-0.367-1.158-0.729-2.315-1.109-3.462c1.506-0.015,3.01-0.038,4.509-0.08c3.005-0.084,6.143-0.273,9.278-0.668    c3.501,0.075,7.001,0.148,10.501,0.22c8.26,0.17,16.504,0.608,24.759,0.858c4.423,0.134,9.067,0.25,13.529-0.38    c0.943,0.019,1.884,0.041,2.829,0.05C288.324,420.515,287.962,421.672,287.595,422.83z M356.009,458.974    c-2.648,8.757-5.393,17.529-7.757,26.366c-0.659,2.465-1.169,4.966-1.872,7.421c-0.124,0.431-0.358,0.974-0.605,1.546    c-0.745-1.328-1.489-2.598-1.654-2.919c-2.184-4.276-4.593-8.456-6.89-12.673c-4.597-8.437-9.199-16.873-13.714-25.354    c-6.002-11.274-10.752-23.405-17.53-34.255c3.264-0.108,6.522-0.235,9.76-0.363c18.25-0.723,36.453-1.897,54.408-4.444    C364.491,428.777,360.48,444.185,356.009,458.974z M451.248,404.797c-1.169,7.274-1.934,14.591-2.73,21.914    c-0.894,8.227-1.804,16.452-2.833,24.664c-0.497,3.966-0.973,7.937-1.607,11.884c-0.367,2.284-1.396,4.99-1.882,7.487    c-0.906-0.762-1.973-1.495-2.599-2.084c-2.885-2.712-5.769-5.426-8.635-8.158c-5.98-5.699-11.897-11.465-17.663-17.382    c-9.758-10.014-20.141-20.007-28.629-31.211c14.635-2.762,29.067-6.619,43.181-12.097c8.763-3.402,17.455-7.332,25.839-11.853    C453.221,393.602,452.138,399.255,451.248,404.797z"/>
	</g>
</g>
<g>
	<g>
		<path d="M498.284,170.527c0.4-0.89-0.25-1.804-1.241-1.615c-4.012,0.765-7.753,3.36-11.389,5.153    c-3.601,1.776-7.152,3.647-10.789,5.355c-7.975,3.743-16.345,6.648-24.705,9.397c-11.102,3.651-22.265,7.125-33.523,10.266    c-11.238,3.135-22.897,5.009-34.065,8.26c-21.813,6.349-44.79,7.643-67.391,9.831c-8.506,0.823-17.05,2.052-25.587,2.084    c-11.882,0.044-23.778,1.517-35.748,1.186c-15.873-0.439-31.628-2.527-47.407-4.148c-15.83-1.626-31.723-2.479-47.528-4.392    c-32.652-3.952-64.417-12.834-95.589-23.087c-8.361-2.75-16.73-5.654-24.705-9.397c-3.638-1.707-7.189-3.579-10.789-5.355    c-3.635-1.793-7.376-4.388-11.389-5.153c-0.991-0.189-1.641,0.724-1.241,1.615c2.648,5.894,10.231,10.534,15.633,13.733    c6.152,3.644,12.789,6.578,19.432,9.245c-6.597,19.056-12.238,38.564-18.205,57.816c-3.325,10.727-6.602,21.47-9.601,32.294    c-2.531,9.133-5.846,18.779-4.803,28.378c0.276,2.543,2.057,5.155,4.975,4.975c4.048-0.25,6.412-2.128,9.781-4.098    c3.885-2.271,8.612-3.112,12.732-4.955c3.924-1.756,7.825-3.708,11.598-5.766c2.826-1.542,3.65-3.532,5.906-1.2    c9.701,10.029,11.862,25.24,21.639,35.038c1.744,1.748,5.325,2.091,7.013,0c5.591-6.927,7.083-15.84,8.802-24.345    c2.19-10.838,5.917-21.41,9.234-31.945c3.667-11.642,7.45-23.241,11.044-34.907c1.815-5.892,3.709-11.754,5.844-17.539    c1.243-3.369,2.76-6.563,3.831-9.885c2.304,0.471,4.613,0.915,6.924,1.345c-2.714,7.252-4.131,14.909-5.459,22.574    c-1.863,10.756-4.839,21.223-7.365,31.834c-5.293,22.23-11.208,44.269-16.587,66.468c-1.102,4.549,3.438,7.346,7.326,5.632    c3.377-1.489,6.235-3.761,9.455-5.523c3.36-1.839,6.998-3.037,10.55-4.439c6.355-2.509,12.317-5.935,18.643-8.483    c3.441,6.593,7.86,12.48,12.212,18.557c3.488,4.87,7.445,14.232,13.677,16.109c7.061,2.126,8.643-6.252,9.711-11.077    c2.073-9.371,4.157-18.741,6.242-28.109c4.174-18.749,8.291-37.513,12.122-56.336c1.587-7.799,2.85-15.654,4.41-23.455    c1.019-5.094,2.635-10.006,3.877-15.005c3.385,0.322,6.771,0.631,10.158,0.93c-0.313,2.927-1.318,6.086-1.848,8.638    c-0.917,4.418-1.433,8.788-1.93,13.272c-1.345,12.135-2.815,24.243-4.383,36.351c-1.548,11.952-2.949,23.924-4.365,35.892    c-1.43,12.09-2.03,24.57-4.572,36.481c-0.648,3.033,1.433,6.756,4.954,6.504c6.861-0.491,12.163-5.912,17.32-9.924    c3.899-3.033,8.503-4.971,12.535-7.799c3.799-2.665,6.724-7.049,11.109-8.781c3.991-1.577,6.704,0.435,9.281,3.327    c5.301,5.951,12.167,8.479,18.306,13.254c5.157,4.012,10.459,9.433,17.32,9.924c3.522,0.252,5.602-3.471,4.954-6.504    c-2.543-11.911-3.142-24.392-4.572-36.481c-1.415-11.968-2.817-23.94-4.365-35.892c-1.568-12.108-3.038-24.216-4.383-36.351    c-0.497-4.485-1.012-8.855-1.93-13.272c-0.53-2.552-1.535-5.711-1.848-8.638c3.387-0.299,6.773-0.609,10.158-0.93    c1.242,4.999,2.858,9.911,3.877,15.005c1.561,7.801,2.823,15.656,4.41,23.455c3.83,18.823,7.947,37.587,12.122,56.336    c2.086,9.368,4.17,18.738,6.243,28.109c1.067,4.824,2.649,13.203,9.711,11.077c6.232-1.876,10.189-11.238,13.677-16.109    c4.352-6.077,8.771-11.965,12.212-18.557c6.327,2.548,12.289,5.974,18.644,8.483c3.551,1.402,7.189,2.6,10.55,4.439    c3.22,1.762,6.078,4.035,9.455,5.523c3.888,1.714,8.428-1.083,7.326-5.632c-5.379-22.199-11.294-44.238-16.586-66.468    c-2.526-10.611-5.503-21.077-7.365-31.834c-1.327-7.666-2.744-15.322-5.458-22.574c2.311-0.431,4.621-0.875,6.924-1.345    c1.071,3.322,2.588,6.516,3.831,9.885c2.135,5.785,4.029,11.648,5.844,17.539c3.594,11.665,7.377,23.265,11.044,34.907    c3.318,10.534,7.044,21.107,9.234,31.945c1.719,8.505,3.211,17.418,8.802,24.345c1.688,2.091,5.268,1.748,7.013,0    c9.777-9.798,11.938-25.009,21.639-35.038c2.256-2.332,3.081-0.342,5.906,1.2c3.774,2.059,7.675,4.011,11.598,5.766    c4.12,1.844,8.847,2.684,12.732,4.955c3.369,1.97,5.733,3.847,9.781,4.098c2.917,0.18,4.699-2.432,4.975-4.975    c1.043-9.599-2.272-19.245-4.803-28.378c-2.999-10.823-6.276-21.567-9.601-32.294c-5.967-19.252-11.608-38.76-18.205-57.816    c6.643-2.667,13.28-5.601,19.432-9.245C488.052,181.061,495.636,176.421,498.284,170.527z M117.512,221.994    c-1.989,5.498-3.73,11.08-5.47,16.661c-3.521,11.3-7.062,22.587-10.646,33.867c-3.38,10.638-7.143,21.344-9.724,32.208    c-1.379,5.804-1.826,13.101-4.276,19.018c-3.101-5.075-5.218-10.867-8.216-15.946c-3.252-5.51-6.667-11.889-11.861-15.816    c-6.228-4.708-11.969-0.091-17.822,2.921c-4.533,2.333-8.994,4.69-13.841,6.307c-2.344,0.782-4.762,1.521-6.991,2.611    c-0.324,0.158-0.657,0.364-0.994,0.584c0.764-7.114,3.216-14.233,5.043-20.964c2.942-10.836,6.14-21.599,9.371-32.352    c3.073-10.23,6.009-20.511,9.291-30.676c2.491-7.711,5.546-15.726,6.72-23.87c13.125,4.935,26.589,9.227,40.046,13.03    c7.271,2.055,14.595,3.928,21.96,5.619C119.133,217.365,118.356,219.66,117.512,221.994z M199.635,251.607    c-2.793,16.596-6.368,33.074-9.937,49.517c-3.376,15.554-6.45,31.251-10.196,46.728c-2.456-3.443-4.718-7.006-7.225-10.42    c-4.527-6.165-8.818-12.391-11.92-19.414c-0.846-1.916-3.724-2.92-5.641-2.295c-8.367,2.728-15.872,7.381-24.066,10.521    c-3.567,1.367-7.188,2.67-10.58,4.442c-0.016,0.008-0.031,0.018-0.047,0.026c4.496-18.005,9.221-35.941,13.503-54.013    c2.456-10.364,5.391-20.586,7.064-31.116c1.352-8.512,2.299-17.082,4.037-25.518c1.5,0.249,3.001,0.49,4.503,0.721    c16.808,2.58,33.768,3.698,50.696,5.185c1.725,0.152,3.449,0.312,5.173,0.471C201.491,234.126,200.927,243.929,199.635,251.607z     M290.125,325.449c0.995,8.438,1.618,17.027,2.765,25.498c-2.177-1.682-4.258-3.494-6.489-5.106    c-4.361-3.152-8.903-6.056-13.145-9.372c-3.758-2.937-7.335-6.252-12.214-7.093c-9.022-1.556-17.145,5.804-24.216,10.244    c-3.259,2.047-6.627,3.965-9.749,6.221c-2.231,1.612-4.311,3.424-6.489,5.106c1.147-8.471,1.77-17.059,2.765-25.498    c1.564-13.261,3.201-26.514,4.796-39.771c1.532-12.727,3.131-25.431,3.845-38.236c0.313-5.622,2.41-12.344,1.871-18.338    c2.585,0.223,5.271,0.412,7.948,0.46c4.622,0.432,9.273,0.716,13.968,0.806c7.924,0.153,15.858-0.151,23.707-1.256    c0.041-0.004,0.083-0.007,0.124-0.01c-0.539,5.993,1.557,12.716,1.871,18.338c0.714,12.805,2.313,25.509,3.845,38.236    C286.924,298.935,288.561,312.188,290.125,325.449z M379.953,276.7c4.282,18.071,9.007,36.008,13.503,54.013    c-0.016-0.008-0.031-0.018-0.047-0.026c-3.393-1.772-7.013-3.075-10.58-4.442c-8.195-3.14-15.699-7.793-24.066-10.521    c-1.917-0.625-4.794,0.38-5.641,2.295c-3.102,7.022-7.393,13.248-11.92,19.414c-2.507,3.414-4.768,6.977-7.225,10.42    c-3.746-15.477-6.819-31.173-10.196-46.728c-3.569-16.443-7.144-32.921-9.937-49.517c-1.292-7.678-1.856-17.481-5.363-25.166    c1.724-0.16,3.448-0.32,5.173-0.471c16.928-1.487,33.888-2.605,50.696-5.185c1.503-0.231,3.004-0.472,4.503-0.721    c1.737,8.437,2.685,17.007,4.037,25.518C374.562,256.114,377.497,266.335,379.953,276.7z M471.393,251.093    c3.23,10.753,6.429,21.516,9.371,32.352c1.827,6.731,4.28,13.85,5.043,20.964c-0.337-0.22-0.67-0.426-0.994-0.584    c-2.229-1.089-4.647-1.829-6.991-2.611c-4.847-1.617-9.308-3.974-13.841-6.307c-5.853-3.012-11.594-7.629-17.822-2.921    c-5.194,3.926-8.608,10.306-11.861,15.816c-2.998,5.079-5.116,10.871-8.216,15.946c-2.45-5.917-2.897-13.214-4.276-19.018    c-2.581-10.864-6.344-21.569-9.724-32.208c-3.583-11.28-7.124-22.567-10.645-33.867c-1.739-5.581-3.48-11.163-5.47-16.661    c-0.844-2.334-1.621-4.629-2.591-6.798c7.365-1.691,14.689-3.564,21.96-5.619c13.457-3.803,26.921-8.095,40.045-13.03    c1.174,8.145,4.229,16.159,6.72,23.87C465.384,230.582,468.319,240.863,471.393,251.093z"/>
	</g>
</g>
<g>
</g>
<g>
</g>
<g>
</g>
<g>
</g>
<g>
</g>
<g>
</g>
<g>
</g>
<g>
</g>
<g>
</g>
<g>
</g>
<g>
</g>
<g>
</g>
<g>
</g>
<g>
</g>
<g>
</g>
</svg>
