<?xml version="1.0" encoding="iso-8859-1"?>
<!-- Generator: Adobe Illustrator 19.0.0, SVG Export Plug-In . SVG Version: 6.00 Build 0)  -->
<svg version="1.1" id="Capa_1" xmlns="http://www.w3.org/2000/svg" xmlns:xlink="http://www.w3.org/1999/xlink" x="0px" y="0px"
	 viewBox="0 0 512 512" style="enable-background:new 0 0 512 512;" xml:space="preserve">
<g>
	<g>
		<path d="M402.717,259.382c-1.87-10.311-4.63-20.41-8.367-30.202c-1.512-3.96-3.158-8.231-5.122-12.366
			c0.741-0.616,1.331-1.455,1.644-2.508c8.686-29.237,2.123-61.29-14.305-86.608c-16.314-25.142-41.586-43.386-68.891-55.004
			c-7.734-3.291-16.473-6.881-25.418-9.185c0.416-2.162,0.586-4.402,0.91-6.613c0.562-3.826,1.071-7.658,1.58-11.492
			c1.052-7.928,2.953-16.274,2.543-24.303c-0.673-13.179-9.427-22.996-23.064-20.791c-10.836,1.753-27.682,4.7-30.692,17.382
			c-1.616,6.809,0.806,14.089,1.559,20.855c0.757,6.803-0.126,14.578,1.475,21.398c-9.913,1.487-19.562,7.014-27.898,12.211
			c-1.577,0.763-3.097,1.531-4.54,2.288c-14.438,7.575-27.016,18.496-36.839,31.473c-20.474,27.046-28.54,61.355-49.368,88.196
			c-1.963,2.53-1.742,5.465,0.951,7.378c5.037,3.577,10.2,6.107,15.433,7.744c-9.989,8.495-16.056,21.603-19.532,34.153
			c-5.805,20.96-6.333,43.696-8.522,65.242c-0.209,2.054,1.735,4.601,3.781,4.966c9.715,1.734,19.408,1.547,28.804-0.186
			c-6.83,13.308-8.841,28.597-8.814,43.704c0.016,8.94,0.94,17.97,2.885,26.699c1.51,6.776,3.237,17.815,12.128,18.15
			c7.482,0.282,15.811-7.379,21.623-11.456c2.305-1.617,4.576-3.285,6.829-4.976c-1.925,11.277-0.277,23.369,2.332,34.232
			c3.739,15.568,10.828,30.202,20.673,42.818c2.41,3.087,4.96,6.056,7.697,8.859c2.56,2.623,5.796,6.562,9.601,7.296
			c9.187,1.772,11.634-11.87,14.204-17.958c0.248-0.587,0.492-1.175,0.739-1.762c1.153,3.58,2.616,7.055,3.727,10.036
			c2.793,7.489,6.189,14.796,9.887,21.877c3.227,6.178,6.959,15.45,12.958,19.412c7.151,4.722,12.073-1.549,15.197-7.404
			c7.83-14.677,13.792-30.426,17.497-46.645c1.418-6.206,2.596-12.527,3.341-18.871c0.375,1.193,0.733,2.387,1.066,3.582
			c2.845,10.231,5.259,20.488,6.883,30.989c0.64,4.136,6.668,5.317,9.283,2.451c12.594-13.807,23.23-29.546,30.745-46.678
			c3.626-8.266,6.662-16.773,8.905-25.519c1.1-4.288,2.686-9.344,3.238-14.282c4.915,3.049,10.719,6.379,15.99,5.544
			c7.877-1.247,8.518-11.01,9.71-17.3c1.694-8.939,2.777-18.025,3.186-27.114c0.385-8.574,0.18-17.189-0.667-25.732
			c-0.165-1.668-0.318-3.435-0.508-5.236c5.215,2.828,10.432,5.652,15.655,8.466c2.974,1.603,7.896,0.4,8.52-3.466
			C406.768,301.932,406.55,280.512,402.717,259.382z M285.521,76.278c8.303,2.467,16.454,5.563,24.3,9.231
			c15.681,7.331,30.429,16.878,42.715,29.136c23.191,23.138,36.595,56.637,30.349,89.103c-11.204-8.49-23.754-13.792-37.6-17.675
			c-9.581-2.686-18.954-6.243-27.648-11.113c-3.111-1.743-6.643-2.996-9.654-4.796c-3.451-2.063-5.617-5.852-8.63-8.476
			c-3.725-3.244-7.095-6.988-10.21-10.813c-6.13-7.527-11.186-15.916-14.992-24.845c-3.014-7.07-5.067-14.429-6.476-21.927
			c1.11-7.622,1.149-16.087-0.698-23.579c3.681,2.487,7.892,4.471,11.198,6.485c7.497,4.567,14.8,9.434,21.474,15.155
			c12.901,11.059,24.319,25.254,30.482,41.203c0.684,1.769,3.101,1.082,2.817-0.777c-2.77-18.105-12.251-33.245-25.331-45.797
			c-6.923-6.643-14.618-12.535-22.597-17.85c-1.963-1.307-4.174-2.885-6.53-4.403C280.82,75.012,283.157,75.576,285.521,76.278z
			 M226.409,172.085c2.831-2.664,5.517-5.31,8.034-7.879c9.905-10.111,18.857-21.653,25.099-34.437
			c0.01,0.255,0.005,0.505,0.021,0.763c0.381,6.202,0.839,12.399,1.229,18.6c0.759,12.059,1.392,24.131,1.796,36.207
			c0.805,24.087,0.774,48.323,0.181,72.413c-0.058,2.355,3.403,2.276,3.609,0c2.217-24.472,3.362-48.864,3.591-73.448
			c0.112-12.072,0.026-24.139-0.353-36.206c-0.116-3.698-0.256-7.392-0.438-11.085c5.744,11.499,13.451,21.994,22.358,30.565
			c2.595,2.497,5.316,4.864,8.138,7.104c0.193,5.663,1.407,11.462,1.71,16.962c0.491,8.915,0.227,17.887-0.82,26.755
			c-2.107,17.842-7.44,35.455-15.602,51.455c-4.054,7.948-8.792,15.582-14.203,22.679c-0.661,0.867-3.293,5.257-4.414,5.369
			c-0.355,0.035-3.679-2.865-4.018-3.107c-3.831-2.736-7.39-5.818-10.697-9.168c-13.467-13.644-20.483-30.757-23.798-49.409
			c-1.282-7.215-2.866-14.548-2.921-21.907c-0.053-7.135,1.146-14.336,1.447-21.487
			C226.619,186.634,227.788,178.717,226.409,172.085z M246.325,14.862c4.236-2.914,10.016-4.169,14.941-5.295
			c5.766-1.318,11.617-2.665,15.136,3.33c3.145,5.356,1.885,12.224,1.005,18.017c-0.927,6.105-1.935,12.197-2.867,18.301
			c-0.587,3.844-1.731,8.201-2.022,12.378c-7.701-0.996-15.447,1.401-22.637-0.703c-6.896-2.018-4.506-6.264-4.506-12.725
			c0-6.028-1.003-12.009-1.946-17.945C242.534,24.589,240.863,18.619,246.325,14.862z M127.999,196.109
			c17.086-24.291,25.1-53.448,41.312-78.312c3.823-5.864,8.167-11.327,12.991-16.31c12.757-8.785,25.569-18.692,39.626-25.528
			c1.504-0.541,3.018-1.056,4.55-1.521c4.675-1.419,9.414-2.155,14.169-2.815c-0.635,0.489-1.259,0.978-1.874,1.449
			c-3.69,2.828-7.304,5.752-10.81,8.806c-7.47,6.508-14.26,13.771-20.559,21.41c-11.447,13.881-24.433,30.467-28.484,48.328
			c-0.157,0.692,0.765,1.387,1.293,0.752c5.682-6.835,10.01-14.584,15.178-21.804c5.595-7.817,11.555-15.338,18.146-22.342
			c6.211-6.6,12.894-12.711,19.772-18.606c3.773-3.234,7.661-6.331,11.675-9.262c2.657-1.94,5.595-3.801,7.837-6.244
			c0.89,0.893,1.693,1.942,2.373,3.19c2.136,3.917,3.04,8.558,3.22,13.296c-0.058,1.58-0.076,3.161-0.042,4.743
			c-0.191,3.564-0.698,7.066-1.323,10.239c-3.819,19.388-14.91,36.213-28.317,50.372c-2.844,3.004-5.787,5.984-8.814,8.909
			c-0.482,0.252-0.917,0.632-1.246,1.151c-0.023,0.036-0.04,0.075-0.063,0.111c-10.699,10.186-22.501,19.585-35.288,26.529
			C166.356,201.864,145.295,205.568,127.999,196.109z M116.95,304.24c1.572-18.178,2.453-36.771,6.406-54.558
			c3.354-15.09,10.006-27.73,20.616-38.411c20.622,2.329,41.78-7.519,60.144-20.682c-1.613,2.417-3.181,4.862-4.833,7.192
			c-5.911,8.334-11.846,16.64-18.137,24.694c-12.261,15.694-24.577,31.87-38.154,46.441c-0.585,0.628,0.291,1.476,0.932,0.932
			c15.591-13.246,30.58-26.369,43.929-41.983c6.333-7.408,12.535-14.973,18.321-22.818c3.02-4.096,6.466-8.322,9.268-12.841
			c-0.285,3.564-0.362,7.168-0.287,10.782c-0.319,4.523-0.767,9.037-1.418,13.52c-2.42,16.67-7.513,32.794-17.086,46.782
			C179.157,288.851,148.463,307.702,116.95,304.24z M156.996,383.87c-2.785,1.839-5.602,3.638-8.472,5.341
			c-0.68,0.404-1.389,0.944-2.13,1.231c-0.051,0.02-0.089,0.038-0.132,0.057c-0.008-0.078-0.025-0.163-0.065-0.266
			c-0.73-1.872-1.176-3.912-1.671-5.857c-1.969-7.738-3.258-15.657-3.712-23.63c-0.945-16.561,2.336-32.752,5.19-48.961
			c22.251-6.056,42.338-20.668,56.316-38.961c2.876-3.763,5.726-7.782,7.875-12.015c0.742-1.461,1.026-4.502,2.449-5.461
			c3.436-2.313,0.325,4.654-0.118,5.972c-3.363,10.013-7.462,19.799-11.966,29.351c-8.808,18.68-20.945,36.513-33.916,52.542
			c-1.12,1.384,0.622,3.224,1.985,1.985c16.083-14.623,28.586-31.342,39.445-50.136c5.282-9.142,9.64-18.723,13.4-28.585
			c0.939-2.464,1.839-4.922,2.65-7.388c3.537,10.464,8.569,20.256,15.797,29.191c-3.51,4.535-5.797,9.84-8.613,14.884
			c-3.662,6.56-7.638,12.944-11.901,19.13c-8.267,11.993-17.686,23.163-28.028,33.418
			C180.848,366.155,169.376,375.695,156.996,383.87z M222.925,446.205c-1.736,4.167-3.446,8.344-5.167,12.517
			c-0.794,1.926-1.588,3.852-2.382,5.778c-0.379,0.919-0.757,1.837-1.136,2.755c-2.424-1.588-4.883-4.958-6.702-7.003
			c-2.353-2.646-4.56-5.407-6.594-8.306c-7.674-10.936-13.268-23.245-16.446-36.22c-2.914-11.895-2.747-23.909-3.58-35.976
			c2.007-1.624,3.997-3.269,5.952-4.954c9.062-7.813,17.491-16.308,25.29-25.361c-2.966,9.462-4.074,19.912-4.816,28.609
			c-1.481,17.353-0.965,36.112,3.64,52.911c0.14,0.509,1.012,0.581,1.105,0c2.632-16.494,1.814-33.542,3.751-50.207
			c0.994-8.553,2.31-17.008,4.594-25.322c0.209-0.759,0.431-1.52,0.653-2.28c0.178,1.109,0.362,2.219,0.575,3.344
			c1.976,10.42,5.055,20.596,9.083,30.405c2.778,6.764,6.106,13.789,10.251,20.244c-1.086,1.44-2.14,2.896-3.039,4.429
			c-1.987,3.391-3.443,6.989-4.958,10.603C229.641,430.183,226.266,438.187,222.925,446.205z M282.145,427.197
			c-0.867,6.965-1.754,13.923-3.134,20.808c-2.659,13.267-6.695,26.373-12.205,38.737c-1.395,3.131-2.878,6.222-4.446,9.27
			c-0.59,1.146-1.217,3.401-2.194,4.126c-0.493,1.009-0.58,1.101-0.261,0.276c-0.342-0.531-0.684-1.062-1.026-1.593
			c-3.05-6.179-7.195-11.912-10.361-18.071c-3.271-6.362-6.206-12.913-8.921-19.531c-1.802-4.392-3.119-10.037-5.802-14.255
			c1.996-4.78,3.985-9.563,5.972-14.348c1.514-3.65,5.917-20.719,11.961-12.375c1.673,2.309,1.604,6.816,1.73,9.553
			c0.311,6.77-0.813,13.875-0.693,20.425c0.172,9.347-0.556,21.466,3.818,29.985c0.291,0.567,1.142,0.393,1.309-0.171
			c1.323-4.456,1.044-9.385,1.183-14.001c0.149-4.948,0.452-9.904,0.989-14.826c0.567-5.19,1.468-10.354,2.197-15.524
			c0.355-2.522,0.948-5.111,0.764-7.564c7.853,3.518,14.536-0.402,19.8-6.684C282.574,423.35,282.383,425.283,282.145,427.197z
			 M283.295,402.105c-2.592,4.627-9.651,18.822-16.051,16.493c-13.496-4.912-21.816-22.543-27.151-34.6
			c-7.081-16.003-10.7-33.159-13.923-50.279c0.103-0.687,0.211-1.374,0.284-2.064c0.014-0.128-0.012-0.237-0.024-0.352
			c3.903-5.449,7.594-11.048,11.029-16.807c3.452-5.789,7.402-11.867,9.637-18.371c1.917,1.858,3.91,3.637,5.992,5.312
			c3.645,2.932,6.369,3.868,7.146,8.731c0.707,4.425-0.149,8.952,0.247,13.399c0.639,7.163,1.288,14.335,1.74,21.513
			c0.43,6.831,0.733,13.667,0.817,20.512c0.08,6.518-0.343,13.231,1.147,19.623c0.126,0.539,1.013,0.712,1.256,0.164
			c2.608-5.881,3.208-12.419,3.831-18.763c0.703-7.16,1.2-14.345,1.392-21.537c0.192-7.185,0.135-14.343-0.382-21.512
			c-0.44-6.112-3.017-12.734,2.208-17.374c5.791-5.141,10.267-11.085,14.521-17.693c0.304-0.473,0.591-0.958,0.89-1.434
			c0.952,5.392,2.722,10.811,3.781,15.866c1.958,9.35,3.681,18.722,4.508,28.249c1.433,16.513,0.582,33.179-3.967,49.173
			C290.071,387.926,287.143,395.235,283.295,402.105z M338.253,397.722c-2.095,8.691-4.902,17.249-8.493,25.439
			c-5.598,12.768-12.833,24.596-21.686,35.24c-1.466-7.16-3.288-14.254-5.65-21.155c-3.004-8.775-6.32-18.608-12.258-25.903
			c2.646-4.163,4.99-8.515,6.983-13.041c4.611-10.472,7.58-21.554,9.144-32.85c1.525,5.213,2.743,10.604,3.433,15.952
			c1.629,12.622,1.533,25.435,2.058,38.123c0.077,1.862,3.098,2.501,3.432,0.465c2.243-13.674,3.256-27.428,2.086-41.273
			c-0.527-6.234-1.382-12.334-3.089-18.348c4.305,4.197,8.871,8.093,13.637,11.778c4.412,3.411,8.962,6.63,13.645,9.649
			C339.756,386.83,339.481,392.623,338.253,397.722z M367.229,365.291c-0.524,3.594-1.17,7.171-1.917,10.725
			c-0.329,1.565-0.958,3.237-1.082,4.834c-0.033,0.073-0.056,0.129-0.086,0.198c-0.188-0.043-0.397-0.084-0.64-0.12
			c-2.098-1.706-5.453-2.725-7.849-4.03c-3.098-1.687-6.147-3.464-9.144-5.325c-5.588-3.47-11.021-7.23-16.178-11.316
			c-4.851-3.843-9.561-7.845-14.178-11.966c-2.665-2.378-5.462-5.814-8.625-8.28c-0.378-10.768-1.78-21.506-3.805-32.079
			c-1.92-10.025-3.678-22.704-9.794-31.329c3.429-6.522,6.413-13.289,8.931-20.223c-1.274,6.057,0.898,12.649,3.183,18.312
			c3.427,8.492,8.096,16.528,12.551,24.508c9.012,16.144,18.316,32.225,30.389,46.211c1.164,1.348,2.928-0.37,2.294-1.77
			c-7.137-15.76-16.021-30.671-23.975-46.066c-4.001-7.745-8.171-15.531-11.445-23.619c-0.22-0.542-0.423-1.09-0.62-1.641
			c3.796,5.284,8.125,10.195,12.906,14.558c8.695,7.936,18.896,13.651,29.146,19.301c3.132,1.727,6.276,3.433,9.414,5.149
			c0.301,3.408,0.952,6.836,1.261,10.068c0.693,7.241,1.084,14.485,0.973,21.761C368.823,350.55,368.295,357.968,367.229,365.291z
			 M393.146,312.6c0.067-0.608-17.343-9.789-18.932-10.701c-5.581-3.203-12.346-5.536-18.223-8.631
			c-6.599-3.475-13.106-7.209-18.913-11.921c-7.825-6.351-14.496-14.072-19.651-22.729c-3.71-6.23-6.158-13.18-9.285-19.721
			c0.594-2.462,1.132-4.936,1.61-7.419c2.204-11.447,3.264-23.156,2.998-34.813c-0.043-1.862-0.081-3.831-0.147-5.842
			c1.002,1.274,2.163,2.49,3.157,3.622c3.314,3.772,6.622,7.546,9.91,11.342c6.559,7.573,13.005,15.199,19.097,23.155
			c5.982,7.812,11.588,15.908,16.435,24.479c2.413,4.267,4.668,8.642,6.705,13.103c2.097,4.592,3.402,9.96,6.337,14.102
			c0.634,0.894,1.941,0.557,2.028-0.549c0.684-8.693-4.449-19.03-7.877-26.84c-4.219-9.612-9.365-18.782-15.042-27.603
			c-5.481-8.518-11.718-16.577-18.065-24.462c-2.971-3.691-6.073-7.275-9.185-10.848c1.988,0.832,3.998,1.612,6.033,2.323
			c8.638,3.017,17.715,4.721,26.178,8.254c5.984,2.498,11.585,5.777,16.761,9.641c2.312,7.328,6.004,14.485,8.496,21.613
			c3.248,9.293,5.846,18.866,7.674,28.54C394.466,277.746,395.056,295.337,393.146,312.6z"/>
	</g>
</g>
<g>
</g>
<g>
</g>
<g>
</g>
<g>
</g>
<g>
</g>
<g>
</g>
<g>
</g>
<g>
</g>
<g>
</g>
<g>
</g>
<g>
</g>
<g>
</g>
<g>
</g>
<g>
</g>
<g>
</g>
</svg>
