<?xml version="1.0" encoding="iso-8859-1"?>
<!-- Generator: Adobe Illustrator 19.0.0, SVG Export Plug-In . SVG Version: 6.00 Build 0)  -->
<svg xmlns="http://www.w3.org/2000/svg" xmlns:xlink="http://www.w3.org/1999/xlink" version="1.1" id="Capa_1" x="0px" y="0px" viewBox="0 0 512.001 512.001" style="enable-background:new 0 0 512.001 512.001;" xml:space="preserve">
<g>
	<g>
		<path d="M498.304,234.481c1.572-5.149,1.828-10.559,3.234-15.752c1.734-6.402,4.988-11.424,9.27-16.412    c2.448-2.852,1.017-8.053-3.265-7.882c-1.373,0.055-3.108,0.009-5.026-0.036c2.74-5.587,3.446-14.2,3.645-17.778    c0.277-4.989-0.271-9.685-0.676-14.632c-0.817-9.988,1.761-19.497,5.326-28.743c1.309-3.394-2.46-5.993-5.412-5.412    c-3.22,0.633-6.451,1.536-9.588,2.697c1.401-2.109,2.654-4.326,3.81-6.585c2.474-4.836,5.171-10.428,4.546-15.999    c-0.358-3.194-3.046-4.666-5.967-3.424c-4.411,1.876-8.368,4.045-11.9,6.791c1.38-3.99,2.382-8.176,3.645-12.014    c3.098-9.415,4.842-18.884,5.595-28.752c0.725-9.517,0.99-19.119-0.343-28.595c-1.165-8.284-3.007-18.506-9.603-24.312    c-0.671-0.591-1.975-0.244-1.905,0.789c0.558,8.243,3.76,16.176,4.555,24.464c0.824,8.586,0.715,17.239,0.109,25.833    c-0.558,7.912-1.574,15.722-3.405,23.418c-0.734-6.464-2.11-12.854-3.25-18.494c-2.984-14.769-9.178-28.023-21.111-37.312    c-1.089-0.848-2.768-0.103-2.405,1.4c0.801,3.313,1.399,5.255,3.391,8.158c1.64,2.389,3.452,4.641,4.911,7.155    c3.694,6.361,5.701,13.635,7.147,20.798c1.448,7.169,2.722,14.419,3.411,21.703c0.259,2.738,0.381,5.482,0.476,8.226    c-2.678-6.543-6.857-11.372-11.656-8.451c-4.438,2.701-3.8,11.653-3.987,15.998c-0.061,1.427-0.091,2.856-0.125,4.284    c-7.362-8.414-17.089-14.717-28.672-13.595c-10.702,1.036-25.378,5.594-32.353,14.901c-0.327-0.918-0.66-1.833-0.982-2.752    c-2.556-7.286-5.238-14.592-7.938-21.764c-2.173-5.771-7.27-10.176-8.796-16.178c-0.498-1.96,0.226-4.018,0.156-5.999    c-0.083-2.348-0.849-4.638-1.9-6.721c-3.954-7.841-12.436-12.677-20.825-14.32c-9.152-1.793-17.354,0.209-25.217,4.998    c-3.042,1.853-7.576,6.12-11.212,4.902c-4.185-1.402-7.678-4.621-11.868-6.159c-17.724-6.503-37.223,3.514-48.284,17.231    c-2.963,3.675-4.444,8.466-5.413,13.029c-1.896,8.929-2.068,18.957,1.361,27.547c0.367,0.919,0.778,1.792,1.215,2.636    c-2.355,1.459-3.961,3.428-5.021,5.719c-1.06-2.292-2.666-4.26-5.021-5.719c0.437-0.844,0.847-1.717,1.214-2.636    c3.429-8.59,3.257-18.617,1.361-27.547c-0.969-4.563-2.45-9.354-5.413-13.029c-11.061-13.718-30.56-23.734-48.284-17.231    c-4.189,1.537-7.682,4.757-11.868,6.159c-3.635,1.218-8.169-3.049-11.212-4.902c-7.863-4.789-16.066-6.791-25.217-4.998    c-8.39,1.643-16.872,6.479-20.825,14.32c-1.05,2.083-1.817,4.373-1.9,6.721c-0.07,1.981,0.655,4.04,0.156,5.999    c-0.933,3.668-3.907,5.852-5.86,8.854c-2.175,3.343-4.189,7.468-5.409,11.262c-1.914,5.954-3.39,11.909-5.466,17.824    c-0.322,0.919-0.655,1.834-0.982,2.752c-6.975-9.307-21.652-13.864-32.353-14.901c-11.583-1.122-21.31,5.181-28.672,13.595    c-0.033-1.428-0.064-2.857-0.125-4.284c-0.186-4.345,0.45-13.297-3.987-15.998c-4.799-2.921-8.978,1.909-11.656,8.451    c0.095-2.744,0.217-5.488,0.476-8.226c0.689-7.284,1.964-14.534,3.411-21.703c1.446-7.164,3.453-14.437,7.147-20.798    c1.46-2.514,3.271-4.766,4.911-7.155c1.992-2.903,2.59-4.845,3.391-8.158c0.363-1.503-1.316-2.248-2.405-1.4    c-11.932,9.291-18.125,22.545-21.11,37.314c-1.14,5.64-2.516,12.03-3.25,18.494c-1.831-7.697-2.847-15.506-3.405-23.418    c-0.606-8.594-0.715-17.247,0.109-25.833c0.795-8.287,3.997-16.221,4.555-24.464c0.07-1.034-1.234-1.38-1.905-0.789    c-6.596,5.806-8.438,16.028-9.603,24.312c-1.333,9.475-1.068,19.078-0.343,28.595c0.752,9.868,2.496,19.337,5.594,28.752    c1.263,3.838,2.265,8.024,3.645,12.014c-3.532-2.745-7.489-4.915-11.9-6.791c-2.921-1.242-5.609,0.23-5.967,3.424    c-0.625,5.571,2.072,11.163,4.546,15.999c1.156,2.259,2.409,4.476,3.809,6.585c-3.137-1.161-6.368-2.064-9.588-2.697    c-2.952-0.581-6.72,2.018-5.412,5.412c3.565,9.246,6.143,18.755,5.326,28.743c-0.405,4.947-0.953,9.643-0.676,14.632    c0.199,3.577,0.905,12.191,3.645,17.778c-1.918,0.045-3.653,0.091-5.026,0.036c-4.282-0.171-5.712,5.029-3.265,7.882    c4.281,4.988,7.536,10.01,9.269,16.412c1.407,5.193,1.663,10.603,3.235,15.752c1.653,5.414,5.097,13.472,10.379,17.587    c-4.468,0.941-8.592,2.859-11.258,6.818c-1.238,1.837-0.881,5.077,0.844,6.541c6.361,5.399,13.743,9.295,15.978,17.892    c2.003,7.704,1.487,15.836,3.448,23.586c2.001,7.909,8.031,22.464,17.524,23.853c-1.272,8.046-0.73,16.573,0.253,24.364    c0.918,7.285,2.174,14.523,3.47,21.754c-14.49,2.15-28.433,9.006-42.001,14.114c-2.8,1.054-4.039,3.328-3.563,6.276    c1.55,9.614,9.923,14.595,16.347,20.888c3.312,3.244,5.359,6.312,3.474,10.966c-1.895,4.68-5.315,8.621-6.711,13.547    c-2.463,8.691,2.37,14.167,10.332,16.537c2.365,0.704,5.545,0.77,6.091,3.389c0.892,4.279-2.766,10.634-3.936,14.707    c-2.257,7.857-0.889,17.698,9.335,17.339c3.937-0.138,7.657-1.732,11.323-3c6.583-2.277,13.383-3.872,20.135-5.559    c12.548-3.137,25.193-6.667,36.856-12.369c7.741-3.785,18.451-9.708,22.411-18.235c2.571-4.271,4.214-9.315,5.001-13.429    c0.923-4.826,1.117-9.823,1.124-14.723c0.004-2.41,0.052-4.982-0.099-7.527c15.43-4.853,30.912-9.544,46.566-13.625    c45.864-11.956,91.801-12.033,137.961,0c15.654,4.081,31.136,8.772,46.566,13.625c-0.151,2.545-0.103,5.118-0.099,7.527    c0.007,4.9,0.201,9.897,1.124,14.723c0.787,4.114,2.431,9.158,5.001,13.429c3.96,8.527,14.671,14.45,22.411,18.235    c11.662,5.703,24.308,9.233,36.855,12.369c6.752,1.688,13.552,3.282,20.135,5.559c3.666,1.268,7.386,2.862,11.323,3    c10.224,0.359,11.592-9.482,9.335-17.339c-1.17-4.073-4.828-10.428-3.936-14.707c0.546-2.619,3.726-2.685,6.091-3.389    c7.962-2.37,12.795-7.846,10.332-16.537c-1.396-4.926-4.816-8.867-6.711-13.547c-1.885-4.654,0.163-7.722,3.474-10.966    c6.424-6.293,14.797-11.274,16.347-20.888c0.475-2.948-0.763-5.221-3.563-6.276c-13.568-5.108-27.511-11.965-42.001-14.114    c1.296-7.231,2.552-14.469,3.47-21.754c0.982-7.791,1.524-16.318,0.253-24.364c9.493-1.389,15.523-15.944,17.524-23.853    c1.961-7.751,1.445-15.882,3.448-23.586c2.235-8.597,9.618-12.493,15.978-17.892c1.725-1.464,2.082-4.703,0.844-6.541    c-2.667-3.958-6.79-5.877-11.258-6.818C493.207,247.953,496.651,239.895,498.304,234.481z M499.185,138.333    c-1.66,4.646-2.814,9.408-3.277,14.511c-0.584,6.434,0.593,11.881,0.767,17.496c0.227,7.328,0.274,18.988-4.51,23.92    c-0.138,0.143-0.235,0.296-0.336,0.447c-1.227,0.158-2.418,0.377-3.53,0.683c0.149-5.908-1.034-12.133-2.61-18.171    c-2.087-8-3.821-16.283-5.996-24.417c3.823-2.544,6.708-7.372,10.473-9.972C493.03,140.85,496.034,139.404,499.185,138.333z     M479.29,134.982c1.246-3.456,2.755-6.782,4.713-9.895c2.611-4.152,6.131-8.007,10.376-10.569    c-0.969,2.735-2.169,5.381-3.59,8.133c-2.063,4-4.056,7.963-4.346,12.435c-0.419,0.262-0.847,0.514-1.256,0.789    c-2.529,1.698-5.928,4.06-8.514,6.852c-0.106-0.313-0.226-0.62-0.335-0.932C477.835,139.859,478.461,137.282,479.29,134.982z     M468.526,109.092c0.059-1.253,0.376-2.741,0.601-4.188c0.869,2.02,1.51,4.134,2.08,6.256c1.017,3.791,1.302,9.972,4.083,12.997    c-1.258,2.078-2.497,4.394-3.435,6.767c-0.635-1.288-1.305-2.56-2.016-3.813c-0.393-0.692-0.803-1.384-1.224-2.076    c-0.018-2.451-0.305-4.951-0.292-6.826C468.345,115.17,468.382,112.128,468.526,109.092z M422.393,115.689    c7.28-2.454,14.64-4.53,21.89-0.839c15.694,7.989,21.793,27.379,25.821,43.148c2.111,8.265,4.188,16.556,6.196,24.847    c1.63,6.732,3.649,15.455-0.926,21.519c-3.917,5.19-12.205,8.818-18.001,11.363c-3.55,1.558-7.445,2.977-11.334,3.314    c-1.645,0.143-3.278-0.137-4.91,0c-2.779-7.446-5.622-14.867-8.464-22.289c6.851-0.538,13.021-5.941,15.969-12.03    c3.905-8.065,2.657-17.238-0.03-25.472c-2.782-8.525-7.66-17.304-17.865-16.979c-5.626,0.179-11.328,2.012-16.823,3.104    c-0.58,0.115-1.246,0.275-1.934,0.484c-0.75-1.794-1.5-3.588-2.247-5.385c-2.153-5.171-4.176-10.388-6.127-15.633    C409.394,121.034,415.881,117.884,422.393,115.689z M431.743,187.948c-0.777-4.41-2.572-8.985-3.382-12.688    c-0.887-4.059-1.68-8.169-1.625-12.341c0.045-3.392,1.16-6.556,1.666-9.831c1.654-0.364,3.306-0.503,4.648,0.062    c4.294,1.809,5.867,10.473,6.685,14.427c0.996,4.807,0.985,9.902-1.827,14.114C436.26,184.163,433.962,186.009,431.743,187.948z     M420.149,155.26c-0.754,2.357-1.057,4.953-1.092,7.546c-0.941-2.265-1.883-4.529-2.829-6.792    C417.543,155.839,418.848,155.565,420.149,155.26z M269.857,83.434c1.144-4.214,2.576-6.655,5.911-9.382    c8.165-6.676,12.004-13.283,23.387-13.235c3.525,0.015,7.19,0.513,10.412,2.013c4.027,1.874,7.415,4.912,11.645,6.407    c7.776,2.749,13.833-1.93,20.201-5.812c6.74-4.109,13.974-5.098,21.426-2.106c3.381,1.357,7.164,3.653,8.945,6.954    c1.764,3.27,0.109,6.962,1.959,10.304c1.833,3.311,6.111,6.996,7.417,11.271c0.3,0.984,0.443,2,0.362,3.049    c-0.531,6.878-9.339,9.213-15.106,10.838c-2.726,0.768-5.534,1.535-8.355,1.854c-3.061,0.346-5.843-0.435-8.868-0.729    c-2.988-0.291-6.182-0.052-8.297,2.327c-2.21,2.486-2.084,5.896-3.269,8.82c-2.851,7.037-12.518,10.449-18.225,14.75    c-3.037,2.289-3.588,5.719-1.122,8.712c3.848,4.671,8.103,9.881,9.255,16.003c1.294,6.871-2.146,11.173-5.878,16.374    c-3.105,4.327-4.363,8.999-2.334,14.075c0.752,1.882,2.856,4.227,3.008,6.243c0.22,2.921-2.618,4.254-5.155,4.156    c-9.24-0.358-12.981-16.373-15.189-23.257c-2.204-6.868-4.356-13.933-4.72-21.182c-0.375-7.463,2.254-13.777,3.789-20.913    c0.573-2.663-0.791-4.927-3.306-5.823c-10.258-3.654-23.749-7.176-27.897-18.54C267.258,99.508,267.912,90.597,269.857,83.434z     M266.376,120.619c6.497,6.447,15.654,9.819,24.727,12.476c-1.53,7.528-3.725,14.522-2.942,22.585    c0.856,8.806,3.319,17.379,6.149,25.731c3.826,11.294,11.053,26.972,25.599,24.837c6.42-0.943,12.143-5.89,12.571-12.629    c0.258-4.061-1.691-6.85-3.247-10.38c-1.633-3.704,0.904-5.783,3.183-8.727c9.613-12.42,5.376-26.111-2.414-37.641    c7.118-4.617,14.924-9.098,17.385-17.628c0.322-1.116,0.635-2.421,0.698-3.58c0.04-0.746,0.462-1.265,0.491-1.434    c1.702-0.192,4.277,0.8,5.837,0.856c3.478,0.126,7.164-0.691,10.484-1.663c6.335-1.854,15.241-6.065,20.454-12.101    c1.737,6.16,3.974,12.204,6.028,18.262c3.121,9.201,6.479,18.3,10.119,27.308c6.476,16.027,12.99,31.974,18.954,48.203    c5.819,15.834,12.329,31.624,17.012,47.842c1.45,5.024,2.795,10.525,1.411,15.715c-1.61,6.039-6.733,10.058-11.807,13.23    c-6.296,3.936-13.073,7.016-20.176,9.177c-5.637,1.715-13.936,4.804-20.16,4.867c-8.141,0.082-17.709-3.595-25.793-5.044    c-18.471-3.311-37.057-5.997-55.622-8.724c-2.611-0.384-5.26-0.796-7.931-1.208c-1.173-4.141-2.559-8.198-3.391-12.472    c-1.113-5.719-2.276-11.349-3.726-16.997c-3.87-15.073-7.885-30.109-11.584-45.225c-3.731-15.246-7.455-30.502-11.04-45.783    c-1.681-7.166-3.956-15.021-4.12-22.418C263.448,124.551,264.458,122.826,266.376,120.619z M426.821,285.213    c-1.545,3.468-2.87,7.059-3.503,10.648c-2.612-0.786-5.192-1.531-7.675-2.283c-1.806-0.547-3.619-1.069-5.434-1.587    c0.758-0.234,1.516-0.463,2.268-0.717C417.361,289.627,422.201,287.617,426.821,285.213z M256.001,143.589    c3.062,16.856,7.09,33.711,10.901,50.413c4.012,17.584,8.686,35.016,13.054,52.514c1.485,5.949,2.44,11.956,3.699,17.95    c0.328,1.563,0.673,3.128,1.095,4.654c-9.611-1.221-19.34-1.903-28.749-0.814c-9.409-1.09-19.138-0.408-28.749,0.814    c0.422-1.526,0.767-3.09,1.095-4.654c1.259-5.994,2.214-12.001,3.699-17.95c4.368-17.497,9.041-34.93,13.054-52.514    C248.911,177.3,252.939,160.445,256.001,143.589z M130.843,89.848c1.305-4.275,5.583-7.96,7.416-11.271    c1.85-3.342,0.196-7.034,1.96-10.304c1.78-3.301,5.564-5.597,8.945-6.954c7.452-2.992,14.686-2.003,21.426,2.106    c6.367,3.882,12.424,8.561,20.201,5.812c4.229-1.495,7.618-4.534,11.644-6.407c3.223-1.5,6.888-1.998,10.413-2.013    c11.382-0.048,15.221,6.559,23.387,13.235c3.335,2.727,4.767,5.168,5.911,9.382c1.945,7.163,2.599,16.074,0.009,23.168    c-4.148,11.363-17.639,14.885-27.897,18.54c-2.515,0.896-3.879,3.161-3.306,5.823c1.535,7.137,4.163,13.45,3.789,20.913    c-0.364,7.249-2.517,14.314-4.72,21.182c-2.209,6.884-5.949,22.9-15.189,23.257c-2.537,0.098-5.375-1.235-5.155-4.156    c0.152-2.015,2.256-4.361,3.008-6.243c2.028-5.076,0.77-9.747-2.334-14.075c-3.732-5.202-7.172-9.504-5.878-16.374    c1.152-6.122,5.407-11.331,9.255-16.003c2.465-2.992,1.915-6.423-1.122-8.712c-5.707-4.301-15.374-7.713-18.225-14.75    c-1.185-2.924-1.059-6.334-3.269-8.82c-2.115-2.379-5.309-2.618-8.297-2.327c-3.025,0.294-5.807,1.075-8.868,0.729    c-2.821-0.319-5.629-1.086-8.355-1.854c-5.767-1.625-14.576-3.959-15.106-10.838C130.4,91.848,130.543,90.833,130.843,89.848z     M120.624,119.582c2.055-6.058,4.292-12.102,6.029-18.262c5.213,6.036,14.119,10.247,20.454,12.101    c3.32,0.971,7.005,1.789,10.483,1.663c1.56-0.057,4.135-1.048,5.837-0.856c0.028,0.169,0.45,0.688,0.491,1.434    c0.063,1.16,0.376,2.465,0.698,3.58c2.461,8.53,10.267,13.011,17.385,17.628c-7.791,11.531-12.027,25.221-2.414,37.641    c2.279,2.944,4.816,5.023,3.183,8.727c-1.557,3.53-3.505,6.319-3.247,10.38c0.428,6.739,6.151,11.686,12.571,12.629    c14.546,2.136,21.772-13.542,25.599-24.837c2.83-8.352,5.293-16.925,6.149-25.731c0.784-8.063-1.412-15.057-2.942-22.585    c9.073-2.657,18.229-6.029,24.727-12.476c1.918,2.207,2.928,3.932,2.85,7.433c-0.164,7.397-2.439,15.252-4.12,22.418    c-3.585,15.281-7.309,30.536-11.04,45.783c-3.699,15.116-7.715,30.152-11.584,45.225c-1.45,5.648-2.613,11.279-3.726,16.997    c-0.832,4.274-2.218,8.331-3.391,12.472c-2.671,0.413-5.32,0.825-7.931,1.208c-18.565,2.727-37.151,5.413-55.622,8.724    c-8.084,1.449-17.652,5.126-25.793,5.044c-6.223-0.063-14.523-3.152-20.16-4.867c-7.104-2.161-13.88-5.241-20.176-9.177    c-5.074-3.172-10.197-7.191-11.807-13.23c-1.383-5.19-0.039-10.691,1.411-15.715c4.682-16.218,11.193-32.009,17.012-47.842    c5.965-16.229,12.478-32.175,18.954-48.203C114.146,137.882,117.504,128.782,120.624,119.582z M101.792,291.992    c-1.814,0.518-3.627,1.04-5.433,1.587c-2.483,0.752-5.063,1.497-7.675,2.283c-0.633-3.589-1.958-7.18-3.503-10.648    c4.62,2.404,9.46,4.414,14.343,6.062C100.275,291.529,101.034,291.758,101.792,291.992z M80.259,187.948    c-2.219-1.938-4.517-3.785-6.166-6.256c-2.811-4.212-2.822-9.307-1.827-14.114c0.819-3.954,2.391-12.618,6.686-14.427    c1.341-0.565,2.994-0.426,4.648-0.062c0.506,3.274,1.621,6.439,1.666,9.831c0.056,4.172-0.737,8.282-1.625,12.341    C82.831,178.962,81.035,183.538,80.259,187.948z M91.853,155.26c1.3,0.305,2.606,0.579,3.921,0.754    c-0.946,2.263-1.888,4.527-2.829,6.792C92.91,160.213,92.607,157.616,91.853,155.26z M40.794,111.16    c0.569-2.122,1.211-4.237,2.08-6.256c0.226,1.447,0.542,2.935,0.601,4.188c0.144,3.037,0.182,6.078,0.203,9.118    c0.013,1.874-0.273,4.375-0.292,6.826c-0.421,0.691-0.832,1.384-1.224,2.076c-0.711,1.253-1.38,2.525-2.016,3.813    c-0.938-2.373-2.177-4.689-3.435-6.767C39.492,121.132,39.777,114.951,40.794,111.16z M41.898,157.997    c4.028-15.769,10.127-35.159,25.821-43.148c7.25-3.691,14.61-1.615,21.89,0.839c6.512,2.195,12.999,5.346,18.786,9.152    c-1.95,5.245-3.974,10.461-6.127,15.633c-0.748,1.796-1.498,3.591-2.248,5.385c-0.689-0.209-1.354-0.368-1.934-0.484    c-5.496-1.092-11.197-2.925-16.823-3.104c-10.204-0.325-15.082,8.454-17.864,16.979c-2.687,8.234-3.935,17.407-0.03,25.472    c2.948,6.089,9.119,11.492,15.969,12.03c-2.842,7.422-5.685,14.843-8.465,22.289c-1.632-0.137-3.265,0.143-4.91,0    c-3.889-0.337-7.784-1.756-11.334-3.314c-5.796-2.545-14.084-6.173-18.001-11.363c-4.576-6.064-2.557-14.787-0.926-21.519    C37.709,174.553,39.786,166.262,41.898,157.997z M27.999,125.087c1.958,3.113,3.467,6.439,4.713,9.895    c0.829,2.3,1.455,4.878,2.951,6.812c-0.109,0.312-0.229,0.619-0.335,0.932c-2.585-2.792-5.985-5.154-8.513-6.852    c-0.41-0.275-0.837-0.527-1.256-0.789c-0.29-4.471-2.283-8.435-4.346-12.435c-1.42-2.752-2.621-5.398-3.589-8.133    C21.868,117.08,25.387,120.935,27.999,125.087z M12.817,138.333c3.15,1.071,6.155,2.518,9.02,4.497    c3.765,2.601,6.649,7.428,10.473,9.972c-2.175,8.134-3.909,16.417-5.996,24.417c-1.575,6.038-2.758,12.263-2.61,18.171    c-1.113-0.307-2.303-0.526-3.53-0.683c-0.102-0.152-0.198-0.305-0.336-0.447c-4.784-4.932-4.736-16.592-4.51-23.92    c0.174-5.615,1.351-11.061,0.767-17.496C15.631,147.74,14.477,142.979,12.817,138.333z M21.44,225.568    c-1.278-7.957-3.343-15.586-7.482-22.196c1.21-0.006,2.417,0.025,3.617,0.131c2.731,0.242,5.365,1.636,8.01,1.965    c1.653,4.264,4.508,8.136,9.062,11.352c6.549,4.625,13.826,8.634,21.406,11.275c3.367,1.173,7.006,2.057,10.614,2.212    c-1.872,5.119-3.605,10.311-4.607,15.63c-0.629,3.342-0.836,6.541-0.627,9.59c-8.22-3.382-17.212-4.383-26.059-4.367    c-0.07-0.604-0.335-1.214-0.855-1.768c-3.226-3.442-6.587-6.235-8.823-10.497C23.504,234.718,22.184,230.208,21.44,225.568z     M52.797,322.215c-2.92-2.433-5.431-5.035-7.215-8.847c-2.344-5.01-3.666-10.593-4.257-16.075    c-0.886-8.204-0.485-17.159-4.588-24.614c-2.478-4.501-6.307-7.71-10.262-10.794c3.691-0.8,8.524-0.405,10.913-0.366    c8.205,0.133,16.401,1.143,23.747,5.063c1.795,0.958,3.442,1.964,4.953,3.055c1.989,3.079,4.606,5.903,7.847,8.454    c0.776,1.297,1.48,2.694,2.11,4.223c2.17,5.265,2.45,10.983,3.996,16.373c-8.002,2.896-15.652,6.725-21.103,12.997    C56.182,314.854,54.198,318.418,52.797,322.215z M116.438,458.438c-4.739,3.213-9.865,5.806-15.172,7.939    c-10.707,4.304-21.9,7.135-33.069,9.937c-8.207,2.059-16.208,4.931-24.357,7.012c0.004-0.296,0.022-0.711,0.076-1.305    c0.142-1.548,0.737-3.075,1.198-4.547c1.339-4.279,2.968-8.535,3.358-13.039c0.643-7.429-3.455-11.99-10.251-14.222    c-1.475-0.484-5.612-0.831-6.593-2.223c-1.438-2.041,2.647-7.651,3.581-9.316c4.693-8.368,6.608-16.441,0.219-24.531    c-4.254-5.387-11.762-9.284-15.219-15.368c11.83-4.56,23.794-8.147,35.918-11.882c1.161,6.595,2.245,13.199,3.031,19.846    c1.315,11.135,3.656,24.174,16.095,27.765c0.13,0.037,0.262,0.065,0.392,0.1c6.858,3.856,15.619,5.219,22.948,6.658    c5.425,1.065,10.872,2.05,16.236,3.398c2.483,0.624,9.657,1.53,10.329,4.667C125.854,452.572,118.419,457.095,116.438,458.438z     M130.591,437.889c-0.026,0.583-0.055,1.17-0.087,1.758c-4.703-3.24-11.499-4.777-16.499-5.766    c-3.733-0.738-7.486-1.365-11.24-1.989c7.736-2.353,15.401-5.014,23.102-7.469c1.372-0.437,2.744-0.873,4.116-1.309    c0.067,0.649,0.13,1.292,0.178,1.922C130.486,429.315,130.784,433.594,130.591,437.889z M363.844,404.725    c-16.548-4.72-33.197-9.103-50.115-12.298c-56.652-10.698-110.335-3.458-165.571,12.298    c-16.437,4.689-32.612,10.184-48.913,15.306c-6.14,1.929-15.37,5.132-21.684,2.308c-4.221-1.888-5.152-7.595-5.892-11.648    c-2.6-14.23-4.981-28.563-7.392-42.835c-2.308-13.665-6.356-31.301,0.303-44.384c5.922-11.636,21.429-14.923,32.813-18.505    c15.96-5.021,32.243-8.986,48.632-12.324c18.917-3.853,37.989-6.924,57.014-10.192c35.941-6.173,70.128-6.148,105.924,0    c19.024,3.268,38.097,6.339,57.014,10.192c16.389,3.338,32.672,7.303,48.632,12.324c11.385,3.582,26.892,6.869,32.814,18.505    c6.658,13.084,2.611,30.72,0.302,44.384c-2.411,14.271-4.792,28.605-7.392,42.835c-0.74,4.053-1.671,9.76-5.892,11.648    c-6.314,2.825-15.544-0.379-21.684-2.308C396.456,414.909,380.281,409.414,363.844,404.725z M381.498,439.647    c-0.032-0.588-0.061-1.174-0.087-1.758c-0.193-4.295,0.104-8.574,0.431-12.853c0.048-0.629,0.111-1.273,0.178-1.922    c1.372,0.437,2.744,0.872,4.116,1.309c7.701,2.454,15.365,5.116,23.102,7.469c-3.754,0.624-7.507,1.251-11.24,1.989    C392.997,434.87,386.201,436.406,381.498,439.647z M491.794,398.775c-3.457,6.084-10.965,9.981-15.22,15.368    c-6.389,8.09-4.474,16.163,0.219,24.531c0.934,1.665,5.019,7.276,3.581,9.316c-0.981,1.392-5.119,1.739-6.594,2.223    c-6.796,2.232-10.894,6.792-10.251,14.222c0.39,4.504,2.019,8.76,3.358,13.039c0.461,1.473,1.056,2.999,1.198,4.547    c0.055,0.594,0.073,1.009,0.076,1.305c-8.149-2.081-16.15-4.953-24.357-7.012c-11.169-2.802-22.362-5.633-33.069-9.937    c-5.308-2.133-10.433-4.726-15.172-7.939c-1.981-1.343-9.415-5.866-8.719-9.112c0.673-3.137,7.846-4.043,10.33-4.667    c5.364-1.348,10.811-2.333,16.236-3.398c7.33-1.439,16.09-2.802,22.949-6.658c0.13-0.035,0.262-0.063,0.392-0.1    c12.439-3.591,14.78-16.63,16.095-27.765c0.785-6.646,1.87-13.251,3.031-19.846C468,390.628,479.964,394.215,491.794,398.775z     M475.264,272.679c-4.103,7.455-3.702,16.41-4.588,24.614c-0.592,5.482-1.913,11.065-4.257,16.075    c-1.783,3.812-4.295,6.414-7.215,8.847c-1.401-3.797-3.385-7.362-6.141-10.532c-5.451-6.272-13.101-10.101-21.104-12.997    c1.546-5.39,1.826-11.108,3.996-16.373c0.63-1.528,1.335-2.926,2.11-4.223c3.241-2.552,5.858-5.375,7.847-8.454    c1.511-1.09,3.158-2.097,4.953-3.055c7.346-3.92,15.542-4.93,23.747-5.063c2.389-0.039,7.222-0.434,10.913,0.366    C481.572,264.969,477.742,268.177,475.264,272.679z M486.306,238.894c-2.237,4.262-5.597,7.055-8.823,10.497    c-0.519,0.554-0.785,1.165-0.855,1.768c-8.848-0.016-17.839,0.985-26.059,4.367c0.209-3.049,0.003-6.248-0.627-9.59    c-1.002-5.319-2.735-10.511-4.607-15.63c3.608-0.156,7.247-1.039,10.614-2.212c7.579-2.641,14.857-6.65,21.406-11.275    c4.554-3.216,7.409-7.088,9.062-11.352c2.646-0.329,5.279-1.723,8.01-1.965c1.2-0.106,2.407-0.137,3.617-0.131    c-4.138,6.61-6.204,14.238-7.481,22.196C489.818,230.208,488.498,234.718,486.306,238.894z"/>
	</g>
</g>
<g>
	<g>
		<path d="M109.146,354.249c-2.823-9.38-12.425-19.743-22.5-15.896c-11.273,4.304-11.269,19.913-7.291,30.09    c3.539,9.053,12.591,19.285,22.554,15.278C111.775,379.753,111.806,363.088,109.146,354.249z M99.342,376.534    c-3.204,1.145-7.633-1.756-11.252-11.451c-3.823-10.24-2.712-18.113,1.132-19.478c3.295-1.17,7.68,1.781,11.011,11.578    C103.772,367.593,102.61,375.367,99.342,376.534z"/>
	</g>
</g>
<g>
	<g>
		<path d="M149.322,361.942c-5.579-2.813-11.359-7.292-16.612-11.858c2.962-8.016,5.828-16.133,8.293-24.321    c-3.873-0.423-5.818-0.615-9.726-0.96c-2.129,8.493-4.795,16.853-7.378,25.213c-2.045-7.218-3.675-13.748-4.707-19.303    c-3.953,0.764-5.929,1.167-9.879,2.014c1.293,6.029,3.526,14.07,5.98,22.112c2.001,6.557,4.099,12.949,6.471,19.597    c3.628-0.698,5.442-1.027,9.071-1.648c-2.09-5.929-3.975-12.319-5.667-18.292c5.737,5.737,12.641,11.433,19.738,15.431    C146.634,366.725,147.518,365.128,149.322,361.942z"/>
	</g>
</g>
<g>
	<g>
		<path d="M161.338,325.473c0.8-1.223,8.703-2.179,8.703-2.179c-1.03-2.736-1.549-4.103-2.594-6.835c0,0-6.784,1.368-13.341,3.192    c-6.772,1.883-13.528,4.617-13.528,4.617c1.31,2.776,1.961,4.165,3.253,6.947c0,0,3.658-1.45,8.349-2.972    c1.242,7.604,1.797,10.528,2.9,15.715c1.52,7.148,3.364,14.493,5.172,21.118c3.343-0.415,5.015-0.607,8.357-0.958    c-1.496-7.089-3.037-14.367-4.505-21.988C162.967,336.224,160.185,327.23,161.338,325.473z"/>
	</g>
</g>
<g>
	<g>
		<path d="M206.61,334.098c-0.815-9.666-7.944-21.905-18.538-20.235c-11.84,1.866-14.91,17.21-13.149,27.887    c1.567,9.5,8.187,21.5,18.686,19.66C204.007,359.588,207.377,343.212,206.61,334.098z M192.587,353.845    c-3.33,0.45-7.02-3.314-8.549-13.548c-1.615-10.81,1.056-18.273,5.05-18.806c3.424-0.456,7.066,3.344,8.295,13.618    C198.69,346.027,195.984,353.387,192.587,353.845z"/>
	</g>
</g>
<g>
	<g>
		<path d="M235.016,332.884c4.567-2.448,8.495-6.087,8.372-11.648c-0.143-6.465-7.685-11.176-16.639-10.684    c-4.805,0.264-10.492,1.636-15.294,3.413c0.956,6.02,1.73,11.797,2.301,18.562c0.683,8.087,1.003,16.26,1.133,24.375    c3.622-0.003,5.43,0.014,9.044,0.084c0.731,0.016,1.461,0.034,2.32-0.019c7.792-0.481,17.236-6.946,17.067-14.188    C243.19,337.218,239.745,334.441,235.016,332.884z M221.915,319.267c1.544-0.555,3.031-0.97,4.536-1.055    c3.871-0.218,7.251,1.586,7.362,4.236c0.17,4.071-7.235,7.987-10.85,8.482C222.715,327.122,222.313,323.13,221.915,319.267z     M226.707,349.035c-1.142,0.068-2.087,0.064-2.902-0.012c-0.121-3.881-0.302-7.693-0.478-11.441    c6.232,0.111,10.736,2.334,10.872,5.5C234.327,346.054,230.201,348.827,226.707,349.035z"/>
	</g>
</g>
<g>
	<g>
		<path d="M274.328,319.006c0.13-3.179,0.195-4.769,0.326-7.948c-7.973-0.402-16.416,0.055-24.284,1.278    c-0.633,8.866-0.969,17.843-0.891,26.72c0.054,6.136,0.249,11.252,0.429,16.36c4.084,0.323,6.122,0.508,10.189,0.923    c6.148,0.08,10.277-0.926,13.39-2.154c-0.332-2.862-0.501-4.293-0.847-7.155c-3.874,0.558-8.81,1.256-14.057,1.594    c-0.035-3.428-0.005-6.662,0.037-11.189c3.997-0.351,9.872-0.728,13.875-0.638c-0.414-2.864-0.625-4.296-1.056-7.158    c-4.553-0.099-8.412,0.013-12.612,0.554c0.105-3.621,0.284-7.435,0.465-11.12C264.231,318.801,269.606,318.812,274.328,319.006z"/>
	</g>
</g>
<g>
	<g>
		<path d="M312.136,325.991c1.09-9.118-5.403-14.599-13.413-15.313c-5.316-0.474-11.54,0.245-16.879,2.151    c-0.139,3.814-0.337,7.642-0.565,11.434c-0.643,10.694-1.574,21.405-2.651,32.112c3.576,0.581,5.36,0.889,8.917,1.54    c0.716-6.109,1.404-12.608,1.992-18.596c4.784,6.817,9.416,13.993,13.335,21.353c2.715-1.554,4.085-2.321,6.848-3.833    c-3.234-5.935-6.94-12.002-10.782-17.5C305.403,336.185,311.444,331.771,312.136,325.991z M303.543,324.716    c-0.327,3.217-6.315,7.726-13.47,10.234c0.469-5.283,0.889-10.829,1.294-16.182c2.494-0.59,4.676-0.732,6.684-0.553    C301.207,318.496,303.968,320.534,303.543,324.716z"/>
	</g>
</g>
<g>
	<g>
		<path d="M343.545,326.779c0.578-3.129,0.867-4.693,1.446-7.822c-7.859-1.53-16.307-2.274-24.292-2.177    c-1.88,8.687-3.481,17.527-4.658,26.326c-0.694,5.186-1.393,11.037-2.016,16.24c3.502,0.856,5.248,1.301,8.727,2.225    c0.673-5.72,1.568-12.061,2.414-17.624c4.64,0.183,9.315,0.703,13.824,1.394c-0.033-2.899-0.054-4.348-0.104-7.248    c-4.416-0.793-8.365-0.985-12.59-1.105c0.626-3.176,1.603-9.111,2.306-12.275C333.614,325.154,338.88,325.917,343.545,326.779z"/>
	</g>
</g>
<g>
	<g>
		<path d="M373.232,333.221c0.77-3.087,1.156-4.631,1.926-7.718c-7.772-2.018-16.18-3.288-24.179-3.688    c-2.414,8.554-4.558,17.278-6.275,25.988c-1.186,6.02-2.028,11.07-2.882,16.109c3.952,1.145,5.921,1.74,9.843,2.973    c6.039,1.328,10.313,1.185,13.632,0.618c0.251-2.871,0.373-4.307,0.61-7.18c-3.933-0.244-8.939-0.565-14.174-1.3    c0.658-3.365,1.341-6.526,2.297-10.951c4.007,0.468,9.872,1.295,13.801,2.2c0.17-2.889,0.251-4.335,0.405-7.226    c-4.469-1.025-8.293-1.701-12.539-2.024c0.834-3.525,1.781-7.224,2.704-10.796C363.319,330.963,368.614,332.069,373.232,333.221z"/>
	</g>
</g>
<g>
	<g>
		<path d="M395.211,329.336c-7.427-2.178-15.864,1.308-17.922,9.192c-1.862,7.134,2.751,12.347,7.372,17.646    c2.566,2.891,4.974,6.119,4.019,9.277c-0.861,2.848-3.581,3.177-5.401,2.645c-3.641-1.064-5.536-6.348-6.115-11.33    c-2.902,0.473-4.347,0.721-7.223,1.239c1.143,6.034,3.352,15.053,11.473,17.429c5.947,1.741,13.933-0.371,16.488-8.246    c2.096-6.459-1.615-10.696-7.798-17.176c-2.7-2.82-4.174-5.986-3.312-9.035c0.792-2.801,3.435-5.219,6.43-4.34    c2.299,0.675,3.789,3.021,2.812,6.239c-0.395,1.299-1.246,2.866-2.35,4.559c3.072,2.034,4.595,3.064,7.615,5.149    c2.101-1.906,3.516-4.844,4.016-6.382C407.116,340.67,403.84,331.868,395.211,329.336z"/>
	</g>
</g>
<g>
	<g>
		<path d="M424.198,339.287c-6.828-1.944-14.061-3.141-14.061-3.141c-0.323,3.053-0.489,4.579-0.83,7.627    c0,0,3.901,0.674,8.74,1.833c-2.903,7.137-3.952,9.922-5.712,14.925c-2.425,6.894-4.673,14.125-6.577,20.723    c3.099,1.397,4.642,2.11,7.715,3.565c2.412-6.83,4.887-13.846,7.605-21.115c2.106-5.634,4.422-14.76,6.321-15.658    c1.335-0.631,8.672,2.718,8.672,2.718c0.539-2.875,0.805-4.313,1.33-7.193C437.401,343.571,430.808,341.169,424.198,339.287z"/>
	</g>
</g>
<g>
</g>
<g>
</g>
<g>
</g>
<g>
</g>
<g>
</g>
<g>
</g>
<g>
</g>
<g>
</g>
<g>
</g>
<g>
</g>
<g>
</g>
<g>
</g>
<g>
</g>
<g>
</g>
<g>
</g>
</svg>
