<?xml version="1.0" encoding="iso-8859-1"?>
<!-- Generator: Adobe Illustrator 19.0.0, SVG Export Plug-In . SVG Version: 6.00 Build 0)  -->
<svg version="1.1" id="Capa_1" xmlns="http://www.w3.org/2000/svg" xmlns:xlink="http://www.w3.org/1999/xlink" x="0px" y="0px"
	 viewBox="0 0 512 512" style="enable-background:new 0 0 512 512;" xml:space="preserve">
<g>
	<g>
		<path d="M481.01,104.676c-32.588-32.098-83.833-47.951-133.389-63.282c-11.918-3.688-24.242-7.5-36.146-11.485
			c-3.928-1.312-8.178,0.805-9.493,4.731c-1.314,3.928,0.804,8.178,4.731,9.493c12.067,4.039,24.475,7.878,36.474,11.59
			c50.042,15.482,97.311,30.105,127.297,59.641c16.969,16.713,26.385,39.268,26.513,63.507c0.128,24.15-9,46.704-25.702,63.506
			c-0.064,0.065-0.119,0.135-0.181,0.201c-0.068,0.062-0.139,0.118-0.205,0.184c-16.687,16.588-39.042,25.703-63.005,25.703
			c-0.165,0-0.334,0-0.5-0.001c-24.24-0.128-46.794-9.544-63.508-26.514c-29.535-29.986-44.158-77.255-59.64-127.299
			c-9.868-31.897-20.046-64.796-34.59-93.519c8.114,4.112,16.92,8.059,26.707,11.973c3.847,1.538,8.21-0.333,9.749-4.179
			c1.538-3.846-0.333-8.211-4.179-9.749c-12.2-4.879-22.765-9.788-32.297-15.007c-4.924-2.696-10.885-1.844-14.819,2.103
			c-3.965,3.952-4.817,9.914-2.122,14.836c15.89,29.025,26.734,64.076,37.221,97.975c15.332,49.558,31.186,100.803,63.284,133.392
			c19.535,19.834,45.856,30.839,74.116,30.988c0.194,0.001,0.387,0.001,0.581,0.001c27.95,0,54.061-10.664,73.578-30.064
			c0.078-0.078,0.146-0.162,0.221-0.243c0.075-0.07,0.154-0.133,0.227-0.206c19.537-19.654,30.214-45.991,30.065-74.161
			C511.849,150.531,500.844,124.21,481.01,104.676z"/>
	</g>
</g>
<g>
	<g>
		<path d="M192.005,291.581c-2.911-41.834-28.445-83.739-53.138-124.262c-5.243-8.605-10.665-17.503-15.796-26.274
			c-2.092-3.576-6.687-4.778-10.261-2.687c-3.575,2.092-4.778,6.686-2.687,10.261c5.199,8.888,10.657,17.844,15.935,26.505
			c24.852,40.785,48.326,79.309,50.983,117.498c1.498,21.527-5.637,42.491-20.09,59.029c-14.399,16.477-34.125,26.317-55.542,27.708
			c-0.084,0.005-0.164,0.021-0.247,0.029c-0.082,0.002-0.163-0.003-0.245,0.002c-21.419,1.274-42.213-6.065-58.538-20.638
			c-16.385-14.628-26.053-34.55-27.225-56.097c-2.078-38.225,16.459-79.352,36.085-122.894
			c12.264-27.208,24.904-55.253,32.399-83.134c2.735,6.73,5.906,13.699,9.591,21.092c1.848,3.708,6.351,5.216,10.059,3.366
			c3.707-1.848,5.214-6.351,3.366-10.058c-5.055-10.141-9.075-19.4-12.29-28.307c-1.839-5.094-6.686-8.273-12.067-7.946
			c-5.393,0.326-9.82,4.095-11.016,9.377c-6.657,29.412-20.414,59.932-33.717,89.445C18.064,216.86-2.1,261.597,0.176,303.469
			c1.389,25.561,12.83,49.167,32.213,66.472c17.89,15.971,40.345,24.59,63.765,24.589c1.876,0,3.76-0.055,5.646-0.166
			c0.077-0.005,0.151-0.018,0.227-0.025c0.118-0.002,0.235-0.004,0.354-0.011c25.428-1.651,48.819-13.303,65.864-32.806
			C185.345,341.957,193.783,317.118,192.005,291.581z"/>
	</g>
</g>
<g>
	<g>
		<path d="M403.038,402.12c-13.818-29.394-43.769-52.328-72.734-74.507l-4.268-3.27c-3.287-2.522-7.994-1.902-10.516,1.385
			c-2.521,3.286-1.901,7.994,1.385,10.516l4.279,3.279c28.806,22.058,56.015,42.892,68.282,68.979
			c6.817,14.497,7.505,30.927,1.939,46.262c-5.545,15.276-16.555,27.386-31.002,34.098c-0.055,0.026-0.106,0.058-0.16,0.084
			c-0.057,0.025-0.116,0.043-0.173,0.069c-14.486,6.627-30.845,7.131-46.062,1.428c-15.276-5.728-27.321-16.922-33.917-31.521
			c-11.87-26.271-10.04-60.493-8.103-96.726c1.129-21.12,2.291-42.837,0.58-63.438c4.859,4.903,10.312,9.937,16.466,15.209
			c3.145,2.692,7.88,2.328,10.575-0.817c2.694-3.146,2.329-7.88-0.817-10.575c-9.428-8.075-17.06-15.502-23.331-22.703
			c-3.24-3.72-8.418-4.83-12.865-2.773c-4.474,2.054-6.994,6.713-6.269,11.594c3.36,22.622,1.999,48.082,0.682,72.703
			c-1.948,36.431-3.962,74.101,9.412,103.702c8.251,18.262,23.281,32.251,42.32,39.39c8.727,3.271,17.762,4.902,26.741,4.902
			c10.551-0.001,21.025-2.252,30.826-6.734c0.072-0.033,0.138-0.073,0.208-0.108c0.068-0.029,0.138-0.051,0.206-0.082
			c18.092-8.405,31.865-23.528,38.781-42.583C412.441,440.77,411.566,420.255,403.038,402.12z"/>
	</g>
</g>
<g>
</g>
<g>
</g>
<g>
</g>
<g>
</g>
<g>
</g>
<g>
</g>
<g>
</g>
<g>
</g>
<g>
</g>
<g>
</g>
<g>
</g>
<g>
</g>
<g>
</g>
<g>
</g>
<g>
</g>
</svg>
