<?xml version="1.0" encoding="iso-8859-1"?>
<!-- Generator: Adobe Illustrator 19.0.0, SVG Export Plug-In . SVG Version: 6.00 Build 0)  -->
<svg version="1.1" id="Capa_1" xmlns="http://www.w3.org/2000/svg" xmlns:xlink="http://www.w3.org/1999/xlink" x="0px" y="0px"
	 viewBox="0 0 511.999 511.999" style="enable-background:new 0 0 511.999 511.999;" xml:space="preserve">
<g>
	<g>
		<path d="M450.965,365.353c0-1.902-0.71-3.805-2.128-5.276c-2.968-3.078-8.061-2.852-11.105,0.15
			c-8.596,8.477-14.521,8.259-24.275,7.899c-9.657-0.356-21.68-0.798-38.293,7.231c-2.646,1.278-5.114,2.691-7.438,4.203V143.22
			c9.807-4.049,16.729-13.711,16.729-24.963V95.199c0-14.911-12.087-26.998-26.998-26.998H254.927
			c6.511-7.894,10.18-18.214,9.425-29.379c-1.391-20.574-18.011-37.255-38.58-38.714c-24.358-1.729-44.732,17.6-44.732,41.597
			c0,10.053,3.576,19.287,9.522,26.497H88.032c-14.911,0-26.998,12.087-26.998,26.998v23.057c0,11.252,6.922,20.914,16.729,24.963
			v194.666c0,4.199,3.405,7.604,7.604,7.604s7.604-3.405,7.604-7.604V145.254h259.549v249.029
			c-4.418,6.576-7.225,14.132-8.566,23.191c-1.835-0.528-3.711-0.956-5.628-1.264V249.682c0-4.199-3.405-7.604-7.604-7.604
			s-7.604,3.405-7.604,7.604v166.5c-23.017,3.626-40.676,23.594-40.676,47.613c0,1.21,0.06,2.406,0.148,3.593H140.926
			c-10.247,0-18.554-8.307-18.554-18.554V192.906h200.745v21.29c0,4.199,3.405,7.604,7.604,7.604s7.604-3.405,7.604-7.604v-28.894
			c0-4.199-3.405-7.604-7.604-7.604H114.769c-4.199,0-7.604,3.405-7.604,7.604v263.533c0,18.646,15.116,33.762,33.762,33.762H286.26
			c2.246,5.28,5.414,10.074,9.291,14.194H140.926c-26.485,0-47.956-21.471-47.956-47.956v-75.462c0-4.199-3.405-7.604-7.604-7.604
			s-7.604,3.405-7.604,7.604v75.462c0,34.884,28.28,63.164,63.164,63.164h163.637c4.697,0,9.375-0.522,13.938-1.551
			c3.881,1.011,7.951,1.552,12.144,1.552c10.392,0,20.019-3.316,27.899-8.931c9.453,6.748,21.066,9.891,32.98,8.674
			c23.581-2.411,42.07-22.086,43.121-45.767c0.398-8.986-1.686-17.461-5.612-24.811c1.556-2.378,3.012-4.912,4.324-7.625
			c8.023-16.603,7.581-28.62,7.226-38.276c-0.362-9.851-0.58-15.797,8.155-24.531C450.223,369.245,450.965,367.3,450.965,365.353z
			 M222.745,15.207c14.611,0,26.497,11.886,26.497,26.497s-11.887,26.496-26.497,26.496c-14.611,0-26.496-11.886-26.496-26.496
			C196.249,27.094,208.134,15.207,222.745,15.207z M88.032,130.046c-6.501,0-11.79-5.289-11.79-11.79V95.199
			c0-6.501,5.289-11.79,11.79-11.79h269.426c6.501,0,11.79,5.289,11.79,11.79v23.057c0,6.501-5.289,11.79-11.79,11.79H88.032z
			 M330.645,496.791c-18.195,0-32.996-14.802-32.996-32.996c0-18.195,14.802-32.996,32.996-32.996
			c18.194,0,32.996,14.802,32.996,32.996C363.641,481.989,348.84,496.791,330.645,496.791z M386.494,496.79
			c-6.022,0-11.827-1.627-16.89-4.654c5.807-7.961,9.246-17.755,9.246-28.341s-3.439-20.381-9.246-28.341
			c5.074-3.025,10.909-4.656,16.89-4.656c18.191,0,32.991,14.804,32.991,33.001C419.485,481.991,404.685,496.79,386.494,496.79z
			 M425.385,395.82c0.323,8.8,0.657,17.9-5.72,31.099c-0.217,0.449-0.449,0.875-0.674,1.311c-8.576-7.845-19.986-12.64-32.497-12.64
			c-10.062,0-19.845,3.153-27.952,8.93c-0.023-0.017-0.048-0.033-0.071-0.051c0.756-9.791,3.249-17.24,7.734-23.213
			c3.706-4.938,8.801-8.93,15.578-12.206c13.211-6.384,22.314-6.049,31.114-5.725c4.176,0.154,8.404,0.31,12.776-0.286
			C425.076,387.413,425.231,391.643,425.385,395.82z"/>
	</g>
</g>
<g>
	<g>
		<path d="M332.417,470.33c-1.237-2.93-4.196-4.842-7.391-4.688c-3.178,0.153-5.972,2.347-6.903,5.386
			c-2.078,6.777,5.837,12.452,11.619,8.443C332.624,477.474,333.79,473.574,332.417,470.33z"/>
	</g>
</g>
<g>
	<g>
		<path d="M208.676,320.218c-3.063-1.264-6.733-0.361-8.817,2.231c-1.94,2.413-2.232,5.837-0.709,8.536
			c1.592,2.82,4.915,4.35,8.096,3.712c3.067-0.616,5.453-3.083,6.005-6.155C213.876,325.069,211.906,321.583,208.676,320.218z"/>
	</g>
</g>
<g>
	<g>
		<path d="M288.122,224.672c-1.705-2.589-4.973-3.875-7.988-3.193c-3.234,0.733-5.669,3.552-5.909,6.862
			c-0.495,6.803,7.922,10.765,12.847,6.037C289.705,231.847,290.122,227.711,288.122,224.672z"/>
	</g>
</g>
<g>
	<g>
		<path d="M150.604,362.15c-1.557-2.89-4.951-4.491-8.174-3.831c-3.456,0.649-6.023,3.776-6.11,7.265
			c-0.082,3.33,2.07,6.339,5.211,7.398C147.928,375.14,153.789,368.055,150.604,362.15z"/>
	</g>
</g>
<g>
	<g>
		<path d="M260.747,377.765c-1.744-2.647-5.106-3.909-8.17-3.145c-3.217,0.804-5.575,3.691-5.742,7
			c-0.341,6.771,8.154,10.569,12.968,5.747C262.349,384.817,262.723,380.767,260.747,377.765z"/>
	</g>
</g>
<g>
	<g>
		<path d="M185.501,425.236c-3.103,1.936-4.382,5.966-2.983,9.346c1.361,3.224,4.851,5.2,8.323,4.576
			c3.039-0.547,5.5-2.897,6.142-5.924C198.349,426.788,191.059,421.77,185.501,425.236z"/>
	</g>
</g>
<g>
	<g>
		<path d="M194.201,259.75c-3.178-5.893-12.203-4.87-14.013,1.588c-1.015,3.621,0.91,7.646,4.418,9.049
			C191.092,273.123,197.504,265.873,194.201,259.75z"/>
	</g>
</g>
<g>
</g>
<g>
</g>
<g>
</g>
<g>
</g>
<g>
</g>
<g>
</g>
<g>
</g>
<g>
</g>
<g>
</g>
<g>
</g>
<g>
</g>
<g>
</g>
<g>
</g>
<g>
</g>
<g>
</g>
</svg>
