<svg xmlns="http://www.w3.org/2000/svg" viewBox="0 0 455.9 794"><path d="M332.3 674.9c-.2-20.2-.6-40.3-.7-60.5-.3-89-1.6-178 1-266.9.7-18.4-3.1-36.6-11-53.2-8.1-16.5-23.1-29.1-30.4-45.9-12.2-28-13-59-15.7-88.7-2.9-33.1-9.3-65.9-12.4-99-.4-4.6 1.1-9 1.1-13.6 0-3.9-1.9-8.4-.2-12.2 5.7-12.5.4-23.9-14-24.4-7.4-.3-14.8-.4-22.1-.4-7.4 0-14.8.1-22.1.4-14.4.6-19.7 12-14 24.4 1.6 3.7-.2 8.3-.2 12.2 0 4.5 1.5 9 1.1 13.6-3.1 33.1-9.4 65.9-12.4 99-2.6 29.7-3.6 60.7-15.7 88.7-7.3 16.8-22.3 29.4-30.4 45.9-8 16.6-11.7 34.8-11 53.2 2.7 88.9 1.3 177.9 1 266.9 0 20.2-.5 40.3-.7 60.5-.2 20.6-2.6 41.8 1.6 62.1 1.4 6.6 3.4 13.1 6.1 19.3 5.2 11.7 17 18.1 29.9 21 21.6 4.9 44.6 6.5 66.8 6.7 22.3-.1 45.3-1.7 66.8-6.7 12.9-2.9 24.7-9.3 29.9-21 2.7-6.2 4.8-12.7 6.1-19.3 4.2-20.3 1.8-41.5 1.6-62.1z"/></svg>