<svg id="Warstwa_1" xmlns="http://www.w3.org/2000/svg" viewBox="0 0 97.5 126.5"><style>.st0{fill-rule:evenodd;clip-rule:evenodd;fill:#010202}</style><g id="XMLID_449_"><path id="XMLID_515_" class="st0" d="M38.6 31.9c0 .4.1.9.1 1.3-.7-.4-1.3-.8-1.9-1.2-1-.6-2.1-.7-3.2-.4-.7.2-1.4.3-2.3.5.3.2.5.4.7.4.8.3 1.5.5 2.4.4 1-.1 1.9.1 2.9.2.3 0 .6.2.9.4 0 .1 0 .1-.1.2-.4 0-.9-.1-1.3-.1-3.7-.4-6.8.8-9.2 3.7-.1.1-.1.2-.2.4 1.4-.7 2.7-.5 4.1-.3 1.5.2 2.9.1 4.4-.2 1-.2 1.9-.7 2.5-1.7 0 .6 0 .7-.3 1-.5.6-1.2 1-2 1.3-.3.1-.6.2-.6.5.1 1.6-.1 3.3.6 5 1.1-1 2.3-1.9 3.2-2.9 1-1 1.7-2.3 2.5-3.4.4.3.8.5 1.1.8.8.5 1.3 1.2 1.6 2.1.1.3.2.7.3 1.2.2-.7.7-1.1.5-1.7-.3-.9-.5-1.8-1.4-2.3-.7-.5-1.5-.8-2.4-.8-.4 0-.8 0-1.1-.2-.9-.3-1.1-.7-1-1.7.1 0 .2.1.2.1.2.7.8.8 1.4.8h2.1c-.4-.5-1-.7-1.6-.9-.6-.3-1.3-.5-2-.8 1-.6 2.4-.2 4 .8 1.3.8 1.9 2 2.3 3.6 1.2-2.8 2.5-5.4 5.1-7-.4.5-.7 1-1.1 1.4-1.6 1.7-2.7 3.8-3.5 5.9-.2.5-.2 1-.2 1.5-.7.1-.9.6-1 1.2-.1 1-.3 1.9-.5 2.9-.2.1-.4.3-.7.6-.3-.5-.3-1-.4-1.5-.1-.8-.1-1.6-.2-2.3-.1-1-.6-2-1.2-2.8-.5 1-1 2-1.5 2.9 1.7 1.3 2.2 3.1 1.9 5.3 1.5-.2 2.8-1 4.3-.8-.1.5-.5.6-.8.7-.2.1-.5.1-.4.5-.3 0-.7-.1-.9 0-1.5.4-2.9.9-4.3 1.4-.3.1-.6.3-1 .5.7.5 1.4.6 2.1.6 1 0 1.9-.2 2.7-.8.6-.4 1.3-.8 1.2-1.6h.2c1 .6 2.1 1.1 3.1 1.7.2.1.4.3.5.4 1.1 1.3 1.9 2.8 2.2 4.5.1.3 0 .7-.1 1H51c-.3-.9-.7-1.7-1-2.6-.6 1.1-1.2 2.1-1.7 3.1.4 1.7 1.7 3 2.8 4.5l1.5-3c.8-1.5 1.2-3.1.9-4.8-.9 2.8-1.1 3.2-2.2 3.7-.2-.4.1-.7.3-.9.3-.7.7-1.5.9-2.2.4-1.4.3-1.8-.1-3.2.5.1 1 .2 1.4.3-.7-.8-1.4-1.7-2.2-2.4-.5-.5-1.1-.8-1.7-1.1-.4-.2-.8-.1-1.4-.1 0-.8.3-1.7-.2-2.6-.5.9-.7 2-2 2.2.4-.5.7-.9 1-1.4.2-.5.4-1 .4-1.5s-.2-1.1-.2-1.6c1.1.4 2.2 2.6 2.1 4.4.2 0 .3.1.5.2.9.2 1.6.6 2.2 1.3 1 1.2 2.2 2.2 3.8 2.7.3.1.6.4 1 .7-1.3.6-2.4.8-3.6.2 0 .2-.1.3 0 .3.4.7.8 1.3 1.2 2 .3.5.7 1 .8 1.5.4 1.3.7 2.7 1.1 4 .3 1.1.1 1.3-1 1.1-.3 1-.6 2-.9 2.9-.3 1-1 1.9-.6 3-.2 0-.4.1-.5.1-.2.8-.3 1.5-.5 2.2-.1.4-.4.8-.7 1-.6.4-.7.9-.9 1.5-.3.9-.7 1.8-1.6 2.3-.1.1-.2.1-.4.2-.3-.2-.6-.5-.9-.7-1 1.5-2.3 2.7-3.8 3.6-.6.4-.7.3-1.1-.2l-.6-.9c-.7.3-1.3.7-1.9.9-1 .4-1.2.2-1.4-.7-.1-.3-.2-.5-.2-.8-.1-1-.5-1.8-1-2.7-.4.6-.8 1.2-1.6 1.3-.7-1.2-.8-2.6-.6-4-.2-.2-.4-.3-.5-.5.2-.2.4-.3.6-.5.6-.9 1.4-1.5 2.3-2.1l1.8-1.2c-.4-1.2-.8-2.3-1.2-3.4-.3.2-.6.4-1 .6-.5.3-1 .6-1.5.7-.6.1-1.1.4-1.4.9.2 1.1.4 2.3.5 3.4.1.5 0 1.1-.1 1.6-.7-.4-.8-1.1-.9-1.8-.2-.9-.3-1.8-.4-2.7-.6 0-.8.4-.9.9-.3 1-.5 1.9-.7 2.9-.2.8-.2 1.6-.4 2.5.5-.2.9-.4 1.3-.6.1 0 .1.1.2.1-1 2.2-1.3 4.5-1.1 7 .3-.1.5-.2.8-.2.2.3-.4 1.1-1.5 1.7 0-1.2-.1-2.4 0-3.5.1-1.2.3-2.3.5-3.5-.2.1-.5.2-.7.3-.1-.1-.1-.1-.1-.2 0-.2.1-.5.1-.7-.2-1.3 0-2.5.4-3.6.3-.9.6-1.7.9-2.6.1-.3.2-.7.2-1-.2-1.3.1-2.5.5-3.6.2-.7.5-1.4.8-2.1.1-.3.2-.6.1-.9-.1-.3 0-.8.1-1.1.4-1.9 1.1-3.6 2.6-4.9.3-.3.7-.6 1.2-.5-.1.1-.1.3-.2.4-1 1.3-1.9 2.6-2.4 4.2-.1.3-.1.6-.2 1.1 2-.9 4.2-1.2 5.9-2.4.2-.9.3-1.7.4-2.5-.9-.2-1.8-.5-2.7-.7-.3-.1-.5-.1-.8-.2-.3-.3-.7-.6-1.1-.9-.4.1-.8.2-1.2.4-.4 1.9-1.7 3.1-3.3 4.1.4.8.9 1.5 1.3 2.3.3.5.3 1 0 1.6-.4.7-.7 1.4-1.3 1.9-.2.2-.3.5-.4.7-.8-.1-1.2-.7-1.5-1.3-.3-.6-.5-1.2-.7-1.8-.7.5-.8.4-1.3-.1l-.4-.4c-.9-.3-1.3-1.1-1.5-1.9-.3-.7-.4-1.5-.7-2.3-.5.3-.6 1-1.4 1-.1-1.3-.4-2.5-.3-3.8 0-.6 0-1.1-.3-1.7-.1-.2-.2-.5-.3-.9-.9 1.2-1.8 2.5-3 3.4.3-1.5 1.4-3.2 2.6-3.8.4-.2.5-.4.7-.8.3-.8.7-1.6 1.1-2.4.2-.5.7-1 .6-1.7 0-.3.3-.8.6-1.1.6-.7 1.3-1.3 2.1-2l-1.8.6c-.5-.3-.3-.7-.1-1.1 1-1.6 2.3-2.8 4.1-3.5.4-.2.8-.3 1.2-.5-1.7-1.1-2.4-1.9-2.5-2.8.6.2 1.2.4 1.8.5.6 0 1.2-.1 1.9-.2-.2-.6-.3-1.1-.5-1.6-.3-.8-.7-1.6-1.1-2.4-.6-1.5-1.9-2.5-3.3-3.3-.2 1-.5 2-1.3 2.7-2.1-.4-4.2-.8-6.4-1.2.2.4.4.7.7 1.3-2-.6-3.6-.1-5.2.8.3.2.6.4 1 .6-.5.4-1 .3-1.4.1-.4-.2-.8-.5-1.3-.9 1.8-.5 3.3-1.8 5.5-1.3-.3-.4-.5-.7-.7-1.1.4-.1.7-.3 1.1-.3.5 0 1.1 0 1.6.1 1.6.3 3.2.7 4.9 1.1.2-.6.4-1.2.6-1.9.1-.3 0-.7-.1-1-.1-.4-.2-.7-.3-1.1-.5-1.5 0-2.4 1.4-2.9.2-.1.5-.2.7-.2.6-.1 1-.4 1.3-1 .2-.3.4-.7.7-.9 1.1-1.2 1.6-1.3 2.9-.4v.4h-.3c-1.2-.4-1.6-.2-2.3.8-.1.2-.2.3-.3.5-.4.7-.9 1.3-1.8 1.4-.3 0-.6.2-.8.3-.8.3-1 .6-.9 1.7.1-.1.3-.1.3-.1.7-.8 1.6-.9 2.7-.9 1.5.1 2-.3 2.5-1.8.1-.4.3-.8.5-1.3.2.3.3.5.3.6 0 .8 0 1.6-.1 2.3-.4 1.8-.5 3.6-.2 5.4.3 1.6.6 3.3.9 4.9 0 .2.1.3.2.5.3 0 .7.1 1.1.2-1.6-4.1-2.2-8.1-.7-12.3.9.2 1.5-.2 2-.8 1.5-1.8 3.5-1.9 5.5-1.9 1.4 0 2.8.4 4.1.9 1.3.6 2.3 1.5 3.4 2.5 1.4 1.3 2.4 3 3.1 4.8 0 .1.1.2-.1.5-.5-.7-1.1-1.5-1.6-2.2-1-1.6-2.3-2.9-3.8-4-2.1-1.4-4.4-1.9-6.9-1.6-.7.1-1.3.3-1.9.4.4.6.7 1.1 1 1.6.1-.2.2-.5.4-1 .3.5.4.9.6 1.3.6-.5.4-1.5 1.3-1.8-.3 1-.5 1.9-.8 2.8 0 .1-.1.1-.3.2-.2-.2-.3-.4-.6-.7-.2.4-.4.7-.6 1.1-.7 1.9-1.3 3.8-1.2 5.8 0 .9.3 1.8.4 2.7.1.3.1.6.1.9-.5-.2-.7-.6-.8-1.1-.6-2-.5-4 0-6.1.3-1.2.8-2.4 1.2-3.7-.6-.4-.7-1.4-1.6-1.6-.4.3-.7.7-1.1 1 .9.4 1.5.9 1.6 1.9-1-.7-1.9-1.7-3.3-1.5-.4 1.2-.7 2.5-.7 3.8 0 2.3.3 4.6 1 6.8.3.8.5 1.6 1.4 1.9.3.2.6.6 1.1.4zm-8.2 16.8c.2 0 .4-.1.7-.1.5 1.3.9 2.5 1.4 3.8 1.2-.6 2.9-2.4 3.2-3.5H35c-1-.1-1.1-.1-1.3-1.1l-.3-1.8c-1.2.5-2 1.3-2.9 2.2-.1.1-.1.4-.1.5-.9-.3-1.3-1-1.6-1.9-.2-.6-.3-1.3-.5-2-.9.4-1.4 1-1.1 2 .1.2 0 .5 0 .7.1 1.8.3 3.5.9 5.4.7-1.5 1.1-3.1 2.3-4.2zm9.7 23.1c1.7-.7 3.1-1.8 4.4-2.9-.9-3.3-1-3.4-.4-4.1.6 1.4 1.1 2.8 1.8 4.4 1.2-1.3 2.2-2.4 3.3-3.6-.7-1.1-1-2.3-.9-3.8-.3.3-.5.5-.7.6-.2.2-.3.5-.5.5-.2.1-.5-.1-.7-.2-.9.7-1.8 1.3-2.6 2-.3.2-.7.5-1 .7-.5.4-.9.4-1.2-.1-.2-.2-.4-.5-.5-.7-.9.6-1.8 1.2-2.6 1.7.5 1.8 1 3.6 1.6 5.5zm3.7-14.3c.7-.6 1.3-1.2 1.9-1.6 1.8-1.4 3.4-2.9 4.1-5.2-.6-1.6-2.2-2-3.6-2.8-1 1.2-1 1.2-3.3 2.2 0 2.4-.1 4.9.9 7.4zm-9.6-11.9c.1.9.2 1.8.2 2.7 2-.4 3.6-1.1 4.8-2.7-.4-1.8-.4-1.8-.2-2.6.6 1.3 1.2 2.6 1.8 3.8.5-.2 1-.3 1.5-.5-.2-.9-.4-1.7-.5-2.5-.2-1-.7-1.9-1.5-2.5-.7.5-1.4.9-2.1 1.4-.5.3-1 .6-1.5 1-.4.2-.6.5-.6 1l-.2.2c-.2-.1-.4-.2-.7-.3-.2.3-.6.6-1 1zm.3-5.8c-1.2.9-2.7 1.2-4.2 1.3-.5 0-.6.4-.7.7-.5 1.9-.3 3.8.5 5.9 1.1-2 3.2-2.7 4.6-4 0-1.4-.1-2.6-.2-3.9zm8.1 17.7c-.6.5-1.2 1.1-1.8 1.6-.5.5-.6.6-.4 1.3.2.6.5 1.3.8 1.9.3.7.7 1.4 1.1 2.1 1.4-.9 2.7-1.7 3.9-2.5-.6-1.4-1.2-2.8-1.1-4.4-.5.3-.9.6-1.3.9l-1.2-.9zm-5.9-1.9c-.3 1.9-.1 4.4.4 5.1 1.8-1.2 3.6-2.5 5.2-3.9-.1-1.1-.3-2-.4-2.9-1.8.5-3.5 1.1-5.2 1.7zm-3.3-35.8c-.9 1-1.9 1-2.9.9-.7-.1-1.3.3-1.8.8-.6.6-.6.9.2 1.3 1.9 1 3.3 2.3 3.9 4.4l1.2 3.6h.3c.1 0 .1-.1.2-.1-1.1-3.6-1.7-7-1.1-10.9zm18.1 48.4c.8-1.1 1.3-2.1 1.5-3.3.1-.3 0-.6-.2-.9-1.2-1.4-2.4-2.7-2.7-4.8-.5.7-.9 1.2-1.2 1.8.3 1.2.5 2.5.9 3.6.4 1.2 1.1 2.3 1.7 3.6zm-3.2 2.9c-.3-.8-.6-1.6-1-2.5-.6.4-1.1.9-1.7 1.3-.3-.1-.5-.2-.7-.3-.7.6-1.4 1.1-2.1 1.7.5 1 1 2.1 1.7 3.2 1.4-1.2 2.6-2.3 3.8-3.4zm2.3-11.8c.6 1.9 1.9 3.1 3 4.5.3-1.2.6-2.3.9-3.3.1-.5.3-1.1.5-1.6.1-.2.1-.5 0-.6-.4-.5-.9-1-1.3-1.5-.6 1-1.2 1.9-1.7 2.8-.5-.1-.9-.2-1.4-.3zm-3.3 2c.8-.9 1.6-1.7 2.4-2.6-.4-.5-.8-1-1.1-1.5-.3-.5-.5-1.2-.8-1.8-.7.5-1.3 1-2 1.5.2 1.4.8 3.4 1.5 4.4zM29.9 37.9c-.9.8-1.7 1.4-2.5 2.2 1.3-.1 2.5-.1 3.7-.3 1-.1 2-.4 3-.7.4-.1.8-.4.7-1.1-1.8.4-3.4 0-4.9-.1zm1.8 15.3c-.4-1.3-.8-2.6-1.2-3.8-.5 1.3-1.1 2.5-1.6 3.7-.1.2-.1.5 0 .7.3.6.6 1.3 1 2 .6-1.1 1.2-1.9 1.8-2.6zm2.3 2.9c-.5-.9-.9-1.8-1.4-2.8-.5.7-1 1.3-1.5 1.9-.1.2-.2.5-.1.6.5.9 1 1.7 1.6 2.6.5-.8 1-1.5 1.4-2.3zm17.4 12.5c-.7-.8-1.3-1.5-1.9-2.2-.5.6-.9 1.1-1.4 1.7.6 1.1 1.1 2.1 1.7 3.2.6-1 1.1-1.9 1.6-2.7zM25.6 45.5c1-.6 1.8-1.1 2.7-1.7.3-.8.7-1.8 1.1-2.8-.5.1-1.1.2-1.6.3-.2 0-.3.2-.4.3-.7 1.3-1.3 2.6-1.8 3.9zm10.8 15.3c-.6-1.1-.8-2.3-.8-3.6-.6 1.6-1.2 3.1-1.2 4.9.6-.4 1.2-.8 2-1.3zm18.3-7.5c-.3 1.1-.6 2.1-.9 3.2.7.4 1.3.9 2 1.3-.2-1.6-.4-3.1-1.1-4.5zM40.3 72.7c.1.5.2 1.1.4 1.8.8-.4 1.5-.7 2.3-1-.2-.6-.4-1.2-.5-1.7-.8.2-1.4.5-2.2.9zm-2.5-6c-.3.3-.7.6-.7.8.1 1.1-.1 2.2.3 3.4.4-.3.7-.6 1.1-.9-.2-1-.4-2-.7-3.3zM25.6 51.3c.6-.3.7-.6.7-1v-3.9c-.4.2-.7.5-.7 1 .1 1.2 0 2.5 0 3.9zm12.6-3.1c.9 0 1.3-.7 2-1.2l-.3-.3c-.6.6-1.1 1-1.7 1.5z"/><path id="XMLID_512_" class="st0" d="M39.3 13.2c1.2-.5 2.4-.9 3.5-1.5 2.7-1.4 5.1-3.1 7.5-4.9 1.2-.9 2.5-1.8 3.7-2.7 1.1.8 1.2 1 .7 2.1-.2.5-.4 1-.7 1.4-.2.2-.6.6-.8.5-.6-.1-.7.3-1.1.5-.9.7-1.9 1.4-2.8 2.1V13c1-.8 1.8-1.5 2.6-2.1.8-.6 1.6-1.2 2.5-1.9l.6 1.8c2.4-.7 4.8-1.7 7.6-1.6-.4.5-.7.8-1.1 1.3 2.5-.3 4.9-.1 7.3.1-.3.7-.9 1.1-2.4 1.7.2-.4.3-.7.5-1-2.2-.2-4.4-.1-6.8.1.3-.5.4-.9.7-1.4-2.4.6-4.6.9-6.7 2.5v-2c-1.6.7-4.1 2.6-5.1 4.1-.2-.7-.4-1.4-.6-2.2-1 .8-1.8 1.8-3.2 2.3.3-.9 1.1-1.2 1.6-1.7s1-1.1 1.6-1.6c0-.1-.1-.1-.1-.2-2.1 1.1-4.2 2.1-6.5 3.3 2.8.5 5.4 1 7.7 2.6 2.2 1.5 3.8 3.6 5.2 5.9.7-.4 1.3-.8 1.8-1.4 1-1.4 2.3-2.1 4-2.3 1.6-.2 3.3-.5 4.9-.8 1.1-2 2.8-3.5 4.9-4.6-1.1-.3-2.1-.6-3.2-1v-.2c.2-.1.3-.2.5-.2.7.1 1.5.1 2.2.3 1.5.5 3 1.1 4.5 1.6-.1 1.2-1.3.7-1.9 1.3 2.5.4 4.7 1.3 6.7 2.8-.8.2-1.7.3-2.7.6 1.3.8 2.4 1.5 3.5 2.2 1.1.7 2.2 1.5 3.3 2.3v.2c-.5.1-.9.2-1.5.3.6.7 1.3 1.1 2.1 1.3.7.2 1.5.3 2.3.5-.3 1.2-1.4.9-2.2 1.3.5.6 1 1.1 1.7 1.5.9.5 1.8 1.1 2.4 2.3-.4.2-.8.5-1.3.7.6.5 1.2 1 1.9 1.5.2.1.4.3.5.5.5.5.4.8-.3 1-.1 0-.3.1-.6.1.6.7 1.2 1.4 1.8 2 .5.5 1.1 1 1.7 1.5.3.3.5.6.6.9-.2.9-.9.3-1.5.7 1.2.2 2.2.3 3.3.5-.6 1.4-1.5 2.3-3.1 2.6.2.2.5.2.5.4.1.2 0 .5-.1.6-.6 1.1-1.5 1.6-2.7 1.9-.3.1-.6.1-.9.1.3.6.8.9 1.5 1.2-1.3 1.1-2.7 1.5-4.4 1.5.2.2.3.3.4.5.1.1.2.3.4.5-1.8 1-3.5.3-5.3.1l.8.8c-.7 1.4-3.2 1.6-4.7.4.6-.3 1.3-.1 1.9-.2l1.8-.3c-.1-.8-.4-1.2-1.1-1.4-1.9-.6-3.3-1.9-4.5-3.3-1.1-1.2-1.9-2.5-2.8-3.8-1.3-1.9-2.5-4-4.2-5.6-1.1-1-2.2-2-3.3-3.1.2.1.5.2.7.4 3.2 2 5.5 4.8 7.5 8 1.6 2.6 3.7 4.8 6.1 6.6.1 0 .1.1.2.1 1.1.8 2.3 1.5 3.8 1.2.3-.1.7 0 1.1 0 .3 0 .6-.1 1.1-.1-.4-.4-.6-.7-.9-1 1.5-.4 3-.2 4.4-1.2-.4-.4-.7-.8-1.1-1.2 1.5-.5 2.7-1.3 3.9-2.3-.2-.2-.5-.4-.7-.6 0-.6.6-.7.9-.9.6-.3 1.2-.6 1.7-1.3-1.2-.3-2.6-.2-3.3-1.7.3-.2.7-.3 1.1-.5-.7-.6-1.5-1.2-2.1-1.9-.6-.7-1.1-1.5-1.7-2.4.3-.2.5-.3.8-.4-.8-.9-1.8-1.6-2.3-2.8.5-.1.9-.2 1.6-.4-1.7-1.2-3.3-2.3-4.5-3.9.1-.5.8-.3 1.1-.6-1.3-.9-2.6-1.7-4-2.6.3-.5.8-.3 1.4-.5-1-.7-1.8-1.5-2.7-2-.4-.2-.8-.5-1.2-.8-.6-.4-1-.9-1-1.6.2-.1.5-.2.7-.2.2-.1.4-.1.7-.4L74 17.1c-.7-.2-1.4-.5-2.1-.8-.2-.1-.4-.4-.5-.6.2-.2.4-.3.6-.5.2-.1.3-.1.6-.3-.7-.3-1.3-.5-1.8-.7-2.5 1.8-3.8 3.1-4.7 4.4 1.5.2 2.9-.6 4.6-.7-.3.3-.5.4-.7.5-1 .5-2.1.9-3.2.8-2.4-.1-4.8.5-7.2.8-1.1.1-1.9.8-2.6 1.6-.5.6-1 1.1-1.7 1.4-.4.2-.6.5-.4.9.1.4.1.8.2 1.1-.4-1.3-1.2-2.4-2-3.4-1.3-1.7-2.6-3.4-4.6-4.5-1.6-.9-3.3-1.4-5.1-1.9-.7-.2-1.5-.3-2.4-.5.2-.2.3-.5.5-.6 1-.6 1.9-1.2 2.9-1.7 2-1.1 4-2.1 5.9-3.2.2-.1.4-.3.6-.4 1-.7 2-1.4 1.5-2.9l-.6.3c-2 1.4-3.9 2.9-5.9 4.3-2.6 1.8-5.5 3.1-8.5 4.1-.9.3-1.7.5-2.6.7.2-.2.4-.4.6-.5.9-.4 1.7-.7 2.6-1 .7-.2 1-.4 1.3-.6zm14-6c.8-.6 1.1-1.5.6-2.4-.5.7-.8 1.4-.6 2.4z"/><path id="XMLID_421_" class="st0" d="M28.6 67.9c.4.3.7.4 1 .6.9-1.2.6-2.6.2-4.1.6.2 1 .4 1.5.5.3-1 .2-1.9.1-2.8-.1-.6 0-1.2.3-1.8l.4-.4c.1 1.5.3 2.9.3 4.2 0 1-.6 1.8-1.2 2.6-.2.2-.3.4-.3.6 0 .8-.4 1.4-1 1.9-.4.3-.6.7-.6 1.2.1 1.7-.9 2.9-2 4.2-.2-.2-.3-.4-.5-.7-.5 1.6-1.2 3.1-.8 5.1-.6-.3-.9-.6-1.2-.8-.2.9-.5 1.7-.7 2.6-.1.4-.2.7-.9.5.2 1.2.4 2.3.7 3.4.3 1 .8 1.9 1.3 3-.2 0-.4 0-.6-.1-1.3-.6-2.3-1.5-3.2-2.7-.3-.4-.7-.7-1.2-.9-.6-.3-1.1-.7-1.6-1.1-.7-.6-1.2-1.3-1.9-2-.5-.5-.7-.5-1.2-.1-.4.4-.6.2-1-.1-.7-.6-1-1.5-1.3-2.4-1.4-.2-1.6-.4-1.7-1.8-.1-1-.4-2-1-2.9-.4.4-.9.7-1.3 1.1-1-1.4-1.4-3-1.6-4.7-.8-.1-.7 1.2-1.7.8-.2-.9-.5-1.9-.6-2.8-.1-1 .2-2 .3-3-.4.1-.8.3-1.2.4-.6.2-.8.1-.7-.6 0-.1 0-.2.1-.3.4-1.2.8-2.3.8-3.6 0-.2.1-.4.3-.5.5 1.3.2 2.6-.2 4 .6-.1 1.1-.2 1.6-.2.5 1.8-.2 3.6.5 5.2.4-.1.8-.1 1.1-.2.6 1.5 1.1 2.9 1.6 4.5.3-.5.5-.9.8-1.3.2.2.4.3.5.4.7 1 1.4 2.1 1.5 3.4 0 .2 0 .5.1.7.1.3.3.6.7.4.4-.2.5 0 .6.3.4.8.8 1.7 1.2 2.5.5-.2.9-.4 1.2-.4.5.1.9.3 1.3.6s.7.6 1 .9c.3.3.6.6 1.1.9-.3-.6-.6-1.1-.8-1.7-1.8-3.5-2.7-7.2-3-11.1-.3-3.3-.2-6.5.6-9.7.6-2 1.3-4 2-6 .4-1 1-1.9 1.9-2.6-.1.4-.3.8-.4 1.2-1.3 2.9-2.3 5.9-2.9 9.1-.5 3-.5 6-.1 9 .3 1.8.5 3.6 1 5.2 1.1 3.7 2.9 7 5.3 10 0 0 .1.1.2.1-.2-1-.3-2-.5-2.9-.2-1-.4-2-.6-3.2.5.3.8.4 1.2.6.5-1 .7-2.1.5-3.2-.1-.4-.1-.8.3-1.1.6.1.5.8 1 1.2.1-.5.3-1 .4-1.4.2-1 .8-1.9.5-2.9 0-.2.1-.5.3-.5.2-.1.5 0 .6.1.2.2.4.4.6.7.6-.6 1-1.3 1.1-2.2v-1.9c-.1-.1-.1-.4-.1-1z"/><path id="XMLID_420_" class="st0" d="M63.1 89.4V93.8c-.3 1.9.9 3.2 1.8 4.7.2.4.5.8.7 1.2l.3.9c-.1 0-.1.1-.2.1-.8-1.1-1.6-2.3-2.5-3.5-.1 1-.1 1.9-.2 2.8-.7-1.3-.6-2.6-.6-3.9-.1-3.1-.1-6.2-.5-9.3-.1-.3-.1-.7-.3-1-.9-2.4-1.9-4.7-2.8-7.1-.5-1.5-1.2-2.9-2-4.2-.1-.2-.3-.4-.5-.5.3 2 0 3.9-.2 5.9-.2 2.7-.7 5.3-1 8-.2 1.1-.5 2.2-.7 3.2 0 .3 0 .6.1.8.6 1.3 1.2 2.6 1.9 4 .6 1.3 1.4 2.5 2.5 3.5.1.1.2.2.4.5-.4-.2-.6-.2-.7-.3-1.2-.7-2-1.7-2.6-3-.5-1.2-1-2.3-1.5-3.5 0-.1-.1-.2-.4-.3-.2 1.6-.3 3.2-.5 4.9-.4-.6-.5-1.3-.5-2 0-2.1.4-4.1.8-6.1.4-1.9.8-3.8 1-5.8.3-2.7.6-5.4.8-8.2.1-1.7-.3-3.3-1.1-4.8-.2-.5-.4-.9-.7-1.4.1 0 .1-.1.2-.1l.6.6c.9 1.3 1.9 2.6 2.8 3.9 1.2 1.7 1.9 3.6 2.6 5.5 1.2 3.3 2.5 6.5 4.1 9.6.9 1.8 2.2 3.5 3.3 5.2 1.3 2 2.9 3.6 4.7 5.2 1.3 1.1 2.5 2.3 3.7 3.5.5.4.9.9 1.4 1.3-1.1-.3-6.6-4.5-8.2-6.3-2.4-2.4-4.2-5.4-6-8.4z"/><path id="XMLID_419_" class="st0" d="M67.5 101.8c.4.1.8.1 1.1.2.6.2 1.3.5 1.9.8 2.6 1.4 5.4 1.8 8.4 1.9-.2-.2-.3-.4-.5-.5-.9-.7-1.7-1.6-2.2-2.7-.4-1.1-.9-2.1-1.7-2.9-.1-.1-.1-.2-.1-.3.4-.6.9-.2 1.4-.2.5-1.6.6-3.2-.5-4.6-.3-.6-.3-.6-.3-1.3.4.1.8.2 1.2.4.3.2.7.4 1.1.7-.1-.4-.2-.6-.2-.8-.3-.9-.5-1.7-.2-2.7.1-.4 0-.8-.1-1.1-.2-.5-.5-1-.7-1.5-.1-.3-.4-.6-.1-.9.8.1 1.6.4 2.3.9-.3-1.5-.4-3.2-1.7-4.3-.1-.1-.2-.4-.3-.6.8-.4 1.6-.3 2.5-.1.1-1.5-.4-2.8-1.3-3.9-.1-.1-.2-.2-.4-.3-.2-.3-.8-.5-.5-.9.2-.3.7-.4 1-.4.4-.1.9 0 1.4 0-.1-.3-.1-.5-.2-.7-.6-1-1.2-2.1-1.9-3.1-.2-.3-.5-.6-.2-1.1h1c-.6-2.6-2.3-4.4-4.1-6.4.5-.1 1-.3 1.5-.4-.2-.6-.7-1.1-1.2-1.4-.5-.3-1.1-.6-1.8-.9 1-.2 1.7 0 2.4.5 1.1.7 1.7 1.9 2.7 2.9-.9.4-1.5-.5-2.3-.2.1.2.3.4.4.5 1 .8 1.7 1.9 2.3 3 .4.8.7 1.5 1.1 2.3.5 1.1.4 1.2-.8 1.4.5.9 1 1.8 1.5 2.6.2.4.4.9.6 1.3.2.7 0 .9-.7.7-.3-.1-.7-.2-1-.2h-.4c1 1.7 2.3 3.3 1.2 5.5-.4-.1-.8-.1-1.3-.2.7 1.9 1.7 3.7 1 5.8-.8-.3-1-1.2-1.9-1.4 0 .1 0 .2.1.3.6 1 .7 2 .6 3.1-.2 1 .3 2 .8 2.9.2.3.3.7.6 1.1-1.1.3-1.6-.6-2.5-.9 1 1.8.6 3.4.1 5-.1.2-.3.3-.6.6.7 1.2 1.1 2.7 2.2 3.9 1.1 1.1 2.6 1.4 3.9 2.2-2.8.5-5.6.4-8.4-.2-2.4-.7-5.4-2.2-6.2-3.4z"/><path id="XMLID_418_" class="st0" d="M65.5 32.2c1.7.9 3.3 1.7 4.9 2.5l1.2.6c.5.3.9.3 1.4.1.3-.2.7-.3 1.1-.5.8-.3 1.4-.8 1.8-1.6.4-.7 1-1.4 1.5-2 .1.7-.4 1.2-.6 1.8.4.1.6-.2.8-.4 1.3-.9 2.7-1.4 4.2-1.8.4-.1.9-.1 1.4-.1v.2c-.1.1-.2.2-.4.2-.7.3-1.5.5-2.2.8-1 .5-2 .9-2.9 1.5-1.4.8-2.7 1.8-4.3 2.3-.1 0-.1.1-.3.2 3.2 1.6 6.2 3.6 9.7 4.6 1.2.4 2.5.5 3.7.7.4.1.7.1 1.1.3-2.9.4-5.5-.4-8.2-1.5.5 1.6 2.5 3.7 6.2 5.7-1.1-.2-2.2-.4-3.2-1.1-1.5-1.1-2.9-2.3-3.6-4.1-.3-.7-.8-1.1-1.5-1.5-3.6-1.9-7.1-3.8-10.7-5.7-1.6-.8-3.3-1.5-4.9-2.1-1.2-.5-2.4-.8-3.6-1.2-.1 0-.2-.1-.4-.2h1.7c-.3-1.1.4-1.9 1-2.8.9-1.3 2.1-2.3 3.6-3.1 2-1 4-2.1 5.8-3.6.7-.6 1.4-1.2 2-1.8.4-.3.8-.6 1.2-.8-.7 1.4-2 2.2-3.2 3.4 1.5-.4 2.9-.8 4.3-.4-.5.1-1.1.3-1.6.4-1.3.3-2.6.6-4 1-.1 0-.2.1-.4.1-1.7.9-3.3 1.7-5 2.7-1.3.8-2.4 1.9-3.1 3.3-.3.5-.5 1.1-.4 1.7 1.3.5 2.6 1.1 3.9 1.5 1 .4 2 .2 3-.2 2.2-.9 4.2-2.1 6-3.6 1.6-1.3 3.4-2 5.5-2h1.1c-.3.1-.6.2-.9.2-2.2.3-4.2 1.1-6 2.6-1.9 1.8-4.1 3-6.7 3.7z"/><path id="XMLID_417_" class="st0" d="M3.9 60.3c-.5-.7-.6-1.3-.6-1.9v-1.8c-.9.2-.8 1.6-1.8 1.6-.5-1.2 0-3.8 1.5-7-.3-.1-.6-.1-.9-.2-.6-.2-.8-.7-.3-1.1.7-.7 1.3-1.5 1.6-2.5.4-.9.9-1.7 1.3-2.6-.5-.2-1-.3-1.6-.5.5-1.1 1.1-2 1.8-2.8.7-.8 1.4-1.6 2.2-2.5-.2-.1-.4-.1-.6-.1.4-1.9 1.5-3.2 2.7-4.5-.3-.1-.6-.1-.9-.2-.3-.2-.4-.5-.1-.7 1.4-1.2 2.5-2.8 4.4-3.3.1 0 .2-.2.3-.4.7-.8 1.4-1.7 2.7-1.6-.4.6-1.3.5-1.4 1.3.2.1.4.1.6.2.2.1.3.3.4.4-.2.1-.3.3-.5.3-.4.1-.8.2-1.2.2-1.6.3-2.6 1.4-3.7 2.6.6.2 1.1-.5 1.6.2 0 .6-.5.9-.9 1.2-1.2.7-2 1.8-2.7 3.1.5 0 .9 0 1.6.1-.7.7-1.3 1.2-1.9 1.9-.6.6-1 1.3-1.5 2S5 43 4.5 43.8c.7.1 1.4.2 2.2.2-.2.3-.3.4-.4.5-.6.7-1.2 1.4-1.5 2.4-.5 1.1-1 2.1-1.4 3.1.3.1.6.1 1.1.2-1 1.8-1.8 3.6-2 5.6.5-.2 1-.3 1.5-.4.5-.1.8.1.6.5-.3 1.2-.3 2.4-.4 3.6 0 .2-.1.4-.3.8z"/><path id="XMLID_416_" class="st0" d="M49 97.4c.2-.7.1-1.4.9-1.7 1.1 2 2.9 3.3 5 4.1.2-.4.3-.6.5-.9.3-.4.6-.5.9-.1 1.5 1.5 3.3 2.3 5.1 3.1.2.1.4.1.6.2h.4c-.1-.3-.2-.6-.3-1 .3 0 .4 0 .6.1.6.3 1.2.6 1.7.9.8.4 1.6.7 2.6.5-.1.5-.5.6-.8.5-.4 0-.9-.2-1.3-.3-.4-.1-.7-.3-1.1-.4-.1.2-.1.3-.1.5-3-.3-5.5-1.7-7.7-3.6-.1.1-.2.2-.2.3-.2 1-.2 1-1.2.7-1.5-.4-2.7-1.3-3.9-2.3-.2-.2-.5-.4-.8-.7-.1.3-.2.6-.3.8-1.7-.3-2.5-.8-5.2-3.5h-.2c-.6 1.1-.8 1.2-1.5.1-.7-1.1-1.3-2.3-2-3.5-.3-.5-.4-1-.7-1.6-.2.3-.4.5-.6.8-.5.6-.8.6-1.2-.1-.7-1.4-1.2-2.9-1.2-4.6-.8.2-.6 1.3-1.6 1.4-.6-2.2-.7-4.3-.5-6.8-.3.4-.6.7-.8 1-.8-1.4-1-3.9-.4-5.1.5.6.3 1.2.4 1.9.1.6.1 1.3.2 2 .4-.2.7-.4 1.1-.7v3.1c0 1 .2 2 .2 3.1.7-.4.9-1.2 1.8-1.1.4 2.7.8 4 1.4 5.1.5-.4.8-1.2 1.8-1.2.3 2.2 1.3 4 2.6 5.9.2-.5.3-.9.5-1.4 1.8 1.8 3.2 3.5 5.3 4.5z"/><path id="XMLID_415_" class="st0" d="M53.6 26.7c.4 0 .8-.1 1.4-.2-1.2 1.1-1.8 2.4-2.2 3.7-.2.7-.4 1.5-.7 2.2-.5 1.2-1 2.3-1.5 3.4.8-.3 2.7-2.1 3.3-3.4.7-1.5 1.2-3 1.8-4.5.6 1 .3 2.1-1.5 5.9.3-.3.5-.4.6-.5.8-1 1.3-2.1 1.7-3.3.3-1.1.3-2.1-.8-2.9.8 0 1.2.4 1.3.9.1.8.3 1.6.1 2.3-.4 2-1.4 3.6-3 4.9-.4.3-.8.7-1.2 1-.3.2-.7.3-1 .5 0-.1-.1-.1-.1-.2.1-.2.3-.4.4-.7-.1 0-.2 0-.3.1-.7.4-1.3.8-2 1.2-.3.1-.6.1-1.2.2.3-.8.5-1.5.8-2.1-2.1 2.8-3 6-3.1 9.4h-.2c-.1-.3-.2-.6-.2-.9 0-.9.1-1.9.2-2.8 0-.4.1-.8.1-1.2.7-1.4 1.3-2.7 2-4.1.7-1.3 1.5-2.6 2.6-3.7.3-.3.5-.6.6-1 .5-1.4 1-2.9 2-4.1.1.1.1 0 .1-.1z"/><path id="XMLID_414_" class="st0" d="M16.7 38.8c-1.9-.8-3.7-1.3-5.7-1.3 1.2-1 4.1-.4 6.2.9 1.4-.7 2.8-1.4 4.3-2.1.1 0 .1-.1.3-.2-1.9-1-4.1-1.3-5.9-2.5 2.4.2 4.6.9 6.7 2.1 1.3-.5 2.6-.9 4.1-1.4-.5-.6-1.2-.9-1.9-1.1-.9-.3-1.9-.6-2.8-.9-.9-.3-1.8-.6-2.7-1.1h.6c1.7.4 3.3.9 5 1.3.9.3 1.7.8 2.4 1.5.3.3.7.4 1 .6-2.8.6-5.3 1.8-7.8 3.2-2.6 1.4-5.1 3.1-7.9 4.2-.7.3-1.3.9-1.7 1.6C10 44.7 9.2 46 8 46.8c-.6.4-1.1.8-2 .8 2-1.6 3.6-3.4 4.7-5.6-.7-.1-1.3-.1-2-.2v-.3c.3 0 .6-.1 1-.1h1c.5.1.9-.1 1.4-.3l3.6-1.8c.2 0 .5-.2 1-.5z"/><path id="XMLID_501_" class="st0" d="M60.7 52.3c.4-.8 1.3-.8 2-1.4-.8-.1-1.4-.1-2-.2-1.8-.2-2.4-.7-2.8-2.6-.1-.5-.2-1.1-.3-1.6v-.9c1.1 1.6 2.8 1.9 4.3 2.4 1 .3 1.8.8 2.5 1.6.3.4.6.7 1.2.7.2 0 .5.2.7.3 1.1.6 2.4.9 3.6 1.2v-1c.5.4.6.5.9 1.8-1.5.3-2.8-.2-4.1-.9-.1.3-.1.5-.2.9-1.1-.2-1.4-1.3-2.3-1.7-.6.4-1.2.8-2 1.3.3.1.5.2.7.3 1.6.3 2.8 1 4 2.1.6.6 1.4 1 2 1.5.2.2.5.4.7.6-.4.7-1 .4-1.5.7 1.3.7 2.5 1.4 2.3 3.3-.2-.2-.4-.3-.5-.5-.6-.9-1.5-1.6-2.4-2.3-.5-.3-1.1-.5-1.7-.8.2-.5.8-.5 1.3-.7-1.2-1.1-2.3-2.4-3.9-2.8-.6-.1-1.1-.4-1.6-.7-.1-.3-.4-.4-.9-.6zm2.9-2.3c-.8-.9-2.1-1.5-5.1-2.5.3.7.5 1.4.8 2 .1.2.4.4.6.5 1.2.4 2.4.3 3.7 0z"/><path id="XMLID_411_" class="st0" d="M73.2 68.3c-.5 1.1-1.4 1.4-2.6 1.9 1.6.5 3.1.2 4.5 1-1.4.5-2.6.1-3.9-.2 1.2 2.1 3 3.4 4.7 4.7 0 .1-.1.1-.1.2-.5-.2-.9-.3-1.4-.5-1.5-.8-2.9-1.9-3.9-3.3-1.2-1.7-2.5-3.4-3.8-5.1-1.8-2.3-4.2-3.8-7-4.5-.3-.1-.7-.1-1.1-.1.2-.4.6-.3.9-.3 2 .2 3.8.7 5.4 1.9 1.8 1.3 3.1 2.9 4.5 4.6.3.3.5.7.8 1 1.1-.4 2-.9 3-1.3z"/><path id="XMLID_410_" class="st0" d="M56.2 69.3H58c1.1 0 2.1.4 3 .9.9.6 1.9 1.2 2.7 1.9 1.7 1.5 3.2 3.2 4.3 5.1.4.7.8 1.5 1.2 2.2.3.5.6.6 1.1.5.8-.1 1.6-.1 2.6-.1-.9.8-1.8.5-2.8.7l.3.6c.8.6 1.5 1.1 2.3 1.6.5.3 1 .6 1.4 1-1.1-.2-2.1-.9-3.1-1.6 0 .1-.1.1-.1.2.5.6.9 1.3 1.5 2-1.2-.3-1.8-.9-2.3-1.7-.6-.9-1.1-1.9-1.6-2.8-1.4-2.8-3.3-5.2-5.7-7.3-1.3-1.1-2.7-2.1-4.4-2.5-.3-.1-.6-.1-1-.1-.4-.1-.7-.3-1.2-.6z"/><path id="XMLID_409_" class="st0" d="M51.8 71.1c.1 2-.1 3.9-1 5.7-1.1 2.2-1.8 4.7-2.6 7s-.4 4.5-.1 6.8l.6 3.3v.7c-.6-.6-.9-1.3-1-1.9-.3-1.2-.4-2.4-.6-3.6-.1-.9-.2-1.7-.3-2.8-1 1.5-1.8 2.9-2.7 4.2H44c.1-.3.1-.6.2-.9.7-1.4 1.4-2.7 2.1-4.1.1-.2.2-.4.3-.5.9-.8 1.2-1.9 1.4-2.9.5-2 1.3-3.8 2.2-5.5.8-1.5 1.2-3.1 1.4-4.8 0-.2.1-.5.1-.7h.1z"/><path id="XMLID_408_" class="st0" d="M21.1 43.7c-.5-.4-1-.8-.8-1.6.6.3 1.1.8 1.7.9.6.1 1.2-.1 1.9-.2-.1.1-.2.2-.3.2-2.8 1.3-5.1 3.2-7.7 4.7-1.4.7-2.7 1.6-4.1 2.2-1.1.5-1.9 1.3-2.6 2.2-.7 1-1.5 2-2.3 2.9-.2.3-.5.5-.8.7.4-1.9 1.7-3.2 3.1-4.7-.8.1-1.4.2-2 .3 2.2-1.6 4.7-2.3 7-3.7 2.2-1.3 4.5-2.5 6.9-3.9z"/><path id="XMLID_407_" class="st0" d="M60.8 79.4c1.1.6 2.1 1.3 2.8 2.4.8 1.2 1.8 2.2 3.2 2.7.7.3 1.5.5 2.2.7 1.1.3 2.2.6 3.4 1 .1 0 .2.1.3.2-2.4.1-4.5-.6-6.8-1.6 1.8 3.3 3.6 6.4 6.1 9.1-.8-.4-1.4-.9-1.9-1.5-1.2-1.4-2.4-2.9-3.3-4.6-1.2-2.1-2.5-4.2-3.9-6.2-.6-.8-1.4-1.4-2.1-2.2z"/><path id="XMLID_406_" class="st0" d="M35 15.3c-.1.3-.2.6-.4.9-.1-.1-.3-.1-.5-.2-.3-1.6.4-3.1 1.8-3.8.7-.4.9-1 1-1.7.1-.6.1-1.2.2-1.8.1-2.3 1.8-3.7 4-4.1.1 0 .1 0 .2.1 0 .4-.3.6-.6.8-1.3 1.3-1.7 2.9-1.2 4.6.3 1.1.3 2-.3 3h-.7c.8-1.1.6-2.1.3-3.2-.2-.8-.1-1.7.2-2.5.1-.5.3-1 .5-1.6-.9.6-1.5 1.3-1.7 2.3-.1.7-.1 1.4-.2 2.1-.2 1.1-.4 2.1-1.7 2.6-.9.4-1.1 1.3-1.2 2.2l.3.3z"/><path id="XMLID_405_" class="st0" d="M56.7 35.4c.4.4.9.8 1.3 1.3 1.7 1.7 3.8 2.8 5.9 3.9 1.8.9 3.3 2.2 4.4 3.9.7 1.1 1.5 2.1 2.3 3.1.6.8 1.3 1.5 2 2.2-.4.1-.8-.1-1.1-.3-.4-.4-.9-.8-1.2-1.3-.9-1.1-1.8-2.2-2.5-3.3-1-1.6-2.4-2.7-4.1-3.5-1.5-.8-3.1-1.7-4.5-2.6-1-.6-1.8-1.5-2.4-2.6-.1-.2-.2-.4-.2-.6l.1-.2z"/><path id="XMLID_404_" class="st0" d="M19.5 58.1c.2.5.3.9.5 1.3.7 2.2 1.4 4.5 2.9 6.4.6.8 1.2 1.5 1.8 2.2 1 1.2 1.4 2.4 1.4 3.9-.2-.2-.3-.4-.4-.6-.8-1.4-1.6-2.8-2.7-4.1-1.8-2.2-2.9-4.8-3.4-7.6-.1-.4-.1-.8-.1-1.2-.1.1-.1 0 0-.3z"/><path id="XMLID_403_" class="st0" d="M39.7 30c1-.9 2.1-1.9 3.1-2.8 1.3-1.2 2.8-2 4.4-2.6 1.8-.7 3.6-.7 5.4-.2.8.2 1.4.6 1.7 1.5-2.5-1.8-5-1.6-7.5-.6-2.3.9-4.1 2.5-5.8 4.2-.6.6-1.1 1.2-1.7 1.7-.3.2-.5.4-.8.7.1-.2.2-.5.3-.7.4-.4.7-.8.9-1.2z"/><path id="XMLID_402_" class="st0" d="M49.8 30.1C48 31.2 46 31.2 44 31.2c-.3 0-.5-.1-.5-.5.1-.1.3-.2.4-.3 1.1-.3 2.1-.9 2.9-1.7 1.3-1.3 2.9-1.9 4.5-2.3.3-.1.6-.1.9.1-1.1.5-2.3.8-3.3 1.4-1 .6-1.8 1.5-2.6 2.5 1.1-.2 2.3-.4 3.4-.6.1.1.1.2.1.3z"/><path id="XMLID_488_" class="st0" d="M82.9 61.4c2 0 2.7 1.7 2 3.5-.5 1.1-2.7 1.3-3.3.4-.7-1.1-.8-2.4 0-3.4.4-.5.8-.5 1.3-.5zm0 .8c-.7 0-1.2.5-1.3 1.5 0 .6.6 1.4 1.2 1.4.9 0 1.5-.5 1.5-1.3.2-.9-.4-1.6-1.4-1.6z"/><path id="XMLID_399_" class="st0" d="M18.2 51.6c-.4.3-.8.6-1.3.8-1.2.6-2.3 1.1-3.5 1.7-1.5.8-2.8 2-4 3.2-.5.5-1 .9-1.6 1.3.3-.9.9-1.6 1.5-2.2 1.7-1.7 3.5-3.1 5.8-3.9.7-.3 1.4-.7 2.1-1 .3-.1.6-.2 1-.3v.4z"/><path id="XMLID_398_" class="st0" d="M59.3 91.1c-1.1.7-1.5.6-2.2-.4-1.6-2.3-1.3-4 .6-6 .1-.1.2-.1.4-.1-.1.3-.1.5-.2.7-.3.6-.6 1.1-.8 1.6-.5 1.3 0 2.9 1.3 3.8.4-.7.8-1.3 1.2-2h.2c0 .2.1.4.1.6l-.6 1.8z"/><path id="XMLID_397_" class="st0" d="M12.9 60.7c.7-.2.9-.8 1.4-1.2.4-.3.7-.7 1.4-.9-2 3-4 5.9-6 8.7-.1 0-.1-.1-.2-.1l.3-.9c.7-1.7 1.6-3.2 2.7-4.8.1-.2.2-.5.4-.8z"/><path id="XMLID_396_" class="st0" d="M61.1 119.3c.8.3 1.1 1.1.6 1.9-.4.7-1 1.2-1.8 1.4-1.2.3-2.2-.4-2.4-1.6-.2-1.3-.2-1.9 1.5-2.4-.2.3-.3.5-.5.7-.5.6-.5 1.4.1 1.9.2.2.6.2.9.2.8-.2 1.4-1 1.6-2.1z"/><path id="XMLID_395_" class="st0" d="M73.1 119.9c-.4.7-.5 1.5-.2 2.2.3.6.6.8 1.2.7.6-.2.9-.6.8-1.2 0-.2-.1-.4-.2-.7.7.1 1.2.3 1.4 1 .2.7-.2 1.2-.7 1.6-1.2 1-2.7.6-3.3-.9-.5-1.4-.3-2.1 1-2.7z"/><path id="XMLID_394_" class="st0" d="M27.5 61.3c-1.6-3.3-2.8-6.7-5-9.6.4-.1.6.2.8.4.7 1 1.5 1.9 2.2 3 .7 1.2 1.3 2.4 1.9 3.6.3 1 .3 1.6.1 2.6z"/><path id="XMLID_393_" class="st0" d="M41.8 79.8c0 .9-.6 1.8.5 2.6 1.1-.5.3-1.5.5-2.3.8 0 1.1.6 1.3 1.2.3.8-.7 2.3-1.6 2.3-.2 0-.5-.1-.7-.2-.9-.7-1.1-2.1-.5-3.1.2-.2.4-.3.5-.5z"/><path id="XMLID_392_" class="st0" d="M53.6 26.7c-.1 0-.3 0-.4-.1-1.4-1.1-3-1.1-4.6-.5-2.6.9-4.8 2.6-6.5 4.7-.5.6-.9 1.2-1.5 1.7.1-.2.1-.3.2-.5 1.7-2.9 4.2-4.9 7.2-6.2 1.4-.6 2.9-.8 4.4-.2.5.2 1 .4 1.2 1.1z"/><path id="XMLID_391_" class="st0" d="M26.6 29.2c-.7-.5-1.4-1-2.1-1.6.9-.1 1.7.4 2.9 1.6-.2.2-.3.5-.5.6-1.1.4-2.1 1-3.2.9-.7 0-1.3 0-1.7-.7-.4-.8-.3-1.5.1-2.5.1.7.2 1.2.3 1.6.1.7.3.8 1 .8.6 0 1.2-.1 1.7-.2.4 0 .9-.3 1.5-.5z"/><path id="XMLID_390_" class="st0" d="M62.7 109.3c-.3.2-.5.3-.7.5-.1.1-.3.3-.3.5-.1.6.1 1.3.5 1.4.5.2 1.5-.1 1.8-.7.3-.5.4-1 .1-1.6.7.2.9.4.9 1 0 1.4-1.9 2.7-3.1 2-.9-.5-1.3-2.1-.6-2.9.2-.2.7-.3 1.4-.2z"/><path id="XMLID_389_" class="st0" d="M30.6 85.1c-.2.4-.4.7-.5 1-.1.2-.2.5-.1.7 0 .4.2.8.6.9.3 0 .8-.1 1-.3.2-.2 0-.6 0-1 .4-.1.8-.1 1.1.3.3.4.2.8 0 1.2-.3.6-1.2 1-2 .9-.7-.1-1.2-.6-1.3-1.4-.2-1.1 0-1.6 1.2-2.3z"/><path id="XMLID_388_" class="st0" d="M45.6 20.4c.6.1.7.4.7.8 0 1-1 2.4-2 2.7-.9.2-1.5-.3-1.5-1.2 0-.7.7-1.8 1.7-2.5-.1.4-.2.6-.3.8-.2.5-.5 1-.7 1.5-.1.1 0 .5.1.5.2.1.4.1.6 0 .8-.3 1.4-1.3 1.4-2.6z"/><path id="XMLID_387_" class="st0" d="M64.7 62.3c1.4-.7 2.8-1.3 4.3-.2.3.2.8.3 1.1.5.3.1.5.4.3.7-.6.9-1.3 1.6-2.6 1.9.6-.9 1.6-1.1 1.8-2-.6-.3-1.2-.7-1.9-.9-.3-.1-.8-.1-1.1-.1-.5 0-1 .2-1.5.3-.1-.1-.3-.2-.4-.2z"/><path id="XMLID_386_" class="st0" d="M17.1 67.7c1.4 2.2 3.4 3.9 4.7 6.5-1.6-1-4.3-4.6-4.7-6.5z"/><path id="XMLID_385_" class="st0" d="M85.7 73.5c.1.6.1 1 .2 1.4.7.2 1 .2 1.2-.3.3-.7-.5-.7-.8-1 .7-.4 1.1-.3 1.5.1.3.4.4.8.1 1.3-.5.9-1.8 1.2-2.6.5-.1-.1-.2-.4-.2-.6-.1-.5 0-1 .6-1.4z"/><path id="XMLID_384_" class="st0" d="M68.7 41.7c.8-.4.8-1.1.8-1.8.7.3.9.6.8 1.1-.1.7-.7 1.4-1.3 1.6-.6.1-1.2-.2-1.7-.9-.5-.8-.5-1 0-1.6.1.3.2.7.5 1 .3.2.7.4.9.6z"/><path id="XMLID_383_" class="st0" d="M85.5 35.3c-1.7 2-5.1 3.5-6.9 2.8 2.7-.3 4.6-1.9 6.9-2.8z"/><path id="XMLID_382_" class="st0" d="M63.3 36.5c.3 1 .6 1.9 1.7 2.1.4-1 0-1.6-.8-2.1 1.5 0 2.3 1.2 1.7 2.3-.2.4-.5.6-1 .5-1.1-.2-1.9-1.5-1.6-2.8z"/><path id="XMLID_381_" class="st0" d="M60.1 19.1c.1-1.5 2.6-4.7 4.4-5.7-1.4 1.9-2.8 3.7-4.4 5.7z"/><path id="XMLID_380_" class="st0" d="M66.5 73.2c1-.3 2-.8 2.4-1.9-.7-.6-1.6-.3-2.4-.8.2-.1.4-.3.6-.3.6 0 1.2.1 1.8.2.5.1.7.6.6 1.1-.3 1-1.9 2-3 1.7z"/><path id="XMLID_379_" class="st0" d="M56.8 45.9c-1.1-.2-2.1-.5-3.2-.7-.7-.1-1.3-.4-1.8-.9-.1-.1-.1-.2-.3-.4 1.4.3 2.6.6 3.9 1 .5.1.9.5 1.4.8.1 0 0 .1 0 .2z"/><path id="XMLID_378_" class="st0" d="M58.1 56.7c1.1 0 1.9.8 2.8.3.2-.8-.6-1-.8-1.5 1-.1 1.6.4 1.7 1.3 0 .6-.4 1.1-1.1 1.1-1 0-1.8-.3-2.6-1.2z"/><path id="XMLID_377_" class="st0" d="M70.7 51.3c1.5.1 2.9.1 4.2.2.1-.2.3-.4.4-.7.3.5.6.9.9 1.4l.2-.2c-.1.1-.1.3-.1.3-.7-.1-1.3-.2-1.9-.2h-2c-.6-.1-1.2-.3-1.7-.8z"/><path id="XMLID_376_" class="st0" d="M60 14.4c.1.2.2.5.2.7 0 1-1.3 2.2-2.2 2.3-.4 0-.7-.2-.8-.7-.1-.6.2-1.4.8-2.1 0 .8-.5 1.5-.1 2.2.6-.1 1.1-.4 1.5-.9.3-.4.4-1 .6-1.5-.1 0 0 0 0 0z"/><path id="XMLID_375_" class="st0" d="M25.9 41.6c-1.4.8-4.2.2-5.1-1 1.6.6 3.4.3 5.1 1z"/><path id="XMLID_374_" class="st0" d="M23.8 58.7c-1.2 0-1.3-.2-1.2-1.3.1-.5.1-1 .3-1.4.1-.3.4-.6.6-.8-.1.9-.4 1.7-.2 2.7l1.2-.3c0 .5-.5.7-.7 1.1z"/><path id="XMLID_373_" class="st0" d="M60.6 73.9c.7-.1 1.4-.2 2.3-.3-.2.3-.3.6-.5.6-.5.2-1 .4-1.6.4-.5.1-.9-.3-1-.7-.1-.5.1-.8.7-1 .2-.1.3-.1.5-.1h.6c-.4.3-.8.6-1.1.9 0 0 0 .1.1.2z"/><path id="XMLID_372_" class="st0" d="M12.9 49.9c-.2.5-.4.9-.5 1.2 0 0 0 .1.1.2.4-.3.9-.6 1.3-.9.1 1-.8 1.8-1.6 1.7-.4-.1-.6-.4-.5-.9.1-.5.5-1 1.2-1.3z"/><path id="XMLID_371_" class="st0" d="M54.7 15.1c-.2.7-.3 1.2.2 1.6.6-.4.7-1 .9-1.7.4.2.5.5.4.9-.1.4-.3.7-.5 1-.2.3-.5.6-.9.4-.3-.1-.5-.5-.6-.8-.1-.4-.3-1 .5-1.4z"/><path id="XMLID_370_" class="st0" d="M12.9 60.6c-.3.3-.6.6-1 .9-.7.4-1.2.3-1.5-.4-.4-.8-.3-1.2.6-1.6v.3c-.2 1 0 1.2.9 1 .3-.1.6-.1 1-.2 0 .1 0 0 0 0z"/><path id="XMLID_369_" class="st0" d="M11.2 58c.7.6.8.6 1.5.1.4-.3.8-.6 1.2-.8.1 0 .1.1.2.1 0 .2 0 .5-.2.6-.4.4-.8.8-1.2 1-.5.3-1 .2-1.5-.2-.1-.1-.1-.3 0-.8z"/><path id="XMLID_368_" class="st0" d="M64.9 60c.6.1 1.2.6 1.7-.1-.1-.6-.9-.6-1.2-1.1.7 0 1.4.3 1.7.8.1.2.2.5.1.7-.3.5-.7.6-1.2.6-.6-.1-1-.3-1.1-.9z"/><path id="XMLID_367_" class="st0" d="M11.9 66.6c.1.7.1 1.3.2 1.9.4-.2.7-.3 1-.4.1.4 0 .7-.3 1-.2.2-.5.3-.8.3-.3 0-.5-.3-.5-.6 0-.7-.1-1.4.4-2.2z"/><path id="XMLID_366_" class="st0" d="M59.3 91.1c.4.1.3.4.3.7.1 1.1.2 1.2 1.3 1-.1.6-.3.9-.8.9-.4 0-.9-.3-1-.8 0-.6.1-1.2.2-1.8z"/><path id="XMLID_365_" class="st0" d="M66.2 69.4c-.6.7-.9.8-1.4.5-.4-.3-.6-.8-.4-1.4.1-.3.3-.7.7-.9v.7c-.1.8 0 .9.8 1 0 0 .1 0 .3.1z"/><path id="XMLID_364_" class="st0" d="M23.8 58.7c.1.1.3.2.3.2 0 .2-.1.5-.2.8.3.1.5.2.7.3-.1.1-.1.3-.2.3-.5.4-.8.4-1.1.1-.3-.3-.3-.8 0-1.2.1-.2.3-.3.5-.5z"/><path id="XMLID_363_" class="st0" d="M54.5 18.8c.3.4.4.6.6.9.2-.3.4-.5.7-.9.2.5.1.9-.2 1.2-.1.1-.4.2-.6.1-.4-.2-.6-.6-.5-1.3z"/><path id="XMLID_362_" class="st0" d="M18.3 44.1c.3.1.7.1 1 .2-.4.3-.7.3-1 .1v-.3z"/></g></svg>