<svg id="Warstwa_1" xmlns="http://www.w3.org/2000/svg" viewBox="0 0 43 76"><style>.st0{fill:#bfa161}</style><path id="XMLID_53_" class="st0" d="M18.7 4.4c-.2 0-.3.2-.5.2-.3.2-.7.3-.9.5-1 .9-.9 2.1-.5 2.4.3.3 1.2-.2 1.4-.9 1.1.5-.7 2.4-2.3 1.4-1.4-1 0-4.5 2.8-5.4.3.1.1 1.8 0 1.8"/><path id="XMLID_52_" class="st0" d="M9.4 16.5c.2 0 .7-1 .9-1 0 0 2.3 1.9 2.4 3.8-.2.2.3.3-.5.2-.2-.2-2.1-2.3-2.3-2.3-.2 0 .4 1.2.2 1.2s-1.6-1.6-1.7-1.6c-.2 0 .7 1.2.5 1.2-.7-.2-3.1-1.2-4.9-1.2 0 0 2.8 1.1 3.5 1.2.2 0-2.8.7-2.6.7.2.2 2.6-.5 5.1.3l-.9.3c.2.2 1.9.5 2.1.7-.3 1.9-5.8 2.3-7 3.1.5 0 4.2-.5 4.4-.4 0 .2-4.5 1.7-4.5 1.9-.2.2 2.6-.7 3.1-.5.2 0-1.7 1.2-2.8 2.3-.2 0 1.9-.5 1.7-.5-1.2 1.9-1.7 4-1.7 4.7-.2.2 0 .7-.2.5 0 0-.7-.9-.9-2.6 0-.2-.9.7-.9.5 0-.7.7-1.9.9-2.8-.5 0-1.2 1.4-1.4 1.2 0-.2 1-3.1 1-3.3-.2-.2-1.7 1-1.7.7 0-.4 1.7-2.3 1.6-2.4-.2 0-1.4-.7-1.6-1.2.2-.2 6 1 6.3-.2 1-2.8-4.7-.4-4.5-.7.3-.5 0-1.4.3-1.8 0-.2-1.4.4-1.7 0 .2-.2.9-1 1.4-1.6.2.2-2.1-1.1-2.1-1.4 0-.4 2.6.2 3 .3.3 0-.2-1.4.2-1.2.4.2 1.6 1 1.9 1.2.7.2-.2-1.4.2-1.4.5-.2 1.6 2.1 1.9 1 .4-.7-.2-.9.2-1 .3.1 1 2.1 1.1 2.1"/><path id="XMLID_51_" class="st0" d="M18 21.7c.2.2-1-.2-1 .2.5.7 1 1.7 1 2.5-.2.3-1.2-1.2-1.4-.9-.2.7 2.1 2.8 1.6 3.3-.3.2-1.4-.5-1.6-.9 0 0 .7 1.6.7 2.3l-1.2-.9c.2 1.2-.2 2.4-.4 2.6 0 .9-.9-3.1-.9-2.3-.2.2-.7 1.2-.9 1.2-.3-.4 0-1 .2-1.6 0-.3-1 .2-1.2 0 0-.2.5-.9.7-1 0-.7.2-1.6-1.2-1.4-2.8.3.5 2.6-.2 3.8-.2.2-1.7-1.4-1.7-1.4-.7.5.5 1 0 1.7-.2.2-1.2-1.2-1-1.2L9 29.3 8.2 28c-.7 1-.4 1.7-.7 3-.2.2-.5-1.6-.7-1.6-.2.3-2.1 2.1-2.3 1.9.5-1.4 1.4-3.5 2.1-4.5.2-.2.2 1.6.3 1.4.5-.7.3-2.3 1.2-3.1.2-.4.2 1.7.5 1.6.2-.4.5-3.5.9-3.7.2-.2.3 2.8.5 2.8.2-.2 0-4 2.6-4.7 0-.2.2 1.4.3 1.6 0 .2.3-.5.3-.4.2.2 1.6 4.4 1.7 4.4.2-.2-.9-4.2-.9-4.5 0 0 1.2 1.7 1.4 1.7.2 0-1.6-3-1.6-3 0-.2 2.3 1.7 2.3 1.6-.5-1-2.4-2.4-2.4-2.4.8-1 4.1 1.2 4.3 1.6"/><path id="XMLID_50_" class="st0" d="M29.1 48.7c-.2 0-.4-1.7-.5-1.7-.2 0-2.3 2.8-1.9 4.7 0 0 .9 1.2 1.4.7.2 0 1.7-2.6 1.7-2.6.2-.2 0 1.2.2 1.2s1.2-1.8 1.4-1.9c.2 0-.5 1.4-.3 1.4.7-.3 2.8-2.1 4.5-2.3 0 0-2.6 1.6-3.1 1.9-.2 0 2.8 0 2.6.2 0 0-2.6 0-4.7 1.2-.2.2.9.2.7.3 0 .2-1.7.9-1.7 1 .7 1.9 6.3 1.1 7.5 1.6-.5 0-4.2.4-4.2.5 0 .2 4.7.7 4.7.9.2.2-2.6 0-3.1.4-.2 0 1.9.7 3.1 1.4.2.2-1.9 0-1.7 0 1.6 1.6 2.6 3.5 2.8 4.2 0 .2.2.7.2.5 0 0 .5-1.2.2-2.8 0-.2 1 .3 1 .2-.2-.7-1-1.6-1.4-2.4.5-.2 1.6 1 1.6.9 0-.2-1.6-2.8-1.6-3 0-.2 1.7.5 1.7.4-.2-.4-2.3-1.9-2.1-1.9 0-.2 1-1 1.2-1.6-.2-.5-5.6 2.1-6.3.9-1.6-2.4 4.5-1.4 4.4-1.6-.5-.5-.3-1.4-.7-1.7-.2-.2 1.4.2 1.6-.2-.2-.2-1.1-1-1.6-1.4-.2.2 1.9-1.4 1.7-1.8-.2-.3-2.6.7-2.8.9-.4.2-.2-1.2-.5-1-.3.2-1.4 1.4-1.6 1.6-.2 0-.2-1.4-.5-1.4-.5 0-1.2 1.4-1.7 1.6-.3 0 .5-1.6.2-1.6-.4-.1-2.4 2.3-2.4 2.3"/><path id="XMLID_49_" class="st0" d="M23.2 55.9c0 .2 1-.3.9 0-.2.9-.5 1.9-.2 2.6.2.4.9-1.4 1-1 .2.5-1.4 3.1-.9 3.5.4 0 1.2-.9 1.4-1.2 0 0-.3 1.6-.2 2.4 0 0 .9-1.2.9-1 .3 1.2.9 2.3 1 2.3.2.9.2-3.1.4-2.3l.9.9c.3-.4-.2-.9-.3-1.4-.2-.5 1 0 1-.3l-.9-.9c-.2-.5-.3-1.4.9-1.6 3-.2.2 2.8 1 3.7.2.2 1.4-1.8 1.4-1.8.7.4-.2 1.2.3 1.8.2.2 1-1.4.7-1.4l.9 1.4.3-1.6c1 .9.7 1.7 1.4 2.8.2.2.2-1.6.4-1.7.3.4 2.6 1.7 2.6 1.4-.9-1.2-2.1-3-3.1-4-.2-.2.3 1.7 0 1.4-.5-.3-.9-2.1-1.7-2.8-.3-.2.2 1.9-.2 1.8-.3-.2-1.4-3.1-1.7-3.3-.2-.2.4 2.8.2 2.8-.3-.2-.9-4-3.5-4-.2-.2 0 1.4 0 1.6 0 .2-.4-.5-.5-.4 0 .2-.5 4.7-.7 4.7v-4.5s-.9 2.1-1 1.9c-.2 0 .9-3.1.9-3.1 0-.2-1.7 2.1-1.7 1.9.2-1.2 1.7-2.8 1.7-2.8-.8-1-3.4 1.8-3.6 2.2"/><path id="XMLID_48_" class="st0" d="M14.8 54.7c0 .5-.5.9-.3 1.4-.3.5.3 1-.2 1.6-.4 0-.9 0-1.1-.3 0-.9-.2-1.9.7-2.4.2-.2.7-1 1.1-.9l-.2.6z"/><path id="XMLID_47_" class="st0" d="M8.2 41.9v.4c-.2.5-1.7 1.2-2.1 1-.3-.2-.5-1-.5-1.8 0-.5 1.2-.7 1.7-.3.4.4.7.2.9.7"/><path id="XMLID_46_" class="st0" d="M13.6 43.7l-.2.4c-.2.5.9 1.9 1 1.9.3.2 1-.5 1.4-1.1.3-.5-.5-1.2-1.2-1.2-.3-.2-.5-.4-1 0"/><path id="XMLID_45_" class="st0" d="M6.6 46.3c-.4.4-.9.2-1.6.4-.3-.4-.5-.9-.5-1.4 0-.4.2-.7.3-1 .3-.2.7-.2.9 0 .4.4 1.1 1.3.9 2"/><path id="XMLID_44_" class="st0" d="M12.4 48.2c.2.5.7.5 1 1 .5 0 .9-.3 1.2-.7.3-.4.3-.7.3-1.1-.2-.3-.5-.5-.9-.5-.4.3-1.4.4-1.6 1.3"/><path id="XMLID_43_" class="st0" d="M13.4 45.4c.2.3.5.9 0 1.2-.2.2-1.2.9-1.6.7-.5-.2-.7-.7-1-1.2-.2-.4.5-1.1 1-1.2.2 0 1.6.3 1.6.5"/><path id="XMLID_42_" class="st0" d="M7.3 43.3c-.3.3-.9.5-.7 1 0 .3.5 1.6.9 1.6.5.2 1-.2 1.6-.3.3-.2.2-1-.2-1.6 0-.2-1.4-.7-1.6-.7"/><path id="XMLID_41_" class="st0" d="M5.4 49.8c-.2.2-.5.7-.2 1 0 .2.7.9.9.7.4 0 .7 0 .9-.5 0-.4-.2-.7-.5-1-.4-.4-.9-.2-1.1-.2"/><path id="XMLID_40_" class="st0" d="M11.2 51.7c.2.3.2.9-.3 1-.2 0-1 .2-1 0-.3-.2-.5-.5-.3-.9.2-.3.5-.5.9-.7.3.1.7.4.7.6"/><path id="XMLID_39_" class="st0" d="M14.5 41.6c-.3.4-.3.4-.7.4-.9.2-1.7-.5-1.7-.7 1.2-.7 2.3-1.6 3-3 .3-.2.4 2.2-.6 3.3"/><path id="XMLID_38_" class="st0" d="M15.9 43c-.4 0-.7-.2-.9-.5 0-.2 0-.5.2-.9.9 0 2.1 0 2.8-.9.1.2-.2 1.9-2.1 2.3"/><path id="XMLID_37_" class="st0" d="M8.7 39.8c.2.4.2.5.4.5.7.7 1.7.7 1.9.5-.7-1.2-1-2.6-.7-4-.2-.3-1.7 1.5-1.6 3"/><path id="XMLID_36_" class="st0" d="M6.8 40c.3.2.7.4 1 .2.2-.2.4-.5.4-.7-.7-.7-1.6-1.4-1.7-2.4-.2-.1-.9 1.5.3 2.9"/><path id="XMLID_35_" class="st0" d="M10.3 44.9c.3 0 1.6-.5 1.9-.9.3-.2.5-.7.5-1-.2-.3-1.2-.9-1.6-1-.3-.2-1.4-.4-1.6-.2-.3.2-.5.9-.5 1.2.2.5.7 1.6 1 1.7l.3.2z"/><path id="XMLID_34_" class="st0" d="M9.1 48.7c.3 0 1.4-.5 1.7-.9.3-.2.2-.7 0-.9 0-.3-.7-.9-1-.9-.3-.2-1-.2-1.2 0-.2.3-.7.6-.6 1 0 .3.5 1.4.9 1.6l.2.1z"/><path id="XMLID_33_" class="st0" d="M8.2 51.3c.3 0 1.2-.3 1.4-.5.3-.2.2-.7 0-.9 0-.2-.5-.5-.9-.7-.2 0-.9 0-1 .2-.2 0-.5.3-.4.7 0 .2.5 1.1.7 1.2h.2z"/><path id="XMLID_32_" class="st0" d="M7.5 53.6c.2 0 .9-.2 1-.5.2-.2.2-.4 0-.5 0-.2-.3-.5-.7-.5-.2-.2-.7-.2-.9 0-.2 0-.3.4-.3.5.2.3.5.9.7 1h.2z"/><path id="XMLID_31_" class="st0" d="M5.4 47.2c-.4.2-.7.9-.4 1.2 0 .4 1 .9 1.4.7.5 0 1.2-.2 1.4-.7 0-.5-.3-1-.7-1.2-.5-.4-1.5-.2-1.7 0"/><path id="XMLID_30_" class="st0" d="M12.7 49.4c.2.5.2 1.2-.4 1.4-.2 0-1.4 0-1.6-.4-.3-.3-.9-.9-.5-1.4.2-.5.7-.5 1.2-.5.6.1 1.3.8 1.3.9"/><path id="XMLID_29_" class="st0" d="M32.1 12.8v.2c.2.5 1.7.9 2.1.7.2-.2.3-.9.2-1.4 0-.5-1-.5-1.6-.2-.3.3-.5.2-.7.7"/><path id="XMLID_28_" class="st0" d="M27.6 14.5s0 .2.2.3c.2.3-.7 1.6-.9 1.6-.4.2-1-.2-1.4-.7-.3-.3.4-1 1-1 .4-.2.5-.3 1.1-.2"/><path id="XMLID_27_" class="st0" d="M33.9 16.1c.5.3.9 0 1.4.2.4-.2.5-.7.5-1.2 0-.2-.2-.5-.5-.7-.2-.2-.5-.2-.7 0-.4.5-.9 1.2-.7 1.7"/><path id="XMLID_26_" class="st0" d="M28.8 18c0 .5-.5.7-.9 1-.2.2-.7-.2-1-.5-.2-.2-.2-.5-.4-.9.2-.2.4-.4.7-.4.5.3 1.4.3 1.6.8"/><path id="XMLID_25_" class="st0" d="M27.7 15.9c0 .4-.3.7 0 1.1.2.2 1 .5 1.4.3.5-.2.7-.7.9-1 .2-.2-.5-.7-.9-.9-.1 0-1.4.4-1.4.5"/><path id="XMLID_24_" class="st0" d="M33 13.8c.3.2.9.3.9.7 0 .3-.3 1.4-.7 1.4-.5.2-1 0-1.6-.2-.3 0-.2-.9 0-1.2 0-.1 1.2-.7 1.4-.7"/><path id="XMLID_23_" class="st0" d="M35.2 18.9c.2.2.5.5.4.9-.2 0-.7.7-.9.5-.2 0-.7 0-.7-.4-.2-.4 0-.7.3-.9.3-.3.8-.1.9-.1"/><path id="XMLID_22_" class="st0" d="M30.2 20.8c-.2.4 0 .7.4.9.2 0 1 0 1-.2.2-.2.5-.4.2-.7-.2-.3-.5-.3-.9-.3-.4-.2-.7.3-.7.3"/><path id="XMLID_21_" class="st0" d="M26.5 13c.4.2.4.4.7.4.7-.2 1.4-.7 1.4-.9-1-.3-2.1-1-2.8-2.1-.3-.1-.3 1.7.7 2.6"/><path id="XMLID_20_" class="st0" d="M25.3 14.2c.3 0 .7-.2.9-.3 0-.4 0-.5-.2-.7-.9 0-1.9 0-2.6-.5-.2-.1.2 1.3 1.9 1.5"/><path id="XMLID_19_" class="st0" d="M31.4 11.1c0 .3 0 .3-.2.5-.7.5-1.6.7-1.7.5.5-1 .7-2.3.4-3.3.1-.4 1.7 1 1.5 2.3"/><path id="XMLID_18_" class="st0" d="M33.3 11.2c-.3 0-.7.2-1 .2-.2-.2-.3-.3-.3-.7.7-.5 1.4-1.2 1.4-1.9.1-.2 1 1-.1 2.4"/><path id="XMLID_17_" class="st0" d="M30.5 15.2c-.4.2-1.6-.2-1.9-.3-.3-.3-.5-.7-.5-.9.2-.4.9-.9 1.4-1.1.4-.2 1.2-.3 1.4-.2.2 0 .5.5.5.9s-.5 1.4-.7 1.6h-.2z"/><path id="XMLID_16_" class="st0" d="M31.9 18.2c-.3.2-1.4-.2-1.8-.5-.3-.2-.1-.5-.1-.7.2-.2.7-.7.9-.7.3-.2 1-.2 1.2-.2.3.2.7.3.5.7 0 .4-.3 1.2-.7 1.4z"/><path id="XMLID_15_" class="st0" d="M32.8 20.3c-.2 0-1-.2-1.2-.4-.3-.2-.2-.4-.2-.5 0-.2.5-.5.7-.7.3-.2.9-.2 1 0 .2 0 .5.2.5.5 0 .2-.5.9-.7 1h-.1z"/><path id="XMLID_14_" class="st0" d="M33.7 22c-.2 0-.9-.2-1.1-.2-.2-.2 0-.3 0-.5s.4-.5.5-.5c.2-.2.7-.2.9 0 .2 0 .3.2.3.4s-.3.7-.5.9h-.1z"/><path id="XMLID_13_" class="st0" d="M35.1 16.8c.2 0 .7.5.5.9-.2.2-1 .9-1.4.7-.5 0-1.1-.2-1.2-.5-.2-.3.2-.7.5-1.1.4-.3 1.4-.2 1.6 0"/><path id="XMLID_12_" class="st0" d="M28.4 19.2c0 .3 0 .9.5 1 .2 0 1.2-.2 1.4-.4.3-.4.7-.9.5-1.2-.3-.3-.9-.5-1.2-.5-.5.3-1 1-1.2 1.1"/><path id="XMLID_11_" class="st0" d="M30.4 27.8c-.2 0-1-2.3-1.2-2.3-.2 0-2.3 2.6-1.6 4.9 0 0 .9 1.4 1.7 1 .9-.7-.5-3.8-.4-3.8.4-.2 1.4 2.8 1.6 2.6.2 0 .9-2.6 1-2.8 0 0-.3 2.3-.2 2.3.2 0 1.2-2.4 1.4-2.4.2 0-.7 2.4-.5 2.3 1.6-1.2 2.4-3 2.6-3.1.2 0-1.2 2.6-1 2.6.5-.2 2.6-2.1 2.8-2.1l-1.9 1.9c.5-.2 4-1.9 4-1.9 0 .2-3.1 1.9-3.8 2.1 0 .2 2.3-.2 3.5-.2 0 0-4.2.7-4.5.9-.2 0 3.5.2 3.3.4-.2.2-6.6 0-6.8 1.9-.2 1.9 6.5 1.4 8.2 1.4-.5 0-5.1 1.2-5.2 1.4 0 0 4.7-.7 6.1 0 .2 0-4.4.5-4.2.5 2.3.5 3.7 1.4 3.7 1.6 0 .2-3.3-1.1-3.8-.9-.2.2 2.8 1.7 4 3.3 0 0-3-1.6-2.8-1.6 1.6 1.9 2.3 4 2.4 4.9 0 .2 0 .7.2.5 0 0 .5-1.2.5-2.8 0-.4 1 .3 1 .2-.2-.7-.9-1.9-1.2-2.8.5 0 1.6 1.4 1.6 1.2 0-.2-1.4-3.1-1.4-3.3.2-.4 2.4 0 2.4-.4-.2-.3-3-1.2-3-1.4.2-.2 1.7-1 2.1-1.6-.3-.5-6.1 1.4-6.8.2-1.2-2.6 6.3-.5 6.3-.7-.7-.7-1.7-1.9-2.1-2.3-.2-.2 1.4.2 1.7-.2-.2-.2-1-1.1-1.6-1.6-.2.2 2.3-1.4 2.1-1.7-.2-.4-2.8.5-3.1.7-.4.2-.5-2.6-.9-2.4-.3.2-.7 2.6-.9 2.6-.4.2-.4-2.8-.7-2.8-.5-.2-1 3.1-1.4 3.1-.2 0 0-2.1-.2-2.4 0-.2-1.4 1.9-1.4 1.9-.2-.7-.2-1.9-.3-1.9-.3 0-1.2 3-1.3 3"/><path id="XMLID_10_" class="st0" d="M23.4 34.4c-.2.2 1.2-.2 1 0-.5 1-.9 2.1-.7 2.8.2.2 1.2-1.2 1.2-1 .2.4-1.4 2.1-.9 3.7.2 0 1-.7 1.2-1 0 0-.9 1.7-.9 2.4 0 .2 1.6-1 1.6-1v3.5c.3.7 1.2-3.3 1.4-3.1.2 0 1.4 2.3 1.4 2.3.4-.3 0-1.7-.2-2.4-.2-.5 1.7.9 1.9.5 0-.2-1.9-1.9-2.1-2.1-.5-.7-.5-1.9 1-1.9 2.3.2-.2 4.4.7 5.4.2.2 1.8-2.8 1.8-2.8.5.5-.5 1.2 0 2.1.2 0 1.2-1.6 1-1.6l.7 1.6.5-1.6c.9 1 .5 1.9 1 3.1.4.2.5-1.7.5-1.9.3.5 2.8 2.3 3 2.1-.9-1.6-2.3-4.5-3.1-5.8-.2-.2.2 3.3-.2 3-.3-.5-.2-3.1-1.2-4-.2-.2-.4 3-.5 2.6-.4-.2-.2-3-.5-3.3-.3-.2-.3 3-.5 3.1-.2-.2.2-2.1-.7-3.7 0 0-.5 4.5-.9 4.4.2-2.6.3-3.5-.2-4.9-.5-.9-.7-.9-1.6-1-2.4 0-2.6 4.4-.4 6.3l-1-.9c0 .5.3 1.6.2 1.6-.2 0-.9-3.3-1-3.5 0 .3-.3 3.7-.5 3.7s0-2.3.4-4.2c0 0-1.2 3-1.2 2.8.2-1 1.9-5.6 1.9-5.8 0-.2-2.4 4.4-2.6 4.4-.2-.2 2.3-4.9 2.3-5.1 0 0-2.3 2.3-2.3 2.1.2-.5.9-1.2 1.2-1.7.2 0-1.6.5-1.6.5 0-.2 2.8-1.7 2.8-1.7-1.8-1.5-3.7 1.7-3.9 2"/><path id="XMLID_4_" class="st0" d="M22.5 40.9v2.4c-.2-.7-.2-1.4-.2-2.3 0-.1.2-.1.2-.1m0 21.3c-.2 0-.3-.2-.5-.4v-7.3c0-.2-.3-.4-.7-.4-.3-.2-1.4 1.2-1.4 1.2s-.3.4-.3.5v4.5c-.2-.3-.3-.5-.5-.7-.9-1-.5-2.4-.3-3.7.3-.7.7-1.6 1.4-2.1.4-.2 1-.9 2.4-1.4v-1h-.3c0-.2 0-.3.3-.5V49c-.2.2-.3.4-.5.4V33.2c0-.2-.5-.5-.7-.2-1.2 1.2-1.7 2.6-1.7 3.8v14.8c-1.1 1.2-2.1 2.4-2.8 3.7-.2.7-.5 1.4-.5 2.3.2.3.9.2.9.7 0 .4.2.7 0 .9-1-.3-1.7-1.4-2.8-1.2-.7 0-1.1.2-1.4.5-.7.5-.7 1.2-.5 1.7.4.7.9 1.4 1.7.9.5-.4 1-.7 1-1.4-.2-.3-.5-.3-.9-.3-.2 0-.2.2-.2.3-.2.2-.4.4-.5.4-.4-.2 0-.5 0-.7 0-.3.3-.5.5-.7.9 0 1.2.7 1.9.9.9.3.7 1.2 1.4 1.7s1.4 1 2.1 1.6v3.8h-.2c-.9.5-1.4.7-1.6 1.6-.2.9.3 1.6.7 2.1.2.2.7 1 .7.9.2-.3-.2-1.4-.2-1.7 0-.3.2-.7.5-1v6.5H22v-7.2c.2-.2.4-.2.5-.2v-1.9c-.2 0-.3 0-.5.2v-1.4c.2.2.4.2.5.4v-2.8zm0-11.2c.5 0 .9-.5 1.2-.7.3-.3.5-.9 1.1-1.2.5-1.2.5-3 .2-4s-2.1-4-2.4-4.2V43.6c0 .2.9.7 1 2.6l-.2 1.6c-.2.5-.5.9-.9 1.2v2zm0 1.6c.7-.2 1.6-.4 2.6-.4 0-.2.3-.5.2-.5-1.1-.5-1.8-.5-2.8-.2v1.1zm2.8 13.1c-.2-1.2-.9-2.1-1.8-3-.4-.2-.7-.4-1-.5v2.6c.2.2.4.4.5.4 0 .2-.2.3-.2.3-.2 0-.4 0-.4.2v1.9c.4-.2.9-.2.9-.2.2 0-.5.7-.5.9-.4 1.9-.4 4.2 0 6.1.2.2.3.3.7.3.4.4.9-.3 1 .4.2.2.5.2.5 0 .2-.9-.2-1.7-.3-2.8 0 0-.2-2.6 0-3.8.4-1.1.6-1.8.6-2.8z"/><path id="XMLID_3_" class="st0" d="M26 29.7c-.5-.3-1-.7-1.9-.7.7-1.4.7-4-.3-5.2l-1.2-2.1c-.5.2 0 1.9 0 2.4 0 .3.2.5.2.7.4 1.6.7 2.3.2 3.7l-.9.9V15.8c0-.3-.7 0-.7 0L20 18.2s-.3.7-.3 1v12c-.7.9-1.6 2.3-1.7 4.5-.4-.2-.5-.3-1-.3-.4-.2-.7-.2-1.2-.2-2.4.4-2.6 1-3.3 1.9-.4.3.2.7.2 1 0 .2.9-.3 1-.3.3-.9 1-1 1.9-1.2.7-.2 1.4.2 2.1.3.7.2.4.9.7 1.2.2.3.5 2.4.9 2.6.5.3 0-1.9.2-2.3-.2-.5-.2-1-.2-1.7-.2-2.3 1-4.5 3-5.9 2.1-1 3.7.2 4.2 0l.7-.2c-.3.2-1-.7-1.2-.9"/><path id="XMLID_2_" class="st0" d="M23.9 8.4c0-1.2-.2-2.4-.7-3.3-.3-.2-.5-1.6-.9-1.2 0 .5-.2 1.7.2 2.6.4 1.4 0 3-.5 4.4V3c0-.5-.5-1.4-.5-1.4h-1.4c-.2 0-.5.7-.5 1.2v11.5l.2.2c-.9 1.2-1.6 2.3-1.6 3.1-.7-.2-1.2-.4-1.9-.4-.5.2-1.2.4-1.7.7-.5-.2-.9 0-1 .5 0 .2.5.5.7.5 1 .5 3.3-2.1 4 1.2.4.3.5.3.9.2-.7-3.1 3-6.6 3.8-8.9.2-.2.2-.3.3-.5.9-1.2 1.4-1.2 1.4-1.4 2.3-1.7 3-.2 3.5.9.2.2.2-.2.3-.2.1-.4-.8-4-4.6-1.8"/></svg>