<svg id="Warstwa_1" xmlns="http://www.w3.org/2000/svg" viewBox="0 0 69.3 134.7"><style>.st0{fill-rule:evenodd;clip-rule:evenodd}</style><path class="st0" d="M51.5 95.3c.3-.1.7-.1 1-.2 0 .2.1.4.1.5-.3 1 0 2.1-.4 3.1-.2.4.2 1 .3 1.6-.8.8-.7 1.2.1 2.7-.3 0-.5 0-.8.1-.3.7.4 1.2.6 1.9l-.6.3c-.5.9.4 1.7.4 2.7-.3 0-.5-.1-.8-.1-.1-.9-.5-1.6-1.2-2.3-.3-.3-.6-.5-.6-1 .2-.2.4-.3.7-.1.2.2.4.3.8.6 0-.4 0-.8-.1-.9-.7-.2-.9-1-1.5-1.4-.6-.4-1.1-.9-1.6-1.3-.4-.3-.8-.3-1.3.1.2.3.3.6.5.7.7.6 1.5 1.1 2.2 1.6.2.1.2.4.3.6-.4.1-.9 0-1.2.5-.1.9.7.9 1.2 1.1-.2.4-.3.7-.4 1-.8-.4-.8-.4-1.5-.2.6 1 .6 1 2.1.7-.1-.3-.1-.7-.2-1.3.5.3.8.5 1 .6.3.2.5.5.8.8.1.4.2.7.3 1.1.1.5-.2.7-.6.7l-.6-1.5c-.7.2-1.2.3-2 .5.5.3.7.4 1 .6-.5.4.2.8.1 1.2-.3.2-.6.4-1 .6 0 .1.1.3.1.4.7.3.6.8.4 1.5-.6-.5-1.1-1.1-1.9-.4-.1.4.1.7.4 1 .5.4.3.8.2 1.2-.5.1-.9-.9-1.5-.1.1.2.3.5.2.7 0 .5.1.9.6 1.2.3.2.4.5.1.9-.6-.2-1.1-.5-1.1-1.2 0-.6-.2-.9-.5-1.3-.3-.3-.6-.3-.9 0 0 .6 1.1.7.6 1.4.4.4.7.9 1.2 1.4-.7.3-1.2 1.1-2 .6-.1.3-.1.5-.2.8-.3-.2-.6-.3-.8-.5-.2-.1-.5-.3-.8-.5 0 .4 0 .7-.1 1.1-.3-.1-.5-.3-.8-.4-.2-.1-.4-.3-.7-.4-.2.2-.4.5-.7.6-.2.1-.5-.2-.8-.3-.3-.2-.6-.3-.9-.5 0 .3-.1.6-.1.9-.5-.2-1-.3-1.5-.5-.1.2-.3.5-.4.8.8.5 1.5.9 2.1 1.3.2.4-.1.5-.3.6-.1.1-.1.3-.1.5-.1 0-.2.1-.3.1-.4-.2-.8-.3-1.2-.5-.7-.4-1.4-.8-2.1-1.1-.7-.3-1.4-.4-2.3-.7 1 .8 1.9 1.3 2.8 1.8.9.6 1.7 1.1 2.5 1.6.6-.2 1-.4 1.5-.5v-.6c.7 0 1.4.2 2 .4.4.1.8.3 1.2-.3.1-.2.7-.1 1.1-.2.5.4 1 .6 1.6.6.3.1.5.2.8.3 0 .2.1.5 0 .7 0 .1-.4.2-.5.1-.7-.2-1.3-.5-2-.7-1 1.2-2 .1-3 0-.3.3-.6.5-.9.8.1.3.3.6.4.8-.2 0-.3.1-.3.1-.5-.3-1.1-.7-1.7-1.1.3.6.3.6.8.9.4.2.8.4.9.9-.7.3-1.1-.2-1.6-.5s-.9-.6-1.3-.9c-.4.2-.3.4-.1.6.6.4 1.3.8 1.9 1.2.4.3.9.6 1.2 1.3-.3 0-.6.1-.7 0-.3-.2-.6-.5-1-.9v.9c-.4-.2-.8-.3-1.1-.5-.6.7.5.9.3 1.5h-1.1c0 .4.1.7.1 1.1-.2.1-.4.3-.6.3-.9 0-1.8.1-2.7 0-1.7-.1-3.3-.3-5-.4h-.3c-.5-.2-1 .2-1.5 0-.4-.2-.8-.5-1.4-.7 0-.2.1-.4.1-.7-.2-.2-.5-.5-.9-.8.7-.5 1.2.3 1.8 0-.2-1-1.7-.8-2-2 .7.2 1.2.4 1.7.6 0-.1.1-.1.1-.2-.6-.3-1.3-.6-1.9-.9.4-1 1.1 0 1.6-.4-.1-.3-.3-.6-.4-1-1.2 0-2.3 0-3.4.2-.4.1-.8.1-1.2.1 0-.2 0-.4.1-.6 1-.2 2 0 2.9-.4-.3-.6-1.1 0-1.3-.8.6.1 1.2.2 1.7.3.1 0 .3.1.3.3.2.6.5.3.7.3.2-.3.3-.5.4-.8.1-.3 0-.6 0-.9.4.1.8.1 1.2.2-.5-.4-1.2-.6-1-1.3.3.1.7.2 1 .2 0 0 .1-.1.3-.2-.5 0-.8-.5-1.3-.4v.5c-.9.1-1.5-.7-2.2-1-.3.3-.7.5-1.1.2-.4-.3-.8-.5-1.2-.7h-.3c-.1.2-.2.3-.3.5-.2-.1-.5-.2-.7-.2 0 .3-.1.6-.1.9-.1 0-.2.1-.2 0-.2-.1-.4-.2-.6-.4-.1-.2-.2-.3-.3-.5-.2-.4-.4-.9-.7-1.4.4-.1.7-.1 1.1-.2-.4-.4-.6-.9-.4-1.4.1-.2.1-.6 0-.7-.6-.7-.2-1.4-.3-2.1-.1-1.7.3-3.4.2-5.1-.1-1.7-.3-3.4-.5-5.1-.1-.8-.2-1.5.2-2.3.3-.6 0-1.4-.1-2.2 0-.4-.1-.8-.2-1.2 0-.6-.2-1.1-.7-1.6-.1-.1-.2-.3-.4-.6.7-.3 1.3-.4 1.8.2.9 1.2 1.7 2.4 2.6 3.6.1.1.2.3.1.4-.6.7.2 1.2.2 1.8-.2.2-.4.4-.7.6.2.7.8 1.3.8 2.3-1.2-.5-1.1-1.8-2.1-2.4.1.3.1.6.2.8.5.9 1 1.7 1.5 2.6.2.3.3.6 0 1-.8-.1-.6-1.1-1.2-1.3-.2.6.2.9.4 1.4.5 1 1.1 2.1 1.7 3.1.3.5.5 1-.2 1.3.1.8-1 1.4-.5 2.3 0 .1-.2.3-.3.5-.8-.4-.5-1.3-1.1-1.7-.2.3-.3.6-.5.7-.3.2-.5.4-.6.8 0 .4.2.6.4.9l.6.6c-.2-.7-.4-1.2-.6-1.9.4.2.7.3.8.4.6.8.9 1.6 1.2 2.7-.3 0-.5-.1-.7-.1 0 .1-.1.2-.1.2.1.4.4.7.3 1.3-.1.2.4.6.7.9.2-.2.2-.3.3-.4.1-.1.2-.2.4-.3.4.2.8.5 1.3.8.1-.3.2-.6.3-.7.7.1 1.2.2 1.6.3.4.1.8.2 1.3.4-.1-.7-.8-.7-.9-.9 0-.8-.1-1.5-.1-2.1.9 0 .7 1.1 1.2 1.3.4-.2.3-.5.1-.7-.6-1.1-1.2-2.1-1.8-3.2-.1-.2-.1-.4-.1-.9.5.4.9.7 1.2.9.1-.1.1-.1.1-.2.1-.7-.3-1.3-.6-1.9-.2-.3-.4-.6-.5-.9-.1-.1 0-.4.1-.5 0-.1.3-.1.4 0 .2 0 .3.2.5.3.1-1-.7-1.5-.9-2.3.3-.4.6-.9.9-1.4-.5-.6-1-1.2-1.6-1.8.4-.3.8-.6 1.2-1 .1-.5-1.1-1.1.1-1.7-.4-.2-.8-.3-1.2-.5 0-.2.1-.4 0-.6-.1-.2-.2-.4-.4-.6-1.5-2-2.9-3.9-4.4-5.9-.1-.1-.2-.1-.3-.2.1.4.1.8.2 1.1v1.1c-1.8-1-2.5-2.8-3.8-4 .1-.5.2-1 .3-1.6-.3.1-.5.2-.7.2-.8-1-.5-2.6-1.8-3.2-.1-.6.2-1-.2-1.5-.4-.6-.7-1.4-1.1-2.1-.1-.2 0-.5-.1-.7-.1-.3-.2-.6-.4-.7-.8-.3-1.1-1-1.4-1.7-.4-.9-.7-1.9-1.1-2.9-.5-1.3-.9-2.7-1.5-4-.4-.8-.6-1.6-.9-2.5-.4-1.2-.6-2.5-1-3.7-.1-.3-.3-.6-.4-.9.8-.7.7-1.1.5-1.5-.1-.2-.1-.5-.1-.7 1 1.1 1.4 2.5 2.5 3.9-.3-1.3-.9-2.1-1.3-3-.3-.9-.9-1.7-.9-2.8.3.4.6.9 1 1.4.1-.7.1-.7-.9-3-.4-.8-.7-1.8-1.1-2.7.1-.1.3-.2.5-.3 0-.9-.8-1.6-.5-2.7.5.3.6.7.7 1.1.1.4.3.7.5 1.1.2-.1.3-.2.6-.3-.3-.7-.7-1.4-1-2.1-.3-.7-1-1.2-.9-2.2.9.3.9 1.3 1.7 1.7 0-.3.1-.6 0-.7-.3-.8-.7-1.5-1.1-2.2-.1-.3-.2-.6-.2-1 .2 0 .5.1.5.3.3.6.6 1.1.9 1.7.2.3.4.7.6 1.1.2-1 .2-1 0-1.5-.6-1.2-1.2-2.4-1.7-3.8-.1-.4-.5-.8-.8-1.2-.2-.3-.3-.6.3-.7.7.9.9 2.2 1.9 3 .1 0 .2 0 .3-.1-.2-1-.9-1.8-1.3-2.7-.3-.9-1-1.6-1-2.7.3.3.7.6 1.1 1 .1-.3.3-.5.2-.6-.2-.6-.5-1.2-.8-1.7-.2-.4-.5-.8-.3-1.4.3.3.6.5 1.1.9-.1-1.2-.5-2.1-.9-2.9-.1-.2-.2-.3-.3-.5 0-.1.1-.3.1-.4.1-.1.3 0 .4.1.1.1.2.3.3.5.2.4.4.8.7 1.1-.2-1.1-.7-2.1-1.1-3.1-.1-.3-.1-.4 0-.7.4-.5.4-1.2.2-1.8-.1-.2-.1-.4-.1-.6 0-.8-.2-1.4-.8-2-.3-.3-.1-.6.3-.9-.5-.6-1-1.3-1.7-2.2.7.2 1.1.3 1.5.4.1-1.1-1.1-1.4-1.4-2.4.4 0 .7-.1 1.1-.1v-.3c-.5-.4-.9-.8-1.5-1.4.9 0 1.4 0 1.9.6.3.4.6.8 1 1.1 1 .7 1.8 1.7 2.5 2.7.3.5.7.8 1.2.7 1-.2 1.9.4 2.9.1.1 0 .4.1.5.3.5.5.9 1 1.3 1.6.1.2.1.4.1.7 0 .1-.1.3 0 .4.7.8.5 1.8.4 2.7.7.7 1.4 1.4 2.2 2.1.2-.1.5-.2.8-.4-.1.8.2 1.5.8 2.1.8.7 1.5 1.5 2.3 2.3.6.6 1.4 1 2.3 1.2-.7-1-1.6-1.8-2.5-2.1-.7-1.5-1.8-2.5-2.9-3.4-.5-.5-1-1.1-1.5-1.7.1-.2.2-.3.3-.4.4-.4.4-.9 0-1.3l-1.5-1.8c-.3-.3-.5-.6-.8-1 .5-.4 1.1.1 1.5-.5.2-.3 1-.1 1.5-.6-.1-.2-.1-.5-.2-.7.1-.1.2-.2.2-.1.5.2.9.1 1.3-.3s.8-.7 1.2-1c.1-.1.4 0 .7 0-.5.8-1.5 1-1.7 1.9 1.7-.1 1.9-.3 1.9-1.3.3-.1.6-.2 1.2-.3-1.5-1.3-3.1-2.1-4.7-2.8.1-.6.4-.6.7-.4.6.5 1.4.7 2.1 1.1.2.1.3.1.5.1.1-.4.2-.5.2-.5-.3-.2-.6-.3-.9-.5l.3-.3c.4.1.8.1 1.1.2.2 0 .5.1.6.2 1.8 1.1 3.6 2.1 5.5 3.2.1.1.3.2.4.2 1.2 0 2.2.7 3.1 1.4.1.1.3 0 .6.1-.5-.6-.9-1-1.4-1.3-2.2-1.3-4.4-2.6-6.5-4-.7-.5-1.4-1-2-1.7.2-.1.3-.2.3-.1l5.4 3.3c1.3.8 2.5 1.5 3.8 2.3.2.1.3.4.4.6.7.9 1.1 1.1 2.2 1.3.3 0 .6.1.9.1H36c-.3-.4-.5-.7-.8-1.1.3 0 .6-.1.8 0 1.7.7 3.4 1.6 4.9 2.6.2.1.3.2.5.2.3-.3 0-.5-.1-.7-.6-.5-1.2-1-1.9-1.4-.9-.6-1.9-1.1-2.8-1.6-.5-.3-1.1-.5-1.6.2-.4-.3-.7-.5-1-.7 0-.2 0-.3.1-.3.3-.2.7-.4 1.1-.6-.3-.2-.6-.5-.9-.7-.3-.6-.8-1.1-1.4-1.5-.9-.5-1.6-1.3-2.6-1.7-.2.3-.5.6-.7.9h-.2c-.7-.3-1.4-.7-2.1-1-.1-.1-.4.1-.5.2-.1.1 0 .3 0 .4.4.3.8.7 1.3 1 1.8 1 3.5 2.2 5.1 3.4.5.4 1.1.8 1.3 1.6-.3-.1-.5 0-.6-.1-2.6-1.9-5.3-3.7-7.9-5.6-.2-.2-.5-.3-.8-.3-.8-.2-1.6-.5-2.4-.7.1-.4.1-.7.2-1 .3-.2.8.2 1-.4h1.2c.3 0 .6.1.9-.2.1-.1.4-.1.7-.1.9.1 1.8.1 2.8.2 0-.4-.2-.6-.6-.7-.6-.1-1.2-.2-2.1-.4.4-.3.6-.4.7-.4.6 0 1.3 0 2 .1.2-.7.9-.8 1.5-1.1.6-.3 1.1 0 1.7.2 1.2.4 2.3.7 3.5 1.1.3.5.4.6.8.4.1 0 .1-.2.1-.2.1-.1.2-.1.3-.2 1.1.3 2.3.6 3.4.9 0-.1 0-.1.1-.2-.4-.3-.8-.5-1.4-.9 1.1-.2 1.8.4 2.7.4l.3-.6c.4.1.8.2 1.3.2.8-.7 1.4 0 2.1.3.8.4 1.5.5 2.5.3-.5-.5-1-.7-1.5-.7-1 0-1.9-.4-2.7-1-.1-.1-.2-.3-.4-.4.7-.5 1.1.3 1.7.2.2-.3.4-.7.6-1.2-.5-.4-1.2-.5-2.1-.8.3-.1.4-.3.5-.3.2 0 .4.1.6.1 1.2.5 2.4.7 3.7.6 1.2.7 2.4 1.4 3.7 2.1.1 0 .3-.1.6-.3-1.4-1-2.8-1.4-4.3-1.7-.5-.5-1-.9-1.5-1.4.1-.2.3-.4.5-.6 1.1 0 2 .7 2.9 1.3.1-.2.2-.4.4-.7-1.4-.6-2.8-1.1-4.2-1.7 0-.3.2-.3.5-.3.6.2 1.3.4 1.8.5-.8-.8-1.3-1-3.6-1.4-.4-.5-.9-.9-1.3-1.3-.8.3-1.6.6-2.3.8h-.4c-.2-.2-.3-.4-.5-.6-.9.5-1.9 0-2.8.3-.1 0-.3-.2-.6-.4.4-.3.7-.4.9-.6-.1-.1-.1-.3-.2-.3-.4-.2-.7-.5-1.2-.8.2-.1.3-.3.5-.3.4 0 .8 0 1.1.2 1 .6 1.9.6 2.9.2.2-.1.5-.1.7 0 .4.1.8.3 1.2.5.7.4 1.4.7 2.2.6.5 0 1.1.3 1.6.6.6.4 1.2.6 1.9.4.8-.2 1.5.1 2.4.8-1-.1-1.8-.2-2.6-.3v.1c.2.1.4.1.7.2v.7c.1 0 .2.1.3.1 1.1-.6 2.3-.3 3.4-.2.6.1 1.2.3 1.8.4.1.3.1.5.2.8v.9c.3-.2.5-.4.7-.6-.4-.5-.6-.8-.9-1.1-.5-.3-.9-.8-1.4-1-1.2-.6-2.5-1.1-3.8-1.5-1.9-.7-3.9-1.4-5.8-2.1-2.3-.8-4.5-1.2-6.9-.4-1 .3-2.1.3-3.2.5-.9-.3-1.7-1.2-3-1 2.1 1.4 4.3 1.8 6.6 2.3-.2.6-.5 1.2-.7 1.8 0 .4.6.6.2 1-.1 0-.2.1-.3 0-.3-.4-.7-.7-.9-1.1-.6-1.4-.7-1.5-2.2-1 .9.3 1.4 1 1.7 1.8-.7.1-.7.1-1-.8-.6-.1-1.3-.2-2-.3-.2 0-.4-.1-.6-.1-1.1.6-2-.1-2.9-.4-.4-.1-.8-.3-1.3-.5v-.7c-.5-.2-.9-.5-1.5-.7-.6.5-1.2.5-1.9.2-.5-.2-1-.1-1.4-.2-.8.6-.5 2-1.7 2.4-.9-.4-1.8-.8-2.9-.4h-.3c-1.2-.5-2.2 0-3.1.8-.7.6-1.4 1.1-2.3 1.3-.5.2-.9.3-1.4.3-.8.1-1.4.3-2 .7-.5.3-1 .7-1.4 1-.7.5-1.5.9-1.7 1.8h-1c.9-1.9 2.3-3.1 4.3-3.6.8-.2 1.7-.3 2.4-.5.5-.2 1-.6 1.6-.9-.3-.2-.5-.3-.8-.4.7-.2 1.4-.4 2-.7.5-.2 1-.5 1.4-.8.7-.5 1.4-.8 2.3-.7.8 0 1.6-.2 2.5-.3.6-1 1.7-.7 2.6-1.2.8-.5 1.8-.7 2.7-1 1.8-.7 3.6-.9 5.4-.1.3.1.7.2 1 .4 1.7 1.1 3.4.7 5.1.2 1.8-.5 3.5-.3 5.2.3.4.1.7.2 1.1.3.3.1.6 0 .9.2.8.5 1.8.6 2.7.8.2 0 .4.1.5.2.5.7 1.3.7 2 .9.6.2 1.2.4 1.8.7.4.1.8.4 1.2.4 1.3-.1 2 .7 2.6 1.6 1.1 1.5 2.3 2.6 4.1 3.2.6.2 1.1.6 1.7.9.4.2.7.5.7 1.1-.6 0-.9-.5-1.4-.7-.5-.1-1-.4-1.5-.5.7.8 1.9 1 2.4 2.1.4-.2.7-.4 1-.4.3 0 .6.2.9.2.1.7-.4.9-.8 1.1-1 .6-2.2.9-3.4.6-.2.2-.4.5-.6.5-.4 0-.8-.2-1.4-.4-.8.8-2 .5-3 .5-.4 0-.7-.2-1.1.1-.2.1-.5.1-.7 0-.3-.1-.5-.2-.7.2 0 .1-.2.2-.2.2-.8-.3-1.4.3-2 .3-.7 0-1.5-.1-2.2-.2-.6-.2-.9.3-1.4.5-.5-.1-1-.5-1.7-.1-.3.1-.8 0-1.1-.2-.5-.2-.9-.3-1.4-.1-1 .4-2.1.4-3.2.4h-1c-.7.1-1.3-.1-1.7-.6-.5-.5-1.1-.8-1.8-.9-.6-.1-1.2-.3-1.9-.4.3.8 1 .6 1.5.8.5.2 1 .2 1.6.3.2.8-.7.8-.7 1.3-.7.2-1.4-.4-2 .3.2.1.4.3.6.2.7-.1 1.2-.1 1.2.8.8.7 1.3 1.6 2.3 2 1.4.7 2.8 1.6 4.3 2.3.2.1.4.3.6.4-.2.2-.3.4-.5.6.2.1.3.2.5.3.2-.4.4-.7.6-1-.3-.8-1.2-1.1-2-1.8.4 0 .7-.1.8 0 .4.2.8.4 1.1.7.4.3.9.4 1.4 0-.8-1.1-2.1-1.3-3.1-1.9-1-.6-2.1-1.1-3.2-2 1.3.1 2.1.7 2.9 1.2.8.4 1.6.9 2.5 1.4.8.5 1.7 1 2.5 1.5.3-.3.2-.5 0-.6-.4-.3-.8-.5-1.2-.8-1.2-.8-2.4-1.5-3.6-2.3 0-.4.2-.5.5-.4.5.2.9.3 1.3.6.7.4 1.4.8 2 1.3.6.5 1.3.6 2.1.3-.6-.5-1.3-.8-1.9-1.1-.6-.3-1.3-.6-2.1-.9.2-.2.4-.4.5-.4.7.2 1.4.5 2.1.8.5.2.9.6 1.6.4-.4-.5-.7-.9-1-1.4.2-.2.4-.5.7-.7 1.4.3 2.9-.3 4.3-.1.1 0 .2.2.5.3-.3.2-.5.4-.8.6v.9c.4.3 1.1-.1 1.3.6-.4.1-.7.3-1.2.5.3.1.4.2.6.2.1.4-.3.5-.5.9H52c0 .3.1.6.2.8-.6-.1-1.2-.2-1.9.3.9.5 1.4.2 1.8-.4h.1c1 .6 2.1.5 3.3.1 0-.3 0-.7.1-1-.6-.6-1.5-.5-2.1-1.1.8-.7 1.4.1 2-.1.8-.3.9.9 1.7.6.1-.2.2-.5.3-.8.3-.1.6-.2 1-.2 0-.1-.1-.3-.1-.4-.2-.3-.4-.5-.6-.8.6-.3 1-.3 1.5-.2.1.2.1.6.3.7.9.4 1.5 1.3 2.6 1.4.4.1.8.6 1.2.9.1.1.1.3 0 .4-.1.1-.3.2-.4.2-.3-.1-.6-.2-.9-.4-.7-.4-1.5-.9-2.5-1.5.1.4.1.7.2.8 1 .7 2 1.6 3.2 2 .5.2.9.5 1.4.9-.2.4-.4.7-.6 1.1.6.8.6.8 0 1.6.3.7 1 1.2 1.3 2.4-.5-.5-.9-.7-1.2-1-.1.3.5.7 0 1 .2.4.3.8.5 1.2.2.3.4.6.7 1.2-.5-.1-.7-.2-1.1-.3.1.3 0 .6.2.8.3.5.7.9 1 1.6h-.6c-.4-.5-.9-1-1.4-1.4.3.8.8 1.5 1 2.3.2.8.3 1.7.4 2.5-.8.6-.9.6-.6 1.4.3.8.6 1.5.9 2.4-.4-.2-.6-.3-.9-.4-.5 1.2.6 2 .8 3.1-.2.2-.5.4-.8.7.1.3.1.7.2 1.1-.4.1-.8.2-1.1.3-1.4-1.7-3.2-3-4.8-4.4-.4.5-.2.7.1.9.8.7 1.7 1.3 2.6 2 1.2 1 2.2 2.1 2.9 3.5.1.1.2.3.2.4 0 .2 0 .5-.1.6-.1.1-.4 0-.7 0 0-.8-.3-1.3-.9-1.7-.3-.3-.6-.6-1-.9-1-.8-1.9-1.8-3.1-2.4-.2.8-.2.8.1 1 .7.6 1.5 1.2 2.2 1.7.9.7 1.8 1.5 2.7 2.2-.3.5-.9.2-1.3.3.5.6.5.6 1.2.3.5.7.9 1.4 1.4 2.2l-.7.7c.1.4.2.8.3 1.3-.2.2-.4.4-.4.5-.3.7.7 1.1-.1 1.8-.5-.8-.9-1.6-1.3-2.4-.1-.8-.5-1.4-1.2-1.9l-3.3-2.4c-.3-.2-.6-.4-.4-.8 1.1-.1 2 .4 2.7 1.2l.6.6c.6.6 1.3 1.2 2 1.8.1-.9-.5-1.3-1-1.7-1.4-1.2-2.8-2.3-4.2-3.5 0-.3.1-.6.1-.8 0-.3-.1-.5-.4-.4l-.3 3.6c0 .3.2.6.3.8.2.3.5.5.8.7 1.2.9 2.4 1.7 3.6 2.6.2.2.5.2.8.3.3 1 .5 2 .8 3 .1.3 0 .6-.5.6-.1-.2-.3-.5-.4-.7-.2-.5-.3-1-.5-1.5-.1-.2-.2-.5-.4-.6-.9-.2-1.3-1.1-1.9-1.6-.8-.7-1.6-1.4-2.7-1.9-.3 1-.2 1.6.7 2.2.7.5 1.3 1.1 1.9 1.6.4.3.6.7 1.2.7.1 0 .3.2.5.3.7.9 1.3 1.9 1.3 3.2-.3 0-.6-.1-.8-.1-.1-.5-.2-.9-.4-1.4-.1-.2-.2-.4-.3-.5-1.4-1-2.7-2-4.2-3.1-.3.7-.1 1.2.4 1.6.2.2.5.4.7.5.8.6 1.6 1.3 1.9 2.4.1.2.3.4.5.8-.6-.1-.9-.3-1.1-.5-1.2-1-2.4-2.1-3.6-3.2 0 0 0-.1-.1-.2.2-.3.9-.2.9-.9 0-.5-.2-1-.4-1.4-.2-.3-.4-.5-.7-.9.4 0 .7 0 1.1-.1 0-.3.1-.7 0-1-.1-.4-.4-1-.3-1.2.2-.3.3-.7.4-1 .2-2.7.3-5.4.6-8 .2-2.3-.1-4.5-.1-6.7 0-.6-.5-.8-.9-1.2.4-.5.8-1.1.5-1.8-1.1-.9-1.9-2.2-2.7-3.4-.3-.4-.7-.8-1.1-1.2-.1-.1-.4 0-.5 0-.1 0-.1.3-.1.4.1.3.2.5.4.8l1.8 2.7c.1.1 0 .4 0 .8-1.1-.6-1.2-1.8-2.1-2.5-.4.4-.8.7-1.1 1.1-.5 0-1-.2-1.5-.1-.8.1-1.6 0-2.2-.6-.2.3-.3.6-.5.7-.3.2-.4.4-.1.8.5-.3 1-.4 1.7-.1.4.2 1 0 1.5 0 .7 0 1.4 0 2.3.5-1.9.2-3.6 0-5.3.2.4.7.6 1.3 1.7 1.5-.8.1-1.3.2-1.8.3-.3.5.1.9.2 1.4.1.1.2.2.3.1.4 0 1-.3 1.3-.1.4.2.8.3 1.2.2.6-.6.5-1.4.1-2.3.6.1 1 .2 1.4.2.4 0 .7 0 1.2.1-.2.6-.6.4-.9.4-.3 0-.6.1-.9.2 0 .9-.1 1.8 0 2.6.2.8-.1 1.6-.1 2.4l1.4.7c-.4.1-.5.2-.7.2-.7 0-.7 0-.8.8.2.1.4.1.8.2-.2.2-.3.4-.5.5.1.2.2.4.2.7h-.6c-.3.7 0 1.2.3 1.7-.2.3-.4.5-.5.7-.1 1.3-.1 2.6-.2 4 0 .6.5.7.7 1.1l-.1.1c-.1 0-.3.1-.5.1v3.5c-.5-.3-.3-.7-.3-1-.1-.4-.1-.8-.1-1.2 0-.4-.1-.8-.1-1.2 0-.4 0-.7-.1-1.1-.6.1-.5.4-.5.7.2 1 0 1.9.1 2.9.1.6-.1 1.1-.5 1.6v-3c-.4-.6-.8-1-1.2-1.5.3.1.7.2 1.1.3v-1.6c-.5-.5-.9-1-1.4-1.5.3.1.6.3.9.4h.4c0-.4 0-.8.1-1.2-.6-.1-1.2-.1-1.8 0 .2.3.3.6.5.8-.6-.1-1-.5-1.2-1.3.9 0 1.7 0 2.6-.1 0-.4-.1-.7-.1-.9-1-.2-1.9.1-2.7.4-.8.3-1.8.1-2.7.8.3.2.5.4.7.6.7.7 1.6 1.2 2.1 2.1-.3-.2-.7-.3-1-.5-.5-.4-.9-.8-1.3-1.2-.6-.6-1.1-1.2-2.3-.6.2-.5.3-.7.5-1l-2.2-2.2c0-.1.1-.1.1-.2.2.1.4.1.5.2.6.5 1.2 1.1 1.7 1.6.3.3.6.5 1 .4 1.6-.3 3.3-.6 4.9-1 .8-.2 1.1-1.1.6-1.7-.4-.4-.8-.8-1.3-1.2-.1-.1-.4-.2-.5-.2-.8.3-1.7.1-2.3.7-.8-.2-1.5.1-2.3 0h-1.4c.4-.9 1.5-.4 1.9-1-.1-.5-.5-.7-.9-.8-.7-.2-.9-.6-.9-1.2 1.1.5 2.2.4 3.4.2 0-.2-.1-.4-.1-.6.3.1.7.2 1 .3.5.1.9.1 1.2-.2.2-.1.3-.4.3-.6 0-.1-.5-.4-.5-.3-.5.3-1 .1-1.5 0-.2 0-.4.1-.5.1 0 .3.1.5.1.6-.8-.4-1.7-.8-2.5-.1-.1.1-.6-.1-.6-.2-.5-1-.9-2-1.4-3 .2.1.5.2.6.4.4.5.7 1.1 1.1 1.6.1.1.2.2.4.3.2-.2.4-.4.7-.5 1.3.4 2.6 0 3.9-.3.1 0 .2-.2.2-.3 0-.1-.2-.3-.3-.3-.6 0-1.2.1-1.8.1-.2 0-.4-.2-.8-.3 2-.3 2.1-.4 2.9-1 0-.1 0-.3-.1-.4-.5-.7-1-1.4-1.6-2.1-.3-.3-.3-.7-.3-1.1.8.7.8.7 1.6.3-.2-.3-.4-.6-.6-.8-.3-.4-.9-.5-.9-1.1 0-.1-.5-.2-.9-.4.4.8.6 1.4.9 2-.6.7-.6.7-.2 1.2.2.3.4.5.7.9-.4 0-.6.1-.7 0-.3-.3-.7-.7-1-1.1-.7-1-1.6-1.7-2.8-2.1l-.5.5c-1.1-1.2-2.3-2.3-3-3.8-.4.1-.7.2-1 .3.1.3.2.5.3.7-.6.2-.6.2-.8.6-.2-.1-.5-.2-.5.2-.1.3-.1.7.5.6 0-.2-.1-.5-.1-.7 1.7 1.5 2.8 3.4 3.8 5.4.2.3.1.7.2 1.1-.2-.4-.5-.7-.7-1.1-.8-1.1-1.5-2.3-2.2-3.5-.3-.5-.7-.6-1.4-.8.3.6.5 1 .7 1.2.8.5.9 1.3 1.3 2 .3.5.1 1-.2 1.8-.2-.9-.7-1.4-.8-2.1-.1-.8-.8-1.3-1.8-1.2.1 1 1 1.6 1.2 2.5-.4.5-.6-.3-.9-.1-.8 1.2-.8 1.2.1 1.9.2-.2.3-.4.5-.8.2.2.4.4.5.6.9 1.5 1.9 3.1 2.8 4.6 0 0-.1.1-.2.4-.9-1.3-1.8-2.6-2.8-4-.1.3-.3.5-.2.6l.6 1.5c.2.5.7.8.6 1.5-.3-.2-.5-.3-.8-.4 0 .1-.1.1-.1.2 0 .6-.1 1.3-.1 1.9 0 .6.2 1.2.4 1.8-.2 0-.4-.1-.7-.1v-.6c.2-1.1-.1-2-.7-2.9-.5-.7-1-1.5-1.1-2.4.6.2.8.7 1.1 1.1.2.3.4.5.6.7.1 0 .1-.1.2-.1-.2-.5-.3-1.1-.5-1.6-.4 0-.8-.5-1.2-.1-.6-.2-.6-.2-1.2.4.2.6.4 1.2.7 2-.8-.3-.9-1.3-1.7-1.4 0 .7.4 1.1.7 1.6.2.5.6.9.7 1.4.2.5.6 1 .5 1.8-.8-.5-.7-1.4-1.2-2-.5-.6-.7-1.3-1.3-2.2 0 .5-.1.7-.1.9.5 1.3 1.1 2.5 1.6 3.8.1.3.4.5.5.7.1.1 0 .3 0 .5-.8.1-1-1-1.9-.7.5.4 1.2.6.9 1.4.7.2.8.9 1.2 1.4.3.3.3.3 0 1.1.4.5.9.9 1.4 1.4 0 .1-.1.1-.1.2-.2-.1-.4-.1-.6-.2-.8-.6-1.5-1.2-2.6-2 .2.5.2.7.3.8 1.2 1 2.4 1.9 3.6 2.8.1.1.3.2.5.2s.5 0 .6.1c.2.1.2.4.3.7.1.9 0 1.3-.8 2.6l-3.3-2.7c-1.1-.8-2.2-1.6-3.4-2.4-.3.3-.6.5-.8.8.3.6.6 1.1 1 1.8-.5-.1-.7-.4-1-.5-.3-.2-.6-.3-.9-.5-.3.3-.6.5-1 .8l1.8 1.2c.6.4 1 .9 1.8 1 .3 0 .5.3.7.5 1.3 1.1 2.6 2.3 3.9 3.4.4.3.8.6 1.2.8.6.3.5 1 1 1.3 0 0-.1.2-.1.5-.3-.3-.6-.5-.9-.8-1.7-1.6-3.6-2.9-5.5-4.2l-5.7-4.2c-.5-.4-1.1-.8-1.7-1.3-.2.4-.4.7-.6 1.1 1.8 1.1 3.5 2.1 5.3 3.2 1.7 1.1 3.3 2.3 4.9 3.6-.2-.1-.5-.1-.7-.2-2.1-1.4-4.3-2.8-6.4-4.2-.8-.5-1.5-1-2.4-1.3-.3.4-.2.7.1.9.3.2.7.4 1 .6 2 1.2 4 2.5 6 3.7.3.2.6.5 1.1.4.2 0 .5.2.7.4 1.8 1.7 3.6 3.3 5.4 5-.4.2-.7.3-1.1.5-.2-.4-.1-.8-.6-1.2-1.2-.9-2.1-2-3.3-2.9-1.2-1-2.6-1.8-3.8-2.7-.3.4-.6.8-.9 1-.3.2-.7.2-1.2.4.9 1 1.9 1.8 3 2.4.8.4 1.5.9 2.1 1.6l-.1.1c-1.9-.9-3.5-2.1-5.1-3.4-1.4-1.1-2.9-2.2-4.3-3.3-.4.3-.2.5 0 .7 1.1.8 1.8 1.9 2.7 2.8.4.4.8.9 1.3 1.2l4.2 3c.7.5 1.6 1 2 1.9.2.4.6.6 1 .9 1.6 1.3 3.3 2.6 4.9 4 .5.4 1 .9 1.4 1.4-.4.3-.5 0-.7-.1-1.5-1.3-3-2.5-4.5-3.8-1.1-.9-2.3-1.8-3.5-2.7-.3-.2-.5-.4-.8-.7-2.4-2.2-5.2-4-8-5.7h-.4c.1.2.1.4.2.5.8 1 1.8 1.7 2.9 2.4 2.2 1.4 4.2 2.9 6.3 4.3l.6.6c-.5-.1-.7-.1-1-.2 0 .1-.1.2 0 .3 1.1 1 2.2 2.1 3.3 3.1 1 .9 2 1.7 3 2.6.1.1.2.3.3.5 0 .1-.1.1-.2.2-.8-.6-1.5-1.2-2.3-1.8-.3.6-.2 1.1.3 1.5.5.4 1 .9 1.5 1.4-.5.1-.8-.2-1.2-.4-.3-.2-.6-.4-1-.7-.1.4-.3.6-.4.9.3.4.5.7.8 1.1-.2 0-.3.1-.3.1-.6-.6-1.2-.5-1.9-.3h-.1c-.2-1.3-1.1-2.2-1.9-3.1l.1-.1c.5.3 1 .6 1.5 1 .3-.4.3-.9.1-1.1-.7-.6-1.3-1.5-2.4-1.2h-.4c.1-.3.2-.6.2-.9-1.1-1.1-2.5-1.9-3.9-2.6-.1.2-.1.3-.2.5-.4.1-.7-.1-.9-.4-.9-1.5-2.4-2.1-3.8-3.4.2.9.4 1.5.9 2 .8.8 1.5 1.5 2.2 2.3l1.2 1.5c-.1.5-.2.8-.2 1.2 3.3 3 7.1 5.3 10.7 8.3-1.2.1-1.9-.4-2.8-.6-.8-.3-1.7-.5-2.7-.9.6 1.1 1.6 1.1 2.3 1.6.7.5 1.4.9 2 1.5-.2 0-.3.1-.5 0-2.2-1.3-4.4-2.6-6.5-3.9-.5-.3-1.1-.6-1.8-.8 1.2 1.7 2.3 2.6 3.9 3.3.4.2.9.5 1.3.8 1.5 1.1 3.1 1.6 5 1.5 1.1 0 1.2.1 1.5 1.5-.1 0-.3 0-.4.1-.1-.6-.5-.8-1.1-.8-.9-.1-1.7-.1-2.6-.2v.5c-.7-.4-1.3-.8-2-1.1-.2.3-.4.5-.6.8.4.4.8.6 1.3.6 1.6.1 3.3.1 4.9.2.4.1.8.3 1.1.3 1.4 0 2.7.4 4.1.6.2 0 .4.2.6.6-.4-.1-.7-.1-1.1-.2-.4-.1-.8-.1-1.2-.2-.8-.1-1.6-.4-2.5 0-.1.1-.4 0-.6 0-1.3-.6-2.7-.3-4.1-.5.2.2.5.5.7.6.5.3 1 .6 1.6.8 2.1 1.1 2 1.6 4.4 1.4.1 0 .2.1.4.2h-1.1v.6c-1.2-.4-2.3-.9-3.6-.8.5.5 1 .9 1.6 1.4-.7-.3-1.5-.5-2.1-.9-.9-.6-1.9-.8-2.9-1l-2.7-.6h-.9c.5.4.8.6 1 .8.8.5 1.5.9 2.3 1.3.1 0 .1.2.1.2-.3.1-.7.2-1.1.3.6.7 1.2 1.2 1.8 1.6.4.2.9.2 1.2.5.9.9 2.2 1.3 3.2 2 0 0 .2 0 .3-.1-.2-.3-.5-.5-.7-.8 1 .1 1.7 1.1 2.9.6-.7-.9-1.7-1.1-2.6-1.6-.8-.5-1.8-.7-2.7-1.4.1-.1.2-.1.2-.1 2.3.8 4.5 1.9 6.6 3.2.2.1.3.4.4.6.1.2.1.5.3.6.4.4.9.8 1.3 1.2.6.5 1.2.4 2 0-.7-.2-1.1-.3-1.2-.9 0-.1-.2-.2-.3-.3-.5-.5-1-.9-1.5-1.4-.5-.5-1-1.1-1.6-1.5-.7-.4-1.5-.5-2.4-.7.4-.1.6-.2.9-.3-.1-.2-.1-.3-.1-.4.4.2.9.2 1.1.5.6.6 1.2.5 2 .3-.2-.4-.3-.6-.5-.8.3.2.7.4 1 .6.9.8 1.9.8 3.1.8-1-1.5-2.5-1.8-4.1-1.9v.5c-.8-.4-1.5-.8-2.3-1.1-.1 0-.1-.2-.1-.3 1.1.2 2.1.5 3.2.4 1.1-.1 2 .7 3.1.3-.3-.8-.9-1.2-1.7-1.3-.5-.1-1.1 0-1.6-.1-.3 0-.5-.1-.9-.2 1-.5 1.7-.5 7.9.5 0-.1 0-.3.1-.4 0-.1.1-.1.1-.2 1.8 1.4 2.1 1.7 2.4 2.8-.5-.5-.9-.9-1.4-1.2-.5-.3-1.1-.4-1.7-.5-.2.4.1.6.3.7 1 .7 1.7 1.6 2.5 2.4-.3.3-.4 0-.5-.1-.7-.9-1.6-1.1-2.8-1l.6.6c.6.6 1.4 1 1.7 1.8-.5-.3-.9-.6-1.4-.9-.2-.1-.5-.2-.7-.4-.7-1.1-1.6-1.8-3.2-1.7 1 .9 1.8 1.9 3.3 1.6.1.1.1.2.2.4-.2.1-.5.1-.7.2.2.4.4.6.5.9-.4-.2-.9-.5-1.3-.7-.9-.7-1.6-.8-3-.5 1.9 1.7 3.7 3.2 5.8 4.6.4.3.9.4 1.3.5.5-.4.3-.8 0-1.1-.5-.6-.9-1.1-1.4-1.7.7.1 1 .9 1.7.8.5-1 .3-1.4 0-1.7zM19.9 35.4c.1.4.1.9.7 1 0-.5-.4-.7-.7-1-.4-.9-.4-.9-1.1-1.5.2.7.6 1.2 1.1 1.5zm13.9-15.6c-.4-.3-.7-.5-1.4-.5.5.6.9.5 1.4.5.7.3 1.3.6 2 .8 0 0 .1-.1.2-.1-.7-.5-1.4-.7-2.2-.7zM23.4 45.5c.4 0 .9.8 1.4-.1-.3-.2-.6-.5-1-.8-.2.4-.3.7-.4.9-.1.1-.3.1-.5.1.3.5.3.5.8.8l-.3-.9zm18 68.9c0-.4 0-.8-.5-1-.3.6.3.7.5 1 0 .1-.1.3-.2.5-.1.5.1.8.6.8.2 0 .4-.1.7-.1-.3-.6-.5-1.1-1.1-1.2zm-16-66.6c.4.1.7.2 1.1.3l.5-.5c.1-.1.2-.3.4-.4-.7-.6-.8-.6-1.2-.2-.3.2-.5.6-.8.8-.4.2-.8.4-1 .9.9.6.9.6 1.5-.2-.1-.2-.3-.4-.5-.7zm2.2 1.3c-.6-.1-1.2-.1-1.6.4 0 .1-.1.2-.1.3.3.2.7.4 1.1.7.3-.3.6-.6.9-.8-.2-.2-.2-.4-.3-.6.4-.1.9.4 1.3-.4-.2-.3-.1-.9-.8-1.1-.3.3-.6.5-.9.8.1.3.3.5.4.7zm-3.5 28.6c-.3.1-.5.2-.8.4.2.3.2 1 .6.7.5-.3.7.6 1.2.1-.4-.4-.7-.8-1-1.2l-.3-.9c.9.2 1 1.1 1.8 1.4-.2-1.1-1.1-1.6-1.7-2.4-.4.2-.7.4-1 .7.2.3.3.5.4.7.2.1.5.3.8.5zM28.4 52c.7.1 1.1-.1 1.5-.9-.3-.4-.7-.9-1.4-1-.3.3-.5.7-.8.9.3.4.6.7.7 1-.4-.1-.8-.3-1.3-.5-.2.2-.4.4-.6.7.5.4.8.6 1.2.9.5-.2.8-.5.7-1.1zm20.7-10.9c-.1.5-.1.9-.2 1.4.3.3.7.3 1-.1 0-.4 0-.8-.1-1.2-.2-.1-.5-.1-.7-.1l.6-.3c.4-.2.4-.6.4-1-.1-.4-.5-.6-.8-.5-.6.2-1.2 0-1.9.1-.2 0-.4.2-.8.4 1.2.1 2 .4 2.5 1.3zM23.2 66.8c-.2-.3-.5-.6-.7-.9-.2-.4-.3-.8-.5-1.5-.3.5-.6.8-.7 1.1-.1.1-.1.3-.2.4.5.5 1.2 1 2.1.9.8 1.2 1.7 2.1 3.1 2.6 1-.5 1.1-.4 1.4.4.1.2.1.4.3.5.7.5 1.5 1.1 2.3 1.6.3-.3.6-.5.8-.7-1.2-1-2.3-2-3.3-2.9.1-.1.1-.3.2-.4-1-.7-2-1.4-3.1-2.1-.5.5-.8 1.4-1.7 1zM12.5 44c-.2-.2-.4-.3-.6-.4-.1 0-.3.1-.7.4h1.3c-.1.3-.2.6-.2.9.1.1.1.1.2.1.6.3.8.7.6.9-.3.3-.6.1-.9-.1-.5-.4-.9-.8-1.4-1.1-.3-.3-.6-.2-.9.2 0 .8.7 1.3 1.2 1.9.5.5 1.1.8 1.7 1.7-.6-.2-.9-.3-1.2-.5-.3-.2-.6-.5-1-.7-.4-.2-.6-.1-.7.4.6.4 1 1.1 1.8 1.4.5.1.8.6.7 1.4-1-.2-1.8-.9-2.9-.8 0 1 .5 1.6 1.2 2.2.5-.4.8-.7 1.2-1.1 1 .4 1.7 1.1 2.1 2 .1.2.2.3.3.4.3-.1.6-.1.9-.2.6.4.9 1.1 1.8 1.4-.5-.6-.7-.9-1-1.3.3-.2.5-.3.8-.5-.1-1-.2-2.1-.3-3.2-.4-.1-.7-.1-1-.2-1-.2-1.5-.9-1.7-1.8-.3-1.2.6-2 1.8-1.6.3.1.5.3.8.2.3-.8 0-1.4-.5-1.8.2-.6.4-1.1.6-1.6.1-.5 0-.6-.7-.8-.1.1-.1.3-.2.4-.4 1-1.1 1.2-1.9.6-1.2-1-2.5-1.9-3.7-2.9-.3-.2-.6-.5-1-.7-.3-.2-.6-.1-.6.4 1.8 1.7 3.9 3.1 6 4.9-.3.1-.5.2-.7.2-.3-.2-.7-.5-1.2-.7zm5 21.9c.2-.5.3-1.1.5-1.6-1-.7-1-.7-1.6-.1.3.7.4 1.4 1.1 1.7v1.2c-.6-.2-.8-.7-1-1.1-.5-1.2-1.2-2.2-2-3.2l-.3-.3c-.4.1-.8.2-1.2.4.9 1.2 1.7 2.3 2.5 3.4.2.3.2.5-.2.6-1.1-1.5-2.2-3.1-3.4-4.6-.7-.9-1.5-1.8-2.4-2.5-.4-.3-.7-.6-.9-1-.4-.9-.9-1.3-1.9-1.7.5 1.1 1 2 1.8 2.7.9.8 1.6 1.7 2.4 2.6.1.1.3.3 0 .5-.7.1-.8-.9-1.5-.9.2.8.6 1.3 1.2 1.9.6.6 1.2 1.3 1.7 2 .3.3.5.7.1 1.2-.1.1 0 .3 0 .5.1.3.1.5.3 1-1.1-.6-1.6-1.5-2.3-2.1-.7-.6-1.2-1.5-2.3-2 .2.7.5 1.2.9 1.6 1.1 1.1 2.1 2.1 3.1 3.3.4.6.9 1.1 1.3 1.8-.3.2-.5.3-.9.5.6.6 1.1 1.2 1.6 1.8.2.2.4.3.5.5.2.2.3.4 0 .6-.1.1-.4 0-.5-.1-.4-.4-.9-.8-1.3-1.2-.1-.1-.3-.2-.4-.3.1.4.3.7.6 1l1.8 1.8c.2.3.2.5-.2.7-.4-.3-.8-.6-1.2-.8-.1-.4-.4-.6-.9-.8.1.4.2.7.3 1.1.3-.1.4-.2.6-.3 0 .7.3 1.2.8 1.6.5.4.9.9 1.4 1.3.5.4.4.8.2 1.3-.5-.4-.9-.8-1.5-1.3 0 .8-.2 1.3.5 1.8.3-.2.7-.3 1-.5.3.3.6.5.8.8.4.5.8 1.1 1.5 1.5 0-.4 0-.7.1-.9.1-.3.1-.5.2-.8-.7-.7-.7-.7-.8-1.5.3.2.5.4.8.6.3.1.5.3.5.6 0 .6.6.9 1 1.2.3.2.7.2 1.1.3-.3-.9-.8-1.3-1.5-1.4 0-.7 0-.7-.5-1.2l-.6.6c.2-.7-.2-1.1-.7-1.5.7-.8-.3-1.2-.5-1.9.9-.6.2-1.5.3-2.5.3.2.4.3.6.4.5.6.9 1.1 1.4 1.7.5.6.9.7 1.8.3-.4-.5-1.1-.4-1.6-.7.1-.2.2-.4.4-.7-.3-.4-.5-.8-.9-1-.3-.3-.7-.4-1.1-.6.1-.2.2-.3.3-.5-.7-1.1-1.9-1.8-2.2-3.2.3-.1.6-.2.8-.3 1 1 1.8 1.9 2.7 2.8.5.5 1 .9 1.5 1.4.2.3.3.5.5.8.3.5.7.9 1 1.4h.3v-.7c.3.1.4.2.7.4.1-.4.1-.8.2-1.1-.5-.5-.9-1-1.4-1.4-.2-.2-.6-.3-.9-.4-.2-.1-.3-.3-.4-.4-1-1.3-1.9-2.6-2.9-3.9-.1-.1-.1-.3-.1-.6.3.2.5.3.6.4.6.7 1.2 1.4 1.7 2.2.3.4.7.5 1 .8.1 0 .1.1.2.1.4.4.8.8 1.4 1.2.1-.6.3-1 .3-1.4-.9-1.4-2.1-2.4-3.5-3.6.2.6.4.9.5 1.2-.1 0-.1.1-.2.1-.5-.7-1-1.3-1.5-2 .4 0 .9 0 1.1-.6l-.9-.9c-.6.5-.6.5-.5.8.1.2.2.4.3.7-.6-.2-.7-.7-1.2-.6zm-5.8-25.8c1 .8 1.9 1.6 3 2.3.5-1.4.5-1.4 1.5-1.9-.4-.7-.4-.7-1.1-1-.6-.2-.9-.6-.9-1.2 0-.7.1-1.1.5-1.1.1 0 .2 0 .3.1.4.2.3.6.3.9 0 0 0 .1.1.1.3 0 .5.1.8.1-.1 1 .3 1.7 1.3 2.1v-3c-.9-.8-1.8-1.7-2.8-2.6-.9.5-1.6.2-2.1-.5-.2-.3-.4-.5-.7-.7-.2-.1-.4-.2-.7-.3.1.4.2.6.3.8-.9.5-1.3-.8-2.2-.4.5.4.9.7 1.3 1.1.7.6 1.4 1.2 2.1 1.9v.3c-.3 0-.5 0-.8-.1-.1.4-.2.7-.3 1.1.7.6 1.6 1 2.3 1.8-.9.4-1.5-.7-2.2.2zm21 54.5c.9.9 1.9.9 2.8 1v-.1c.1-.2-.5-.3 0-.6.7.6 1.7 1 2 1.9 0 .1.1.2.2.2.9 1 1.8 1.9 2.7 2.9.8.8 1.8 1 3 .7-.2-.3-.4-.6-.6-.8-1.1-1-2.2-2.1-3.4-3.1-.9-.2-1.6-1-2.3-1.4-1.3-.8-2.9-1.2-4.1-2.2-.1-.1-.2-.1-.3-.1-1.2-.2-2.4-.5-3.6-.7-.1 0-.3.1-.5.1.5.6 1.2.8 1.7 1.2.6.4 1.3.4 1.9.7.6.2 1.3-.1 1.8.6-.2-.3-.6-.3-1.3-.3zm-4.4 24.5c-.1 1.4 0 1.6 1.1 2.3 1.2.8 2.4 1.5 3.6 2.2.2.1.4.1.6.2.2-.6-.2-.8-.5-1-.9-.6-1.8-1.1-2.8-1.7-.4-.3-.8-.6-1.4-1.2 1.4.5 2.2 1.2 3.2 1.8 1 .5 1.9 1.1 3.1 1.7-.6-1.2-1.9-1.3-2.5-2.6 1.4.5 2.2 1.5 3.4 1.7-1.4-1-2.8-2-4.2-2.9-.1-.1-.3-.1-.4-.1-.5.5-.9.1-1.3-.2-.4-.3-.7-.5-1.2-.2-.1.1-.5 0-.7 0zm-8.7-67.8c-.6-.4-.2-1.3-.5-1.8-.4-.7.2-1.3-.1-2.1-.5-.3-.8-1.1-1.6-1.4 0 .7-.2 1.5 0 2 .4.7-.2 1.3-.1 1.9.2 1.1.2 2.2.2 3.4 0 .7.3 1.2.9 1.4.5-.3 1-.6 1.4-.9.1-1.1-.8-1.6-1.1-2.6.4 0 .6 0 .9.1zm-10 5.3c.4-.4.7-.4 1-.1.3.3.6.7.9 1 .5.6 1 1.3 1.6 1.9.3.4.8.6 1.1.9.3.4.5.8.7 1.4.2-.2.4-.3.6-.5-1.6-2.3-3.1-4.5-4.6-6.7-.2-.3-.5-.6-.7-.9l-.1-.1s-.1 0-.3.1c0 .2-.1.5 0 .7.1.3.5.5.7.8.2.3.2.6-.3.7-.3-.2-.7-.5-1.3-1 .3.8.4 1.2.7 1.8zM16.4 82c.2.3.4.6.5 1 .1.4 0 .8 0 1.1 1 1.1 1.9 2.1 2.9 3.1.4.4.7.7 1.2.5-1-.8-1.1-1-.8-2.3-.2 0-.5 0-.7-.1-.7-1.3-1.8-2.4-3.1-3.3zm26.4 16c0-.3.1-.7-.1-.8-.6-.6-1.3-1.2-2-1.8-.4-.3-1-.4-1.6-.3.1.2.1.3.2.4 1.1 1.4 2.6 2.5 3.9 3.7.5.5 1 .3 1.6-.1-.5-.6-1.1-1.1-2-1.1zM22.4 44.8c-1.4-1.4-2.7-2.8-4.2-4.2-.3.6-.2 1 .1 1.4.9 1 1.7 2.1 2.7 3.1.6.6.8.6 1.4-.3zM22 92.9c1.1 1.7 2.2 3.3 3.6 4.7.4-.3.7-.5.9-.8.1-.9-.7-1.1-1.2-1.4.1-.3.3-.5.2-.7-.3-.5-.5.3-.8.1-1-.4-1.3-1.8-2.7-1.9zm26.1 6.2c-.5.2-1 .2-1.3.7.9.7 1.7 1.4 2.5 2.1.1.1.4.3.5.2.6-.2 1 .4 1.8.5-.9-1.6-2.3-2.4-3.5-3.5zm-.2-2.2c-.3.3-.6.5-.9.8 1.6.9 2.5 2.6 4.4 3.1.3-.6.2-1.1-.3-1.5-1.2-.8-2.2-1.6-3.2-2.4zM11.8 61.1c.2-.6.3-1 .4-1.6-.3-.4-.7-.8-1-1.2-.5.1-.9.1-1.2-.3-.3-.4-.7-.7-1-1.1-.2-.2-.5-.4-.9-.7.1.8.4 1.2.7 1.6.7.7 1.3 1.5 2 2.2.3.4.6.7 1 1.1zm6.9 26.4c.1.3.1.6.2.8 0 .2.1.4.2.5.8 1.2 1.7 2.4 2.5 3.7.3-.4.7 0 .9-.5l-.9-.9-.4-.4c-.3-1.4-1.3-2.3-2.5-3.2zm10.6-2.7c-1.7-1.7-3.7-2.5-5.5-3.7 0 0-.2.1-.3.2.3.2.5.5.7.7.5.3 1 .7 1.4 1.2.8 1.1 2.1 1.6 3.7 1.6zm12.3 8c1 1 1.9 1.9 2.9 2.7.2.2.6.3.9.4.2 0 .5-.2.8-.3-1.1-.9-2-1.7-2.9-2.5-.4-.4-1-.4-1.7-.3zm21.1-45.7c-.1-.7-.3-1.2-.7-1.5-1.2-.9-2.2-2.2-3.7-2.9.3 1.3.3 1.3 4.4 4.4zm-45.3-3.3c-.3.6-.2 1 .2 1.4 1.2 1.2 2.3 2.4 3.4 3.6.2.2.5.3.8.5-.5-.7-1-1.3-1.6-1.9-.2-.2-.5-.5-.6-.8-.5-1.1-1.3-1.9-2.2-2.8zM28.6 8.6v.3l-1.8-.3c.5.4 1.1.7 1.7 1 0 0 .1.1.1 0 .3-.1.6-.2 1-.2.5 0 .6-.3.6-.7-.3-.5-.5-.9-.8-1.4-.7 0-1.4 0-2.2.4.4.4.9.6 1.4.9zm-7.8 33.7c.1-.2.2-.3.2-.4.1-.1.1-.3.1-.4-.9-1.1-1.7-2.1-2.9-3-.1 1.2-.1 1.2.4 1.8.4.5.9.9 1.3 1.4l.9.6zm1.9 16.3c.8.6 1.4 1.5 2.3 2.1-.1-.5-.3-.8-.2-1.1.1-.3.3-.6.6-1.1-.6-.4-1.3-.7-1.9-1.1-.3.5-.5.8-.8 1.2zm-6.6 2.2c.2-.3.4-.5.4-.6 0-.2-.1-.4-.3-.5-.5-.2-.8-.6-.9-1.2 0-.2-.3-.4-.4-.6-.7-.9-1.4-1.8-2.1-2.6-.2-.3-.5-.5-.8-.7l-.2.2c1.3 1.9 2.7 3.8 4.3 6zm8 24c1.2.6 2.3 1.1 3.4 1.6-.1.1-.1.2-.2.4.6.1 1.2.2 2 .4-.9-1-1.9-1.5-2.8-2.2-.7 0-1.4-.9-2.4-.2zm3-8.8c-.8-1.1-1.5-1.6-2.7-2.2.1.6.7 1.1.4 1.8 0 .1.1.3.2.4.3.3.7.7 1.1 1h.3v-.7c.2-.1.4-.2.7-.3zm-6.3-29.4c.4-.5.2-.8-.1-1.1-.9-1-1.7-2-2.6-3-.1-.1-.2-.1-.5-.2 0 .2-.1.5-.1.6.9 1.4 2.1 2.6 3.3 3.7zm25.6-23c0 .1 0 .2-.1.2.2.1.5.3.7.5.2.2.4.5.7.8.5-.1 1-.2 1.6-.3v-1.5c-.6.1-1 .2-1.5.2-.5.1-.9.1-1.4.1zM25.8 90.2c.7 1 1.7 1.1 2.6 1.3.8.3 1.7.3 2.8.5-1.6-1.4-3.4-1.5-5.4-1.8zm8.2-2c-.5-.6-1.2-1-1.7-1.5-.9-.9-2-1.1-3.3-1.1 1.7.9 3.3 1.9 5 2.6zm11.2 25.6c-1-1.6-1-1.6-3-1.1.1.5.2.9.3 1.5.3-.1.6-.1.9-.2 0-.4-.1-.7-.1-1.1.7.3.9 1.5 1.9.9zM32.5 80.1c-1.1-.7-2.1-1.4-3.2-2-.5-.3-.8.1-1.2.5 1.4.9 2.9 1.2 4.4 1.5zm-7.9-.5c.8 1.6 2.7 2.7 4.1 2.7-.8-1.1-2.1-1.3-2.9-2.1-.3-.3-.8-.4-1.2-.6zM38 98.8c-.2 1-.2 1 .6.8.4.1.5.8 1.2.7-.3-1.2-1.1-1.9-2.1-2.6h-.1l.5.5c-.3 0-.7.1-1.1.1.4.2.7.4 1 .5zm11.1-7.6c-.9-1.3-2-1.7-3.5-1.6.9 1.2 2 1.8 3.5 1.6zM20.5 77.1c.5 1.4 1.2 2.2 2.4 2.2-.3-.5-.5-1-.7-1.6-.1-.4-.3-.6-.7-.6h-1zM21.6 64c-.6-.6-1-.7-1.3-.5v.6c-.6-.3-1-.2-1.2.5.4.2.7.4 1.1.6.8-.1 1.2-.6 1.4-1.2zm11.3-10.6c-.3.9.1 1.4 2.1 2.7.4-.2.5-.5.2-.8-.8-.6-1.5-1.2-2.3-1.9zM45 110.3c-.3-.1-.7-.1-1-.2-.2-.4-.2-1-1-1 .4.5.3 1.3.9 1.3.9.1.3 1 .8 1.3.4.2.8.2 1.3 0-.4-.4-.7-.9-1-1.4zm.9-66.5c-.4-.3-.6-.6-.8-.6-.8-.1-1.6 0-2.5.3.2.3.3.5.4.8 1-.2 1.9-.3 2.9-.5zm-8.2-13.4c.2.5.2 1 .7 1.2.7.3 1.3.7 1.9 1 .2.1.4-.2 1-.4-1.6-.3-2.3-1.3-3.6-1.8zm9.6 68.3c-1.2-1.3-1.2-1.3-2.6-.6.4.3.7.6 1.1.9.5 0 1-.1 1.5-.3zM18.7 64c.5-.5.8-.9 1.2-1.2-.3-.5-.5-.8-.7-1.2-.5.1-.4.5-.6.8-.1.3-.5.4-.9.6l1 1zm6.2-10.1c-.2-.5-.6-.8-.5-1.5.1-.4-.5-.8-.9-.5-.4.3-.6-.4-.9 0 .1 1.4 1.6 1.3 2.3 2zm27-21.2c-.6-1.3-.7-1.3-1.9-1.1.3 1.4.5 1.6 1.9 1.1zM31.7 94.9c-.8-.9-1.9-.9-2.8-1.2-.3-.1-.6-.2-.9.1.7.8 1.3.9 3.7 1.1zm3-54.8c-.4-.9-.9-1.4-1.6-1.6-.5-.1-1 0-1.5.4.6.5.6.5 1.1 0 .9.9.9.9 2 1.2zm13.6 3c-.6-.1-1.2-.2-1.7-.2-.2 0-.4.1-.6.1.4.7.9.8 1.5.6.1 0 .3.1.5.1-.1.3-.2.6-.3 1 .2.1.4.3.7.4 0-.8-.1-1.3-.1-2zm12.3 9.8c-.2-.3-.4-.5-.6-.7-.2-.2-.4-.4-.7-.6-.3-.2-.5-.5-.8-.7-.2-.2-.5-.4-.9-.4 0 .2-.1.4 0 .5.8.9 1.9 1.4 3 1.9zM23.5 26.8c.4.3.5.4.7.6.9.4 1.8.9 2.8 1.3.2.1.4.1.9.2-1.1-.7-1.8-1.2-2.6-1.7-.3-.2-.6-.4-.9-.5-.2-.1-.5 0-.9.1zm23.8 81c-.7-1.3-.7-1.3-2-1.1.8 1.4.8 1.4 2 1.1zM24.2 51.2c.4.3.8.6.8.5.4-.4 1.3.1 1.4-.9-.3-.2-.6-.4-1-.7-.4.4-.7.7-1.2 1.1zm-.7-1.4c-.2.1-.3.2-.6.4.3.2.5.4.8.6.4-.3.7-.6 1.1-1-.4-.6-.8-.9-1.5-1 0 .5.1.7.2 1zm-4.3 42.4c.1-.9-.3-1.5-.6-2.1h-.5c-.2 0-.3-.1-.5-.1.2.9.8 1.5 1.6 2.2zm17.7 10.7c.6.3 1.1.3 1.4-.1.3-.3.6-.6.9-1v-.3c-.2-.1-.4-.2-.7-.4-.1.4-.1.7-.1 1-.7-.2-1 .2-1.5.8zm7.1 3.8c-.2.1-.5.1-.9.2.3.6.6 1 .8 1.4.5 0 .9.2 1.4-.2-.8-.1-.8-1-1.3-1.4zm-23.1-7c-.4-1.1-.9-2.1-1.8-3-.1 1.5 1 2.1 1.8 3zm-8.9-48c.2.4.3.6.5 1.1-.4-.1-.6-.1-.8-.2 0 .6.2 1 .7 1.1.3.1.7 0 .9-.4-.1-.6-.4-1.2-1.3-1.6zm-.2-18.9c0-.6-.3-.9-.7-.7-.7.2-1.2 0-1.8-.3-.1 0-.2 0-.5.1.9.8 2 .8 3 .9zm10.4 49.3c.2-.5.3-.9.3-.9-.5-.4-.8-1-1.2-1.6-.2-.2-.5-.3-.7.1.4.7.9 1.4 1.6 2.4zm-7.6-49c-.2-.4-.4-.7-.5-.9-.1-.3-.1-.5-.1-.9-.3.2-.4.4-.6.5-.2.1-.5 0-.9 0 .5.8 1 1.3 2.1 1.3zm45.9 14c0-.3.1-.5 0-.5-.9-1-1.4-1.3-2.3-1.5.5 1 1.4 1.5 2.3 2zM36.4 98.2c-.4-1-1.2-1.3-2.2-1.2.5.8 1 1.5 2.2 1.2zM11.2 43c-.5-.7-1-1.1-1.9-.9.2.6.5 1.1 1.1 1.3.3-.1.5-.2.8-.4zm39.7-24.2c-.7-.8-1.7-1.2-2.8-1.3.7.8 1.7 1 2.8 1.3zM28.3 89.1c-1.1-1.4-1.5-1.6-2.5-1.4.4.9 1.4.9 2.5 1.4zm33.1-55.7c.5.3.6.9 1.2.7.1 0 .3-.2.4-.4-.4-.4-.8-.8-1.3-1.2-.1.4-.2.6-.3.9zm-14.3 80.1c-.3-.5-.5-.8-.7-1.2-.3.1-.6.2-1.1.4.4.4.7.7 1.1.9 0 .1.3 0 .7-.1zm-25.6-5.6c-.2-1-.5-1.8-1.3-2.7 0 .4-.2.8-.1.9.4.7.9 1.2 1.4 1.8zm22.3 4c-.3-.9-.3-.8-1.2-.8-.5 0-.8.2-.7.8h1.9zM17.2 62.7c.3-.4.4-.6.6-.8-.3-.4-.6-.7-1-1.1-.2.4-.4.6-.4.8.2.3.5.6.8 1.1zm-1.4-1c-.3.4-.4.6-.6.8.3.4.6.8 1 1.3.2-.3.3-.5.5-.8-.3-.4-.5-.8-.9-1.3zm-7 1.8c.6 1.1 1 1.5 2 2.2-.5-1-1.2-1.7-2-2.2zm18 34c.3.5.6 1.1 1.1 1.5.3.2.5.3.7-.1-.6-1-.6-1-1.8-1.4zm17.4 11.4c.2.4.2.6.3.6.5 0 1-.1 1.5-.1l.1-.2c0-.1-.1-.2-.2-.2-.5-.1-1-.1-1.7-.1zM25.9 44.4c-.9-.7-.9-.7-1.5 0 .9.6.9.6 1.5 0zm17.3-10.2c-.2-.9-1.1-1.1-1.8-1.7.1 1.3 1.1 1.4 1.8 1.7zm6 17.7c.3-1.4.3-1.7-.1-2.6-.2 1-.3 1.7.1 2.6zm-20.1-2.2c.6.3 1 1 1.8.8-.2-.9-.9-1-1.4-1.3-.2.2-.2.3-.4.5zm2.3 21.9c-.1.3-.2.5-.2.6.4.6 1.1.9 2 1.1-.5-.8-1.1-1.2-1.8-1.7zm15.1 33.8c.7.8.7.8 1.6.4-.5-.7-.5-.7-1.6-.4zM19 32.5c.4-.5.1-.8-.2-1-.4-.2-.8-.4-1.5-.6.7.6 1.2 1.1 1.7 1.6zm29.2.2c-.4-.7-.7-1.2-1.4-1.3.2 1.2.2 1.2 1.4 1.3zm-5.9 72.4c.1.2.1.4.2.6.2.3.4.4.7.2.3-.2.3-.5.2-.8-.2-.3-.3-.3-1.1 0zM31.4 53c.1-.7 0-.9-.5-1.2-.4-.2-.6 0-.8.4.4.3.8.5 1.3.8zM55 32.2c.2.8.6 1.4 1.3 2-.1-1.1-.6-1.6-1.3-2zm-23.9 68.1c1.3.2 1.3.2 1.8-.2-1.3-.5-1.3-.5-1.8.2zm9.2 1.5c.6.7.6.7 1.3.4-.5-.7-.5-.8-.7-.7-.2 0-.4.1-.6.3zm-18.6-64c.3.1.6.2.8.2.1 0 .2-.4.2-.6 0-.2-.2-.5-.5-.9-.2.5-.3.9-.5 1.3zM11 72.7c.4-1.3.4-1.3-.5-2-.2.7.1 1.2.5 2zm8.7 11.1c.1-.4-.3-.9.2-1.3-.1-.1-.2-.3-.4-.4-.3.3-.5.6-.8.8.2.4.3.9 1 .9zM47 41.5c.5.2.8.1 1.1-.3.1-.1 0-.4-.1-.5-.1-.1-.4-.2-.5-.1-.2.2-.6.4-.5.9zM18.4 76.9c.3.7.3.7 1 1.1.2-1 .1-1.2-1-1.1zm19.6 29c-.5-.3-.9-.5-1.4-.3.2.5.3 1 .8.9.2 0 .4-.4.6-.6zm-9.3-65.6c-.1.5-.2.8-.1 1 .1.2.3.1.4-.1.2-.2.3-.1.5 0s.4.1.8.3c-.4-.8-1-.7-1.6-1.2zm20.9 4.3c-.3.2-.6.3-.6.4-.1.5 0 .8.6 1v-1.4zm-7 59.5c0-.5-.2-.8-.6-1-.4.2-.7.4-.5.8.2.5.7.5 1.1.2zM30.1 126c-.1.5.1.6.1.8.1.3 0 .6.1.8 0 .1.3.2.5.2 0 0 .2-.3.1-.4-.1-.4-.4-.8-.8-1.4zm-8.3-82.5c.3-.3.5-.5.6-.7.1-.2-.3-.6-.6-.5-.2.1-.5.3-.5.4.1.3.3.5.5.8zM34.2 105c0 .7.4 1 .8 1 .2 0 .3-.3.6-.6-.6-.2-.9-.3-1.4-.4zm-9.8-76.3c1 .8 1 .8 1.5.4-.3-.4-.7-.5-1.5-.4zM33 105c-.7-.7-.9-.6-1.4.1.5.2 1 .6 1.4-.1zM21.2 35.7c0-.9-.3-1.3-.7-1.8-.1-.1-.3-.1-.8-.2.6.7 1 1.3 1.5 2zm15.4 72.4c-.2.3-.4.6-.4.8 0 .3.3.4.6.4.1 0 .2-.1.4-.2-.1-.3-.3-.6-.6-1zM31 96.8c-.5-.4-.9-.9-1.7-1 .3.9.8 1.2 1.7 1zm11.3 12.5c-.4.6-.6.9-1 1.4.6 0 .9-.1 1.2-.1.1 0 .1-.1.2-.2-.1-.4-.2-.6-.4-1.1zm-9-7.1c-.8-1-1-1-1.5 0h1.5zm16.4-57.9c.1-.4.2-.7.3-1-.4-.3-.7-.3-.9 0-.1.1-.1.3 0 .4 0 .2.3.4.6.6zm-6.5 57.2c.3.7.8.8 1.3.5-.5-.8-.5-.8-1.3-.5zm-15.5-1.3c-.5.6-.3 1-.1 1.5 0 .1.3.1.5.1.1 0 .2-.3.1-.4-.2-.4-.3-.7-.5-1.2zm21.6-52.5c-.4.6-.5 1-.2 1.3 0 0 .2.1.3 0 .4-.3.2-.7.2-1l-.3-.3zm-19.3 75c-.1.7.4.8.8 1 .3-.7.3-.7-.8-1zm-7.9-93.2l-.7-.7s-.4.2-.4.3c-.1.3.3.6.6.6.1.1.2 0 .5-.2zm40.7 2.2c-.3-.9-.7-1.2-1.3-1.4 0 .8.4 1.1 1.3 1.4zm-36 11.8c-.7-.6-.7-.6-1.2-.2.8.7.8.7 1.2.2zm7.2 63.3c-.4-.4-.9-.5-1.4-.3.6.9.7.9 1.4.3zm2.1-18.3c-.8-.7-.8-.7-1.5-.8.7.8.7.8 1.5.8zM7.8 61c-.1-.9-.1-.9-.9-1.4.2.6.3 1.2.9 1.4zm13.3 22.4c.3-.3.5-.5.9-.8-.5-.2-.8-.3-1.2-.5.1.5.2.8.3 1.3zm-2.9-21.9l.5-.5-.9-.9c-.5.7.2.9.4 1.4zM32.6 9.8c-.6-.1-1.1-.8-2-.5.6.6 1.3.4 2 .5zm2 94.1c-.6-.6-1.1-.6-1.9-.2.7.3 1.2.6 1.9.2zm5.8 1.8c-1.1.1-1.1.1-1.3.5.9.1.9.1 1.3-.5zM10.5 38.4c-.6-.3-.9-.9-1.7-1.1.4.8.9 1.2 1.7 1.1zm17.4 58.3c.5.7.9 1.1 1.7 1-.4-.6-.9-.8-1.7-1zm3.4-55.8c-.2-.7-.4-1.1-.9-1.3.1.5.1 1.1.9 1.3zM27 77.3c.1.1.3.4.5.4.2.1.5 0 .8-.1-.1-.3-.1-.6-.2-.8-.3.1-.6.1-.8.2-.1 0-.2.1-.3.3zm12.9 36.6c-.2-.7-.2-.7-1-.4.2.5.5.5 1 .4zm7.5-17.4c-.3-.2-.5-.4-.7-.5-.3.2-.5.4-.8.7.7.1.7.1 1.5-.2zm-12-.4c.4.5.8.7 1.5.6-.4-.5-.8-.8-1.5-.6zm-1.6 12c.6 0 0 1 .7.8.2-.1.4-.3.6-.6-.3-.1-.5-.2-.7-.2h-.6zm-1.3 16.2c.2.8.2.8 1.1.8 0-.6-.4-.7-1.1-.8zm-1.7 1.2c0-.2.1-.5 0-.7-.2-.2-.5-.3-.8-.5 0 .9 0 .9.8 1.2zm9-17.9v.3c.4 0 .7.1 1.1.1.1 0 .3-.3.5-.5-.4-.1-.5-.1-.7-.1-.3.1-.6.2-.9.2zM27.2 123c.1-.7-.1-.8-1.1-.5.2.5.7.4 1.1.5zm15.8-8.3c.3.6.6 1 1.3.6-.4-.7-.4-.7-1.3-.6zm8.2-98.5c0 .1-.1.2-.1.3.4.1.8.5 1.6.3-.7-.3-1.1-.5-1.5-.6zm-17 17.7c-.4-.2-.9-.6-1.7-.3.7.3 1.2.5 1.7.3zm4 76.9c-.1-.3 0-.6-.1-.6-.2-.1-.4-.1-.7-.1-.1 0-.2.1-.6.2.7.1.9.3 1.4.5zM22.7 39.4l-.2.2c.3.4.7.7 1.2.8-.4-.3-.7-.7-1-1zM7 41.5c0 .9 0 .9.9 1-.4-.4-.7-.7-.9-1zm21.3 61.3c.2.3.3.5.5.8.4-.2.5-.4.3-.7-.2-.4-.5-.3-.8-.1zm.1-56.6c-.2-.1-.3-.3-.6-.4-.1 0-.3.1-.5.2.1.2.1.5.3.6.4.2.6.1.8-.4zm-13.3 2.2c.3-.4.4-.5.5-.7-.3-.2-.6-.3-1.1-.6.3.5.4.8.6 1.3zm23.1 63.1c0 .1-.1.2-.1.3.2.2.2.6.7.4.1-.1.2-.3.4-.5-.5-.1-.8-.1-1-.2zm-2.6-7.5c.1.3.3.6.7.5.1 0 .2-.1.2-.1v-.4c-.3-.2-.6-.4-.9 0zM14.8 54.8l-.2.2c.2.4.4.8 1.2 1.1-.4-.6-.7-.9-1-1.3zm1.7 3.8c-.1.6.1.9.5 1.2.4-.5.4-.5-.5-1.2zm7 24.9c.2.3.4.5.6.7.1.1.3 0 .4-.1.1-.1 0-.3 0-.4-.3-.2-.5-.4-1-.2zm24.6 28c-.7-.5-.7-.5-1.4 0 .4.3.8.1 1.4 0zm-14.8-14c.1-.8.1-.8-1.1-.8.4.3.8.5 1.1.8zm-24-25.8c.1-1 .1-1-.7-1.8.3.8.5 1.3.7 1.8zm19.8 53.1c.3-.8.3-.8-.3-1.1 0 .4-.2.8.3 1.1zm.2-2c.2-.5.3-.9-.4-1-.2.5-.2.9.4 1zm5.2-12.9c.3.7.7.6 1 .5.1 0 .1-.2.3-.4-.4 0-.8 0-1.3-.1zm-2-1.7c-.3-.5-.3-.5-.9-.5.3.6.3.6.9.5zm-2.2-2c.2.3.4.5.6.8.2-.2.4-.4.7-.8h-1.3zm.2-1.2c-.3-.1-.5-.2-.7-.3-.1 0-.2.1-.3.2.2.1.3.3.5.4 0 .1.2-.1.5-.3zm7.4-.8c.6.3 1 .3 1.6-.1-.7-.3-1.1-.5-1.6.1zm-2.4-1.2c.2-.6 0-.8-.5-.9-.1 0-.3.1-.3.2-.1.5.3.6.8.7zm11.3-2.4c-.4-.3-.7-.5-1.2-.8.5 1 .5 1 1.2.8zm-13.6-2.1c.4.3.7.5 1 .7 0 0 .2-.1.2-.2v-.2c-.3-.4-.6-.5-1.2-.3zm-2.3-.6c.3.6.7.7 1.3.6-.4-.4-.7-.7-1.3-.6zm-7.1-17.7c-.5-.4-.8-.5-1.3-.2.4.4.7.5 1.3.2zm-4.7-50.7c-.4-.1-.6-.2-.8-.2-.3 0-.5.3-.4.5.2.1.4.2.6.2.2-.1.3-.3.6-.5zm39.7 6.2c.6.9.6.9 1.2.9-.4-.3-.7-.5-1.2-.9zM29 38c.3.3.6.5 1 .3-.5-.7-.5-.7-1-.3zm-6.6 20c.2-.2.3-.5.5-.7 0 0 0-.2-.1-.2-.9.3-.9.3-.4.9zm-8.7 4c-.2-.7-.3-1-1-1.2.1.3.1.6.2.8l.8.4zm14.9 46.8c.5.4.9.6 1.5.1-.6-.1-1-.1-1.5-.1zm17.4 1.7c.3 0 .5 0 .8-.1 0 0 .1-.1.1-.3-.3-.2-.7-.3-.9.4zm-15.7.8c.3.5.6.5 1.1.2-.4-.4-.7-.4-1.1-.2zM15.6 83.1c-.1-.4-.3-.7-.5-1.3-.2.7 0 1.1.5 1.3zm19.7 24.1c.5.4.5.4 1 .1-.3-.3-.6-.4-1-.1zm13.9-61c-.1.3-.2.5-.2.6 0 .2.2.3.3.5.1-.1.3-.2.3-.2-.1-.2-.2-.4-.4-.9zm-23.6-.4c-.2.2-.3.4-.4.5 0 0 .2.3.3.2.2-.1.3-.2.5-.4-.2 0-.3-.1-.4-.3zm3.5-3.7c0 .4-.2.8.2 1 .1 0 .3 0 .4-.1.1-.3-.1-.6-.6-.9zm-3.7.3c-.3-.1-.5-.3-.6-.3-.1 0-.3.2-.4.3.1.1.2.4.3.4.2 0 .4-.2.7-.4zm2.9-3.8c-.2.3-.4.6.1.8.1 0 .3 0 .4-.1.2-.3-.1-.5-.3-.7h-.2zm5-2.8c-.1.1-.1.2-.2.3l.5.5c.1-.1.2-.3.3-.4-.2-.2-.4-.3-.6-.4zm-3.5-5.6c0 .1 0 .1 0 0 .5.1 1 .1 1.5.1v-.1h-1.5zm-19.6.2c.6.7.7.8 1 .5-.2-.4-.4-.7-1-.5zm14.1-.4v-.2c-.1-.3-.2-.6-.6-.4l-.3.3c.2.1.4.3.6.4.1 0 .2-.1.3-.1zm12.3-3.1v.2c.3.3.7.6 1.3.4-.5-.2-.9-.3-1.3-.6zM50.9 20c-.7-.3-1-.5-1.4-.7.2.3.5.5.7.7h.7zm8.2-1.7c-.5-.6-.5-.6-1.1-.4.4.1.7.2 1.1.4zm-37.2-7.8c-.8.3-.8.3-.3.7.1-.2.2-.5.3-.7zm2 61.1c0 .9 0 .9.7.8-.3-.2-.5-.5-.7-.8zm12.7 54.8c.1-.7-.2-.9-.7-1.1-.1.7.2.9.7 1.1zm-5.7-36.3c-.4-.3-.7-.6-1.2-.7.4.4.5.8 1.2.7zm1.5 5.8c.5.2.9.3 1.4.5-.4-.6-.7-.7-1.4-.5zM47.1 109h1c-.3-.6-.6-.6-1 0zm-9.5-1.5c.5.3.5.3 1 .1-.5-.2-.5-.2-1-.1zm6.6-4.2c.4 0 .6.1.7 0 .1-.1.2-.3.3-.4-.1-.1-.3-.2-.4-.2-.2.1-.3.3-.6.6zm-5.1 7.4c.5 0 .7 0 .9-.1.1 0 .2-.3.2-.3-.1-.1-.3-.3-.4-.2-.2.1-.3.2-.7.6zM13.7 55.4l.1-.1-.8-.8-.2.2c.4.1.7.4.9.7zm28 53.9c0-.1 0-.2-.1-.3h-.7c-.1 0-.2.2-.2.3 0 .1.2.3.3.3.2 0 .4-.2.7-.3zM26.4 54.5c.4-.9-.1-.9-.5-1.1.1.3.2.6.5 1.1zm.5-9.2c-.1-.2-.2-.3-.2-.3l-.6.3c.1.1.2.3.2.3l.6-.3zm-1.3-4.1c-.2.2-.3.3-.3.4 0 .3.3.4.6.3.1 0 .2-.2.2-.2-.2-.1-.3-.3-.5-.5zm-4 34.3c-.5-.5-.7-.7-1-.9 0 .4.1.8 1 .9zm-12.2-40c.1.5.4.6.8.5-.3-.1-.5-.3-.8-.5zm18.4-.1c-.1-.3-.2-.8-.8-.5.4.2.6.4.8.5zM45 32.2c-.1.3-.2.4-.2.5.1.1.3.2.4.3l.2-.1c-.1-.2-.2-.4-.4-.7zm-19.5-.6c0-.1.1-.1.1-.2-.1-.1-.1-.2-.2-.3-.1-.1-.3-.1-.4-.2 0 .2 0 .4.1.5 0 .1.2.1.4.2zm33.9-4c.5.3.7.5 1.2.7-.1-.8-.5-.8-1.2-.7zm-36.3 0c.1.6.3.8.9.5-.4-.2-.7-.3-.9-.5zM57.9 26c-.1 0-.2.1-.2.1.1.2.1.3.2.5.1.1.2.1.4.1 0-.1.1-.3 0-.4-.1-.1-.3-.2-.4-.3zm-19 89.4c-.4-.6-.7-.5-1-.2.2.1.5.1 1 .2zm15-96.8c-.1 0-.2-.1-.2-.1-.1.1-.3.2-.4.4-.1.1 0 .2 0 .3.1 0 .3.1.4 0 .1-.2.2-.4.2-.6zM27.8 37.5c-.2-.4-.3-.6-.5-.9-.2.3-.3.4-.4.6.3.1.5.2.9.3zM42 10.8c.5.2.8.2 1.2-.5-.5.3-.8.4-1.2.5zm-3.8 98.4c.5.2.9.3 1.4 0-.5-.3-.8-.6-1.4 0zm-22-22.9c.1-.1.1-.2.1-.2 0-.3-.1-.6-.4-.6-.1 0-.2 0-.3.1l.3.6s.1 0 .3.1zM40 111.8c.6.4.6.4 1-.1-.4 0-.7.1-1 .1zm-6.8 14.4c-.1.1-.1.2-.2.2l.9.6c0-.1.1-.1.1-.2-.2-.1-.5-.3-.8-.6zm1.7-25.8c.3.2.5.4.6.4 0 0 .3-.2.2-.3 0-.4-.3-.4-.8-.1zM16 58.4c0-.7-.3-1-.8-1 .2.2.4.5.8 1zm10.3 39.8c-.1.3-.5.6 0 .7.1 0 .2-.1.2-.1 0-.2-.1-.4-.2-.6zM31 45c-.4.5-.4.5.4.8-.2-.3-.3-.5-.4-.8zm2.9 30.9c-.1 0-.1-.1-.2-.1l-.3.3-.3.3c.2.1.3.2.4.3.2-.3.3-.5.4-.8zm-7-35.8c.3.2.5.3.7.4 0-.3-.1-.7-.7-.4zm-19.6-.5v.7l.3.3c.1 0 .1-.1.2-.1-.2-.2-.3-.5-.5-.9zm51.7.8c.2-.2.1-.4 0-.5l-.3-.3c-.1 0-.1.1-.2.1.2.2.3.5.5.7zm-28.2-3.6c0 .1 0 .1-.1.2.2.1.4.1.7.2 0-.1 0-.1.1-.2-.3 0-.5-.1-.7-.2zm-9.1 52.1c0 .1-.1.1-.1.2.3 0 .6.1.9.1V89c-.2 0-.5 0-.8-.1zm1.3-1.5c0-.1.1-.1.1-.2-.2-.1-.3-.2-.5-.3-.1.1-.1.2-.2.3.2.1.4.1.6.2zm.1-58.5c-.5-.3-.7-.4-1.1-.6.1.6.3.7 1.1.6zm.3 57c0 .1-.1.1-.1.2.2.1.3.3.5.4.1-.1.1-.2.2-.3l-.6-.3zm26-58c-.1-.1-.2-.1-.4-.2 0 .1-.1.2-.1.2 0 .1.1.2.2.3l.3-.3zm-6.8 79.6c-.1.1-.2.1-.3.2.1.2.2.4.4.6.1 0 .1-.1.2-.1-.1-.2-.2-.4-.3-.7zm15.7-88.6l-.6-.6h-.2c0 .1 0 .3.1.3 0 .1.2.2.7.3zm-28 84.3c.3.1.4.2.5.2.2 0 .3-.1.5-.2-.1-.1-.3-.3-.4-.3-.2 0-.3.1-.6.3zm23.6-86.1c0-.1-.1-.1-.1-.2l-.6.3.3.3c.2-.1.3-.2.4-.4zm-8.8 88.6c-.2-.1-.3-.2-.5-.3 0 .1-.1.2-.1.2 0 .3.3.5.5.4 0 0 0-.1.1-.3zm-13.9 18.2c.4.3.5.3.7.4 0-.1.2-.2.1-.2-.1-.2-.2-.3-.3-.4 0-.1-.2.1-.5.2zm-1.6-13.8l.2.2c.2 0 .5 0 .7-.1v-.2h-.7c0-.1-.1 0-.2.1z"/><path class="st0" d="M12.2 86.9c.2.2.4.3.5.5.5 1.3.9 2.7 1.4 4 .3.7.7 1.4.9 2.2.4 1.2.7 2.4 1 3.7.7 2.6.6 5.3.7 7.9 0 .5.1 1.1.2 1.6.1 1.9.5 3.8-.2 5.7-.1.2-.1.5-.1.7.2 1.1-.2 2-.5 3-.2.8-.5 1.5-1.2 1.8-.7 2.1-.3 4-.1 6 .1.8.4 1.5 1.2 1.9 2 1.3 4 2.6 6.5 2.9 1.1.1 2.2.5 3.3.7 1.2.2 2.3.2 3.5.3 2.4.2 4.9.5 7.4.4 1.1-.1 2.3-.2 3.4-.3.5 0 1.1 0 1.6-.1 1.1 0 2.2.1 3.2-.4.2-.1.4-.1.6-.1 1.9-.1 3.7-.7 5.4-1.2 1.6-.5 3.2-1.4 4.4-2.6.2-.2.4-.3.5-.6l.6-3c.1-.7.1-1.4.3-2 .2-.9-.2-1.8-.3-2.6-.2-1.3-.7-2.6-1-3.8-.1-.5-.3-1-.7-1.3-.5-.4-.6-.8-.7-1.3-.6-2.9-.5-5.9-.4-8.8 0-.4.1-.9.2-1.3.1-.8.2-1.6.2-2.3.1-3.2.3-6.4 1.3-9.5.3-.8.5-1.7.9-2.5.9-2 1.7-4 2.7-5.9 1.1-2.2 1.9-4.5 2.6-6.9.6-1.9 1-3.8 1.8-5.6.4-1 .5-2.1.7-3.2.3-1.7.6-3.5.9-5.2.2-1.4.4-2.7.5-4.1v-.4c.6-2.5.5-5 .6-7.5.1-2.3-.1-4.5 0-6.7v-9.1c0-1.1-.1-2.2-.2-3.2s0-2 0-2.9c.1-1.5-.1-2.9-.3-4.4 0-.5-.3-.9-.1-1.4.5.6.8 1.1.9 1.9.1 1 .2 2.1.3 3.1l.3 6.9.3 4.8c.1 1 .1 2-.2 3.1-.2.5-.1 1.2 0 1.8.3 2.6.3 5.1 0 7.6 0 .4-.1.8-.1 1.2.2 2.3-.4 4.5-.7 6.7-.1.8-.2 1.6-.2 2.3-.2 2.8-.6 5.6-1.5 8.2-.2.6-.4 1.2-.5 1.9-.2 1.3-.6 2.5-1.1 3.6-.4.9-.8 1.9-1.1 2.9-.6 1.8-1.3 3.5-2 5.2-.2.5-.4 1-.7 1.5-1 1.5-1.6 3.3-2.2 5v.1c-1.3 2.6-1.8 5.3-2 8.1 0 .9-.1 1.9-.2 2.8 0 .9 0 1.8-.1 2.7 0 1.9-.1 3.8.1 5.7.1 1 .1 2.1.2 3.1 0 .3.1.7.2 1 .9 1.8 1.3 3.8 2.1 5.6.3.7.5 1.4.4 2.1-.1 1.4-.1 2.8-.2 4.1-.1 1.3-.7 2.3-1.7 3.1-1.8 1.7-4.1 2.5-6.4 3.3-1.9.6-3.8.8-5.8 1.1-.7.1-1.5.1-2.1.5-.2.2-.7.1-1 .1-3.3.2-6.7.2-10 0-.9 0-1.9-.2-2.8-.4-2.7-.6-5.4-1.1-8-1.8-.8-.2-1.5-.6-2.3-1-.4-.2-.8-.3-1.2-.5-.8-.4-1.1-1-1.4-1.8-.1-.3-.2-.7-.3-1.2-.1.5-.2.8-.2 1.1-.5-.6-.6-.6-.6-1.3v-3.1c0-.5 0-1-.1-1.5-.2-.7 0-1.3.5-1.8.6-.6.8-1.3 1.1-2 .5-1.3.8-2.6.9-4 .1-.8.6-1.5.4-2.3-.5-2.1-.3-4.2-.4-6.3 0-.8-.2-1.5-.1-2.3.1-.7-.2-1.4-.4-2.1-.4-1.6-.8-3.2-1.3-4.8-.6-2.1-1.3-4.2-1.9-6.3-.2-.2-.3-.5-.1-.8zM5.4 17.4c0 .5 0 1.1-.1 1.6.3.3.7.6 1.2 1 .5-.3 1.1 0 1.5-.7.3.2.7.4 1 .5.4.2.8.4 1.2.1.2-.1.5 0 .8.1.2 0 .5.1.6.1.6-.7 1.2-.1 1.7 0 .8.2 1.6.6 2.6.7-.1-.3-.2-.5-.3-.9.2 0 .4 0 .6.1.7.3 1.3.7 2 1 .9.4 1.8 1.1 2.9 1.1.3 0 .5.2.4.5-.1.2-.4.3-.6.3-.2 0-.5-.1-.7-.2-.4-.2-.7-.4-1-.5-.4.2-.7.4-1.2.6-.5-.3-1-.6-1.6-.9-.5-.1-.9.6-1.4.3-.4-.2-.9-.4-1.4-.6-.3.1-.6.4-1 .4-.3 0-.7-.2-1-.2-1-.2-2-.2-3-.1-.6.1-1.3-.2-2.2-.3 0 0-.2.2-.4.3-.4.3-.9.3-1.4.1-.4-.2-.8-.2-1.4-.3 0 .4-.1.6-.1.9l-.3 7.2c-.1 2.1 0 4.1 0 6.2 0 1.4-.1 2.8 0 4.3 0 1 .2 1.9.2 2.9 0 .7.2 1.5-.3 2.2-.6-.5-.7-1.2-.7-1.9 0-1.6.1-3.1.2-4.7.1-1.4.1-2.8.1-4.3 0-1.6-.1-3.2-.2-4.8-.1-1.3.1-2.5.2-3.8.1-1.4.3-2.8.1-4.3 0-.3.1-.7.1-1 .8-.4.9-.4 1.3-1.1.2-1 .7-1.7 1.6-1.9z"/><path class="st0" d="M49.4 62.9h.4c.9.9 1.9 1.7 2.8 2.6.1 0 0 .2.1.5-.3-.3-.6-.4-.8-.7-.3.2-.6.3-.9.5.1.1.1.3.1.4.4.6 1.1.4 1.8.6-.3.4-.5.7-1 .5-.5-.2-.9-.4-1.5-.2.5 1.1 1.7 1.6 2.4 2.9-1-.6-1.7-.8-2.6-.6.3-.1.6-.3 1-.4-.7-.6-1.3-1.2-1.9-1.9-.4 0-.9-.1-1.4-.1-.3 0-.4.2-.4.5-.7-.3-1.5-.5-1.8-1.5.3-.2.6 0 .9-.1.3 0 .6-.1.9-.1-.5-1-.6-1.1-1.5-1-.4 0-.9.1-1.5.1.3-.3.4-.6.6-.7.3-.2.9 0 .8-.6.9 0 1.1 1.2 2.2.8-.7-.8-1.4-1.4-2.2-2-.2-.1-.4-.1-.7-.1h-1.4c-.1-.5.2-.6.5-.6.8-.1 1.6-.2 2.4-.4-1-.3-2.1.3-3.1-.4.1-.3.1-.6.2-.9.3-.1.7-.2 1-.3 0-.1 0-.3-.1-.4-.5-.6-1.1-.8-1.9-.6 0-.3.1-.6.1-.8 1.1.1 2.1.3 3.2-.2.3-.2 1 0 1.4.3.6.5 1.3.4 1.9.5.4.1 1 0 1.5.6-1-.1-1.8-.1-2.7-.2.1.7 1 .7 1.1 1 .2.7.8.6 1.3 1-.3.1-.5.2-.8.3h-1.9c.7.7 1.1 1.2 1.5 1.7-.5-.3-1.1-.7-1.7-1-.4.2-.7.4-1.1.5.4.4.8.7 1.1 1 .9.7 1.7 1.6 3.2 1.1-.3-.3-.6-.5-.8-.7-.3-.3-.5-.6-.7-.9zm-1.6-3c-.5-1.3-1.3-1.6-2.8-1 .6 1.3 1.7 1 2.8 1zm-1.2 6.6c.9.3 1.4.3 2 0-.6-.2-1.1-.3-2 0zm4 .1c-.7-.7-.7-.7-1.4-.3.4.4.8.6 1.4.3zM47.9 65c.8.7.8.7 1.3.3-.3-.4-.8-.4-1.3-.3zM19 117.9c.1.2.2.3.3.5.1.7.3 1.3.4 2-.3.1-.5.2-.7.4.1.8.1.8 1 1.3-.2.2-.3.3-.6.5.6.1 1.1.2 1.6.4.1.2.2.3.3.6-1.2.5-2.2-.6-3.4-.1.8.2 1.6.5 2.5.7-.1.3-.2.5-.3.8 1.3.4 2.7.9 4 2-.4.1-.6.1-.8.1-.4-.1-.9-.2-1.3-.4-1.4-.6-2.8-.9-4.3-1.1-.5-.1-.9-.2-1.4-.3-.2-1.3-.5-2.6-.4-3.8.1-.6-.2-1.3-.3-2v-.6c.4.1.8.2 1.1.3v-.8c.4.1.8.1 1.2.2.1-.7.6-.7 1.1-.7zM61.5 63.2c0 .3 0 .6.1.9.5 1.1 0 2.2-.1 3.3 0 .2-.3.4-.5.6 0 .5.6 1.1.1 1.7-.2-.2-.4-.3-.6-.5 0 .1-.1.1-.1.2.1.4.2.8.2 1.2 0 .2-.1.4-.3.8-.3-.4-.5-.7-.5-.9 0-.7-.4-1-.9-1.4-1.1-.9-2.1-1.9-3.2-3 0-.1.1-.3.2-.5s.2-.3.3-.6c.7.7 1.4 1.3 2 1.8.6.5.9 1.2 1.6 2 .2-1.4.2-1.4-.6-1.8-1.2-.6-2.1-1.6-3.1-2.5.2-1 .1-2-.9-2.8.6-.1.8-.2 1-.2.7 1.3 2 2 3.1 2.8.1.5-.3.6-.6.5-.5-.2-.9-.6-1.3-.9-.3-.2-.6-.4-.9-.7-.3.4-.2.8.1 1 .8.6 1.5 1.2 2.3 1.8.3.2.8.3 1.3.6.1-.3.2-.6.2-.9 0-.3-.2-.6-.4-1 .3-.1.5-.2.8-.4-.1-.3-.2-.7-.3-1.1-.1-.4-.5-.7-.2-1.1.8 0 .7.9 1.2 1.1zM46.5 122.6c-.3-.1-.5-.2-.8-.3-.5-.4-1-.6-1.6-.6 0-.5.3-.7.8-.6l1.8.6c.4.2.9.3 1.6.6-.6-.8-1.4-.6-1.9-1.2.2-.1.4-.3.5-.3.6.1.8-.3 1.2-.6.8.3 1.6.5 2.4.8.1-.2.2-.5.2-.7.6-.1 1.1.3 1.6.5.8.3.8.3 1.4-.4-.4-.9-.8-1.9-1.2-2.9.4 0 .7 0 1.1.1.5.3.9.5 1.5.8 0 .5-.1 1-.1 1.6.3.2.6.5 1 .8-.2.4-.5.6-.7 1-.1.3-.2.6-.3 1.1-.7-.4-1.3-.7-2-1.1-.3.2-.5.5-.8.7-.9-.3-1.8-.7-2.7-1 0 0 0 .1-.1.1.4.3.7.5 1 .9.1.1.1.4.1.8-.6-.4-1-.6-1.4-.9-.2.3-.3.6-.4.8-.9.3-1.4-.6-2.2-.6zM24.1 21c-1.4 0-2.5-.7-3.7-1.3-.4-.2-.7-.4-1.2-.6-.1.7.3 1 .8 1.2.8.4 1.7.7 2.5 1.1 0 .4-.3.4-.4.3-.6-.1-1.3-.3-1.8-.5-1.1-.5-2.2-1.1-3.3-1.7-.1-.1-.2-.2-.4-.5.7.2 1.2.3 1.7.5l.3-.6c.1-.2.2-.5.2-.7.6.1 1.2.2 2 .3-.3-.4-.4-.6-.6-.9.4-.1.7-.1 1.1-.2-.1-.2-.1-.3-.2-.4-.2-.1-.4-.1-.6-.1-.4-.1-.7-.1-.7-.6.1-.4.5-.2.7-.3 1.2-.4 1.2-.4 2.1-.1.6.2 1.3.3 2 .5.6.1 1 .4 1 1.1 0 .1-.1.2-.1.2-1.6-1.1-2-1-2.5 1 .2.3.5.6.9 1.2-.7-.2-1.1-.3-1.6-.4.3.8 1.4.7 1.8 1.5zM55.8 70.4c.1-.3.3-.5.4-.8-.6-1-1.9-1.3-2.4-2.5.6.1 1.6.8 2.3 1.4.7.6 1.3 1.3 2 2.1.1-.4.2-.6.3-1 .8.9 1.5 1.6 1.4 2.8 0 .2 0 .5-.1.5-.8.5-.4 1.1-.3 1.8-.2.2-.5.4-.7.6-.2.5.7 1.1-.2 1.6-.1-.2-.3-.3-.3-.5-.3-.7-.4-1.4-1.2-1.4-.1 0-.2-.2-.3-.3-.7-.9-1.4-1.7-2.2-2.6.6 0 .6 0 2.4 1.7.1-.4.1-.8.1-1.2-.8-.8-1.6-1.7-2.5-2.7.8-.2 1.1.1 1.3.5.5.4.9.7 1.3 1.1.1.1.4.3.5.3.6-.3.8.4 1.2.6 0-.9 0-.9-.5-1.1-.6-.2-1.2-.5-1.7-.7-.3-.2-.5-.2-.8-.2zM50.3 75.1v-.6c.3.2.7.4.9.6 1.1 1 2.2 2.1 3.3 3.1.1.1.3.2.7.4-.5-.7-.8-1.1-1.1-1.6.5-.7-.2-.9-.5-1.2-.7-.8-1.5-1.7-2.2-2.5.2.1.5.2.7.4.8.7 1.6 1.5 2.4 2.2.4.4.7.8 1.3.9.3-.4 0-.6-.2-.7-.6-.6-1.2-1.1-1.8-1.7.2-.2.3-.3.4-.5l-.6-.6c-.2-.2-.4-.5-.6-.8 1 .4 2 1.3 2.6 2.3.3.6.7 1.1 1.4 1.1.1 0 .3.1.4.2.5.6.7 1.3.4 2.4-.4-.5-.6-.8-.8-1.1h-.1l.3 1.5c.1.5.3 1-.1 1.6-.5-.2-.4-.7-.5-1l-.3-.9c-.2.1-.4.1-.5.1v.3c.3.7.6 1.5.8 2.2 0 .2-.1.4-.3.9-.3-.8-.6-1.3-.7-1.7-.2-.7-.6-1.2-1.2-1.6-1-.9-1.9-1.8-2.9-2.7-.3-.4-.8-.7-1.2-1zM52.2 85.4c-.9-.2-1.3-.7-1.7-1.1-.7-.7-1.4-1.5-2.1-2.2-.3-.3-.5-.4-1 0 1.8 2.2 3.5 4.5 5.5 6.6-.4.3-.5 0-.7-.1-.5-.4-.9-.9-1.4-1.3-.2-.2-.6-.4-.8-.3-.6.3-.9 0-1.3-.3-.1-.1-.1-.2-.2-.2-.9-.1-1.1-.9-1.6-1.5 1.1.1 1.6 1.3 2.9 1.2-.5-.8-1-1.5-1.6-2.1-1.1 0-2.1.5-3.5.1 1.1-.5 2-.4 3-.7-.4-.5-.6-.8-.9-1.2h-2.4c.4-.3.6-.5.8-.5.7-.2 1.4-.3 2.2-.4-.1-.6-.5-.9-.9-1.4-.5 0-.9.1-1.6.1.7-1 1.5-.8 2.2-.7.3.9.3.9 1.2 1.7.3-.1.7-.1 1.2-.2-.3.4-.4.7-.6 1 1 .9 2 2.1 3.3 3.5zM26.8 12.5c-.1 0-.2 0-.3-.1-.1-.1-.4-.3-.3-.4 0-.1.2-.4.4-.4.3 0 .7.1.9-.3.1-.1.4-.1.5-.1.4.1.8.2 1.1.3.7.3 1.4.7 2.2.7.1 0 .3.3.3.4 0 .1-.3.4-.3.4-.6-.3-.8.3-1.1.5-.3.3-.5.8-1.1.6-.4.6-.9.6-1.5.4-.9.7-1.5.2-2.1-.4-1.3-.1-1.2-1-1.1-1.9 0-.1.1-.3.1-.4.4.2.4.2.6.7.2-.1.3-.2.6-.3.1.4.2.7.3 1.2.2-.1.4-.1.5-.2 0-.1.1-.4.3-.7z"/><path class="st0" d="M50.3 69.4c.7.6 1.2 1.4 2 2.2-.9-.1-1.2-.8-1.8-1.2-.3.1-.7.1-1.2.2.1.2.1.3.2.4.6.6 1.3 1 1.8 1.7.1.1.2.3.2.5-1-.2-1.8-1-2.9-1v.6l-.1.1c-.3-.2-.6-.5-1-.7-1.5.1-2.9 0-4.5-.2.6-.3 1.2-.2 1.9-.2H49.2c-.3-1-.5-1.2-1.3-1.2-.9 0-1.8.1-2.6.2-.4 0-.7 0-1.1-.1.9-.4 1.9-.3 2.8-.5.9-.2 1.9.1 3-.3-.8-.4-1.2-1.2-2.1-1v.1l.1.1c.1 0 .2.1.3.1-.2.1-.4.2-.6.2-.6-.2-1.2-.5-1.8-.6-.6-.1-1.2-.1-2-.1.3-.3.5-.6.6-.5 1 .4 2 .2 3 .1.2 0 .3-.3.5-.5.5.5 1.3 0 2 .4-.2.2-.4.2-.6.4.3.4.6.6.9.8zM47.6 126.8c1.4-.6 2.5-1.1 3.7-1.6-.5-.4-1.2.4-1.4-.5l.6-.3c.6-.2 1.2-.3 1.8-.5.5-.2 1.1-.4.9-1.1.8.1 1.4.4 2 .8-.6.6-1.1 1.3-1.6 1.8-.2.2-.5.3-.8.4-1.6.4-3.1.8-4.7 1.2 0 .1-.1 0-.5-.2zM36.2 19.6c-1.3-.7-2.6-1.4-4-1.9-1-.3-1.7-1.2-2.8-1.8 1-1 1.9-.5 3-.2-.4.3-.6.5-.8.8.7.7 1.7.9 2.6 1.1-.4-.3-.7-.5-1.2-.9 1.5.2 3.3.9 4.5 1.9-.4.3-.8.6-1.3 1zM53.3 83.6c.2.1.5.3.7.4-.1-1.4-1.1-2.4-2-3.3-1-1-2.1-1.8-3.1-2.8-.5-.5-1-.7-1.7-.8-.5 0-1.1 0-1.5-.5 1.2-.2 1.2-.2 1.7-.7.3.2.7.4 1 .6.2.1.4.2.4.3.1.6.6.9 1 1.2 1.3 1.2 2.7 2.3 3.9 3.5.8.8 1.2 1.8 1.1 3 0 .4 0 .7.1 1.3-.4-.4-.7-.6-.9-.9-.1.4-.2.7-.3 1.1-.2-.1-.3-.1-.3-.2-.3-.8-.6-1.6-.2-2.4 0 .3.1.2.1.2zM2.7 55.9c-.2-1-.6-1.9-.6-2.9.1-2.2 0-4.5 0-6.7 0-.2 0-.4.1-.5.2 0 .3.1.3.1-.1.9.5 1.6.4 2.5v6.5c0 .2-.1.6-.2 1zM6.8 23.6c.1-.4-.3-.6-.5-.8-.2-.2-.4-.5-.6-.9.8 0 1.3.2 1.8.6 1.2 1 2.3 2.1 3.5 3.1.4.4.9.8.6 1.6-1.7-1.2-2.9-2.9-4.8-3.6zM34.7 68c0-.6-.6-.8-1-1.2-.7-.7-1.5-1.4-2.2-2.1-.2-.2-.3-.5-.7-.9.4.1.6.1.7.2 2 1.9 4.1 3.6 6.2 5.3.1.1.1.2.2.4-.3 0-.6.1-.8 0-.5-.2-.7-.8-1.3-.8-.2-.6-.5-1-1.1-.9zM38.2 13.9c0 .2.1.5 0 .7-.1.2-.2.4 0 .7.3.4.3.7-.3.8-.4.1.1.3-.1.5-.3.3-.5.2-.8.1l-.6-.3c-.4-1.4-.4-1.4.6-2-.1-.2-.3-.4-.6-.8.8.1 1.3.2 1.8.3zM21.3 95.1c.5.3.8.5 1 .7 1.8 2.2 2.7 3.8 3 5.2-.2-.1-.4 0-.5-.1-1.1-1.7-2.2-3.5-3.3-5.2-.1-.1-.1-.2-.2-.6z"/><path class="st0" d="M31.5 65.8l1.8 1.2c.5.3 1 .6 1.4.9.3.4.7.8 1.2.9.7.6 1.3 1.3 2 1.9.2.2.2.2.4.9-.2-.2-.4-.3-.6-.4-1.9-1.6-3.9-3.1-5.8-4.7-.2-.2-.3-.4-.5-.6l.1-.1zM5.1 71.2c.2-.1.5-.3.7-.5.6 1.8 1.2 3.5 1.8 5.2.1.4.3.8 0 1.4-.2-.2-.4-.3-.5-.5-.2-.4-.3-.8-.4-1.2-.3-1.4-.7-2.7-1.5-3.9-.1-.2-.1-.3-.1-.5zM9.8 81.9c.3-.1.7-.1.9.2.5 1.1 1 2.1 1.4 3.2.2.5 0 1.1 0 1.6-.7-.9-1.3-1.9-1.6-3-.2-.7-.4-1.4-.7-2zM32.6 57.3c1 .2 1.4.7 2 1 .3.1.6.1 1.1.2.4.7.8 1.6 1.7 2.3l-.2.2c-.2-.1-.3-.1-.5-.2-.7-.6-1.6-1.1-2.2-1.8-.4-.4-.9-.7-1.4-1.1-.1-.1-.2-.2-.5-.6zM49.3 89c-.1 0-.3 0-.4-.1-.9-.9-2-1-3.2-.9-.3 0-.6-.2-1-.3.7-.7 1.4-.2 2.1-.4-.1-.3-.3-.5-.4-.7.9 0 1.2.8 1.9 1.1.6.2 1.3.4 1.9.8-.2 0-.5 0-.7.1v.3c-.1 0-.1.1-.2.1zM58.9 23.7c-.1-.2-.1-.4-.2-.5-.4-.3-.8-.6-1.3-1 .8-.2 1.1.2 1.5.4.5.2 1.1.5 1.6.8.5.3.9.5 1.4.9.4.3.9.5 1.2 1.2-.4 0-.6 0-.8-.1-.5-.3-.9-.6-1.3-.9-.7-.5-1.3-.8-2.1-.8zM3.3 61.8c.1.1.4.2.4.4.4 2 .8 4 1.1 6 0 .1 0 .2-.1.4-.2-.3-.4-.5-.5-.7-.3-1.1-.5-2.2-.7-3.3-.1-.8-.2-1.4-.9-2 .4-.3.5-.5.7-.8zM50.3 74.4c-.1 0-.4 0-.4-.1-.4-.5-1-.5-1.6-.5-1 0-2.1.1-3.1.2-.6 0-1.2.1-2 0 .4-.2.6-.4.8-.4l4.2-.3c.1 0 .2-.2.3-.3l.1-.1c.8.3 1.4.8 1.7 1.5zM6.8 23.6c.6.4.8 1.1 1 1.9-.4 0-.7.1-.8 0-1-.9-2-1.7-2.9-2.8.4 0 .7-.2.8-.1.4.3.8.7 1.2 1.1.2.3.5.1.7-.1zM52.6 78.6c.8.7 1.7 1.3 2.4 2.1.4.5.5 1.3.8 2 0 .1-.2.3-.3.3-.1 0-.2-.1-.4-.2l-.1-.1c-.3-1.5-1.2-2.6-2.5-3.5-.1-.1-.1-.2-.2-.4.1-.1.2-.2.3-.2z"/><path class="st0" d="M3.3 61.8l-.4-.4c-.4-1.5-.6-3-.4-4.5 0-.1.1-.1.3-.3.3.5.2 1.1.2 1.7.1.6.3 1.2.4 1.9 0 .5-.1 1-.1 1.6zM50.3 75c-.2.6-.5.9-1.3.8-1.3-.2-2.6-.1-3.9-.2-.4 0-.8 0-1.1-.5.6.1 1.2.1 1.7.2.5 0 1.1-.1 1.6.1.6.1 1-.4 1.5-.4h1.5zM34.3 25.7c0 .2 0 .4.1.7-.7 0-1.2-.4-1.7-.7-1.8-1-1.8-1.1-2.4-2 .3.1.6.1.8.2l2.4 1.5c.2.2.6.2.8.3zM30.8 74.8c-.2-.2-.5-.3-.7-.5-1.2-1-2.4-2.1-3.6-3.1-.3-.2-.7-.5-.6-.9.5.3 1 .7 1.5 1 .8.6 1.6 1.3 2.3 1.9.4.5.8.9 1.3 1.4-.2.1-.2.2-.2.2zM31.3 77.2c-1.6-1.1-3-2.5-4.4-4l.2-.2h.1c1.4 1.3 2.8 2.7 4.2 4 0 .1 0 .2-.1.2zM47.3 56.1c-.4-.2-.6-.2-.7-.2L42.7 52v-.3c1 .5 2.6 2 4.6 4.4zM11.1 24.7c.5.4 1 .7 1.2 1 .3.5.8.7 1.3.8 0 .4-.1.8-.1 1.1-.4.2-.8.2-.9-.2-.2-.9-.8-1.5-1.4-2.2-.1.1-.1-.1-.1-.5zM51.2 109.6c.4.7.7 1.4 1.1 2.3-.3 0-.6 0-.7-.1-.6-.8-1.2-1.6-1.6-2.5.7-.6.8.3 1.2.3zM13.2 25c-.7.3-1-.1-1.3-.5-.3-.4-.3-.9 0-1.4.2-.3.6-.3.9 0l.3.6-.6.3c.1.2.2.3.3.4.1.3.3.4.4.6zM62.1 22.8c.1.6-.2.8-.6.7-.9-.3-1.5-.9-2.1-1.7 0 0 0-.1.1-.2 1 .1 1.6 1.1 2.6 1.2zM47.6 78.3c-1.1.6-2.2.8-3.3.2v-.4c.6.1 1.2.3 1.7.3.5.1 1 0 1.6-.1zM44.1 45.2c.4.2.8.4 1.3.7-1.1.5-2 .6-3 .6.3-1 1.1-.4 1.6-.8.1-.2.1-.4.1-.5zM6.6 19.2c-.4-.6-.2-1.1.1-1.3.3-.2.8-.3 1.2-.4.1 0 .2.2.3.3 0 .1-.1.4-.1.4-.7.1-1.1.5-1.5 1zM13.9 14.3c-.6.4-1.1.7-1.7 1.1-.1-.2-.3-.3-.3-.5 0-.5.5-.7.9-.8.4-.3.8-.3 1.1.2zM35.1 79.9c1 .5 2.1 1 2.9 1.9-1.3-.1-1.9-1.3-2.9-1.9zM9.3 27.2c0-.2-.1-.5-.1-.7.1-.1.1-.2.2-.2.8.2 1.2.7 1.2 1.8-.6-.3-1-.6-1.3-.9zM53.6 117.6c-.5-.3-.9-.6-1.5-1 .3-.1.5-.3.6-.3.4.1.7.2 1.1.4.2.1.2.3.4.5-.3.2-.5.3-.6.4zM40.9 78.7c1.1.2 2.1.8 3.2 1.6-1.4-.1-2.2-1-3.2-1.6zM9.2 27.2c.1.3.2.6.3 1-.9-.4-1.3-.8-1.9-1.7.8-.1 1.1.6 1.6.7zM53.2 83.7c-.7-.6-1.3-1.1-1.9-1.7-.2-.1-.3-.3-.3-.6.9.6 1.8 1.3 2.4 2.2-.1 0-.2.1-.2.1zM16.4 16.2c.3 0 .6-.1.8 0 .4.1.5.6.2.8-.2.2-.6.3-1 .5v-1.3zM37.4 76.2c.6.2 1 .7 1.1 1.5-.4-.1-.7-.2-1.1-.3-.1-.4-.1-.7-.2-1.1.1 0 .1-.1.2-.1zM56 24.6c-.6 0-1.2.4-1.7-.1.5-.7.5-.7 1.7.1zM30.4 54.6c1.1.2 1.3.9 2 1.4-.8 0-1.2-.2-2-1.4zM37.7 38.9c-.6-.4-.8-.9-.6-1.6.5.4 1.1.8.6 1.6zM32.5 15c-.7.2-1.1-.1-1.5-.2-.1 0-.1-.2-.1-.4 0-.1.1-.2.2-.1.5 0 1 .1 1.4.7zM34.4 45.9c-.2-.7-.9-1.1-1-2.1.3.2.5.2.6.4.3.5.5 1 .7 1.6-.1 0-.2.1-.3.1zM40.6 80.8c-.7 0-1.3-.3-2.1-.9 1.1 0 1.6.4 2.1.9zM9.8 81.9c-.8-.8-.8-.8-1-1.8.3.2.6.2.6.4.2.4.3.9.4 1.4zM52.1 78.1c-.9 0-1.2-.8-1.8-1.2l.2-.2c.2.1.4.3.5.4.4.3.7.6 1.1 1zM25.1 18.1c-.2.2-.4.3-.5.5-.1-.2-.4-.4-.4-.5 0-.1.3-.3.4-.5l.5.5zM9.9 22.4c-.1.2-.2.4-.4.5-.1.1-.3.1-.4 0-.1-.1-.2-.2-.2-.3 0-.2.1-.4.3-.5.1-.1.3-.1.5-.1l.2.4zM48.9 116.3c.5.4.8.6 1.2.9-.3.1-.5.3-.6.2-.3-.2-.6-.4-.6-1.1zM43.7 82.4c.5 0 .9.2 1.2.9-.7-.2-1-.4-1.2-.9zM23.1 13.6c-.2.2-.3.3-.5.4-.3 0-.5-.2-.4-.4 0-.2.2-.4.3-.5.2 0 .4.2.6.5zM26.8 15.8c.5.2.6.5.4.8-.1.1-.3.1-.5.1-.1 0-.2-.3-.2-.4.1-.1.2-.3.3-.5zM50.8 116.3c-1.2.1-1.2.1-1.1-.7.4.2.7.4 1.1.7zM47.4 53.2c-.8-.1-1.1-.6-1.5-1.2.7.1 1.1.6 1.5 1.2zM32.7 77.9c.1.1.1.3.2.4-.7-.1-1.1-.6-1.5-1.1l.1-.1c.4.2.8.5 1.2.8zM25.4 15.1c.1 0 .1 0 .1.1.2.2.4.5.2.7-.1.1-.4.1-.5 0-.2-.3-.2-.6.2-.8zM40.6 42.3c-.4 0-.9.2-1-.6.5-.1.8.1 1 .6zM26.5 18.5c-.3.2-.4.4-.5.3-.1 0-.2-.2-.3-.4 0-.1.2-.2.3-.2.1 0 .3.2.5.3zM14.4 18.9c-.2-.3-.4-.4-.4-.5 0-.1.2-.3.4-.3l.3.2c0 .2-.2.3-.3.6zM38.2 13.9c0-.1-.1-.3 0-.4.1-.2.2-.3.3-.4 0 0 .3.1.3.2 0 .2 0 .4-.1.5-.1.1-.4 0-.5.1zM5.1 71.2c-.4-.6-.4-.6 0-1 .3.4.1.7 0 1z"/><path class="st0" d="M32.9 78.3c.4.1.9.3 1.2.9-.7-.1-1-.5-1.2-.9zM50.7 53.1c.3.2.7.5 1 .7-.6.1-1-.1-1.2-.6.1 0 .1 0 .2-.1zM36.7 77.4c.3.2.5.4.8.6 0 0 0 .1-.1.1-.1-.1-.3-.1-.4-.3-.1-.1-.2-.3-.3-.4zM16.2 17.9c.1.1.2.1.2.2 0 .2-.1.4-.1.7-.1 0-.3 0-.4-.1-.2-.3-.1-.5.1-.7.1-.1.1-.1.2-.1zM13.3 17.7c.1.2.2.3.3.4-.1.1-.2.2-.4.3-.1 0-.3-.2-.3-.2.1-.2.2-.3.4-.5zM16.4 16.2c-.1.1-.3.2-.4.2-.2 0-.3-.1-.4-.2 0-.1 0-.2.1-.4.2 0 .3.1.5.1 0 .1.1.2.2.3zM21.2 13.3c-.2.1-.4.3-.5.3-.1 0-.3-.3-.3-.4 0-.1.2-.2.4-.4.1.1.2.3.4.5zM34.2 12.4c.2.2.4.4.4.5 0 .1-.2.3-.4.3-.1 0-.3-.2-.3-.3 0-.1.1-.2.3-.5zM42.2 81.7c-.3-.1-.6-.3-.9-.4 0-.1.1-.1.1-.2.3.1.6.3.9.4-.1 0-.1.1-.1.2zM20.9 73.4c.1-.3.2-.5.5-.2.2.2.4.5.6.9-.3.1-.4.1-.6.2-.2-.4-.3-.7-.5-.9zM21.2 70.8c-.1-.3-.1-.6-.2-1.1.5.3.7.6.8.9 0 .1-.2.2-.3.3-.2 0-.2 0-.3-.1zM37.6 33c1.5 1.3 2.5 2.9 3.3 4.8-.9-.5-1.2-1.5-1.9-2.2-.6-.7-1.2-1.5-1.8-2.3.2-.1.3-.2.4-.3zM40.2 34.2c1.3.9 2.4 2.3 2.7 3.4-.8-.4-2-1.9-2.7-3.4zM50 95.7c-.7-.1-1.2-.6-1.5-1.2.8.1 1.2.6 1.5 1.2zM13.5 66.7c.6.5.9 1.1 1.1 2.1-.7-.8-1.1-1.4-1.1-2.1zM19.8 71.4c-.4-.1-.9-.2-.8-.9.4.4.6.7.8.9z"/></svg>