<svg id="Warstwa_1" xmlns="http://www.w3.org/2000/svg" viewBox="0 0 227.3 122.4"><style>.st0{fill:#bfa161}.st1{fill:#c5213c}.st2{fill:none;stroke:#c5213c;stroke-width:.25;stroke-miterlimit:10}.st3{fill:#036c41}.st4{fill:none;stroke:#036c41;stroke-width:.216;stroke-miterlimit:10}.st5{fill:#fff}.st6{fill:#91875f}</style><path id="XMLID_130_" class="st0" d="M174.3 83.5c.4-1.4 1.1-2.3 1.7-3.3.5-.5 1-1.2 1.7-1.7-.2.7-.5 1.7-.7 2.6-.3 1.2-.7 2.4-1 3.8-.3 1-.5 2.4-.7 3.7-.3 1.7-.7 3.5-.7 5.1-.5 2.8-.9 4.4-1.4 7.2 0 0 .2-5.1-.5-5.9-.7-.9-2.3 1.9-2.3 1.9-.3-2.6 2.3-7.5-3-1.4 1.6-5.1 1-7.7-2.4-3.3 1.6-4.2 6.1-8.7 1.1-6.3.9-.9 1.2-1.4 2.3-2.4.9-1 1.4-1.6 2.4-2.4-.4 1.7-.5 3.1-.5 4-.2 1 0 1.4.5 1.4v-1.1c.2-1.4.5-2.6.9-3.7.4-1.4.9-2.4 1.6-3.5.5-.9 1-1.7 1.8-2.4.3-.3.7-.7 1-1.2.2-.3.5-.5.9-1 .2 0 .2 0 .2-.2v.4c-.3.5-.5.9-.7 1.2-.2.5-.3 1-.5 1.4-.5 1.2-1.1 2.1-1.2 3-.7 1.4-1 2.6-1.2 3.7-.3 1.6-.3 2.8-.2 4.4 0 .4 0 .7.2 1.1v-.9c0-2 .4-3.2.7-4.2"/><path id="XMLID_129_" class="st0" d="M180.9 92.7c1.6 4.7 6.8 10.8 6.8 10.8s-6.3-1.2-9.3-7.9c-.2 2.3-.2 3.5-.2 5.8-1.7-1.2-2.3-1.4-2.6-4 .9-3 1-5.2 1.2-7.5.2-1.4.3-2.6.5-4 .2-1 .5-2.1.9-3.3.3 1.6.7 3.1 1 4.7.5 1.8 1 3.7 1.7 5.4"/><path id="XMLID_128_" class="st0" d="M193.5 95.2c-.2-.3 0-1.2.3-1.7.2-.7.5-1.2.7-1 1 .7 1.6 1.2 2.6 1.9-.2.4-.5.7-.7.9-.6.7-1.7.9-2.9-.1"/><path id="XMLID_127_" class="st0" d="M201.7 98.1c-.2.2-.5.3-.7.3-2.4 1-2.4 0-2.1-1.6 0-.2 0-.3.2-.5 1-.6 3.5.4 2.6 1.8"/><path id="XMLID_126_" class="st0" d="M204.3 98c-.7-.2-1.2-.9-1.4-1.6 0-.5.2-.9.7-1.2.2-.2.4-.2.5-.2.7-.2 1 .4.9 1.2 0 .5-.2 1-.3 1.4l-.4.4"/><path id="XMLID_125_" class="st0" d="M190.7 87.7c.7-.2 1.6-.2 2.1-.3.2 0 .3-.2.5-.2s.2.4.2.7c0 .4-.2 1.1.2 1.7v.2c-1.1 1.2-3.7-1.4-4-1.8.3-.2.7-.3 1-.3"/><path id="XMLID_124_" class="st0" d="M202.4 94.3c-.9.2-1.7.2-2.4 0-.4-.2-.5-.3-.7-.5-.2-.2-.2-.5 0-.9.2-.2.3-.3.3-.5.4-.5.7-.7 1.1-1 1.6-1.2 2.6-.7 4 1.7-.2.3-.4.5-.7.7-.4.1-.9.3-1.6.5"/><path id="XMLID_123_" class="st0" d="M196.3 86.3c0-.3.2-.7.3-.9.9-.9 2.8 0 4.4 2.3 0 .2-.2.5-.3.7-.4.7-.9 1.4-1.4 1.9-.5.3-.9.5-1.2.9-1.1.4-1.9.2-2.3-.9-.2-.3-.2-.7-.4-1 0-.5.2-1 .2-1.6.2-.7.5-1.1.7-1.4"/><path id="XMLID_122_" class="st0" d="M209.9 96.9c-.2.2-.5.3-.7.5-.5.2-1 .5-1.4.7-1.1.3-1.6 0-1.8-1.4v-1.6-.3c.7-.9 1.8-1 2.8-.7.4.2.9.5 1 .9.4.3.6 1 .1 1.9"/><path id="XMLID_121_" class="st0" d="M195.2 83.3l.2.2c0 .2-.2.2-.2-.2"/><path id="XMLID_120_" class="st0" d="M176.2 67.8c.2.7.3 1.4.5 2.1 0 .3.2.5.2.7-.7.7-.9 1-1.6 1.6-.3.5-.5.7-.9 1-.5.5-.7.7-1.1 1.2-.2.2-.2.2-.3.4v-.7c0-.9-.2-1.6-.5-2.3-.7-1.9-2.1-3-4-3.3-.9-.2-1.6-.2-2.4 0-1.1.2-2.3.5-3.3 1.2-1.1.5-2.1 1.4-3.1 2.3-.9.9-1.6 1.9-2.3 3-.2.2-.3.3-.3.7-1.9 3.3-3.3 10.3-3.3 10.3-.5-.4-.7-.5-1.2-.9 0 0 0-.3.2-.7.2-1.4 1.4-7.3 3.1-10.6.5-1.2 1.4-2.1 2.1-3 .9-1 10.1-12.4 16.6-5.6.6.7 1.1 1.5 1.6 2.6"/><path id="XMLID_119_" class="st0" d="M190.2 78.8h1.4c1 0 2.1.2 2.8.7.3.2.5.4.7.5l.9.9c-.2.3-.3.7-.3 1-.2.4-.2.7-.2.9 0 .4-.2.5-.2.5-1.6-1.4-2.4-2.1-4.2-3.7-.4-.3-.6-.5-.9-.8"/><path id="XMLID_118_" class="st0" d="M213.4 95.9c-.5.3-1 .5-1.4.5-.2 0-.3-.2-.5-.4-.2-.4-.2-.9-.2-1.6h.2c-.3-.7-.2-.9 0-.9.5-.2 1.9.7 2.6 1.4 0 0 0 .2-.2.4s-.3.4-.5.6"/><path id="XMLID_117_" class="st0" d="M208.8 90.5c-.3.2-.5.4-1 .5-.4.2-.5.3-.7.5-.5.2-.7.2-1.2.5-.5-1.4-1-2.1-1.4-2.4-.3-.5-.5-.5 0-1.2 0 0 0-.2.2-.3.2 0 .7 0 1.4.2 1.4.2 3.5.7 2.8 2.1v.1z"/><path id="XMLID_116_" class="st0" d="M210.4 92.7c-.5 0-1-.2-1.4-.7.2 0 .2 0 .2-.2.4-.2.7-.5.9-.7.7-1 0-2.1 0-2.6-.2-.2-.2-.2 0-.3.2-.4 2.8 1.2 3.3 2.4 0 .2.2.4.2.4-.7.5-1.2 1-1.7 1.4-.6.2-1 .3-1.5.3"/><path id="XMLID_115_" class="st0" d="M181.8 66.4c.5-.4 1.2-.5 1.9-.7h1.4c.3 0 .9 0 1.2.2.5 0 1.1.2 1.6.4 2.4.9 4.7 2.8 5.9 4.7h-1.1c-.4 0-.9.2-1 .2-.5 0-1 0-1.2.2-1.2.3-.4 1.2 1.7 3.5.7.9 1.7 1.9 2.8 3.3-1.9-.9-3.3-1.4-4.5-1.6-.7-.2-1.4-.2-1.7 0-.3.2-.7.5-.7.9-.2.3 0 1 .4 1.7.5 1.4 1.9 3.1 4 5.1-.2.3-.5.5-.7.5-1.4.3-3.8-1.6-4.9-1.9-.7-.2-.9.2-.2 1.9.7 1.2 1.7 3.1 3.7 6.1 0 .2 0 .2 0 0-4.9-.2-7.5-7.1-3.8 1.7.4.9.7 1.7 1.2 3-1.4-1.2-2.4-3-3.5-4.7-1-1.9-1.9-4.2-2.6-6.3-.5-1.6-.9-3.1-1.2-4.7 0-.7-.2-1.4-.3-2.1 0-.7-.2-1.4-.2-2.1-.2-1.2-.3-2.4-.3-3.5 0-.7-.2-1.2-.2-1.7v-1.2-.5c.2-.2.3-.5.5-.7.4-.9 1.1-1.4 1.8-1.7"/><path id="XMLID_114_" class="st0" d="M202.7 83c1-.4 2.3-.2 3 .2.5.2 1 .5 1.2.9.4.4.4.9 0 1.4-.2.2-.2.4-.4.4-.5.5-1.2 1-1.9 1.4-.5.2-1 .2-1.4 0-.3-.5-.5-.9-.7-1.6-.3-.7-.5-1-.9-1.9.3-.5.8-.7 1.1-.8"/><path id="XMLID_113_" class="st0" d="M214.1 92.2c0-.5.2-.7.2-.9.7-.7 2.6.7 3.3 1.2-.3.2-.7.3-.9.5-1.7.8-2.6-.8-2.6-.8"/><path id="XMLID_112_" class="st0" d="M208.5 85.2c0-.3.2-.7 0-1.2.2-.2 0-.5 0-.9V83c.2 0 .5 0 .9.2.2 0 .5.2.7.5.5.5.9 1.2 1.4 1.6h-.2c-.2.2-.4.3-.5.3-.4.4-.7.5-.9.5-1.2.3-1.4 0-1.4-.9"/><path id="XMLID_111_" class="st0" d="M198.4 77.4c-.4.3-.5.5-.9.9-.7-1-1.1-1.7-1.7-3-.4-.3-.5-.7-.7-1.2 1 .7 1.6 1 2.6 1.7.5.3.9.5 1.4.9l-.2.2c-.2.1-.3.3-.5.5"/><path id="XMLID_110_" class="st0" d="M213 87.8c0-.2.2-.2.2-.3.3-.2.5-.2 1-.2.9.3 2.1 1.6 2.5 1.7h-.2c-.2.3-.2.5-.3.5-.4.5-.7.5-1 .4-.2 0-.4-.2-.5-.4-.4-.3-1-1-1.7-1.7"/><path id="XMLID_109_" class="st0" d="M202.4 78.4v.2c.2.3.2.7.2 1 0 .3.2.7.2 1.2-1.2.3-1.6.5-1.7.7-.3.2-.3.3-2.6.3-.2-.7 0-1.6.2-2.3.2-.5.5-1 .9-1.4.3-.2.5-.4.9-.5.4 0 .9 0 1.2.2.2.3.3.4.7.6"/><path id="XMLID_108_" class="st0" d="M204 79.1c.2-.7.5-1 1-1 1.7-.5 4.7.7 3.7 2.6l-.2.2c-.2.3-.9.7-1.4.5-.3 0-1-.2-1.4-.3-.7-.4-1.2-.7-1.4-1.1l-.2-.2c-.1-.3-.1-.5-.1-.7"/><path id="XMLID_107_" class="st0" d="M209.7 81.9l.2-.2c.9-.7.9-1.4-.3-2.3 1 .2 2.4 1 3 2.3-.4.4-1.4.4-2.3.4-.2 0-.4-.2-.6-.2"/><path id="XMLID_106_" class="st0" d="M214.6 85.2v.2c-.3.7-.7 1-.9.9-.2 0-.3-.2-.5-.2-.3-.5-.7-1.6-.9-2.6V83c1.1.1 2.3 1 2.3 2.2"/><path id="XMLID_105_" class="st0" d="M216.5 62.5c-.2-.7-.7-1.9-1.6-3.3 3.1 1.2 7.2 2.3 9.2 4.7-2.1.7-4 .4-5.4.5-1.4 0-1.9.9-.2 4.5-4-1.8-10.1-3.5-4.4 3.1-1.7-1.1-3.3-1.9-4.4-2.3-3.8-1.6-3.8.3-3.1 3.8-5.2-1.4-6.8-3.1-5.6 1.2 0 .2 0 .3.2.3-1.2-.2-2.6-1.9-3.8-3v-.2c0-5.2-6.1-8.4-11-8.9-.9-.2-1.7-.2-2.4 0h-.5c.2 0 .4-.2.5-.2.5-.2 1.2-.3 1.7-.5 3.1-.5 6.3.2 7.3.4-.9-.2-2.6-.7-6.1-2.1 2.6-1.9 22 5.8 6.8-2.3.7-.2 1.6-.2 2.3 0 6.8 1.2 16.2 12 5.1-1 4.5.9 14.1 11.3 6.8.5 3 .1 10.5 9.4 8.6 4.8"/><path id="XMLID_104_" class="st0" d="M219 77c-1-.2-2.1-.4-3-.7-2.4 2.6 11 7.7 2.8 7.3 4.7 2.6 6.5 1.9 7.9 3.7h-5.8c.4 1.6 1.9 1.9 1.9 1.9-1 .2-1.9.2-2.6 0-1.6-.3-2.3-1.2-2.6-1.7-.2-.4-.2-.7-.2-.7-1-2.3-2.1-4.4-4.2-7.3-1.1-.2-7.5-4.5-10-3-.3.2-.7.5-.7.5s.4-.4.4-.7c.3-1 1-2.4 6.8-.3.4-.5-.9-1.4.9-3.1 1.6.7 3 1 4.5 1.2 5.1.5 8.2 3.1 3.9 2.9"/><path id="XMLID_103_" class="st0" d="M204 55.2c.2.2.5.2.7.2-.7.2-1.1.2-.7-.2"/><path id="XMLID_102_" class="st0" d="M210.6 48.4c3.5-.2 7.3.3 10.8 3.3 0 0-3 2.1-2.1 2.8 2.8 1.7 7 4.5 8 8.4.2.4.2.7.2.9-2.6-2.4-6.1-4.2-9.6-5.4-3-.9-5.9-1.6-8.7-2.1-1.6-.3-3.1-.5-4.5-.9.7-.2 1.6-.3 2.8-.7 1.4-.4 3.1-1 4.5-1.4 1.4-.5 2.3-.9 2.1-.9-.5-.3-1.7-.3-3.1 0-1.6.2-3.3.5-5.1.9-4.7 1.2-9.8 3-9.2 2.1.3-.5 2.6-1.7 7.2-3.8h.4c-.4-.2-.5-.3-.9-.3-2.3-.5-6.4 1.9-10.6 4.2-2.4 1.4-4.7 2.8-6.8 3.5.7-1.4 2.8-3.3 4.9-5.1 3.3-2.6 6.8-5.1 6.3-5.4-1.2.7-4 2.4-6.8 4.9-2.4 2.1-4.9 4.5-7 7-.3.5-.7.9-1 1.2-.2.2-.2.4-.3.5-.2.2-.4.4-.4.5-.2.4-.3.5-.7.9 0 0-.2-.2-.2-.3-.2-.2-.2-.7 0-1.1 0-.3.2-.5.3-.7 0-.4.2-.5.2-.7.3-.3.5-.9.9-1.2 1.6-2.4 4.2-5.2 6.5-7.7 1.9-2.1 3.8-3.8 4.4-4.7-1.6 1-3.3 2.4-5.1 4.2-2.4 2.3-4.9 5.1-6.8 7.3-.3.4-.7.7-1 1-.2.2-.3.4-.3.5-.2.2-.5.3-.5.5-.2 0-.2.2-.3.2-.3-.2-.5-.5-.5-.9s0-.5.2-.9c0-.3 0-.5.2-.7.2-.3.4-.9.7-1.4 1.6-2.3 4.2-4.9 6.6-7.5 1.4-1.4 2.6-2.8 3.5-4-1.4 1.2-2.8 2.3-4.2 3.5-2.8 2.3-5.4 4.7-7.2 7-.2.5-.5 1-.7 1.4-.2.2-.2.4-.3.5 0 .3-.2.5-.2.9-.2.2-.2.2-.2.3 0-.2-.2-.3-.2-.7 0-.3-.2-.7-.2-1-.2-.3-.2-.7-.2-1-.2-.7-.2-1.6-.3-2.3-.4-4.4 1-8.4 2.8-11.2.5-.9 1.1-1.6 1.7-2.3.9 1.6.2 5.2 3.3 4.7-.2-.7 2.6-4.7 5.6-7 .9-.7 1.7-1.2 2.4-1.4 0 .2-1 .9-1.9 1.9-1.2 1.4-2.4 3.1-1.2 4.2 1.4 0 2.8-.9 4-1.6 1.6-.9 3-1.7 4.4-1.7.7 0 1.2 0 1.9.3l-.7.7c-.9 1.2-1.7 2.6-2.3 3.7-.4.9-.4 1.6 0 2.1.7-.4 1-.4 1.6-.7 1.7-.7 2.6-1 4.4-1.8 1-.3 1.6-.7 2.8-1 0 .7-.7 1.7-.9 3 0 .4 0 .9.4 1.2.3 0 .5-.2.9-.2 1.2-.5 1.8-.7 3-1 1-.4 1.6-.5 2.6-.9-.5.7-1.2 1-1.9 1.6-.5.5-1 1.2-1 2.1.5-.1 1.4-.1 2.6-.3"/><path id="XMLID_101_" class="st0" d="M53.2 83.5c-.3-1.4-1-2.3-1.7-3.3-.5-.5-1-1.2-1.7-1.7.2.7.5 1.7.7 2.6.3 1.2.7 2.4 1 3.8.3 1 .5 2.4.7 3.7.3 1.7.5 3.5.7 5.1.5 2.8.9 4.4 1.4 7.2 0 0-.2-5.1.5-5.9.7-.9 2.3 1.9 2.3 1.9.3-2.6-2.3-7.5 3-1.4-1.6-5.1-1-7.7 2.4-3.3-1.7-4.2-6.1-8.7-1.1-6.3-.9-.9-1.4-1.4-2.3-2.4-.9-1-1.4-1.6-2.4-2.4.4 1.7.5 3.1.5 4 .2 1 0 1.4-.5 1.4v-1.1c-.2-1.4-.5-2.6-.9-3.7-.4-1.4-.9-2.4-1.6-3.5-.5-.9-1.1-1.7-1.7-2.4-.3-.3-.7-.7-1-1.2-.2-.3-.5-.5-.9-1-.2 0-.2 0-.2-.2v.4c.2.5.5.9.7 1.2.2.5.3 1 .5 1.4.5 1.2.9 2.1 1.2 3 .7 1.4 1 2.6 1.2 3.7.3 1.6.3 2.8.2 4.4 0 .4 0 .7-.2 1.1v-.9c-.1-2-.4-3.2-.8-4.2"/><path id="XMLID_100_" class="st0" d="M46.6 92.7c-1.6 4.7-6.8 10.8-6.8 10.8s6.1-1.2 9.2-7.9c.2 2.3.2 3.5.2 5.8 1.7-1.2 2.3-1.4 2.6-4-.9-3-1-5.2-1.2-7.5-.2-1.4-.3-2.6-.5-4-.2-1-.5-2.1-.9-3.3-.3 1.6-.7 3.1-1 4.7-.4 1.8-.9 3.7-1.6 5.4"/><path id="XMLID_99_" class="st0" d="M34 95.2c.2-.3 0-1.2-.3-1.7-.2-.7-.5-1.2-.7-1-1.1.7-1.6 1.2-2.6 1.9.2.4.5.7.7.9.6.7 1.5.9 2.9-.1"/><path id="XMLID_98_" class="st0" d="M25.8 98.1c.2.2.5.3.7.3 2.4 1 2.4 0 2.1-1.6 0-.2-.2-.3-.2-.5-1-.6-3.5.4-2.6 1.8"/><path id="XMLID_97_" class="st0" d="M23.2 98c.7-.2 1.2-.9 1.4-1.6 0-.5-.2-.9-.7-1.2-.2-.2-.4-.2-.5-.2-.9-.2-1 .4-1 1.2.2.5.3 1 .5 1.4.1.2.1.2.3.4"/><path id="XMLID_96_" class="st0" d="M36.6 87.7c-.5-.2-1.4-.2-1.9-.3-.2 0-.4-.2-.5-.2-.2 0-.2.4-.2.7 0 .4.2 1.1-.2 1.7v.2c1 1.2 3.7-1.4 4-1.8-.3-.2-.6-.3-1.2-.3"/><path id="XMLID_95_" class="st0" d="M25.1 94.3c.9.2 1.7.2 2.4 0 .3-.2.5-.3.7-.5.2-.2.2-.5 0-.9-.2-.2-.4-.3-.5-.5-.2-.5-.5-.7-.9-1-1.6-1.2-2.6-.7-4 1.7.2.3.4.5.7.7.4.1.9.3 1.6.5"/><path id="XMLID_94_" class="st0" d="M31.2 86.3c0-.3-.2-.7-.3-.9-.9-.9-3 0-4.5 2.3.2.2.3.5.3.7.5.7 1 1.4 1.6 1.9.5.3.9.5 1.2.9 1 .4 1.9.2 2.3-.9.2-.3.2-.7.4-1 0-.5-.2-1-.2-1.6-.3-.7-.6-1.1-.8-1.4"/><path id="XMLID_93_" class="st0" d="M17.6 96.9c.2.2.5.3.7.5.5.2 1.1.5 1.4.7 1.1.3 1.6 0 1.7-1.4v-1.6-.3c-.7-.9-1.7-1-2.8-.7-.5.2-.9.5-1.1.9-.2.3-.4 1 .1 1.9"/><path id="XMLID_92_" class="st0" d="M32.3 83.3l-.2.2c0 .2.2.2.2-.2"/><path id="XMLID_91_" class="st0" d="M51.3 67.8c-.2.7-.3 1.4-.5 2.1 0 .3-.2.5-.2.7.7.7.9 1 1.6 1.6.3.5.5.7.9 1 .5.5.7.7 1.1 1.2.2.2.2.2.3.4v-.7c0-.9.2-1.6.5-2.3.7-1.9 2.1-3 4-3.3.9-.2 1.6-.2 2.4 0 1.1.2 2.3.5 3.3 1.2 1 .5 2.1 1.4 3.1 2.3.9.9 1.6 1.9 2.3 3 .2.2.3.3.3.7C72.3 79 73.7 86 73.7 86c.5-.4.7-.5 1.2-.9 0 0-.2-.3-.2-.7-.2-1.4-1.4-7.3-3.1-10.6-.5-1.2-1.4-2.1-2.1-3-.9-1-10.1-12.4-16.6-5.6-.6.7-1.1 1.5-1.6 2.6"/><path id="XMLID_90_" class="st0" d="M37.3 78.8h-1.4c-1 0-2.1.2-2.8.7-.3.2-.5.4-.7.5-.4.2-.5.5-.9.9.2.3.3.7.3 1 .2.4.2.7.2.9 0 .4 0 .5.2.5 1.6-1.4 2.4-2.1 4-3.7.6-.3.8-.5 1.1-.8"/><path id="XMLID_89_" class="st0" d="M14.1 95.9c.5.3 1 .5 1.4.5.2 0 .3-.2.5-.4.2-.4.2-.9 0-1.6.4-.7.2-.9 0-.9-.5-.2-1.9.7-2.8 1.4.2 0 .2.2.2.4.2.2.6.4.7.6"/><path id="XMLID_88_" class="st0" d="M18.7 90.5c.3.2.5.4 1 .5.2.2.4.3.7.5.5.2.7.2 1 .5.7-1.4 1.2-2.1 1.6-2.4.4-.5.5-.5 0-1.2 0 0 0-.2-.2-.3-.2 0-.7 0-1.4.2-1.4.2-3.5.7-2.8 2.1v.1z"/><path id="XMLID_87_" class="st0" d="M17.1 92.7c.5 0 1-.2 1.4-.7-.2 0-.2 0-.2-.2-.5-.2-.7-.5-.9-.7-.7-1 0-2.1 0-2.6.2-.2.2-.2 0-.3-.2-.4-2.8 1.2-3.3 2.4-.1.2-.1.4-.1.4.5.5 1.2 1 1.7 1.4.5.2.9.3 1.4.3"/><path id="XMLID_86_" class="st0" d="M45.7 66.4c-.5-.4-1.2-.5-1.9-.7h-1.4c-.3 0-.9 0-1.2.2-.5 0-1 .2-1.6.4-2.4.9-4.7 2.8-5.9 4.7h1.1c.3 0 .7.2 1 .2.5 0 .9 0 1.2.2 1.2.3.3 1.2-1.7 3.5-.7.9-1.7 1.9-2.8 3.3 1.9-.9 3.3-1.4 4.5-1.6.7-.2 1.4-.2 1.7 0 .3.2.7.5.7.9.2.3 0 1-.3 1.7-.5 1.4-1.9 3.1-4 5.1.2.3.4.5.7.5 1.4.3 3.8-1.6 4.9-1.9.7-.2.9.2.2 1.9-.7 1.2-1.7 3.1-3.7 6.1 0 .2 0 .2 0 0 4.9-.2 7.5-7.1 3.8 1.7-.3.9-.7 1.7-1.2 3 1.4-1.2 2.4-3 3.5-4.7 1-1.9 1.9-4.2 2.6-6.3.5-1.6.9-3.1 1.2-4.7 0-.7.2-1.4.4-2.1 0-.7.2-1.4.2-2.1.2-1.2.3-2.4.3-3.5 0-.7.2-1.2.2-1.7v-1.2-.5c-.2-.2-.3-.5-.5-.7-.6-.9-1.3-1.4-2-1.7"/><path id="XMLID_85_" class="st0" d="M24.8 83c-1-.4-2.3-.2-3 .2-.5.2-1 .5-1.2.9-.4.4-.4.9 0 1.4.2.2.2.4.3.4.4.5 1.2 1 1.9 1.4.5.2 1 .2 1.4 0 .3-.5.3-.9.7-1.6.4-.7.5-1 .9-1.9-.2-.5-.7-.7-1-.8"/><path id="XMLID_84_" class="st0" d="M13.4 92.2c0-.5-.2-.7-.2-.9-.7-.7-2.6.7-3.3 1.2.4.2.7.3.9.5 1.8.8 2.6-.8 2.6-.8"/><path id="XMLID_83_" class="st0" d="M19 85.2c-.2-.3-.2-.7-.2-1.2 0-.2.2-.5.2-.9V83c-.3 0-.5 0-.9.2-.2 0-.5.2-.7.5-.5.5-.9 1.2-1.4 1.6h.2c.2.2.3.3.5.3.3.4.7.5.9.5 1.2.3 1.4 0 1.4-.9"/><path id="XMLID_82_" class="st0" d="M29.1 77.4c.4.3.5.5.9.9.7-1 1-1.7 1.7-3 .4-.3.5-.7.7-1.2-1.1.7-1.6 1-2.6 1.7-.5.3-.9.5-1.4.9v.2c.4.1.6.3.7.5"/><path id="XMLID_81_" class="st0" d="M14.5 87.8c0-.2-.2-.2-.2-.3-.4-.2-.5-.2-1-.2-.9.3-2.1 1.6-2.4 1.7h.1c.2.3.2.5.3.5.3.5.7.5 1 .4.2 0 .3-.2.5-.4.5-.3 1-1 1.7-1.7"/><path id="XMLID_80_" class="st0" d="M25.1 78.4s0 .2-.2.2v1c0 .3-.2.7-.2 1.2 1.2.3 1.4.5 1.7.7.3.2.3.3 2.6.3.2-.7 0-1.6-.2-2.3-.2-.5-.5-1-.9-1.4-.3-.2-.5-.4-.9-.5-.3 0-.9 0-1.2.2-.2.3-.3.4-.7.6"/><path id="XMLID_79_" class="st0" d="M23.5 79.1c-.2-.7-.5-1-1-1-1.7-.5-4.7.7-3.7 2.6l.2.2c.2.3.9.7 1.4.5.4 0 1-.2 1.4-.3.7-.4 1.2-.7 1.4-1.1l.2-.2c0-.3.1-.5.1-.7"/><path id="XMLID_78_" class="st0" d="M17.8 81.9l-.2-.2c-.9-.7-.9-1.4.4-2.3-1 .2-2.4 1-3 2.3.3.4 1.4.4 2.1.4.3 0 .5-.2.7-.2"/><path id="XMLID_77_" class="st0" d="M12.9 85.2v.2c.3.7.7 1 .9.9.2 0 .4-.2.4-.2.3-.5.9-1.6 1-2.6V83c-1.1.1-2.3 1-2.3 2.2"/><path id="XMLID_76_" class="st0" d="M11 62.5c.2-.7.7-1.9 1.6-3.3-3.1 1.2-7.2 2.3-9.2 4.7 2.1.7 4 .4 5.4.5 1.4 0 1.9.9.2 4.5 4-1.8 9.9-3.5 4.4 3.1 1.7-1.1 3.1-1.9 4.4-2.3 3.7-1.6 3.8.3 3.1 3.8 5.2-1.4 6.8-3.1 5.6 1.2 0 .2 0 .3-.2.3 1.2-.2 2.6-1.9 3.8-3v-.2c0-5.2 6.1-8.4 11-8.9.9-.2 1.6-.2 2.4 0h.5c-.2 0-.3-.2-.5-.2-.5-.2-1.2-.3-1.7-.5-3.1-.5-6.3.2-7.3.4.9-.2 2.6-.7 6.1-2.1-2.6-1.9-22 5.8-6.8-2.3-.7-.2-1.6-.2-2.3 0-6.8 1.2-16.2 12-5.1-1-4.5.9-14.1 11.3-6.8.5-3 .1-10.5 9.4-8.6 4.8"/><path id="XMLID_75_" class="st0" d="M8.5 77c1-.2 2.1-.4 3-.7 2.4 2.6-11 7.7-2.8 7.3C4 86.2 2.2 85.5.9 87.3h5.8c-.4 1.6-1.9 1.9-1.9 1.9 1 .2 1.9.2 2.6 0 1.6-.3 2.3-1.2 2.4-1.7.3-.4.3-.7.3-.7 1-2.3 2.1-4.4 4-7.3 1.2-.2 7.7-4.5 10.1-3l.5.5s-.2-.4-.2-.7c-.3-1-1-2.4-7-.3-.2-.5 1.1-1.4-.7-3.1-1.6.7-3.1 1-4.5 1.2-5 .5-8.1 3.1-3.8 2.9"/><path id="XMLID_74_" class="st0" d="M23.5 55.2c-.2.2-.5.2-.7.2.7.2 1.1.2.7-.2"/><path id="XMLID_73_" class="st0" d="M16.9 48.4c-3.7-.2-7.3.3-10.8 3.3 0 0 3 2.1 2.1 2.8-3 1.7-7 4.5-8 8.4-.2.3-.2.7-.2.9 2.6-2.4 6.1-4.2 9.6-5.4 3-.9 5.9-1.6 8.7-2.1 1.6-.3 3.1-.5 4.5-.9-.7-.2-1.7-.3-2.8-.7-1.4-.4-3.1-1-4.5-1.4-1.4-.5-2.3-.9-2.1-.9.5-.3 1.6-.3 3.1 0 1.4.2 3.3.5 5.1.9 4.7 1.2 9.8 3 9.2 2.1-.4-.5-2.6-1.7-7.2-3.8h-.3c.2-.2.5-.3.9-.3 2.3-.5 6.5 1.9 10.6 4.2 2.4 1.4 4.7 2.8 6.8 3.5-.7-1.4-2.8-3.3-4.9-5.1-3.3-2.6-6.8-5.1-6.3-5.4 1.2.7 4 2.4 6.8 4.9 2.4 2.1 4.9 4.5 7 7 .4.5.7.9 1.1 1.2.2.2.2.4.4.5.2.2.3.4.3.5.2.4.3.5.7.9 0 0 .2-.2.2-.3.2-.2.2-.7 0-1.1 0-.3-.2-.5-.4-.7 0-.4-.2-.5-.2-.7-.3-.3-.5-.9-.9-1.2-1.6-2.4-4.2-5.2-6.5-7.7-1.9-2.1-3.8-3.8-4.4-4.7 1.6 1 3.3 2.4 5.1 4.2 2.4 2.3 4.9 5.1 6.8 7.3l1 1c.2.2.2.4.3.5.2.2.5.3.5.5.2 0 .2.2.4.2.3-.2.5-.5.5-.9s0-.5-.2-.9c0-.3 0-.5-.2-.7-.2-.3-.3-.9-.7-1.4-1.6-2.3-4.2-4.9-6.6-7.5-1.4-1.4-2.6-2.8-3.5-4 1.4 1.2 2.8 2.3 4.2 3.5 2.8 2.3 5.4 4.7 7.2 7 .2.5.5 1 .7 1.4.2.2.2.4.3.5 0 .3.2.5.2.9.2.2.2.2.2.3 0-.2.2-.3.2-.7 0-.3.2-.7.2-1 .2-.3.2-.7.2-1 .2-.7.2-1.6.3-2.3.4-4.4-1-8.4-2.8-11.2-.5-.9-1-1.6-1.7-2.3-.9 1.6-.2 5.2-3.3 4.7.2-.7-2.6-4.7-5.6-7-.9-.7-1.7-1.2-2.4-1.4 0 .2 1 .9 1.9 1.9 1.2 1.4 2.4 3.1 1.2 4.2-1.4 0-2.8-.9-4-1.6-1.6-.9-3-1.7-4.4-1.7-.7 0-1.2 0-1.9.3.2.2.3.5.7.7.7 1.2 1.7 2.6 2.3 3.7.4.9.4 1.6-.2 2.1-.5-.4-.9-.4-1.4-.7-1.7-.7-2.6-1-4.4-1.8-1-.3-1.6-.7-2.8-1 0 .7.7 1.7.9 3 0 .4 0 .9-.4 1.2-.3 0-.5-.2-.9-.2-1.2-.5-1.7-.7-3-1-1-.4-1.6-.5-2.6-.9.5.7 1.2 1 1.9 1.6.5.5 1.1 1.2 1.1 2.1-.8-.1-1.8-.1-2.9-.3"/><path id="XMLID_72_" class="st0" d="M113.6 122.4C64.6 101.3 55.5 61.8 56 22.2c20.1-4.9 39.4-11.7 57.6-20.8 18.5 9.1 37.7 15.9 57.9 20.8.5 39.6-8.5 79.1-57.9 100.2"/><path id="XMLID_71_" class="st1" d="M113.6 116.6c-44.3-19-52.7-54.8-52.2-90.7 18.3-4.4 35.8-10.5 52.2-18.7 16.7 8.2 34.2 14.3 52.5 18.7.5 35.9-7.8 71.7-52.5 90.7z"/><path id="XMLID_70_" class="st2" d="M113.6 116.6c-44.3-19-52.7-54.8-52.2-90.7 18.3-4.4 35.8-10.5 52.2-18.7 16.7 8.2 34.2 14.3 52.5 18.7.5 35.9-7.8 71.7-52.5 90.7z"/><path id="XMLID_69_" class="st3" d="M113.7 7.9C97.3 15.9 80 22 62.1 26.4c-.5 35.8 7.7 71.4 51.6 90.4V7.9z"/><path id="XMLID_68_" class="st4" d="M113.7 7.9C97.3 15.9 80 22 62.1 26.4c-.5 35.8 7.7 71.4 51.6 90.4V7.9z"/><path id="XMLID_65_" class="st5" d="M165.4 29.4c0 30.7-6.8 67.2-51.8 86.5-44.7-19.3-51.5-55.8-51.5-86.5v-3C80.3 22.2 97.7 16 113.6 7.9c16.2 8 33.7 14.1 51.8 18.5v3m.9-4.2c-18.5-4.4-36-10.6-52.4-18.7l-.3-.2-.2.2c-16.2 8-33.8 14.3-52.2 18.7l-.5.2V30.6c.2 30.9 7.3 67.3 52.7 86.7l.2.2.3-.2c20.8-8.9 35.1-21.8 43.4-39.4 6.5-13.3 9.4-29 9.4-49v-3.5l-.4-.2z"/><path id="XMLID_64_" class="st0" d="M90.7 25.4c-.2 0-.3.2-.5.2-.3.2-.7.3-.9.5-1 .9-.9 2.1-.5 2.4.3.3 1.2-.2 1.4-.9 1.1.5-.7 2.4-2.3 1.4-1.4-1 0-4.5 2.8-5.4.4 0 .2 1.8 0 1.8"/><path id="XMLID_63_" class="st0" d="M81.5 37.4c.2 0 .7-1 .9-1 0 0 2.3 1.9 2.4 3.8-.2.2.3.3-.5.2-.2-.2-2.1-2.3-2.3-2.3-.2 0 .4 1.2.2 1.2s-1.6-1.6-1.7-1.6c-.2 0 .7 1.2.5 1.2-.7-.2-3.1-1.2-4.9-1.2 0 0 2.8 1.1 3.5 1.2.2 0-2.8.7-2.6.7.2.2 2.6-.5 5.1.3l-.9.3c.2.2 1.9.5 2.1.7-.3 1.9-5.8 2.3-7 3.1.5 0 4.2-.5 4.4-.4 0 .2-4.5 1.7-4.5 1.9-.2.2 2.6-.7 3.1-.5.2 0-1.7 1.2-2.8 2.3-.2 0 1.9-.5 1.7-.5-1.2 1.9-1.7 4-1.7 4.7-.2.2 0 .7-.2.5 0 0-.7-.9-.9-2.6 0-.2-.9.7-.9.5 0-.7.7-1.9.9-2.8-.5 0-1.2 1.4-1.4 1.2 0-.2 1-3.1 1-3.3-.2-.2-1.7 1-1.7.7 0-.4 1.7-2.3 1.6-2.4-.2 0-1.4-.7-1.6-1.2.2-.3 5.9.9 6.3-.3 1-2.8-4.7-.4-4.5-.7.3-.5 0-1.4.3-1.8 0-.2-1.4.4-1.7 0 .2-.2.9-1 1.4-1.6.2.2-2.1-1.1-2.1-1.4 0-.4 2.6.2 3 .3.3 0-.2-1.4.2-1.2.4.2 1.6 1 1.9 1.2.7.2-.2-1.4.2-1.4.5-.2 1.6 2.1 1.9 1 .4-.7-.2-.9.2-1 .2.3.9 2.2 1.1 2.2"/><path id="XMLID_62_" class="st0" d="M90 42.7c.2.2-1-.2-1 .2.5.7 1 1.7 1 2.5-.2.3-1.2-1.2-1.4-.9-.2.7 2.1 2.8 1.6 3.3-.3.2-1.4-.5-1.6-.9 0 0 .7 1.6.7 2.3l-1.2-.9c.2 1.2-.2 2.4-.4 2.6 0 .9-.9-3.1-.9-2.3-.2.2-.7 1.2-.9 1.2-.3-.4 0-1 .2-1.6 0-.3-1 .2-1.2 0 0-.2.5-.9.7-1 0-.7.2-1.6-1.2-1.4-2.8.3.5 2.6-.2 3.8-.2.2-1.7-1.4-1.7-1.4-.7.5.5 1 0 1.7-.2.2-1.2-1.2-1-1.2l-.5 1.6-.7-1.4c-.7 1-.4 1.7-.7 3-.2.2-.5-1.6-.7-1.6-.2.3-2.1 2.1-2.3 1.9.5-1.4 1.4-3.5 2.1-4.5.2-.2.2 1.6.3 1.4.5-.7.3-2.3 1.2-3.1.2-.4.2 1.7.5 1.6.2-.4.5-3.5.9-3.7.2-.2.3 2.8.5 2.8.2-.2 0-4 2.6-4.7 0-.2.2 1.4.3 1.6 0 .2.3-.5.3-.4.2.2 1.6 4.4 1.7 4.4.2-.2-.9-4.2-.9-4.5 0 0 1.2 1.7 1.4 1.7.2 0-1.6-3-1.6-3 0-.2 2.3 1.7 2.3 1.6-.5-1-2.4-2.4-2.4-2.4.7-1 4.1 1.3 4.2 1.7"/><path id="XMLID_61_" class="st0" d="M101.2 69.7c-.2 0-.4-1.7-.5-1.7-.2 0-2.3 2.8-1.9 4.7 0 0 .9 1.2 1.4.7.2 0 1.7-2.6 1.7-2.6.2-.2 0 1.2.2 1.2s1.2-1.8 1.4-1.9c.2 0-.5 1.4-.3 1.4.7-.3 2.8-2.1 4.5-2.3 0 0-2.6 1.6-3.1 1.9-.2 0 2.8 0 2.6.2 0 0-2.6 0-4.7 1.2-.2.2.9.2.7.3 0 .2-1.7.9-1.7 1 .7 1.9 6.3 1.1 7.5 1.6-.5 0-4.2.4-4.2.5 0 .2 4.7.7 4.7.9.2.2-2.6 0-3.1.4-.2 0 1.9.7 3.1 1.4.2.2-1.9 0-1.7 0 1.6 1.6 2.6 3.5 2.8 4.2 0 .2.2.7.2.5 0 0 .5-1.2.2-2.8 0-.2 1 .3 1 .2-.2-.7-1-1.6-1.4-2.4.5-.2 1.6 1 1.6.9 0-.2-1.6-2.8-1.6-3 0-.2 1.7.5 1.7.4-.2-.4-2.3-1.9-2.1-1.9 0-.2 1-1 1.2-1.6-.2-.5-5.6 2.1-6.3.9-1.6-2.4 4.5-1.4 4.4-1.6-.5-.5-.3-1.4-.7-1.7-.2-.2 1.4.2 1.6-.2-.2-.2-1.1-1-1.6-1.4-.2.2 1.9-1.4 1.7-1.8-.2-.3-2.6.7-2.8.9-.4.2-.2-1.2-.5-1-.3.2-1.4 1.4-1.6 1.6-.2 0-.2-1.4-.5-1.4-.5 0-1.2 1.4-1.7 1.6-.3 0 .5-1.6.2-1.6-.5-.2-2.4 2.3-2.4 2.3"/><path id="XMLID_60_" class="st0" d="M95.3 76.9c0 .2 1-.3.9 0-.2.9-.5 1.9-.2 2.6.2.4.9-1.4 1-1 .2.5-1.4 3.1-.9 3.5.4 0 1.2-.9 1.4-1.2 0 0-.3 1.6-.2 2.4 0 0 .9-1.2.9-1 .3 1.2.9 2.3 1 2.3.2.9.2-3.1.4-2.3l.9.9c.3-.4-.2-.9-.3-1.4-.2-.5 1 0 1-.3l-.9-.9c-.2-.5-.3-1.4.9-1.6 3-.2.2 2.8 1 3.7.2.2 1.4-1.8 1.4-1.8.7.4-.2 1.2.3 1.8.2.2 1-1.4.7-1.4l.9 1.4.3-1.6c1 .9.7 1.7 1.4 2.8.2.2.2-1.6.4-1.7.3.4 2.6 1.7 2.6 1.4-.9-1.2-2.1-3-3.1-4-.2-.2.3 1.7 0 1.4-.5-.3-.9-2.1-1.7-2.8-.3-.2.2 1.9-.2 1.8-.3-.2-1.4-3.1-1.7-3.3-.2-.2.4 2.8.2 2.8-.3-.2-.9-4-3.5-4-.2-.2 0 1.4 0 1.6 0 .2-.4-.5-.5-.3 0 .2-.5 4.7-.7 4.7v-4.5s-.9 2.1-1 1.9c-.2 0 .9-3.1.9-3.1 0-.2-1.7 2.1-1.7 1.9.2-1.2 1.7-2.8 1.7-2.8-.8-1.1-3.5 1.7-3.6 2.1"/><path id="XMLID_59_" class="st0" d="M86.9 75.6c0 .5-.5.9-.3 1.4-.3.5.3 1-.2 1.6-.4 0-.9 0-1.1-.3 0-.9-.2-1.9.7-2.4.2-.2.7-1 1.1-.9l-.2.6z"/><path id="XMLID_58_" class="st0" d="M80.3 62.9v.4c-.2.5-1.7 1.2-2.1 1-.3-.2-.5-1-.5-1.8 0-.5 1.2-.7 1.7-.3.3.3.7.2.9.7"/><path id="XMLID_57_" class="st0" d="M85.7 64.6l-.2.4c-.2.5.9 1.9 1 1.9.3.2 1-.5 1.4-1.1.3-.5-.5-1.2-1.2-1.2-.3-.1-.5-.3-1 0"/><path id="XMLID_56_" class="st0" d="M78.7 67.2c-.4.4-.9.2-1.6.4-.3-.4-.5-.9-.5-1.4 0-.4.2-.7.3-1 .3-.2.7-.2.9 0 .4.5 1.1 1.4.9 2"/><path id="XMLID_55_" class="st0" d="M84.4 69.2c.2.5.7.5 1 1 .5 0 .9-.3 1.2-.7.3-.4.3-.7.3-1.1-.2-.3-.5-.5-.9-.5-.3.2-1.4.4-1.6 1.3"/><path id="XMLID_54_" class="st0" d="M85.5 66.4c.2.3.5.9 0 1.2-.2.2-1.2.9-1.6.7-.5-.2-.7-.7-1-1.2-.2-.4.5-1.1 1-1.2.2 0 1.6.3 1.6.5"/><path id="XMLID_53_" class="st0" d="M79.4 64.3c-.3.3-.9.5-.7 1 0 .3.5 1.6.9 1.6.5.2 1-.2 1.6-.3.3-.2.2-1-.2-1.6 0-.2-1.4-.7-1.6-.7"/><path id="XMLID_52_" class="st0" d="M77.5 70.7c-.2.2-.5.7-.2 1 0 .2.7.9.9.7.4 0 .7 0 .9-.5 0-.4-.2-.7-.5-1-.4-.3-1-.2-1.1-.2"/><path id="XMLID_51_" class="st0" d="M83.2 72.7c.2.3.2.9-.3 1-.2 0-1 .2-1 0-.3-.2-.5-.5-.3-.9.2-.3.5-.5.9-.7.4 0 .7.4.7.6"/><path id="XMLID_50_" class="st0" d="M86.5 62.5c-.3.4-.3.4-.7.4-.9.2-1.7-.5-1.7-.7 1.2-.7 2.3-1.6 3-3 .3-.1.5 2.3-.6 3.3"/><path id="XMLID_49_" class="st0" d="M87.9 63.9c-.4 0-.7-.2-.9-.5 0-.2 0-.5.2-.9.9 0 2.1 0 2.8-.9.2.2-.1 2-2.1 2.3"/><path id="XMLID_48_" class="st0" d="M80.8 60.8c.2.4.2.5.4.5.7.7 1.7.7 1.9.5-.7-1.2-1-2.6-.7-4-.2-.3-1.8 1.4-1.6 3"/><path id="XMLID_47_" class="st0" d="M78.9 61c.3.2.7.4 1 .2.2-.2.4-.5.4-.7-.7-.7-1.6-1.4-1.7-2.4-.3-.1-1 1.5.3 2.9"/><path id="XMLID_46_" class="st0" d="M82.3 65.9c.3 0 1.6-.5 1.9-.9.3-.2.5-.7.5-1-.2-.3-1.2-.9-1.6-1-.3-.2-1.4-.4-1.6-.2-.3.2-.5.9-.5 1.2.2.5.7 1.6 1 1.7l.3.2z"/><path id="XMLID_45_" class="st0" d="M81.1 69.7c.3 0 1.4-.5 1.7-.9.3-.2.2-.7 0-.9 0-.3-.7-.9-1-.9-.3-.2-1-.2-1.2 0-.2.2-.7.5-.5.9 0 .3.5 1.4.9 1.6l.1.2z"/><path id="XMLID_44_" class="st0" d="M80.3 72.3c.3 0 1.2-.3 1.4-.5.3-.2.2-.7 0-.9 0-.2-.5-.5-.9-.7-.2 0-.9 0-1 .2-.2 0-.5.3-.4.7 0 .2.5 1.1.7 1.2h.2z"/><path id="XMLID_43_" class="st0" d="M79.6 74.6c.2 0 .9-.2 1-.5.2-.2.2-.4 0-.5 0-.2-.3-.5-.7-.5-.2-.2-.7-.2-.9 0-.2 0-.3.4-.3.5.2.3.5.9.7 1h.2z"/><path id="XMLID_42_" class="st0" d="M77.5 68.1c-.4.2-.7.9-.4 1.2 0 .4 1 .9 1.4.7.5 0 1.2-.2 1.4-.7 0-.5-.3-1-.7-1.2-.5-.3-1.6-.1-1.7 0"/><path id="XMLID_41_" class="st0" d="M84.8 70.4c.2.5.2 1.2-.4 1.4-.2 0-1.4 0-1.6-.4-.3-.3-.9-.9-.5-1.4.2-.5.7-.5 1.2-.5.6 0 1.3.7 1.3.9"/><path id="XMLID_40_" class="st0" d="M104.2 33.8v.2c.2.5 1.7.9 2.1.7.2-.2.3-.9.2-1.4 0-.5-1-.5-1.6-.2-.4.3-.6.1-.7.7"/><path id="XMLID_39_" class="st0" d="M99.6 35.5s0 .2.2.3c.2.3-.7 1.6-.9 1.6-.4.2-1-.2-1.4-.7-.3-.3.4-1 1-1 .4-.2.6-.4 1.1-.2"/><path id="XMLID_38_" class="st0" d="M105.9 37.1c.5.3.9 0 1.4.2.4-.2.5-.7.5-1.2 0-.2-.2-.5-.5-.7-.2-.2-.5-.2-.7 0-.3.4-.9 1.1-.7 1.7"/><path id="XMLID_37_" class="st0" d="M100.8 39c0 .5-.5.7-.9 1-.2.2-.7-.2-1-.5-.2-.2-.2-.5-.4-.9.2-.2.4-.4.7-.4.6.3 1.5.3 1.6.8"/><path id="XMLID_36_" class="st0" d="M99.8 36.9c0 .4-.3.7 0 1.1.2.2 1 .5 1.4.3.5-.2.7-.7.9-1 .2-.2-.5-.7-.9-.9-.2 0-1.4.3-1.4.5"/><path id="XMLID_35_" class="st0" d="M105 34.8c.3.2.9.3.9.7 0 .3-.3 1.4-.7 1.4-.5.2-1 0-1.6-.2-.3 0-.2-.9 0-1.2 0-.2 1.3-.7 1.4-.7"/><path id="XMLID_34_" class="st0" d="M107.3 39.9c.2.2.5.5.4.9-.2 0-.7.7-.9.5-.2 0-.7 0-.7-.4-.2-.4 0-.7.3-.9.2-.3.7-.1.9-.1"/><path id="XMLID_33_" class="st0" d="M102.2 41.8c-.2.4 0 .7.4.9.2 0 1 0 1-.2.2-.2.5-.4.2-.7-.2-.3-.5-.3-.9-.3-.3-.2-.7.3-.7.3"/><path id="XMLID_32_" class="st0" d="M98.6 33.9c.4.2.4.4.7.4.7-.2 1.4-.7 1.4-.9-1-.3-2.1-1-2.8-2.1-.4 0-.4 1.8.7 2.6"/><path id="XMLID_31_" class="st0" d="M97.4 35.1c.3 0 .7-.2.9-.3 0-.4 0-.5-.2-.7-.9 0-1.9 0-2.6-.5-.2 0 .1 1.4 1.9 1.5"/><path id="XMLID_30_" class="st0" d="M103.5 32c0 .3 0 .3-.2.5-.7.5-1.6.7-1.7.5.5-1 .7-2.3.4-3.3.1-.3 1.6 1.1 1.5 2.3"/><path id="XMLID_29_" class="st0" d="M105.4 32.2c-.3 0-.7.2-1 .2-.2-.2-.3-.3-.3-.7.7-.5 1.4-1.2 1.4-1.9.1-.2.9 1-.1 2.4"/><path id="XMLID_28_" class="st0" d="M102.6 36.2c-.4.2-1.6-.2-1.9-.3-.3-.3-.5-.7-.5-.9.2-.4.9-.9 1.4-1.1.4-.2 1.2-.3 1.4-.2.2 0 .5.5.5.9s-.5 1.4-.7 1.6h-.2z"/><path id="XMLID_27_" class="st0" d="M104 39.2c-.3.2-1.4-.2-1.8-.5-.3-.2-.2-.5-.2-.7.2-.2.7-.7.9-.7.3-.2 1-.2 1.2-.2.3.2.7.3.5.7.1.3-.3 1.2-.6 1.4z"/><path id="XMLID_26_" class="st0" d="M104.9 41.3c-.2 0-1-.2-1.2-.4-.3-.2-.2-.4-.2-.5 0-.2.5-.5.7-.7.3-.2.9-.2 1 0 .2 0 .5.2.5.5 0 .2-.5.9-.7 1h-.1z"/><path id="XMLID_25_" class="st0" d="M105.7 43c-.2 0-.9-.2-1.1-.2-.2-.2 0-.3 0-.5s.4-.5.5-.5c.2-.2.7-.2.9 0 .2 0 .3.2.3.4s-.3.7-.5.9h-.1z"/><path id="XMLID_24_" class="st0" d="M107.1 37.8c.2 0 .7.5.5.9-.2.2-1 .9-1.4.7-.5 0-1.1-.2-1.2-.5-.2-.3.2-.7.5-1.1.4-.4 1.4-.2 1.6 0"/><path id="XMLID_23_" class="st0" d="M100.5 40.2c0 .3 0 .9.5 1 .2 0 1.2-.2 1.4-.4.3-.4.7-.9.5-1.2-.3-.3-.9-.5-1.2-.5-.5.2-1 .9-1.2 1.1"/><path id="XMLID_22_" class="st0" d="M102.4 48.8c-.2 0-1-2.3-1.2-2.3-.2 0-2.3 2.6-1.6 4.9 0 0 .9 1.4 1.7 1 .9-.7-.5-3.8-.4-3.8.4-.2 1.4 2.8 1.6 2.6.2 0 .9-2.6 1-2.8 0 0-.3 2.3-.2 2.3.2 0 1.2-2.4 1.4-2.4.2 0-.7 2.4-.5 2.3 1.6-1.2 2.4-3 2.6-3.1.2 0-1.2 2.6-1 2.6.5-.2 2.6-2.1 2.8-2.1l-1.9 1.9c.5-.2 4-1.9 4-1.9 0 .2-3.1 1.9-3.8 2.1 0 .2 2.3-.2 3.5-.2 0 0-4.2.7-4.5.9-.2 0 3.5.2 3.3.4-.2.2-6.6 0-6.8 1.9-.2 1.9 6.5 1.4 8.2 1.4-.5 0-5.1 1.2-5.2 1.4 0 0 4.7-.7 6.1 0 .2 0-4.4.5-4.2.5 2.3.5 3.7 1.4 3.7 1.6 0 .2-3.3-1.1-3.8-.9-.2.2 2.8 1.7 4 3.3 0 0-3-1.6-2.8-1.6 1.6 1.9 2.3 4 2.4 4.9 0 .2 0 .7.2.5 0 0 .5-1.2.5-2.8 0-.4 1 .3 1 .2-.2-.7-.9-1.9-1.2-2.8.5 0 1.6 1.4 1.6 1.2 0-.2-1.4-3.1-1.4-3.3.2-.4 2.4 0 2.4-.4-.2-.3-3-1.2-3-1.4.2-.2 1.7-1 2.1-1.6-.3-.5-6.1 1.4-6.8.2-1.2-2.6 6.3-.5 6.3-.7-.7-.7-1.7-1.9-2.1-2.3-.2-.2 1.4.2 1.7-.2-.2-.2-1-1.1-1.6-1.6-.2.2 2.3-1.4 2.1-1.7-.2-.4-2.8.5-3.1.7-.4.2-.5-2.6-.9-2.4-.3.2-.7 2.6-.9 2.6-.4.2-.4-2.8-.7-2.8-.5-.2-1 3.1-1.4 3.1-.2 0 0-2.1-.2-2.4 0-.2-1.4 1.9-1.4 1.9-.2-.7-.2-1.9-.3-1.9-.2 0-1.1 3-1.3 3"/><path id="XMLID_21_" class="st0" d="M95.4 55.4c-.2.2 1.2-.2 1 0-.5 1-.9 2.1-.7 2.8.2.2 1.2-1.2 1.2-1 .2.4-1.4 2.1-.9 3.7.2 0 1-.7 1.2-1 0 0-.9 1.7-.9 2.4 0 .2 1.6-1 1.6-1v3.5c.3.7 1.2-3.3 1.4-3.1.2 0 1.4 2.3 1.4 2.3.4-.3 0-1.7-.2-2.4-.2-.5 1.7.9 1.9.5 0-.2-1.9-1.9-2.1-2.1-.5-.7-.5-1.9 1-1.9 2.3.2-.2 4.4.7 5.4.2.2 1.8-2.8 1.8-2.8.5.5-.5 1.2 0 2.1.2 0 1.2-1.6 1-1.6l.7 1.6.5-1.6c.9 1 .5 1.9 1 3.1.4.2.5-1.7.5-1.9.3.5 2.8 2.3 3 2.1-.9-1.6-2.3-4.5-3.1-5.8-.2-.2.2 3.3-.2 3-.3-.5-.2-3.1-1.2-4-.2-.2-.4 3-.5 2.6-.4-.2-.2-3-.5-3.3-.3-.2-.3 3-.5 3.1-.2-.2.2-2.1-.7-3.7 0 0-.5 4.5-.9 4.4.2-2.6.3-3.5-.2-4.9-.5-.9-.7-.9-1.6-1-2.4 0-2.6 4.4-.4 6.3l-1-.9c0 .5.3 1.6.2 1.6-.2 0-.9-3.3-1-3.5 0 .3-.3 3.7-.5 3.7s0-2.3.4-4.2c0 0-1.2 3-1.2 2.8.2-1 1.9-5.6 1.9-5.8 0-.2-2.4 4.4-2.6 4.4-.2-.2 2.3-4.9 2.3-5.1 0 0-2.3 2.3-2.3 2.1.2-.5.9-1.2 1.2-1.7.2 0-1.6.5-1.6.5 0-.2 2.8-1.7 2.8-1.7-1.8-1.5-3.7 1.6-3.9 2"/><path id="XMLID_15_" class="st0" d="M94.6 61.8v2.4c-.2-.7-.2-1.4-.2-2.3 0-.1.2-.1.2-.1m0 21.3c-.2 0-.3-.2-.5-.4v-7.3c0-.2-.3-.4-.7-.4-.3-.2-1.4 1.2-1.4 1.2s-.3.3-.3.5v4.5c-.2-.3-.3-.5-.5-.7-.9-1-.5-2.4-.3-3.7.3-.7.7-1.6 1.4-2.1.4-.2 1-.9 2.4-1.4v-1h-.3c0-.2 0-.3.3-.5V70c-.2.2-.3.4-.5.4V54.2c0-.2-.5-.5-.7-.2-1.2 1.2-1.7 2.6-1.7 3.8v14.8c-1.1 1.2-2.1 2.4-2.8 3.7-.2.7-.5 1.4-.5 2.3.2.3.9.2.9.7 0 .4.2.7 0 .9-1-.3-1.7-1.4-2.8-1.2-.7 0-1.1.2-1.4.5-.7.5-.7 1.2-.5 1.7.4.7.9 1.4 1.7.9.5-.4 1-.7 1-1.4-.2-.3-.5-.3-.9-.3-.2 0-.2.2-.2.3-.3.2-.5.3-.6.3-.4-.2 0-.5 0-.7 0-.3.3-.5.5-.7.9 0 1.2.7 1.9.9.9.3.7 1.2 1.4 1.7s1.4 1 2.1 1.6v3.8h-.2c-.9.5-1.4.7-1.6 1.6-.2.9.3 1.6.7 2.1.2.2.7 1 .7.9.2-.3-.2-1.4-.2-1.7 0-.4.2-.7.5-1V96H94v-7.2c.2-.2.4-.2.5-.2v-1.9c-.2 0-.3 0-.5.2v-1.4c.2.2.4.2.5.4v-2.8zm0-11.1c.5 0 .9-.5 1.2-.7.3-.3.5-.9 1.1-1.2.5-1.2.5-3 .2-4s-2.1-4-2.4-4.2V64.6c0 .2.9.7 1 2.6l-.2 1.6c-.2.5-.5.9-.9 1.2v2zm0 1.5c.7-.2 1.6-.4 2.6-.4 0-.2.3-.5.2-.5-1.1-.5-1.8-.5-2.8-.2v1.1zm2.8 13.1c-.2-1.2-.9-2.1-1.8-3-.4-.2-.7-.4-1-.5v2.6c.2.2.4.4.5.4 0 .2-.2.3-.2.3-.2 0-.4 0-.4.2v1.9c.4-.2.9-.2.9-.2.2 0-.5.7-.5.9-.4 1.9-.4 4.2 0 6.1.2.2.3.3.7.3.4.4.9-.3 1 .4.2.2.5.2.5 0 .2-.9-.2-1.7-.3-2.8 0 0-.2-2.6 0-3.8.4-1 .6-1.7.6-2.8z"/><path id="XMLID_14_" class="st0" d="M98.1 50.7c-.6-.4-1.1-.7-2-.7.7-1.4.7-4-.3-5.2l-1.2-2.1c-.5.2 0 1.9 0 2.4 0 .3.2.5.2.7.4 1.6.7 2.3.2 3.7l-.9.9V36.7c0-.3-.7 0-.7 0L92 39.1s-.3.7-.3 1v12c-.7.9-1.6 2.3-1.7 4.5-.4-.2-.5-.3-1-.3-.4-.2-.7-.2-1.2-.2-2.4.4-2.6 1-3.3 1.9-.4.3.2.7.2 1 0 .2.9-.3 1-.3.3-.9 1-1 1.9-1.2.7-.2 1.4.2 2.1.3.7.2.4.9.7 1.2.2.3.5 2.4.9 2.6.5.3 0-1.9.2-2.3-.2-.5-.2-1-.2-1.7-.2-2.3 1-4.5 3-5.9 2.1-1 3.7.2 4.2 0l.7-.2c-.3.2-1-.6-1.1-.8"/><path id="XMLID_13_" class="st0" d="M96 29.4c0-1.2-.2-2.4-.7-3.3-.3-.2-.5-1.6-.9-1.2 0 .5-.2 1.7.2 2.6.4 1.4 0 3-.5 4.4V24c0-.5-.5-1.4-.5-1.4h-1.4c-.2 0-.5.7-.5 1.2v11.5l.2.2c-.9 1.2-1.6 2.3-1.6 3.1-.7-.2-1.2-.4-1.9-.4-.5.2-1.2.4-1.7.7-.5-.2-.9 0-1 .5 0 .2.5.5.7.5 1 .5 3.3-2.1 4 1.2.4.3.5.3.9.2-.7-3.1 3-6.6 3.8-8.9.2-.2.2-.3.3-.5.9-1.2 1.4-1.2 1.4-1.4 2.3-1.7 3-.2 3.5.9.2.2.2-.2.3-.2.1-.4-.8-4.1-4.6-1.8"/><path id="XMLID_12_" class="st0" d="M153.7 33.4z"/><path id="XMLID_7_" class="st5" d="M140.3 28c-2.3.7-3.3 1.9-3.7 2.1-.5.5-.9 1.2-1.2 1.7-.3-.1-.6-.2-1.1-.3 1.1-1.7 4.4-5.4 10.9-4 4 .7 5.7 2.3 7 3.9-.6-.6-1.2-1-2.5-1.8-1.8-1.3-6.1-2.5-9.4-1.6m-3.3 5.6H138.6c.7-.2 1.6-.5 1.6-.5s-.3 1-1.7 1.6c-.2 0-.2 0-.5.2-.4.2-.7 0-.7 0l-.4-1.2h.1zm-4.2-.7h-.7s-.2.5-.7.5l-.2.2c-.4 0-.5-.2-.9-.3 0-.2.5.2.7.2.2 0 .4-.2.4-.2v-.4c-.2 0-.9 0-1.2.2-.4 0-1.1.2-1.4.2h-.3v-.2s.2 0 1-.2c.2 0 .9-.2 1.9-.4h.7c.7.2 2.1.2 2.1.2l.2.3c-.1.1-1.3-.1-1.6-.1zm10.6-6.1c-5.8-.5-8.7 3.7-9.1 4-.2.2-.3.4-.5.7h-.7c-.5 0-1.2.2-1.7.2-2.3.2-4.9.7-5.9 1-.7 0-1.2.7-1.2.9 0 .2.2.2.2.2l1.2-.2v.2h-.4c-1.6.3-1.7 1.2-1.4 1.4.2 0 2.4-.3 2.6-.3v.3c0 .2.2.4.2.4h-.3l-.2-.2H124c-.2 0-.2.4-.3.7-.2.7 0 1.4.5 1.6.3.2.5.2.7 0 .2-.2.7-.2.9-.4 0 .2.4.7-1 1.4-.7.2-1 .2-1 .2s.5.5 1.2.5h.2c1 0 2.4-.7 2.4-2.1l1.7-.2c0-.2-.2-.5-.2-.5l-1.9-.2V36h2.6v.5c.2.7.5 1.7 1.6 2.3.5.2 1 .3 1.7.3 1.9-.2 2.3-2.1 2.3-2.1h.2s-.2 2.1-2.3 2.6H132s-.3 0-.4-.1l-.2-.1s-.1-.1-.2-.1c-.2-.1-.1-.1-.3-.2 0 0-.2-.1-.4-.3-.3-.3-.6-.5-.6-.5l-.4.3s-1.4 1.2-3.1 1.4c-1.9.3-4.2 1.2-5.6 2.1-.5.3-.9.7-1.3 1-1.4-2.4-3.6-5.5-4-5.9-.3-.5-1.4-1-1.9-1-.4-.2-7.2.2-8.7.3-.4 0-.9.4-1 .4-.2.2-.5.5-1.1.7 0 .2-.2.2-.2.4h-.2l-1.7.4s-.9 0-1 .5c0 .3.8.3 1.1.3-.1.1-.1.2-.2.2-.3.2-.3.4-.3.5.2.2.3.7 1.6 1 1 .4 2.1.2 2.1.2 1.4-.2 1.6-2.3 1.7-2.4.2.2.5.2.7.3 0 .2-.2.2-.2.7 0 .3.2.5.2.7l.5-.7v.3s.5-.7.7-1c0-.3-.3-.5-.3-.7.9.2 5.4.7 5.4.7s.9.2 1.2.9c.4.7 1.2 3.1 2.1 5.9.1-.1 1.6-1 2.7-1.7l-.1.1c.2-.2.7-.4 1.2-.5.7-.3 1-.3 1.6-.5.5-.2.5-.2 1.2-.5-.2.4-.4.7-.9 1-.3.2-2.4.7-3 1.1-1.4.9-1.7 2.1-1.7 2.1s.5-.4 1.1-.5c.9-.4 1.4-.4 2.1-.7.5-.2 1.4-.5 1.4-.5s-.2.9-1.4 1.2c-1.4.5-1.7.5-2.6 1.2-.3.2-.5.5-.5.5l-6.1-.5s-1.6-.2-1.9 0c-.3 0-1 .3-1.4.5v.2c-2.1.5-5.6 1.6-6.6 1.9-.3.2-.9.5-.9.5 0 .3-.3.7-.7 1-.2 0-.2.2-.2.2h-.2l-1.6.9s-1.1.3-1.1.7c0 .3 1.4 0 1.4 0-.2.2-.2.3-.3.3-.4.3-.4.5-.2.5.2.4.5.7 1.7.7 1 0 1.7-.3 1.9-.3 1.2-.5 1-2.4 1-2.6.3 0 .7-.2.7.2.2.2 0 .2 0 .7.2.4.3.5.5.5 0 0 .2-.7.3-.7v.2s.4-.7.4-1c0-.3-.4-.5-.4-.5.9-.2 5.8-.7 5.8-.7.4 0 .7-.2.7-.2l10.1 3.7s.3.2.7 0c.2 0 1.6-1 1.9-1.2l.2.4-1.7 1.7c-.3.3-1.6-.2-1.6-.2l-4.4-1.4c-.4 1.4-.5 4.5 4 9.8 3.7 4.2 3.5 3.5 5.4 5.9.4.5.2.9.2.9s.9-1 .9-2.8c0-.5.5.2.3 1.6-.2.7-1 1.4-1 2.6.2 1.4-.4 1.6.7 4.7.3 1.2 2.1 2.4 3.3 3.1.5.2 1.9 1 2.4 1.2.9.4 1.7.5 2.3 1.1.9 1 .9 1.9 1.4 3.8.7 1.9.5 2.8.4 4.4-.2 1.4-.9 2.4-.9 2.6-.2.2.9-.2.5.2-.2.3-.9.7-1.4 1-.5.5-2.3 3.5-2.1 3.8 0 .3.7 0 1.2-.4.5-.3 1-.5 1-.5s.2.5 0 1c-.2.4-.2 1.1.7.7 0 0 .3-.2.5-.2.5.2 1-.3 1.4-.5.3-.2.9-.7 1.2-1.2.5-.4.5-.9.5-1.2 0-.4-.5-1.8-.5-2.1 0-.4 0-1 .5-1.6l.2-.2 1.2-1.2c.7-.3.5-.3.4-.9-.4-.5-.7-1.2-1.2-1.9-.2 0-.2-.2-.3-.4-.4-.7-.7-2.3-.9-3-.2-.9.2-2.3.5-3 .2-.5.4-.7.4-.9 0-.2-.2-.3-.5-.5-.4-.4-1.4-.5-1.9-1.1-3.8-3.1-3.8-7.2-3.1-7.7 1-.7 1.9.2 2.1.5.4.5.5.9.7 1.6.7 1.4 2.4 1.4 2.6 1.4 0 .2.2.2.2.2h.7l-.7-.7v-.2l-.5-.7s.2.2.5.2c.5.2 1 .2 1.4.3 1.4.2 2.6-.7 2.6-.7s-2.3-.2-3.7-1.4c-.2 0-.2-.2-.3-.2-.9-.9 0-1.7-2.3-3.1-1.4-.7-1.9.9-2.4-2.3-.2-.3-1.2-2.8-2.3-5.8-.4-.9-.5-1.9-.9-2.8-1.1-4.7-.3-6.5-.3-6.5h.2s.4-.4 1.1-1c1.6-1.6 4.9-5.1 5.9-8.9.5-2.1.2-4.9.2-4.9s.5 0 .9-.2c.3 0 .9 0 1-.2 1.2-.5 1.4-1 1.4-1h-.8s.2 0 .2-.2c1.6-1.6 2.1-4.2 2.1-4.2s-.9.7-1.2 1.1c-1 .5-1.9.7-2.6.7h-1.2c-.4.1-.6.2-.8.2.4-.6 1-1.3 1.9-2 .5-.3 1.4-.7 1.9-1 6.8-2.3 11.1 1.7 12.8 3.2.2.2.4.5.4.5l.3.3c-1.8-2.3-4-5.4-10.5-6.1z"/><path id="XMLID_6_" class="st5" d="M123 78.9c-3-7.2.9-7.8.9-7.8 0-.2.2-.9-.3-1.6-1.2-1.4-3.1-3.3-3.1-3.3s-3.7 2.8-4.4 5.4c-.4 1.6-.5 3.3 1.7 6.6.5 1 1.9 1.4 2.4 2.4.4 1.2 0 1.9 0 3.8 0 1.7-.5 2.6-1 3.7-.7 1.2-1.6 1.9-1.7 2.1 0 .2.9 0 .5.2-.2.4-1.1.4-1.6.5-.3.2-1.7 1.2-2.4 2.1-.3.2-.7.9-.9 1-.3.5-.7.9 4.2 1.1.2 0 1.1-.2 1.7-.5.5-.2.5-.7.7-.9.2-.4.2-1.7.4-2.1 0-.2.2-.7.9-1.1.7-.3.9-.5 1.6-.7.7-.2.5-.4.5-.7 0-.5-.2-1.2-.5-2.1-.2-.7 0-2.4.2-3.1.2-.9.9-1.9 1.4-2.3.4-.5.5-.7.5-.9 0 0 0-.2-.2-.5-.3-.2-1.2-.7-1.5-1.3"/><path id="XMLID_3_" class="st5" d="M151.1 39.6c.1.1.1.1 0 0zm0-.3c-.8-2.4-2.4-5.2-7.2-6.8-.3-.2-.7-.2-1.2-.3v.3c.9.2 1.8.4 2.6.9 3.5 1.7 4.6 3.6 5.4 5.3-.4-.7-1-1.6-1.9-2.4-2.1-2.1-4.2-3-6.6-3.3l-.9 1.4c5.8 0 8.7 3.7 9.8 5.4.2.3.3.7.3.7l.1.2v-.1c-.1-.4-.3-.8-.4-1.3z"/><path id="XMLID_2_" class="st6" d="M118.8 50s-9.1-1.4-9.4-1.4c0 0-2.8.9-3.7 1.2 0 0-.9.2-.2-.2 0 0 2.3-.9 2.4-.9.5-.5 1.1-.3 1.4-.3.4-.2 9.8 1.2 9.8 1.2l-.3.4z"/></svg>