<svg id="Warstwa_1" xmlns="http://www.w3.org/2000/svg" viewBox="0 0 222 298.7"><style>.st0{fill:#010202}</style><path class="st0" d="M80.8 80.7c-3.1-4.2-3.2-6.1-.1-10.3.9-1.2.8-2.3.5-3.4-1.2-4.1-2.4-8.1-5.5-11.4-3.9-4.3-7.6-8.7-11.3-13.2-3.7-4.4-5.3-9.3-3.5-15 1.2-3.9 2.3-4.6 6.4-4.5 1.1 0 2.2.3 3.1.4 6.4-6.1 13.6-10 22.6-9.4 1.6.1 3.2.6 4.7 1 4.3 1.3 8.5 1.5 12.8-.3 2.4-1 5.1-1.4 7.6-1.9 2.9-.5 5.1.8 6.5 3.4 1.3 2.4 1.5 2.5 4.3 2 2.6-.5 5.2-.8 7.8-1.4 3.8-.9 7 .5 10.1 2.3.8.5 1.3 1.8 1.6 2.8.9 3.5 4.2 5.2 7.4 3.8.7-.3 1.4-.8 2.2-1 3.6-1.2 7.1 1 7.5 4.8.2 2.1-.1 4.1-1.3 5.8-2.3 3.4-4.6 7-7.2 10.2-5.9 7.3-11 15.1-14.9 23.6-.3.6-.6 1.3-.9 2 2 1.8 2.7 4 2.3 6.6 1.6.9 3 1.7 4.6 2.5 8.9 4.4 14.8 11.7 19.7 20 1 1.7 1.8 3.4 2.7 5.1 2.6 4.7 4.1 9.7 4.6 15 .4 3.8 1.4 7.4 3.2 10.7.2.4.5.9.7 1.4 3.3 7.7 6.9 15.4 9.8 23.3 4.5 12.2 8.2 24.6 10 37.5.5 3.6.5 7.3.1 10.9-.7 6.4.2 12.8.3 19.1 0 4.6.2 9.1-.6 13.6-1 5.7-3.2 10.9-6.2 15.8-7.8 12.7-18.9 21.7-32.3 27.7-3.5 1.6-7.3 2.2-11.1 3.2-4.5 1.1-9 2.2-13.6 3.2-3.3.7-6.5 1.5-9.8 2-4 .5-7.8-.2-11.7-1.1-7.8-1.8-15.6-3.6-23.5-5-6.6-1.2-13.2-1.6-20-1.6-10.8 0-20.6-3.6-28.9-10.5-3.8-3.2-7-7-10.5-10.6-.6-.6-1.2-1.4-1.6-2.2-3.1-6.8-6.3-13.5-7.8-21-2-9.8-.5-19.1 1.5-28.6 3.4-15.8 8.2-31.1 12.8-46.6 2.1-6.9 4.2-13.8 7.1-20.4 2.6-6.1 5.8-11.9 9.9-17.1C61.8 112.3 70 100.2 77 87.3c1.1-2 2.4-4 3.6-6 .1-.2.1-.4.2-.6zm59.6 24.2c-.8-2.3-1.5-4.6-2.3-6.9-2-5.6-4-11.3-6-16.9-.3-.8-1-1.7-1.6-1.9-2.2-.7-4.4-1.1-7.3-.6 7.1 6.7 8.4 14.6 6.8 23.3-2.1-3.7-2.6-8-4.1-11.9-1.6-4-3.5-7.9-5.4-12.1-2.2-.2-4.4-.3-6.9-.5 1.1 3.5 2.2 6.5 2.8 9.6.6 3.1.8 6.2.8 9.4.1 3.1.2 6.4-1.6 9.3-2.9-9.1-1.9-18.8-4.3-28.2-1.8.2-3.5.4-5.4.5-.9 4.9-1.9 9.5-2.7 14.2-.7 4.6-1.2 9.3-1.8 13.9-.2 0-.5.1-.7.1-.5-1-1.3-2-1.5-3.1-.3-1.8-.4-3.6-.3-5.4.3-5.6 1.7-11 3.6-16.3.4-1 .6-2 1-3.3-2.4.1-4.3-.5-5.7 1.8-6.5 10.4-12.3 21-16.4 32.5-.2.7-.7 1.3-1 2l-.6-.3c.2-13.3 7.6-23.8 14.3-34.9-3.3.7-6.1 1.4-8.9 2-8.5 18.3-16 30-24.4 40.5-9.2 11.6-15.2 24.6-19 38.8-1.1 4.2-2.4 8.4-3.7 12.5-4.3 13.7-8.9 27.4-11.3 41.6-1 5.8-1.6 11.7-.6 17.6 1 6.3 2.7 12.4 5.5 18.3 2 4.3 4.3 8.2 7.9 11.4 1.1 1 2 2 3 3 7.6 7.5 16.9 11.3 27.4 11.3 8.4 0 16.6 1 24.8 2.4 6.4 1.1 12.7 2.5 19 4.2 5.7 1.6 11.4 1.7 17.1.4 4.4-1 8.8-2.4 13.3-3.2 15.7-3 28.3-11 38.5-23.2 7.5-9 11.7-19.1 11.1-31-.3-4.6-.4-9.1-.6-13.7-.1-2.2-.3-4.5.1-6.7.7-5 .4-10-.4-14.8-1.9-11-5-21.7-8.6-32.3-2-5.7-4.7-11.2-7-16.8-1.5-3.5-3-6.9-4.3-10.4-1-2.6-1.9-5.4-2.4-8.1-.9-4.9-1.3-9.9-3.7-14.4-1.2-2.3-2.2-4.8-3.6-7-4.5-7.3-9.7-14-17.4-18.2-.8-.4-1.6-.9-2.3-1.5-2.7-2.6-5.8-1.8-9.1-1.6 5.2 11 7.3 18.7 5.9 24.6zm-51-48.4c-.2.1-.4.3-.6.4-1-1.2-2.2-2.3-2.9-3.6-2.9-5-5.6-10.1-8.5-15.1-2.4-4-4.2-8.3-7.3-11.9-.7-.8-1.1-1.7-2.4-1.5-1.5.2-1.6 1.5-1.8 2.5-1.1 4.5-.3 8.6 2.7 12.3 3.7 4.5 7.3 9.2 10.9 13.8 3.5 4.4 5.6 9.3 5.7 15 .8 0 1.5.1 2.2 0 4.2-.7 8.4-1.5 12.6-2 5.1-.6 10.3-1 15.4-1.2 3.9-.1 7.9 0 11.8.5 3.2.4 6.2 1.6 9.4 2.4l.3-.3c.2-.4.5-.9.7-1.4 3.5-7.3 7.8-14.2 13.2-20.3 2.4-2.7 4.9-5.4 7.2-8.3 1.4-1.7 2.4-3.7 3.4-5.7.7-1.4.9-3-.3-4.3-1.2-1.3-2.4-.1-3.5.4-2.9 1.4-5.7 1.3-8.4-.5-.6-.4-1.2-.7-1.5-1-2.2 5.1-4.2 10.2-6.6 15.1-2.4 4.8-5.2 9.5-9.3 13.3-.2-.8-.2-1.5 0-2.1.9-2.3 1.8-4.7 3-7 2.8-5.4 5.8-10.7 8.7-16.1.3-.6.5-1.2.8-1.8-3.1 2.3-5.7 5.1-9.4 6.4-3.6 1.3-7.1 3-11.3 1.6-.2 1.6-.4 3-.6 4.4-.6 4.3-1.2 8.6-1.9 12.9-.2 1-.8 1.9-1.2 2.9h-.7c-.4-1-.9-1.9-1-2.9-.2-1.3-.1-2.7.1-3.9.8-4.4 1.7-8.8 2.6-13.1.3-1.5.1-2.4-1.2-3.4s-2.5-1.1-3.9-.3c-2.1 1.2-4.3 2.3-6.4 3.4-3.9 2-8.1 2.2-12.5 1.3.3 1.5.5 2.7.9 3.8.9 3.2 1.9 6.4 2.9 9.6.7 2.1.5 4.3.3 6.5-.5-.2-.8-.2-.9-.3-.2-.2-.4-.5-.6-.7-2.7-5.6-4.9-11.4-5-17.7-.1-3.2.2-6.5.4-9.7.1-2.2-.6-3.2-2.8-3.6-2.1-.4-4.3-.5-6.2.7-3.1 2-6.4 3.4-10.2 3.4 2.4 4.5 4.9 8.8 7.1 13.2 2.2 4.9 4.4 9.4 6.6 13.9zM72.6 25.8c2.3 1.7 4.6 1.8 7.1.7 1.4-.6 2.7-1.4 4-2.2 3.4-2 6.9-2.1 10.5-.8 2.4.9 3.2 1.9 3.2 4.5 0 1.5-.2 3-.1 4.6.1 2.1.8 2.5 2.9 2.6 4.1.1 7.8-1.5 11.1-3.7 4.6-3.1 8.8-3.3 12.9.7 1.3 1.2 2.8 1.3 4.5.8 4.7-1.5 9.1-3.5 12.4-7.3.8-.9 1.8-1.6 2.7-2.4 1.3-1.1 1.2-1.8-.1-2.9-1.7-1.4-3.5-1.9-5.7-1.4-4.4.9-8.8 1.8-13.1 2.8.9 3.5 2.3 7 1.4 11.5-.8-1.2-1.5-1.8-1.6-2.5-.6-2.6-1.5-5.3-1.5-8 0-1.8-.4-3.2-1.3-4.7-1.3-2.2-1.7-2.5-4.1-1.9-4.5 1.1-9 2.4-13.6 3.6 1.4 4.2 2.3 8.4 1.5 13.2-2.4-1.3-2.6-3.3-2.8-5.1-.4-2.8-.5-5.6-.8-8.4-13.2-6.4-24.1-.2-29.5 6.3zm10.2 47.1c-.2.9-.7 2.1-.8 3.4-.1 1.6.7 2.2 2.3 2.1.5 0 1-.2 1.5-.3 6.6-1.3 13.2-3.2 20-3.2 3.9 0 7.9-.6 11.8-.3 5.2.4 10.4 1.5 15.6 2.1 2.3.3 4.6 0 6.9 0 .5-2.8.5-2.8-1.6-3.3-.6-.1-1.3-.2-1.7-.6-1.9-1.8-4.3-2.2-6.6-2.8-8.8-2.3-17.8-1-26.6-.3-6.8.6-13.5 2.1-20.8 3.2z"/><path class="st0" d="M52 262.1c-1.5-1.2-2.8-2.1-3.7-3.2-1.1-1.4-2.1-3-2.8-4.6-3.3-7.7-5-15.8-5.3-24.1 0-.7 0-1.4.1-2.1 0-.2.2-.3.6-.8.4.7.8 1.3 1 2 .9 3.8 1.5 7.7 2.5 11.5 1.6 6.5 3.3 12.9 7.3 18.5.3.4.5.9.7 1.4-.1.1-.2.3-.4 1.4zM64.1 266.3c-1.1.1-1.9.4-2.3.1-1.1-.8-2.4-1.6-3.1-2.7-3.9-6-6.3-12.6-7.1-19.8 0-.3.1-.5.3-1.3 3.6 8.2 5.6 16.8 12.2 23.7zM179.5 239.1c.3-2.6.6-5.4.9-8.2 0-.2.4-.3.9-.6.3.6.7 1.1.7 1.6 0 2.6-.1 5.3-.1 7.9 0 1.4-1 1.5-2.2 1.4l-.6 5.4c-.1 1-.6 1.8-1.7 1.7-1.1-.1-1.6-1-1.4-2 .4-2.2 1-4.3 1.7-6.4 0-.4 1.1-.5 1.8-.8zM72.6 267.9c-2.1 1-3.1 0-3.9-1.2-.7-1-1.2-2.1-1.7-3.2-1.2-2.8-2.4-5.6-3.5-8.3-.4-.9-.6-1.8-.6-2.9 4.7 4.2 5.7 10.7 9.7 15.6zM87.4 271c-3.2-1-6.1-6.6-5.7-10.7 1.1-.4 1.6.4 2.2 1.1 1.8 2.4 3.6 7.2 3.5 9.6zM72.9 258.6c3.9 2.6 6.2 6.4 9 9.8-.9 1.2-1.7.8-2.3.3-3.1-2.8-5.4-6.1-6.7-10.1zM183.7 221.5c3 2.5 3.8 8.4 1.6 11.3-1.4-3.7-2.3-7.2-1.6-11.3zM50.2 152.7c-1.1-2.2.3-3.5 1.4-4.7 1.2-1.4 2.1-3.3 4.5-3-.4 3.2-2.9 6.5-5.9 7.7zM171.4 253.5c0-3.3 1.1-5.7 2.8-8.2 1.6 1.6.6 3.2.3 4.7-.2 1.3-.6 2.9-3.1 3.5zM52.5 155.3c-.3 2.4-2 4-3.6 5.6-.3.2-1 .2-1.4.1-.2-.1-.4-.7-.4-1 .1-1.6 3-4.7 4.7-5 .2-.2.4.1.7.3zM45.7 170.4c-1.3-1.2-.7-2.3-.2-3.2.6-.9 1.3-1.8 2.1-2.5.6-.5 1.7.4 1.4 1.3-.5 1.8-1.1 3.7-3.3 4.4zM93.7 271.3c-2.1-1.9-2.3-4.4-2.2-7 2.1 1.8 2.4 4.3 2.2 7zM98.7 266.6c1.3 1.3 2.3 2.7 2.1 5-1.5-1.6-1.9-3.3-2.1-5zM150.7 34.3c-3 6.7-6.6 13.1-10.6 19.8-1.3-1.9-.9-3.4-.2-4.6 2.3-4 4.7-8 7.1-11.9.8-1.3 1.8-2.5 2.7-3.8.4.1.7.3 1 .5zM89.1 36.8c3 3 7.4 15.1 7.2 20.4-1-1.4-1.9-2.2-2.2-3.3-1.9-5.6-3.7-11.3-5.6-16.9.2 0 .4-.1.6-.2zM102.5 42.4c2.9 3.1 4.8 9.7 3.7 13.3-1.7-2.4-3.9-10.2-3.7-13.3zM128 39.7c0 5.4-1.2 10.6-3.4 15.5-.3-5.5 1.8-10.4 3.4-15.5z"/><g id="XMLID_182_"><g id="XMLID_183_"><g id="XMLID_184_"><path id="XMLID_214_" class="st0" d="M94.7 156c4.3 0 7.9-3.5 7.9-7.9 0-4.3-3.5-7.9-7.9-7.9s-7.9 3.5-7.9 7.9c0 4.3 3.5 7.9 7.9 7.9zm0-14.2c3.5 0 6.3 2.8 6.3 6.3s-2.8 6.3-6.3 6.3-6.3-2.8-6.3-6.3 2.8-6.3 6.3-6.3z"/><path id="XMLID_211_" class="st0" d="M91.5 169.4c2.6 0 4.7-2.1 4.7-4.7s-2.1-4.7-4.7-4.7-4.7 2.1-4.7 4.7 2.1 4.7 4.7 4.7zm0-7.9c1.7 0 3.2 1.4 3.2 3.2s-1.4 3.2-3.2 3.2c-1.7 0-3.2-1.4-3.2-3.2s1.5-3.2 3.2-3.2z"/><path id="XMLID_176_" class="st0" d="M93.9 147.3h1.6v1.6h-1.6z"/><path id="XMLID_175_" class="st0" d="M90.7 163.9h1.6v1.6h-1.6z"/><path id="XMLID_206_" class="st0" d="M130.9 149.7c2.6 0 4.7-2.1 4.7-4.7s-2.1-4.7-4.7-4.7-4.7 2.1-4.7 4.7 2.1 4.7 4.7 4.7zm0-7.9c1.7 0 3.2 1.4 3.2 3.2 0 1.7-1.4 3.2-3.2 3.2-1.7 0-3.2-1.4-3.2-3.2.1-1.8 1.5-3.2 3.2-3.2z"/><path id="XMLID_172_" class="st0" d="M130.1 144.2h1.6v1.6h-1.6z"/><path id="XMLID_202_" class="st0" d="M130.9 159.9c-2.6 0-4.7 2.1-4.7 4.7s2.1 4.7 4.7 4.7 4.7-2.1 4.7-4.7-2.1-4.7-4.7-4.7zm0 7.9c-1.7 0-3.2-1.4-3.2-3.2s1.4-3.2 3.2-3.2c1.7 0 3.2 1.4 3.2 3.2s-1.4 3.2-3.2 3.2z"/><path id="XMLID_169_" class="st0" d="M130.1 163.9h1.6v1.6h-1.6z"/><path id="XMLID_198_" class="st0" d="M116 153.6c2.6 0 4.7-2.1 4.7-4.7s-2.1-4.7-4.7-4.7-4.7 2.1-4.7 4.7 2 4.7 4.7 4.7zm0-7.9c1.7 0 3.2 1.4 3.2 3.2 0 1.7-1.4 3.2-3.2 3.2-1.7 0-3.2-1.4-3.2-3.2 0-1.7 1.4-3.2 3.2-3.2z"/><path id="XMLID_166_" class="st0" d="M115.2 148.1h1.6v1.6h-1.6z"/><path id="XMLID_194_" class="st0" d="M127.8 173.3c-4.3 0-7.9 3.5-7.9 7.9 0 4.3 3.5 7.9 7.9 7.9 4.3 0 7.9-3.5 7.9-7.9-.1-4.3-3.6-7.9-7.9-7.9zm0 14.2c-3.5 0-6.3-2.8-6.3-6.3s2.8-6.3 6.3-6.3 6.3 2.8 6.3 6.3-2.9 6.3-6.3 6.3z"/><path id="XMLID_163_" class="st0" d="M127 180.4h1.6v1.6H127z"/><path id="XMLID_190_" class="st0" d="M114.4 158.3c-.9 0-1.9.2-2.7.7-1.3-1.5-3.2-2.3-5.2-2.3-3.9 0-7.1 3.2-7.1 7.1s3.2 7.1 7.1 7.1c2 0 3.9-.8 5.2-2.3.8.5 1.7.7 2.7.7 3 0 5.5-2.5 5.5-5.5s-2.5-5.5-5.5-5.5zm0 9.5c-.9 0-1.7-.3-2.4-.8l-.6-.5-.5.6c-1.1 1.4-2.7 2.2-4.4 2.2-3 0-5.5-2.5-5.5-5.5s2.5-5.5 5.5-5.5c1.7 0 3.4.8 4.4 2.2l.5.6.6-.5c.7-.5 1.5-.8 2.4-.8 2.2 0 3.9 1.8 3.9 3.9s-1.8 4.1-3.9 4.1z"/><path id="XMLID_160_" class="st0" d="M108.9 163.1h1.6v1.6h-1.6z"/><path id="XMLID_186_" class="st0" d="M101.8 176.5c-.9 0-1.9.2-2.7.7-1.3-1.5-3.2-2.3-5.2-2.3-3.9 0-7.1 3.2-7.1 7.1 0 3.9 3.2 7.1 7.1 7.1 2 0 3.9-.8 5.2-2.3.8.5 1.7.7 2.7.7 3 0 5.5-2.5 5.5-5.5 0-3.1-2.5-5.5-5.5-5.5zm0 9.4c-.9 0-1.7-.3-2.4-.8l-.6-.5-.5.6c-1.1 1.4-2.7 2.2-4.4 2.2-3 0-5.5-2.5-5.5-5.5s2.5-5.5 5.5-5.5c1.7 0 3.4.8 4.4 2.2l.5.6.6-.5c.7-.5 1.5-.8 2.4-.8 2.2 0 3.9 1.8 3.9 3.9 0 2.4-1.8 4.1-3.9 4.1z"/><path id="XMLID_157_" class="st0" d="M96.3 181.2h1.6v1.6h-1.6z"/></g></g></g></svg>