<svg id="Warstwa_1" xmlns="http://www.w3.org/2000/svg" viewBox="0 0 102.5 119"><style>.st0{fill:#fff}.st1{fill:#2b2523}</style><g id="XMLID_357_"><path id="XMLID_537_" d="M62.5 13.8c1.9-.2 3.6-.2 5.4.2 1.8.4 3.3 1.2 4.6 2.4l.7.7c.9 1.3 2.1 2.2 3.5 3 .8.5 1.5 1.1 2.1 1.9.6.8.8 1.6.4 2.5-.3.7-.3 1.3-.2 2 .2 1 .3 2-.2 2.9 1 1 1.8 2.1 2.1 3.5.3 1.6-.2 2.8-1.6 3.6-.4.2-.8.5-1.3.6-.4.2-.9.2-1.4.4-.4.7-.3 1.4-.3 2.2.4.1.7.3 1 .3 1.3.1 2.6.3 3.8.4 4.1.3 7.8 1.7 11.2 3.9.9.5 1.4 1.2 1.7 2.2.8 2.6 1 5.2.7 7.8-.5 4-1.1 7.9-1.7 11.8-.4 2.9-1 5.7-1.8 8.5-.6 2.3-.9 4.6-1.6 6.9-1.3 4.2-3.8 7.4-8.1 8.9-1.7.6-3.5.6-5.2.4-1.5-.2-3.1-.3-4.6-.1-1.3.1-2.6.1-3.8.1-.3 0-.7.1-1 .1-.9 1.6-.9 3.5-1.3 5.1l-.6 3c-.3 1.1-.8 1.9-2 2.3-1.1.4-1.8 1.2-2 2.5-.3 1.7-.4 3.5-1.5 5.3-.2.1-.7.4-1.2.6-2.8 1.1-5.6 1.9-8.6 2.2-4.5.4-8.9-.1-13.3-.9-3-.5-5.9-1.3-8.9-2-.4-.1-.8-.3-1.2-.3-2.9-.3-5.5-1.4-8.1-2.4-2.8-1.1-5.3-2.6-7.5-4.8-.3-.4-.6-.8-.6-1.3v-3.8V94c-2.7-2.2-3.1-5.2-3-8.3.1-3.4.4-6.8.6-10.1.2-2 .5-4 .8-6 .4-3 .9-6 1.3-9 .2-1.1.3-2.1-.1-3.2-.3-1.1-.1-2.1.4-3.1.3-.5.5-1.1.8-1.6.5-1 .8-2-.1-3-.2-.2-.2-.6-.3-.9-.3-3.1-.6-6.2-1-9.3-.1-.8-.2-1.6-.5-2.4-.4-1.1-.4-2.1-.1-3.2.1-.3.2-.7.3-1 .3-.9.3-1.7-.2-2.6-.5-.9-.6-1.8-.3-2.7.3-1.1.2-2.2-.2-3.2-.5-1.2-.3-2.4.3-3.5.7-1.3 1.3-2.5 2.1-3.7.6-1 1.4-1.8 1.8-2.9 1.8-1.7 2.5-4 4-5.8 1.4-1.9 3.3-3.2 5.5-4 1.6-.6 3.2-.5 4.7.3.6.3 1.1.3 1.7 0 1.2-.6 2.4-1.2 3.7-1.6 3.5-1.1 6.8-.6 9.7 1.9.6.5 1.3 1 1.8 1.6C45 8 46.5 8.5 48.1 8.6l1.8.3c1.1.2 2 .7 2.8 1.6.9 1.2 2.1 1.6 3.6 1.4.2 0 .4-.1.6-.1 2.1-.2 4.1.1 5.6 2zM27.6 46.7c-.5-.5-.3-1 .1-1.3 1.2-1.2 1.7-2.7 2.1-4.3.7-2.6 1.9-4.9 4.2-6.5.8-.5 1.3-1.2 1.6-2 .3-.7.7-1.5 1.1-2.2.6-1.1 1.5-1.8 2.6-2.1 1-.3 1.9-.5 3-.5 1.4 0 2.8 0 4.2-.1 4.5-.4 8.9-.4 13.3.5 4 .8 8 1.2 12 1.8.7.1 1.4 0 2 .1.9.1 1.6-.2 2.1-.9.2-.3.4-.5.7-.8.7-.7.9-1.4.7-2.4-.2-.7-.2-1.5-.1-2.2.3-1.4-.3-2.2-1.4-2.8-.4-.2-.8-.4-1.3-.6-1-.5-1.8-1.1-2.3-2.2-.2-.5-.6-.9-1-1.3-1.6-1.6-3.6-2-5.8-1.9-.7 0-1.3.1-2 .2-1 0-1.9-.2-2.5-1-.7-1-1.7-1.2-2.9-1.2h-2.6c-1.2 0-2.2-.4-3-1.4-.9-1.3-2.3-1.8-3.8-2-.3 0-.7 0-1-.1-1.8-.3-3.5-.9-4.8-2.4-.7-.8-1.5-1.4-2.3-2C39 4 37.2 3.4 35.1 4c-1.7.5-3.3 1.2-4.8 2.1-1.1.7-2.3.8-3.4-.1-1.2-1-2.5-.9-3.8-.6-2.1.6-3.8 1.7-5.2 3.4-1 1.3-1.9 2.6-2.6 4.1-.4.8-.6 1.8-1.5 2.3-.1.1-.2.2-.2.3.1.8-.5 1.2-.9 1.7-.9 1.3-1.8 2.7-2.6 4.1-.5 1-.8 2-.4 3.1.4 1.3.4 2.5.1 3.8-.2.7-.2 1.3.2 2 .5.8.5 1.6.2 2.5-.2.4-.2.9-.4 1.4-.2 1-.1 1.9.3 2.9.5 1 .7 2 .8 3.1.1 1.6.5 3.1 1.4 4.4.5.8.6 1.6.4 2.5l-.3 1.2c-.2.6-.2 1.2.2 1.7.6.9.4 1.8-.1 2.7-.4.8-.8 1.7-1.2 2.6-.3.7-.5 1.4-.3 2.3.4-.2.6-.3.8-.5.9-.9 1.9-1.8 2.6-2.8.8-1.1 1.7-2.3 1.5-3.9-.1-1.1.7-2 1.8-2.1 1.1-.1 2.1 0 3.2.2.4.1.8.5 1 .9.2.4.4.9.4 1.3.1.7.2 1.5.2 2.2.1 1.5.1 3 .1 4.5 0 .4-.1 1 .6 1.3.2-.2.5-.4.7-.6.9-1.4 1.7-3 1.8-4.7.1-1.6.6-3 1.1-4.5.1-.3.3-.4.6-.3 0 .2.1.4 0 .6-.3 1.7-.6 3.5-.9 5.2-.2 1.5-.7 2.9-1.4 4.2-.3.5-.6.9-1 1.3-1 .8-2.4.5-2.9-.6-.5-1.2-.9-2.4-.9-3.7 0-1.2.1-2.4.1-3.7 0-.7-.1-1.5-.2-2.1-.5-.1-.9-.1-1.3-.2-1.5-.3-1.9-.1-2.1 1.2 0 .3 0 .5-.1.8-.5 1.6-.9 3.2-2.4 4.3-.7.6-1.3 1.3-2 2-.6.6-.9 1.3-.9 2.2v2.4c0 1 0 2-.1 3-.2 2.4-.4 4.8-.6 7.3-.2 2.4-.4 4.8-.6 7.3-.2 2.4-.4 4.9-.7 7.3-.3 2.5.8 4.5 2.5 6.1.6.6 1.2 1.1 1.9 1.5 2.9 1.9 6 3.2 9.2 4.1 3.1.8 6.3 1.6 9.5 2.2 4.5.8 8.9 1.5 13.5 1.4h2.4c1.3-.1 2.7-.3 4-.4l4.2-.6c3-.5 6.2-2.6 6.7-6.1.3-2.3.6-4.6 1-6.8 1.1-5.4 2.4-10.8 3.6-16.3.4-1.7.8-3.4 1-5.2.8-6.2 2-12.3 3.3-18.4.2-.7.4-1.4.5-2.2l1.2-8.4v-1.1c-.7-.1-1.4-.2-2.1-.2-1.3-.2-2.7-.2-4-.5-2.4-.4-4.8-.9-7.2-1-2.3-.2-4.6-.5-6.8-.8-1.3-.2-2.7-.2-4-.5-3.1-.5-6.3-1.1-9.4-1.7-1.1-.2-2.1-.3-3.2-.2-.5 1.6-1.3 2.8-2.7 3.7-.9.6-1.5 1.5-2.1 2.4-.9 1.3-1.3 2.8-1.7 4.3-.4 1.8-1.3 3.2-3.1 4.1zm47.1 3.1c-1.6 11.5-4 22.9-6.9 34.2.3.1.5.2.6.2 1.6-.1 3.1-.2 4.6-.2 2.7.1 4.8-1 6.8-2.6.6-.5.9-.9.8-1.7-.1-.7 0-1.3.2-2 .7-3.9 1.5-7.7 2.1-11.6.9-5.1 1.7-10.3 2.5-15.4V50c-1.2-1.1-2.9-1-4.4-1.3-1.6-.3-4 .2-6.3 1.1zm-7.6 39.7c.6.1 1.1.1 1.6.2 2 .1 4 .2 6.1.4 1.4.1 2.7.1 4 0 2.5-.2 4.5-1.4 6-3.3 1.6-2 2.8-4.3 3.2-6.9.6-3.5 1.4-7 1.9-10.6.7-4.7 1.4-9.4 2-14.1.2-1.7.3-3.4.3-5.1 0-1.1-.2-2.1-.4-3.2-.2-.9-.7-1.6-1.5-2.1-2.2-1.2-4.5-2.2-7-2.6-2.2-.3-4.4-.6-6.6-.8-.2 0-.4.1-.6.2-.3 1.9-.6 3.7-.8 5.6 0 .1.1.3.1.5.6-.1 1.2-.2 1.8-.2 1-.1 2-.3 3-.2 1.9.1 3.8.3 5.5 1.2 1.1.6 2 1.4 2.4 2.6.3.9.4 1.9.4 2.8-.1 1.8-.3 3.6-.6 5.4-.3 2-.7 4-1.1 6l-.3 1.8-2.1 9.3c-.3 1.2-.6 2.3-1 3.5-.3 1-.9 1.9-1.7 2.4-1.6 1-3.2 2-5.2 2.1-2.5.2-5.1.4-7.7.7-.4 0-.8.2-1.2.3-.2 1.5-.6 2.7-.5 4.1zm-8 14.2H58l-2.4.3c-1.9.2-3.9.4-5.9.5-.3 0-.7.1-1 .1-2.8-.3-5.7.3-8.5-.6h-.4c-1.3-.1-2.7-.2-4-.4-1.8-.2-3.6-.7-5.4-1-4.4-.9-8.9-1.9-12.9-4-.2-.1-.5-.2-.8-.3-1.3-.3-2.4-1-3.4-1.7-.5-.3-.9-.8-1.6-.7-.1.5-.2.9-.2 1.4-.1 1.1-.1 2.3-.1 3.5 2.3 2.2 4.7 4.1 7.9 4.7l1.2.3c1.2.3 2.3.7 3.5 1 .9.2 1.9.4 2.8.6 2.2.5 4.3 1.1 6.5 1.5 2.4.4 4.8.6 7.2 1 3 .5 6.1.5 9.1.3 1.2-.1 2.4-.3 3.6-.5 1.1-.2 2.2-.6 3.3-.9.8-.2 1.6-.4 2-.9.1-.8.3-1.4.4-2 .2-.8.5-1.4.2-2.2zM38.9 30.3c1.2.2 2.3.5 3.4.6l12.3 1.2c1.9.2 3.9.2 5.9.4 3.5.4 7 .8 10.5 1.3 1.6.2 3.2.3 4.8.2 1.9-.2 2.4-1.1 1.8-2.9l-.3-.6c-.6.1-1.2.1-1.7.3-1.8.7-3.7.6-5.6.3-.9-.2-1.9-.4-2.8-.5-2.5-.3-5.1-.6-7.6-1.2-1.4-.3-2.8-.6-4.2-.7-3-.1-6.1-.2-9.1.3-.9.2-1.7 0-2.6.1-1 0-2 0-3 .2-.7-.1-1.4.2-1.8 1z"/><path id="XMLID_470_" class="st0" d="M27.6 46.7c1.7-.9 2.7-2.3 3.2-4.1.4-1.5.9-3 1.7-4.3.6-.9 1.2-1.8 2.1-2.4 1.4-.9 2.3-2.1 2.7-3.7 1.1-.1 2.1-.1 3.2.2 3.1.7 6.2 1.2 9.4 1.7 1.3.2 2.7.3 4 .5 2.3.3 4.6.6 6.8.8 2.4.2 4.8.6 7.2 1 1.3.2 2.7.3 4 .5.7.1 1.3.2 2.1.2 0 .4.1.8 0 1.1l-1.2 8.4c-.1.7-.4 1.4-.5 2.2-1.4 6.1-2.6 12.2-3.3 18.4-.2 1.7-.7 3.5-1 5.2-1.2 5.4-2.4 10.8-3.6 16.3-.5 2.2-.7 4.5-1 6.8-.5 3.5-3.6 5.7-6.7 6.1l-4.2.6c-1.3.2-2.7.3-4 .4-.8.1-1.6 0-2.4 0-4.6.2-9-.5-13.5-1.4-3.2-.6-6.4-1.4-9.5-2.2-3.3-.9-6.4-2.2-9.2-4.1-.7-.4-1.3-1-1.9-1.5-1.7-1.7-2.8-3.6-2.5-6.1.3-2.4.5-4.8.7-7.3.2-2.4.4-4.8.6-7.3.2-2.4.4-4.8.6-7.3.1-1 .1-2 .1-3V60c0-.8.3-1.6.9-2.2.7-.7 1.2-1.5 2-2 1.5-1.1 2-2.7 2.4-4.3.1-.3 0-.5.1-.8.2-1.4.6-1.6 2.1-1.2.4.1.8.1 1.3.2.1.7.2 1.4.2 2.1 0 1.2-.1 2.4-.1 3.7 0 1.3.4 2.5.9 3.7.5 1.1 1.9 1.4 2.9.6.4-.3.7-.8 1-1.3.7-1.3 1.2-2.7 1.4-4.2.3-1.7.6-3.5.9-5.2v-.6c-.3-.2-.5 0-.6.3-.5 1.5-1 2.9-1.1 4.5-.1 1.7-.9 3.2-1.8 4.7-.2.3-.5.4-.7.6-.7-.3-.6-.8-.6-1.3-.1-1.5-.1-3-.1-4.5 0-.7-.1-1.5-.2-2.2-.1-.5-.2-1-.4-1.3-.2-.4-.7-.8-1-.9-1-.2-2.1-.2-3.2-.2-1 .1-1.9 1-1.8 2.1.2 1.6-.7 2.7-1.5 3.9-.8 1-1.7 1.9-2.6 2.8-.2.2-.4.3-.8.5-.2-.9-.1-1.6.3-2.3.4-.8.8-1.7 1.2-2.6.5-.9.7-1.8.1-2.7-.4-.6-.3-1.1-.2-1.7l.3-1.2c.1-.9.1-1.7-.4-2.5-.8-1.3-1.3-2.8-1.4-4.4 0-1.1-.3-2.1-.8-3.1-.4-.9-.5-1.8-.2-2.8.1-.5.2-.9.4-1.4.3-.9.4-1.7-.2-2.5-.4-.6-.4-1.3-.2-2 .3-1.3.3-2.5-.1-3.8-.4-1.1-.1-2.2.4-3.1.8-1.4 1.7-2.8 2.6-4.1.4-.5 1-.9.9-1.7 0-.1.1-.3.2-.3.9-.5 1.1-1.5 1.5-2.3.7-1.5 1.6-2.8 2.6-4.1 1.2-1.8 2.9-2.9 5-3.5 1.3-.3 2.7-.4 3.8.6 1.1.9 2.2.8 3.4.1 1.5-1 3.1-1.6 4.8-2.1 2.1-.6 3.9 0 5.5 1.2.8.6 1.6 1.2 2.3 2 1.3 1.5 3 2 4.8 2.4.3.1.7.1 1 .1 1.6.1 2.9.6 3.8 2 .7 1 1.7 1.5 3 1.4h2.6c1.1 0 2.1.2 2.9 1.2.6.8 1.5 1.1 2.5 1 .7 0 1.3-.1 2-.2 2.2-.1 4.2.4 5.8 1.9.4.4.8.8 1 1.3.5 1.1 1.3 1.7 2.3 2.2.4.2.9.4 1.3.6 1.1.6 1.7 1.4 1.4 2.8-.1.7-.1 1.5.1 2.2.2 1 0 1.7-.7 2.4-.2.2-.5.5-.7.8-.5.7-1.2 1-2.1.9-.7-.1-1.4 0-2-.1-4-.6-8.1-1-12-1.8-4.4-.9-8.9-.9-13.3-.5-1.4.1-2.8.1-4.2.1-1 0-2 .2-3 .5-1.1.4-2 1.1-2.6 2.1-.4.7-.8 1.4-1.1 2.2-.4.8-.8 1.5-1.6 2-2.3 1.5-3.5 3.9-4.2 6.5-.4 1.6-.9 3.1-2.1 4.3-.4.2-.7.6-.2 1.2zm-9.5 33.5c.1-.2.3-.5.4-.7-.1 0-.1-.1-.2-.1-.1.3-.1.5-.2.8.1.2.2.4.2.6.1.3.1.6.2.8 0 .5-.1.9-.1 1.4l.3 6c.1-.5.3-1 .3-1.6 0-1.8-.1-3.6-.1-5.4 0-.1-.2-.3-.4-.4.3-.5.2-1-.4-1.4zm33.2 18.9c-1.6.2-3.2.3-4.8.6-2.6.4-5.3.2-7.9-.1-.7-.1-1.3-.2-2-.3-2.1-.3-4.3-.5-6.4-.8-1.7-.2-3.5-.3-5-1.5-.3-.2-.9-.3-1.2.2.7.4 1.4.7 2 1 .5.2 1 .6 1.5.6 1.1.1 2.1.5 3.1.8 2.5.6 4.9 1.3 7.5 1.6 3.4.4 6.7.6 10.1-.2 1.2-.3 2.5-.4 3.8-.7.5-.1.9-.2 1.5-.4-.4-.4-.7-.6-1-.9 0-.4.1-.8.1-1.2.4-2.3.9-4.5 1.2-6.8.4-2.4.9-4.8.9-7.2 0-1.6-.3-3.1-1-4.5-1.3-2.9-3.6-3.6-6.5-2.4-.6.3-1.2.7-1.8 1-.6.4-1.3.7-1.9 1.1-.2 1.3-.5 2.6-.7 3.9l-.6 4.2c-.4 2.7-.8 5.4-1.1 8-.1.7-.1 1.5 0 2.2.1.5.4.9 1.1.6.7-1.4.3-3 .6-4.5s.5-3.1.6-4.6c.2-1.5.3-3.1.5-4.6.2-1.5.4-3.1.5-4.4.5-.4.9-.7 1.3-1 1.1-.8 2.3-1.4 3.7-1.5.9-.1 1.5.3 2.1 1 .9 1.2 1.1 2.5 1 3.8 0 1.4-.2 2.8-.4 4.2-.3 2.2-.8 4.4-1.1 6.6-.1 2.1-.4 4.2.3 6.2zM26.4 76.8c-.1.4-.2.8-.2 1.2-.6 5-1.2 9.9-1.8 14.9-.1.6 0 1.2 0 1.8 0 .2.2.5.3.7.1.1.4.2.5.2.1 0 .4-.2.4-.4.1-1.3.2-2.6.3-3.8.1-1.3.3-2.6.4-3.8.2-3.5.8-7 1.3-10.5 2.2-1.5 4.4-2.1 7.1-1.2 1.1.4 1.8 1 2.1 2.2.3 1.5.5 2.9.3 4.4l-1.5 12.3c-.1.8-.1 1.6 0 2.4.1.7.5 1.1 1.4.9.1-.7.3-1.4.4-2.1.9-4.2 1.4-8.5 1.7-12.8.1-1.8-.2-3.5-.8-5.2-.8-2.3-3.4-3.9-5.8-3.4-2.1.3-4.2.7-6.1 2.2zM12.3 92.2c.3-.3.5-.4.5-.5l.3-5.7c.2-3 .4-6.1.6-9.1.1-.8.1-1.6.7-2.2.8 0 1.5-.1 2.3-.1 1.8 0 2.5.5 3 2.1.5 1.9.9 3.8.7 5.8-.3 3.2-.4 6.5-.5 9.7 0 .7 0 1.5.2 2.2 0 .3.4.6.6.7.4.1.6-.2.7-.5l.3-1.2c.7-3 1-6 1.1-9 0-1.1.1-2.3-.1-3.4-.1-1.1-.4-2.3-.7-3.4-.8-2.9-2.8-4.4-5.8-4.3-2.4.1-2.9.5-3.2 2.9v.2c-.3 3.8-.7 7.5-1 11.3-.1 1.5-.2 2.9.3 4.5zM61.1 78c-.6.4-1.1 1-1.7 1-1 0-1.3.6-1.5 1.3-.3 1-.6 1.9-.8 2.9-.2.9-.3 1.7-.4 2.6-.4 2.9-.9 5.7-1.3 8.6-.1.5 0 1.1.1 1.6.1.3.3.7.7.5.2-.1.4-.4.4-.6.3-2.1.5-4.3.9-6.4.3-2.1.8-4.2 1.1-6.4.2-1.3.7-2.3 1.5-3.2.3-.3.5-.7 1-.6.6.1.6.7.7 1.1.2 1.1 0 2.2-.2 3.2-.6 2.9-1.3 5.8-2 8.7-.2 1-.4 2-.5 3 0 .4.1.9.3 1.4.1.2.4.4.6.4.2 0 .5-.3.5-.5.2-.7.2-1.5.4-2.2.7-3.4 1.5-6.9 2.2-10.3.2-1.2.3-2.4 0-3.6-.3-1-.7-2-2-2.5zm11-38.4c-.2-.6-.2-1-.4-1.2-.3-.2-.7-.4-1.1-.5-3.9-1-7.9-1.1-11.8-1.9-2.2-.5-4.6-.5-6.8-1-3.8-.9-7.6-1-11.4-1.6-.6-.1-1.3 0-2 0 .1.7.5.9 1 1 1.3.2 2.7.5 4 .7l10.8 1.5c2.5.4 5.1.8 7.6 1.2 2 .3 4 .6 6 1 1.2.2 2.4.5 4.1.8zm-6.4 29.9c.3-.7.6-1.2.7-1.8.4-1.6.8-3.3 1.1-4.9.8-4.2 1.6-8.3 2.4-12.5.3-1.7.6-3.5.9-5.2.1-.3 0-.7-.1-1 0-.2-.2-.4-.4-.6-.2.2-.3.3-.3.4-.7 3-1.3 6.1-1.9 9.1-.9 4.4-1.7 8.8-2.5 13.1-.1 1.1-.3 2.1.1 3.4zM49 94.6c.3-.6.6-1 .8-1.5.8-2.5 1.4-5.1 1.6-7.7 0-.3 0-.5-.1-.8-.1-.2-.3-.3-.4-.4-.2 0-.4.1-.5.3-.2.3-.3.6-.3 1-.4 2.2-.8 4.4-1.1 6.6-.3.7-.4 1.5 0 2.5zm-15.2-1.1c.1-.2.2-.4.2-.7.5-3.2 1-6.4 1.4-9.6.1-.5 0-1.1 0-1.6 0-.3-.2-.5-.5-.4-.5 1.6-1.3 8.2-1.1 12.3zM18.4 16.7c-1-.2-1.7.2-1.9 1.1-.2.8 0 1.6.5 2.3.7.9 2 .7 2.5-.3.2-.4.3-.9.3-1.4.1-1-.4-1.6-1.4-1.7zM32.8 23v-.8c-.1-.6-.9-1.3-1.6-1.4-.9-.1-1.7.4-2.2 1.4-.3.8-.2 1.5.4 2 .1.1.2.2.3.2 1.2.7 3.1-.3 3.1-1.4zm-1.5 5.7h.4c.7.1 1.1-.2 1.4-.6.3-.5.2-1.2-.3-1.6-.3-.3-.6-.5-1-.7-.8-.2-1.8.4-1.9 1.2 0 .8.6 1.6 1.4 1.7zM21 10.3c0 1 .7 1.3 1.4 1.4.9.2 1.7-.3 1.9-1 .3-.7-.3-1.4-1.2-1.7-.4-.1-.7 0-1.1.8.2.1.3.2.5.2.2.1.4.2.7.2-.9 1.1-1.3 0-2.2.1zm23.4 14.4c.1-.6-.5-1.3-1.2-1.3-.7-.1-1.2.4-1.3 1-.1.8.4 1.5 1 1.5.7-.1 1.5-.7 1.5-1.2zm-17.1-5.8c-.1.7-.1 1.1-.3 1.2-.1.1-.5 0-.7 0-.2 0-.4.1-.5.2-.5.4-.4 1.3.1 1.8.4.3 1.1.3 1.4-.2.3-.6.5-1.2.7-1.8 0-.3-.3-.6-.7-1.2zm7.8 2.3c.2 0 .6-.1.9-.2.3-.2.3-.9.1-1.3-.4-.7-1.4-1.1-2.1-.8-.2.1-.5.5-.5.8.1.7.6 1.2 1.6 1.5zM16 23.8c.6.1 1.2-.3 1.3-.9.1-.5-.3-1-.9-1.1-.8-.2-1.5.2-1.6.7-.2.6.4 1.2 1.2 1.3zm52.9 4.3c.3.1.4.2.5.1.9-.3 1.3-1 1.5-1.9v-.4c-.2-.2-.4-.4-.6-.5-.1 0-.4.1-.5.3l-.9 2.4zm4.7-.2c.2 0 .3.1.3.1 1.5-.9 1.9-2.3 1.3-3.8-.1-.2-.4-.4-.7 0 .2 1.3-.3 2.5-.9 3.7zM26.9 42.1c1-.3 1.3-1.2 1.5-2.1 0-.2-.2-.5-.4-.6-.1-.1-.4 0-.5.1-.6.6-.9 1.6-.6 2.6zm25-18.5c-.5-.3-.9-.7-1.1-.7-.5.2-1 .5-1.3.9-.2.3-.1.8-.2 1.3 1.5.3 1.7-.9 2.6-1.5zm-31.1-1.3c-.1.5.5 1.1.9 1.1s1-.6 1-1.1c0-.3-.3-.8-.7-.8-.5 0-1.1.3-1.2.8zm51.3 2.9c-.2.8-.5 1.7-.7 2.7 1.2-.4 1.6-.9 1.6-1.9 0-.5-.1-.9-.9-.8zm-33.2-4.9c-.3.2-.7.3-.8.6-.3.7.3 1.4 1 1.3.4-.1.8-.5.6-.9-.2-.3-.5-.6-.8-1zm25 7c.8-.1 1.3-.4 1.7-.9.1-.1.1-.5 0-.7-.2-.3-.6-.4-.9-.2-.4.4-.9.9-.8 1.8zm2.8.6c1.1-.2 1.5-.6 1.6-1.4 0-.2-.2-.4-.3-.4-.1-.1-.4 0-.5.1-.6.3-.9.9-.8 1.7zM31.4 7.6c-.4-.1-.7.2-.9.6-.1.5.1 1 .6 1.1.3.1.8-.2.9-.6.1-.4-.2-.9-.6-1.1zm-4.1 22c-.2-.1-.4-.4-.6-.5-.5-.2-.9.2-.9.7 0 .3.1.6.5.7.5 0 1-.4 1-.9zM39.7 9.3c.1-.6-.2-1.1-.6-1.2-.2 0-.5.2-.6.3-.2.4.2 1 .6 1 .2.1.5-.1.6-.1zm24 16.8c-.1-.2-.1-.4-.2-.5-.4-.3-1.1-.2-1.4.3-.1.1 0 .3 0 .4.2.1.5.2.7.2.4-.1.6-.3.9-.4zM37 47c-.2-.4-.3-.7-.5-.9-.1-.2-.6.2-.7.6-.1.3.2.8.4.8.3-.1.5-.3.8-.5zm.2 9.1c-.3-.4-.5-.6-.7-.8-.2-.1-.6.2-.7.5-.1.4.2.7.5.7.3.1.5-.2.9-.4zm4.3-8.5c-.2.4-.5.5-.5.7 0 .4.2.7.6.6.2 0 .5-.3.5-.5-.1-.2-.3-.4-.6-.8zm1-4c.2-.5.1-.8-.3-1-.2-.1-.6 0-.7.1-.3.2-.1.8.4 1 .2.1.4 0 .6-.1zm-11.8 6.9c.3-.2.6-.3.7-.5.2-.5-.1-1-.5-1-.2 0-.5.3-.5.4-.1.3.1.6.3 1.1zm.3-19.8c-.1.4-.2.7-.2 1 .1.4.4.5.7.4.3-.1.4-.5.2-.8-.1-.2-.3-.3-.7-.6zm-13.9-1.1h-.5c-.3 0-.5.4-.3.5.3.2.6.4 1 .5.1 0 .3-.2.4-.3 0-.1 0-.4-.1-.5-.2-.1-.4-.1-.5-.2zm8.7 31.3c0 .5.1 1 .8.8.4-.1.5-.4.3-.8-.1-.3-.3-.3-1.1 0zM35 25.8c.2 1.1.3 1.3.8 1.1.2 0 .3-.2.4-.4.1-.3-.3-.6-1.2-.7zm20.6-1.3c.2-.1.5-.1.7-.2.2-.1.3-.5.2-.6-.1-.4-.8-.5-1-.2-.2.2-.1.6-.2.9.1 0 .2 0 .3.1zM45.9 49c-.3.3-.5.5-.6.7-.1.4.3.8.7.8.3 0 .5-.3.4-.5 0-.4-.2-.6-.5-1zm-15.2 5.7c0-.6-.3-1-.6-.9-.2 0-.4.3-.5.5-.1.4.2.8.7.7.1 0 .3-.2.4-.3zm30.6-28.9c-.3-.2-.6-.5-.8-.5-.3-.1-.5.2-.4.5 0 .4.4.5.7.5.1-.1.2-.3.5-.5zm-36.8-.1c-.4-.2-.7-.4-1-.6 0 0-.3.3-.3.4 0 .4.4.8.8.7.1 0 .2-.2.5-.5zm7.4 39.2c.1-.6-.2-1.1-.4-1-.3.1-.5.4-.6.6-.1.3.2.6.5.7.2 0 .4-.2.5-.3zm-2-7c-.4-.3-.6-.5-.9-.6-.1 0-.5.3-.5.5 0 .4.2.6.6.6.3-.1.4-.3.8-.5zM18.3 38.1c.3-.2.5-.3.5-.4.1-.4-.1-.6-.4-.7-.1 0-.4.2-.4.2 0 .3.2.6.3.9zm4.4-.4c-.3-.4-.5-.6-.7-.8-.2-.1-.5-.1-.6.3-.1.4.1.7.5.8.1-.1.3-.2.8-.3zm14.9 1.8c-.3.2-.6.3-.7.5-.1.3.2.8.5.7.2 0 .5-.3.5-.4.1-.2-.1-.5-.3-.8zm20.5-15.3c-.2.2-.5.3-.4.4 0 .2.2.4.3.6.2-.1.4-.3.6-.4-.2-.2-.3-.4-.5-.6zM26.6 65c-.2-.3-.3-.6-.5-.6-.1 0-.4.2-.6.3.1.2.3.4.5.5.1.1.3-.1.6-.2zm-5.1-34.8c.1-.5-.2-.8-.7-.8-.1 0-.4.2-.4.3-.1.3.2.7.7.7.2 0 .3-.2.4-.2zm11.5 22c-.3-.3-.4-.6-.6-.6-.2 0-.4.2-.6.3.1.2.2.5.4.6.1 0 .4-.2.8-.3zM22.4 31.5c-.3.3-.7.5-.7.6 0 .2.3.4.5.6.1.1.3-.1.5-.1 0-.3-.1-.6-.3-1.1zm-.7-3.6c.1.2.2.3.2.4.2.1.4.2.7.2 0-.2.2-.4.1-.5-.1-.3-.4-.5-.8-.4 0 .1 0 .1-.2.3zm-3.6 13.6c.1.1.2.2.4.3l.2-.2c-.1-.1-.2-.3-.3-.4-.1.1-.1.2-.3.3zm4-7.5c-.2-.2-.3-.4-.4-.5-.1 0-.3.1-.4.2.1.1.1.4.3.4.1.1.2 0 .5-.1zm5.5 1l-.4-.4c-.1 0-.2.1-.3.1.1.2.1.4.2.5.1-.1.3-.2.5-.2zm13.1-10.3l-.5-.5c-.1.1-.3.2-.3.4 0 .1.2.4.3.4.1 0 .3-.1.5-.3zM15 48.4c0 .1 0 .2-.1.2.2.1.4.1.6.2 0-.1 0-.2.1-.3-.2 0-.4-.1-.6-.1zm9.5-5.3c-.2.1-.3.2-.3.2.1.1.2.3.3.4l.2-.2c0-.1-.1-.3-.2-.4zm-9.4 8c-.1-.1-.1-.2-.2-.3-.1 0-.2 0-.3.1.1.1.1.3.2.3s.2-.1.3-.1zm11.4-12.2c-.1-.1-.1-.2-.2-.3-.1.1-.3.2-.2.2 0 .1.1.2.2.4.1-.2.2-.2.2-.3zm2.4-6.3c0-.1-.1-.3-.1-.3-.1 0-.2 0-.4.1 0 .1.1.2.1.3.1 0 .3-.1.4-.1z"/><path id="XMLID_460_" class="st0" d="M67.1 89.5c-.2-1.4.3-2.6.4-4l1.2-.3c2.5-.2 5.1-.4 7.7-.7 1.9-.2 3.6-1.1 5.2-2.1.9-.6 1.4-1.5 1.7-2.4.4-1.1.8-2.3 1-3.5l2.1-9.3.3-1.8c.4-2 .8-4 1.1-6 .3-1.8.5-3.6.6-5.4.1-.9-.1-1.9-.4-2.8-.4-1.1-1.3-2-2.4-2.6-1.7-.9-3.6-1.1-5.5-1.2-1 0-2 .1-3 .2-.6.1-1.2.2-1.8.2-.1-.3-.1-.4-.1-.5.3-1.9.5-3.7.8-5.6.2-.1.4-.2.6-.2 2.2.3 4.4.5 6.6.8 2.5.4 4.8 1.4 7 2.6.9.5 1.3 1.2 1.5 2.1.2 1 .4 2.1.4 3.2 0 1.7-.1 3.4-.3 5.1-.6 4.7-1.2 9.4-2 14.1-.6 3.5-1.3 7-1.9 10.6-.5 2.6-1.6 4.9-3.2 6.9-1.6 1.9-3.5 3.1-6 3.3-1.4.1-2.7.1-4 0-2-.2-4-.3-6.1-.4-.4-.1-.9-.2-1.5-.3zM80.7 87c-.3-.2-.6-.4-.7-.4-1.1.4-2.2.6-3.3.8-.3.1-.7 0-1 .2-.2.1-.4.4-.4.6 0 .1.4.4.5.4 1-.3 1.9-.4 2.9-.4.5 0 .9-.2 1.3-.4.3-.2.4-.5.7-.8zm-7.9 1.3c-.3-.3-.5-.7-.7-.7-.3-.1-.6.1-.9.1 0 0-.1.3 0 .3.3.2.6.5.9.6.1.1.4-.2.7-.3zm13.3-11.6c.1.7.5.8 1 .7.2 0 .4-.3.6-.4.1-.2-.2-.5-.7-.4-.3-.1-.6 0-.9.1zm.9 2.2c-.8-.3-1.3 0-1.9.6.9.5 1.4 0 1.9-.6zm-2.6 2.8c.8.3.9.3 1.4-.1.1-.1 0-.3.1-.6-.4.1-.7.2-1 .3-.3.1-.4.2-.5.4zm-1.6 3.9c.2-.1.5-.3.7-.5.1 0 .1-.3 0-.3-.1-.1-.2-.1-.3-.1-.2.1-.5.2-.7.4-.1 0 0 .2 0 .4.1 0 .2 0 .3.1zm.4-1.8c.6.3 1 .1 1.3-.4 0-.1-.2-.4-.3-.4-.4 0-.9.2-1 .8zm-9.6 4.6c.3.4.6.4 1 .1.2-.2.1-.7-.2-.8-.6-.1-.7.3-.8.7z"/><path id="XMLID_449_" class="st0" d="M59.1 103.7c.3.8 0 1.4-.2 2.1-.1.6-.2 1.2-.4 2-.4.5-1.2.7-2 .9l-3.3.9c-1.2.2-2.4.4-3.6.5-3 .2-6.1.3-9.1-.3-2.4-.4-4.8-.6-7.2-1-2.2-.4-4.3-1-6.5-1.5-.9-.2-1.9-.4-2.8-.6-1.2-.3-2.3-.6-3.5-1l-1.2-.3c-3.2-.6-5.6-2.5-7.9-4.7 0-1.2 0-2.3.1-3.5 0-.5.2-.9.2-1.4.7-.1 1.1.4 1.6.7 1.1.7 2.2 1.4 3.4 1.7.3.1.5.1.8.3 4.1 2.1 8.5 3.1 12.9 4 1.8.4 3.5.8 5.4 1 1.3.2 2.7.3 4 .4h.4c2.8.9 5.6.3 8.5.6.3 0 .7 0 1-.1 2-.2 3.9-.3 5.9-.5l2.4-.3c.4 0 .8.1 1.1.1zm-6 3.6v.3c0 .1.1.3.2.3.2 0 .4 0 .5-.1.2-.2.3-.4.4-.7.1-.4 0-.8-.3-1.1-.2-.2-.6.2-.7.7-.1.3-.1.4-.1.6zm4-.2c.5-.6.6-1.3.4-2.1-.9.1-.8.9-.9 1.4-.1.3 0 .6.5.7zm-5.3.4c-.1-.3 0-.5-.1-.7-.1-.1-.3-.3-.4-.3-.1 0-.3.2-.4.4-.1.2-.1.4-.1.6.1.2.3.4.4.4.2-.1.4-.2.6-.4zm2.9-.1c.7.1.8-.2.9-.7.1-.5.1-.9-.6-1.1-.1.7-.2 1.3-.3 1.8zm-6.4.8c-.1-.3-.2-.5-.4-.7-.1-.1-.4-.1-.5 0-.3.2-.1.7.2.8.2 0 .3-.1.7-.1zm-2.7-.1c-.3-.4-.4-.7-.6-.7-.2 0-.4.2-.6.4 0 0 .1.4.3.5.2 0 .4-.1.9-.2zm4.8-.4c-.3-.3-.4-.6-.6-.6-.3-.1-.5.2-.4.5 0 .2.2.4.3.4.1 0 .3-.1.7-.3zm-10.9-1.5c-.2.1-.4.2-.4.3 0 .1.1.4.2.4s.4-.1.4-.2-.1-.3-.2-.5zm3.1 2c.2-.3.4-.4.4-.6 0-.1-.2-.3-.3-.4-.1 0-.4.1-.4.2 0 .2.1.4.3.8z"/><path id="XMLID_448_" class="st0" d="M38.9 30.3c.4-.8 1.1-1.1 1.8-1.2 1-.1 2-.1 3-.2.9 0 1.8.1 2.6-.1 3-.5 6.1-.4 9.1-.3 1.4 0 2.8.4 4.2.7 2.5.5 5 .9 7.6 1.2.9.1 1.9.3 2.8.5 1.9.3 3.7.4 5.6-.3.5-.2 1-.2 1.7-.3l.3.6c.6 1.8.1 2.7-1.8 2.9-1.6.2-3.2 0-4.8-.2-3.5-.4-7-.9-10.5-1.3-1.9-.2-3.9-.2-5.9-.4l-12.3-1.2c-1.1.1-2.2-.2-3.4-.4z"/><path id="XMLID_447_" d="M51.3 99.1c-.7-2-.4-4-.1-6 .3-2.2.8-4.4 1.1-6.6.2-1.4.4-2.8.4-4.2 0-1.4-.2-2.7-1-3.8-.5-.7-1.1-1.1-2.1-1-1.4.1-2.6.6-3.7 1.5-.4.3-.7.6-1.3 1-.2 1.4-.4 2.9-.5 4.4-.2 1.5-.3 3.1-.5 4.6-.2 1.5-.3 3.1-.6 4.6-.3 1.5.1 3.1-.6 4.5-.7.2-1-.1-1.1-.6-.1-.7-.1-1.5 0-2.2.3-2.7.7-5.4 1.1-8 .2-1.4.3-2.8.6-4.2.2-1.3.5-2.6.7-3.9.7-.4 1.3-.8 1.9-1.1.6-.3 1.2-.7 1.8-1 2.9-1.3 5.2-.5 6.5 2.4.6 1.4 1 2.9 1 4.5 0 2.4-.5 4.8-.9 7.2-.4 2.3-.8 4.5-1.2 6.8-.1.4-.1.8-.1 1.2.3.3.6.6 1 .9-.6.2-1 .3-1.5.4-1.3.2-2.6.3-3.8.7-3.4.8-6.7.6-10.1.2-2.6-.3-5-1-7.5-1.6-1-.3-2-.7-3.1-.8-.5 0-1-.4-1.5-.6-.7-.3-1.3-.6-2-1 .3-.5.9-.4 1.2-.2 1.5 1.2 3.3 1.2 5 1.5 2.1.3 4.3.5 6.4.8.7.1 1.3.2 2 .3 2.6.4 5.2.5 7.9.1 1.4-.5 3-.6 4.6-.8z"/><path id="XMLID_446_" d="M26.4 76.8c1.9-1.6 4-1.9 6-2.3 2.4-.5 5 1.1 5.8 3.4.6 1.7.9 3.4.8 5.2-.3 4.3-.8 8.6-1.7 12.8-.2.7-.3 1.4-.4 2.1-.9.2-1.3-.2-1.4-.9-.1-.8 0-1.6 0-2.4L37 82.4c.2-1.5.1-3-.3-4.4-.3-1.2-1-1.8-2.1-2.2-2.6-1-4.9-.3-7.1 1.2-.5 3.5-1 7-1.3 10.5-.1 1.3-.2 2.6-.4 3.8-.1 1.3-.2 2.6-.3 3.8 0 .1-.2.4-.4.4s-.4 0-.5-.2c-.2-.2-.3-.5-.3-.7-.1-.6-.1-1.2 0-1.8.6-5 1.2-9.9 1.8-14.9.1-.3.2-.7.3-1.1z"/><path id="XMLID_445_" d="M12.3 92.2c-.5-1.6-.4-3-.3-4.4.3-3.8.6-7.5 1-11.3v-.2c.3-2.4.9-2.9 3.2-2.9 3-.1 5 1.4 5.8 4.3.3 1.1.6 2.2.7 3.4.1 1.1.1 2.3.1 3.4-.1 3-.4 6.1-1.1 9l-.3 1.2c-.1.4-.3.7-.7.5-.3-.1-.6-.4-.6-.7-.1-.7-.2-1.5-.2-2.2.1-3.2.3-6.5.5-9.7.2-2-.2-3.9-.7-5.8-.4-1.6-1.2-2.1-3-2.1-.7 0-1.5 0-2.3.1-.6.6-.6 1.4-.7 2.2-.2 3-.4 6.1-.6 9.1l-.3 5.7s-.2.1-.5.4z"/><path id="XMLID_444_" d="M61.1 78c1.3.4 1.6 1.4 1.9 2.5.3 1.2.3 2.4 0 3.6-.7 3.4-1.4 6.9-2.2 10.3-.2.7-.2 1.5-.4 2.2 0 .2-.3.5-.5.5s-.5-.2-.6-.4c-.2-.4-.3-.9-.3-1.4.1-1 .3-2 .5-3 .6-2.9 1.3-5.8 2-8.7.2-1.1.4-2.1.2-3.2-.1-.5-.1-1-.7-1.1-.5-.1-.7.3-1 .6-.8.9-1.3 2-1.5 3.2-.3 2.1-.8 4.2-1.1 6.4-.3 2.1-.6 4.3-.9 6.4 0 .2-.2.5-.4.6-.4.1-.7-.2-.7-.5-.1-.5-.1-1.1-.1-1.6.4-2.9.8-5.7 1.3-8.6.1-.9.2-1.7.4-2.6.2-1 .5-2 .8-2.9.2-.7.5-1.3 1.5-1.3.7 0 1.2-.6 1.8-1z"/><path id="XMLID_443_" d="M72.1 39.6c-1.7-.3-2.9-.6-4.2-.8-2-.3-4-.7-6-1-2.5-.4-5.1-.9-7.6-1.2l-10.8-1.5c-1.3-.2-2.7-.4-4-.7-.5-.1-.9-.3-1-1 .7 0 1.4-.1 2 0 3.8.6 7.7.7 11.4 1.6 2.2.5 4.6.6 6.8 1 3.9.8 7.9.9 11.8 1.9.4.1.8.2 1.1.5.3.2.3.5.5 1.2z"/><path id="XMLID_442_" d="M65.7 69.5c-.4-1.2-.2-2.3 0-3.3.8-4.4 1.6-8.8 2.5-13.1.6-3 1.3-6.1 1.9-9.1 0-.1.1-.2.3-.4.1.2.3.4.4.6.1.3.1.7.1 1-.3 1.7-.5 3.5-.9 5.2-.8 4.2-1.6 8.4-2.4 12.5-.3 1.7-.7 3.3-1.1 4.9-.2.5-.5 1-.8 1.7z"/><path id="XMLID_441_" d="M49 94.6c-.4-1-.3-1.8-.1-2.6.4-2.2.7-4.4 1.1-6.6.1-.3.2-.7.3-1 .1-.1.3-.3.5-.3s.4.2.4.4c.1.2.1.5.1.8-.2 2.6-.8 5.2-1.6 7.7-.1.6-.4 1-.7 1.6z"/><path id="XMLID_440_" d="M33.8 93.5c-.2-4.2.6-10.7 1.2-12.3.3-.1.5.1.5.4 0 .5.1 1.1 0 1.6-.5 3.2-.9 6.4-1.4 9.6-.1.3-.2.5-.3.7z"/><path id="XMLID_437_" d="M18.4 16.7c.9.2 1.5.7 1.4 1.7 0 .5-.1.9-.3 1.4-.5 1.1-1.7 1.3-2.5.3-.5-.7-.7-1.5-.5-2.3.3-.9 1-1.3 1.9-1.1zm-.5 2.3c.1 0 .1.1.2.1l.5-.5c.1-.1 0-.2 0-.4-.1 0-.3 0-.3.1-.1.2-.2.5-.4.7z"/><path id="XMLID_434_" d="M32.8 23c-.1 1.1-2 2-3.1 1.5-.1-.1-.2-.1-.3-.2-.6-.5-.7-1.3-.4-2 .4-1 1.3-1.6 2.2-1.4.7.1 1.5.8 1.6 1.4.1.2 0 .5 0 .7zm-1-.6c-.7-.4-.7-.4-1.4 0-.1 0-.2.2-.2.3v.4c.1.2.2.3.3.5.7-.3 1.2-.5 1.3-1.2z"/><path id="XMLID_433_" d="M31.3 28.7c-.8-.2-1.4-.9-1.4-1.7 0-.8 1-1.4 1.8-1.1.4.2.7.4 1 .7.5.4.6 1.1.3 1.6-.2.5-.7.7-1.4.6 0 0-.2 0-.3-.1z"/><path id="XMLID_432_" d="M21 10.3c.8-.1 1.3 1 2.1 0-.2-.1-.5-.2-.7-.2-.2-.1-.3-.2-.5-.2.4-.8.7-1 1.1-.8.9.3 1.5 1 1.3 1.7-.2.7-1 1.2-1.9 1-.7-.2-1.3-.5-1.4-1.5z"/><path id="XMLID_431_" d="M44.4 24.7c-.1.5-.9 1.2-1.5 1.2s-1.1-.7-1-1.5c0-.6.6-1.1 1.3-1 .7 0 1.3.7 1.2 1.3z"/><path id="XMLID_430_" d="M27.3 18.9c.4.7.8 1 .7 1.2-.1.6-.3 1.3-.7 1.8-.3.5-1.1.5-1.4.2-.5-.5-.6-1.4-.1-1.8.1-.1.4-.2.5-.2.2 0 .6.1.7 0 .2-.1.1-.5.3-1.2z"/><path id="XMLID_429_" d="M35.1 21.2c-1-.3-1.5-.8-1.5-1.6 0-.3.2-.7.5-.8.7-.3 1.7.1 2.1.8.2.4.2 1.1-.1 1.3-.4.2-.8.3-1 .3z"/><path id="XMLID_428_" d="M16 23.8c-.8-.1-1.4-.7-1.3-1.3.1-.6.9-.9 1.6-.7.6.1 1 .6.9 1.1 0 .6-.6 1-1.2.9z"/><path id="XMLID_427_" d="M68.9 28.1l.9-2.4c.1-.1.3-.3.5-.3.2.1.4.3.6.5.1.1.1.3 0 .4-.2.9-.6 1.6-1.5 1.9-.1.1-.3 0-.5-.1z"/><path id="XMLID_426_" d="M73.6 27.9c.6-1.2 1.1-2.4.9-3.7.4-.4.6-.2.7 0 .6 1.5.2 2.9-1.3 3.8 0 0-.1 0-.3-.1z"/><path id="XMLID_425_" d="M18.5 81.7c.1.1.4.3.4.4.1 1.8.1 3.6.1 5.4 0 .5-.2 1.1-.3 1.6l-.3-6c-.1-.5 0-1 .1-1.4z"/><path id="XMLID_424_" d="M26.9 42.1c-.2-1.1 0-2.1.7-2.7.1-.1.4-.1.5-.1.2.2.4.5.4.6-.3 1-.6 1.9-1.6 2.2z"/><path id="XMLID_423_" d="M51.9 23.6c-1 .5-1.2 1.7-2.5 1.5 0-.4 0-1 .2-1.3.3-.4.8-.7 1.3-.9.2 0 .5.4 1 .7z"/><path id="XMLID_422_" d="M20.8 22.3c.1-.4.7-.8 1.2-.7.4 0 .8.5.7.8-.1.5-.6 1.1-1 1.1-.4-.1-.9-.8-.9-1.2z"/><path id="XMLID_421_" d="M72.1 25.2c.8-.1.9.4.9.9 0 1-.4 1.4-1.6 1.8.3-1 .5-1.9.7-2.7z"/><path id="XMLID_420_" d="M38.9 20.3c.3.4.6.7.8 1 .2.3-.2.8-.6.9-.7.1-1.3-.6-1-1.3 0-.3.4-.4.8-.6z"/><path id="XMLID_419_" d="M63.9 27.3c-.1-.9.3-1.3.8-1.8.3-.2.7-.2.9.2.1.2.1.6 0 .7-.4.4-.9.8-1.7.9z"/><path id="XMLID_418_" d="M66.7 27.9c0-.7.2-1.3.7-1.8.1-.1.4-.1.5-.1.2.1.3.3.3.4 0 .9-.4 1.3-1.5 1.5z"/><path id="XMLID_417_" d="M31.4 7.6c.4.1.7.7.6 1.1-.1.4-.6.7-.9.6-.5-.1-.7-.6-.6-1.1.1-.4.5-.7.9-.6z"/><path id="XMLID_416_" d="M27.3 29.6c-.1.5-.6.9-1 .9s-.5-.4-.5-.7c0-.5.5-.9.9-.7.3.1.5.4.6.5z"/><path id="XMLID_415_" d="M39.7 9.3c-.1.1-.4.2-.6.2-.4 0-.8-.6-.6-1 .1-.2.4-.4.6-.3.4 0 .7.5.6 1.1z"/><path id="XMLID_414_" d="M63.7 26.1c-.2.1-.5.3-.8.4-.2 0-.5-.1-.7-.2-.1 0-.1-.3 0-.4.3-.5.9-.6 1.4-.3 0 .1 0 .3.1.5z"/><path id="XMLID_413_" d="M37 47c-.3.2-.5.4-.7.4-.3 0-.5-.4-.4-.8.1-.3.5-.7.7-.6.2.3.2.6.4 1z"/><path id="XMLID_412_" d="M37.2 56.1c-.4.2-.7.5-.9.4-.3 0-.6-.3-.5-.7 0-.3.4-.7.7-.5.2.2.4.5.7.8z"/><path id="XMLID_411_" d="M41.5 47.6c.3.4.5.6.6.9 0 .1-.3.4-.5.5-.4 0-.6-.3-.6-.6s.2-.5.5-.8z"/><path id="XMLID_410_" d="M42.5 43.6c-.2 0-.4.2-.6.1-.4-.1-.6-.7-.4-1 .2-.1.5-.2.7-.1.4.2.5.5.3 1z"/><path id="XMLID_409_" d="M30.7 50.5c-.2-.5-.3-.8-.4-1.2 0-.1.3-.4.5-.4.5 0 .7.6.5 1 0 .2-.3.3-.6.6z"/><path id="XMLID_408_" d="M31 30.7c.4.3.6.4.7.6.2.3.1.7-.2.8-.4.1-.7 0-.7-.4 0-.2.1-.5.2-1z"/><path id="XMLID_407_" d="M17.1 29.6c.1.1.3.1.4.2.1.1.2.4.1.5 0 .1-.3.4-.4.3-.3-.1-.7-.3-1-.5-.2-.2 0-.5.3-.5h.6z"/><path id="XMLID_406_" d="M25.8 60.9c.8-.4.9-.3 1.1.1.2.3 0 .7-.3.8-.6.1-.7-.4-.8-.9z"/><path id="XMLID_405_" d="M35 25.8c1 .1 1.3.4 1.2.8 0 .2-.2.3-.4.4-.5.1-.7-.2-.8-1.2z"/><path id="XMLID_404_" d="M55.6 24.5c-.1-.1-.2-.1-.2-.2 0-.3 0-.7.2-.9.2-.3.9-.2 1 .2.1.2-.1.5-.2.6-.2.2-.6.2-.8.3z"/><path id="XMLID_403_" d="M45.9 49c.2.4.5.6.5.9.1.3-.1.5-.4.5-.4 0-.8-.4-.7-.8l.6-.6z"/><path id="XMLID_402_" d="M30.7 54.7c-.1.1-.3.3-.5.3-.4 0-.8-.4-.7-.7.1-.2.3-.4.5-.5.4-.1.7.3.7.9z"/><path id="XMLID_401_" d="M61.3 25.8c-.3.2-.4.4-.5.4-.3 0-.7 0-.7-.5 0-.3.1-.6.4-.5.2.1.4.4.8.6z"/><path id="XMLID_400_" d="M24.5 25.7c-.2.2-.4.5-.5.5-.4.1-.8-.2-.8-.7 0-.1.3-.4.3-.4.3.2.6.4 1 .6z"/><path id="XMLID_399_" d="M31.9 64.9c-.1.1-.3.3-.5.3-.4 0-.6-.3-.5-.7.1-.3.4-.5.6-.6.3-.1.5.4.4 1z"/><path id="XMLID_398_" d="M29.9 57.9c-.3.2-.5.5-.7.5-.4 0-.7-.2-.6-.6 0-.2.4-.5.5-.5.2 0 .4.3.8.6z"/><path id="XMLID_397_" d="M18.3 38.1c-.1-.4-.3-.6-.3-.9 0 0 .3-.2.4-.2.3.1.6.3.4.7 0 .2-.2.2-.5.4z"/><path id="XMLID_396_" d="M22.7 37.7c-.4.1-.7.3-.9.2-.3-.1-.6-.4-.5-.8.1-.3.4-.4.6-.3.3.2.4.5.8.9z"/><path id="XMLID_395_" d="M37.6 39.5c.2.3.4.6.3.8 0 .2-.3.4-.5.4-.3 0-.6-.4-.5-.7.1-.2.4-.3.7-.5z"/><path id="XMLID_394_" d="M58.1 24.2c.2.3.3.4.5.6-.2.1-.4.3-.6.4-.1-.2-.3-.4-.3-.6-.1-.1.2-.2.4-.4z"/><path id="XMLID_393_" d="M26.6 65c-.3.1-.5.3-.6.2-.2-.1-.3-.4-.5-.5.2-.1.4-.4.6-.3.2 0 .3.4.5.6z"/><path id="XMLID_392_" d="M21.5 30.2c-.1.1-.3.2-.4.2-.4 0-.8-.4-.7-.7 0-.1.3-.3.4-.3.5-.1.8.3.7.8z"/><path id="XMLID_391_" d="M33 52.2c-.4.1-.7.3-.8.2-.2-.1-.3-.4-.4-.6.2-.1.4-.3.6-.3.2.1.3.4.6.7z"/><path id="XMLID_390_" d="M22.4 31.5c.1.5.2.7.3 1-.2.1-.4.2-.5.1-.2-.1-.4-.4-.5-.6.1 0 .4-.2.7-.5z"/><path id="XMLID_389_" d="M21.7 27.9c.2-.2.2-.2.3-.2.4-.2.6 0 .8.4.1.1-.1.3-.1.5-.2-.1-.5-.1-.7-.2-.2-.2-.2-.3-.3-.5z"/><path id="XMLID_387_" d="M18.1 41.5l.3-.3c.1.1.3.2.3.4 0 0-.2.3-.2.2-.1-.1-.2-.2-.4-.3z"/><path id="XMLID_386_" d="M22.1 34c-.3.1-.5.2-.6.1-.1-.1-.2-.3-.3-.4.1-.1.3-.2.4-.2.3.1.3.3.5.5z"/><path id="XMLID_385_" d="M27.6 35c-.3.1-.5.2-.6.1 0-.1 0-.3-.1-.5.1 0 .2-.1.3-.1.2.1.3.2.4.5z"/><path id="XMLID_384_" d="M18.1 80.2c.6.4.7.9.4 1.5-.1-.3-.1-.6-.2-.8 0-.3-.1-.5-.2-.7z"/><path id="XMLID_383_" d="M40.7 24.7c-.2.1-.4.3-.5.3-.1 0-.3-.3-.3-.4 0-.1.2-.2.3-.4l.5.5z"/><path id="XMLID_382_" d="M15 48.4c.2 0 .4.1.6.1 0 .1 0 .2-.1.3-.2-.1-.4-.1-.6-.2 0 0 .1-.1.1-.2z"/><path id="XMLID_381_" d="M24.5 43.1c.1.1.2.3.2.4 0 .1-.2.2-.2.2-.1-.1-.2-.3-.3-.4.1-.1.2-.1.3-.2z"/><path id="XMLID_380_" d="M18.1 80.2c.1-.3.2-.5.3-.8.1 0 .1.1.2.1-.2.2-.4.5-.5.7z"/><path id="XMLID_379_" d="M15.1 51.1c-.1 0-.2.2-.3.1-.1-.1-.2-.2-.2-.3.1 0 .2-.1.3-.1.1 0 .2.2.2.3z"/><path id="XMLID_378_" d="M26.5 38.9c-.1.1-.1.2-.2.3-.1-.1-.2-.2-.2-.4 0-.1.2-.1.2-.2.1.1.2.2.2.3z"/><path id="XMLID_377_" d="M28.9 32.6c-.1 0-.2.1-.3 0-.1 0-.1-.2-.1-.3.1 0 .3-.1.4-.1-.1.1-.1.3 0 .4z"/><path id="XMLID_376_" d="M80.7 87c-.2.3-.4.6-.6.7-.4.2-.9.4-1.3.4-1 .1-2 .2-2.9.4-.1 0-.5-.2-.5-.4s.2-.5.4-.6c.3-.1.6-.1 1-.2 1.1-.2 2.2-.4 3.3-.8 0 .1.3.4.6.5z"/><path id="XMLID_375_" d="M72.8 88.3c-.3.2-.6.4-.7.4-.3-.1-.6-.4-.9-.6-.1 0 0-.3 0-.3.3-.1.6-.2.9-.1.3-.1.4.2.7.6z"/><path id="XMLID_374_" d="M86.1 76.7c.3-.1.6-.2.9-.2.4 0 .8.2.7.4-.1.2-.4.4-.6.4-.5.2-.9.1-1-.6z"/><path id="XMLID_373_" d="M87 78.9c-.5.5-1 1-1.9.6.6-.5 1.2-.8 1.9-.6z"/><path id="XMLID_372_" d="M84.4 81.7c.2-.1.3-.3.5-.4.3-.1.6-.2 1-.3 0 .3 0 .6-.1.6-.5.4-.6.4-1.4.1z"/><path id="XMLID_371_" d="M82.8 85.6c-.2-.1-.2-.1-.3-.2 0-.1-.1-.3 0-.4.2-.2.4-.3.7-.4.1 0 .3 0 .3.1.1.1.1.3 0 .3-.2.3-.4.5-.7.6z"/><path id="XMLID_370_" d="M83.2 83.8c.1-.6.5-.8 1-.8.1 0 .3.3.3.4-.3.5-.7.7-1.3.4z"/><path id="XMLID_369_" d="M73.6 88.4c.1-.4.2-.8.7-.7.3.1.5.6.2.8-.3.3-.6.3-.9-.1z"/><path id="XMLID_368_" d="M53.1 107.3c0-.2.1-.3.1-.5.2-.6.5-.9.7-.7.4.3.4.7.3 1.1-.1.2-.2.5-.4.7-.1.1-.4.1-.5.1-.1 0-.2-.2-.2-.3-.1-.2 0-.3 0-.4z"/><path id="XMLID_367_" d="M57.1 107.1c-.5-.1-.6-.4-.5-.7.1-.5 0-1.2.9-1.4.1.8 0 1.4-.4 2.1z"/><path id="XMLID_366_" d="M51.8 107.5c-.2.1-.4.3-.6.3-.1 0-.3-.2-.4-.4-.1-.2 0-.4.1-.6.1-.2.3-.4.4-.4.1 0 .3.2.4.3.1.3.1.5.1.8z"/><path id="XMLID_365_" d="M54.7 107.4c.1-.6.2-1.1.3-1.7.6.2.6.6.6 1.1 0 .4-.2.8-.9.6z"/><path id="XMLID_364_" d="M48.3 108.2c-.3.1-.5.2-.7.1-.3-.1-.5-.6-.2-.8.1-.1.4-.1.5 0 .2.1.2.4.4.7z"/><path id="XMLID_363_" d="M45.6 108.1c-.5 0-.7.1-.9.1-.1 0-.3-.4-.3-.5.2-.2.4-.4.6-.4.2.1.3.4.6.8z"/><path id="XMLID_362_" d="M50.4 107.7c-.3.1-.5.3-.7.3-.1 0-.3-.3-.3-.4 0-.3.1-.5.4-.5.2 0 .3.3.6.6z"/><path id="XMLID_361_" d="M39.5 106.2c.1.3.2.4.2.6 0 .1-.3.2-.4.2-.1 0-.2-.3-.2-.4 0-.2.2-.3.4-.4z"/><path id="XMLID_360_" d="M42.6 108.2c-.1-.3-.3-.5-.3-.7 0 0 .3-.2.4-.2.1 0 .3.2.3.4 0 0-.2.2-.4.5z"/><path id="XMLID_359_" class="st0" d="M17.9 19c.1-.2.2-.5.3-.7 0-.1.2 0 .3-.1 0 .1.1.3 0 .4-.1.2-.3.4-.5.5.1 0 0 0-.1-.1z"/><path id="XMLID_358_" class="st0" d="M31.8 22.4c-.1.7-.6.9-1.3 1.1-.1-.2-.2-.3-.3-.5v-.4c.1-.1.1-.2.2-.3.8-.3.8-.3 1.4.1z"/></g><g id="XMLID_259_"><g id="XMLID_739_"><g id="XMLID_743_"><g id="XMLID_744_"><g id="XMLID_745_"><path id="XMLID_833_" class="st1" d="M84.6 93.6l-.1.2c.1 0 .1-.3.1-.2z"/><path id="XMLID_832_" class="st1" d="M85.3 93.3l.1-.2z"/><path id="XMLID_831_" class="st1" d="M85.8 93.3c0-.4-.2 0-.3-.1v-.1l-.1.3c.2 0 .3-.2.4-.1z"/><path id="XMLID_830_" class="st1" d="M86 94.2c0-.2.1-.1 0 0-.1-.1-.1 0 0 0-.1 0 0 0 0 0z"/><path id="XMLID_829_" class="st1" d="M85.9 94.2s.1.1 0 0z"/><path id="XMLID_828_" class="st1" d="M86.2 94.1l-.1.1c0 .1.1.1.1.2.1-.1.1-.2 0-.3z"/><path id="XMLID_827_" class="st1" d="M86.3 93.8c0 .1 0 .1 0 0z"/><path id="XMLID_826_" class="st1" d="M86.2 94l.1-.1c-.1-.1-.1-.2-.1.1 0-.2 0-.1 0 0z"/><path id="XMLID_825_" class="st1" d="M86.1 93.9c0-.1-.1-.1 0-.3-.1.1-.1.4 0 .3z"/><path id="XMLID_824_" class="st1" d="M85.9 93v-.1.1c-.1-.1-.1.1 0 0z"/><path id="XMLID_823_" class="st1" d="M86.7 94.3V94l-.1.1s.1.1.1.2z"/><path id="XMLID_822_" class="st1" d="M86.7 94l.1-.1c-.1-.1-.1 0-.1.1z"/><path id="XMLID_821_" class="st1" d="M86.3 93.4l-.1.3.1-.3z"/><path id="XMLID_820_" class="st1" d="M87 94.3v.2l.1-.3z"/><path id="XMLID_819_" class="st1" d="M87.3 94.2c0 .2.1.2.1.3.1 0 .1-.2.1-.3-.1.1-.2.1-.2 0z"/><path id="XMLID_818_" class="st1" d="M87.5 94.1v.2c-.1-.1 0-.1 0-.2z"/><path id="XMLID_817_" class="st1" d="M86.9 93.9s0 .2.1.2l-.1-.2z"/><path id="XMLID_816_" class="st1" d="M86.9 93.9s.1 0 0 0c.1 0 0 0 0 0z"/><path id="XMLID_815_" class="st1" d="M86.9 93.9c0-.1 0-.1 0 0z"/><path id="XMLID_814_" class="st1" d="M86.5 93.6c0-.1.1-.3 0-.4 0 .1.1.2 0 .4z"/><path id="XMLID_813_" class="st1" d="M86.8 93.6c-.1 0-.1.1-.1.2l.1-.2z"/><path id="XMLID_812_" class="st1" d="M86.8 93.5v.1z"/><path id="XMLID_811_" class="st1" d="M87.3 93.9c0-.1.1-.1.1-.1-.1 0-.1-.1-.2 0 0 0 0 .1.1.1z"/><path id="XMLID_810_" class="st1" d="M87.1 93.9c0-.1 0-.1 0 0z"/><path id="XMLID_809_" class="st1" d="M87.8 93.7v-.1.1z"/><path id="XMLID_808_" class="st1" d="M87.2 93.7c0-.1 0 0 0 0 0 .1 0 0 0 0z"/><path id="XMLID_807_" class="st1" d="M87.6 94l-.1-.1.1.1z"/><path id="XMLID_806_" class="st1" d="M87.1 93.9c0 .1 0 0 0 0z"/><path id="XMLID_805_" class="st1" d="M87.1 93.9v-.1.1z"/><path id="XMLID_804_" class="st1" d="M87.6 92.3c0 .2 0 .4-.1.2 0 .2.2.8.3 1.2v-.3c-.1-.1-.2-.2-.2-.4.1-.1.1.1.2.1-.1-.3 0-.4-.2-.8v0z"/><path id="XMLID_803_" class="st1" d="M87.7 93.7c0 .1.1.1.1.3v-.3h-.1z"/><path id="XMLID_802_" class="st1" d="M87.5 93.7v-.6c-.1 0 0 .2-.1.3.1 0-.1.2.1.3 0 0-.1.1 0 0v0c0 .1 0 0 0 0 0 .1 0 .1 0 0v.1l.1-.2c0 .1 0 .1-.1.1z"/><path id="XMLID_801_" class="st1" d="M86.6 92.7z"/><path id="XMLID_800_" class="st1" d="M86.7 92.8v.1c-.1 0-.1-.1 0-.1-.1 0-.1.1-.1.2.1.1.2.3.1.4v-.6z"/><path id="XMLID_799_" class="st1" d="M87 93.2l.1-.1-.1-.2V93.2z"/><path id="XMLID_798_" class="st1" d="M87.9 93.8v.2-.3z"/><path id="XMLID_797_" class="st1" d="M88 93.7l.1.2v-.1z"/><path id="XMLID_796_" class="st1" d="M92.1 86.4z"/><path id="XMLID_795_" class="st1" d="M92 86.6z"/><path id="XMLID_794_" class="st1" d="M91.6 91.5c.2.1.4.3.3.1l-.3-.1c.1.1 0 .1 0 0z"/><path id="XMLID_793_" class="st1" d="M92.1 88.7s0 .1.1.1c0 0-.1 0-.1-.1z"/><path id="XMLID_792_" class="st1" d="M91.4 88.2h.2-.2z"/><path id="XMLID_791_" class="st1" d="M92.3 85.2l-.2-.1c0 .1.1.1.2.1z"/><path id="XMLID_790_" class="st1" d="M89.7 93c.1.1.1.1.2.1-.2-.2-.3-.3-.2-.1z"/><path id="XMLID_789_" class="st1" d="M94.2 87.5l-.1-.1.1.1z"/><path id="XMLID_788_" class="st1" d="M90 92.9c-.1 0-.1 0 0 0-.1 0-.1.1-.1.1 0 .1.1.1.1-.1z"/><path id="XMLID_787_" class="st1" d="M93.1 81.2c.1 0 .1 0 0 0z"/><path id="XMLID_786_" class="st1" d="M95.5 80.1z"/><path id="XMLID_785_" class="st1" d="M88.8 93.6c-.1 0 0 0 0 0z"/><path id="XMLID_784_" class="st1" d="M88.3 92.8v-.1.1z"/><path id="XMLID_783_" class="st1" d="M89.5 91.6c-.1-.1-.1 0 0 0z"/><path id="XMLID_782_" class="st1" d="M88.7 93.5z"/><path id="XMLID_781_" class="st1" d="M88.7 93.6s0 .1 0 0z"/><path id="XMLID_780_" class="st1" d="M88.8 93.6c-.1 0 0 0 0 0z"/><path id="XMLID_779_" class="st1" d="M93.6 83.5c-.1 0-.1 0 0 0z"/><path id="XMLID_778_" class="st1" d="M90.4 89.4z"/><path id="XMLID_777_" class="st1" d="M90.3 89.2c.2.2.1.2.1.2l.5.4-.6-.6z"/><path id="XMLID_769_" class="st1" d="M92.2 85.9H92c-.3-.2-.2-.2-.4-.3.7.3 0 .3.6.6H92c-.3-.1.4.3.3.3-.1 0-.2 0-.2-.1l.1.2s-.1 0-.1-.1v.1c.1.1.2.2.3.2-.1 0-.1 0-.1-.1l.1.1c-.2-.1-.3-.2-.3-.2-.7-.2.1.1-.3.1v-.1c-.4-.1-.3 0-.5-.1.1 0 .6.1.8.3-.1 0-.1 0 0 .1-.2-.1-.2 0-.2 0l-.3-.2.3.3c-.1 0-.3-.1-.5-.2-.1.1.4.1.4.3-.2 0-.1.1.1.3-.1 0-.2-.1-.3-.1l.2.2s-.1 0-.1-.1c.1.1.3.2.3.3.3.2-.5-.1-.2.1-.1 0-.2-.1-.3-.2.2.2.1.2.4.5h-.2c.2.1.4.3.6.5.1 0 .2.1.3.1l.1.2c-.1 0-.1-.1-.2-.2l.1.1c-.1 0-.3-.2-.4-.3.1 0 .1.1.2.1-.2-.1-.3-.3-.5-.4 0 0 0 .1.1.1l-.1-.1.1.1-.3-.2.1.1h-.3c.2.3.6.7.7.9-.2-.2-.4-.3-.6-.5.3.2 0-.2.1-.2-.1 0-.2-.1-.2-.1l.2.3c-.2-.2-.2-.1-.3-.1.4.3.2.3.3.4-.7.1-.8 0-.7-.1-.4-.2.4.5.1.3V89c.1.1-.1.1-.2 0-.1.1-.2.3.1.6 0 0-.4-.4-.5-.4 0 0 .2.3.5.6.2.3.5.6.5.6-.3-.3-1-.8-1.1-1-.1 0-.1 0-.1.1.1 0 .4.3.5.4-.4-.2-.2-.1-.5-.3.1 0 .5.5.5.5-.1-.1-.4-.4-.5-.4l.3.5c-.1-.1-.4-.3-.5-.4.1.1-.1.1-.1.1l.1.1c-.2 0 .5.7.4.8 0-.3-.5-.8-.6-.8.2.2.9 1.1 1 1.4l-.1-.1.1.2c-.2-.4-.8-1.2-1-1.5-.1-.1-.1-.1-.2-.1-.1-.1-.1-.2-.1-.2h-.2c.2.3.1.3.3.6l-.1-.4c.2.2.6.8.5.8-.1-.1-.4-.5-.5-.6.1.1.1.2 0 .2l-.1-.2c-.1-.1.2.4-.1.2 0 0-.3-.3-.2-.1.3.3 1.1 1.2 1.2 1.5 0 0-.4-.2-.5-.3-.2-.2-.4-.6-.6-.8.1.1.1.2.1.2-.1 0-.2-.2-.2-.2.2.3-.1.1.2.3 0 .1-.1 0-.1 0 .2.2.4.7.4.8 0-.1-.1-.2-.2-.2-.1.1-.3 0-.4 0-.1-.1-.2-.1-.2-.3 0 .1.1.2 0 .2-.2-.2 0-.1-.2-.4.1.2.1.3.1.4.2.3.1 0 .1-.1.2.4.4.8.3 1.1-.1.2-.2-.2-.2-.2-.2 0 .2.8-.1.6-.2-.2-.2-.5-.3-.7 0-.1.2.1.3.1l-.1-.1c0-.1 0-.2.1-.1-.2-.2-.3.1-.6 0 0 .1 0 .2.1.3v-.1c.1.2 0 .3.1.4 0 .2 0 .4-.2.4l-.1-.3c0 .1.1.2.1.1 0 .1-.3-.4-.2.1l.1.2c0 .2 0 .5-.1.5.1.3 0 0 .2.3-.2-.4.3-.1 0-.5.2.4.2.1.4.4 0-.1-.1-.2 0-.2v-.1l-.1-.1c0-.2.1-.3.1-.4.1 0 0 .1.1.2V93c.1.2.3.3.2.5h.1c.1.1.2.1.2 0 .1 0 0-.3 0-.1l.1-.2v.1c.2-.1.1-.5.5-.2 0-.1 0-.2.1-.2l.1.2c0-.1.3 0 .2-.1.4.4.4-.1.5-.1l-.2-.2c.1 0 .1-.2.1-.3V92c-.1-.2.3 0 .4-.1.1.1 0 .1 0 .1.5.3 0-.5.4-.3 0-.1 0-.1.1-.1 0 0 .1 0 .1.1-.1 0-.1-.1-.1-.1v-.1l.2.2c.1 0-.1-.1-.2-.2 0 0 0-.1-.1-.1.3.3 0-.2.3.1-.1-.2 0-.3-.3-.6 0 0 .1 0 .1.1.1 0 .1 0 .1-.1l.3.2-.3-.4c.2.1.3.1.4.3-.2-.4 0-.2-.2-.5l.2.1s-.1-.3 0-.2c.4.2.3-.3.8-.3-.5-.3.3.1-.1-.2.1.1.2.1.3.2 0-.2.3 0 0-.3.1.1.2.1.2.2 0 0-.1-.1 0-.1s.1.1.1.1c.1-.1-.3-.4-.6-.6.2.1.2 0 0-.2.1.1.3.1.3.2 0 0 .3-.1 0-.3.1 0 .1 0 0-.1.1-.1.1-.1.1-.2h-.1c-.3-.2 0-.1 0-.2.3 0-.1-.1.3-.1l-.2-.1c-.5-.3.4 0 .2-.2h-.1c-.1-.1.7.2.8.2l.1.1c.4 0-.3-.2-.3-.3.2.1.4.2.5.2.1 0-.4-.5-.1-.4-.1 0-.3-.1-.3-.2s.6 0 .2-.2h.1c-.3-.3-.3-.5-.5-.6.8.3-.2-.5.5-.2v-.2h.1c.1-.1-.1-.2-.2-.3.1 0 .1 0 .2.1.2-.1.2-.1-.1-.4l.2.1c-.1-.1.5-.1.2-.4 0 0 .1 0 .1.1-.2-.3.8-.3-.1-.6l-.1-.2c-.1.1-.4-.1-.6-.1 0-.1.3-.1.3 0 .5.2.2-.2.5-.1.1-.3.4-.6.5-.9h-.4v-.1c.1 0 .3 0 .3.1.2 0-.2-.2-.2-.2.2-.1.4.1.4.1v-.1c-.1-.1-.3-.1-.3-.2h.3l.1-.1h-.3c-.1-.1 0-.1-.3-.1.5 0 .2-.5.4-.5-.2-.1-.2-.2-.2-.3-.1 0-.4 0-.4-.1.7.1.3-.1.8-.2-.3 0-.1-.3-.5-.2.1-.1.3 0 .4 0-.3-.2.2-.4.1-.6h-.4l.5-.1s-.5 0-.2-.1h-.2c.2-.2.1-.4.1-.6 0-.2 0-.4.4-.4-.2 0-.2 0-.2-.1 0 0-.2 0-.3-.1h.4c-.3-.1 0-.1-.3-.2v.1c-.4-.2-.8-.2-1.3-.3.4.2-.7.1-.1.4-.1 0-.2-.1-.3-.1.2.1.2.1.1.2h-.1c0 .3-.2.3-.3.6h.2c0 .1-.1.1-.2.1.4.1 0-.2.4-.1-.5.1 0 .4-.6.4 0 .1.3 0 .3.1h-.2.2c0 .1-.2.1-.4.1-.2.1.1.2 0 .2l.1-.1c.1.2-.1.4.2.6h.1c.2.2-.1.1 0 .3.1 0 .2.1.2.1-.1-.1-.3.1-.4 0 .2.2.2.1.6.2h-.2c.2.1.3.1.3.2-.2-.1-.3 0-.5-.1-.4.1.4.3-.2.3.5.1.3-.1.4 0 .2 0 .4.1.3.2 0 .1-.7 0-.7.1-.1 0 .2.1-.1.2.3.1 0 .1.4.2l-.1-.1c.1.1.6.2.3.3-.1 0-.2-.1-.2-.1-.1 0 .1.1-.1.1-.4-.1-.1-.2-.4-.3-.2 0 .3.2-.2.1.6.2-.1.1.3.3l-.1-.4.1.1-.3-.1c.3.1-.3.1-.1.2 0-.1.3 0 .5 0 .3.2-.7 0-.6.2 0 0 .2-.1.3 0-.1 0-.2.1-.3 0 0 .1.3 0 .4.1-.3 0 .1.1.2.2l-.2-.1c-.2.1.5.2.3.3l-.3-.1.1.1-.3-.1c.2.1.1.1 0 .2.2 0 .4.1.4.2-.2 0-.2-.1-.2 0-.1-.1-.3-.1-.1-.1-.1 0-.1-.1-.2-.1-.2 0-.1.1-.1.1h.1l.3.2c-.1 0-.2 0-.2-.1l.1.1c-.2-.1-.4-.1-.5-.2l.2.2c-.1 0-.3 0-.3-.1-.1 0 .3.3.1.3 0 0 .1 0 .1.1-.1.1-.3.1-.1.3l-.4-.1c0 .1.5.1.5.3.1.1-.3-.1-.4-.1.1.2.4.4.1.3zm-.3 1s-.1-.1 0 0c.3.1.1 0 0 0zm-.3 1.7c0-.1 0 0 0 0 .1 0 .1 0 0 0zm-2.5 4.6c.1.1 0 .1 0 0zm-.2 0s0 .1 0 0c0 0 0-.1 0 0zm6.4-9.7c-.2-.1-.1 0 0 0z"/><path id="XMLID_768_" class="st1" d="M91.4 88.3s.1 0 .1.1c0-.1 0-.1-.1-.1z"/><path id="XMLID_767_" class="st1" d="M92.3 85.3v-.1z"/><path id="XMLID_766_" class="st1" d="M89.2 90.6s.1 0 .1.1c0-.1-.1-.1-.1-.1z"/><path id="XMLID_765_" class="st1" d="M88.4 93.8v-.1.1z"/><path id="XMLID_764_" class="st1" d="M87.4 92.5v0z"/><path id="XMLID_763_" class="st1" d="M88.1 93.1c-.1-.2-.1-.2-.1-.1 0 .3.1.2.1.1z"/><path id="XMLID_762_" class="st1" d="M88 93c-.1 0-.1 0 0 0-.1.1-.1 0 0 0z"/><path id="XMLID_761_" class="st1" d="M88.8 93.4s.1.3 0 .2c.1.2.1-.4 0-.2z"/><path id="XMLID_760_" class="st1" d="M87.9 92.4l.1.2-.1-.2z"/><path id="XMLID_759_" class="st1" d="M88.3 92.5c-.1 0-.1 0 0 0-.1 0 0 0 0 0z"/><path id="XMLID_758_" class="st1" d="M88.2 92.5s-.1 0 0 0c0 .1 0 0 0 0z"/><path id="XMLID_757_" class="st1" d="M87.9 92.3h.1z"/><path id="XMLID_756_" class="st1" d="M89 92.2v-.1-.1.2z"/><path id="XMLID_755_" class="st1" d="M88.5 91.6s.1.1.1.2l-.1-.3v.1z"/><path id="XMLID_754_" class="st1" d="M88.6 91.5c0-.1 0-.3-.1-.2.1 0 .1.1.1.2z"/><path id="XMLID_753_" class="st1" d="M89.8 91.2l.3.4z"/><path id="XMLID_752_" class="st1" d="M89.7 89.6c-.1 0 .2.2.1.2.1.1.1 0 .2.1-.1-.1 0-.1-.3-.3z"/><path id="XMLID_751_" class="st1" d="M90 89.9s0 .1 0 0c0 .1 0 0 0 0z"/><path id="XMLID_750_" class="st1" d="M95.8 80h.1-.2z"/><path id="XMLID_749_" class="st1" d="M95.5 79.8l.3.1-.3-.1z"/><path id="XMLID_748_" class="st1" d="M91.3 86.7l.2.1-.2-.1z"/><path id="XMLID_747_" class="st1" d="M91.8 86.2l.3.1z"/><path id="XMLID_746_" class="st1" d="M91.7 85.5s.3.1 0 0z"/></g></g></g></g></g><g id="XMLID_162_"><g id="XMLID_643_"><g id="XMLID_647_"><g id="XMLID_648_"><g id="XMLID_649_"><path id="XMLID_737_" class="st1" d="M99.2 85.1l.2.1-.2-.1z"/><path id="XMLID_736_" class="st1" d="M98.8 84.7h.1l-.2-.1z"/><path id="XMLID_735_" class="st1" d="M98.9 84.4c-.4-.1 0 .1-.1.1h-.1l.3.1s-.2-.1-.1-.2z"/><path id="XMLID_734_" class="st1" d="M99.7 84.5c-.1 0-.1 0 0 0 0 .1 0 .1 0 0 0 .1 0 .1 0 0z"/><path id="XMLID_733_" class="st1" d="M99.7 84.6s.1 0 0 0z"/><path id="XMLID_732_" class="st1" d="M99.7 84.4l.1.1h.2c-.1-.1-.2-.1-.3-.1z"/><path id="XMLID_731_" class="st1" d="M99.4 84.3c.1 0 .1 0 0 0z"/><path id="XMLID_730_" class="st1" d="M99.6 84.4l-.1-.1c-.1 0-.2 0 .1.1-.2-.1-.1 0 0 0z"/><path id="XMLID_729_" class="st1" d="M99.5 84.4c-.1 0-.1 0-.3-.1.1.1.3.2.3.1z"/><path id="XMLID_728_" class="st1" d="M98.6 84.3h-.1.1c-.1 0 .1.1 0 0z"/><path id="XMLID_727_" class="st1" d="M99.9 84.2c-.1 0-.2 0-.3-.1l.1.1h.2z"/><path id="XMLID_726_" class="st1" d="M99.6 84.2l-.1-.1s0 .1.1.1z"/><path id="XMLID_725_" class="st1" d="M99 84.2l.3.1-.3-.1z"/><path id="XMLID_724_" class="st1" d="M100 84.1l.1.1-.2-.2z"/><path id="XMLID_723_" class="st1" d="M100 84c.1.1.3 0 .3.1 0-.1-.1-.1-.3-.1.1 0 .1 0 0 0z"/><path id="XMLID_722_" class="st1" d="M99.9 83.8s.1 0 .2.1c-.1 0-.1 0-.2-.1z"/><path id="XMLID_721_" class="st1" d="M99.5 84h.2-.2z"/><path id="XMLID_720_" class="st1" d="M99.5 84c.1 0 .1 0 0 0 .1 0 .1 0 0 0z"/><path id="XMLID_719_" class="st1" d="M99.5 84z"/><path id="XMLID_718_" class="st1" d="M99.2 84.1c-.1 0-.2-.1-.4-.1.2.1.3.1.4.1z"/><path id="XMLID_717_" class="st1" d="M99.3 84l.1.1-.1-.1z"/><path id="XMLID_716_" class="st1" d="M99.2 84h.1z"/><path id="XMLID_715_" class="st1" d="M99.7 83.9c-.1 0-.1-.1-.1-.1s-.1 0-.1.1c.1-.1.2 0 .2 0z"/><path id="XMLID_714_" class="st1" d="M99.6 83.9z"/><path id="XMLID_713_" class="st1" d="M99.6 83.6v-.1.1z"/><path id="XMLID_712_" class="st1" d="M99.5 83.8c-.1 0 0 .1 0 0 0 .1 0 0 0 0s-.1 0 0 0z"/><path id="XMLID_711_" class="st1" d="M99.8 83.8h-.1.1z"/><path id="XMLID_710_" class="st1" d="M99.6 83.9c.1 0 .1 0 0 0z"/><path id="XMLID_709_" class="st1" d="M99.6 83.9s-.1 0-.1-.1c0 .1.1.1.1.1z"/><path id="XMLID_708_" class="st1" d="M98.3 83.2c.2 0 .4.1.2.1.1.1.8.2 1.2.2-.1 0-.2 0-.3-.1h-.5c-.1-.1.1 0 .2 0-.3-.1-.4-.2-.8-.2h.2-.2z"/><path id="XMLID_707_" class="st1" d="M99.6 83.6h.3-.3z"/><path id="XMLID_706_" class="st1" d="M99.6 83.7c-.2-.1-.3-.1-.5-.2 0 .1.2.1.3.1-.2 0 0 .1.2.1 0 0 0 .1 0 0h.1-.1.1-.1c-.1 0-.1 0 0 0z"/><path id="XMLID_705_" class="st1" d="M98.4 83.8z"/><path id="XMLID_704_" class="st1" d="M98.5 83.8s.1.1 0 0c0 .1 0 .1 0 0 0 0 .1.1.2.1h.4c-.3 0-.4 0-.6-.1z"/><path id="XMLID_703_" class="st1" d="M99 83.8l-.3-.1h.1c-.1 0 .1 0 .2.1z"/><path id="XMLID_702_" class="st1" d="M99.7 83.6h.3l-.3-.1z"/><path id="XMLID_701_" class="st1" d="M99.7 83.5h.2-.1z"/><path id="XMLID_700_" class="st1" d="M97.7 78.5z"/><path id="XMLID_699_" class="st1" d="M97.7 78.6h.1-.1z"/><path id="XMLID_698_" class="st1" d="M100 81.3h.3-.3c.1 0 .1 0 0 0z"/><path id="XMLID_697_" class="st1" d="M98.8 79.8h0z"/><path id="XMLID_696_" class="st1" d="M97.9 79.7h0z"/><path id="XMLID_695_" class="st1" d="M97.5 77.7h-.2.2z"/><path id="XMLID_694_" class="st1" d="M99.8 82.6h.1c-.1-.1-.3-.1-.1 0z"/><path id="XMLID_693_" class="st1" d="M100.1 78.6h-.1.1z"/><path id="XMLID_692_" class="st1" d="M100 82.4s-.1 0 0 0c0 .1 0 .1 0 0 .1.1.1.1 0 0z"/><path id="XMLID_691_" class="st1" d="M97.8 75c.1 0 .1 0 0 0z"/><path id="XMLID_690_" class="st1" d="M100.2 74.5z"/><path id="XMLID_689_" class="st1" d="M99.9 83.1c0 .1 0 0 0 0z"/><path id="XMLID_688_" class="st1" d="M99 83.1h-.1c.1-.1.1-.1.1 0z"/><path id="XMLID_687_" class="st1" d="M98.6 82.1c0-.1 0 0 0 0z"/><path id="XMLID_686_" class="st1" d="M99.8 83.1s.1 0 0 0c.1 0 0 0 0 0z"/><path id="XMLID_685_" class="st1" d="M99.9 83.2z"/><path id="XMLID_684_" class="st1" d="M99.9 83.1z"/><path id="XMLID_683_" class="st1" d="M98.3 76.5s.1 0 0 0z"/><path id="XMLID_682_" class="st1" d="M97.8 80.6z"/><path id="XMLID_681_" class="st1" d="M97.6 80.6c.3 0 .2.1.2.1h.6l-.8-.1z"/><path id="XMLID_673_" class="st1" d="M97.6 78.2h-.2c-.3-.1-.2-.1-.5-.1.7 0 .1.2.8.2h-.1c-.3 0 .5.1.4.1h-.2l.2.1h-.1l.1.1c.1 0 .3.1.4.1h-.2l.2.1c-.2 0-.4 0-.3-.1-.7 0 .2 0-.2.1h-.1c-.4 0-.3.1-.5.1.1 0 .6-.1.8 0-.1 0-.1 0 .1.1-.3 0-.2 0-.2.1h-.3c.1 0 .3 0 .4.1h-.5c-.1.1.4 0 .5.1-.1 0 0 .1.2.2H98 98.2c.1 0 .3 0 .4.1.4 0-.5.1-.1.1h-.3c.3.1.2.1.6.2h-.2c.3 0 .5 0 .8.1h.3l.2.1h-.3.1-.5.2c-.2 0-.4-.1-.6-.1h.1-.1.1-.4.1l-.2.1c.4.1.9.2 1.1.3-.3 0-.4 0-.8-.1.3 0-.1-.1-.1-.1h-.2l.3.1h-.3c.5 0 .3.1.5.1-.2 0-.4 0-.3-.1-.4 0 .6.1.3.1h-.1c.2 0 0 .1-.1.1-.1.1 0 .2.4.3-.1 0-.5-.1-.6-.1l1.5.3c-.4 0-1.3-.1-1.5-.2-.1 0-.1 0 0 .1h.6-.6c.1 0 .7.1.7.1-.1 0-.6-.1-.6-.1l.6.1c-.1 0-.5-.1-.7-.1.1 0 0 .1 0 .1h.1c-.1.1.8.2.8.2-.1 0-.7-.1-.8-.1.3 0 1.4.2 1.6.3h-.2l.2.1c-.4-.1-1.4-.3-1.7-.4h-.2c-.2 0-.2-.1-.2-.1l-.1.1c.3 0 .3.1.6.1l-.3-.2c.3 0 1 .2.9.2-.1 0-.6-.1-.7-.1.1 0 .2.1.1.1l-.2-.1c-.1 0 .5.1.1.1h-.2c.4 0 1.6.2 1.9.2h-.6c-.3 0-.7-.1-1-.2.1 0 .2 0 .2.1h-.3c.4.1 0 .1.3.1.1.1-.1 0-.1.1.2 0 .8.2.9.2h-.3c0 .1-.2.1-.2.2h-.3c.1 0 .2 0 .2.1-.3 0 0-.1-.4-.1.2 0 .3.1.4.2.3 0 .1-.1 0-.1.4.1.9.2 1.1.3.1.1-.3 0-.2 0-.1.1.7.2.4.3-.3 0-.5-.1-.7-.1-.1-.1.2 0 .2-.1h-.1c-.1 0-.2-.1-.1-.1-.3 0-.1.2-.3.2.1 0 .2.1.3.1.2 0 .3.1.4.1.1.1.4.2.2.2l-.3-.1h.1c.1.1-.4 0 0 .1h.2c.1.1.5.2.4.2h.3c-.5-.1 0-.1-.4-.2h.6c-.1 0-.2 0-.1-.1h-.1-.2c-.2-.1-.2-.1-.3-.2h.2l-.2-.1c.2 0 .4 0 .5.1v-.1c.1 0 .2 0 .1-.1.1 0-.2-.1-.1-.1l-.1-.1h.1c0-.1-.4-.2.1-.3-.1 0-.1-.1 0-.1h.2c-.1 0 .2-.1 0-.1.5 0 .1-.2.2-.2h-.3s0-.1-.1-.2h-.2c-.2-.1.2-.1.2-.2.1 0 .1 0 0 0 .5 0-.4-.2 0-.3-.1 0-.1 0 0 0h.1-.1l-.1-.1h-.1c.4 0-.1-.1.3-.1-.2 0-.1-.1-.6-.2h.1c.1 0 .1 0 0-.1h.3l-.4-.1h.6c-.4-.1-.1-.1-.5-.2h.2s-.3-.1-.1-.1c.4 0 .1-.3.4-.4-.6 0 .3 0-.2-.1h.3c-.1-.1.2-.1-.2-.2h.3s-.1 0 0 0h.2c0-.1-.5-.1-.9-.1.2 0 .2 0-.1-.1h.3s.2-.1-.1-.2c.1 0 0 0 0 0 0-.1.1-.1 0-.1h-.1c-.4 0-.1-.1-.1-.1.3-.1-.1-.1.2-.1h-.2c-.5 0 .3-.1.1-.1h-.1c-.2 0 .7-.1.8-.1h.1c.3-.1-.3 0-.4-.1h.5c.1 0-.6-.1-.2-.2h-.4s.5-.1.1-.2h.1c-.1 0-.2-.1-.4-.1.9 0-.4-.2.4-.2v-.1h.1c.1-.1-.1-.1-.3-.1h.2c.2-.1.1-.1-.3-.2h.3c-.1 0 .4-.1.1-.2h.1c-.3-.1.7-.2-.2-.3l-.2-.1c-.1.1-.4 0-.6 0-.1 0 .3-.1.3 0 .5 0 .2-.1.5-.1 0-.2.3-.3.3-.5h-.4v-.1h.3c.2 0-.2-.1-.3-.1.2-.1.4.1.5 0-.2 0-.3 0-.3-.1h.3v-.1h-.3c-.1 0 0-.1-.3-.1.5 0 .2-.3.4-.3-.2-.1-.2-.1-.2-.2-.1 0-.4 0-.4-.1.7.1.3-.1.8-.1-.3 0-.1-.1-.5-.1h.4c-.3-.1.2-.2.1-.3h-.4.5s-.5-.1-.2-.1h-.2c.5-.2-.3-.5.5-.6h-.2-.3.4c-.3-.1 0-.1-.3-.2h.1c-.4-.1-.9-.1-1.4-.1.4.1-.7 0 0 .2h-.3c.2 0 .3.1.1.1h-.1c0 .1-.2.2-.3.3h0c.4.1 0-.1.4 0-.5 0 0 .2-.6.2 0 0 .3 0 .3.1h-.2-.2c-.2 0 .1.1 0 .1h.1c.1.1-.1.3.2.4h.1c.2.1-.1.1 0 .2.1 0 .2.1.2.1h-.4c.2.1.2.1.6.2h-.2c.2 0 .3 0 .3.1-.2-.1-.3 0-.5 0-.4.1.4.2-.2.2.5.1.3-.1.4 0 .2 0 .4.1.3.1 0 0-.7 0-.7.1-.1 0 .2.1 0 .1.3 0 0 .1.4.1l-.1-.1c.1.1.6.1.3.2-.1 0-.2 0-.3-.1-.1 0 .1 0 0 .1-.4 0-.1-.1-.4-.2-.2 0 .3.1-.2.1.6.1-.1.1.4.2h-.2s.2 0 .1.1H99c.3.1-.2.1-.1.1 0-.1.3 0 .5 0 .3.1-.6 0-.5.2 0 0 .2-.1.3 0-.1 0-.1.1-.3.1 0 .1.3 0 .4 0-.3 0 .1 0 .2.1h-.3c-.2.1.5.1.3.1l-.3-.1h.1-.3c.2.1.2.1.1.1.2 0 .5 0 .5.1h-.2c-.2 0-.4 0-.1-.1h-.2c-.2 0 0 .1 0 .1h.1l.3.1h-.2s.1 0 .2.1c-.2 0-.4 0-.5-.1l.2.1h-.3c-.1 0 .4.1.2.2h.1c0 .1-.3.1 0 .2h-.4c.1.1.5 0 .6.1.1.1-.3 0-.4 0-1.4.5-1 .6-1.4.6 0 0 .1 0 0 0zm.2.6c-.1 0-.2 0 0 0s.1 0 0 0zm.5 1.1c0-.1 0-.1 0 0 .1-.1.1-.1 0 0zm1.4 3c.1 0 .1 0 0 0zm-.1 0h0zm.4-6.5c-.1 0 0 0 0 0z"/><path id="XMLID_672_" class="st1" d="M98 79.7h0z"/><path id="XMLID_671_" class="st1" d="M97.5 77.7z"/><path id="XMLID_670_" class="st1" d="M97.7 81.7h.1-.1z"/><path id="XMLID_669_" class="st1" d="M100 83.4h-.1c0-.1.1-.1.1 0z"/><path id="XMLID_668_" class="st1" d="M98.4 83.4l.1.1c0-.1-.1-.2-.1-.1z"/><path id="XMLID_667_" class="st1" d="M99.1 83.2H99c.3.1.2.1.1 0z"/><path id="XMLID_666_" class="st1" d="M99 83.3c.1 0 .1 0 0 0 .2 0 .1 0 0 0z"/><path id="XMLID_665_" class="st1" d="M99.7 83c-.1 0 .3.1.2.1.3.1-.3-.2-.2-.1z"/><path id="XMLID_664_" class="st1" d="M98.5 83.1h.2-.2z"/><path id="XMLID_663_" class="st1" d="M98.7 82.9c0 .1 0 .1 0 0 0 .1.1 0 0 0z"/><path id="XMLID_662_" class="st1" d="M98.7 83z"/><path id="XMLID_661_" class="st1" d="M98.4 83h.1z"/><path id="XMLID_660_" class="st1" d="M98.8 82.5l-.2-.1c.1 0 .1.1.2.1z"/><path id="XMLID_659_" class="st1" d="M98.1 82.5h.2-.3.1z"/><path id="XMLID_658_" class="st1" d="M98.1 82.4c-.1 0-.2-.1-.2 0 0-.1.1 0 .2 0z"/><path id="XMLID_657_" class="st1" d="M98.6 81.7l.5.1z"/><path id="XMLID_656_" class="st1" d="M97.4 81c-.1 0 .3 0 .2.1h.2c-.2-.1-.1-.1-.4-.1z"/><path id="XMLID_655_" class="st1" d="M97.8 81.1z"/><path id="XMLID_654_" class="st1" d="M100.5 74.4h.1-.2z"/><path id="XMLID_653_" class="st1" d="M100.1 74.3h.3-.3c.1 0 .1 0 0 0z"/><path id="XMLID_652_" class="st1" d="M97.1 78.9h.2-.2z"/><path id="XMLID_651_" class="st1" d="M97.4 78.4h.3z"/><path id="XMLID_650_" class="st1" d="M97 78s.1.1 0 0c0 0 .4 0 0 0z"/></g></g></g></g></g><g id="XMLID_9_"><g id="XMLID_547_"><g id="XMLID_551_"><g id="XMLID_552_"><g id="XMLID_553_"><path id="XMLID_641_" class="st1" d="M52.2 116.2v0z"/><path id="XMLID_640_" class="st1" d="M52.5 115.7v.1-.3z"/><path id="XMLID_639_" class="st1" d="M52.8 115.6c-.1-.4-.1.1-.2 0v-.1.3c.1-.1.2-.3.2-.2z"/><path id="XMLID_638_" class="st1" d="M53.1 116.4c0-.1 0-.1 0 0z"/><path id="XMLID_637_" class="st1" d="M53.1 116.4c-.1 0 0 .1 0 0z"/><path id="XMLID_636_" class="st1" d="M53.2 116.3v.1c0 .1.1.1.1.2 0-.1 0-.2-.1-.3z"/><path id="XMLID_635_" class="st1" d="M53.3 116c-.1.1 0 .1 0 0z"/><path id="XMLID_634_" class="st1" d="M53.2 116.2v-.1.1c0-.2 0-.1 0 0z"/><path id="XMLID_633_" class="st1" d="M53.2 116.2c0-.1-.1-.1 0-.3-.2.1-.1.3 0 .3z"/><path id="XMLID_632_" class="st1" d="M52.8 115.3v-.1.1c0-.1 0 .1 0 0z"/><path id="XMLID_631_" class="st1" d="M53.6 116.5c0-.1 0-.2-.1-.3v.1s.1 0 .1.2z"/><path id="XMLID_630_" class="st1" d="M53.5 116.2v-.1.1z"/><path id="XMLID_629_" class="st1" d="M53.2 115.6v.3-.3z"/><path id="XMLID_628_" class="st1" d="M53.8 116.4v.2-.3z"/><path id="XMLID_627_" class="st1" d="M53.9 116.4c0 .2.1.3 0 .3 0 0 0-.2.1-.3 0 .1 0 .1-.1 0z"/><path id="XMLID_626_" class="st1" d="M54 116.3v0z"/><path id="XMLID_625_" class="st1" d="M53.6 116s0 .2.1.2l-.1-.2z"/><path id="XMLID_624_" class="st1" d="M53.7 116z"/><path id="XMLID_623_" class="st1" d="M53.6 116z"/><path id="XMLID_622_" class="st1" d="M53.4 115.8c0-.1.1-.3 0-.4v.4z"/><path id="XMLID_621_" class="st1" d="M53.6 115.8c-.1 0 0 .1 0 .2v-.2z"/><path id="XMLID_620_" class="st1" d="M53.6 115.7v.1z"/><path id="XMLID_619_" class="st1" d="M53.9 116.1c0-.1 0-.1.1-.1l-.1-.1v.2z"/><path id="XMLID_618_" class="st1" d="M53.8 116z"/><path id="XMLID_617_" class="st1" d="M54.3 115.9z"/><path id="XMLID_616_" class="st1" d="M53.9 115.9c-.1-.1-.1 0 0 0-.1 0 0 0 0 0z"/><path id="XMLID_615_" class="st1" d="M54.1 116.2s0-.1-.1-.1c.1 0 .1.1.1.1z"/><path id="XMLID_614_" class="st1" d="M53.8 116.1z"/><path id="XMLID_613_" class="st1" d="M53.8 116.1v-.1.1c0-.1 0 0 0 0z"/><path id="XMLID_612_" class="st1" d="M54.2 114.5c0 .2 0 .4-.1.2 0 .2.1.8.2 1.2v-.3c0-.1-.2-.2-.1-.4.1-.1.1.1.1.2-.1-.3 0-.5-.1-.9v0z"/><path id="XMLID_611_" class="st1" d="M54.2 115.9c0 .1 0 .1.1.3v-.2l-.1-.1z"/><path id="XMLID_610_" class="st1" d="M54.1 115.9v-.6c-.1 0 0 .2-.1.3.1 0 0 .2.1.3-.1 0-.1 0 0 0v.1s-.1 0 0-.1c0 .1 0 0 0 0 0 .1 0 .1 0 0v.1l.1-.1h-.1z"/><path id="XMLID_609_" class="st1" d="M53.4 114.9z"/><path id="XMLID_608_" class="st1" d="M53.4 115v0c-.1 0-.1.1 0 .2s.1.3.1.4c0-.3 0-.4-.1-.6z"/><path id="XMLID_607_" class="st1" d="M53.7 115.4l.1-.1-.1-.2V115.4z"/><path id="XMLID_606_" class="st1" d="M54.3 116v.3-.4z"/><path id="XMLID_605_" class="st1" d="M54.4 116l.1.2v-.1z"/><path id="XMLID_604_" class="st1" d="M59.5 111.4z"/><path id="XMLID_603_" class="st1" d="M59.4 111.6z"/><path id="XMLID_602_" class="st1" d="M57.5 115.5c.1.2.2.5.2.2l-.2-.2c.1.1 0 0 0 0z"/><path id="XMLID_601_" class="st1" d="M59 113.4v0z"/><path id="XMLID_600_" class="st1" d="M58.5 112.6l.1.1-.1-.1z"/><path id="XMLID_599_" class="st1" d="M60 110.6l-.2-.2.2.2z"/><path id="XMLID_598_" class="st1" d="M55.6 115.8c0 .1.1.1.1.1 0-.1-.1-.3-.1-.1z"/><path id="XMLID_597_" class="st1" d="M61.2 113.2s0-.1-.1-.1l.1.1z"/><path id="XMLID_596_" class="st1" d="M55.9 115.9c-.1-.1-.1-.1 0 0h-.1c0 .1 0 .1.1 0z"/><path id="XMLID_595_" class="st1" d="M61.8 107.9z"/><path id="XMLID_594_" class="st1" d="M64.1 107z"/><path id="XMLID_593_" class="st1" d="M54.9 116s0 .1 0 0z"/><path id="XMLID_592_" class="st1" d="M54.7 115.2v-.1.1z"/><path id="XMLID_591_" class="st1" d="M55.9 114.4z"/><path id="XMLID_590_" class="st1" d="M54.9 115.9c0 .1 0 .1 0 0 0 .1 0 .1 0 0z"/><path id="XMLID_589_" class="st1" d="M54.9 116c0 .1 0 .1 0 0z"/><path id="XMLID_588_" class="st1" d="M55 116c-.1 0-.1 0 0 0-.1 0-.1 0 0 0-.1 0-.1 0 0 0z"/><path id="XMLID_587_" class="st1" d="M61.6 109.7s.1 0 0 0z"/><path id="XMLID_586_" class="st1" d="M57.5 113.1z"/><path id="XMLID_585_" class="st1" d="M57.5 112.9c.1.3 0 .2 0 .2l.2.6-.2-.8z"/><path id="XMLID_577_" class="st1" d="M59.8 111.1l-.2-.1c-.2-.3-.1-.2-.3-.4.5.5-.1.2.4.7l-.1-.1c-.3-.2.3.4.2.4-.1 0-.2-.1-.2-.1l.1.2-.1-.1v.1c.1.1.2.2.2.3-.1-.1 0-.1-.1-.1l.1.2c-.1-.1-.2-.3-.2-.3-.5-.5.1.2-.3 0v-.1c-.3-.3-.2-.1-.4-.3.1.1.5.4.6.5-.1 0-.1 0 0 .1-.2-.2-.2-.1-.2-.1l-.2-.2c0 .1.1.2.2.4-.1 0-.2-.2-.4-.3-.1 0 .3.3.3.4-.1-.1-.1.1 0 .3-.1-.1-.1-.2-.2-.2l.1.2-.1-.1c0 .1.2.3.2.4.2.3-.4-.4-.2 0-.1-.1-.1-.2-.2-.3.1.3.1.2.2.6l-.2-.1c.2.2.3.5.4.7l.2.2v.2s-.1-.1-.2-.3v.1c-.1-.1-.2-.3-.3-.4 0 0 .1.1.1.2-.1-.2-.2-.4-.3-.5v.1s0-.1-.1-.1v.1l-.2-.3.1.1-.2-.1c.1.4.3.9.3 1.1-.1-.3-.2-.4-.3-.7.2.3 0-.2.1-.1l-.1-.2v.3c-.1-.2-.1-.2-.2-.2.3.5.1.3.1.5-.1-.2-.1-.3-.1-.3-.2-.3.2.6 0 .3v-.1c0 .2-.1.1-.1-.1-.1 0-.3.1-.1.5 0-.1-.2-.5-.2-.6 0 0 .1.4.2.7.1.4.1.7.1.7-.1-.4-.4-1.2-.4-1.4 0 0-.1-.1-.1 0l.2.5c-.2-.4-.1-.2-.3-.5 0 .1.2.6.1.6 0-.1-.2-.6-.2-.6l.1.6c0-.1-.1-.5-.2-.6 0 .1-.1 0-.1.1l.1.1c-.1-.1.1.8 0 .8 0-.1-.1-.7-.2-.8 0 .3.2 1.4.1 1.7l-.1-.2v.2c0-.5-.1-1.4-.1-1.8-.1-.1-.1-.2-.1-.2-.1-.2 0-.2 0-.3l-.2-.1c.1.3 0 .4 0 .6l.1-.4c.1.3.1 1 0 1-.1-.1-.1-.6-.1-.7 0 .1-.1.2-.1.2v-.2c-.1-.1 0 .5-.1.2 0 0-.1-.4-.1-.2.1.4.3 1.6.3 1.9 0 0-.2-.4-.3-.5-.1-.3-.1-.7-.1-1v.3c0-.1 0-.3-.1-.2 0 .4-.1 0 0 .3 0 .1-.1-.1-.1 0 .1.2.1.8 0 .9 0-.1 0-.2-.1-.3-.1 0-.2-.2-.3-.2 0-.1-.1-.2-.1-.3v.2c-.1-.3.1-.1 0-.4 0 .2-.1.3-.1.4.1.3.1 0 .2-.1.1.4 0 .9-.1 1.1-.1.1-.1-.3-.1-.2-.2-.1-.1.8-.2.5-.1-.3-.1-.6-.1-.8.1-.1.1.2.2.1l-.1-.1c0-.1.1-.2.1-.1-.1-.2-.3 0-.5-.2v.3c.1.2 0 .3 0 .4 0 .2-.1.4-.2.3l-.1-.3c0 .1.1.2.1.1 0 .1-.2-.4-.2 0l.1.2c0 .2-.1.5-.1.4l.1.3c-.1-.4.2 0 .1-.5.1.4.1.2.2.5v-.2-.1-.2c0-.2.1-.2.1-.4v.2-.2c0 .2.1.4.1.5h.1c.1.1.1.2.2.1 0 0 .1-.3 0-.1l.1-.2v.1c.1 0 .2-.4.4 0 0-.1.1-.1.1-.1v.2c0-.1.2.2.2 0 .1.5.3.1.4.2v-.3c.1 0 .1-.1.2-.2v-.2c0-.2.2.1.3.1 0 .1 0 .1-.1 0 .2.5.2-.4.4-.1 0-.1 0-.1.1 0l.1.1c0-.1 0-.1-.1-.1 0 0 .1 0 .1-.1l.1.2c.1.1 0-.1-.1-.3v-.2c.1.4.1-.2.2.3 0-.2.1-.2 0-.6v.1c.1 0 .1.1.1-.1l.2.2-.1-.4c.1.2.2.3.2.5 0-.4.1-.2 0-.6l.1.2s0-.3.1-.1c.2.3.4-.1.8.1-.3-.5.2.2 0-.2.1.1.1.2.2.3 0-.2.3.1.2-.3.1.1.1.2.1.3v-.1c.1.1 0 .1.1.2.1-.1-.1-.5-.3-.8.2.1.2.1.1-.2.1.1.2.2.2.3 0 0 .3 0 .1-.3.1.1.1 0 0 0 .1 0 .1 0 .2-.1h-.1c-.2-.3 0-.1 0-.2.3.1 0-.1.3 0l-.2-.2c-.3-.4.3.2.2-.1l-.1-.1c-.1-.2.6.5.7.5v.1c.3.1-.2-.3-.2-.4.1.1.3.3.4.3.1.1-.3-.5 0-.4l-.3-.3c0-.1.5.2.2-.1 0 0 .1 0 .1.1 0-.1 0-.2-.2-.4.7.6-.1-.5.5 0l.1-.1.1.1c.1 0 0-.2-.1-.3.1 0 .1.1.1.1.2 0 .2 0 0-.4l.2.2c-.1-.1.4.1.3-.2l.1.1c-.1-.3.8.1.1-.5l-.1-.2c-.1.1-.3-.3-.5-.3 0-.1.3.1.3.1.4.3.2 0 .5.2.1-.2.5-.3.7-.5l-.3-.2.1-.1c.1 0 .3.1.2.2.2.1-.1-.2-.2-.2.2 0 .4.3.4.2v-.1c-.1-.1-.2-.2-.2-.3.1 0 .2.1.2.1l.1-.1-.3-.1c-.1-.1.1-.1-.3-.2.5.2.4-.3.5-.3-.2-.2-.1-.2-.1-.3-.1 0-.4-.1-.3-.2.6.3.3 0 .8.1-.3-.1 0-.2-.5-.3.1 0 .2.1.4.1-.2-.2.3-.3.2-.5-.1 0-.2 0-.4-.1h.5c0-.1-.5-.1-.2-.2h-.2c.2-.2.2-.4.2-.6 0-.2 0-.4.4-.7-.2.1-.2 0-.2 0h-.3l.3-.2c-.3 0-.1-.2-.4-.2h.1c-.4 0-.8.2-1.3.3.4 0-.6.2 0 .2H62c.2 0 .3 0 .2.1h-.1c.1.1-.2.2-.3.3h0c.4.1 0-.1.4 0-.5 0 0 .2-.6.2 0 0 .3 0 .3.1h-.2l.2.1h-.4c-.2 0 0 .1 0 .1h.1c.1.2-.1.3.1.5h.1c.2.2-.2 0-.1.2l.1.1c-.1-.1-.3-.1-.4-.2.2.2.1.1.5.4l.1-.1c.1.1.2.1.2.2-.1-.1-.3-.1-.5-.2-.4-.1.3.4-.3.1.4.3.3 0 .4.1.2.1.3.2.3.3 0 0-.6-.3-.7-.2-.1 0 .1.2-.1.1.3.2 0 0 .3.3v-.1c.1.1.4.4.2.4l-.2-.2c-.1 0 0 .1-.1 0-.3-.2 0-.2-.2-.4-.2-.1.2.3-.2 0 .5.3-.1 0 .2.3l-.2-.1.1.1-.2-.2c.2.2-.3 0-.2.1.1-.1.3.1.4.2.2.3-.6-.3-.6-.1 0 0 .2 0 .2.1-.1 0-.2 0-.3-.1 0 .1.2.1.3.3-.3-.1.1.1.1.2l-.2-.2c-.2 0 .4.3.2.3l-.2-.3v.1l-.2-.2c.1.2.1.2 0 .2.1.1.4.3.3.3-.1-.1-.2-.2-.2-.1-.1-.1-.3-.3 0-.1l-.2-.2c-.2-.1-.1.1-.1.1h.1l.2.3c-.1 0-.1-.1-.2-.2 0 0 .1.1.1.2-.2-.1-.3-.3-.4-.4l.1.2c-.1-.1-.2-.1-.3-.2-.1 0 .2.4 0 .3 0 0 0 .1.1.1-.1 0-.3-.1-.2.2l-.3-.2c0 .1.4.3.4.4 0 .1-.3-.2-.3-.2.2.4.4.7.2.5-.1 0 0 0 0 0zm-.5.7s-.1-.2 0 0c.2.2.1.1 0 0zm-.7 1.3c0-.1 0-.1 0 0 .1 0 .1 0 0 0zm-3.4 2.7c0 .1 0 0 0 0zm-.1-.1v0s0-.1 0 0zm8.1-5.3c-.1-.1 0-.1 0 0z"/><path id="XMLID_576_" class="st1" d="M58.6 112.7l.1.1c-.1 0-.1 0-.1-.1z"/><path id="XMLID_575_" class="st1" d="M60 110.6h.1-.1z"/><path id="XMLID_574_" class="st1" d="M56.1 113.4s0 .1.1.1c-.1 0-.1-.1-.1-.1z"/><path id="XMLID_573_" class="st1" d="M54.7 116.2v-.1.1z"/><path id="XMLID_572_" class="st1" d="M54 114.7v.2c0-.1.1-.2 0-.2z"/><path id="XMLID_571_" class="st1" d="M54.5 115.4c0-.3 0-.2 0 0s0 .1 0 0z"/><path id="XMLID_570_" class="st1" d="M54.4 115.3c0 .1 0 0 0 0z"/><path id="XMLID_569_" class="st1" d="M55 115.8v.2c0 .3.1-.3 0-.2z"/><path id="XMLID_568_" class="st1" d="M54.4 114.7l.1.2v-.2z"/><path id="XMLID_567_" class="st1" d="M54.7 114.8c0 .1 0 .1 0 0z"/><path id="XMLID_566_" class="st1" d="M54.7 114.8c-.1 0-.1.1 0 0-.1.1-.1.1 0 0z"/><path id="XMLID_565_" class="st1" d="M54.5 114.6h.1z"/><path id="XMLID_564_" class="st1" d="M55.4 114.8c.1-.2 0-.2 0-.2v.2z"/><path id="XMLID_563_" class="st1" d="M55.1 114.1c0 .1 0 .1.1.2v-.3l-.1.1z"/><path id="XMLID_562_" class="st1" d="M55.3 114c0-.1.1-.3 0-.2 0 .1-.1.1 0 .2z"/><path id="XMLID_561_" class="st1" d="M56.3 114.3l.1.5z"/><path id="XMLID_560_" class="st1" d="M56.9 112.9c-.1-.1.1.3 0 .2 0 .1.1.1.1.2 0-.2 0-.1-.1-.4z"/><path id="XMLID_559_" class="st1" d="M57 113.3z"/><path id="XMLID_558_" class="st1" d="M64.3 106.7l.1-.1-.1.1z"/><path id="XMLID_557_" class="st1" d="M63.9 106.6l.3-.1-.3.1c.1 0 .1 0 0 0z"/><path id="XMLID_556_" class="st1" d="M58.7 111.4c.1.1.1.1.2.1l-.2-.1z"/><path id="XMLID_555_" class="st1" d="M59.3 111.2l.2.2z"/><path id="XMLID_554_" class="st1" d="M59.4 110.5s0 .1 0 0c0 0 .3.3 0 0z"/></g></g></g></g></g></svg>