<svg id="Warstwa_1" xmlns="http://www.w3.org/2000/svg" viewBox="0 0 186.2 285.2"><style>.st0{fill-rule:evenodd;clip-rule:evenodd;fill:#010202}</style><g id="XMLID_232_"><path id="XMLID_284_" class="st0" d="M40.1 81.3c.9.9 1.9 1.8 2.8 2.8 1.1 1.3 2.1 2.6 3.2 4.1.1-.3.2-.6.4-.9 1.1.4 2.2.9 3.3 1.3 1.7.6 3.4 1.2 5.1 1.5 2 .4 3.8.9 5.4 1.8 1.5-1.1 1.5-1.4.2-3.1 0 .4-.1.8-.1 1.1 0 .3 0 .7.1 1-3.8-.2-5.4-2.6-8.1-4.3 2.1 0 3 1.1 4.4 1.7.3-.5.5-1 .7-1.5-1.5-1.3-3.2-2.3-5.3-2.9-2.7-.7-5.4-1.5-8.1-2.2-.1 1.9 1.5 3.3 2.8 4.9-1.4-.5-2.6-1.3-2.9-2.5-.5-2-2.2-3.4-3.6-5-2.2-2.5-3.9-5.3-5.8-7.9-2.5-3.5-5.1-7-7.7-10.5-1-1.4-1.9-2.9-2.6-4.4.4.4.8.8 1.1 1.2 5.1 6 9.7 12.2 13.7 18.6.8 1.3 1.5 2.9 2.9 3.8 1.7 1.1 4 1.6 6 2.4.7.2 1.5.4 2.3.5-1-1.2-1.9-2.3-2.7-3.5-.1-.1 0-.3-.1-.7 1.7 1.5 3.2 2.9 4.8 4.3.4-1.2.9-2.3 1.1-3.3.1-.4-.4-.9-.8-1.2-1.3-1.1-3-1.9-4.9-2.4-1.8-.5-3.7-1.1-5.6-1.7.9 2.1 2 4.2 3.6 6.3-.3-.1-.8-.2-1-.4-.8-.7-1.8-1.4-2.2-2.2-1.3-2.7-3.5-5-5.3-7.5-3.2-4.4-6.3-8.8-9.4-13.1-.1-.2-.1-.3 0-.6 4.6 5.3 8.2 11 12.5 16.5.7-1 .7-1 0-1.6-1.5-1.3-2.6-2.7-2.7-4.4 0-.3-.4-.7-.7-1-4.4-4.6-8-9.5-11.2-14.6-.4-.7-.8-1.4-1.1-2.1 4.2 5.3 7.8 10.9 12.8 15.9-.8-1.4-1.6-2.7-2.3-4.1-2.2-4.1-4.4-8.3-6.4-12.4-.7-1.4-1-2.9-1.3-4.5 2.9 5.6 5.8 11.3 8.7 17 .2-.3.4-.5.7-1 .2.6.4 1 .5 1.4.1 1.4.7 2.7 1.6 3.9.2.3.5.6.8.8 2.2 1.2 4.3 2.4 7 2.9 1.6.3 3.2.9 4.9 1.3.3-.6 1.7-1.1 1.1-2.1 1.4-.5 1.6-1.2.6-2.5-.2.9-.4 1.7-.6 2.5-.1-.3-.3-.7-.4-1-.2-1.2-.5-2.4-.7-3.6 0 0 .3 0 .8-.1-.4-.6-.8-1.1-1.2-1.5-.9 1-1.7 1.9-2.6 2.8-1.1 1.1-2 2.1-1.3 3.7-1.2-.3-1.3-.9-1.3-1.6-.1-1.6-2.5-4.3-4.6-4.6-2.7-.4-4.1-1.6-5-3.5-1.4-2.7-3.3-5.3-4.7-8-1.1-2-1.8-4.2-2.8-6.2-.4-.8.7-1.5 0-2.3-.7-.9-1-1.9-1.4-2.9-.4-.9-.6-1.9-.8-2.8 1.9 2.3 3 4.9 4.1 7.5.2.5.6.9.9 1.4 0 .1-.1.3 0 .4 1.2 3.2 2.3 6.3 3.5 9.5.2.5.6.9.9 1.5.4-.7.8-1.2 1.1-1.7.5-.3 1-.6 1.6-1-1.4-1.3-2.7-2.5-4-3.7-.1-.2-.3-.4-.4-.7-.5-1-1.1-2-1.6-3 1.9 2.2 3.8 4.3 5.7 6.5 1 1.1 2.4 1.7 4.1 2.1-3.8-3.4-6.6-7.2-8.7-11.3.1-.1.2-.1.3-.2l1 1c2.9 3.5 5.8 7 9.8 9.9.1 0-.2.3-.3.5-1.4-1.1-2.7-2.1-4.1-3.2.3.8.8 1.5 1.4 2.1.6.7 1.4 1.4 2.7 1 .8.3 1.6.6 2.4 1 .1 0 .2-.1.2-.1-5-5.3-10-10.6-15.1-15.9.1-.1.3-.2.4-.2 1.6 1.5 3.2 2.9 4.7 4.5 3.8 4 7.4 8.2 11.2 12.2.4.5.8 1 1.7 1-.5.4-.7.8-.4 1.3.5.9 1.1 1.8 1.6 2.7.1 0 .3-.1.4-.1-.2-.5-.5-1-.7-1.5-.3-.8-.6-1.5-1-2.3-1.2-2-2.4-3.9-3.6-5.9.1 0 .3-.1.4-.1 3.1 4.3 5 9 7.7 13.4v-1.2h.2c.7 1.5 1.4 3 2 4.5.2 0 .3-.1.5-.1-2.6-7.1-4.2-14.4-6-21.7.1 0 .3 0 .4-.1 1.8 5.7 3.4 11.5 5.4 17.2 2 5.7 4.2 11.4 6.7 17V80c1.4 1.2 2.6 2.1 3.9 3 1.5 1 2.9 2.2 4.6 2.9 2.2 1 4 2.2 5.5 3.8 1.2-.7 1.8-1.6 2.4-2.4.9-1.2 1.7-2.5 2.5-3.8.2-.2.2-.6.1-.8-.3-1.1-.6-2.2-.9-3.4-2.1 1.4-4 2.7-5.4 4.4-1 1.1-.8 2.2.5 3.3.4-.9.9-1.7 1.4-2.8.6 1.1.4 2.3-.3 4.2-2.4-.7-3.5-2.2-4.5-3.7-.8-1.2-1.8-2.3-2.4-3.8 2.1.8 2.7 2.3 3.9 3.4.5-.6.9-1.2 1.3-1.8-1.7-2.7-4.1-5-7.5-6.7-1.9-1-3.5-2.3-5.4-3.4-.7 2.5.6 4.9 1.2 7.2-1.5-1.3-2-2.8-2.3-4.5-.1-.8 0-1.6-.1-2.5 0-.5.2-1.1-.7-1.3-.2 0-.2-.3-.3-.5-.5-1.3-.8-2.6-1.5-3.8-1.6-2.4-1.4-5-2.2-7.4-1.9-6.3-3.7-12.5-5.9-18.8-.8-2.2-1.2-4.4-1.5-6.7.5 1.1 1 2.1 1.4 3.2 1.4 3.7 2.7 7.3 4 11 .7 1.9 1.2 3.8 1.8 5.7 0 .1 0 .3.1.4.2.1.6 0 .6.4 0 .8.1 1.6.3 2.3 1 3.9 2 7.8 3.1 11.7.1.5.5.8 1.1 1.1 1.1.7 1.9 1.6 2.9 2.4 1.4 1 2.9 2 4.5 2.9-1-2.4-1.9-4.2-1.8-6.2 1.6 1.9 2.3 4.2 4 6.5.3-.8.4-1.3.6-1.8.2-.5.3-1.1.8-1.5 1-1 .7-1.9.1-2.8-1-1.5-2.3-2.9-4-3.9-2-1.3-3.9-2.6-6-3.9.2 3 .8 6 1.8 9-1.6-1.1-2.4-2.5-2.6-4-.6-4.2-2.4-8.2-3.7-12.2-1.7-5.7-3.5-11.5-5.2-17.2-.4-1.2-.7-2.5-.9-3.7 3.6 8.7 5.8 17.6 8.9 26.5.9-1.4.9-1.4.2-2.6-1.1-1.9-1.7-3.8-1.3-5.8.1-.4-.1-.9-.2-1.3-1.6-4.1-3.3-8.1-4.8-12.2-1.1-3.2-1.9-6.6-2.7-9.9-.5-1.8-.9-3.5-1.3-5.3-.1-.5-.1-1-.1-1.4 2.8 9.3 5.3 18.7 9.7 27.8-.1-.8-.2-1.6-.4-2.3-.6-2.9-1.3-5.9-1.8-8.8-.7-4.2-1.5-8.4-2-12.6-.3-2.7-.1-5.5-.1-7.4 1.2 7.9 2.6 16.6 3.9 25.4.5-.5.9-.8 1.3-1.2-.1 1.2-.3 2.4-.2 3.6.2 1.6.1 3.3 1.1 4.7 1.7 2.4 3.9 4.5 7.1 6 1.7.8 3.2 1.7 4.1 3 3.3-2.1 4.6-4 3.7-5.6-.8.9-.5 2.1-2 3 .6-2.2 1.5-4.2.5-6.2.5 0 .8 0 1.3.1-.2-.8-.5-1.6-.7-2.3-1.2 1-2.2 2-3.5 2.8-1.9 1.2-3.3 2.5-2.8 4.6-1.2-.9-1.3-1.1-.9-2.4.1-.5.3-1 .1-1.5-.2-.8-.7-1.6-1-2.4-.7-1.6-1.8-3-3.9-3.9-1.5-.7-2.4-1.6-2.6-2.9 0-.2-.2-.3-.4-.5-.2-1.2-.3-2.4-.6-3.6-1.4-4.4-1.9-8.9-2.6-13.4-.3-2.2-.3-4.4-.5-6.8.8.6 0 1.5 1.1 1.8l-.3 3h.5c-.1-1-.1-2-.2-2.9-.4-3.7-.7-7.3-1.1-11 1.3 2.8 1.8 5.7 2 8.6.5 5.8.8 11.6 1.2 17.3.1.9.3 1.8.5 2.7 1.3-1 2.6-1.8 3.9-2.8-1-1.9-2-3.9-3.1-5.8-.5-2.2-1-4.5-1.5-6.8.3.8.7 1.6.9 2.4.8 3.3 2.4 6.4 4 9.5.7 1.3 2 2.3 3.4 3.4.1-.5.2-.7.2-.9 1.6.9 3.1 1.8 4.8 2.8C71.4 31.6 67 23.5 64 15.1c.3.4.6.8.8 1.2 3.7 7.3 7.4 14.6 10.2 22.1.5 1.3 1.1 2.5 1.6 3.7.1.4.2.8.1 1.1-.2 1-.3 1.9.4 2.8.2.3.1.8.1 1.1.1.4.2.7.4 1 .5-1.3-1.1-10.9-2.3-14.6 1 .1.7.7.8 1.1.6 2.8 1.3 5.7 1.8 8.5.5 2.9.9 5.9 1.3 8.9.1.6.2 1.1.7 1.6.5.5.5 1.4.7 2.1.3 1 .6 1.9 1 3.1v-8.6c.1-3.9.1-7.8.3-11.7.2-2.6-.3-5.2-.6-7.9-.3-2.1-.4-4.3-.4-6.4.4 1.4.8 2.8 1.2 4.4.1-.3.2-.4.3-.7.4 3.3.8 6.6 1.2 9.8.4 3.2.9 6.4 1.4 9.7 1.2-3 .7-6 .3-9-.3-1.9-.5-3.8-.7-5.7-.3-2.5-.5-5-.5-7.6 2 8.9 2.8 17.9 4.1 27.2.9-.9 1.3-1.6.8-2.6-.9-2-1.2-4-.3-6 .1-.3.1-.7 0-1-1.4-4.4-2.1-8.9-2.8-13.4-.4-2.3-.4-4.6-.6-6.8-.2-2.3-.4-4.6-.6-6.8-.1-.8 0-1.5.2-2.3C86.1 23 87 32.5 89.7 42v-2.7c-.1-2.8-.2-5.6-.2-8.5 0-4.5 0-9 .3-13.4.2-2.7.8-5.3 1.5-7.9-.1 1.6-.3 3.3-.4 4.9-.1.9-.2 1.7-.2 2.6.4 5.6.3 11.3.3 17v1.5c.6-.4 1-.7 1.5-1l-.9 3.3c-.5 1.8-.7 3.7.2 5.3 1.3 2.5 3.1 4.8 6 6.6 1.5.9 2.8 1.9 3.5 3.4 1.9-1 3.5-2 4.6-3.5.4-.6.5-1.2.2-2.1-.9 1.1-1.2 2.2-2.4 2.9.7-2 2-3.8 1.4-5.9.5.1.8.1 1.2.2-.1-.8-.1-1.6-.2-2.4-1.4.9-2.6 1.8-4 2.5-2.2 1.1-3.5 2.2-3.6 4.2-1-.7-.9-1.5-.5-2.2.7-1.1.4-2.1.2-3.1-.4-2.2-1.2-4.2-3.8-5.6-1.2-.7-1.8-1.7-1.7-2.8 0-.3-.1-.6-.2-.9-.1-1.3-.2-2.6-.2-3.9-.1-4.2-.2-8.5-.1-12.7 0-2.6.5-5.1.9-7.6V16c.8-4.7.5-9.5 1.8-14.1.5 5.8.1 11.6-.8 17.3-.5 3.3-.7 6.6-1 9.9 0 .4.1.8.1 1.5.5-.5.6-.8 1-1 1.2-.6.9-1.5.8-2.4-.3-2.1-.5-4.2-.2-6.3h.4c.2 2.6.4 5.2.6 8l1.8-.9c-1.6-4.4-2.9-8.8-2.2-13.7.4 2.6.5 4.9 1 7.2.4 2.1 1.1 4.2 1.8 6.3.4 1.2 1.5 2.2 2.7 3.2-1.1-2.9-1.6-5.9-2.1-8.9-.4-3-.7-6-.7-9h.5c.7 3.2 1.3 6.4 2.2 9.5.8 2.8 2 5.5 3 8.3.1.3.5.6-.1.8-1-2.1-2.1-4.1-3.2-6.3.1 1.1.3 2.1.4 3.1 0 .3.1.7.3 1 .4 1 .8 2 2.4 2.2.6.7 1.2 1.3 2.1 2.2-2.1-8.9-5-17.4-6.5-26.1.1.3.3.7.4 1 1.5 4.9 3 9.9 4.4 14.8 1.1 3.9 1.8 7.9 2.7 11.8 0 .2-.2.5-.4.7.1.1.1.2.1.3v4.7c0 .3.3.5.4.8.2 0 .3 0 .4-.1v-4.2c0-.6-.3-1.1-1-1.5.6-.1 1.1-.3 1.1-.8 0-.9-.1-1.8-.1-2.6 0-2.9 0-5.7.1-8.6.2 1.7.4 3.5.4 5.2v16.8c0 .5.2.9.3 1.4.1.2.3.5.2.7-.7 1.5.7 2.7.8 4.1.9-5 1.6-9.9 2.6-14.9s2.2-10 3.7-14.9c-.3 2-.6 4.1-1 6.1-1.1 6-2.3 12-3.4 18.1-.5 3-.8 6.1-1.2 9.1 0 .3 0 .6.1.9 1.8-6.8 3.9-13.5 6.9-20.1 0 .3 0 .6-.1.9-2.3 6.3-4 12.7-5.4 19.1-.7 3.4-1.5 6.8-2.1 10.2-.4 2.6-.7 5.1-1 7.7-.1.8-.2 1.7-.5 2.4-.9 2.1-.8 4.2-.5 6.4 1.8-7.5 3-15.1 5.7-22.6l-3.3 14.7c.2 0 .3 0 .5.1.6-1.5 1.2-3 1.8-4.6-2 7.9-4.6 15.8-4.5 23.9 1-1.9 1.2-3.8 1.5-5.8.2-.8.3-1.5.5-2.3.1-.2.4-.4.5-.5-.2 1.7-.5 3.4-.7 5.1h.5c.6-2.5 1.3-5 2-7.5.6-2.1 1.1-4.2 1.7-6.3.1-.2.4-.3.5-.5L109 95.3c-.2.8-.4 1.7-.4 2.6.2-.2.5-.4.6-.6.5-1.4 1-2.9 1.5-4.4.7-2.3 1.4-4.6 2.2-7 1.3-4 2.8-7.9 3.8-11.9 1.6-6.2 2.9-12.4 4.2-18.6.4-1.7.5-3.3.9-5-.4 7.4-1.6 14.7-3.2 22.1.3-.6.6-1.1.9-1.7.3-.6.6-1.3.8-2 1.9-5.9 3.7-11.9 5.6-17.8 1.2-3.7 2.4-7.5 3.6-11.2.1 0 .3 0 .4.1-1.3 5-2.5 9.9-4 14.9-1.5 4.9-3.1 9.8-4.8 15 .6-.8 1.1-1.4 1.6-2.1.6-.7 1.3-1.2 1.3-2.1 0-.1.1-.3.2-.4 2-1.5 2.3-3.7 3.3-5.5 1.8-3.3 3.4-6.7 5.2-10.1.6-1.2 1.3-2.4 2-3.6.1 0 .3.1.4.1-1.4 2.6-2.8 5.3-4.1 7.9.1 0 .3.1.4.1 3.2-3.9 6.4-7.9 9.6-11.8 3.2-3.9 6.5-7.8 10.4-11.4-.2.3-.3.7-.6 1-4.6 5.5-9.2 10.9-13.8 16.4-1.1 1.3-2.1 2.6-3.2 4 1.4-.4 2.7-.8 3.9-1.2.6-.2 1.3-.6 1.7-1 .9-1 1.7-2.1 2.4-3.3-2 1.3-3 3.2-5.5 4.1 5.4-4.6 9.2-10.1 13.4-15.5.3 2-5.3 10.3-10.6 15.8.5-.1.9-.2 1.2-.3 1.8-1 3.5-2.1 4.6-3.6 1.8-2.4 3.6-4.7 5.5-7.1.2-.2.5-.4.7-.6-.3.8-.7 1.5-1 2.3-.2.4-.4.8-.5 1.2-1.9 2-3.7 4-5.7 6.1.7.3.4 1.3 1.7 1.1.3.7.6 1.4 1.1 2.3.4-.6.8-1.1 1-1.5 1.3-3.2 2.7-6.3 3.8-9.5 1.6-4.6 3.6-9.2 5.9-13.6.3-.6.8-1.1 1.5-1.6-.5 1.3-.9 2.5-1.4 3.8-.6 1.4-1.3 2.8-1.9 4.2-.2.5-.3 1.1-.4 1.7-.4.7-.9 1.5-1.3 2.2.2 0 .3.1.5.1.2-.8.5-1.6.7-2.4.5-.7.9-1.3 1.5-2.2-1.6 5.2-3.9 9.9-6.4 14.6-1.2 2.2-2.6 4.2-3.8 6.4-.4.6-.5 1.3-.8 1.9-.1.1-.4.2-.4.3-.7 1.5-2.2 2.2-4.1 2.8-.7.2-1.4.4-1.9.7-2.3 1.8-4.6 3.6-4.7 6.3 0 .7-.2 1.4-1.7 1.8 1.3-1.7.5-3.1-.6-4.3-1.1-1.3-2.4-2.5-3-4.1-.5.8-1 1.5-1.5 2.4.5 0 .8-.1 1.5-.1-1.8 1.9-1.4 4-1.6 5.9h-.5c-.1-1.1-.3-2.1-.5-3.5-1.7 2.7.3 4.6 1.6 6.5 1.3-.6 2.4-1.3 3.6-1.7 2.6-.7 4.9-1.7 7.2-2.9 3.1-1.6 4.7-3.7 5.6-6.3.4-1.3.6-2.6.9-3.9.2.4.5.8.8 1.4 2-4.1 4-8.1 6-12.2 2-4 3.9-8.1 6-12.1-.4 1.1-.8 2.2-1.1 3.4-1.1 4.2-3.5 8-5.5 12-1.7 3.4-3.3 6.9-5.1 10.3-.6 1.2-1.3 2.3-2 3.5.1.1.3.1.4.2.3-.4.6-.7.9-1.1 4.7-5.8 8.6-12 12.6-18 .4-.7.8-1.3 1.3-2 .2-.3.6-.5.9-.7-1.7 2.9-3.3 5.8-5.1 8.7-3.2 5.1-6.8 10.1-10.9 14.9-.3.3-.6.7-.6 1.1-.1 2.2-1.4 4-3.2 5.7-.8.7-.9 1.3-.3 2.4 5.5-8.2 11-16.3 16.4-24.3.2.1.3.1.5.2-.9 1.5-1.8 3-2.7 4.4-2.2 3.5-4.5 7-6.8 10.5-1.7 2.5-3.4 5-5.2 7.4-1.8 2.5-3.6 5-4.9 7.7-.8 1.6-2.1 3-4.1 4 1.9-2.8 3.4-5.6 4.6-8.5-2.8 1.1-5.5 2.2-8.2 3.3-2 .9-3.6 2.1-4.8 3.6-.2.2-.4.5-.3.8.3 1.3.6 2.6.9 4.1 2.3-1.6 3.5-3.8 5.7-5.5 0 .9-.2 1.4-1.3 2.8-.7.8-1.4 1.6-2.3 2.6 1.7-.4 3-.8 4.2-1.4 1.9-.9 3.7-1.8 5.6-2.7.3-.2.6-.5.8-.8 2.3-3.8 4.6-7.7 6.9-11.5.5-.8 1.2-1.6 1.8-2.4 1.3-2 2.6-3.9 4-5.9 2-2.8 4.1-5.6 6.1-8.4.7-.9 1.4-1.9 2.4-2.7-.1.3-.2.7-.4 1l-8.1 12c-2.6 4-5.2 8.1-7.8 12.1-.2.3-.3.6-.4 1-.4 1-.9 1.9-1.9 2.7-1.2 1-1.9 2.3-2.8 3.5-.3.4-.4.8-1.2 1-.5.2-.7 1-.8 1.5-.6 2-1.6 3.9-3.5 5.5-.2.1-.4.3-.7.3 1.2-2.2 3.4-4.2 3.3-6.8-2 .8-3.9 1.8-6 2.4-3.9 1.1-7.1 2.8-9.7 5.3.2.6.4 1.2.7 1.9 1.6-.9 2.7-2.3 5-2.7-1.3 1.5-2.7 2.6-4.1 3.8-1.4 1.2-2.8 2.3-5.3 2.4.2-1.3.4-2.6.6-4.3 1.1 1.1.7 2.1 1 2.9 1.6-.7 2.1-1.4 1.6-2.7-.4-1-1-2.1-1.7-2.9-1.2-1.4-2.4-2.8-2.6-4.5-2.4 2.3-2.6 5.1-3.7 7.8.5-.6 1.1-1.2 1.6-1.9.8.4.7.9.8 1.4.5 1.9 1 3.8 2.3 5.7.8-.5 1.5-.9 2.3-1.2.9-.4 1.9-.9 2.9-1.2 2.9-.7 5.6-1.7 8-3.1 1-.6 2.1-1 3.4-1.7-.1.5-.2.8-.3 1.2 8.2-10.1 15.7-20.4 22.3-31-.8 2.4-2.4 4.5-3.6 6.7-1.3 2.3-2.7 4.6-4.1 6.8-1.4 2.2-3 4.4-4.4 6.7 1.7-.9 2.2-2.5 3.6-3.8v1.1c4-4 7.4-8.2 11.9-11.8-1.6 1.7-3.2 3.4-4.7 5.2-1.2 1.1-2.4 2.3-3.2 3.7.3-.1.6-.1.8-.3.3-.3.4-.7.8-.9 1.1-.7 1.5-1.5 1.5-2.5.4-.2 1-.2 1.3-.5 4.4-3.1 8.8-6.2 13.3-9.2 2.1-1.4 4.4-2.7 6.5-4 .1-.1.3-.1.6-.1-5.9 4.6-12.7 8.4-18.9 12.9 1-.1 1.8-.3 2.6-.2 1.7.1 2.9-.4 3.9-1.3.5-.4 1-.8 1.4-1.3-1.9.7-3.2 2-5.6 2.3 2.7-1.5 5.1-2.9 7.5-4.4 2.4-1.4 4.2-3.3 6.8-4.5-3.2 3.6-6.9 6.8-11.5 9.4 1.2.1 2.8-.2 4.1-1 2-1.3 3.9-2.6 5.8-3.9.3-.2.6-.3.9-.5-.5.6-1.1 1.2-1.6 1.8-1.8 1.1-3.6 2.2-5.3 3.3.3.6.3 1.2 1.3 1.1.1.6.1 1.2.2 2.1.6-.5 1-.8 1.3-1.1 2.3-3 4.5-6 6.7-9.1.1-.1 0-.3-.1-.4.8-.9 1.7-1.7 2.5-2.6 1.1-1.2 2.2-2.5 3.3-3.7.4-.4.9-.7 1.3-1 .1.1.2.1.3.2-1.2 1.5-2.3 3-3.5 4.5-.5.6-.8 1.1-.9 1.8-.1.9-.9 1.8-1.6 2.6-3.1 3.5-6 7.1-9.9 10.2-.8.7-1.3 1.3-.6 2.4 2.4-2.6 4.7-5.2 7-7.7s4.6-5 7-7.4c-1 1.4-1.9 3-3 4.3-3.5 4-7.2 7.9-10.9 11.9-.7.8-1.6 1.5-2.2 2.5.3-.2.7-.3 1-.5 4-3.2 8-6.3 12-9.5l5.1-4.2c-1 1-1.9 2.1-3 3-4.1 3.9-8.4 7.6-13.3 11l-1.8 1.2c-.8.5-1.3 1-1.6 1.7-.6 1.3-1.8 2.3-3.3 3-.9.4-1.3.9-.9 1.9 5.9-4.9 11.7-9.7 17.4-14.5.1 0 .2.1.3.1-.1.2-.2.5-.4.6-5.3 4.8-10.9 9.4-16.6 13.9-1.4 1.1-2.6 2.3-3.8 3.5-1.1 1.1-2.4 2-4.5 2.5 2-1.9 3.8-3.8 6-5.9-.8.1-1.2.2-1.6.3-1.6.2-3.1.5-4.7.6-2.8.2-5 1-6.8 2.4v3.7c2-1.1 3.8-2.2 5.7-3.2-.6 1.4-2.1 2.3-3.8 3.2 1.8.2 3.2 0 4.5-.3 1.4-.3 2.8-.5 4.2-.9.5-.1.9-.4 1.2-.7 1.8-1.6 3.6-3.1 5.3-4.7 5.3-4.9 11-9.6 17.1-14 .5-.3 1-.6 1.7-.8-1.4 1.3-2.9 2.6-4.4 3.9-3.1 2.6-6.4 5.2-9.5 7.9-1.9 1.6-3.6 3.5-5.3 5.2-.4.1-.9.2-1.1.4-1.6 1.2-2.9 2.6-4.7 3.5-1.4.8-2.1 1.7-2.9 2.7-.9 1.1-2 2-3.8 2.4 1.5-1.4 3.5-2.5 4-4.4-3 .3-5.9.5-8.8.8-2.2.2-4.1 1-5.9 2 .1.5.1 1 .2 1.5 1.5-.3 2.7-1.2 4.3-.9-2.7 1.2-4.9 3.2-8.7 2.7.2-.7.4-1.3.7-2.3-1.5 1.1-2.1 2.1-1.1 3.2 1.4-.2 2.8-.7 4.2-.6 3.3 0 6.4-.4 9.5-1.1.7-.2 1.5-.2 2.2-.2 1.5-1.1 3.1-2.2 4.7-3.3 2.2-1.6 4.7-3 6-5.2 0-.1.2-.1.3-.2.2.6 0 1-.5 1.5-.8.9-1.6 1.8-2.2 2.8 5-2.8 8.8-6.4 12.3-10.1.1.1.3.2.4.2-4.2 4.5-8.5 8.9-12.7 13.4l.1.1 3-1.8c.1.1.2.2.3.2-.2.2-.3.5-.5.6-1.5 1-3.1 2-4.6 3-2.1 1.4-4.1 2.9-6.1 4.3-1.4 1-2.9 1.9-4.4 2.9-.6.4-1.2.9-1.7 1.5.3-.2.7-.3 1-.5 4.1-2.6 8.1-5.1 12.2-7.7 1.1-.7 2.2-1.3 3.4-1.9.1.1.2.2.3.2l-2.7 1.8c-6.1 4.3-12.4 8.5-19.1 12.4-4.3 2.5-8.7 5-13.1 7.3-1.4.8-3.1 1.2-4.8 1.7-.8.2-1.4.5-1.8 1-1.7 2-3.2 4-4.5 6.2-2.6 4.4-5 8.8-7.1 13.3-1.3 2.8-2.4 5.6-3.7 8.8 1.5-.4 2.6-.7 3.7-.9 1.4-.2 2.9-.4 4.3-.3 2.6.1 4.7.9 6.2 2.7 1.3 1.6 2.1 3.2 2.6 5 1.2 3.9 1.1 7.8.9 11.8-.2 3.8-.8 7.7-1.3 11.5-.8 5.4-1.7 10.7-2.5 16.1-.7 4.4-.9 8.7-1 13.1-.1 6.4.7 12.8 2.4 19 1.4 5.2 3.3 10.2 7.3 14.8-1.2-.4-1.7-.8-2.5-1.7-2.2-2.7-3.9-5.6-5.1-8.7-1.7-4.5-2.5-9.1-3.3-13.6-.4-2.3-.5-4.6-.5-6.9 0-3.7-.2-7.3-.9-10.9-1-5.1-1-10.2-1.1-15.3-.1-6.1-1.2-12.1-3.3-18-.9-2.4-2.7-4.4-5.4-6-.3-.2-.6-.4-1-.5-1.3-.4-2.4-.1-2.8.9-.8 1.8-1.4 3.6-2.3 5.7v-4.3c-1.3 1.9-1.6 3.9-.9 5.6.7-.1 1.4-.1 2.2-.2.9.8 2 1.6.8 2.7 2.3 1.7 2.1 2.5-.9 3.1.6-.5 1.1-.9 1.7-1.4-.4-.5-.8-.9-1.2-1.4-1.8.2-3.4 1.1-5.6.5 1-.3 1.8-.6 2.7-.9-.1-.4-.2-.7-.3-1.2-4.8.9-9.6 1.9-14.2-.2-.5.9-.1 1.5.9 1.8 1.2.3 2.5.6 3.8.7 1.8.1 3.6 0 5.5 0-1 .7-3.4 1.1-5.6 1.1-2 0-3.8-.5-5.5-1.6-.5.9.3 1.4 1 1.7 1 .4 2.1.8 3.3 1 2.7.4 5.4.5 8.1.3 1.2-.1 2.4-.1 3.6-.1-1.8.9-3.9 1-5.9 1.2-2 .2-4 0-6.1 0 .1.3.3.6.5 1h9.5c-2.9 1.3-6.1.9-9.3 1-.1.5-.3.9-.3 1.4-.2 3.6-1 7-2.1 10.5-1.4 4.6-2.4 9.2-4 13.7-2.3 6.8-4.6 13.7-7.6 20.4-3.8 8.4-8.3 16.5-12.4 24.8-.1.2-.3.4-.7.5.6-1.6 1.2-3.3 1.9-4.9 2.5-5.4 4.9-10.8 7.5-16.2 3.4-7 6.2-14.2 8.5-21.4.9-2.9 2.1-5.8 2.9-8.8 1.4-5 2.8-10 4.1-15 .4-1.7.6-3.5 1-5.2-1.9-.5-2.7-1.6-3-2.9 0 0 0-.1-.1-.1-2.1-1.3-.9-2.9-.7-4.5.2-1.3.5-2.5-.2-3.9-1.1-2.2-1.6-4.5-2.4-6.8-.1-.3-.2-.5-.3-.9-2.4-.1-3.8.9-5.4 2-4.7 3.2-6.5 7.5-7.4 12-1.2 5.7-2.2 11.5-3.2 17.2-1 5.2-2.8 10.3-5.5 15.2-1.6 2.9-2.9 5.9-4.1 9 .4-.5.9-1.1 1.3-1.6 2.7-4 5.5-7.9 7.2-12.2 1.3-3 2.5-6 3.4-9 1.4-4.6 2.6-9.1 3.8-13.7.2-.7.7-1.5.4-2-.7-1.2.3-2.1.7-3.1.9-2.4 2.1-4.8 3.1-7.2.7-1.6 1.7-3 4-4-.7 1-1.4 1.9-2 2.8-2 2.9-2.8 6-3.5 9.1-.8 3.4-1.6 6.9-2.4 10.4-1.1 4.5-2.5 9-4.2 13.4-2.6 6.5-6.5 12.6-11.1 18.5-2.1 2.7-4.1 5.5-6.1 8.2-1.6 2.2-3.6 4.2-6 6-.9.7-1.7 1.5-2.6 2.4v-.6c-1.4.2-2.8.5-4.1.7 0-.1-.1-.1-.1-.2.4-.2.9-.4 1.3-.6 1.4-.7 2.8-1.3 4.1-2 2.1-1.1 3.3-2.7 4.2-4.4 3.2-5.8 6.3-11.6 9.4-17.4 1.5-2.8 2.8-5.7 4.2-8.5 1.7-3.5 2.4-7.1 3.1-10.7.7-3.1 1.2-6.2 1.8-9.3.4-2.3.8-4.5 1.4-6.8.7-2.8 1.8-5.5 3.6-8 1.7-2.4 4.5-4.2 7.4-5.8.8-.4 2-.4 3.2-.7-.9-2.6-1.7-5.3-2.8-7.9-1.7-4-3.5-8-5.5-11.9-1.7-3.3-3.8-6.5-5.8-9.8-.4-.6-.9-1-1.8-1.2-1-.3-2.1-.7-2.9-1.2-2.3-1.7-4.5-3.4-6.7-5.2-.3-.3-.5-.6-.5-1.1 1 .4 2 .9 3 1.2 1.1.3 2.3.3 3.6.2l-5.4-3.3c2.4.3 4.1 1.5 6.1 2.4-.9-3.2-1.5-3.8-6.6-4.7-2.2-.4-4.4-.6-6.8-.9 1 .8 1.9 1.6 2.8 2.4 1 .7 2.1 1.4 3 2.3-.2-.1-.5-.1-.7-.2-2-1-4-2-5.7-3.5-3.1-2.8-6.7-5.4-10.1-8.1-2.8-2.3-5.6-4.5-8.4-6.8-.3-.2-.4-.5-.4-.8 5.9 4.5 11.7 9.1 17.8 13.8-.1-.4-.1-.6-.2-.8-1-1.7-2.5-3.1-4.2-4.4-5.5-4.3-10.7-8.8-15.5-13.5-.1-.1-.1-.2 0-.5 3.2 2.7 6.5 5.4 9.7 8.1-1.2-2-3.2-3.5-4.8-5.3.1-.1.2-.1.3-.2 2.2 1.9 4.5 3.9 6.8 5.9.1-.3.1-.5.2-.8 1.9.5 3.6 1.2 5.5 1.5 1.8.4 3.8.5 5.7.7.9.3 1.8.7 3.1 1.1.3-2.1.6-3.9.9-5.8.1 0 .2-.1.4-.1.4.4.8.7 1.2 1.1.1-.1.2-.2.4-.3.7.8 1.4 1.7 2.1 2.5.1 0 .3-.1.4-.1-1.7-3.1-3.3-6.2-5.1-9.3-.6-1.1-1.7-2-2.6-3-.1.5.1 1 .4 1.4 1.2 1.8 2.4 3.6 3.5 5.4.6 1 .9 2.1 1.3 3.2-.4-.4-.8-.8-1.1-1.2-.7-.9-1.3-1.8-1.9-2.7-.3-.4-.8-.8-1.2-1.1-.6 1.3-1.1 2.5-1.6 3.6-.3.8-.7 1.6-.9 2.4-.2 1 .1 1.4 1.5 1.8.5-.5-.3-1.3.6-2 .4 1.1.7 2 1.1 2.9-.9 0-1.7.1-2.5.1-.7-.5-1.5-.9-2.2-1.4-1.2-.7-2.4-1.3-3.9-2.2 2-.1 3 .8 4.5 1.3.1-.6.2-1 .2-1.5-2.3-1.5-4.9-2.4-7.9-2.8-1.9-.2-3.7-.7-5.7-1.1.2 1.9 2.2 3 3.7 4.6-1.8-.6-2.5-1.5-3.3-2.3-.2-.2-.3-.4-.4-.7-.7-.8-1-1.7-2.3-2.4-1.6-.9-2.8-2.3-4.1-3.5-5-4.8-10-9.7-14.9-14.6-1.4-1.4-2.8-2.8-4.1-4.3.8.3 1.3.8 1.9 1.3 5.8 4.9 11.1 10 16.2 15.3 1.1 1.1 2.1 2.2 3.2 3.3.9.9 1.9 1.6 3.4 2 2.2.5 4.2 1.4 6.8 1.5-1.3-1.2-2.9-2-3.4-3.5 1.7 1.1 3.3 2.3 5.3 3.6 0-1.4.1-2.4 0-3.5 0-.3-.4-.6-.7-.8-1.4-1-3-1.7-4.9-2.1-2-.4-4-.8-6.2-1.3 1.4 2.1 3.1 4 5 5.8-1.4-.3-2.5-.9-3.2-1.8-3.5-4.2-8.1-7.8-12.1-11.7l-6.3-6.3c-.2-.2-.3-.5-.4-.8.7.5 1.5 1 2 1.5 3.9 3.7 7.7 7.4 11.5 11.1.4.4.8.7 1.4 1.2.4-.7.2-1.2-.5-1.6-1.8-1-3-2.3-3.6-3.9-.1-.3-.5-.7-.8-.9-4.4-3.4-8.3-7-12-10.8-1.3-1.4-2.6-2.8-3.8-4.3C9.9 77 14.5 82 20.2 86.2l-7.5-9.3c-2.5-3.1-5.4-6-6.8-9.5 4 5 8.1 10 12.2 15.1.8-.9.3-1.6-.4-2.2-3.6-3.3-6.4-7-9.2-10.7-.4-.6-.5-1.2-.7-1.9-.2-.3-.3-.7-.5-1-.4-.5-.8-1.1-1.2-1.6-1-1.5-1.9-3-2.9-4.4-.1-.2-.2-.3-.2-.5 1.8 1.4 3 3.1 4.2 4.8 2.6 3.7 5 7.5 7.5 11.2.5.8 1.2 1.6 2 2.6.3-.7.6-1.2.8-1.7.3-.4.7-.8.8-1-1.5-1.2-2.7-2.2-4-3.3-.2-.1-.3-.2-.5-.4-.8-.8-1.6-1.6-2.3-2.4 3.4 2.4 5.9 5.4 10.6 6.7.2-.3.3-.6.5-.8.3.2.6.4 1 .4 1.1.2 2.2.3 3.5.4L9.7 63.2c.1-.1.2-.2.3-.2.4.2.7.4 1.1.6 6.1 4.4 12 8.9 17.5 13.8.5.4.9 1 1.8.8-.5 1.1-.2 1.8 1.3 2.3.1.5.1 1.1 1.2 1.5-.3-.7-.5-1.2-1.2-1.5-.2-.4-.5-.8-.7-1.3-.2-.3-.3-.7-.5-1-1-1.2-2.1-2.4-3.1-3.6.5.4 1.1.8 1.5 1.2 2.3 2.8 4.4 5.5 6.7 8.3.4.5 1.1.9 1.7 1.4.2.8.8 1.3 1.8 1.6-.7-.5-.7-1.4-1.9-1.5-.2-.4-.3-.9-.6-1.3-.5-.8-1.1-1.5-1.7-2.2.1 0 .2-.1.3-.1.7.7 1.4 1.5 2.1 2.2.1 0 .2-.1.2-.1-1.5-2.7-3.1-5.4-4.6-8.2-1.5-2.8-2.9-5.6-4.2-8.4 2.8 4.4 5.4 8.9 9.6 12.9.1-1.7-1.7-3-1.3-4.7 1.4 2.7 2.2 4.2 3.1 5.6 0 .4 0 .9.1 1.3.6 2.2 2.7 3.7 4.3 5.5-1.1-1.9-2.5-3.8-3.8-5.7-.3-.4-.5-.7-.6-1.1zm99.1 5.8c-1.1 1.5-2.2 3-3.2 4.6-.7 1.1-1.3 2.1-2 3.2 1.4-1.4 2.4-2.9 3.7-4.3.9-1.1 1.4-2.2 1.5-3.5 1.3-.4 1.3-.5 1-1.9-.4.8-.7 1.4-1 1.9zm3.6 23.8c-1.8.7-3 1.9-2.9 3.2l3-3c-.2.5-.3.9-.5 1.5 3.5-1.7 5.5-4.1 7.4-6.6-2.2 1.5-4.2 3.1-6.2 4.7-.3.1-.6.1-.8.2zm2.4-23.8c-1 1.7-.5 3.6-1.2 5.5 1.9-.3 2.4-1.3 2.8-2.3.5-1.3.3-2.6-.7-3.9-.4.3-.7.5-.9.7 1.3-1.3.2-2.7-.2-4.2-.4.4-.8.7-1 1-1 1.5-2.1 2.9-3.1 4.4-.8 1.3-.7 1.6.6 3 1.3-1.5 2.5-2.8 3.7-4.2zM53.6 70.5c-.4.1-1.1.2-1.3.5-1.1 1.2-1.6 2.5-1.2 4 .2.9.7 1.5 2 1.9.2-1.9.3-3.7.5-5.5.7 1.6 1.5 3.1 2.3 4.8 1.3-1 2-1.8 1.4-3.1-.6-1.5-1-3-1.5-4.5-.1-.4-.4-.8-.7-1.3-.7.9-1.2 1.7-1.7 2.4 0 .2.2.6.2.8zm81.2 47.3c.7-.7 1.3-1.3 2-2.1-2.3.1-4.5.2-6.6.3-.9 0-1.7.1-2.5.3-3.2.6-4.3 1.5-4.6 3.9 2.1-.8 4.3-1.6 6.4-2.4.1.1.1.2.2.3-1.8 1.4-4.2 2.2-6.3 3.4 5.7.4 9.9-1.4 13.6-4.2-.8.1-1.5.3-2.2.5zM88.3 77.4c0-.7 0-1.4.1-2.2 0-.6-.1-1.2-1.2-1.6.1 1.6.3 3.1.4 4.8.3-.5.6-.8.7-1 .1.2.1.4 0 .7-.8 2.2.4 4.1 2.2 5.7 1.1 1 2.2 1.9 3.3 2.9.1 0 .1-.1.2-.1-.7-1.1-1.3-2.2-2-3.4.1-.1.3-.1.4-.2 1.2 1.4 2.4 2.8 3.5 4.1.7-1.1 1.5-2.3 2.4-3.8-1.1-1-2.1-2.3-3.5-3.2-2.1-1.5-4.4-2.8-5.9-4.6h-.3c0 .5-.1 1.2-.3 1.9zm.4 22c-.3-.4-.6-.8-1-1.5-.4 1.1 0 1.4 1 1.5.1.3.2.7.3 1.1.8 2 3.1 2.9 5.2 4.3-1.1-2.6-2.2-4.9-3.2-7.3.1 0 .3-.1.4-.1 1.8 2 2.8 4.3 4.2 6.4.3-.7.3-1.5.6-2.1.9-1.7.2-3.2-1.3-4.5-2.3-1.9-4.8-3.7-7.3-5.6-.2.2-.3.3-.3.4 0 .2 0 .4-.1.6-.2 1.8.6 3.5 1.2 5.1.2.5.2 1.1.3 1.7zM119.4 75c.3-.7.5-1.4.8-2.1-.2 0-.4 0-.6-.1-.1.8-.2 1.5-.2 2.2.1.1.3.2.4.3.4 2.3 2.5 3.9 3.8 6.2 1.5-1.9.8-3.8 1.8-5.5.2 1.4.3 2.8.5 4.3.7-.6 1.6-.9 1.7-1.4.6-1.7 1.1-3.5.1-5.3-1.1-1.8-2.4-3.6-3.6-5.5-2 2.6-3.3 5.3-3.1 8.5-.8-.6-1.2-1.1-1.6-1.6zm-49.2 31.1c-.4-.2-.9-.4-1.6-.6.2.5.4.9.6 1.4.5-.4.8-.6 1-.8-.2.6.1 1 .4 1.6 1.2 1.9 3.7 2.6 6.2 3.9-1.7-2.5-3.5-4.6-4.3-7.1 2.2 1.7 3.5 3.8 5.3 5.7.2-.8 0-1.6.3-2.3.4-1.2-.1-2.1-1-3-.8-.8-1.6-1.5-2.6-2.2-2.6-1.6-5.8-2.6-7.9-4.7.2 1.1.4 2.1.8 3 .2.6.7 1.2 1 1.7.6 1.1 1.2 2.2 1.8 3.4zm48 12.4c1.2.3 1.2.3 1.4-.7-.5.2-.9.4-1.4.7.3-.4.5-.8.8-1.2.9-1 1.9-2 3-2.9 1.1-1.1 1.8-2.3 2.4-3.6-2.1 1.3-4.6 1.9-7.1 2.6-1.7.5-3.4 1.3-4.9 2.1-.9.5-1.6 1.2-2 1.9-.5 1.1-.6 2.3-.9 3.7 1.3-1.1 2.4-2 3.5-2.8 1.1-.8 2.1-1.8 3.9-2.1-2.1 1.9-4.2 3.9-6.4 6 1.7-.4 3.2-.7 4.5-1.2 1.3-.6 2.8-1.2 3.2-2.5zm28.7-33.8c.4-.9.7-1.8.5-3-1.4 1-.7 2-.5 3 .3.7.6 1.4.8 2 1.4-.2 2.7-.5 3.9-.5 2.5 0 4.8-.5 7.1-1.1 2.2-.5 3.7-1.7 4.7-3.1.5-.7.8-1.5 1.2-2.2-1.4.2-2.6.6-3.8.6-1.6 0-3 .5-4.1 1.3-1.1.8-2.5 1.4-2.7 2.7-.1.5-.4 1.1-1.5 1 .7-1.2.8-2.1.2-3.1-.7-1.2-1.4-2.5-2.1-3.8-.5.4-1 .9-1.5 1.3.5.1.7.2.6.2-.6 1.2-1.3 2.3-1.7 3.5-.1.6-.5.9-1.1 1.2zm-89.2 21.1c-1-.5-2-.9-3.2-1.5.7 1.4 1.2 2.6 1.8 3.8.6 1.1 1.2 2.3 1.8 3.4.7 1.2 1.3 2.3 2.1 3.5.8 1.1 1.6 2.1 2.5 3.1.9 1 1 2.3 2.5 3-.2-.6-.5-1.3-.7-1.9.6.2.9.5 1.1.7 1.2 1.6 2.7 3 4.4 4.3.8.6 1.5 1.2 2.3 1.8 1.6 1.2 3.5 1.8 5.9 2 .2-2 .3-3.8.5-5.7.1-.9-.5-1.3-1.5-1.6-.4 1.6-.4 3.2-2.6 4.1.2-.5.6-.9.9-1.4.6-1.3 1.4-2.6.2-4-1-1.1-1.9-2.3-2.9-3.5-.2-.2-.5-.7-.6-.7-1 .2-.9-.4-1-.8-.1-.6-.1-1.2-.3-1.7-.1-.6-.3-1.2-.6-2-1.2 1.8-.4 3.4-.8 5-4.3-.9-6.1-1.8-8.6-4.3-1.1-1.1-2.1-2.4-3.1-3.5-.3-.4-.5-.8-.8-1.2-.2-.4.2-.6.7-.7 1.3 1.9 3.8 2 6.5 2.3-1.8-1.6-3.8-2.6-5-4.2.1-.1.2-.1.3-.2 1.8 1.1 3.7 2.3 5.8 3.5-.2-.8-.4-1.3-.4-1.8.1-1.1-.7-1.7-1.8-2.3-.5-.3-1-.5-1.5-.7-2.8-.7-5.6-1.4-8.5-2.1.2 1 .9 1.8 1.7 2.5 1 1 1.9 1.9 2.9 2.8zm21.8 55.3c-.3-4.1-1.3-8.1-3.4-11.9-1.9-3.4-3.6-6.8-5.7-10.1-1.2-1.8-1.4-3.9-3.7-5.3-1.4-.8-1.4-3.4-.7-4.8.7 1.1-.1 2.7 2 3.5.6-3.1-.3-6-2.1-8.8-.6 1.8-1.2 3.6-1.3 5.4-.1 1.9.3 3.7.5 5.6-.4 0-.9-.1-1.6-.1 5.4 6.3 8.3 13.2 11.3 20 3.1 6.8 5.1 13.9 6.7 21 2.8 1 4.7 1.3 6.9 1-2.4-5.7-4.7-11.3-7.1-17-.2 0-.3 0-.5.1.8 4.2 2.2 8.4 2.3 12.7-.3-.3-.5-.6-.5-.9-.4-1.7-.9-3.3-1.3-5-.7-1.8-1.2-3.6-1.8-5.4zm-.1-32.3c-.9-.1-1.9-.1-3.1-.2.7.8 1.1 1.4 1.6 1.9 1.6 1.9 2.3 4 3 6.1 1.8 5.3 3.4 10.6 3.9 16.1.1.6.2 1.2.2 1.9-.4-.1-.6-.3-.6-.5-1.3-4.9-2.6-9.8-4-14.7-.9-3.5-1.9-7-4.4-10.1-.6-.7-1.2-1.2-2.2-1.5-1.7-.6-3.1-1.4-4.2-2.6-1.1-1.1-2.5-2.1-3.8-3.2-.1.3 0 .5.2.7 1.8 1.8 2.6 3.8 3 6 .3 1.4.4 2.9-.5 4.3-.2.3-.2.8 0 1.1.5 1 1.2 2 1.8 3.1 1.6 2.6 3.3 5.2 4.7 7.9 2.2 4 4.3 8.1 6.1 12.2 2.2 4.9 4.1 10 6.1 15 .6 1.4.9 2.9 1.4 4.5 2.3.2 4.3-.5 6.5-.8-.1-1-.2-1.8-.3-2.7-.3-2.1-.9-4.1-.9-6.2-.1-3.7-1.1-7.4-1.8-11-1.2-6-2.5-12-3.8-18-.8-3.8-1.8-7.7-2.8-11.5-.4-1.4-.7-2.9-1.4-4.2-.3-.5-.3-.9 0-1.3 3-3.3 3.6-7.1 4-11 0-.2-.1-.5-.3-.9-1.3 1.5-2.5 2.9-3.6 4.2-2.1 2.4-3.5 5-3.9 7.9-.1.8 0 1.4.4 2.1 1.8 3.1 3.2 6.4 4.1 9.7 1.3 5 2.4 10 4 14.9 2.3 6.9 3.8 13.8 4.7 20.8.1 1 .3 2 .4 3h-.2c-.6-2.3-1.2-4.5-1.8-6.8h-.2c.2 2 .4 3.9.5 5.9h-.5c-.9-5.3-1.8-10.6-3.8-15.9 1.2.5 1.4 1.3 1.7 2 .3.8.6 1.5.9 2.3.1-.6.1-1.2-.1-1.7-1.2-4.4-2.5-8.8-3.8-13.1-1.3-4.7-2.5-9.5-4-14.2-.7-2.2-1.7-4.2-2.6-6.4-.5 1.5-.8 2.9-1 4.3 0 .1.2.4.4.6zm14.4-13.3h.4c.2 2.6.5 5.1.5 7.7 0 4.2-.2 8.5-.2 12.7 0 6.7-.1 13.4.1 20 .1 2.5-.4 5.1.9 7.6.1.2.1.4 0 .6-.6 1.4-.1 2.7.3 4.2.2-.3.3-.4.3-.5.1-.7.2-1.4.3-2 1-5.6 1.5-11.3 1.6-17 0-5.6-.1-11.3-.1-16.9v-10.8-1.8c0-1.5-.1-3 .1-4.5.2-1.8 1.2-3.5 2.6-5 .2-.2.6-.4 1.2-.7-3.6 7.3-3.6 7.3-3.1 9 1.5-1.5 1.7-2.1 1.1-2.6.7-1.1 1.4-2 2-3 .7-1.3 1.3-2.6 1.9-4 .6-1.5 1.2-2.9 1.8-4.4-.2-.1-.3-.1-.5-.2l-5.7 5.4c-2 1.9-2.4 4.2-3.7 6.6-1.5-1.5-3.1-2.7-4.2-4.1-1.1-1.4-1.6-2.9-2.5-4.7.1.5 0 .7.1.9.7 2.4.5 4.8-.1 7.1-.5 2-1.2 4-3.1 5.6-1 .8-.9 1.4-.6 2.4 1.1 2.9 2.2 5.7 2.9 8.6 1.2 4.9 2.1 9.8 3.2 14.7.5 2.5 1.1 5.1 1.7 7.6h.4c-.4-12.9.1-25.7.4-38.5zm19.9 93h.3c0-.1.1-.3.1-.4.5-4.1 1-8.1 1.6-12.2.4-2.5 1-4.9 1.3-7.4.6-4.1 1.1-8.2 1.6-12.3.4-3.7.6-7.5-.1-11.2-.5-2.4-.9-4.8-2.9-6.9-.8-.8-1.7-1.4-3.1-1.7-3.1-.7-5.9-.1-8.7.7-.9.3-1.4.6-1.6 1.3-.4 1.5-1 3-1.5 4.5-.4 1.3-.7 2.7-1.1 4.3 1.7-.7 2.8-.3 4 .3 3.2 1.7 5.3 3.9 6.5 6.6 2.1 5.1 3 10.4 3.3 15.7.2 3.7-.1 7.5-.1 11.2 0 2.6.3 5.1.4 7.5zm-14.3-56h.4c.1-.1.2-.2.3-.4 2.1-5.6 4.7-11 8.3-16.2 2.1-3.1 4.3-6.1 7.4-8.8 1-.8 1.4-2.8.8-4.3-.4.7-.8 1.3-1.1 1.9l-.9 1.8c-.1.2-.6.4-.6.4-.7-.3-.8.1-1.1.4-2.2 2.4-5.3 3.9-9.1 4.9.1-1.2.4-2.4.3-3.6-.1-1.2-.3-2.4-.7-3.6-.4-1.2-.9-2.3-1.4-3.5-.6-1.1-.8-2.3-2-3.5-.6 2.4-1.2 4.5-1 6.7.2 2.1.7 4.2 1.1 6.3l-1-.5v14.2h.5c1.1-4.2 2.2-8.4 3.8-12.5 0 1.3-.1 2.6-.4 3.9-1.1 4.6-2.3 9.3-3.4 13.9-.3.7-.2 1.6-.2 2.5zm-5.1-79c1.9.7 2.1 2.2 3.2 3.4l1.6-1.6c-1.2-2.9-3.2-5.4-6.3-7.4-1.5-1-2.7-2.3-4-3.4-.2-.2-.4-.4-.9-.8-.1 1.6-.4 2.8-.3 4.1.1 1.3.4 2.5.6 3.7-1 0-.9.4-.6.8 1.1 1.2 2.2 2.5 3.5 3.7 1.1 1 2.2 2 3.6 2.7 2 1.1 3.3 2.6 4.6 4.2 2.1-1.4 3.5-3 4.9-4.7.4-.4.5-1 1.4-1.1.2.7.4 1.4.6 2.2.9-2.3 1-7.2.3-8.1-1.1.9-2.3 1.8-3.5 2.7-1.3.9-2.7 1.7-3.9 2.7-1.3 1-1.3 1.8-.2 3.3.9-.6.7-1.8 2.4-2.4-.6 1.6-1 2.8-1.5 4.2-3.9-2.2-4.1-5.4-5.5-8.2zm-3.9-10c-1.4-1.7-1.9-3.3-2-5-.1-2.2-.3-4.5-.5-6.7-.1-.9-.3-1.7-.4-2.6-.1-.9-.3-1.7-.5-2.6-.4.4-.5.8-.5 1.1-.7 3.7-.6 7.4 0 11.1.2 1.1 0 2.2 1.5 3.1 1.1.7 1.6 1.9 2.4 2.8 1 1.1 2.2 2.1 3.9 3-.4-1.1-.8-2.1-1-3-.2-.9-.2-1.9-.2-2.8 1.6 2 1.6 4.4 3.1 6.6.3-.6.5-1 .8-1.3.4-.6.8-1.4 1.4-1.9.7-.6.8-1.2.5-1.9-.8-2.1-2.1-3.9-4.1-5.4-1.5-1.2-2.7-2.5-4.1-3.7-.1-.1-.3-.2-.8-.5.1 3.3.3 6.4.5 9.7zm7.8 30.6c.8-1.8 1.3-3.6 2.8-5.1-.4 2-.8 4-1.2 6.1.1 0 .3.1.4.1 1.2-1.3 2.4-2.6 3.5-4 .7-.8 1.3-1.7 1.6-2.6.4-1.3.5-2.6.8-3.9.4-2.2-.4-4.2-.9-6.7-1.4 2.7-3.9 4.5-6.2 6.3-.9.7-1.4 1.6-1.7 2.6-.6 2.5.5 4.8.9 7.2zm11.5 17.9c.6-2.1 1.2-4.2 1.8-6.2h.4c.1 1.9-.1 3.8-.3 5.7 1.4-1.8 2.8-3.7 3.9-5.6.7-1.2.9-2.4.3-3.7-1.3-2.5-3-4.8-3-7.8-5 5.7-6.7 11.3-3.1 17.6zM80.3 95.3h.4v3c0 1-.5 2 0 3.3.7-1 1.2-1.8 1.8-2.5 2.1-2.6 2.8-5.4 2.5-8.4-.2-2.2-.9-4.4-2.1-6.8-.9 2.7-3 4.7-5 6.8-.8.9-1.3 1.8-1.3 2.8 0 1.7.5 3.3 1.2 4.9.2.4.4.8.5 1.2.2.4.3.8.5 1.2.3-1.8.7-3.7 1.5-5.5zm27-34.4c-2 1.2-3.6 2.2-5.2 3.2-1 .6-2.1 1.2-2.8 2-1.6 1.8-3.3 3.6-.9 5.8.2.2.3.5.5.8.8-1.3 1.5-2.5 2.3-3.7.1 0 .2 0 .3.1-.4 1.7-.9 3.3-1.3 5.2 2.5-1.1 4.4-2.2 5.4-3.9.5-.8.8-1.6 1.1-2.5.7-2.2.7-4.4.6-7zm11.7 17c-1.3 2.5-2.4 4.8-2.7 7.3-.4 2.7.7 4.8 3.2 7 .4-1.9.8-3.6 1.2-5.2h.3c.1 1.3.3 2.6.4 4 .9-.6 1.8-1.1 2.6-1.7.3-.2.6-.5.6-.7 0-2-.1-4.1-1.6-5.9-1-1.2-1.9-2.4-2.9-3.6-.3-.4-.6-.7-1.1-1.2zm-14 13.9c-2.2 2.5-4.4 4.8-6.3 7.2-1.6 2-2 4.2-1.6 6.5 0 .3.3.5.6 1 .6-2.6 1.5-4.9 3.5-6.8 0 .5-.1 1.1-.3 1.6-.4 1.4-1 2.7-1.3 4.1-.2.8-.4 1.5-1.3 2.1-.7.4-.8 1-.7 1.8.4-.3.7-.4.8-.6 1.5-1.4 2.9-2.8 4.4-4.2 1-.9 1.8-1.8 1.9-3.1.1-.9.5-1.8.8-2.7.6-2.3 1-4.5-.5-6.9zm-24.2 23.5c.2-.1.4-.1.4-.1 1.6-2 3.2-3.9 4.8-5.9.2-.3.4-.6.4-.9.2-2.1.3-4.2.4-6.3.1-1.5-.4-3-1.7-4.5-1.6 2.4-3.1 4.5-4.5 6.7-1.2 1.7-1.5 3.6-1.4 5.5.1.9.2 1.9 1.1 2.9.4-2.4.6-4.7 2.3-6.7.1.5.1 1 0 1.5-.2 1.5-.3 3-.6 4.5-.1.6-.4 1.2-.9 1.7-.4.6-.5 1-.3 1.6zm25.5 7.6c.4-.1.5-.2.6-.2.2-.2.3-.3.4-.5 1.3-1.8 1.9-3.8 1.7-5.8-.3-2.9-1.5-5.7-2.6-8.6-.9 1.5-1.5 3-2.5 4.3-.9 1.2-1.4 2.5-1.7 3.8-.1.3-.1.6-.2.9-.4.8-.2 1.6.2 2.4.8 1.8 1.6 3.6 2.3 5.4.1.2.3.5.4.7.1 0 .3 0 .4-.1-.1-.5-.1-1-.2-1.5-.1-.6-.4-1.2-.3-1.8.2-1.6.6-3.3.9-4.9.1-.4.2-.8.4-1.2 1.1 2.4.9 4.7.2 7.1zM77.2 89.7c-1.3-.9-2.6-2.1-4.3-3-2.7-1.4-5.4-2.8-7.4-4.8-.2-.2-.6-.4-.9-.6.2 2 .7 3.8 1.3 5.7.2.5.3 1.1.7 1.5 2 1.8 4 3.6 7 5.2-1-1.3-1.9-2.3-2.7-3.3.1-.1.3-.1.4-.2 1.4 1.2 2.8 2.4 4 3.5.6-1.2 1.1-2.4 1.9-4zm42.3 15.3c.1.1.2.1.3.2 1.3-.5 2.6-1 3.8-1.6 2-1 4.2-1.9 5.2-3.7.3-.5.7-1 1-1.4.7-1.2 1.4-2.5 2.2-3.8-.4.1-.5.1-.6.1-2.9 1.8-6.2 3.1-9.8 4-2 .5-3.5 1.5-4.8 2.3.2 1.5.4 2.8.5 4 .9-.5 1.6-1.1 2.5-1.5.9-.5 1.8-.9 2.7-1.3l.2.2c-1.2.9-2.2 1.7-3.2 2.5zM35.9 89.6c-.8-1.6-1.4-2.9-2-4.3.5-.5.4-.7-1-1.3-.3.7-.5 1.5-1 2.2-1 1.4-1.7 2.7-.9 4.3-.5-.3-1-.6-1-1-.2-1.5-1.6-2.3-2.8-3.2-1-.8-2.2-1.4-3.8-1.4-1.5-.1-2.7-.6-3.6-1.4.4.9.6 1.8 1.2 2.6.8 1 1.5 2.1 2.7 2.8 2 1.1 4.4 1.9 7 2.3 1.7.2 3.3.6 5 .9 1.5-2.2 1.7-3.5.3-4.5-.1.5-.1 1.1-.1 2zm65.5-26.5c1.7-1.1 3.2-2 4.6-3 .3-.2.5-.4.6-.7.3-.9.4-1.8.7-2.7.8-2.1.3-4.2 0-6.2-1.8 1.2-3.4 2.3-5 3.4-2 1.3-2.9 2.9-3.3 4.8-.2 1.1.3 1.9 1.1 2.9.5-1.5 1.1-2.9 2.7-4.2-.5 2.1-1.8 3.7-1.4 5.7zM74.8 68c.5-1.4.6-2.8 1.9-4.1.1 1.9-1.2 3.6-.3 5.5 2.2-1.1 2.8-2.4 2.1-4.1-.3-.7-.2-1.5-.2-2.3h.3c.3 1.2.6 2.4 1 3.9.8-.7 1.3-1.2 1.7-1.5-1-.8-.2-1.5-.2-2.2 0-.7.1-1.5.1-2.2-.1-.8-.2-1.5-.4-2.3-.2-.7-.4-1.5-.6-2.3-1.3 1.2-2.4 2.2-3.5 3.2-.6.5-1.2 1-1.8 1.6-1.1 1.1-1.5 2.4-1.6 3.7 0 1.1 0 2.2 1.5 3.1zm-2.9-2.8c.5-1.6 1-3.1 1.6-4.9-.5-1.1-1.8-1.9-3.3-2.7-2-.9-3.9-2-5.2-3.5-.7-.7-1.5-1.3-2.3-2 .2 1.5.2 1.5-.8 1.5.5.9.8 1.8 1.5 2.5 1.7 1.8 3.6 3.5 5.4 5.2 0 0-.1.2-.1.3-2.4-.8-3.2-2.7-5-4.1 0 2.3 3.2 5.2 8.2 7.7zm18.8-14.9c.6 3.5 3.6 5.9 6.9 8.1.8-1.5 1.6-3 2.5-4.6-.4-1.3-1.7-2.3-3.2-3.2-1.6-1-3.1-2.1-4.1-3.5-.7-1-1.5-1.9-2.4-2.9.1.7.1 1.5.2 2.2h-.3c-.1-.2-.2-.3-.5-.7 0 1.2 0 2.2.7 3.1 1.6 1.9 3.1 3.8 4.6 5.8l-.2.2c-2.1-1.2-2.6-3.1-4.2-4.5zm48.8 22c-2.1.9-3.4 2.5-6.1 2.7 2.3-1.5 4.6-2.9 7-4.3 1.1-.6 1.4-1.4 1.9-2.1-.7-.1-.7-.4-.4-.8.2-.2.3-.5.4-.7-3.2 1.8-6.5 3.4-10.3 4.3-1.2.3-2.1 1.1-2.8 1.5v5.2c4.1-1.3 8.1-2.7 10.3-5.8zm-87.4 35.4c-.4 1.9-.8 3.7-1.4 5.5-.3.9-.2 1.7.3 2.5 1 1.6 2.7 2.9 4.5 4.3-.4-1.5-.8-2.7-1.2-3.9.1 0 .3-.1.4-.1.7 1.3 1.5 2.6 2.2 3.9.4-.9.6-1.7.7-2.5 0-1.2.2-2.4-.3-3.5-1-2.3-2.5-4.6-5.2-6.2zm25.1-32.3c.1 0 .2 0 .4.1-.1 1.7-.3 3.3-.5 5.3 1.2-.9 2.1-1.4 2.9-2.1 1.1-.8 1.5-1.8 1-2.9-.4-.9-.5-1.9-.7-2.9-.3-1.2-.6-2.4-1-3.9-.9.7-1.6 1.2-2.4 1.6-2.2 1.5-3 3.5-3.7 5.5-.1.2 0 .5.2.7.7.8 1.5 1.5 2.3 2.3.5-1.2 1-2.4 1.5-3.7zm40 52.4c-1.1 0-1.7.1-2.2.7-1.2 1.7-2.6 3.3-3.8 4.9-4.7 6.6-7.9 13.6-10.5 20.7-.5 1.3-.8 2.6-1.2 4.1 1.2-.4 1.7-.8 2-1.6 2-6.3 4.9-12.3 8.3-18.2 2-3.6 3.7-7.4 7.4-10.6zm10-24.3c-.1 0-.2-.1-.3-.1-2.2 1-4.4 2.1-6.7 3-3.2 1.2-5.3 3.1-7.2 5.3-.2.2-.2.4-.4 1 2.6-1.7 4.6-3.5 7.2-4.7.1.1.2.1.3.2-1.9 1.6-3.9 3.2-5.8 4.8 2.3-.5 4.5-1.1 6.7-1.8.8-.3 2-.7 2.1-1.2.2-1 1.4-1.5 1.8-2.3.7-1.3 1.5-2.7 2.3-4.2zM66.4 90.4c-.1.1-.2.3-.2.5.4 1.8.3 3.6 1.5 5.2.2.2.4.5.4.7-.1 1.5 1.4 2.1 2.6 2.8 1.3.7 2.6 1.3 3.9 2 .3.2.7.3 1.3.5-1.6-2.1-3-4-4.4-5.9.1-.1.2-.1.3-.2 2.2 1.7 3.6 3.7 5.6 5.5-.7-2.3-1.8-4.5-4.1-6.2-2.2-1.6-4.5-3.2-6.9-4.9zM88 83.1c-.1.1-.2.2-.2.3-.1 1.8-.5 3.6.3 5.5.4.9.3 2 1.3 2.7 1.8 1.2 3.6 2.5 5.4 3.7.1 0 .1-.1.2-.1-1.1-2-2.1-4-3.2-6 .1 0 .3-.1.4-.1 1.9 1.9 3 4.2 4.7 6.2-.5-2.7-1.3-5.2-3.8-7.4-1.8-1.5-3.4-3.1-5.1-4.8zm-42 23.1c3.4-3 1.1-7.9-2.2-10.6-.6 1.1-1 2.2-1.7 3.3-1.2 1.8-1.3 3.7-.5 5.6.9.4 1.8.7 2.8 1.1-.1-1.1-.2-2-.3-2.9h.3c.4 1.1.9 2.3 1.6 3.5zm15.4 21.7c-.6-1.7-1.3-3.3-.8-5 .3.3.5.7.6 1 .4 1 .9 1.9 1.2 2.9.2.5.3 1.1.2 1.7-.1.5-.2.8.5 1.2.4-1.9.8-3.7 1.2-5.5 0-.2.1-.4 0-.6-1-1.9-1.9-3.7-3-5.5-.4-.7-1.2-1.3-2.5-1.7-.2 2.3-.5 4.4-.5 6.6.1 1.9 1.1 3.6 3.1 4.9zm-1.5-35.4c-1.3-.5-2.6-1.1-4-1.4-3-.6-5.9-1.3-8.5-2.6h-.5c.4.7.9 1.3 1.2 2 1.4 3.2 5 4.3 9 5.1-.8-.5-1.5-1-2.3-1.6.1-.1.2-.1.2-.2 1.5.7 2.9 1.3 4.2 1.9.3-1 .5-2 .7-3.2zm11.6-40.8c1.1-.8 2.3-1.5 3.1-2.3 1.4-1.4 2.2-2.8 1.2-4.6-.6-1.1-1.1-2.3-1.7-3.4-.5-.9-1.2-1.8-2.5-2.4-.5 1.1-1.1 2.1-1.5 3.2-.6 1.7-1.2 3.4-.5 5.2.7 1.3 1.3 2.7 1.9 4.3zm63.2 58.3c5.6.1 10.3-2.2 11.6-5.3-3 1-6.2 1.2-9.4 1.2-1.5 0-2.9.5-4.3.7-.1 1.2-.2 2.2-.3 3.2 1.6-.4 3.2-.7 4.8-1.1 0 .1.1.1.1.2-.9.4-1.7.7-2.5 1.1zm-.8-45.2c1.1-1.5 2.2-2.7 3.1-4.1.5-.7.9-1.6.9-2.4.1-1.9-.1-3.9-.2-5.9-1.6.4-2.5 1.1-3.3 1.9-1.1 1.2-2 2.4-3 3.6-.8.8-.8 1.7-.6 2.7.5 1.6 1.8 2.9 3.1 4.2zM99.6 45c1.2-.7 2.5-1.2 3.5-2 1.2-.9 2.5-2 2.2-3.4-.3-1.5-.7-3-1.2-4.4-.3-1-.9-2-2.1-2.7-.7 1-1.4 1.9-1.9 2.8-.9 1.5-1.8 3-1.5 4.8.3 1.5.6 3.1 1 4.9zm-62.8 64.8c2.4 3.7 5.8 5.9 11.4 6.4-.7-.4-1.3-.8-1.9-1.2.1-.1.2-.2.2-.3 1.2.4 2.3.8 3.5 1.2-.1-1-.2-2-.2-3.1-1.6-.6-3.2-1.1-5-1.2-2.2-.1-4.4-.5-6.4-1.3-.4-.1-.9-.2-1.6-.5zm2-42.7c.2.6.6 1 .5 1.4-.2 1 .5 1.4 1.5 1.8 1.8.8 3.5 1.7 5.3 2.6.1.1.2.2.3.4-2.2-.1-3.5-1.4-5.3-1.9 2.1 2.4 5.5 3.3 8.9 4 .1-1.3.2-2.5.3-4-.8-.3-1.8-.9-2.9-1.1-3.1-.6-5.8-1.7-8.6-3.2zm-.5 21.6c-.6 1.3-1.1 2.5-1.7 3.8-.7 1.5-.5 2.8.3 4.2.4.7 1 1 2 1.3-.1-1.1-.3-2.1-.4-3.1 1.2 1.1.8 2.6 2.3 3.6 1.2-2.1 2.3-4 1.8-6.2-.1.3 0 .6 0 1 0 .3-.1.7-.2 1-.7-2.1-2-4-4.1-5.6zm122.1-3.1c-1.6.4-3.1.9-4.7 1.1-1.6.2-3.3.1-4.9.3-.9.1-1.7.4-2.3.6-.4 1.4-.6 2.6-1 3.9 1.8-.2 3.6-.3 5.4-.6 2-.3 4-1.3 4.3-2-1.8.3-3.4 1.4-5.4 1 2.1-.7 4.2-1.3 6.4-1.9.7-.2 1.3-.4 1.6-1 .2-.3.4-.8.6-1.4zM65.1 37c-.3.2-.5.3-.5.4-1.4 2-.5 4-.4 6 0 .2.2.4.4.5 1 .6 2 1.4 3.3 1.7.7-2.1 1.4-4 2-6 .1-.2.1-.6-.1-.7-1.1-.9-1.8-2-3.5-2.7-.8 1.5.3 3-.1 4.6-.9-1.2-.9-2.5-1.1-3.8zm78.6 13.4c-1.4.7-2.3 1.3-3.4 1.8-.9.4-1.2.9-1.1 1.7.1 1.5 0 3.1 0 4.7v1c2.7-.5 5-1.2 5.3-3.5 0-.3.3-.6.5-1 .4-1.1.6-2.1-.1-3.4-.9 1.3-1.1 2.6-2.7 3.7.4-1.7 1.6-3 1.5-5zm-48-20.6c-.4.3-.5.5-.7.6-1.4 1.8-1.1 3.7-1.2 5.7 0 .2.1.4.3.5 1 .7 1.9 1.4 2.9 2.1 1.1-2 2.1-3.8 3-5.6.1-.3.3-.6.1-.8-.9-1-1.4-2.3-3-3.1-.9 1.6-.3 3.1-.7 4.8-1-1.5-.4-2.8-.7-4.2zM26.8 93.7c2.4 2.1 5.5 2.8 9.1 3-.2-.5-.4-.9-.5-1.3-.1-.4-.2-.8-.3-1.1-.1-1.4-.5-1.7-2.3-2.1l-2.1-.3c-1.5-.3-3-.6-4.5-1-.8-.2-1.6-.5-2.4-.8.1.5.2 1 .4 1.4.3.4.7.9 1.2 1.1l5.7 2.1c.3.1.5.3.8.4-.1.1-.1.2-.2.3-1.7-.6-3.3-1.2-4.9-1.7zm68.6 20.7c-.6-1.1-1.3-2.2-1.7-3.3-.4-1.1-1-2.3-.4-3.7.9 1.9 1.1 3.7 2.4 5.6.4-.9.6-1.6 1.1-2.1.5-.7.4-1.3.1-1.9-1.3-2.6-4.3-4-7.3-5.9.9 4.2 2.2 8.1 5.8 11.3zM50.6 94.8c.2.4.2.9.5 1.2.7 1 1.2 2.1 2.3 3 .6.6 1 1.2 2 1.4 1.9.5 3.9.8 5.8 1.2.1-.1.1-.2.2-.2-1.5-1.1-2.9-2.1-4.4-3.2l.2-.2c1.8 1 3.7 2 5.5 2.9-1-1.6-2.5-3-4.6-3.7-2.4-.7-4.9-1.5-7.5-2.4zm83.1 17.6l.3.3c-1.9.8-3.8 1.6-5.7 2.5h5.6c.7 0 1.5-.1 2.1-.4 1-.5 1.9-1.1 2.6-1.7.9-.8 1.6-1.7 2.5-2.7-3 .5-5.7.9-8.4 1.3-2.3.4-4.1 1.5-5.5 2.8 2.1-.7 4.3-1.4 6.5-2.1zm-79.8 9.3c-.8-.5-1.4-.8-2-1.1-.6-.3-1.3-.7-1.9-1-.5-.3-1.2-.5-1.3-1.1 2 .8 3.9 1.6 5.9 2.5-1.4-1.5-3.1-2.7-5.4-3.3-2.4-.6-4.8-1.2-7.4-1.8.4.5.7.9 1 1.3.8 1 1.9 1.8 2.9 2.7.8.7 1.8 1.1 2.9 1.3 1.7.2 3.3.3 5.3.5zm-7.4-56.4c1.4-1.1 2.6-2.2 3-3.7.1-.4.2-.9-.1-1.2-1-1.2-2.1-2.4-3.3-3.4-.5-.4-1.4-.7-2.1-1.1-.2.9-.5 1.6-.5 2.3-.1 1.3-.5 2.7.5 4 .7 1.1 1.6 2.1 2.5 3.1zm107.3 17c1.3-.9 2.6-1.7 3.8-2.6.4-.3.7-.7.9-1.1.7-1.6.8-3.2.8-4.9-2.4.1-3.8 1.4-5.4 2.4-1.9 1.1-2 2.5-1.4 4 .4.8.9 1.5 1.3 2.2zm-43.9 42.8c0 1.4-1 2.3-2 3.3-.9.9-2.1 1.7-3.1 2.6 2.8-1.4 5.4-2.8 7.2-4.9.2-.2.3-.5.3-.8-.2-.7-.4-1.5-.7-2.3-1.2.4-2.3.7-3.3 1.1-2.7 1.1-3.6 2.9-2.7 5.4.8-.8 1.5-1.4 2.2-2.1.6-.8 1.3-1.5 2.1-2.3zm-30.6-5.6c2.5-4.1-.5-6-4-7.4l-1.5 2.4c1.1 2.5 3.3 4.5 5.6 6.5-1.7-2-3.2-4.1-3.1-6.6.9 1.6 1.9 3.2 3 5.1zM24.8 78.2c.1 1.3.1 2.2.3 3.1.3 1 .5 2 1.2 2.9.9 1.1 2.3 2.1 3.5 3.1.4-.6.8-1 1-1.5 1-1.7 1-3.4-1.1-4.8-.7-.5-1.3-1.1-2.1-1.5-.7-.4-1.6-.7-2.8-1.3zm140.8-3.6c-1 .6-1.4 1.6-2.7 2 .5-1.2 2-1.9 1.9-3.3-1.5.3-2.7.6-4 .9-.5 1.8-.9 3.4-1.3 5.1 3 .4 3.7.2 5.1-1.6.2-.2.5-.5.6-.7.4-.7.8-1.4.4-2.4zM42 61.6c.2-1.7.4-3.1.5-4.6 0-.3-.1-.6-.4-.7-1-.5-2.1-.9-3.4-1.5-.4 1.4.8 2.4.6 3.5-.6-.8-1.1-1.5-1.8-2.4-1.2 1.7 0 3.1.7 4.5.7 1 2.5.8 3.8 1.2zM21.2 80.5c-.1 0-.2.1-.3.2L19 78.8c-.3 1.4.4 2.4 1.1 3.3 1.2 1.7 2 2 4.6 1.7-.3-1.4-.5-2.9-.8-4.3-.1-.3-.3-.6-.5-.7-1.1-.4-2.2-.7-3.3-1.1l-.3.3c.3.8.8 1.7 1.4 2.5zM68.8 115c-2-1.1-3.5-2.4-4.2-4.1.7.4 1.3.9 1.9 1.4.6.5 1.3 1 2 1.6.9-2.8-.3-3.5-3.2-4.3-1.3-.4-2.6-.6-4-.9-.4-.1-.8 0-1.3 0 2.3 2.7 4.9 4.9 8.8 6.3zm48.7 10.8c.1.1.2.1.3.2 1.5-.8 2.9-1.6 4.4-2.4l.3.3c-1.1.8-2.2 1.6-3.3 2.3 3.4-.5 5.7-2.2 8.3-3.8-2.1-.3-6.2-.2-7.6.3-1.2.4-2.2.9-2.2 2 0 .4-.1.7-.2 1.1zm-54 7.2c-.1-2.7-.3-2.9-3-3.7-1.4-.4-3.1-.5-4.6-.7-.4 0-.8 0-1.3.1 3.1 2.8 7.2 5.1 9.6 5.3-3.2-1.5-4.4-2.4-4.7-3.5 1.3.8 2.6 1.6 4 2.5zm63.1-19.5c1.3-1.1 2.7-2.1 3.9-3.2 1.7-1.5 1.3-3.1.3-4.8-3.1 2.2-3.3 5.2-4.2 8zm-62.9-13.2c-.1-2.9.6-5.9-1.8-8.5-1.7 1.6-2.3 3.3-1 5.1.9 1.1 1.9 2.2 2.8 3.4zm20.4-40.9c1.4-6.1-.2-12-.7-17.8-.8 4.2-.3 15.6.7 17.8zM58.4 75.6c-2 1.7-2 1.7-1.2 3.5.5 1 .8 1.9 1.2 2.9.3.7.6 1.3 1 2.1 1-.8 1.5-1.6 1.3-2.4-.6-1.9-1.4-3.9-2.3-6.1zm81 14.9c-.3.2-.5.4-.6.5-1.2 1.6-2.5 3.2-3.7 4.8-.6.9-.4 1.7.2 2.6.3-.1.4-.1.5-.2 1.5-1.7 2.9-3.5 4.3-5.2.2-.2.2-.6.1-.8-.1-.6-.4-1.1-.8-1.7zm1.6 3.1c-3 1.7-2 4.1-2.7 6.3 1.2-.4 2.2-.7 3.1-1 .7-1.9.9-3.6-.4-5.3zm-84.7-8.7c.2-1 .3-1.8.6-2.6.5-1.4-.2-2.6-1-3.9-1.9 1.4-2.2 3.1-2.2 4.8 0 .2.2.5.4.6.7.3 1.4.7 2.2 1.1zm30.3-13.1c0-.8.2-1.5.1-2.3-.2-1.9-.3-3.9.2-5.8.1-.2.1-.6-.1-.7-1.2-.6-.6-1.6-1-2.3-.2-.3-.2-.7-.4-1-.7 4.2 0 8.2 1.2 12.1zm-4.7-4.7c-1.9.9-2 1.1-1.7 2.4.4 1.7.8 3.3 1.3 5 .1.2.3.5.5.9 1-3 .6-5.6-.1-8.3zm-46 12.7c2.2 3.6 3.9 7.4 6.8 10.8-.8-3.1-2.7-6.2-6.8-10.8zm90.1 29.4c.1 0 .3.1.4.1 1-1.3 2-2.6 3.2-3.8 1-1 .9-2 .5-3.4-2.2 2.3-3.5 4.6-4.1 7.1zM63.5 88.7c-.6 1.1-1 2-.4 3.2.7 1.1 1.1 2.4 1.6 3.6.1.2.3.4.6.8.4-2.9-.4-6.1-1.8-7.6zm96 10.2c-.1-.1-.2-.1-.3-.2-3.6 2.6-7.1 5.3-9.2 8.8.1.1.2.1.3.2 3.1-3 6.2-5.9 9.2-8.8zM43.4 89c1.1 3.1 2.9 6.2 5.1 7.3-.6-2.6-1.7-4.2-5.1-7.3zm24.5 19.7v-4.4c0-.7-.2-1.4-1.7-1.7-.7 2.3-.5 4.3 1.7 6.1zM120 121c2.2-1 3.6-3.5 3.1-5.6-1.3.3-1.7.5-1.9 1.4-.4 1.4-.8 2.9-1.2 4.2zm11.7-18c1.2-1.4 2.1-2.5 3.1-3.6l-.9-1.5c-2.5 2.1-2.9 3-2.2 5.1zM62 89.2c1.2-2 1-3.4-.7-5.4-.4.6-1.4 1-1 1.8.4 1.1 1 2.2 1.7 3.6zm-.2-8.3c.2-2.1-2.2-9.3-3.1-10.1-.8 1.2 1.1 2 .7 3.3-.3 1 .7 2.2 1.1 3.3.4 1.2.8 2.4 1.3 3.5zm23.9 7.3c.5-2.2.7-4.3-.1-6.5-.7 2.2-.8 4.4.1 6.5zm-26.5-2.4c-.6.8-1 1.3-1.3 1.9-.5 1-.2 1.5 1.2 2.1.2-.6.1-1.3.5-1.8.6-.7.3-1.3-.4-2.2zm75.1 18.4c2.1-.7 2.3-1.7.7-4-.4.6-.8 1.1-.9 1.6-.1.8.1 1.5.2 2.4zm20.6-4.3c-2 1.2-5.6 4.3-6.1 5.4 2-1.9 5-3.1 6.1-5.4zM84.1 82.4c-.4-1.8.4-3.9-1.3-5.6-.2 2 .6 3.8 1.3 5.6zm44.1-22.1c.2.1.4.1.6.2.4-1.7 2.3-3 2.2-4.8-.2 0-.3-.1-.5-.1-.7 1.5-1.5 3.1-2.3 4.7zm-30 103c-.1 1.6-.3 3.2-.4 4.8.4-1.6 1.6-3.2.4-4.8zM49.1 94.8c-.1 0-.3.1-.4.1.5 1.6 1.7 3.6 2.7 4.1-.8-1.4-1.6-2.8-2.3-4.2zm63.9 29.6c1-.6 1.8-1.2 1.8-2.3-.7.2-1.3.3-1.8.5v1.8zM98.2 176c-2 .8-2 .8-1.7 2 2-.5 2.1-.6 1.7-2zm-24.9-62.7c.9-1.6 1.1-2.4-.8-2.5-.3 1.1-.3 1.1.8 2.5zM57.9 85.6c1.1-.9 1-1.3-.7-3.6.3 1.4.5 2.4.7 3.6zm-3.1-8.1c.6-1 .4-1.7-.7-2.8 0 1-.1 1.9.7 2.8zm81.9 22.7c.4-.9.9-1.8 1.3-2.7-.8.8-2.4 1.3-1.3 2.7zm7-9.7c-1.7 1-2 1.5-1.2 2.5.4-.9.8-1.7 1.2-2.5zm-43 68.1c-1.6.7-.9 1.6-1.2 2.3.1 0 .3.1.4.1.3-.7.5-1.4.8-2.4zm17.5-37.9c-.6.9-.6 1.5 0 2 .9-.6.4-1.2 0-2zm-8.7-61.4h-.4c-.1.8-.3 1.6-.4 2.5h.3c.1-.9.3-1.7.5-2.5zm-39.8 49.4c-.9.8-1.5 1.3-.6 2 .2-.4.4-.8.5-1.1.1-.2.1-.4.1-.9zM83 183.5c.4-.9.4-.9-1-1.2.4.4.7.8 1 1.2zm.8-118.4h-.5c.1.5.2.9.3 1.4h.2v-1.4zm25.2-8.8h-.4c-.1.4-.3.9-.4 1.3.2 0 .4 0 .6.1.1-.5.2-1 .2-1.4zm8.2 21.3c.1 0 .2.1.4.1.2-.6.4-1.2.6-1.7-.1 0-.3 0-.4-.1-.2.5-.4 1.1-.6 1.7zm23 37.7c.1.1.1.1.2.1l.9-.6-.2-.2c-.3.3-.6.5-.9.7zM86.1 96c-.2 0-.3.1-.5.1.1.2.3.4.4.7.1 0 .1 0 .2-.1 0-.2-.1-.4-.1-.7z"/><path id="XMLID_277_" class="st0" d="M116.7 274.1c-1.1-.1-1.1-.9-1.4-1.4-1.1-2.2-2.1-4.5-3.2-6.8-1.4-3-1.8-6.1-2.4-9.2-1.3-6.7-2.6-13.4-4-20.1-.7-3.3-1.8-6.6-2.5-9.9-.9-4.1-1.6-8.3-2.3-12.4-.3-1.6-.6-3.3-1.2-4.9 0 1.1-.1 2.2 0 3.2.7 6.5 1.1 12.9 2.1 19.3 1.2 7.7 3 15.4 4.5 23.1.8 3.8 1.7 7.6 2.4 11.4.4 2.3 1.9 4.3 3.5 6.3.8 1 1.5 2 1.8 3.2-2.1-1.8-3.6-3.9-5.2-6-.6.3-1.1.6-1.5.9-1.1.9-2.4.6-3.6.4-.4-.1-.7-.5-.8-.9-1.9-6.3-3.9-12.5-5.6-18.8-.8-2.8-1.1-5.7-1.6-8.5-.3-1.5-.6-3-.7-4.5-.4-4-.8-8-1.2-11.9 0-.2 0-.5-.4-.7v1.9c0 3.4 0 6.7.1 10.1.2 4.6.7 9.2 1 13.8.3 4.1.6 8.2 1 12.3.2 2.6.5 5.1.8 7.7.2 2.4.5 4.8.7 7.1 0 .4.3.8.6 1.5-.5.5-1.4.8-2.6.5-.6-.1-1.3-.2-1.9-.2-1.6-.2-1.8-.4-2-1.6-.2-2-.4-4.1-.6-6.1-.1-1.5-.3-2.9-.5-4.4 0-.3-.2-.6-.3-.8-.5.1-1 .1-1.4.2-2.3.3-2.9 0-2.9-1.7v-5c-.1-7.3-.2-14.5-.2-21.8 0-2.8.4-5.5.6-8.3.2-2.9.3-5.7.5-8.6.2-2.4.5-4.8.7-7.3 0-.4 0-.9-.3-1.3-.1.7-.4 1.3-.4 2-.5 5.6-1 11.2-1.6 16.7-.2 1.8-.6 3.6-.8 5.4-.3 2.9-.5 5.7-.7 8.6-.3 3-.5 6-.8 9v.6c-.1 3.2-.2 6.4-.4 9.6-.1 2.3-.2 4.7-.5 7-.1 1.2-.6 2.3-1 3.4-.4 1.4-.9 2.8-1.3 4.3-.1.4-.4.8-.7 1.4-.5-.2-.9-.3-1.2-.5-2.3-1.5-3.5-3.2-3.4-5.5.1-2.4.2-4.8.3-7.1 0-.9 0-1.8-.2-2.7-.3 1.3-.6 2.7-.8 4-.5 3.4-.9 6.8-1.3 10.1-.1.8-.5 1.1-1.6.8-.7-.2-1.5-.4-2.1-.7-1.1-.5-1.1-.5-.4-1.5.3-.5.5-1 .6-1.5l1.5-7.2c.5-2.3.9-4.6 1.5-6.9 1-4.1 2.2-8.2 3.2-12.3.6-2.5 1-5 1.7-7.5 1.6-6 3.4-11.9 5.2-17.8 1.2-4.2 2.5-8.4 3.8-12.7.1-.4.3-.8.8-1.2-.1.4-.2.9-.4 1.3-1.1 4.2-2.3 8.4-3.4 12.6-1.7 6.2-3.5 12.5-5.1 18.7-1.5 5.9-3 11.8-4.4 17.7-1 4.3-1.7 8.6-2.6 12.8-.4 1.6-1 3.2-1.5 4.9.7.2 1.4.4 2.1.7.6-3.5 1.1-6.8 1.7-10.1.3-1.7.8-3.5 1.1-5.2.7-3 1.3-6.1 2-9.1.7-3.2 1.6-6.3 2.3-9.5 1.2-5.5 2.7-10.9 4.4-16.3.5-1.7.7-3.6 1.1-5.3 1-3.9 2-7.8 3.1-11.7 1.5-5.2 2.6-10.4 3.4-15.7.2-1.2.5-2.3.7-3.5.2-1.1.2-2.3.4-3.5.6.9 1 1.7.7 2.8-.4 1.4-.5 2.8-.6 4.2-.3 5-.6 10-.8 15-.2 4-.3 8-.4 12-.1 2.2-.3 4.4-.2 6.6.1 3.8.4 7.7.6 11.5v.7c0 7.2.6 14.4 1.2 21.6.4 4.1.6 8.3.9 12.4.1.8.3 1.5.5 2.4 1 .2 2 .3 3.3.5 0-.8.2-1.5.1-2.3-.5-3.2-1-6.5-1.5-9.7-.3-2.4-.4-4.8-.6-7.1-.3-3.5-.7-7.1-1-10.6-.2-2.3-.4-4.6-.4-6.9-.1-8.8-.1-17.6-.2-26.5-.1-5.2-.3-10.4-.3-15.6 0-4 0-8 .1-12 0-.4.1-.7.4-1.1.1.2.2.4.2.6.3 3.8.5 7.7.9 11.5 0 .4.6.8.7 1.3.1.6-.1 1.2-.2 1.7-.1.6-.1 1.3-.1 1.9v1.8c.3 4.2.5 8.4.9 12.5.4 5.1.8 10.2 1.3 15.3.2 1.7.5 3.4.7 5.1.5 3.2.9 6.5 1.5 9.7.9 4.5 2 9 3.1 13.5.6 2.4 1.2 4.8 1.8 7.1 2 .8 2.5.7 5.2-.9-.3-.7-.7-1.5-1-2.4-.2-.6-1.1-1.1 0-1.8.2-.1-.1-.7-.2-1.1-1.2-4-2.7-8-3.7-12.1-1.1-4.2-2-8.3-2.7-12.5-1.2-6.4-1.9-12.9-2.6-19.3-.7-6.2-.8-12.4-1.2-18.5-.3-5.3-.3-10.6.1-15.9.1-1 0-1.9 0-3.1 1.1.6 1.2 1.3 1.3 2 .2 2 .3 4.1.5 6.1.5 5.5 1 11.1 1.7 16.6.6 4.5 1.3 9.1 2.3 13.6 1 4.9 2.3 9.7 3.4 14.5 1.3 5.8 2.7 11.6 4 17.4.7 3.2 1 6.5 1.7 9.7.4 1.7 1 3.3 1.7 4.9.6 2.1 1.6 4.3 2.6 6.5zm-40.9 4.1c.2-1.3.5-2.6.5-3.9 0-3.7.4-7.4 1-11 .5-3.2 1-6.5 1.4-9.7.4-2.7.7-5.5 1.1-8.2-.3.3-.5.6-.6.9-.7 3.3-1.4 6.6-2 9.9-.7 3.9-1.1 7.8-1.7 11.7-.3 1.8-.6 3.7-.6 5.5-.1 1.7-.6 3.4.9 4.8.3.9 1 1.6 2 2 .5-1.4 1-2.7 1.5-4 .4-1.3.9-2.7 1-4 .3-4.2.5-8.4.8-12.7.1-2.3.2-4.7.4-7 .2-2.7.4-5.4.6-8.2.1-1.7.3-3.4.4-5.1H82c-.6 3.2-1.1 6.4-1.6 9.6-.5 3-.9 6-1.2 9l-1.5 12c-.3 2.2-.5 4.5-.8 6.7-.3.7-.8 1.2-1.1 1.7zm13.9-11.3V265c-.3-3.5-.7-7-.9-10.5-.3-5.1-.5-10.1-.7-15.2-.1-3-.3-6-.3-9.1 0-4 .2-8 .3-12-.3 1.1-.5 2.2-.6 3.3-.2 2.6-.3 5.3-.5 7.9-.3 3.5-.8 7-.8 10.5 0 8.6.1 17.1.3 25.7 0 .5.1.9.2 1.6 1.1-.1 2-.2 3-.3zm-7.5-34.1c-1.5 3.2-3.1 10-2.8 11.3 1.2-3.8 2.5-7.5 2.8-11.3zm17.4-24.9h.2c0-.6-.1-1.2-.1-1.8h-.1v1.8zm-17.2 23.9c.1 0 .1 0 .2-.1v-.9c-.2.1-.2.3-.2.4v.6z"/><path id="XMLID_276_" class="st0" d="M82.7 209.9c-6.1 18.4-14 36.4-23.5 54 .9.6 1.8 1.2 2.9 2.1-1.7-.1-2.4-1-3.5-1.5-.8.4-1.7 1.1-2.7.5-1-.6-1.1-1.6-.6-2.5.4.6.8 1.2 1.3 2 1.5-.8 2.4-1.6 2.9-2.6 1.3-2.5 2.4-5 3.6-7.6 2.1-4.4 4.3-8.9 6.4-13.3 2-4.3 3.9-8.7 5.8-13 1.1-2.7 2-5.5 3.1-8.2 1.4-3.4 2.9-6.6 4.3-9.9z"/><path id="XMLID_275_" class="st0" d="M70.4 37.1c-.4-.4-1-.8-1.2-1.2-1.7-3.9-3.3-7.8-4.1-11.9-.1-.6-.4-1.1-.5-1.7-.1-.5 0-1.1.2-1.7 2.4 5.9 4.4 11.7 8.2 17.2-2.1-1.4-2.5-3.5-4.2-5.1.6 1.5 1.1 2.9 1.6 4.4z"/><path id="XMLID_274_" class="st0" d="M74.5 243.5c-.5 3.4-9.3 20.9-11.2 22.4.5-1.1.9-2 1.4-2.9 2.8-5.7 5.5-11.4 8.4-17.1.3-.9.9-1.6 1.4-2.4z"/><path id="XMLID_273_" class="st0" d="M23.4 77.2c-.8.4-1.3 0-1.7-.4-2.4-2.2-4.9-4.3-7.3-6.5-1-.9-1.7-1.9-2.3-3.1.6.5 1.2.9 1.8 1.4 3.5 3.1 7.2 6.1 11.7 8.7-1.2.1-1.7-.4-2.3-.8-.7-.4-1.3-.8-2.1-1.1.5.8 1 1.5 2.2 1.8 0 .1 0 0 0 0z"/><path id="XMLID_272_" class="st0" d="M63.4 29.3l.3 1.8c.3 1.3.6 2.7.9 4 0 .1-.1.2-.3.6-1.1-2.4-1.3-4.6-2-7.2.6.5.8.7 1.1.8z"/><path id="XMLID_271_" class="st0" d="M14.7 73.8c.2.1.3.2.5.4.2.3.4.7.7 1 .8 1.1 1.7 2.1 2.5 3.2-1.9-1.3-3.1-2.9-4.6-4.6.5-.1.7-.1.9 0z"/><path id="XMLID_270_" class="st0" d="M45.1 67.6c-1.9-.6-3-1.8-4.3-2.9 2.1.4 3.1 1.8 4.3 2.9z"/><path id="XMLID_269_" class="st0" d="M116.7 274.2c.1.2.2.3.4.5.3-.3.6-.5 1-.8-.2 1.6-1.5 2.4-3.1 2.9.6-.9 2-1.5 1.7-2.6 0-.1 0 0 0 0z"/><path id="XMLID_268_" class="st0" d="M75.7 33.5c-.2-1-.4-2-.5-3h.4c0 1 .1 2 .1 3z"/><path id="XMLID_267_" class="st0" d="M61.9 22.6c-.1-.2-.2-.4-.2-.6 0-.6 0-1.1.2-1.7v2.3z"/><path id="XMLID_266_" class="st0" d="M7.1 67.8c.3.1.6.2 1 .3.2.3.3.7.5 1-1.1-.1-1-.9-1.5-1.3z"/><path id="XMLID_265_" class="st0" d="M23.6 48.4c-.3-.5-.5-1-.8-1.4.1 0 .2-.1.3-.1.3.5.6.9.9 1.4-.1 0-.3 0-.4.1z"/><path id="XMLID_264_" class="st0" d="M27.9 76c-.4-.4-.8-.8-1.3-1.2.9.2 1.3.6 1.3 1.2z"/><path id="XMLID_263_" class="st0" d="M113.9 77.3c-.1-.5-.1-.9-.2-1.4h.3c0 .5 0 .9-.1 1.4z"/><path id="XMLID_262_" class="st0" d="M110 86.5c-.1-.5-.1-.9-.2-1.4h.2v1.4z"/><path id="XMLID_261_" class="st0" d="M27.6 103c-.2-.2-.5-.4-.7-.6l.1-.1c.3.2.5.4.8.6 0 0-.1.1-.2.1z"/><path id="XMLID_260_" class="st0" d="M11.2 81.5c-.4-.3-.9-.6-1.3-.9.1-.1.3-.2.4-.2.3.4.6.8.9 1.1z"/><path id="XMLID_259_" class="st0" d="M114.4 74v.6h-.1c0-.2 0-.4.1-.6-.1-.1-.1 0 0 0z"/><path id="XMLID_258_" class="st0" d="M136 44.6c.2-.3.3-.6.5-.9.1 0 .2 0 .2.1-.2.3-.3.6-.5.9 0 0-.1 0-.2-.1z"/><path id="XMLID_257_" class="st0" d="M34.6 50.5c.6 1.1 1.3 2.3 1.9 3.4.2.4.4.9.5 1.4-1-1.4-2-2.7-3-4.1-.3-.4-.5-.9.1-1.3.3.1.4.4.5.6z"/><path id="XMLID_256_" class="st0" d="M79.3 128.8c2.5 3.4 3.7 7.2 4.5 11 .9 4.3 1.6 8.7 2.4 13 0 .1 0 .3-.2.5-.3-.7-.6-1.5-.8-2.2-.2-.8-.3-1.6-.5-2.5-.7-3.4-1.2-6.8-2.1-10.2-.7-2.7-1.9-5.2-2.9-7.9-.2-.6-.2-1.2-.4-1.7.1 0 0 0 0 0z"/><path id="XMLID_255_" class="st0" d="M74.5 133.3c.5.5 1.1 1 1.4 1.6 1.3 2.2 2.4 4.5 3 6.9.7 3 1.4 5.9 2.1 8.9.1.3 0 .6-.1.9-2.1-6.1-3.2-12.4-6.4-18.3z"/><path id="XMLID_254_" class="st0" d="M89.9 173c-1.9-5.4-2.9-11-6.4-16.4 1.6.6 2.2 1.5 2.6 2.5 1.6 3.6 3 7.2 3.4 11.1 0 .9.2 1.8.4 2.8z"/><path id="XMLID_253_" class="st0" d="M77.8 148c-2.3-5.5-4.4-10.9-7.3-16.3 4 5.1 6.1 10.6 7.3 16.3z"/><path id="XMLID_252_" class="st0" d="M84.7 115.3c-.7 2.3-1.3 4.4-1.9 6.5 0 .1-.2.2-.3.3-1-1.8.1-5.2 2.2-6.8z"/><path id="XMLID_251_" class="st0" d="M95.6 162.4c-.3-4.6.1-9.1.9-13.6.1 4.6-.1 9.1-.9 13.6z"/><path id="XMLID_250_" class="st0" d="M101.8 162.4c1.4-.7 2.6-1 4.3-.3 2.3 1 3.8 2.3 4.8 4.1 2 3.7 2.5 6.3 1.8 10.7-.3-1.9-.4-3.5-.9-5.1-.7-2.2-1.6-4.3-2.9-6.3-1.3-2-3.7-3.2-7.1-3.1z"/><path id="XMLID_249_" class="st0" d="M79.5 161.1c.1 1.1.2 2.1.4 3.2-1.8-3.7-2.6-7.7-5.1-11.5 1.2.6 1.6 1.2 1.9 1.8.9 2.1 1.8 4.3 2.7 6.4l.1.1z"/><path id="XMLID_248_" class="st0" d="M101.3 131.7v-7c1.6 1.4 1.7 4.3 0 7z"/><path id="XMLID_247_" class="st0" d="M64.8 116.2c3.1.2 4.7 1.8 6.4 3.7v-3h.5c.6 2.4 1.3 4.8 1.9 7.2-.6.1-1.1.1-1.8.2-1.4-3-2.6-6.3-7-8.1z"/><path id="XMLID_246_" class="st0" d="M135.1 67.6c1.8-1.5 3-3.2 5.7-4.4-1.7 2.3-4.1 4.2-5.7 4.4z"/><path id="XMLID_245_" class="st0" d="M96.9 47.2c-1.2-.9-2.5-3.4-2.9-5.3 1.3.9 2.8 3.5 2.9 5.3z"/><path id="XMLID_244_" class="st0" d="M65.5 49.2c2.1 1.3 2.7 3.2 4 5-1.4-.5-2.7-2-4-5z"/><path id="XMLID_243_" class="st0" d="M28.8 89.9c-1.5-.8-3-1.7-4.5-2.5 2.2.2 3.4 1.3 4.9 2.2-.1.1-.2.2-.4.3z"/><path id="XMLID_242_" class="st0" d="M134.8 117.8c-.8 1.2-2.2 1.8-4 2.1 1.4-.7 2.3-1.8 4-2.1z"/><path id="XMLID_241_" class="st0" d="M71.3 41.4c1.4 2.3 1.3 4.7 0 7.1-.1-.7-.1-1.2-.2-1.7-.1-1.3-.2-2.5-.2-3.8 0-.5.3-1.1.4-1.6z"/><path id="XMLID_240_" class="st0" d="M72.9 43.7c1.3 1.1 1.3 3.3 0 5.3-.5-.9-.4-3.5 0-5.3z"/><path id="XMLID_239_" class="st0" d="M135.2 57.5c.5-.9 1.1-1.7 1.8-2.8.5 1.1.1 1.8-.2 2.5-.3.7-.5 1.5-.8 2.2-.3.8-.6 1.5-.9 2.3-.1 0-.3 0-.4-.1.2-1.3.4-2.7.5-4.1z"/><path id="XMLID_238_" class="st0" d="M135.3 57.4c-.4 1.1-.8 2.2-1.2 3.4-.2.5-.3.9-.5 1.6-.9-2.1-.2-4.5 1.6-5.6 0 .2 0 .4.1.6-.1.1 0 0 0 0z"/><path id="XMLID_237_" class="st0" d="M101.7 38.1c-.5 1.2-.9 2.4-1.4 3.5-.1 0-.3 0-.5-.1 0-.5.1-1 .1-1.5.2-1.3.3-2.6.6-3.9.1-.5.3-1 .7-1.4.6 1.3.7 2.4.5 3.4z"/><path id="XMLID_236_" class="st0" d="M101.7 38.2c.2-.3.4-.7.6-1.1 1.2 1.2.8 3.4-1 5.6-.2-1.1.2-2 .3-2.9.1-.5.1-1.1.1-1.6 0-.1 0 0 0 0z"/><path id="XMLID_235_" class="st0" d="M44.5 57.9c.2.3.4.7.7 1 .1.2.3.4.4.4 1.8 0 1.7.9 1.8 1.8.1.7 0 1.3 0 2.3-1.1-1-.8-2.1-1.5-3.2v2.6c-.9-1.6-1.6-3.1-1.8-4.7.1-.2.3-.2.4-.2z"/><path id="XMLID_234_" class="st0" d="M28.2 83.1l.3 1.8c-1.4-1.4-2.3-3-2.8-4.7.6.5 1.1 1.1 1.7 1.6.3.5.6.9.8 1.3z"/><path id="XMLID_233_" class="st0" d="M28.2 83.1c-.2-.4-.5-.9-.7-1.3.1-.1.2-.3.4-.4.4.3.9.5 1.1.8.5.9 1.1 1.8.8 3.2-.7-.9-1.1-1.6-1.6-2.3z"/></g></svg>