<svg id="Warstwa_1" xmlns="http://www.w3.org/2000/svg" viewBox="0 0 61.8 75.2"><style>.st0{fill:#fff}</style><path id="XMLID_3_" class="st0" d="M45.8 3.2c-2.3.7-3.3 1.9-3.7 2.1-.5.5-.9 1.2-1.2 1.7-.3-.1-.6-.2-1.1-.3 1.1-1.7 4.4-5.4 10.9-4 4 .7 5.7 2.3 7 3.9-.6-.6-1.2-1-2.5-1.8-1.8-1.2-6.1-2.5-9.4-1.6m-3.4 5.6H44c.7-.2 1.6-.5 1.6-.5s-.3 1-1.7 1.6c-.2 0-.2 0-.5.2-.4.2-.7 0-.7 0l-.4-1.2h.1zm-4.1-.7h-.7s-.2.5-.7.5l-.2.2c-.4 0-.5-.2-.9-.3 0-.2.5.2.7.2.2 0 .4-.2.4-.2v-.4c-.2 0-.9 0-1.2.2-.4 0-1.1.2-1.4.2H34v-.2s.2 0 1-.2c.2 0 .9-.2 1.9-.4h.7c.7.2 2.1.2 2.1.2l.2.3c-.1.1-1.3-.1-1.6-.1zM48.9 2c-5.8-.5-8.7 3.7-9.1 4-.2.2-.3.4-.5.7h-.7c-.5 0-1.2.2-1.7.2-2.3.2-4.9.7-5.9 1-.7 0-1.2.7-1.2.9-.1.2.1.2.1.2l1.2-.2V9h-.4c-1.6.3-1.7 1.2-1.4 1.4.2 0 2.4-.3 2.6-.3v.3c0 .2.2.3.2.3h-.3l-.2-.2h-2.1c-.2 0-.2.4-.3.7-.2.7 0 1.4.5 1.6.3.2.5.2.7 0 .2-.2.7-.2.9-.4 0 .2.4.7-1 1.4-.7.2-1 .2-1 .2s.5.5 1.2.5h.2c1 0 2.4-.7 2.4-2.1l1.7-.2c0-.2-.2-.5-.2-.5l-1.9-.2v-.3h2.6v.5c.2.7.5 1.7 1.6 2.3.5.2 1 .3 1.7.3 1.9-.2 2.3-2.1 2.3-2.1h.1s-.2 2.1-2.3 2.6H37.4s-.3 0-.4-.1l-.2-.1s-.1-.1-.2-.1c-.2-.1-.1-.1-.3-.2 0 0-.2-.1-.4-.3-.3-.3-.6-.5-.6-.5l-.4.5s-1.4 1.2-3.1 1.4c-1.9.3-4.2 1.2-5.6 2.1-.5.3-.9.7-1.3 1-1.4-2.4-3.6-5.5-4-5.9-.3-.5-1.4-1-1.9-1-.4-.2-7.2.2-8.7.3-.4 0-.9.4-1 .4-.2.2-.5.5-1.1.7 0 .2-.2.2-.2.4h-.1l-1.7.4s-.9 0-1 .5c0 .3.8.3 1.1.3-.1.1-.1.2-.2.2-.3.2-.3.4-.3.5.2.2.3.7 1.6 1 1 .4 2.1.2 2.1.2 1.4-.2 1.6-2.3 1.7-2.4.2.2.5.2.7.3 0 .2-.2.2-.2.7 0 .3.2.5.2.7l.5-.7v.3s.5-.7.7-1c0-.3-.3-.5-.3-.7.9.2 5.4.7 5.4.7s.9.2 1.2.9c.4.7 1.2 3.1 2.1 5.9.1-.1 1.6-1 2.7-1.7l-.1.1c.2-.2.7-.4 1.2-.5.7-.3 1-.3 1.6-.5.5-.2.5-.2 1.2-.5-.2.4-.4.7-.9 1-.3.2-2.4.7-3 1.1-1.4.9-1.7 2.1-1.7 2.1s.5-.4 1.1-.5c.9-.4 1.4-.4 2.1-.7.5-.2 1.4-.5 1.4-.5s-.2.9-1.4 1.2c-1.4.5-1.7.5-2.6 1.2-.3.2-.5.5-.5.5l-6.1-.5s-1.6-.2-1.9 0c-.3 0-1 .3-1.4.5v.2c-2.1.5-5.6 1.6-6.6 1.9-.3.2-.9.5-.9.5 0 .3-.3.7-.7 1-.2 0-.2.2-.2.2h-.4l-1.6.9s-1.1.3-1.1.7c0 .3 1.4 0 1.4 0-.1.1-.1.3-.3.3-.4.3-.4.5-.2.5.2.4.5.7 1.7.7 1 0 1.7-.3 1.9-.3 1.2-.5 1-2.4 1-2.6.3 0 .7-.2.7.2.2.2 0 .2 0 .7.2.4.3.5.5.5 0 0 .2-.7.3-.7v.2s.4-.7.4-1c0-.3-.4-.5-.4-.5.9-.2 5.8-.7 5.8-.7.4 0 .7-.2.7-.2l10.1 3.7s.3.2.7 0c.2 0 1.6-1 1.9-1.2l.2.4-1.7 1.7c-.3.3-1.6-.2-1.6-.2L20.4 29c-.4 1.4-.5 4.5 4 9.8 3.7 4.2 3.5 3.5 5.4 5.9.4.5.2.9.2.9s.9-1 .9-2.8c0-.5.5.2.3 1.6-.2.7-1 1.4-1 2.6.2 1.4-.4 1.6.7 4.7.3 1.2 2.1 2.4 3.3 3.1.5.2 1.9 1 2.4 1.2.9.4 1.7.5 2.3 1.1.9 1 .9 1.9 1.4 3.8.7 1.9.5 2.8.4 4.4-.2 1.4-.9 2.4-.9 2.6-.2.2.9-.2.5.2-.2.3-.9.7-1.4 1-.5.5-2.3 3.5-2.1 3.8 0 .3.7 0 1.2-.4.5-.3 1-.5 1-.5s.2.5 0 1c-.2.4-.2 1.1.7.7 0 0 .3-.2.5-.2.5.2 1-.3 1.4-.5.3-.2.9-.7 1.2-1.2.5-.3.5-.9.5-1.2 0-.4-.5-1.8-.5-2.1 0-.4 0-1 .5-1.6l.2-.2 1.2-1.2c.7-.3.5-.3.4-.9-.4-.5-.7-1.2-1.2-1.9-.2 0-.2-.2-.3-.4-.4-.7-.7-2.3-.9-3-.2-.9.2-2.3.5-3 .2-.5.4-.7.4-.9 0-.2-.2-.3-.5-.5-.4-.4-1.4-.5-1.9-1.1-3.8-3.1-3.8-7.2-3.1-7.7 1-.7 1.9.2 2.1.5.4.5.5.9.7 1.6.7 1.4 2.4 1.4 2.6 1.4 0 .2.2.2.2.2h.7l-.7-.7v-.2l-.5-.7s.2.2.5.2c.5.2 1 .2 1.4.3 1.4.2 2.6-.7 2.6-.7s-2.3-.2-3.7-1.4c-.2 0-.2-.2-.3-.2-.9-.9 0-1.7-2.3-3.1-1.4-.7-1.9.9-2.4-2.3-.2-.3-1.2-2.8-2.3-5.8-.4-.9-.5-1.9-.9-2.8-1.1-4.7-.3-6.5-.3-6.5h.2s.4-.4 1.1-1c1.6-1.6 4.9-5.1 5.9-8.9.5-2.1.2-4.9.2-4.9s.5 0 .9-.2c.3 0 .9 0 1-.2 1.2-.5 1.4-1 1.4-1h-.8s.2 0 .2-.2c1.6-1.6 2.1-4.2 2.1-4.2s-.9.7-1.2 1.1c-1 .5-1.9.7-2.6.7h-1.2c-.4.1-.6.2-.8.2.4-.6 1-1.3 1.9-2 .5-.3 1.4-.7 1.9-1C52.5 2 56.8 6 58.5 7.5c.2.2.4.5.4.5l.3.3C57.6 5.8 55.3 2.7 48.9 2z"/><path id="XMLID_2_" class="st0" d="M28.5 54.1c-3-7.2.9-7.8.9-7.8 0-.2.2-.9-.3-1.6-1.2-1.4-3.1-3.3-3.1-3.3s-3.7 2.8-4.4 5.4c-.4 1.6-.5 3.3 1.7 6.6.5 1 1.9 1.4 2.4 2.4.4 1.2 0 1.9 0 3.8 0 1.7-.5 2.6-1 3.7-.7 1.2-1.6 1.9-1.7 2.1 0 .2.9 0 .5.2-.2.4-1.1.4-1.6.5-.3.2-1.7 1.2-2.4 2.1-.3.2-.7.9-.9 1-.3.5-.7.9 4.2 1.1.2 0 1.1-.2 1.7-.5.5-.2.5-.7.7-.9.2-.4.2-1.7.4-2.1 0-.2.2-.7.9-1.1.7-.3.9-.5 1.6-.7.7-.2.5-.4.5-.7 0-.5-.2-1.2-.5-2.1-.2-.7 0-2.4.2-3.1.2-.9.9-1.9 1.4-2.3.4-.5.5-.7.5-.9 0 0 0-.2-.2-.5-.3-.2-1.2-.7-1.5-1.3"/></svg>