<svg id="Warstwa_1" xmlns="http://www.w3.org/2000/svg" xmlns:xlink="http://www.w3.org/1999/xlink" viewBox="0 0 841.9 595.3"><style>.st0{fill:#fff}.st1{fill:#b8162c}.st2{opacity:.4}.st3{clip-path:url(#SVGID_2_);fill:url(#SVGID_3_)}.st4{clip-path:url(#SVGID_5_);fill:url(#SVGID_6_)}.st5{opacity:.5}</style><path class="st0" d="M419.5 168.9c-44.7 5.1-90.7 10.3-136.3 14.8v-25.6l-11.7 1.2c-90.6 9.4-159.9 14-225 15l-11.1.2.7 11.5c5.2 89.6 7.7 197.8 4.2 249.2-.8 11.8-7.2 27-9.8 32.9 0 0 3.3.4 15.5 1 6.6.4 16.1.4 29.6-.5-.6 4.2-3 21.5-3 21.5l12.4.1c113.1-1.6 226.8-14.7 336.9-27.3 43.7-5 88.7-10.1 133.3-14.5v25.3l11.7-1.2c90.8-9.4 160.1-14.1 225-15l11.3-.2-.8-11.6c-4.5-63.1-13.4-234.3-.7-267.3l6.1-15.9-17.1 1s-24.7 1.4-25 1.4c.7-5.3 2.9-23.2 2.9-23.2l-12.3-.1c-113.1 1.7-226.8 14.7-336.8 27.3"/><path class="st1" d="M272.6 169.9c-75.1 7.8-150.3 13.9-225.9 15 0 0 14.4 248.4 0 272.2 7.2 3.4 150.8-7.2 225.9-15V169.9z"/><path class="st2" d="M272.6 169.9c-75.1 7.8-150.3 13.9-225.9 15 0 0 14.4 248.4 0 272.2 7.2 3.4 150.8-7.2 225.9-15V169.9z"/><path class="st1" d="M565.8 461.2c75.1-7.8 150.2-14 225.9-15 0 0-16.4-229.6 0-272.1-6.8.7-150.8 7.3-225.9 15v272.1z"/><path class="st2" d="M565.8 461.2c75.1-7.8 150.2-14 225.9-15 0 0-16.4-229.6 0-272.1-6.8.7-150.8 7.3-225.9 15v272.1z"/><path class="st1" d="M756.4 424.4c-225.1 3.2-446.4 51.2-671.6 54.4 16.5-101.1 0-181.4 0-272.1 225.1-3.2 446.4-51.2 671.6-54.4-15.7 106.9 0 181.3 0 272.1"/><defs><path id="SVGID_1_" d="M703.2 180.7c-142 6-518.8 68.7-568.1 53.8 78.3-9 565.3-80.7 568.1-53.8"/></defs><clipPath id="SVGID_2_"><use xlink:href="#SVGID_1_" overflow="visible"/></clipPath><linearGradient id="SVGID_3_" gradientUnits="userSpaceOnUse" x1="412.318" y1="303.032" x2="418.73" y2="303.032" gradientTransform="matrix(105.63 -8.2209 1.5341 19.7118 -43977.18 -2352.633)"><stop offset="0" stop-color="#dda44f"/><stop offset=".06" stop-color="#b07a39"/><stop offset=".17" stop-color="#ebbe6b"/><stop offset=".24" stop-color="#f2d67d"/><stop offset=".27" stop-color="#f9ec8e"/><stop offset=".31" stop-color="#ebc86e"/><stop offset=".38" stop-color="#dda44f"/><stop offset=".45" stop-color="#b07a39"/><stop offset=".5" stop-color="#ebbe6b"/><stop offset=".61" stop-color="#f9ec8e"/><stop offset=".67" stop-color="#d1b25c"/><stop offset=".8" stop-color="#a87c35"/><stop offset=".9" stop-color="#dda44f"/><stop offset="1" stop-color="#dda44f"/></linearGradient><path class="st3" d="M138.5 293.4l572.1-44.6-10.8-139-572.1 44.6z"/><defs><path id="SVGID_4_" d="M703.2 401.9c-142 6-518.8 68.7-568.1 53.8 78.3-9 565.3-80.7 568.1-53.8"/></defs><clipPath id="SVGID_5_"><use xlink:href="#SVGID_4_" overflow="visible"/></clipPath><linearGradient id="SVGID_6_" gradientUnits="userSpaceOnUse" x1="412.186" y1="312.43" x2="418.598" y2="312.43" gradientTransform="matrix(105.6297 -8.2205 1.5339 19.7101 -43977.48 -2317.414)"><stop offset="0" stop-color="#dda44f"/><stop offset=".06" stop-color="#b07a39"/><stop offset=".17" stop-color="#ebbe6b"/><stop offset=".24" stop-color="#f2d67d"/><stop offset=".27" stop-color="#f9ec8e"/><stop offset=".31" stop-color="#ebc86e"/><stop offset=".38" stop-color="#dda44f"/><stop offset=".45" stop-color="#b07a39"/><stop offset=".5" stop-color="#ebbe6b"/><stop offset=".61" stop-color="#f9ec8e"/><stop offset=".67" stop-color="#d1b25c"/><stop offset=".8" stop-color="#a87c35"/><stop offset=".9" stop-color="#dda44f"/><stop offset="1" stop-color="#dda44f"/></linearGradient><path class="st4" d="M138.5 514.6L710.6 470l-10.8-139-572.1 44.5z"/><path class="st5" d="M185.3 295.9l-11.7 1.1-6.9 54.6c28.5-6.1 44-23.5 42.5-40.9-1-11.8-8.8-16.1-23.9-14.8M165 370.3l-2.9 22.3c-.5 3.1-.5 5.2-.4 6.6.3 3.8 2.3 4.6 7.1 4.6l-1 9.5-48.6 4.5 1-9.5c6-1.5 8.4-4.8 9.4-12.4l11.8-93.7c.5-3.1.5-5.2.4-6.6-.3-3.8-2.1-4.6-6.9-4.6l1.1-9.5 61.8-5.7c26.7-2.4 42.2 8.1 43.7 25.5 2.8 34.4-23 58.3-76.5 69zm191.4-79.1l-10.2.9c-.9-10.1-6-11-19.4-9.8l-37.1 3.4-4.5 34.8 31.5-2.9c8.2-.8 12.4-1.3 15.5-9.5l9.1-.8-4.5 37.1-9.1.8c-1-7.8-4-9.1-12.3-8.3l-32.3 3-5.4 43.3 44.9-4.1c11.5-1.1 17.4-4.3 20.3-14.2l9.7-.9-3.8 32.2-113.9 10.4 1-9.5c6.8-2 8.3-5.2 9.2-12.4l11.9-94.1c.3-2.7.5-4.7.4-5.8-.3-3.8-2.3-5-7.2-5.3l.9-9.1 109.1-10-3.8 30.8zm74.3-18.9l-14.8 1.4-4.9 41 14.8-1.4c21.9-2 32.2-11.1 30.7-27.7-.9-10.9-9.3-14.8-25.8-13.3m29.2 52.2l19.6 40.6c2.7 5.5 6.7 8.3 11.9 7.8l-1.3 10.5-37.3 3.4-24.9-55-19.7 1.8-4.5 36.5c-.3 2.7-.3 5-.2 6.6.3 3.8 1.9 4.7 6.9 4.6l-.9 9.5-48.6 4.5 1-9.6c6-1.5 8.4-4.8 9.4-12.4l11.8-93.7c.5-3.1.5-5.3.4-6.6-.3-3.8-2.1-4.6-6.9-4.6l1-9.5 60.9-5.6c33.8-3.1 50.8 3.5 52.7 25.6 1.5 17.9-9.6 35.3-31.3 45.6zM596.2 374l-97.4 8.9 1.1-9.3c6.7-2 8.1-5.2 9-12.4l4.3-32.8-10.7 8.5 3-23.6 10.9-8.1 4.6-38c.3-2.7.5-4.7.4-5.8-.3-3.8-2.3-5-7.2-5.3l.9-9.3 48.6-4.5-.9 9.5c-6 1.5-8.4 4.8-9.2 12.4l-2.5 21.2 25.3-18.7-3.2 23.6-25 18.1-6.7 51 28.4-2.6c12.6-1.2 18-3.2 21.1-15.2l9.3-.9-4.1 33.3zm77.1-116.3l-18.9 45.7 28.2-2.6-9.3-43.1zm59.3 104.1l-48.1 4.4 1.4-9.6c5.3-1.3 7-3.7 6.5-9.1-.1-1.5-.7-4-1.4-7.4l-4.4-21-40.3 3.7-11.9 29.2c-.8 2-1.2 3.6-1.1 4.6.2 2.5 2 3.9 5.6 4.1l-1.2 9.8-38.2 3.5 1.1-9.6c6.1-1.5 7.8-4.6 9.9-9.2l54.6-122.1 32.5-3 28 112.6c1.4 5.7 3.3 8.4 8.1 9.3l-1.1 9.8z"/><path class="st0" d="M181.7 285l-11.7 1-6.9 54.6c28.5-6.1 44-23.5 42.5-40.9-1-11.8-8.8-16.1-23.9-14.7m-20.3 74.3l-2.9 22.3c-.5 3.1-.5 5.2-.4 6.6.3 3.8 2.3 4.6 7.1 4.5l-1.1 9.6-48.6 4.4 1-9.5c6-1.5 8.4-4.8 9.4-12.4l11.7-93.7c.5-3.1.5-5.2.4-6.6-.3-3.8-2.1-4.6-6.9-4.6l1-9.5 61.8-5.7c26.7-2.4 42.2 8.1 43.7 25.5 3.1 34.5-22.7 58.5-76.2 69.1zm191.4-79.1l-10.2.9c-.9-10.1-6-11-19.4-9.8l-37.1 3.4-4.5 34.8 31.5-2.9c8.2-.7 12.4-1.3 15.4-9.5l9.1-.8-4.5 37.1-9.1.8c-1-7.8-4-9.1-12.3-8.3l-32.3 3-5.4 43.3 45-4.2c11.5-1 17.4-4.3 20.3-14.2l9.6-.9-3.8 32.2-113.9 10.4 1-9.5c6.8-2 8.3-5.2 9.2-12.4l11.9-94.1c.3-2.7.5-4.7.4-5.8-.3-3.8-2.3-5-7.2-5.3l.9-9.1 109.1-10-3.7 30.9zm74.3-18.8l-14.8 1.4-4.9 40.9 14.8-1.4c21.9-2 32.2-11 30.7-27.7-.9-10.9-9.3-14.7-25.8-13.2m29.2 52.1l19.6 40.6c2.7 5.5 6.7 8.2 11.9 7.8l-1.3 10.5-37.3 3.4-24.9-55-19.7 1.8-4.5 36.5c-.3 2.7-.3 5-.2 6.6.3 3.8 1.9 4.7 6.9 4.6l-.9 9.5-48.6 4.5 1-9.6c6-1.5 8.4-4.8 9.4-12.4l11.8-93.7c.5-3.1.5-5.3.4-6.6-.3-3.8-2.1-4.6-6.9-4.6l1-9.5 60.9-5.6c33.8-3.1 50.8 3.4 52.7 25.6 1.5 17.9-9.6 35.3-31.3 45.6zM592.6 363l-97.4 8.9 1.1-9.4c6.8-2 8.2-5.2 9-12.4l4.3-32.8-10.7 8.5 3-23.6 10.9-8.1 4.6-38c.3-2.7.5-4.7.4-5.8-.3-3.8-2.3-5-7.2-5.3l.9-9.3 48.6-4.4-.9 9.5c-6 1.5-8.4 4.8-9.2 12.4l-2.5 21.2 25.3-18.7-3.2 23.6-25 18.1-6.6 50.9 28.4-2.6c12.6-1.2 18.1-3.2 21.1-15.2l9.3-.9-4.2 33.4zm77.2-116.3l-18.9 45.7 28.2-2.6-9.3-43.1zm59.3 104.1l-48.1 4.4 1.4-9.6c5.3-1.3 7-3.7 6.5-9.1-.1-1.5-.7-4-1.4-7.4l-4.4-21-40.3 3.7-11.8 29.3c-.8 2-1.2 3.6-1.1 4.5.2 2.5 2 3.9 5.6 4.1l-1.2 9.8L596 363l1-9.5c6-1.5 7.8-4.6 9.9-9.2l54.6-122.1 32.5-3 28 112.6c1.4 5.7 3.3 8.4 8.1 9.3l-1 9.7z"/></svg>