<?xml version="1.0" encoding="utf-8"?>
<!-- Generator: Adobe Illustrator 19.2.0, SVG Export Plug-In . SVG Version: 6.00 Build 0)  -->
<svg version="1.1" id="Warstwa_1" xmlns="http://www.w3.org/2000/svg" xmlns:xlink="http://www.w3.org/1999/xlink" x="0px" y="0px"
	 viewBox="0 0 455.9 794" style="enable-background:new 0 0 455.9 794;" xml:space="preserve">
<path d="M332.3,674.9c-0.2-20.2-0.6-40.3-0.7-60.5c-0.3-89-1.6-178,1-266.9c0.7-18.4-3.1-36.6-11-53.2
	c-8.1-16.5-23.1-29.1-30.4-45.9c-12.2-28-13-59-15.7-88.7c-2.9-33.1-9.3-65.9-12.4-99c-0.4-4.6,1.1-9,1.1-13.6
	c0-3.9-1.9-8.4-0.2-12.2c5.7-12.5,0.4-23.9-14-24.4c-7.4-0.3-14.8-0.4-22.1-0.4c-7.4,0-14.8,0.1-22.1,0.4c-14.4,0.6-19.7,12-14,24.4
	c1.6,3.7-0.2,8.3-0.2,12.2c0,4.5,1.5,9,1.1,13.6c-3.1,33.1-9.4,65.9-12.4,99c-2.6,29.7-3.6,60.7-15.7,88.7
	c-7.3,16.8-22.3,29.4-30.4,45.9c-8,16.6-11.7,34.8-11,53.2c2.7,88.9,1.3,177.9,1,266.9c0,20.2-0.5,40.3-0.7,60.5
	c-0.2,20.6-2.6,41.8,1.6,62.1c1.4,6.6,3.4,13.1,6.1,19.3c5.2,11.7,17,18.1,29.9,21c21.6,4.9,44.6,6.5,66.8,6.7
	c22.3-0.1,45.3-1.7,66.8-6.7c12.9-2.9,24.7-9.3,29.9-21c2.7-6.2,4.8-12.7,6.1-19.3C334.9,716.7,332.5,695.5,332.3,674.9z"/>
</svg>
