<?xml version="1.0" encoding="utf-8"?>
<!-- Generator: Adobe Illustrator 19.0.0, SVG Export Plug-In . SVG Version: 6.00 Build 0)  -->
<svg version="1.1" id="Warstwa_1" xmlns="http://www.w3.org/2000/svg" xmlns:xlink="http://www.w3.org/1999/xlink" x="0px" y="0px"
	 viewBox="0 0 102.5 119" style="enable-background:new 0 0 102.5 119;" xml:space="preserve">
<style type="text/css">
	.st0{fill:#FFFFFF;}
	.st1{fill:#2B2523;}
</style>
<g id="XMLID_357_">
	<path id="XMLID_537_" d="M62.5,13.8c1.9-0.2,3.6-0.2,5.4,0.2c1.8,0.4,3.3,1.2,4.6,2.4c0.2,0.2,0.5,0.5,0.7,0.7
		c0.9,1.3,2.1,2.2,3.5,3c0.8,0.5,1.5,1.1,2.1,1.9c0.6,0.8,0.8,1.6,0.4,2.5c-0.3,0.7-0.3,1.3-0.2,2c0.2,1,0.3,2-0.2,2.9
		c1,1,1.8,2.1,2.1,3.5c0.3,1.6-0.2,2.8-1.6,3.6c-0.4,0.2-0.8,0.5-1.3,0.6c-0.4,0.2-0.9,0.2-1.4,0.4c-0.4,0.7-0.3,1.4-0.3,2.2
		c0.4,0.1,0.7,0.3,1,0.3c1.3,0.1,2.6,0.3,3.8,0.4c4.1,0.3,7.8,1.7,11.2,3.9c0.9,0.5,1.4,1.2,1.7,2.2c0.8,2.6,1,5.2,0.7,7.8
		c-0.5,4-1.1,7.9-1.7,11.8c-0.4,2.9-1,5.7-1.8,8.5c-0.6,2.3-0.9,4.6-1.6,6.9c-1.3,4.2-3.8,7.4-8.1,8.9c-1.7,0.6-3.5,0.6-5.2,0.4
		c-1.5-0.2-3.1-0.3-4.6-0.1c-1.3,0.1-2.6,0.1-3.8,0.1c-0.3,0-0.7,0.1-1,0.1c-0.9,1.6-0.9,3.5-1.3,5.1c-0.2,1-0.4,2-0.6,3
		c-0.3,1.1-0.8,1.9-2,2.3c-1.1,0.4-1.8,1.2-2,2.5c-0.3,1.7-0.4,3.5-1.5,5.3c-0.2,0.1-0.7,0.4-1.2,0.6c-2.8,1.1-5.6,1.9-8.6,2.2
		c-4.5,0.4-8.9-0.1-13.3-0.9c-3-0.5-5.9-1.3-8.9-2c-0.4-0.1-0.8-0.3-1.2-0.3c-2.9-0.3-5.5-1.4-8.1-2.4c-2.8-1.1-5.3-2.6-7.5-4.8
		c-0.3-0.4-0.6-0.8-0.6-1.3c0-1.3,0-2.6,0-3.8c0-0.8,0-1.6,0-2.4c-2.7-2.2-3.1-5.2-3-8.3c0.1-3.4,0.4-6.8,0.6-10.1
		c0.2-2,0.5-4,0.8-6c0.4-3,0.9-6,1.3-9c0.2-1.1,0.3-2.1-0.1-3.2c-0.3-1.1-0.1-2.1,0.4-3.1c0.3-0.5,0.5-1.1,0.8-1.6
		c0.5-1,0.8-2-0.1-3c-0.2-0.2-0.2-0.6-0.3-0.9c-0.3-3.1-0.6-6.2-1-9.3c-0.1-0.8-0.2-1.6-0.5-2.4c-0.4-1.1-0.4-2.1-0.1-3.2
		c0.1-0.3,0.2-0.7,0.3-1c0.3-0.9,0.3-1.7-0.2-2.6c-0.5-0.9-0.6-1.8-0.3-2.7c0.3-1.1,0.2-2.2-0.2-3.2c-0.5-1.2-0.3-2.4,0.3-3.5
		c0.7-1.3,1.3-2.5,2.1-3.7c0.6-1,1.4-1.8,1.8-2.9c1.8-1.7,2.5-4,4-5.8c1.4-1.9,3.3-3.2,5.5-4c1.6-0.6,3.2-0.5,4.7,0.3
		c0.6,0.3,1.1,0.3,1.7,0c1.2-0.6,2.4-1.2,3.7-1.6c3.5-1.1,6.8-0.6,9.7,1.9c0.6,0.5,1.3,1,1.8,1.6c1.2,1.3,2.7,1.8,4.3,1.9
		c0.6,0.1,1.2,0.2,1.8,0.3c1.1,0.2,2,0.7,2.8,1.6c0.9,1.2,2.1,1.6,3.6,1.4c0.2,0,0.4-0.1,0.6-0.1C59,11.6,61,11.9,62.5,13.8z
		 M27.6,46.7c-0.5-0.5-0.3-1,0.1-1.3c1.2-1.2,1.7-2.7,2.1-4.3c0.7-2.6,1.9-4.9,4.2-6.5c0.8-0.5,1.3-1.2,1.6-2
		c0.3-0.7,0.7-1.5,1.1-2.2c0.6-1.1,1.5-1.8,2.6-2.1c1-0.3,1.9-0.5,3-0.5c1.4,0,2.8,0,4.2-0.1c4.5-0.4,8.9-0.4,13.3,0.5
		c4,0.8,8,1.2,12,1.8c0.7,0.1,1.4,0,2,0.1c0.9,0.1,1.6-0.2,2.1-0.9c0.2-0.3,0.4-0.5,0.7-0.8c0.7-0.7,0.9-1.4,0.7-2.4
		c-0.2-0.7-0.2-1.5-0.1-2.2c0.3-1.4-0.3-2.2-1.4-2.8c-0.4-0.2-0.8-0.4-1.3-0.6c-1-0.5-1.8-1.1-2.3-2.2c-0.2-0.5-0.6-0.9-1-1.3
		c-1.6-1.6-3.6-2-5.8-1.9c-0.7,0-1.3,0.1-2,0.2c-1,0-1.9-0.2-2.5-1c-0.7-1-1.7-1.2-2.9-1.2c-0.9,0-1.8,0-2.6,0c-1.2,0-2.2-0.4-3-1.4
		c-0.9-1.3-2.3-1.8-3.8-2c-0.3,0-0.7,0-1-0.1c-1.8-0.3-3.5-0.9-4.8-2.4c-0.7-0.8-1.5-1.4-2.3-2C39,4,37.2,3.4,35.1,4
		c-1.7,0.5-3.3,1.2-4.8,2.1C29.2,6.8,28,6.9,26.9,6c-1.2-1-2.5-0.9-3.8-0.6C21,6,19.3,7.1,17.9,8.8c-1,1.3-1.9,2.6-2.6,4.1
		c-0.4,0.8-0.6,1.8-1.5,2.3c-0.1,0.1-0.2,0.2-0.2,0.3c0.1,0.8-0.5,1.2-0.9,1.7c-0.9,1.3-1.8,2.7-2.6,4.1c-0.5,1-0.8,2-0.4,3.1
		c0.4,1.3,0.4,2.5,0.1,3.8c-0.2,0.7-0.2,1.3,0.2,2c0.5,0.8,0.5,1.6,0.2,2.5c-0.2,0.4-0.2,0.9-0.4,1.4C9.6,35.1,9.7,36,10.1,37
		c0.5,1,0.7,2,0.8,3.1c0.1,1.6,0.5,3.1,1.4,4.4c0.5,0.8,0.6,1.6,0.4,2.5c-0.1,0.4-0.2,0.8-0.3,1.2c-0.2,0.6-0.2,1.2,0.2,1.7
		c0.6,0.9,0.4,1.8-0.1,2.7c-0.4,0.8-0.8,1.7-1.2,2.6c-0.3,0.7-0.5,1.4-0.3,2.3c0.4-0.2,0.6-0.3,0.8-0.5c0.9-0.9,1.9-1.8,2.6-2.8
		c0.8-1.1,1.7-2.3,1.5-3.9c-0.1-1.1,0.7-2,1.8-2.1c1.1-0.1,2.1,0,3.2,0.2c0.4,0.1,0.8,0.5,1,0.9c0.2,0.4,0.4,0.9,0.4,1.3
		c0.1,0.7,0.2,1.5,0.2,2.2c0.1,1.5,0.1,3,0.1,4.5c0,0.4-0.1,1,0.6,1.3c0.2-0.2,0.5-0.4,0.7-0.6c0.9-1.4,1.7-3,1.8-4.7
		c0.1-1.6,0.6-3,1.1-4.5c0.1-0.3,0.3-0.4,0.6-0.3c0,0.2,0.1,0.4,0,0.6c-0.3,1.7-0.6,3.5-0.9,5.2c-0.2,1.5-0.7,2.9-1.4,4.2
		c-0.3,0.5-0.6,0.9-1,1.3c-1,0.8-2.4,0.5-2.9-0.6c-0.5-1.2-0.9-2.4-0.9-3.7c0-1.2,0.1-2.4,0.1-3.7c0-0.7-0.1-1.5-0.2-2.1
		c-0.5-0.1-0.9-0.1-1.3-0.2c-1.5-0.3-1.9-0.1-2.1,1.2c0,0.3,0,0.5-0.1,0.8c-0.5,1.6-0.9,3.2-2.4,4.3c-0.7,0.6-1.3,1.3-2,2
		c-0.6,0.6-0.9,1.3-0.9,2.2c0,0.8,0,1.6,0,2.4c0,1,0,2-0.1,3c-0.2,2.4-0.4,4.8-0.6,7.3c-0.2,2.4-0.4,4.8-0.6,7.3
		c-0.2,2.4-0.4,4.9-0.7,7.3c-0.3,2.5,0.8,4.5,2.5,6.1c0.6,0.6,1.2,1.1,1.9,1.5c2.9,1.9,6,3.2,9.2,4.1c3.1,0.8,6.3,1.6,9.5,2.2
		c4.5,0.8,8.9,1.5,13.5,1.4c0.8,0,1.6,0,2.4,0c1.3-0.1,2.7-0.3,4-0.4c1.4-0.2,2.8-0.4,4.2-0.6c3-0.5,6.2-2.6,6.7-6.1
		c0.3-2.3,0.6-4.6,1-6.8c1.1-5.4,2.4-10.8,3.6-16.3c0.4-1.7,0.8-3.4,1-5.2c0.8-6.2,2-12.3,3.3-18.4c0.2-0.7,0.4-1.4,0.5-2.2
		c0.4-2.8,0.8-5.6,1.2-8.4c0-0.3,0-0.6,0-1.1c-0.7-0.1-1.4-0.2-2.1-0.2c-1.3-0.2-2.7-0.2-4-0.5c-2.4-0.4-4.8-0.9-7.2-1
		c-2.3-0.2-4.6-0.5-6.8-0.8c-1.3-0.2-2.7-0.2-4-0.5c-3.1-0.5-6.3-1.1-9.4-1.7c-1.1-0.2-2.1-0.3-3.2-0.2c-0.5,1.6-1.3,2.8-2.7,3.7
		c-0.9,0.6-1.5,1.5-2.1,2.4c-0.9,1.3-1.3,2.8-1.7,4.3C30.3,44.4,29.4,45.8,27.6,46.7z M74.7,49.8c-1.6,11.5-4,22.9-6.9,34.2
		c0.3,0.1,0.5,0.2,0.6,0.2c1.6-0.1,3.1-0.2,4.6-0.2c2.7,0.1,4.8-1,6.8-2.6c0.6-0.5,0.9-0.9,0.8-1.7c-0.1-0.7,0-1.3,0.2-2
		c0.7-3.9,1.5-7.7,2.1-11.6c0.9-5.1,1.7-10.3,2.5-15.4c0-0.2,0-0.4,0-0.7c-1.2-1.1-2.9-1-4.4-1.3C79.4,48.4,77,48.9,74.7,49.8z
		 M67.1,89.5c0.6,0.1,1.1,0.1,1.6,0.2c2,0.1,4,0.2,6.1,0.4c1.4,0.1,2.7,0.1,4,0c2.5-0.2,4.5-1.4,6-3.3c1.6-2,2.8-4.3,3.2-6.9
		c0.6-3.5,1.4-7,1.9-10.6c0.7-4.7,1.4-9.4,2-14.1c0.2-1.7,0.3-3.4,0.3-5.1c0-1.1-0.2-2.1-0.4-3.2c-0.2-0.9-0.7-1.6-1.5-2.1
		c-2.2-1.2-4.5-2.2-7-2.6c-2.2-0.3-4.4-0.6-6.6-0.8c-0.2,0-0.4,0.1-0.6,0.2c-0.3,1.9-0.6,3.7-0.8,5.6c0,0.1,0.1,0.3,0.1,0.5
		c0.6-0.1,1.2-0.2,1.8-0.2c1-0.1,2-0.3,3-0.2c1.9,0.1,3.8,0.3,5.5,1.2c1.1,0.6,2,1.4,2.4,2.6c0.3,0.9,0.4,1.9,0.4,2.8
		c-0.1,1.8-0.3,3.6-0.6,5.4c-0.3,2-0.7,4-1.1,6c-0.1,0.6-0.2,1.2-0.3,1.8c-0.7,3.1-1.4,6.2-2.1,9.3c-0.3,1.2-0.6,2.3-1,3.5
		c-0.3,1-0.9,1.9-1.7,2.4c-1.6,1-3.2,2-5.2,2.1c-2.5,0.2-5.1,0.4-7.7,0.7c-0.4,0-0.8,0.2-1.2,0.3C67.4,86.9,67,88.1,67.1,89.5z
		 M59.1,103.7c-0.4,0-0.8,0-1.1,0c-0.8,0.1-1.6,0.2-2.4,0.3c-1.9,0.2-3.9,0.4-5.9,0.5c-0.3,0-0.7,0.1-1,0.1
		c-2.8-0.3-5.7,0.3-8.5-0.6c-0.1,0-0.3,0-0.4,0c-1.3-0.1-2.7-0.2-4-0.4c-1.8-0.2-3.6-0.7-5.4-1c-4.4-0.9-8.9-1.9-12.9-4
		c-0.2-0.1-0.5-0.2-0.8-0.3c-1.3-0.3-2.4-1-3.4-1.7c-0.5-0.3-0.9-0.8-1.6-0.7c-0.1,0.5-0.2,0.9-0.2,1.4c-0.1,1.1-0.1,2.3-0.1,3.5
		c2.3,2.2,4.7,4.1,7.9,4.7c0.4,0.1,0.8,0.2,1.2,0.3c1.2,0.3,2.3,0.7,3.5,1c0.9,0.2,1.9,0.4,2.8,0.6c2.2,0.5,4.3,1.1,6.5,1.5
		c2.4,0.4,4.8,0.6,7.2,1c3,0.5,6.1,0.5,9.1,0.3c1.2-0.1,2.4-0.3,3.6-0.5c1.1-0.2,2.2-0.6,3.3-0.9c0.8-0.2,1.6-0.4,2-0.9
		c0.1-0.8,0.3-1.4,0.4-2C59.1,105.1,59.4,104.5,59.1,103.7z M38.9,30.3c1.2,0.2,2.3,0.5,3.4,0.6c4.1,0.4,8.2,0.8,12.3,1.2
		c1.9,0.2,3.9,0.2,5.9,0.4c3.5,0.4,7,0.8,10.5,1.3c1.6,0.2,3.2,0.3,4.8,0.2c1.9-0.2,2.4-1.1,1.8-2.9c-0.1-0.2-0.2-0.4-0.3-0.6
		c-0.6,0.1-1.2,0.1-1.7,0.3c-1.8,0.7-3.7,0.6-5.6,0.3c-0.9-0.2-1.9-0.4-2.8-0.5c-2.5-0.3-5.1-0.6-7.6-1.2c-1.4-0.3-2.8-0.6-4.2-0.7
		c-3-0.1-6.1-0.2-9.1,0.3c-0.9,0.2-1.7,0-2.6,0.1c-1,0-2,0-3,0.2C40,29.2,39.3,29.5,38.9,30.3z"/>
	<path id="XMLID_470_" class="st0" d="M27.6,46.7c1.7-0.9,2.7-2.3,3.2-4.1c0.4-1.5,0.9-3,1.7-4.3c0.6-0.9,1.2-1.8,2.1-2.4
		c1.4-0.9,2.3-2.1,2.7-3.7c1.1-0.1,2.1-0.1,3.2,0.2c3.1,0.7,6.2,1.2,9.4,1.7c1.3,0.2,2.7,0.3,4,0.5c2.3,0.3,4.6,0.6,6.8,0.8
		c2.4,0.2,4.8,0.6,7.2,1c1.3,0.2,2.7,0.3,4,0.5c0.7,0.1,1.3,0.2,2.1,0.2c0,0.4,0.1,0.8,0,1.1c-0.4,2.8-0.8,5.6-1.2,8.4
		c-0.1,0.7-0.4,1.4-0.5,2.2c-1.4,6.1-2.6,12.2-3.3,18.4c-0.2,1.7-0.7,3.5-1,5.2c-1.2,5.4-2.4,10.8-3.6,16.3c-0.5,2.2-0.7,4.5-1,6.8
		c-0.5,3.5-3.6,5.7-6.7,6.1c-1.4,0.2-2.8,0.4-4.2,0.6c-1.3,0.2-2.7,0.3-4,0.4c-0.8,0.1-1.6,0-2.4,0c-4.6,0.2-9-0.5-13.5-1.4
		c-3.2-0.6-6.4-1.4-9.5-2.2c-3.3-0.9-6.4-2.2-9.2-4.1c-0.7-0.4-1.3-1-1.9-1.5c-1.7-1.7-2.8-3.6-2.5-6.1c0.3-2.4,0.5-4.8,0.7-7.3
		c0.2-2.4,0.4-4.8,0.6-7.3c0.2-2.4,0.4-4.8,0.6-7.3c0.1-1,0.1-2,0.1-3c0-0.8,0-1.6,0-2.4c0-0.8,0.3-1.6,0.9-2.2c0.7-0.7,1.2-1.5,2-2
		c1.5-1.1,2-2.7,2.4-4.3c0.1-0.3,0-0.5,0.1-0.8c0.2-1.4,0.6-1.6,2.1-1.2c0.4,0.1,0.8,0.1,1.3,0.2c0.1,0.7,0.2,1.4,0.2,2.1
		c0,1.2-0.1,2.4-0.1,3.7c0,1.3,0.4,2.5,0.9,3.7c0.5,1.1,1.9,1.4,2.9,0.6c0.4-0.3,0.7-0.8,1-1.3c0.7-1.3,1.2-2.7,1.4-4.2
		c0.3-1.7,0.6-3.5,0.9-5.2c0-0.2,0-0.4,0-0.6c-0.3-0.2-0.5,0-0.6,0.3c-0.5,1.5-1,2.9-1.1,4.5c-0.1,1.7-0.9,3.2-1.8,4.7
		c-0.2,0.3-0.5,0.4-0.7,0.6c-0.7-0.3-0.6-0.8-0.6-1.3c-0.1-1.5-0.1-3-0.1-4.5c0-0.7-0.1-1.5-0.2-2.2c-0.1-0.5-0.2-1-0.4-1.3
		c-0.2-0.4-0.7-0.8-1-0.9c-1-0.2-2.1-0.2-3.2-0.2c-1,0.1-1.9,1-1.8,2.1c0.2,1.6-0.7,2.7-1.5,3.9c-0.8,1-1.7,1.9-2.6,2.8
		c-0.2,0.2-0.4,0.3-0.8,0.5c-0.2-0.9-0.1-1.6,0.3-2.3c0.4-0.8,0.8-1.7,1.2-2.6c0.5-0.9,0.7-1.8,0.1-2.7c-0.4-0.6-0.3-1.1-0.2-1.7
		c0.1-0.4,0.2-0.8,0.3-1.2c0.1-0.9,0.1-1.7-0.4-2.5c-0.8-1.3-1.3-2.8-1.4-4.4c0-1.1-0.3-2.1-0.8-3.1c-0.4-0.9-0.5-1.8-0.2-2.8
		c0.1-0.5,0.2-0.9,0.4-1.4c0.3-0.9,0.4-1.7-0.2-2.5c-0.4-0.6-0.4-1.3-0.2-2c0.3-1.3,0.3-2.5-0.1-3.8c-0.4-1.1-0.1-2.2,0.4-3.1
		c0.8-1.4,1.7-2.8,2.6-4.1c0.4-0.5,1-0.9,0.9-1.7c0-0.1,0.1-0.3,0.2-0.3c0.9-0.5,1.1-1.5,1.5-2.3c0.7-1.5,1.6-2.8,2.6-4.1
		C19.3,7.1,21,6,23.1,5.4C24.4,5.1,25.8,5,26.9,6c1.1,0.9,2.2,0.8,3.4,0.1c1.5-1,3.1-1.6,4.8-2.1c2.1-0.6,3.9,0,5.5,1.2
		c0.8,0.6,1.6,1.2,2.3,2c1.3,1.5,3,2,4.8,2.4c0.3,0.1,0.7,0.1,1,0.1c1.6,0.1,2.9,0.6,3.8,2c0.7,1,1.7,1.5,3,1.4c0.9,0,1.8,0,2.6,0
		c1.1,0,2.1,0.2,2.9,1.2c0.6,0.8,1.5,1.1,2.5,1c0.7,0,1.3-0.1,2-0.2c2.2-0.1,4.2,0.4,5.8,1.9c0.4,0.4,0.8,0.8,1,1.3
		c0.5,1.1,1.3,1.7,2.3,2.2c0.4,0.2,0.9,0.4,1.3,0.6c1.1,0.6,1.7,1.4,1.4,2.8c-0.1,0.7-0.1,1.5,0.1,2.2c0.2,1,0,1.7-0.7,2.4
		c-0.2,0.2-0.5,0.5-0.7,0.8c-0.5,0.7-1.2,1-2.1,0.9c-0.7-0.1-1.4,0-2-0.1c-4-0.6-8.1-1-12-1.8c-4.4-0.9-8.9-0.9-13.3-0.5
		c-1.4,0.1-2.8,0.1-4.2,0.1c-1,0-2,0.2-3,0.5c-1.1,0.4-2,1.1-2.6,2.1c-0.4,0.7-0.8,1.4-1.1,2.2c-0.4,0.8-0.8,1.5-1.6,2
		c-2.3,1.5-3.5,3.9-4.2,6.5c-0.4,1.6-0.9,3.1-2.1,4.3C27.4,45.7,27.1,46.1,27.6,46.7z M18.1,80.2c0.1-0.2,0.3-0.5,0.4-0.7
		c-0.1,0-0.1-0.1-0.2-0.1C18.2,79.7,18.2,79.9,18.1,80.2c0.1,0.2,0.2,0.4,0.2,0.6c0.1,0.3,0.1,0.6,0.2,0.8c0,0.5-0.1,0.9-0.1,1.4
		c0.1,2,0.2,4,0.3,6c0.1-0.5,0.3-1,0.3-1.6c0-1.8-0.1-3.6-0.1-5.4c0-0.1-0.2-0.3-0.4-0.4C18.8,81.1,18.7,80.6,18.1,80.2z M51.3,99.1
		c-1.6,0.2-3.2,0.3-4.8,0.6c-2.6,0.4-5.3,0.2-7.9-0.1c-0.7-0.1-1.3-0.2-2-0.3c-2.1-0.3-4.3-0.5-6.4-0.8c-1.7-0.2-3.5-0.3-5-1.5
		c-0.3-0.2-0.9-0.3-1.2,0.2c0.7,0.4,1.4,0.7,2,1c0.5,0.2,1,0.6,1.5,0.6c1.1,0.1,2.1,0.5,3.1,0.8c2.5,0.6,4.9,1.3,7.5,1.6
		c3.4,0.4,6.7,0.6,10.1-0.2c1.2-0.3,2.5-0.4,3.8-0.7c0.5-0.1,0.9-0.2,1.5-0.4c-0.4-0.4-0.7-0.6-1-0.9c0-0.4,0.1-0.8,0.1-1.2
		c0.4-2.3,0.9-4.5,1.2-6.8c0.4-2.4,0.9-4.8,0.9-7.2c0-1.6-0.3-3.1-1-4.5c-1.3-2.9-3.6-3.6-6.5-2.4c-0.6,0.3-1.2,0.7-1.8,1
		c-0.6,0.4-1.3,0.7-1.9,1.1c-0.2,1.3-0.5,2.6-0.7,3.9c-0.2,1.4-0.4,2.8-0.6,4.2c-0.4,2.7-0.8,5.4-1.1,8c-0.1,0.7-0.1,1.5,0,2.2
		c0.1,0.5,0.4,0.9,1.1,0.6c0.7-1.4,0.3-3,0.6-4.5c0.3-1.5,0.5-3.1,0.6-4.6c0.2-1.5,0.3-3.1,0.5-4.6c0.2-1.5,0.4-3.1,0.5-4.4
		c0.5-0.4,0.9-0.7,1.3-1c1.1-0.8,2.3-1.4,3.7-1.5c0.9-0.1,1.5,0.3,2.1,1c0.9,1.2,1.1,2.5,1,3.8c0,1.4-0.2,2.8-0.4,4.2
		c-0.3,2.2-0.8,4.4-1.1,6.6C50.9,95,50.6,97.1,51.3,99.1z M26.4,76.8c-0.1,0.4-0.2,0.8-0.2,1.2c-0.6,5-1.2,9.9-1.8,14.9
		c-0.1,0.6,0,1.2,0,1.8c0,0.2,0.2,0.5,0.3,0.7c0.1,0.1,0.4,0.2,0.5,0.2c0.1,0,0.4-0.2,0.4-0.4c0.1-1.3,0.2-2.6,0.3-3.8
		c0.1-1.3,0.3-2.6,0.4-3.8c0.2-3.5,0.8-7,1.3-10.5c2.2-1.5,4.4-2.1,7.1-1.2c1.1,0.4,1.8,1,2.1,2.2c0.3,1.5,0.5,2.9,0.3,4.4
		c-0.5,4.1-1,8.2-1.5,12.3c-0.1,0.8-0.1,1.6,0,2.4c0.1,0.7,0.5,1.1,1.4,0.9c0.1-0.7,0.3-1.4,0.4-2.1c0.9-4.2,1.4-8.5,1.7-12.8
		c0.1-1.8-0.2-3.5-0.8-5.2c-0.8-2.3-3.4-3.9-5.8-3.4C30.4,74.9,28.3,75.3,26.4,76.8z M12.3,92.2c0.3-0.3,0.5-0.4,0.5-0.5
		c0.1-1.9,0.2-3.8,0.3-5.7c0.2-3,0.4-6.1,0.6-9.1c0.1-0.8,0.1-1.6,0.7-2.2c0.8,0,1.5-0.1,2.3-0.1c1.8,0,2.5,0.5,3,2.1
		c0.5,1.9,0.9,3.8,0.7,5.8c-0.3,3.2-0.4,6.5-0.5,9.7c0,0.7,0,1.5,0.2,2.2c0,0.3,0.4,0.6,0.6,0.7c0.4,0.1,0.6-0.2,0.7-0.5
		c0.1-0.4,0.2-0.8,0.3-1.2c0.7-3,1-6,1.1-9c0-1.1,0.1-2.3-0.1-3.4c-0.1-1.1-0.4-2.3-0.7-3.4c-0.8-2.9-2.8-4.4-5.8-4.3
		c-2.4,0.1-2.9,0.5-3.2,2.9c0,0.1,0,0.1,0,0.2c-0.3,3.8-0.7,7.5-1,11.3C11.9,89.2,11.8,90.6,12.3,92.2z M61.1,78
		C60.5,78.4,60,79,59.4,79c-1,0-1.3,0.6-1.5,1.3c-0.3,1-0.6,1.9-0.8,2.9c-0.2,0.9-0.3,1.7-0.4,2.6c-0.4,2.9-0.9,5.7-1.3,8.6
		c-0.1,0.5,0,1.1,0.1,1.6c0.1,0.3,0.3,0.7,0.7,0.5c0.2-0.1,0.4-0.4,0.4-0.6c0.3-2.1,0.5-4.3,0.9-6.4c0.3-2.1,0.8-4.2,1.1-6.4
		c0.2-1.3,0.7-2.3,1.5-3.2c0.3-0.3,0.5-0.7,1-0.6c0.6,0.1,0.6,0.7,0.7,1.1c0.2,1.1,0,2.2-0.2,3.2c-0.6,2.9-1.3,5.8-2,8.7
		c-0.2,1-0.4,2-0.5,3c0,0.4,0.1,0.9,0.3,1.4c0.1,0.2,0.4,0.4,0.6,0.4c0.2,0,0.5-0.3,0.5-0.5c0.2-0.7,0.2-1.5,0.4-2.2
		c0.7-3.4,1.5-6.9,2.2-10.3c0.2-1.2,0.3-2.4,0-3.6C62.8,79.5,62.4,78.5,61.1,78z M72.1,39.6c-0.2-0.6-0.2-1-0.4-1.2
		c-0.3-0.2-0.7-0.4-1.1-0.5c-3.9-1-7.9-1.1-11.8-1.9c-2.2-0.5-4.6-0.5-6.8-1c-3.8-0.9-7.6-1-11.4-1.6c-0.6-0.1-1.3,0-2,0
		c0.1,0.7,0.5,0.9,1,1c1.3,0.2,2.7,0.5,4,0.7c3.6,0.5,7.2,1,10.8,1.5c2.5,0.4,5.1,0.8,7.6,1.2c2,0.3,4,0.6,6,1
		C69.2,39,70.4,39.3,72.1,39.6z M65.7,69.5c0.3-0.7,0.6-1.2,0.7-1.8c0.4-1.6,0.8-3.3,1.1-4.9c0.8-4.2,1.6-8.3,2.4-12.5
		c0.3-1.7,0.6-3.5,0.9-5.2c0.1-0.3,0-0.7-0.1-1c0-0.2-0.2-0.4-0.4-0.6c-0.2,0.2-0.3,0.3-0.3,0.4c-0.7,3-1.3,6.1-1.9,9.1
		c-0.9,4.4-1.7,8.8-2.5,13.1C65.5,67.2,65.3,68.2,65.7,69.5z M49,94.6c0.3-0.6,0.6-1,0.8-1.5c0.8-2.5,1.4-5.1,1.6-7.7
		c0-0.3,0-0.5-0.1-0.8c-0.1-0.2-0.3-0.3-0.4-0.4c-0.2,0-0.4,0.1-0.5,0.3c-0.2,0.3-0.3,0.6-0.3,1c-0.4,2.2-0.8,4.4-1.1,6.6
		C48.7,92.8,48.6,93.6,49,94.6z M33.8,93.5c0.1-0.2,0.2-0.4,0.2-0.7c0.5-3.2,1-6.4,1.4-9.6c0.1-0.5,0-1.1,0-1.6
		c0-0.3-0.2-0.5-0.5-0.4C34.4,82.8,33.6,89.4,33.8,93.5z M18.4,16.7c-1-0.2-1.7,0.2-1.9,1.1c-0.2,0.8,0,1.6,0.5,2.3
		c0.7,0.9,2,0.7,2.5-0.3c0.2-0.4,0.3-0.9,0.3-1.4C19.9,17.4,19.4,16.8,18.4,16.7z M32.8,23c0-0.3,0-0.5,0-0.8
		c-0.1-0.6-0.9-1.3-1.6-1.4c-0.9-0.1-1.7,0.4-2.2,1.4c-0.3,0.8-0.2,1.5,0.4,2c0.1,0.1,0.2,0.2,0.3,0.2C30.9,25.1,32.8,24.1,32.8,23z
		 M31.3,28.7c0.1,0,0.3,0,0.4,0c0.7,0.1,1.1-0.2,1.4-0.6c0.3-0.5,0.2-1.2-0.3-1.6c-0.3-0.3-0.6-0.5-1-0.7C31,25.6,30,26.2,29.9,27
		C29.9,27.8,30.5,28.6,31.3,28.7z M21,10.3c0,1,0.7,1.3,1.4,1.4c0.9,0.2,1.7-0.3,1.9-1C24.6,10,24,9.3,23.1,9
		c-0.4-0.1-0.7,0-1.1,0.8c0.2,0.1,0.3,0.2,0.5,0.2c0.2,0.1,0.4,0.2,0.7,0.2C22.3,11.3,21.9,10.2,21,10.3z M44.4,24.7
		c0.1-0.6-0.5-1.3-1.2-1.3c-0.7-0.1-1.2,0.4-1.3,1c-0.1,0.8,0.4,1.5,1,1.5C43.6,25.8,44.4,25.2,44.4,24.7z M27.3,18.9
		c-0.1,0.7-0.1,1.1-0.3,1.2c-0.1,0.1-0.5,0-0.7,0c-0.2,0-0.4,0.1-0.5,0.2c-0.5,0.4-0.4,1.3,0.1,1.8c0.4,0.3,1.1,0.3,1.4-0.2
		c0.3-0.6,0.5-1.2,0.7-1.8C28,19.8,27.7,19.5,27.3,18.9z M35.1,21.2c0.2,0,0.6-0.1,0.9-0.2c0.3-0.2,0.3-0.9,0.1-1.3
		c-0.4-0.7-1.4-1.1-2.1-0.8c-0.2,0.1-0.5,0.5-0.5,0.8C33.6,20.4,34.1,20.9,35.1,21.2z M16,23.8c0.6,0.1,1.2-0.3,1.3-0.9
		c0.1-0.5-0.3-1-0.9-1.1c-0.8-0.2-1.5,0.2-1.6,0.7C14.6,23.1,15.2,23.7,16,23.8z M68.9,28.1c0.3,0.1,0.4,0.2,0.5,0.1
		c0.9-0.3,1.3-1,1.5-1.9c0-0.1,0-0.3,0-0.4c-0.2-0.2-0.4-0.4-0.6-0.5c-0.1,0-0.4,0.1-0.5,0.3C69.5,26.5,69.2,27.3,68.9,28.1z
		 M73.6,27.9c0.2,0,0.3,0.1,0.3,0.1c1.5-0.9,1.9-2.3,1.3-3.8c-0.1-0.2-0.4-0.4-0.7,0C74.7,25.5,74.2,26.7,73.6,27.9z M26.9,42.1
		c1-0.3,1.3-1.2,1.5-2.1c0-0.2-0.2-0.5-0.4-0.6c-0.1-0.1-0.4,0-0.5,0.1C26.9,40.1,26.6,41.1,26.9,42.1z M51.9,23.6
		c-0.5-0.3-0.9-0.7-1.1-0.7c-0.5,0.2-1,0.5-1.3,0.9c-0.2,0.3-0.1,0.8-0.2,1.3C50.8,25.4,51,24.2,51.9,23.6z M20.8,22.3
		c-0.1,0.5,0.5,1.1,0.9,1.1c0.4,0,1-0.6,1-1.1c0-0.3-0.3-0.8-0.7-0.8C21.5,21.5,20.9,21.8,20.8,22.3z M72.1,25.2
		c-0.2,0.8-0.5,1.7-0.7,2.7C72.6,27.5,73,27,73,26C73,25.5,72.9,25.1,72.1,25.2z M38.9,20.3c-0.3,0.2-0.7,0.3-0.8,0.6
		c-0.3,0.7,0.3,1.4,1,1.3c0.4-0.1,0.8-0.5,0.6-0.9C39.5,21,39.2,20.7,38.9,20.3z M63.9,27.3c0.8-0.1,1.3-0.4,1.7-0.9
		c0.1-0.1,0.1-0.5,0-0.7c-0.2-0.3-0.6-0.4-0.9-0.2C64.3,25.9,63.8,26.4,63.9,27.3z M66.7,27.9c1.1-0.2,1.5-0.6,1.6-1.4
		c0-0.2-0.2-0.4-0.3-0.4c-0.1-0.1-0.4,0-0.5,0.1C66.9,26.5,66.6,27.1,66.7,27.9z M31.4,7.6c-0.4-0.1-0.7,0.2-0.9,0.6
		c-0.1,0.5,0.1,1,0.6,1.1c0.3,0.1,0.8-0.2,0.9-0.6C32.1,8.3,31.8,7.8,31.4,7.6z M27.3,29.6c-0.2-0.1-0.4-0.4-0.6-0.5
		c-0.5-0.2-0.9,0.2-0.9,0.7c0,0.3,0.1,0.6,0.5,0.7C26.8,30.5,27.3,30.1,27.3,29.6z M39.7,9.3c0.1-0.6-0.2-1.1-0.6-1.2
		c-0.2,0-0.5,0.2-0.6,0.3c-0.2,0.4,0.2,1,0.6,1C39.3,9.5,39.6,9.3,39.7,9.3z M63.7,26.1c-0.1-0.2-0.1-0.4-0.2-0.5
		c-0.4-0.3-1.1-0.2-1.4,0.3c-0.1,0.1,0,0.3,0,0.4c0.2,0.1,0.5,0.2,0.7,0.2C63.2,26.4,63.4,26.2,63.7,26.1z M37,47
		c-0.2-0.4-0.3-0.7-0.5-0.9c-0.1-0.2-0.6,0.2-0.7,0.6c-0.1,0.3,0.2,0.8,0.4,0.8C36.5,47.4,36.7,47.2,37,47z M37.2,56.1
		c-0.3-0.4-0.5-0.6-0.7-0.8c-0.2-0.1-0.6,0.2-0.7,0.5c-0.1,0.4,0.2,0.7,0.5,0.7C36.6,56.6,36.8,56.3,37.2,56.1z M41.5,47.6
		c-0.2,0.4-0.5,0.5-0.5,0.7c0,0.4,0.2,0.7,0.6,0.6c0.2,0,0.5-0.3,0.5-0.5C42,48.2,41.8,48,41.5,47.6z M42.5,43.6
		c0.2-0.5,0.1-0.8-0.3-1c-0.2-0.1-0.6,0-0.7,0.1c-0.3,0.2-0.1,0.8,0.4,1C42.1,43.8,42.3,43.7,42.5,43.6z M30.7,50.5
		c0.3-0.2,0.6-0.3,0.7-0.5c0.2-0.5-0.1-1-0.5-1c-0.2,0-0.5,0.3-0.5,0.4C30.3,49.7,30.5,50,30.7,50.5z M31,30.7
		c-0.1,0.4-0.2,0.7-0.2,1c0.1,0.4,0.4,0.5,0.7,0.4c0.3-0.1,0.4-0.5,0.2-0.8C31.6,31.1,31.4,31,31,30.7z M17.1,29.6
		c-0.2,0-0.3,0-0.5,0c-0.3,0-0.5,0.4-0.3,0.5c0.3,0.2,0.6,0.4,1,0.5c0.1,0,0.3-0.2,0.4-0.3c0-0.1,0-0.4-0.1-0.5
		C17.4,29.7,17.2,29.7,17.1,29.6z M25.8,60.9c0,0.5,0.1,1,0.8,0.8c0.4-0.1,0.5-0.4,0.3-0.8C26.8,60.6,26.6,60.6,25.8,60.9z M35,25.8
		c0.2,1.1,0.3,1.3,0.8,1.1c0.2,0,0.3-0.2,0.4-0.4C36.3,26.2,35.9,25.9,35,25.8z M55.6,24.5c0.2-0.1,0.5-0.1,0.7-0.2
		c0.2-0.1,0.3-0.5,0.2-0.6c-0.1-0.4-0.8-0.5-1-0.2c-0.2,0.2-0.1,0.6-0.2,0.9C55.4,24.4,55.5,24.4,55.6,24.5z M45.9,49
		c-0.3,0.3-0.5,0.5-0.6,0.7c-0.1,0.4,0.3,0.8,0.7,0.8c0.3,0,0.5-0.3,0.4-0.5C46.4,49.6,46.2,49.4,45.9,49z M30.7,54.7
		c0-0.6-0.3-1-0.6-0.9c-0.2,0-0.4,0.3-0.5,0.5c-0.1,0.4,0.2,0.8,0.7,0.7C30.4,55,30.6,54.8,30.7,54.7z M61.3,25.8
		c-0.3-0.2-0.6-0.5-0.8-0.5c-0.3-0.1-0.5,0.2-0.4,0.5c0,0.4,0.4,0.5,0.7,0.5C60.9,26.2,61,26,61.3,25.8z M24.5,25.7
		c-0.4-0.2-0.7-0.4-1-0.6c0,0-0.3,0.3-0.3,0.4c0,0.4,0.4,0.8,0.8,0.7C24.1,26.2,24.2,26,24.5,25.7z M31.9,64.9
		c0.1-0.6-0.2-1.1-0.4-1c-0.3,0.1-0.5,0.4-0.6,0.6c-0.1,0.3,0.2,0.6,0.5,0.7C31.6,65.2,31.8,65,31.9,64.9z M29.9,57.9
		c-0.4-0.3-0.6-0.5-0.9-0.6c-0.1,0-0.5,0.3-0.5,0.5c0,0.4,0.2,0.6,0.6,0.6C29.4,58.3,29.5,58.1,29.9,57.9z M18.3,38.1
		c0.3-0.2,0.5-0.3,0.5-0.4c0.1-0.4-0.1-0.6-0.4-0.7c-0.1,0-0.4,0.2-0.4,0.2C18,37.5,18.2,37.8,18.3,38.1z M22.7,37.7
		c-0.3-0.4-0.5-0.6-0.7-0.8c-0.2-0.1-0.5-0.1-0.6,0.3c-0.1,0.4,0.1,0.7,0.5,0.8C22,37.9,22.2,37.8,22.7,37.7z M37.6,39.5
		c-0.3,0.2-0.6,0.3-0.7,0.5c-0.1,0.3,0.2,0.8,0.5,0.7c0.2,0,0.5-0.3,0.5-0.4C38,40.1,37.8,39.8,37.6,39.5z M58.1,24.2
		c-0.2,0.2-0.5,0.3-0.4,0.4c0,0.2,0.2,0.4,0.3,0.6c0.2-0.1,0.4-0.3,0.6-0.4C58.4,24.6,58.3,24.4,58.1,24.2z M26.6,65
		c-0.2-0.3-0.3-0.6-0.5-0.6c-0.1,0-0.4,0.2-0.6,0.3c0.1,0.2,0.3,0.4,0.5,0.5C26.1,65.3,26.3,65.1,26.6,65z M21.5,30.2
		c0.1-0.5-0.2-0.8-0.7-0.8c-0.1,0-0.4,0.2-0.4,0.3c-0.1,0.3,0.2,0.7,0.7,0.7C21.3,30.4,21.4,30.2,21.5,30.2z M33,52.2
		c-0.3-0.3-0.4-0.6-0.6-0.6c-0.2,0-0.4,0.2-0.6,0.3c0.1,0.2,0.2,0.5,0.4,0.6C32.3,52.5,32.6,52.3,33,52.2z M22.4,31.5
		c-0.3,0.3-0.7,0.5-0.7,0.6c0,0.2,0.3,0.4,0.5,0.6c0.1,0.1,0.3-0.1,0.5-0.1C22.7,32.3,22.6,32,22.4,31.5z M21.7,27.9
		c0.1,0.2,0.2,0.3,0.2,0.4c0.2,0.1,0.4,0.2,0.7,0.2c0-0.2,0.2-0.4,0.1-0.5c-0.1-0.3-0.4-0.5-0.8-0.4C21.9,27.7,21.9,27.7,21.7,27.9z
		 M18.1,41.5c0.1,0.1,0.2,0.2,0.4,0.3c0,0,0.2-0.2,0.2-0.2c-0.1-0.1-0.2-0.3-0.3-0.4C18.3,41.3,18.3,41.4,18.1,41.5z M22.1,34
		c-0.2-0.2-0.3-0.4-0.4-0.5c-0.1,0-0.3,0.1-0.4,0.2c0.1,0.1,0.1,0.4,0.3,0.4C21.7,34.2,21.8,34.1,22.1,34z M27.6,35
		c-0.2-0.2-0.3-0.3-0.4-0.4c-0.1,0-0.2,0.1-0.3,0.1c0.1,0.2,0.1,0.4,0.2,0.5C27.2,35.1,27.4,35,27.6,35z M40.7,24.7
		c-0.2-0.2-0.3-0.3-0.5-0.5c-0.1,0.1-0.3,0.2-0.3,0.4c0,0.1,0.2,0.4,0.3,0.4C40.3,25,40.5,24.9,40.7,24.7z M15,48.4
		c0,0.1,0,0.2-0.1,0.2c0.2,0.1,0.4,0.1,0.6,0.2c0-0.1,0-0.2,0.1-0.3C15.4,48.5,15.2,48.4,15,48.4z M24.5,43.1
		c-0.2,0.1-0.3,0.2-0.3,0.2c0.1,0.1,0.2,0.3,0.3,0.4c0.1-0.1,0.2-0.2,0.2-0.2C24.7,43.4,24.6,43.2,24.5,43.1z M15.1,51.1
		c-0.1-0.1-0.1-0.2-0.2-0.3c-0.1,0-0.2,0-0.3,0.1c0.1,0.1,0.1,0.3,0.2,0.3C14.9,51.2,15,51.1,15.1,51.1z M26.5,38.9
		c-0.1-0.1-0.1-0.2-0.2-0.3c-0.1,0.1-0.3,0.2-0.2,0.2c0,0.1,0.1,0.2,0.2,0.4C26.4,39,26.5,39,26.5,38.9z M28.9,32.6
		c0-0.1-0.1-0.3-0.1-0.3c-0.1,0-0.2,0-0.4,0.1c0,0.1,0.1,0.2,0.1,0.3C28.6,32.7,28.8,32.6,28.9,32.6z"/>
	<path id="XMLID_460_" class="st0" d="M67.1,89.5c-0.2-1.4,0.3-2.6,0.4-4c0.4-0.1,0.8-0.2,1.2-0.3c2.5-0.2,5.1-0.4,7.7-0.7
		c1.9-0.2,3.6-1.1,5.2-2.1c0.9-0.6,1.4-1.5,1.7-2.4c0.4-1.1,0.8-2.3,1-3.5c0.7-3.1,1.4-6.2,2.1-9.3c0.1-0.6,0.2-1.2,0.3-1.8
		c0.4-2,0.8-4,1.1-6c0.3-1.8,0.5-3.6,0.6-5.4c0.1-0.9-0.1-1.9-0.4-2.8c-0.4-1.1-1.3-2-2.4-2.6c-1.7-0.9-3.6-1.1-5.5-1.2
		c-1,0-2,0.1-3,0.2c-0.6,0.1-1.2,0.2-1.8,0.2c-0.1-0.3-0.1-0.4-0.1-0.5c0.3-1.9,0.5-3.7,0.8-5.6c0.2-0.1,0.4-0.2,0.6-0.2
		c2.2,0.3,4.4,0.5,6.6,0.8c2.5,0.4,4.8,1.4,7,2.6c0.9,0.5,1.3,1.2,1.5,2.1c0.2,1,0.4,2.1,0.4,3.2c0,1.7-0.1,3.4-0.3,5.1
		c-0.6,4.7-1.2,9.4-2,14.1c-0.6,3.5-1.3,7-1.9,10.6c-0.5,2.6-1.6,4.9-3.2,6.9c-1.6,1.9-3.5,3.1-6,3.3c-1.4,0.1-2.7,0.1-4,0
		c-2-0.2-4-0.3-6.1-0.4C68.2,89.7,67.7,89.6,67.1,89.5z M80.7,87c-0.3-0.2-0.6-0.4-0.7-0.4c-1.1,0.4-2.2,0.6-3.3,0.8
		c-0.3,0.1-0.7,0-1,0.2c-0.2,0.1-0.4,0.4-0.4,0.6c0,0.1,0.4,0.4,0.5,0.4c1-0.3,1.9-0.4,2.9-0.4c0.5,0,0.9-0.2,1.3-0.4
		C80.3,87.6,80.4,87.3,80.7,87z M72.8,88.3c-0.3-0.3-0.5-0.7-0.7-0.7c-0.3-0.1-0.6,0.1-0.9,0.1c0,0-0.1,0.3,0,0.3
		c0.3,0.2,0.6,0.5,0.9,0.6C72.2,88.7,72.5,88.4,72.8,88.3z M86.1,76.7c0.1,0.7,0.5,0.8,1,0.7c0.2,0,0.4-0.3,0.6-0.4
		c0.1-0.2-0.2-0.5-0.7-0.4C86.7,76.5,86.4,76.6,86.1,76.7z M87,78.9c-0.8-0.3-1.3,0-1.9,0.6C86,80,86.5,79.5,87,78.9z M84.4,81.7
		c0.8,0.3,0.9,0.3,1.4-0.1c0.1-0.1,0-0.3,0.1-0.6c-0.4,0.1-0.7,0.2-1,0.3C84.6,81.4,84.5,81.5,84.4,81.7z M82.8,85.6
		c0.2-0.1,0.5-0.3,0.7-0.5c0.1,0,0.1-0.3,0-0.3c-0.1-0.1-0.2-0.1-0.3-0.1c-0.2,0.1-0.5,0.2-0.7,0.4c-0.1,0,0,0.2,0,0.4
		C82.6,85.5,82.7,85.5,82.8,85.6z M83.2,83.8c0.6,0.3,1,0.1,1.3-0.4c0-0.1-0.2-0.4-0.3-0.4C83.8,83,83.3,83.2,83.2,83.8z M73.6,88.4
		c0.3,0.4,0.6,0.4,1,0.1c0.2-0.2,0.1-0.7-0.2-0.8C73.8,87.6,73.7,88,73.6,88.4z"/>
	<path id="XMLID_449_" class="st0" d="M59.1,103.7c0.3,0.8,0,1.4-0.2,2.1c-0.1,0.6-0.2,1.2-0.4,2c-0.4,0.5-1.2,0.7-2,0.9
		c-1.1,0.3-2.2,0.6-3.3,0.9c-1.2,0.2-2.4,0.4-3.6,0.5c-3,0.2-6.1,0.3-9.1-0.3c-2.4-0.4-4.8-0.6-7.2-1c-2.2-0.4-4.3-1-6.5-1.5
		c-0.9-0.2-1.9-0.4-2.8-0.6c-1.2-0.3-2.3-0.6-3.5-1c-0.4-0.1-0.8-0.2-1.2-0.3c-3.2-0.6-5.6-2.5-7.9-4.7c0-1.2,0-2.3,0.1-3.5
		c0-0.5,0.2-0.9,0.2-1.4c0.7-0.1,1.1,0.4,1.6,0.7c1.1,0.7,2.2,1.4,3.4,1.7c0.3,0.1,0.5,0.1,0.8,0.3c4.1,2.1,8.5,3.1,12.9,4
		c1.8,0.4,3.5,0.8,5.4,1c1.3,0.2,2.7,0.3,4,0.4c0.1,0,0.3,0,0.4,0c2.8,0.9,5.6,0.3,8.5,0.6c0.3,0,0.7,0,1-0.1c2-0.2,3.9-0.3,5.9-0.5
		c0.8-0.1,1.6-0.2,2.4-0.3C58.4,103.6,58.8,103.7,59.1,103.7z M53.1,107.3c0,0.1,0,0.2,0,0.3c0,0.1,0.1,0.3,0.2,0.3
		c0.2,0,0.4,0,0.5-0.1c0.2-0.2,0.3-0.4,0.4-0.7c0.1-0.4,0-0.8-0.3-1.1c-0.2-0.2-0.6,0.2-0.7,0.7C53.1,107,53.1,107.1,53.1,107.3z
		 M57.1,107.1c0.5-0.6,0.6-1.3,0.4-2.1c-0.9,0.1-0.8,0.9-0.9,1.4C56.5,106.7,56.6,107,57.1,107.1z M51.8,107.5
		c-0.1-0.3,0-0.5-0.1-0.7c-0.1-0.1-0.3-0.3-0.4-0.3c-0.1,0-0.3,0.2-0.4,0.4c-0.1,0.2-0.1,0.4-0.1,0.6c0.1,0.2,0.3,0.4,0.4,0.4
		C51.4,107.8,51.6,107.7,51.8,107.5z M54.7,107.4c0.7,0.1,0.8-0.2,0.9-0.7c0.1-0.5,0.1-0.9-0.6-1.1
		C54.9,106.3,54.8,106.9,54.7,107.4z M48.3,108.2c-0.1-0.3-0.2-0.5-0.4-0.7c-0.1-0.1-0.4-0.1-0.5,0c-0.3,0.2-0.1,0.7,0.2,0.8
		C47.8,108.3,47.9,108.2,48.3,108.2z M45.6,108.1c-0.3-0.4-0.4-0.7-0.6-0.7c-0.2,0-0.4,0.2-0.6,0.4c0,0,0.1,0.4,0.3,0.5
		C44.9,108.3,45.1,108.2,45.6,108.1z M50.4,107.7c-0.3-0.3-0.4-0.6-0.6-0.6c-0.3-0.1-0.5,0.2-0.4,0.5c0,0.2,0.2,0.4,0.3,0.4
		C49.8,108,50,107.9,50.4,107.7z M39.5,106.2c-0.2,0.1-0.4,0.2-0.4,0.3c0,0.1,0.1,0.4,0.2,0.4c0.1,0,0.4-0.1,0.4-0.2
		C39.7,106.6,39.6,106.4,39.5,106.2z M42.6,108.2c0.2-0.3,0.4-0.4,0.4-0.6c0-0.1-0.2-0.3-0.3-0.4c-0.1,0-0.4,0.1-0.4,0.2
		C42.3,107.6,42.4,107.8,42.6,108.2z"/>
	<path id="XMLID_448_" class="st0" d="M38.9,30.3c0.4-0.8,1.1-1.1,1.8-1.2c1-0.1,2-0.1,3-0.2c0.9,0,1.8,0.1,2.6-0.1
		c3-0.5,6.1-0.4,9.1-0.3c1.4,0,2.8,0.4,4.2,0.7c2.5,0.5,5,0.9,7.6,1.2c0.9,0.1,1.9,0.3,2.8,0.5c1.9,0.3,3.7,0.4,5.6-0.3
		c0.5-0.2,1-0.2,1.7-0.3c0.1,0.2,0.2,0.4,0.3,0.6c0.6,1.8,0.1,2.7-1.8,2.9c-1.6,0.2-3.2,0-4.8-0.2c-3.5-0.4-7-0.9-10.5-1.3
		c-1.9-0.2-3.9-0.2-5.9-0.4c-4.1-0.4-8.2-0.8-12.3-1.2C41.2,30.8,40.1,30.5,38.9,30.3z"/>
	<path id="XMLID_447_" d="M51.3,99.1c-0.7-2-0.4-4-0.1-6c0.3-2.2,0.8-4.4,1.1-6.6c0.2-1.4,0.4-2.8,0.4-4.2c0-1.4-0.2-2.7-1-3.8
		c-0.5-0.7-1.1-1.1-2.1-1c-1.4,0.1-2.6,0.6-3.7,1.5c-0.4,0.3-0.7,0.6-1.3,1c-0.2,1.4-0.4,2.9-0.5,4.4c-0.2,1.5-0.3,3.1-0.5,4.6
		c-0.2,1.5-0.3,3.1-0.6,4.6c-0.3,1.5,0.1,3.1-0.6,4.5c-0.7,0.2-1-0.1-1.1-0.6c-0.1-0.7-0.1-1.5,0-2.2c0.3-2.7,0.7-5.4,1.1-8
		c0.2-1.4,0.3-2.8,0.6-4.2c0.2-1.3,0.5-2.6,0.7-3.9c0.7-0.4,1.3-0.8,1.9-1.1c0.6-0.3,1.2-0.7,1.8-1c2.9-1.3,5.2-0.5,6.5,2.4
		c0.6,1.4,1,2.9,1,4.5c0,2.4-0.5,4.8-0.9,7.2c-0.4,2.3-0.8,4.5-1.2,6.8c-0.1,0.4-0.1,0.8-0.1,1.2c0.3,0.3,0.6,0.6,1,0.9
		c-0.6,0.2-1,0.3-1.5,0.4c-1.3,0.2-2.6,0.3-3.8,0.7c-3.4,0.8-6.7,0.6-10.1,0.2c-2.6-0.3-5-1-7.5-1.6c-1-0.3-2-0.7-3.1-0.8
		c-0.5,0-1-0.4-1.5-0.6c-0.7-0.3-1.3-0.6-2-1c0.3-0.5,0.9-0.4,1.2-0.2c1.5,1.2,3.3,1.2,5,1.5c2.1,0.3,4.3,0.5,6.4,0.8
		c0.7,0.1,1.3,0.2,2,0.3c2.6,0.4,5.2,0.5,7.9,0.1C48.1,99.4,49.7,99.3,51.3,99.1z"/>
	<path id="XMLID_446_" d="M26.4,76.8c1.9-1.6,4-1.9,6-2.3c2.4-0.5,5,1.1,5.8,3.4c0.6,1.7,0.9,3.4,0.8,5.2c-0.3,4.3-0.8,8.6-1.7,12.8
		c-0.2,0.7-0.3,1.4-0.4,2.1c-0.9,0.2-1.3-0.2-1.4-0.9c-0.1-0.8,0-1.6,0-2.4c0.5-4.1,1-8.2,1.5-12.3c0.2-1.5,0.1-3-0.3-4.4
		c-0.3-1.2-1-1.8-2.1-2.2c-2.6-1-4.9-0.3-7.1,1.2c-0.5,3.5-1,7-1.3,10.5c-0.1,1.3-0.2,2.6-0.4,3.8c-0.1,1.3-0.2,2.6-0.3,3.8
		c0,0.1-0.2,0.4-0.4,0.4c-0.2,0-0.4,0-0.5-0.2c-0.2-0.2-0.3-0.5-0.3-0.7c-0.1-0.6-0.1-1.2,0-1.8c0.6-5,1.2-9.9,1.8-14.9
		C26.2,77.6,26.3,77.2,26.4,76.8z"/>
	<path id="XMLID_445_" d="M12.3,92.2c-0.5-1.6-0.4-3-0.3-4.4c0.3-3.8,0.6-7.5,1-11.3c0-0.1,0-0.1,0-0.2c0.3-2.4,0.9-2.9,3.2-2.9
		c3-0.1,5,1.4,5.8,4.3c0.3,1.1,0.6,2.2,0.7,3.4c0.1,1.1,0.1,2.3,0.1,3.4c-0.1,3-0.4,6.1-1.1,9c-0.1,0.4-0.2,0.8-0.3,1.2
		c-0.1,0.4-0.3,0.7-0.7,0.5c-0.3-0.1-0.6-0.4-0.6-0.7c-0.1-0.7-0.2-1.5-0.2-2.2c0.1-3.2,0.3-6.5,0.5-9.7c0.2-2-0.2-3.9-0.7-5.8
		c-0.4-1.6-1.2-2.1-3-2.1c-0.7,0-1.5,0-2.3,0.1c-0.6,0.6-0.6,1.4-0.7,2.2c-0.2,3-0.4,6.1-0.6,9.1c-0.1,1.9-0.2,3.8-0.3,5.7
		C12.8,91.8,12.6,91.9,12.3,92.2z"/>
	<path id="XMLID_444_" d="M61.1,78c1.3,0.4,1.6,1.4,1.9,2.5c0.3,1.2,0.3,2.4,0,3.6c-0.7,3.4-1.4,6.9-2.2,10.3
		c-0.2,0.7-0.2,1.5-0.4,2.2c0,0.2-0.3,0.5-0.5,0.5c-0.2,0-0.5-0.2-0.6-0.4c-0.2-0.4-0.3-0.9-0.3-1.4c0.1-1,0.3-2,0.5-3
		c0.6-2.9,1.3-5.8,2-8.7c0.2-1.1,0.4-2.1,0.2-3.2c-0.1-0.5-0.1-1-0.7-1.1c-0.5-0.1-0.7,0.3-1,0.6c-0.8,0.9-1.3,2-1.5,3.2
		c-0.3,2.1-0.8,4.2-1.1,6.4c-0.3,2.1-0.6,4.3-0.9,6.4c0,0.2-0.2,0.5-0.4,0.6c-0.4,0.1-0.7-0.2-0.7-0.5c-0.1-0.5-0.1-1.1-0.1-1.6
		c0.4-2.9,0.8-5.7,1.3-8.6c0.1-0.9,0.2-1.7,0.4-2.6c0.2-1,0.5-2,0.8-2.9c0.2-0.7,0.5-1.3,1.5-1.3C60,79,60.5,78.4,61.1,78z"/>
	<path id="XMLID_443_" d="M72.1,39.6c-1.7-0.3-2.9-0.6-4.2-0.8c-2-0.3-4-0.7-6-1c-2.5-0.4-5.1-0.9-7.6-1.2c-3.6-0.5-7.2-1-10.8-1.5
		c-1.3-0.2-2.7-0.4-4-0.7c-0.5-0.1-0.9-0.3-1-1c0.7,0,1.4-0.1,2,0c3.8,0.6,7.7,0.7,11.4,1.6c2.2,0.5,4.6,0.6,6.8,1
		c3.9,0.8,7.9,0.9,11.8,1.9c0.4,0.1,0.8,0.2,1.1,0.5C71.9,38.6,71.9,38.9,72.1,39.6z"/>
	<path id="XMLID_442_" d="M65.7,69.5c-0.4-1.2-0.2-2.3,0-3.3c0.8-4.4,1.6-8.8,2.5-13.1c0.6-3,1.3-6.1,1.9-9.1c0-0.1,0.1-0.2,0.3-0.4
		c0.1,0.2,0.3,0.4,0.4,0.6c0.1,0.3,0.1,0.7,0.1,1c-0.3,1.7-0.5,3.5-0.9,5.2c-0.8,4.2-1.6,8.4-2.4,12.5c-0.3,1.7-0.7,3.3-1.1,4.9
		C66.3,68.3,66,68.8,65.7,69.5z"/>
	<path id="XMLID_441_" d="M49,94.6c-0.4-1-0.3-1.8-0.1-2.6c0.4-2.2,0.7-4.4,1.1-6.6c0.1-0.3,0.2-0.7,0.3-1c0.1-0.1,0.3-0.3,0.5-0.3
		c0.2,0,0.4,0.2,0.4,0.4c0.1,0.2,0.1,0.5,0.1,0.8c-0.2,2.6-0.8,5.2-1.6,7.7C49.6,93.6,49.3,94,49,94.6z"/>
	<path id="XMLID_440_" d="M33.8,93.5c-0.2-4.2,0.6-10.7,1.2-12.3c0.3-0.1,0.5,0.1,0.5,0.4c0,0.5,0.1,1.1,0,1.6
		c-0.5,3.2-0.9,6.4-1.4,9.6C34,93.1,33.9,93.3,33.8,93.5z"/>
	<path id="XMLID_437_" d="M18.4,16.7c0.9,0.2,1.5,0.7,1.4,1.7c0,0.5-0.1,0.9-0.3,1.4c-0.5,1.1-1.7,1.3-2.5,0.3
		c-0.5-0.7-0.7-1.5-0.5-2.3C16.8,16.9,17.5,16.5,18.4,16.7z M17.9,19c0.1,0,0.1,0.1,0.2,0.1c0.2-0.2,0.3-0.3,0.5-0.5
		c0.1-0.1,0-0.2,0-0.4c-0.1,0-0.3,0-0.3,0.1C18.2,18.5,18.1,18.8,17.9,19z"/>
	<path id="XMLID_434_" d="M32.8,23c-0.1,1.1-2,2-3.1,1.5c-0.1-0.1-0.2-0.1-0.3-0.2c-0.6-0.5-0.7-1.3-0.4-2c0.4-1,1.3-1.6,2.2-1.4
		c0.7,0.1,1.5,0.8,1.6,1.4C32.9,22.5,32.8,22.8,32.8,23z M31.8,22.4c-0.7-0.4-0.7-0.4-1.4,0c-0.1,0-0.2,0.2-0.2,0.3
		c0,0.1,0,0.3,0,0.4c0.1,0.2,0.2,0.3,0.3,0.5C31.2,23.3,31.7,23.1,31.8,22.4z"/>
	<path id="XMLID_433_" d="M31.3,28.7c-0.8-0.2-1.4-0.9-1.4-1.7c0-0.8,1-1.4,1.8-1.1c0.4,0.2,0.7,0.4,1,0.7c0.5,0.4,0.6,1.1,0.3,1.6
		c-0.2,0.5-0.7,0.7-1.4,0.6C31.6,28.8,31.4,28.8,31.3,28.7z"/>
	<path id="XMLID_432_" d="M21,10.3c0.8-0.1,1.3,1,2.1,0c-0.2-0.1-0.5-0.2-0.7-0.2c-0.2-0.1-0.3-0.2-0.5-0.2c0.4-0.8,0.7-1,1.1-0.8
		c0.9,0.3,1.5,1,1.3,1.7c-0.2,0.7-1,1.2-1.9,1C21.7,11.6,21.1,11.3,21,10.3z"/>
	<path id="XMLID_431_" d="M44.4,24.7c-0.1,0.5-0.9,1.2-1.5,1.2c-0.6,0-1.1-0.7-1-1.5c0-0.6,0.6-1.1,1.3-1
		C43.9,23.4,44.5,24.1,44.4,24.7z"/>
	<path id="XMLID_430_" d="M27.3,18.9c0.4,0.7,0.8,1,0.7,1.2c-0.1,0.6-0.3,1.3-0.7,1.8c-0.3,0.5-1.1,0.5-1.4,0.2
		c-0.5-0.5-0.6-1.4-0.1-1.8c0.1-0.1,0.4-0.2,0.5-0.2c0.2,0,0.6,0.1,0.7,0C27.2,20,27.1,19.6,27.3,18.9z"/>
	<path id="XMLID_429_" d="M35.1,21.2c-1-0.3-1.5-0.8-1.5-1.6c0-0.3,0.2-0.7,0.5-0.8c0.7-0.3,1.7,0.1,2.1,0.8
		c0.2,0.4,0.2,1.1-0.1,1.3C35.7,21.1,35.3,21.2,35.1,21.2z"/>
	<path id="XMLID_428_" d="M16,23.8c-0.8-0.1-1.4-0.7-1.3-1.3c0.1-0.6,0.9-0.9,1.6-0.7c0.6,0.1,1,0.6,0.9,1.1
		C17.2,23.5,16.6,23.9,16,23.8z"/>
	<path id="XMLID_427_" d="M68.9,28.1c0.3-0.8,0.6-1.6,0.9-2.4c0.1-0.1,0.3-0.3,0.5-0.3c0.2,0.1,0.4,0.3,0.6,0.5
		c0.1,0.1,0.1,0.3,0,0.4c-0.2,0.9-0.6,1.6-1.5,1.9C69.3,28.3,69.1,28.2,68.9,28.1z"/>
	<path id="XMLID_426_" d="M73.6,27.9c0.6-1.2,1.1-2.4,0.9-3.7c0.4-0.4,0.6-0.2,0.7,0c0.6,1.5,0.2,2.9-1.3,3.8
		C73.9,28,73.8,28,73.6,27.9z"/>
	<path id="XMLID_425_" d="M18.5,81.7c0.1,0.1,0.4,0.3,0.4,0.4c0.1,1.8,0.1,3.6,0.1,5.4c0,0.5-0.2,1.1-0.3,1.6c-0.1-2-0.2-4-0.3-6
		C18.3,82.6,18.4,82.1,18.5,81.7C18.5,81.7,18.5,81.7,18.5,81.7z"/>
	<path id="XMLID_424_" d="M26.9,42.1c-0.2-1.1,0-2.1,0.7-2.7c0.1-0.1,0.4-0.1,0.5-0.1c0.2,0.2,0.4,0.5,0.4,0.6
		C28.2,40.9,27.9,41.8,26.9,42.1z"/>
	<path id="XMLID_423_" d="M51.9,23.6c-1,0.5-1.2,1.7-2.5,1.5c0-0.4,0-1,0.2-1.3c0.3-0.4,0.8-0.7,1.3-0.9
		C51.1,22.9,51.4,23.3,51.9,23.6z"/>
	<path id="XMLID_422_" d="M20.8,22.3c0.1-0.4,0.7-0.8,1.2-0.7c0.4,0,0.8,0.5,0.7,0.8c-0.1,0.5-0.6,1.1-1,1.1
		C21.3,23.4,20.8,22.7,20.8,22.3z"/>
	<path id="XMLID_421_" d="M72.1,25.2c0.8-0.1,0.9,0.4,0.9,0.9c0,1-0.4,1.4-1.6,1.8C71.7,26.9,71.9,26,72.1,25.2z"/>
	<path id="XMLID_420_" d="M38.9,20.3c0.3,0.4,0.6,0.7,0.8,1c0.2,0.3-0.2,0.8-0.6,0.9c-0.7,0.1-1.3-0.6-1-1.3
		C38.1,20.6,38.5,20.5,38.9,20.3z"/>
	<path id="XMLID_419_" d="M63.9,27.3c-0.1-0.9,0.3-1.3,0.8-1.8c0.3-0.2,0.7-0.2,0.9,0.2c0.1,0.2,0.1,0.6,0,0.7
		C65.2,26.8,64.7,27.2,63.9,27.3z"/>
	<path id="XMLID_418_" d="M66.7,27.9c0-0.7,0.2-1.3,0.7-1.8c0.1-0.1,0.4-0.1,0.5-0.1c0.2,0.1,0.3,0.3,0.3,0.4
		C68.2,27.3,67.8,27.7,66.7,27.9z"/>
	<path id="XMLID_417_" d="M31.4,7.6c0.4,0.1,0.7,0.7,0.6,1.1c-0.1,0.4-0.6,0.7-0.9,0.6c-0.5-0.1-0.7-0.6-0.6-1.1
		C30.6,7.8,31,7.5,31.4,7.6z"/>
	<path id="XMLID_416_" d="M27.3,29.6c-0.1,0.5-0.6,0.9-1,0.9c-0.4,0-0.5-0.4-0.5-0.7c0-0.5,0.5-0.9,0.9-0.7
		C27,29.2,27.2,29.5,27.3,29.6z"/>
	<path id="XMLID_415_" d="M39.7,9.3c-0.1,0.1-0.4,0.2-0.6,0.2c-0.4,0-0.8-0.6-0.6-1c0.1-0.2,0.4-0.4,0.6-0.3
		C39.5,8.2,39.8,8.7,39.7,9.3z"/>
	<path id="XMLID_414_" d="M63.7,26.1c-0.2,0.1-0.5,0.3-0.8,0.4c-0.2,0-0.5-0.1-0.7-0.2c-0.1,0-0.1-0.3,0-0.4
		c0.3-0.5,0.9-0.6,1.4-0.3C63.6,25.7,63.6,25.9,63.7,26.1z"/>
	<path id="XMLID_413_" d="M37,47c-0.3,0.2-0.5,0.4-0.7,0.4c-0.3,0-0.5-0.4-0.4-0.8c0.1-0.3,0.5-0.7,0.7-0.6
		C36.8,46.3,36.8,46.6,37,47z"/>
	<path id="XMLID_412_" d="M37.2,56.1c-0.4,0.2-0.7,0.5-0.9,0.4c-0.3,0-0.6-0.3-0.5-0.7c0-0.3,0.4-0.7,0.7-0.5
		C36.7,55.5,36.9,55.8,37.2,56.1z"/>
	<path id="XMLID_411_" d="M41.5,47.6c0.3,0.4,0.5,0.6,0.6,0.9c0,0.1-0.3,0.4-0.5,0.5c-0.4,0-0.6-0.3-0.6-0.6
		C41,48.1,41.2,47.9,41.5,47.6z"/>
	<path id="XMLID_410_" d="M42.5,43.6c-0.2,0-0.4,0.2-0.6,0.1c-0.4-0.1-0.6-0.7-0.4-1c0.2-0.1,0.5-0.2,0.7-0.1
		C42.6,42.8,42.7,43.1,42.5,43.6z"/>
	<path id="XMLID_409_" d="M30.7,50.5c-0.2-0.5-0.3-0.8-0.4-1.2c0-0.1,0.3-0.4,0.5-0.4c0.5,0,0.7,0.6,0.5,1
		C31.3,50.1,31,50.2,30.7,50.5z"/>
	<path id="XMLID_408_" d="M31,30.7c0.4,0.3,0.6,0.4,0.7,0.6c0.2,0.3,0.1,0.7-0.2,0.8c-0.4,0.1-0.7,0-0.7-0.4
		C30.8,31.5,30.9,31.2,31,30.7z"/>
	<path id="XMLID_407_" d="M17.1,29.6c0.1,0.1,0.3,0.1,0.4,0.2c0.1,0.1,0.2,0.4,0.1,0.5c0,0.1-0.3,0.4-0.4,0.3
		c-0.3-0.1-0.7-0.3-1-0.5c-0.2-0.2,0-0.5,0.3-0.5C16.7,29.6,16.9,29.6,17.1,29.6z"/>
	<path id="XMLID_406_" d="M25.8,60.9c0.8-0.4,0.9-0.3,1.1,0.1c0.2,0.3,0,0.7-0.3,0.8C26,61.9,25.9,61.4,25.8,60.9z"/>
	<path id="XMLID_405_" d="M35,25.8c1,0.1,1.3,0.4,1.2,0.8c0,0.2-0.2,0.3-0.4,0.4C35.3,27.1,35.1,26.8,35,25.8z"/>
	<path id="XMLID_404_" d="M55.6,24.5c-0.1-0.1-0.2-0.1-0.2-0.2c0-0.3,0-0.7,0.2-0.9c0.2-0.3,0.9-0.2,1,0.2c0.1,0.2-0.1,0.5-0.2,0.6
		C56.2,24.4,55.8,24.4,55.6,24.5z"/>
	<path id="XMLID_403_" d="M45.9,49c0.2,0.4,0.5,0.6,0.5,0.9c0.1,0.3-0.1,0.5-0.4,0.5c-0.4,0-0.8-0.4-0.7-0.8
		C45.4,49.5,45.6,49.3,45.9,49z"/>
	<path id="XMLID_402_" d="M30.7,54.7c-0.1,0.1-0.3,0.3-0.5,0.3c-0.4,0-0.8-0.4-0.7-0.7c0.1-0.2,0.3-0.4,0.5-0.5
		C30.4,53.7,30.7,54.1,30.7,54.7z"/>
	<path id="XMLID_401_" d="M61.3,25.8c-0.3,0.2-0.4,0.4-0.5,0.4c-0.3,0-0.7,0-0.7-0.5c0-0.3,0.1-0.6,0.4-0.5
		C60.7,25.3,60.9,25.6,61.3,25.8z"/>
	<path id="XMLID_400_" d="M24.5,25.7c-0.2,0.2-0.4,0.5-0.5,0.5c-0.4,0.1-0.8-0.2-0.8-0.7c0-0.1,0.3-0.4,0.3-0.4
		C23.8,25.3,24.1,25.5,24.5,25.7z"/>
	<path id="XMLID_399_" d="M31.9,64.9c-0.1,0.1-0.3,0.3-0.5,0.3c-0.4,0-0.6-0.3-0.5-0.7c0.1-0.3,0.4-0.5,0.6-0.6
		C31.8,63.8,32,64.3,31.9,64.9z"/>
	<path id="XMLID_398_" d="M29.9,57.9c-0.3,0.2-0.5,0.5-0.7,0.5c-0.4,0-0.7-0.2-0.6-0.6c0-0.2,0.4-0.5,0.5-0.5
		C29.3,57.3,29.5,57.6,29.9,57.9z"/>
	<path id="XMLID_397_" d="M18.3,38.1c-0.1-0.4-0.3-0.6-0.3-0.9c0,0,0.3-0.2,0.4-0.2c0.3,0.1,0.6,0.3,0.4,0.7
		C18.8,37.9,18.6,37.9,18.3,38.1z"/>
	<path id="XMLID_396_" d="M22.7,37.7c-0.4,0.1-0.7,0.3-0.9,0.2c-0.3-0.1-0.6-0.4-0.5-0.8c0.1-0.3,0.4-0.4,0.6-0.3
		C22.2,37,22.3,37.3,22.7,37.7z"/>
	<path id="XMLID_395_" d="M37.6,39.5c0.2,0.3,0.4,0.6,0.3,0.8c0,0.2-0.3,0.4-0.5,0.4c-0.3,0-0.6-0.4-0.5-0.7
		C37,39.8,37.3,39.7,37.6,39.5z"/>
	<path id="XMLID_394_" d="M58.1,24.2c0.2,0.3,0.3,0.4,0.5,0.6c-0.2,0.1-0.4,0.3-0.6,0.4c-0.1-0.2-0.3-0.4-0.3-0.6
		C57.6,24.5,57.9,24.4,58.1,24.2z"/>
	<path id="XMLID_393_" d="M26.6,65c-0.3,0.1-0.5,0.3-0.6,0.2c-0.2-0.1-0.3-0.4-0.5-0.5c0.2-0.1,0.4-0.4,0.6-0.3
		C26.3,64.4,26.4,64.8,26.6,65z"/>
	<path id="XMLID_392_" d="M21.5,30.2c-0.1,0.1-0.3,0.2-0.4,0.2c-0.4,0-0.8-0.4-0.7-0.7c0-0.1,0.3-0.3,0.4-0.3
		C21.3,29.3,21.6,29.7,21.5,30.2z"/>
	<path id="XMLID_391_" d="M33,52.2c-0.4,0.1-0.7,0.3-0.8,0.2c-0.2-0.1-0.3-0.4-0.4-0.6c0.2-0.1,0.4-0.3,0.6-0.3
		C32.6,51.6,32.7,51.9,33,52.2z"/>
	<path id="XMLID_390_" d="M22.4,31.5c0.1,0.5,0.2,0.7,0.3,1c-0.2,0.1-0.4,0.2-0.5,0.1c-0.2-0.1-0.4-0.4-0.5-0.6
		C21.8,32,22.1,31.8,22.4,31.5z"/>
	<path id="XMLID_389_" d="M21.7,27.9c0.2-0.2,0.2-0.2,0.3-0.2c0.4-0.2,0.6,0,0.8,0.4c0.1,0.1-0.1,0.3-0.1,0.5
		c-0.2-0.1-0.5-0.1-0.7-0.2C21.8,28.2,21.8,28.1,21.7,27.9z"/>
	<path id="XMLID_387_" d="M18.1,41.5c0.1-0.1,0.2-0.2,0.3-0.3c0.1,0.1,0.3,0.2,0.3,0.4c0,0-0.2,0.3-0.2,0.2
		C18.4,41.7,18.3,41.6,18.1,41.5z"/>
	<path id="XMLID_386_" d="M22.1,34c-0.3,0.1-0.5,0.2-0.6,0.1c-0.1-0.1-0.2-0.3-0.3-0.4c0.1-0.1,0.3-0.2,0.4-0.2
		C21.9,33.6,21.9,33.8,22.1,34z"/>
	<path id="XMLID_385_" d="M27.6,35c-0.3,0.1-0.5,0.2-0.6,0.1C27,35,27,34.8,26.9,34.6c0.1,0,0.2-0.1,0.3-0.1
		C27.4,34.6,27.5,34.7,27.6,35z"/>
	<path id="XMLID_384_" d="M18.1,80.2c0.6,0.4,0.7,0.9,0.4,1.5c0,0,0,0,0,0c-0.1-0.3-0.1-0.6-0.2-0.8C18.3,80.6,18.2,80.4,18.1,80.2
		L18.1,80.2z"/>
	<path id="XMLID_383_" d="M40.7,24.7c-0.2,0.1-0.4,0.3-0.5,0.3c-0.1,0-0.3-0.3-0.3-0.4c0-0.1,0.2-0.2,0.3-0.4
		C40.4,24.4,40.5,24.5,40.7,24.7z"/>
	<path id="XMLID_382_" d="M15,48.4c0.2,0,0.4,0.1,0.6,0.1c0,0.1,0,0.2-0.1,0.3c-0.2-0.1-0.4-0.1-0.6-0.2C14.9,48.6,15,48.5,15,48.4z
		"/>
	<path id="XMLID_381_" d="M24.5,43.1c0.1,0.1,0.2,0.3,0.2,0.4c0,0.1-0.2,0.2-0.2,0.2c-0.1-0.1-0.2-0.3-0.3-0.4
		C24.3,43.2,24.4,43.2,24.5,43.1z"/>
	<path id="XMLID_380_" d="M18.1,80.2c0.1-0.3,0.2-0.5,0.3-0.8c0.1,0,0.1,0.1,0.2,0.1C18.4,79.7,18.2,80,18.1,80.2
		C18.1,80.2,18.1,80.2,18.1,80.2z"/>
	<path id="XMLID_379_" d="M15.1,51.1c-0.1,0-0.2,0.2-0.3,0.1c-0.1-0.1-0.2-0.2-0.2-0.3c0.1,0,0.2-0.1,0.3-0.1
		C15,50.8,15.1,51,15.1,51.1z"/>
	<path id="XMLID_378_" d="M26.5,38.9c-0.1,0.1-0.1,0.2-0.2,0.3c-0.1-0.1-0.2-0.2-0.2-0.4c0-0.1,0.2-0.1,0.2-0.2
		C26.4,38.7,26.5,38.8,26.5,38.9z"/>
	<path id="XMLID_377_" d="M28.9,32.6c-0.1,0-0.2,0.1-0.3,0c-0.1,0-0.1-0.2-0.1-0.3c0.1,0,0.3-0.1,0.4-0.1
		C28.8,32.3,28.8,32.5,28.9,32.6z"/>
	<path id="XMLID_376_" d="M80.7,87c-0.2,0.3-0.4,0.6-0.6,0.7c-0.4,0.2-0.9,0.4-1.3,0.4c-1,0.1-2,0.2-2.9,0.4c-0.1,0-0.5-0.2-0.5-0.4
		c0-0.2,0.2-0.5,0.4-0.6c0.3-0.1,0.6-0.1,1-0.2c1.1-0.2,2.2-0.4,3.3-0.8C80.1,86.6,80.4,86.9,80.7,87z"/>
	<path id="XMLID_375_" d="M72.8,88.3c-0.3,0.2-0.6,0.4-0.7,0.4c-0.3-0.1-0.6-0.4-0.9-0.6c-0.1,0,0-0.3,0-0.3
		c0.3-0.1,0.6-0.2,0.9-0.1C72.4,87.6,72.5,87.9,72.8,88.3z"/>
	<path id="XMLID_374_" d="M86.1,76.7c0.3-0.1,0.6-0.2,0.9-0.2c0.4,0,0.8,0.2,0.7,0.4c-0.1,0.2-0.4,0.4-0.6,0.4
		C86.6,77.5,86.2,77.4,86.1,76.7z"/>
	<path id="XMLID_373_" d="M87,78.9c-0.5,0.5-1,1-1.9,0.6C85.7,79,86.3,78.7,87,78.9z"/>
	<path id="XMLID_372_" d="M84.4,81.7c0.2-0.1,0.3-0.3,0.5-0.4c0.3-0.1,0.6-0.2,1-0.3c0,0.3,0,0.6-0.1,0.6C85.3,82,85.2,82,84.4,81.7
		z"/>
	<path id="XMLID_371_" d="M82.8,85.6c-0.2-0.1-0.2-0.1-0.3-0.2c0-0.1-0.1-0.3,0-0.4c0.2-0.2,0.4-0.3,0.7-0.4c0.1,0,0.3,0,0.3,0.1
		c0.1,0.1,0.1,0.3,0,0.3C83.3,85.3,83.1,85.5,82.8,85.6z"/>
	<path id="XMLID_370_" d="M83.2,83.8c0.1-0.6,0.5-0.8,1-0.8c0.1,0,0.3,0.3,0.3,0.4C84.2,83.9,83.8,84.1,83.2,83.8z"/>
	<path id="XMLID_369_" d="M73.6,88.4c0.1-0.4,0.2-0.8,0.7-0.7c0.3,0.1,0.5,0.6,0.2,0.8C74.2,88.8,73.9,88.8,73.6,88.4z"/>
	<path id="XMLID_368_" d="M53.1,107.3c0-0.2,0.1-0.3,0.1-0.5c0.2-0.6,0.5-0.9,0.7-0.7c0.4,0.3,0.4,0.7,0.3,1.1
		c-0.1,0.2-0.2,0.5-0.4,0.7c-0.1,0.1-0.4,0.1-0.5,0.1c-0.1,0-0.2-0.2-0.2-0.3C53,107.5,53.1,107.4,53.1,107.3z"/>
	<path id="XMLID_367_" d="M57.1,107.1c-0.5-0.1-0.6-0.4-0.5-0.7c0.1-0.5,0-1.2,0.9-1.4C57.6,105.8,57.5,106.4,57.1,107.1z"/>
	<path id="XMLID_366_" d="M51.8,107.5c-0.2,0.1-0.4,0.3-0.6,0.3c-0.1,0-0.3-0.2-0.4-0.4c-0.1-0.2,0-0.4,0.1-0.6
		c0.1-0.2,0.3-0.4,0.4-0.4c0.1,0,0.3,0.2,0.4,0.3C51.8,107,51.8,107.2,51.8,107.5z"/>
	<path id="XMLID_365_" d="M54.7,107.4c0.1-0.6,0.2-1.1,0.3-1.7c0.6,0.2,0.6,0.6,0.6,1.1C55.6,107.2,55.4,107.6,54.7,107.4z"/>
	<path id="XMLID_364_" d="M48.3,108.2c-0.3,0.1-0.5,0.2-0.7,0.1c-0.3-0.1-0.5-0.6-0.2-0.8c0.1-0.1,0.4-0.1,0.5,0
		C48.1,107.6,48.1,107.9,48.3,108.2z"/>
	<path id="XMLID_363_" d="M45.6,108.1c-0.5,0-0.7,0.1-0.9,0.1c-0.1,0-0.3-0.4-0.3-0.5c0.2-0.2,0.4-0.4,0.6-0.4
		C45.2,107.4,45.3,107.7,45.6,108.1z"/>
	<path id="XMLID_362_" d="M50.4,107.7c-0.3,0.1-0.5,0.3-0.7,0.3c-0.1,0-0.3-0.3-0.3-0.4c0-0.3,0.1-0.5,0.4-0.5
		C50,107.1,50.1,107.4,50.4,107.7z"/>
	<path id="XMLID_361_" d="M39.5,106.2c0.1,0.3,0.2,0.4,0.2,0.6c0,0.1-0.3,0.2-0.4,0.2c-0.1,0-0.2-0.3-0.2-0.4
		C39.1,106.4,39.3,106.3,39.5,106.2z"/>
	<path id="XMLID_360_" d="M42.6,108.2c-0.1-0.3-0.3-0.5-0.3-0.7c0,0,0.3-0.2,0.4-0.2c0.1,0,0.3,0.2,0.3,0.4
		C43,107.7,42.8,107.9,42.6,108.2z"/>
	<path id="XMLID_359_" class="st0" d="M17.9,19c0.1-0.2,0.2-0.5,0.3-0.7c0-0.1,0.2,0,0.3-0.1c0,0.1,0.1,0.3,0,0.4
		c-0.1,0.2-0.3,0.4-0.5,0.5C18.1,19.1,18,19.1,17.9,19z"/>
	<path id="XMLID_358_" class="st0" d="M31.8,22.4c-0.1,0.7-0.6,0.9-1.3,1.1c-0.1-0.2-0.2-0.3-0.3-0.5c0-0.1,0-0.3,0-0.4
		c0.1-0.1,0.1-0.2,0.2-0.3C31.2,22,31.2,22,31.8,22.4z"/>
</g>
<g id="XMLID_259_">
	<g id="XMLID_739_">
		<g id="XMLID_743_">
			<g id="XMLID_744_">
				<g id="XMLID_745_">
					<path id="XMLID_833_" class="st1" d="M84.6,93.6c0,0-0.1,0.2-0.1,0.2C84.6,93.8,84.6,93.5,84.6,93.6z"/>
					<polygon id="XMLID_832_" class="st1" points="85.3,93.3 85.3,93.3 85.4,93.1 					"/>
					<path id="XMLID_831_" class="st1" d="M85.8,93.3c0-0.4-0.2,0-0.3-0.1l0-0.1l-0.1,0.3C85.6,93.4,85.7,93.2,85.8,93.3z"/>
					<path id="XMLID_830_" class="st1" d="M86,94.2C86,94,86.1,94.1,86,94.2C85.9,94.1,85.9,94.2,86,94.2C85.9,94.2,86,94.2,86,94.2
						z"/>
					<path id="XMLID_829_" class="st1" d="M85.9,94.2C85.9,94.2,86,94.3,85.9,94.2L85.9,94.2z"/>
					<path id="XMLID_828_" class="st1" d="M86.2,94.1l-0.1,0.1c0,0.1,0.1,0.1,0.1,0.2C86.3,94.3,86.3,94.2,86.2,94.1z"/>
					<path id="XMLID_827_" class="st1" d="M86.3,93.8L86.3,93.8C86.3,93.9,86.3,93.9,86.3,93.8z"/>
					<path id="XMLID_826_" class="st1" d="M86.2,94l0.1-0.1C86.2,93.8,86.2,93.7,86.2,94C86.2,93.8,86.2,93.9,86.2,94z"/>
					<path id="XMLID_825_" class="st1" d="M86.1,93.9c0-0.1-0.1-0.1,0-0.3C86,93.7,86,94,86.1,93.9z"/>
					<path id="XMLID_824_" class="st1" d="M85.9,93l0-0.1L85.9,93C85.8,92.9,85.8,93.1,85.9,93z"/>
					<path id="XMLID_823_" class="st1" d="M86.7,94.3c0-0.1,0-0.2,0-0.3l-0.1,0.1C86.6,94.1,86.7,94.2,86.7,94.3z"/>
					<path id="XMLID_822_" class="st1" d="M86.7,94l0.1-0.1C86.7,93.8,86.7,93.9,86.7,94z"/>
					<polygon id="XMLID_821_" class="st1" points="86.3,93.4 86.2,93.7 86.3,93.4 					"/>
					<polygon id="XMLID_820_" class="st1" points="87,94.3 87,94.5 87.1,94.2 					"/>
					<path id="XMLID_819_" class="st1" d="M87.3,94.2c0,0.2,0.1,0.2,0.1,0.3c0.1,0,0.1-0.2,0.1-0.3C87.4,94.3,87.3,94.3,87.3,94.2z"
						/>
					<path id="XMLID_818_" class="st1" d="M87.5,94.1c0,0,0,0.1,0,0.2C87.4,94.2,87.5,94.2,87.5,94.1z"/>
					<path id="XMLID_817_" class="st1" d="M86.9,93.9c0,0,0,0.2,0.1,0.2L86.9,93.9L86.9,93.9z"/>
					<path id="XMLID_816_" class="st1" d="M86.9,93.9L86.9,93.9C86.9,93.9,87,93.9,86.9,93.9C87,93.9,86.9,93.9,86.9,93.9z"/>
					<path id="XMLID_815_" class="st1" d="M86.9,93.9L86.9,93.9C86.9,93.8,86.9,93.8,86.9,93.9z"/>
					<path id="XMLID_814_" class="st1" d="M86.5,93.6c0-0.1,0.1-0.3,0-0.4C86.5,93.3,86.6,93.4,86.5,93.6z"/>
					<path id="XMLID_813_" class="st1" d="M86.8,93.6L86.8,93.6c-0.1,0-0.1,0.1-0.1,0.2L86.8,93.6z"/>
					<polygon id="XMLID_812_" class="st1" points="86.8,93.5 86.8,93.6 86.8,93.6 					"/>
					<path id="XMLID_811_" class="st1" d="M87.3,93.9c0-0.1,0.1-0.1,0.1-0.1c-0.1,0-0.1-0.1-0.2,0C87.2,93.8,87.2,93.9,87.3,93.9z"
						/>
					<path id="XMLID_810_" class="st1" d="M87.1,93.9L87.1,93.9C87.1,93.8,87.1,93.8,87.1,93.9z"/>
					<polygon id="XMLID_809_" class="st1" points="87.8,93.7 87.8,93.6 87.8,93.7 					"/>
					<path id="XMLID_808_" class="st1" d="M87.2,93.7C87.2,93.6,87.2,93.7,87.2,93.7C87.2,93.8,87.2,93.7,87.2,93.7
						C87.2,93.7,87.2,93.7,87.2,93.7z"/>
					<path id="XMLID_807_" class="st1" d="M87.6,94c0,0-0.1-0.1-0.1-0.1C87.5,93.9,87.6,94,87.6,94z"/>
					<path id="XMLID_806_" class="st1" d="M87.1,93.9L87.1,93.9C87.1,94,87.1,93.9,87.1,93.9z"/>
					<path id="XMLID_805_" class="st1" d="M87.1,93.9c0,0,0-0.1,0-0.1C87.1,93.8,87.1,93.8,87.1,93.9C87.1,93.9,87.1,93.9,87.1,93.9
						z"/>
					<path id="XMLID_804_" class="st1" d="M87.6,92.3c0,0.2,0,0.4-0.1,0.2c0,0.2,0.2,0.8,0.3,1.2c0-0.1,0-0.2,0-0.3
						c-0.1-0.1-0.2-0.2-0.2-0.4c0.1-0.1,0.1,0.1,0.2,0.1C87.7,92.8,87.8,92.7,87.6,92.3l0,0.2C87.6,92.4,87.6,92.3,87.6,92.3z"/>
					<path id="XMLID_803_" class="st1" d="M87.7,93.7L87.7,93.7c0,0.1,0.1,0.1,0.1,0.3c0-0.1,0-0.2,0-0.3L87.7,93.7L87.7,93.7z"/>
					<path id="XMLID_802_" class="st1" d="M87.5,93.7c0-0.2,0-0.3,0-0.6c-0.1,0,0,0.2-0.1,0.3C87.5,93.4,87.3,93.6,87.5,93.7
						C87.5,93.7,87.4,93.8,87.5,93.7c0,0.1,0,0.1,0,0.1l0,0l0,0l0,0C87.5,93.8,87.5,93.8,87.5,93.7L87.5,93.7
						C87.5,93.8,87.5,93.7,87.5,93.7C87.5,93.8,87.5,93.8,87.5,93.7l0,0.1l0,0l0.1-0.2C87.6,93.7,87.6,93.7,87.5,93.7z"/>
					<path id="XMLID_801_" class="st1" d="M86.6,92.7C86.6,92.7,86.6,92.7,86.6,92.7C86.6,92.7,86.6,92.7,86.6,92.7z"/>
					<path id="XMLID_800_" class="st1" d="M86.7,92.8c0,0,0,0.1,0,0.1C86.6,92.9,86.6,92.8,86.7,92.8c-0.1,0-0.1,0.1-0.1,0.2l0,0
						c0.1,0.1,0.2,0.3,0.1,0.4C86.7,93.2,86.7,93,86.7,92.8z"/>
					<path id="XMLID_799_" class="st1" d="M87,93.2l0.1-0.1l-0.1-0.2l0,0.1C87,93,87,93.1,87,93.2z"/>
					<polygon id="XMLID_798_" class="st1" points="87.9,93.8 87.9,94 87.9,93.7 					"/>
					<polygon id="XMLID_797_" class="st1" points="88,93.7 88.1,93.9 88.1,93.8 					"/>
					<path id="XMLID_796_" class="st1" d="M92.1,86.4L92.1,86.4C92.1,86.4,92.1,86.4,92.1,86.4z"/>
					<path id="XMLID_795_" class="st1" d="M92,86.6L92,86.6C92,86.6,92,86.6,92,86.6z"/>
					<path id="XMLID_794_" class="st1" d="M91.6,91.5c0.2,0.1,0.4,0.3,0.3,0.1L91.6,91.5C91.7,91.6,91.6,91.6,91.6,91.5z"/>
					<path id="XMLID_793_" class="st1" d="M92.1,88.7L92.1,88.7c0,0,0,0.1,0.1,0.1C92.2,88.8,92.1,88.8,92.1,88.7z"/>
					<path id="XMLID_792_" class="st1" d="M91.4,88.2l0.2,0C91.5,88.2,91.4,88.2,91.4,88.2z"/>
					<path id="XMLID_791_" class="st1" d="M92.3,85.2l-0.2-0.1C92.1,85.2,92.2,85.2,92.3,85.2z"/>
					<path id="XMLID_790_" class="st1" d="M89.7,93c0.1,0.1,0.1,0.1,0.2,0.1C89.7,92.9,89.6,92.8,89.7,93z"/>
					<path id="XMLID_789_" class="st1" d="M94.2,87.5c0,0-0.1-0.1-0.1-0.1C94.1,87.4,94.2,87.5,94.2,87.5z"/>
					<path id="XMLID_788_" class="st1" d="M90,92.9C89.9,92.9,89.9,92.9,90,92.9c-0.1,0-0.1,0.1-0.1,0.1C89.9,93.1,90,93.1,90,92.9z
						"/>
					<path id="XMLID_787_" class="st1" d="M93.1,81.2C93.2,81.2,93.2,81.2,93.1,81.2C93.1,81.2,93.1,81.2,93.1,81.2z"/>
					<path id="XMLID_786_" class="st1" d="M95.5,80.1C95.5,80.1,95.5,80.1,95.5,80.1C95.5,80.1,95.5,80.1,95.5,80.1z"/>
					<path id="XMLID_785_" class="st1" d="M88.8,93.6C88.7,93.6,88.8,93.6,88.8,93.6L88.8,93.6z"/>
					<path id="XMLID_784_" class="st1" d="M88.3,92.8c0,0,0-0.1,0-0.1C88.3,92.8,88.3,92.8,88.3,92.8z"/>
					<path id="XMLID_783_" class="st1" d="M89.5,91.6L89.5,91.6C89.4,91.5,89.4,91.6,89.5,91.6z"/>
					<path id="XMLID_782_" class="st1" d="M88.7,93.5C88.7,93.5,88.7,93.5,88.7,93.5C88.7,93.5,88.7,93.5,88.7,93.5z"/>
					<path id="XMLID_781_" class="st1" d="M88.7,93.6C88.7,93.6,88.7,93.6,88.7,93.6C88.7,93.6,88.7,93.7,88.7,93.6z"/>
					<path id="XMLID_780_" class="st1" d="M88.8,93.6C88.8,93.6,88.8,93.6,88.8,93.6C88.7,93.6,88.8,93.6,88.8,93.6
						C88.8,93.6,88.8,93.6,88.8,93.6z"/>
					<path id="XMLID_779_" class="st1" d="M93.6,83.5C93.6,83.5,93.6,83.5,93.6,83.5C93.5,83.5,93.5,83.5,93.6,83.5z"/>
					<polygon id="XMLID_778_" class="st1" points="90.4,89.4 90.4,89.4 90.4,89.4 					"/>
					<path id="XMLID_777_" class="st1" d="M90.3,89.2c0.2,0.2,0.1,0.2,0.1,0.2l0.5,0.4L90.3,89.2z"/>
					<path id="XMLID_769_" class="st1" d="M92.2,85.9l-0.2,0c-0.3-0.2-0.2-0.2-0.4-0.3c0.7,0.3,0,0.3,0.6,0.6l-0.2,0c0,0,0,0,0,0
						c-0.3-0.1,0.4,0.3,0.3,0.3c-0.1,0-0.2,0-0.2-0.1l0.1,0.2c0,0-0.1,0-0.1-0.1l0,0.1l0,0c0.1,0.1,0.2,0.2,0.3,0.2
						c-0.1,0-0.1,0-0.1-0.1l0.1,0.1c-0.2-0.1-0.3-0.2-0.3-0.2c-0.7-0.2,0.1,0.1-0.3,0.1l0-0.1c-0.4-0.1-0.3,0-0.5-0.1
						c0.1,0,0.6,0.1,0.8,0.3c-0.1,0-0.1,0,0,0.1c-0.2-0.1-0.2,0-0.2,0l-0.3-0.2c0.1,0.1,0.2,0.2,0.3,0.3c-0.1,0-0.3-0.1-0.5-0.2
						c-0.1,0.1,0.4,0.1,0.4,0.3c-0.2,0-0.1,0.1,0.1,0.3c-0.1,0-0.2-0.1-0.3-0.1l0.2,0.2c0,0-0.1,0-0.1-0.1c0.1,0.1,0.3,0.2,0.3,0.3
						c0.3,0.2-0.5-0.1-0.2,0.1c-0.1,0-0.2-0.1-0.3-0.2c0.2,0.2,0.1,0.2,0.4,0.5l-0.2,0c0.2,0.1,0.4,0.3,0.6,0.5
						c0.1,0,0.2,0.1,0.3,0.1l0.1,0.2c-0.1,0-0.1-0.1-0.2-0.2l0.1,0.1c-0.1,0-0.3-0.2-0.4-0.3c0.1,0,0.1,0.1,0.2,0.1
						c-0.2-0.1-0.3-0.3-0.5-0.4c0,0,0,0.1,0.1,0.1c0,0-0.1-0.1-0.1-0.1c0,0,0,0,0.1,0.1l-0.3-0.2l0.1,0.1l-0.3,0
						c0.2,0.3,0.6,0.7,0.7,0.9c-0.2-0.2-0.4-0.3-0.6-0.5c0.3,0.2,0-0.2,0.1-0.2c-0.1,0-0.2-0.1-0.2-0.1l0.2,0.3
						c-0.2-0.2-0.2-0.1-0.3-0.1c0.4,0.3,0.2,0.3,0.3,0.4C91,89,90.9,88.9,91,88.8c-0.4-0.2,0.4,0.5,0.1,0.3c0,0,0,0,0-0.1
						c0.1,0.1-0.1,0.1-0.2,0l0,0c-0.1,0.1-0.2,0.3,0.1,0.6c0,0-0.4-0.4-0.5-0.4c0,0,0.2,0.3,0.5,0.6c0.2,0.3,0.5,0.6,0.5,0.6
						c-0.3-0.3-1-0.8-1.1-1c-0.1,0-0.1,0-0.1,0.1c0.1,0,0.4,0.3,0.5,0.4c-0.4-0.2-0.2-0.1-0.5-0.3c0.1,0,0.5,0.5,0.5,0.5
						c-0.1-0.1-0.4-0.4-0.5-0.4l0.3,0.5c-0.1-0.1-0.4-0.3-0.5-0.4c0.1,0.1-0.1,0.1-0.1,0.1l0.1,0.1c-0.2,0,0.5,0.7,0.4,0.8
						C90.5,90.5,90,90,89.9,90c0.2,0.2,0.9,1.1,1,1.4l-0.1-0.1l0.1,0.2c-0.2-0.4-0.8-1.2-1-1.5c-0.1-0.1-0.1-0.1-0.2-0.1
						c-0.1-0.1-0.1-0.2-0.1-0.2l-0.2,0c0.2,0.3,0.1,0.3,0.3,0.6l-0.1-0.4c0.2,0.2,0.6,0.8,0.5,0.8c-0.1-0.1-0.4-0.5-0.5-0.6
						c0.1,0.1,0.1,0.2,0,0.2l-0.1-0.2c-0.1-0.1,0.2,0.4-0.1,0.2c0,0-0.3-0.3-0.2-0.1c0.3,0.3,1.1,1.2,1.2,1.5c0,0-0.4-0.2-0.5-0.3
						c-0.2-0.2-0.4-0.6-0.6-0.8c0.1,0.1,0.1,0.2,0.1,0.2c-0.1,0-0.2-0.2-0.2-0.2c0.2,0.3-0.1,0.1,0.2,0.3c0,0.1-0.1,0-0.1,0
						c0.2,0.2,0.4,0.7,0.4,0.8c0-0.1-0.1-0.2-0.2-0.2c-0.1,0.1-0.3,0-0.4,0c-0.1-0.1-0.2-0.1-0.2-0.3c0,0.1,0.1,0.2,0,0.2
						c-0.2-0.2,0-0.1-0.2-0.4c0.1,0.2,0.1,0.3,0.1,0.4c0.2,0.3,0.1,0,0.1-0.1c0.2,0.4,0.4,0.8,0.3,1.1c-0.1,0.2-0.2-0.2-0.2-0.2
						c-0.2,0,0.2,0.8-0.1,0.6c-0.2-0.2-0.2-0.5-0.3-0.7c0-0.1,0.2,0.1,0.3,0.1l-0.1-0.1c0-0.1,0-0.2,0.1-0.1c-0.2-0.2-0.3,0.1-0.6,0
						c0,0.1,0,0.2,0.1,0.3l0-0.1c0.1,0.2,0,0.3,0.1,0.4c0,0.2,0,0.4-0.2,0.4l-0.1-0.3c0,0.1,0.1,0.2,0.1,0.1c0,0.1-0.3-0.4-0.2,0.1
						l0.1,0.2c0,0.2,0,0.5-0.1,0.5c0.1,0.3,0,0,0.2,0.3c-0.2-0.4,0.3-0.1,0-0.5c0.2,0.4,0.2,0.1,0.4,0.4c0-0.1-0.1-0.2,0-0.2
						c0,0,0-0.1,0-0.1l0,0l0,0c0,0,0,0,0,0c0,0-0.1-0.1-0.1-0.1c0-0.2,0.1-0.3,0.1-0.4c0.1,0,0,0.1,0.1,0.2l0-0.2
						c0.1,0.2,0.3,0.3,0.2,0.5l0.1,0c0.1,0.1,0.2,0.1,0.2,0c0.1,0,0-0.3,0-0.1l0.1-0.2l0,0.1c0.2-0.1,0.1-0.5,0.5-0.2
						c0-0.1,0-0.2,0.1-0.2l0.1,0.2c0-0.1,0.3,0,0.2-0.1c0.4,0.4,0.4-0.1,0.5-0.1l-0.2-0.2c0.1,0,0.1-0.2,0.1-0.3L90.7,92
						c-0.1-0.2,0.3,0,0.4-0.1c0.1,0.1,0,0.1,0,0.1c0.5,0.3,0-0.5,0.4-0.3c0-0.1,0-0.1,0.1-0.1c0,0,0,0,0,0c0,0,0,0,0,0
						c0,0,0.1,0,0.1,0.1c-0.1,0-0.1-0.1-0.1-0.1c0,0,0-0.1,0-0.1l0.2,0.2c0,0,0,0,0,0c0.1,0-0.1-0.1-0.2-0.2c0,0,0-0.1-0.1-0.1
						c0.3,0.3,0-0.2,0.3,0.1c-0.1-0.2,0-0.3-0.3-0.6c0,0,0.1,0,0.1,0.1c0.1,0,0.1,0,0.1-0.1l0.3,0.2l-0.3-0.4
						c0.2,0.1,0.3,0.1,0.4,0.3c-0.2-0.4,0-0.2-0.2-0.5l0.2,0.1c0,0-0.1-0.3,0-0.2c0.4,0.2,0.3-0.3,0.8-0.3c-0.5-0.3,0.3,0.1-0.1-0.2
						c0.1,0.1,0.2,0.1,0.3,0.2c0-0.2,0.3,0,0-0.3c0.1,0.1,0.2,0.1,0.2,0.2c0,0-0.1-0.1,0-0.1c0.1,0,0.1,0.1,0.1,0.1
						c0.1-0.1-0.3-0.4-0.6-0.6c0.2,0.1,0.2,0,0-0.2c0.1,0.1,0.3,0.1,0.3,0.2c0,0,0.3-0.1,0-0.3c0.1,0,0.1,0,0-0.1
						c0.1-0.1,0.1-0.1,0.1-0.2l-0.1,0c-0.3-0.2,0-0.1,0-0.2l0,0c0.3,0-0.1-0.1,0.3-0.1l-0.2-0.1c-0.5-0.3,0.4,0,0.2-0.2l-0.1,0
						c-0.1-0.1,0.7,0.2,0.8,0.2c0,0,0.1,0.1,0.1,0.1c0.4,0-0.3-0.2-0.3-0.3c0.2,0.1,0.4,0.2,0.5,0.2c0.1,0-0.4-0.5-0.1-0.4
						c-0.1,0-0.3-0.1-0.3-0.2c0-0.1,0.6,0,0.2-0.2c0,0,0.1,0,0.1,0C94,87.3,94,87.1,93.8,87c0.8,0.3-0.2-0.5,0.5-0.2l0-0.2l0.1,0
						c0.1-0.1-0.1-0.2-0.2-0.3c0.1,0,0.1,0,0.2,0.1c0.2-0.1,0.2-0.1-0.1-0.4l0.2,0.1c-0.1-0.1,0.5-0.1,0.2-0.4c0,0,0.1,0,0.1,0.1
						c-0.2-0.3,0.8-0.3-0.1-0.6L94.6,85c-0.1,0.1-0.4-0.1-0.6-0.1c0-0.1,0.3-0.1,0.3,0l0,0c0.5,0.2,0.2-0.2,0.5-0.1
						c0.1-0.3,0.4-0.6,0.5-0.9l-0.4,0l0-0.1c0.1,0,0.3,0,0.3,0.1c0.2,0-0.2-0.2-0.2-0.2c0.2-0.1,0.4,0.1,0.4,0.1l0-0.1l0,0
						c-0.1-0.1-0.3-0.1-0.3-0.2c0.1,0,0.2,0,0.3,0c0,0,0,0,0,0l0.1-0.1l-0.3,0c-0.1-0.1,0-0.1-0.3-0.1c0.5,0,0.2-0.5,0.4-0.5
						c-0.2-0.1-0.2-0.2-0.2-0.3c-0.1,0-0.4,0-0.4-0.1c0.7,0.1,0.3-0.1,0.8-0.2c-0.3,0-0.1-0.3-0.5-0.2c0.1-0.1,0.3,0,0.4,0
						c-0.3-0.2,0.2-0.4,0.1-0.6c-0.1,0-0.2,0-0.4,0l0.5-0.1c0,0-0.5,0-0.2-0.1c-0.1,0-0.2,0-0.2,0c0.2-0.2,0.1-0.4,0.1-0.6
						c0-0.2,0-0.4,0.4-0.4c-0.2,0-0.2,0-0.2-0.1c0,0-0.2,0-0.3-0.1c0,0,0.1,0,0.2,0c0.1,0,0.2,0,0.2,0c-0.3-0.1,0-0.1-0.3-0.2l0,0.1
						c-0.4-0.2-0.8-0.2-1.3-0.3c0.4,0.2-0.7,0.1-0.1,0.4c-0.1,0-0.2-0.1-0.3-0.1c0.2,0.1,0.2,0.1,0.1,0.2l-0.1,0
						c0,0.3-0.2,0.3-0.3,0.6l0.2,0c0,0.1-0.1,0.1-0.2,0.1c0.4,0.1,0-0.2,0.4-0.1c-0.5,0.1,0,0.4-0.6,0.4c0,0.1,0.3,0,0.3,0.1l-0.2,0
						l0.2,0c0,0.1-0.2,0.1-0.4,0.1c0,0,0,0,0,0c-0.2,0.1,0.1,0.2,0,0.2l0.1-0.1c0.1,0.2-0.1,0.4,0.2,0.6l0.1,0
						c0.2,0.2-0.1,0.1,0,0.3l0,0c0.1,0,0.2,0.1,0.2,0.1c-0.1-0.1-0.3,0.1-0.4,0c0.2,0.2,0.2,0.1,0.6,0.2l-0.2,0
						c0.2,0.1,0.3,0.1,0.3,0.2c-0.2-0.1-0.3,0-0.5-0.1c-0.4,0.1,0.4,0.3-0.2,0.3c0.5,0.1,0.3-0.1,0.4,0c0.2,0,0.4,0.1,0.3,0.2
						c0,0.1-0.7,0-0.7,0.1c0,0,0,0,0,0c-0.1,0,0.2,0.1-0.1,0.2c0.3,0.1,0,0.1,0.4,0.2l-0.1-0.1c0.1,0.1,0.6,0.2,0.3,0.3
						c-0.1,0-0.2-0.1-0.2-0.1c-0.1,0,0.1,0.1-0.1,0.1c-0.4-0.1-0.1-0.2-0.4-0.3c-0.2,0,0.3,0.2-0.2,0.1c0.6,0.2-0.1,0.1,0.3,0.3
						L93,83.6c0,0,0.1,0.1,0.1,0.1l-0.3-0.1c0.3,0.1-0.3,0.1-0.1,0.2c0-0.1,0.3,0,0.5,0c0.3,0.2-0.7,0-0.6,0.2c0,0,0.2-0.1,0.3,0
						c-0.1,0-0.2,0.1-0.3,0c0,0.1,0.3,0,0.4,0.1c-0.3,0,0.1,0.1,0.2,0.2l-0.2-0.1c-0.2,0.1,0.5,0.2,0.3,0.3l-0.3-0.1l0.1,0.1
						l-0.3-0.1c0.2,0.1,0.1,0.1,0,0.2c0.2,0,0.4,0.1,0.4,0.2c-0.2,0-0.2-0.1-0.2,0c-0.1-0.1-0.3-0.1-0.1-0.1c-0.1,0-0.1-0.1-0.2-0.1
						c-0.2,0-0.1,0.1-0.1,0.1c0,0,0,0,0.1,0l0.3,0.2c-0.1,0-0.2,0-0.2-0.1c0,0,0.1,0.1,0.1,0.1c-0.2-0.1-0.4-0.1-0.5-0.2l0.2,0.2
						c-0.1,0-0.3,0-0.3-0.1c-0.1,0,0.3,0.3,0.1,0.3c0,0,0.1,0,0.1,0.1c-0.1,0.1-0.3,0.1-0.1,0.3l-0.4-0.1c0,0.1,0.5,0.1,0.5,0.3
						c0.1,0.1-0.3-0.1-0.4-0.1C92.2,85.8,92.5,86,92.2,85.9C92.2,85.9,92.2,85.9,92.2,85.9z M91.9,86.9
						C91.9,86.9,91.8,86.8,91.9,86.9C92.2,87,92,86.9,91.9,86.9z M91.6,88.6C91.6,88.5,91.6,88.6,91.6,88.6
						C91.7,88.6,91.7,88.6,91.6,88.6z M89.1,93.2C89.1,93.2,89.1,93.2,89.1,93.2C89.2,93.3,89.1,93.3,89.1,93.2z M88.9,93.2
						C88.9,93.2,88.9,93.3,88.9,93.2C88.9,93.2,88.9,93.2,88.9,93.2C88.9,93.2,88.9,93.1,88.9,93.2z M95.3,83.5L95.3,83.5
						C95.1,83.4,95.2,83.5,95.3,83.5z"/>
					<path id="XMLID_768_" class="st1" d="M91.4,88.3c0,0,0.1,0,0.1,0.1C91.5,88.3,91.5,88.3,91.4,88.3z"/>
					<polygon id="XMLID_767_" class="st1" points="92.3,85.3 92.3,85.3 92.3,85.2 					"/>
					<path id="XMLID_766_" class="st1" d="M89.2,90.6c0,0,0.1,0,0.1,0.1C89.3,90.6,89.2,90.6,89.2,90.6z"/>
					<path id="XMLID_765_" class="st1" d="M88.4,93.8L88.4,93.8c0-0.1,0-0.1,0-0.1C88.4,93.7,88.4,93.8,88.4,93.8z"/>
					<path id="XMLID_764_" class="st1" d="M87.4,92.5C87.4,92.5,87.4,92.5,87.4,92.5l0,0.2C87.4,92.6,87.4,92.5,87.4,92.5z"/>
					<path id="XMLID_763_" class="st1" d="M88.1,93.1C88,92.9,88,92.9,88,93l0,0C88,93.3,88.1,93.2,88.1,93.1z"/>
					<path id="XMLID_762_" class="st1" d="M88,93C87.9,93,87.9,93,88,93C87.9,93.1,87.9,93,88,93z"/>
					<path id="XMLID_761_" class="st1" d="M88.8,93.4c0,0,0.1,0.3,0,0.2C88.9,93.8,88.9,93.2,88.8,93.4z"/>
					<polygon id="XMLID_760_" class="st1" points="87.9,92.4 88,92.6 87.9,92.4 					"/>
					<path id="XMLID_759_" class="st1" d="M88.3,92.5L88.3,92.5C88.2,92.5,88.2,92.5,88.3,92.5C88.2,92.5,88.3,92.5,88.3,92.5z"/>
					<path id="XMLID_758_" class="st1" d="M88.2,92.5C88.2,92.5,88.1,92.5,88.2,92.5C88.2,92.6,88.2,92.5,88.2,92.5z"/>
					<polygon id="XMLID_757_" class="st1" points="87.9,92.3 88,92.3 88,92.3 					"/>
					<path id="XMLID_756_" class="st1" d="M89,92.2l0-0.1C89,92,89,91.9,89,92C89,92.1,89,92.1,89,92.2z"/>
					<path id="XMLID_755_" class="st1" d="M88.5,91.6c0,0,0.1,0.1,0.1,0.2l-0.1-0.3L88.5,91.6z"/>
					<path id="XMLID_754_" class="st1" d="M88.6,91.5c0-0.1,0-0.3-0.1-0.2C88.6,91.3,88.6,91.4,88.6,91.5z"/>
					<polygon id="XMLID_753_" class="st1" points="89.8,91.2 89.8,91.2 90.1,91.6 					"/>
					<path id="XMLID_752_" class="st1" d="M89.7,89.6c-0.1,0,0.2,0.2,0.1,0.2c0.1,0.1,0.1,0,0.2,0.1C89.9,89.8,90,89.8,89.7,89.6z"
						/>
					<path id="XMLID_751_" class="st1" d="M90,89.9C90,89.9,90,90,90,89.9C90,90,90,89.9,90,89.9z"/>
					<polygon id="XMLID_750_" class="st1" points="95.8,80 95.9,80 95.7,80 					"/>
					<path id="XMLID_749_" class="st1" d="M95.5,79.8l0.3,0.1L95.5,79.8C95.5,79.8,95.5,79.8,95.5,79.8z"/>
					<path id="XMLID_748_" class="st1" d="M91.3,86.7L91.3,86.7c0.2,0.1,0.2,0.1,0.2,0.1L91.3,86.7z"/>
					<polygon id="XMLID_747_" class="st1" points="91.8,86.2 91.8,86.2 92.1,86.3 					"/>
					<path id="XMLID_746_" class="st1" d="M91.7,85.5C91.7,85.5,91.7,85.5,91.7,85.5C91.7,85.5,92,85.6,91.7,85.5z"/>
				</g>
			</g>
		</g>
	</g>
</g>
<g id="XMLID_162_">
	<g id="XMLID_643_">
		<g id="XMLID_647_">
			<g id="XMLID_648_">
				<g id="XMLID_649_">
					<path id="XMLID_737_" class="st1" d="M99.2,85.1c0,0,0.2,0.1,0.2,0.1C99.4,85.2,99.2,85.1,99.2,85.1z"/>
					<polygon id="XMLID_736_" class="st1" points="98.8,84.7 98.9,84.7 98.7,84.6 					"/>
					<path id="XMLID_735_" class="st1" d="M98.9,84.4c-0.4-0.1,0,0.1-0.1,0.1l-0.1,0l0.3,0.1C99,84.6,98.8,84.5,98.9,84.4z"/>
					<path id="XMLID_734_" class="st1" d="M99.7,84.5C99.6,84.5,99.6,84.5,99.7,84.5C99.7,84.6,99.7,84.6,99.7,84.5
						C99.7,84.6,99.7,84.6,99.7,84.5z"/>
					<path id="XMLID_733_" class="st1" d="M99.7,84.6C99.7,84.6,99.8,84.6,99.7,84.6L99.7,84.6z"/>
					<path id="XMLID_732_" class="st1" d="M99.7,84.4l0.1,0.1c0.1,0,0.1,0,0.2,0C99.9,84.4,99.8,84.4,99.7,84.4z"/>
					<path id="XMLID_731_" class="st1" d="M99.4,84.3L99.4,84.3C99.5,84.3,99.5,84.3,99.4,84.3z"/>
					<path id="XMLID_730_" class="st1" d="M99.6,84.4l-0.1-0.1C99.4,84.3,99.3,84.3,99.6,84.4C99.4,84.3,99.5,84.4,99.6,84.4z"/>
					<path id="XMLID_729_" class="st1" d="M99.5,84.4c-0.1,0-0.1,0-0.3-0.1C99.3,84.4,99.5,84.5,99.5,84.4z"/>
					<path id="XMLID_728_" class="st1" d="M98.6,84.3l-0.1,0L98.6,84.3C98.5,84.3,98.7,84.4,98.6,84.3z"/>
					<path id="XMLID_727_" class="st1" d="M99.9,84.2c-0.1,0-0.2,0-0.3-0.1l0.1,0.1C99.7,84.2,99.8,84.2,99.9,84.2z"/>
					<path id="XMLID_726_" class="st1" d="M99.6,84.2l-0.1-0.1C99.5,84.1,99.5,84.2,99.6,84.2z"/>
					<polygon id="XMLID_725_" class="st1" points="99,84.2 99.3,84.3 99,84.2 					"/>
					<polygon id="XMLID_724_" class="st1" points="100,84.1 100.1,84.2 99.9,84 					"/>
					<path id="XMLID_723_" class="st1" d="M100,84c0.1,0.1,0.3,0,0.3,0.1C100.3,84,100.2,84,100,84C100.1,84,100.1,84,100,84z"/>
					<path id="XMLID_722_" class="st1" d="M99.9,83.8c0,0,0.1,0,0.2,0.1C100,83.9,100,83.9,99.9,83.8z"/>
					<path id="XMLID_721_" class="st1" d="M99.5,84c0,0,0.2,0,0.2,0L99.5,84L99.5,84z"/>
					<path id="XMLID_720_" class="st1" d="M99.5,84L99.5,84C99.6,84,99.6,84,99.5,84C99.6,84,99.6,84,99.5,84z"/>
					<path id="XMLID_719_" class="st1" d="M99.5,84L99.5,84C99.5,84,99.5,84,99.5,84z"/>
					<path id="XMLID_718_" class="st1" d="M99.2,84.1C99.1,84.1,99,84,98.8,84C99,84.1,99.1,84.1,99.2,84.1z"/>
					<path id="XMLID_717_" class="st1" d="M99.3,84L99.3,84c0,0,0.1,0.1,0.1,0.1L99.3,84z"/>
					<polygon id="XMLID_716_" class="st1" points="99.2,84 99.3,84 99.3,84 					"/>
					<path id="XMLID_715_" class="st1" d="M99.7,83.9c-0.1,0-0.1-0.1-0.1-0.1c0,0-0.1,0-0.1,0.1C99.6,83.8,99.7,83.9,99.7,83.9z"/>
					<path id="XMLID_714_" class="st1" d="M99.6,83.9L99.6,83.9C99.6,83.9,99.6,83.9,99.6,83.9z"/>
					<polygon id="XMLID_713_" class="st1" points="99.6,83.6 99.6,83.5 99.6,83.6 					"/>
					<path id="XMLID_712_" class="st1" d="M99.5,83.8C99.4,83.8,99.5,83.9,99.5,83.8C99.5,83.9,99.5,83.8,99.5,83.8
						C99.5,83.8,99.4,83.8,99.5,83.8z"/>
					<path id="XMLID_711_" class="st1" d="M99.8,83.8c0,0-0.1,0-0.1,0C99.8,83.8,99.9,83.8,99.8,83.8z"/>
					<path id="XMLID_710_" class="st1" d="M99.6,83.9L99.6,83.9C99.7,83.9,99.7,83.9,99.6,83.9z"/>
					<path id="XMLID_709_" class="st1" d="M99.6,83.9c0,0-0.1,0-0.1-0.1C99.5,83.9,99.6,83.9,99.6,83.9
						C99.6,83.9,99.6,83.9,99.6,83.9z"/>
					<path id="XMLID_708_" class="st1" d="M98.3,83.2c0.2,0,0.4,0.1,0.2,0.1c0.1,0.1,0.8,0.2,1.2,0.2c-0.1,0-0.2,0-0.3-0.1
						c-0.1,0-0.3,0-0.5,0c-0.1-0.1,0.1,0,0.2,0C98.8,83.3,98.7,83.2,98.3,83.2l0.2,0C98.4,83.2,98.3,83.2,98.3,83.2z"/>
					<path id="XMLID_707_" class="st1" d="M99.6,83.6L99.6,83.6c0.1,0,0.1,0,0.3,0C99.8,83.6,99.7,83.6,99.6,83.6L99.6,83.6
						L99.6,83.6z"/>
					<path id="XMLID_706_" class="st1" d="M99.6,83.7c-0.2-0.1-0.3-0.1-0.5-0.2c0,0.1,0.2,0.1,0.3,0.1
						C99.2,83.6,99.4,83.7,99.6,83.7C99.6,83.7,99.6,83.8,99.6,83.7c0.1,0,0.1,0,0.1,0l0,0l0,0l0,0C99.6,83.7,99.6,83.7,99.6,83.7
						L99.6,83.7C99.6,83.7,99.6,83.7,99.6,83.7C99.6,83.7,99.6,83.7,99.6,83.7l0.1,0l0,0L99.6,83.7C99.5,83.7,99.5,83.7,99.6,83.7z"
						/>
					<path id="XMLID_705_" class="st1" d="M98.4,83.8C98.4,83.8,98.4,83.8,98.4,83.8C98.4,83.8,98.4,83.8,98.4,83.8z"/>
					<path id="XMLID_704_" class="st1" d="M98.5,83.8C98.5,83.8,98.6,83.9,98.5,83.8C98.5,83.9,98.5,83.9,98.5,83.8
						c0,0,0.1,0.1,0.2,0.1l0,0c0.1,0,0.4,0,0.4,0C98.8,83.9,98.7,83.9,98.5,83.8z"/>
					<path id="XMLID_703_" class="st1" d="M99,83.8L99,83.8l-0.3-0.1l0.1,0C98.7,83.7,98.9,83.7,99,83.8z"/>
					<polygon id="XMLID_702_" class="st1" points="99.7,83.6 100,83.6 99.7,83.5 					"/>
					<polygon id="XMLID_701_" class="st1" points="99.7,83.5 99.9,83.5 99.8,83.5 					"/>
					<path id="XMLID_700_" class="st1" d="M97.7,78.5L97.7,78.5C97.7,78.5,97.7,78.5,97.7,78.5z"/>
					<path id="XMLID_699_" class="st1" d="M97.7,78.6l0.1,0C97.7,78.6,97.7,78.6,97.7,78.6z"/>
					<path id="XMLID_698_" class="st1" d="M100,81.3c0.2,0,0.5,0,0.3,0L100,81.3C100.1,81.3,100.1,81.3,100,81.3z"/>
					<path id="XMLID_697_" class="st1" d="M98.8,79.8L98.8,79.8c0,0,0.1,0,0.1,0C98.9,79.8,98.9,79.8,98.8,79.8z"/>
					<path id="XMLID_696_" class="st1" d="M97.9,79.7l0.1,0C98,79.7,97.9,79.7,97.9,79.7z"/>
					<path id="XMLID_695_" class="st1" d="M97.5,77.7l-0.2,0C97.3,77.7,97.4,77.7,97.5,77.7z"/>
					<path id="XMLID_694_" class="st1" d="M99.8,82.6c0.1,0,0.1,0,0.1,0C99.8,82.5,99.6,82.5,99.8,82.6z"/>
					<path id="XMLID_693_" class="st1" d="M100.1,78.6c0,0-0.1,0-0.1,0C100,78.6,100,78.6,100.1,78.6z"/>
					<path id="XMLID_692_" class="st1" d="M100,82.4C100,82.4,99.9,82.4,100,82.4C100,82.5,100,82.5,100,82.4
						C100.1,82.5,100.1,82.5,100,82.4z"/>
					<path id="XMLID_691_" class="st1" d="M97.8,75C97.9,75,97.9,75,97.8,75C97.8,75,97.8,75,97.8,75z"/>
					<path id="XMLID_690_" class="st1" d="M100.2,74.5C100.2,74.5,100.2,74.5,100.2,74.5C100.2,74.5,100.2,74.5,100.2,74.5z"/>
					<path id="XMLID_689_" class="st1" d="M99.9,83.1C99.9,83.2,99.9,83.1,99.9,83.1L99.9,83.1z"/>
					<path id="XMLID_688_" class="st1" d="M99,83.1c0,0-0.1,0-0.1,0C99,83,99,83,99,83.1z"/>
					<path id="XMLID_687_" class="st1" d="M98.6,82.1L98.6,82.1C98.6,82,98.6,82.1,98.6,82.1z"/>
					<path id="XMLID_686_" class="st1" d="M99.8,83.1C99.8,83.1,99.9,83.1,99.8,83.1C99.9,83.1,99.8,83.1,99.8,83.1z"/>
					<path id="XMLID_685_" class="st1" d="M99.9,83.2C99.9,83.2,99.9,83.2,99.9,83.2C99.9,83.2,99.9,83.2,99.9,83.2z"/>
					<path id="XMLID_684_" class="st1" d="M99.9,83.1C99.9,83.1,99.9,83.1,99.9,83.1C99.9,83.1,99.9,83.1,99.9,83.1
						C99.9,83.1,99.9,83.1,99.9,83.1z"/>
					<path id="XMLID_683_" class="st1" d="M98.3,76.5C98.3,76.5,98.4,76.5,98.3,76.5C98.3,76.5,98.3,76.5,98.3,76.5z"/>
					<polygon id="XMLID_682_" class="st1" points="97.8,80.6 97.8,80.6 97.8,80.6 					"/>
					<path id="XMLID_681_" class="st1" d="M97.6,80.6c0.3,0,0.2,0.1,0.2,0.1l0.6,0L97.6,80.6z"/>
					<path id="XMLID_673_" class="st1" d="M97.6,78.2l-0.2,0c-0.3-0.1-0.2-0.1-0.5-0.1c0.7,0,0.1,0.2,0.8,0.2l-0.1,0c0,0,0,0,0,0
						c-0.3,0,0.5,0.1,0.4,0.1c-0.1,0-0.2,0-0.2,0l0.2,0.1c0,0-0.1,0-0.1,0l0.1,0.1l0,0c0.1,0,0.3,0.1,0.4,0.1c-0.1,0-0.1,0-0.2,0
						l0.2,0.1c-0.2,0-0.4,0-0.3-0.1c-0.7,0,0.2,0-0.2,0.1l-0.1,0c-0.4,0-0.3,0.1-0.5,0.1c0.1,0,0.6-0.1,0.8,0c-0.1,0-0.1,0,0.1,0.1
						c-0.3,0-0.2,0-0.2,0.1l-0.3,0c0.1,0,0.3,0,0.4,0.1c0,0-0.3,0-0.5,0c-0.1,0.1,0.4,0,0.5,0.1c-0.1,0,0,0.1,0.2,0.2
						c-0.1,0-0.2,0-0.3,0l0.3,0c0,0-0.1,0-0.1,0c0.1,0,0.3,0,0.4,0.1c0.4,0-0.5,0.1-0.1,0.1c-0.1,0-0.2,0-0.3,0
						c0.3,0.1,0.2,0.1,0.6,0.2l-0.2,0c0.3,0,0.5,0,0.8,0.1c0.1,0,0.2,0,0.3,0l0.2,0.1c-0.1,0-0.2,0-0.3,0l0.1,0c-0.1,0-0.3,0-0.5,0
						c0.1,0,0.1,0,0.2,0c-0.2,0-0.4-0.1-0.6-0.1c0,0,0.1,0,0.1,0c-0.1,0-0.1,0-0.1,0c0,0,0,0,0.1,0l-0.4,0l0.1,0l-0.2,0.1
						c0.4,0.1,0.9,0.2,1.1,0.3c-0.3,0-0.4,0-0.8-0.1c0.3,0-0.1-0.1-0.1-0.1c0,0-0.2,0-0.2,0l0.3,0.1c-0.3,0-0.2,0-0.3,0
						c0.5,0,0.3,0.1,0.5,0.1c-0.2,0-0.4,0-0.3-0.1c-0.4,0,0.6,0.1,0.3,0.1c0,0,0,0-0.1,0c0.2,0,0,0.1-0.1,0.1l0,0
						c-0.1,0.1,0,0.2,0.4,0.3c-0.1,0-0.5-0.1-0.6-0.1l1.5,0.3c-0.4,0-1.3-0.1-1.5-0.2c-0.1,0-0.1,0,0,0.1c0.1,0,0.5,0,0.6,0
						c-0.4,0-0.2,0-0.6,0c0.1,0,0.7,0.1,0.7,0.1c-0.1,0-0.6-0.1-0.6-0.1l0.6,0.1c-0.1,0-0.5-0.1-0.7-0.1c0.1,0,0,0.1,0,0.1l0.1,0
						c-0.1,0.1,0.8,0.2,0.8,0.2c-0.1,0-0.7-0.1-0.8-0.1c0.3,0,1.4,0.2,1.6,0.3l-0.2,0l0.2,0.1c-0.4-0.1-1.4-0.3-1.7-0.4
						c-0.1,0-0.2,0-0.2,0c-0.2,0-0.2-0.1-0.2-0.1l-0.1,0.1c0.3,0,0.3,0.1,0.6,0.1l-0.3-0.2c0.3,0,1,0.2,0.9,0.2
						c-0.1,0-0.6-0.1-0.7-0.1c0.1,0,0.2,0.1,0.1,0.1l-0.2-0.1c-0.1,0,0.5,0.1,0.1,0.1c0,0-0.5,0-0.2,0c0.4,0,1.6,0.2,1.9,0.2
						c0,0-0.4,0-0.6,0c-0.3,0-0.7-0.1-1-0.2c0.1,0,0.2,0,0.2,0.1c-0.1,0-0.3,0-0.3,0c0.4,0.1,0,0.1,0.3,0.1c0.1,0.1-0.1,0-0.1,0.1
						c0.2,0,0.8,0.2,0.9,0.2c-0.1,0-0.2,0-0.3,0c0,0.1-0.2,0.1-0.2,0.2c-0.1,0-0.2,0-0.3,0c0.1,0,0.2,0,0.2,0.1
						c-0.3,0,0-0.1-0.4-0.1c0.2,0,0.3,0.1,0.4,0.2c0.3,0,0.1-0.1,0-0.1c0.4,0.1,0.9,0.2,1.1,0.3c0.1,0.1-0.3,0-0.2,0
						c-0.1,0.1,0.7,0.2,0.4,0.3c-0.3,0-0.5-0.1-0.7-0.1c-0.1-0.1,0.2,0,0.2-0.1l-0.1,0c-0.1,0-0.2-0.1-0.1-0.1
						c-0.3,0-0.1,0.2-0.3,0.2c0.1,0,0.2,0.1,0.3,0.1l0,0c0.2,0,0.3,0.1,0.4,0.1c0.1,0.1,0.4,0.2,0.2,0.2l-0.3-0.1c0.1,0,0.2,0,0.1,0
						c0.1,0.1-0.4,0,0,0.1l0.2,0c0.1,0.1,0.5,0.2,0.4,0.2c0.3,0,0,0,0.3,0c-0.5-0.1,0-0.1-0.4-0.2c0.4,0,0.2,0,0.6,0
						c-0.1,0-0.2,0-0.1-0.1c0,0-0.1,0-0.1,0l0,0l0,0c0,0,0,0,0,0c0,0-0.1,0-0.2,0c-0.2-0.1-0.2-0.1-0.3-0.2c0.1,0,0.1,0,0.2,0
						l-0.2-0.1c0.2,0,0.4,0,0.5,0.1l0-0.1c0.1,0,0.2,0,0.1-0.1c0.1,0-0.2-0.1-0.1-0.1l-0.1-0.1l0.1,0c0-0.1-0.4-0.2,0.1-0.3
						c-0.1,0-0.1-0.1,0-0.1l0.2,0c-0.1,0,0.2-0.1,0-0.1c0.5,0,0.1-0.2,0.2-0.2l-0.3,0c0,0,0-0.1-0.1-0.2l-0.2,0
						c-0.2-0.1,0.2-0.1,0.2-0.2c0.1,0,0.1,0,0,0c0.5,0-0.4-0.2,0-0.3c-0.1,0-0.1,0,0,0c0,0,0,0,0,0l0,0c0,0,0.1,0,0.1,0
						c-0.1,0-0.1,0-0.1,0c0,0,0,0-0.1-0.1l0.3,0c0,0,0,0,0,0c0.1,0-0.1,0-0.3,0c0,0-0.1,0-0.1,0c0.4,0-0.1-0.1,0.3-0.1
						c-0.2,0-0.1-0.1-0.6-0.2c0.1,0,0.1,0,0.1,0c0.1,0,0.1,0,0-0.1l0.3,0l-0.4-0.1c0.2,0,0.3,0,0.6,0c-0.4-0.1-0.1-0.1-0.5-0.2
						l0.2,0c0,0-0.3-0.1-0.1-0.1c0.4,0,0.1-0.3,0.4-0.4c-0.6,0,0.3,0-0.2-0.1c0.1,0,0.2,0,0.3,0c-0.1-0.1,0.2-0.1-0.2-0.2
						c0.1,0,0.2,0,0.3,0c0,0-0.1,0,0,0c0.1,0,0.1,0,0.2,0c0-0.1-0.5-0.1-0.9-0.1c0.2,0,0.2,0-0.1-0.1c0.1,0,0.3,0,0.3,0
						c0,0,0.2-0.1-0.1-0.2c0.1,0,0,0,0,0c0-0.1,0.1-0.1,0-0.1l-0.1,0c-0.4,0-0.1-0.1-0.1-0.1l0,0c0.3-0.1-0.1-0.1,0.2-0.1l-0.2,0
						c-0.5,0,0.3-0.1,0.1-0.1l-0.1,0c-0.2,0,0.7-0.1,0.8-0.1c0,0,0.1,0,0.1,0c0.3-0.1-0.3,0-0.4-0.1c0.2,0,0.4,0,0.5,0
						c0.1,0-0.6-0.1-0.2-0.2c-0.1,0-0.3,0-0.4,0c0,0,0.5-0.1,0.1-0.2c0,0,0.1,0,0.1,0c-0.1,0-0.2-0.1-0.4-0.1c0.9,0-0.4-0.2,0.4-0.2
						l0-0.1l0.1,0c0.1-0.1-0.1-0.1-0.3-0.1c0.1,0,0.1,0,0.2,0c0.2-0.1,0.1-0.1-0.3-0.2l0.3,0c-0.1,0,0.4-0.1,0.1-0.2
						c0,0,0.1,0,0.1,0c-0.3-0.1,0.7-0.2-0.2-0.3l-0.2-0.1c-0.1,0.1-0.4,0-0.6,0c-0.1,0,0.3-0.1,0.3,0l0,0c0.5,0,0.2-0.1,0.5-0.1
						c0-0.2,0.3-0.3,0.3-0.5l-0.4,0l0-0.1c0.1,0,0.3,0,0.3,0c0.2,0-0.2-0.1-0.3-0.1c0.2-0.1,0.4,0.1,0.5,0l0,0l0,0
						c-0.2,0-0.3,0-0.3-0.1c0.1,0,0.2,0,0.3,0c0,0,0,0,0,0l0-0.1l-0.3,0c-0.1,0,0-0.1-0.3-0.1c0.5,0,0.2-0.3,0.4-0.3
						c-0.2-0.1-0.2-0.1-0.2-0.2c-0.1,0-0.4,0-0.4-0.1c0.7,0.1,0.3-0.1,0.8-0.1c-0.3,0-0.1-0.1-0.5-0.1c0.1,0,0.3,0,0.4,0
						c-0.3-0.1,0.2-0.2,0.1-0.3c-0.1,0-0.2,0-0.4,0l0.5,0c0,0-0.5-0.1-0.2-0.1c-0.1,0-0.2,0-0.2,0c0.5-0.2-0.3-0.5,0.5-0.6
						c-0.2,0-0.2,0-0.2,0c0,0-0.2,0-0.3,0l0.4,0c-0.3-0.1,0-0.1-0.3-0.2l0.1,0c-0.4-0.1-0.9-0.1-1.4-0.1c0.4,0.1-0.7,0,0,0.2
						c-0.1,0-0.2,0-0.3,0c0.2,0,0.3,0.1,0.1,0.1l-0.1,0c0,0.1-0.2,0.2-0.3,0.3l0.2,0c0,0-0.1,0-0.2,0c0.4,0.1,0-0.1,0.4,0
						c-0.5,0,0,0.2-0.6,0.2c0,0,0.3,0,0.3,0.1l-0.2,0l0.2,0c0,0-0.2,0-0.4,0c0,0,0,0,0,0c-0.2,0,0.1,0.1,0,0.1l0.1,0
						c0.1,0.1-0.1,0.3,0.2,0.4l0.1,0c0.2,0.1-0.1,0.1,0,0.2l0,0c0.1,0,0.2,0.1,0.2,0.1c-0.1,0-0.3,0-0.4,0c0.2,0.1,0.2,0.1,0.6,0.2
						l-0.2,0c0.2,0,0.3,0,0.3,0.1c-0.2-0.1-0.3,0-0.5,0c-0.4,0.1,0.4,0.2-0.2,0.2c0.5,0.1,0.3-0.1,0.4,0c0.2,0,0.4,0.1,0.3,0.1
						c0,0-0.7,0-0.7,0.1c0,0,0,0,0,0c-0.1,0,0.2,0.1,0,0.1c0.3,0,0,0.1,0.4,0.1l-0.1-0.1c0.1,0.1,0.6,0.1,0.3,0.2
						c-0.1,0-0.2,0-0.3-0.1c-0.1,0,0.1,0,0,0.1c-0.4,0-0.1-0.1-0.4-0.2c-0.2,0,0.3,0.1-0.2,0.1c0.6,0.1-0.1,0.1,0.4,0.2l-0.2,0
						c0,0,0.2,0,0.1,0.1l-0.3,0c0.3,0.1-0.2,0.1-0.1,0.1c0-0.1,0.3,0,0.5,0c0.3,0.1-0.6,0-0.5,0.2c0,0,0.2-0.1,0.3,0
						c-0.1,0-0.1,0.1-0.3,0.1c0,0.1,0.3,0,0.4,0c-0.3,0,0.1,0,0.2,0.1l-0.3,0c-0.2,0.1,0.5,0.1,0.3,0.1l-0.3-0.1l0.1,0l-0.3,0
						c0.2,0.1,0.2,0.1,0.1,0.1c0.2,0,0.5,0,0.5,0.1c-0.2,0-0.2,0-0.2,0c-0.2,0-0.4,0-0.1-0.1c-0.1,0-0.2,0-0.2,0c-0.2,0,0,0.1,0,0.1
						c0,0,0,0,0.1,0l0.3,0.1c-0.1,0-0.2,0-0.2,0c0,0,0.1,0,0.2,0.1c-0.2,0-0.4,0-0.5-0.1l0.2,0.1c-0.1,0-0.2,0-0.3,0
						c-0.1,0,0.4,0.1,0.2,0.2c0,0,0.1,0,0.1,0c0,0.1-0.3,0.1,0,0.2l-0.4,0c0.1,0.1,0.5,0,0.6,0.1c0.1,0.1-0.3,0-0.4,0
						C97.6,78.1,98,78.2,97.6,78.2C97.6,78.2,97.7,78.2,97.6,78.2z M97.8,78.8C97.7,78.8,97.6,78.8,97.8,78.8
						C98,78.8,97.9,78.8,97.8,78.8z M98.3,79.9C98.3,79.8,98.3,79.8,98.3,79.9C98.4,79.8,98.4,79.8,98.3,79.9z M99.7,82.9
						C99.7,82.9,99.7,82.9,99.7,82.9C99.8,82.9,99.8,82.9,99.7,82.9z M99.6,82.9c0,0,0.1,0,0.1,0C99.7,82.9,99.7,82.9,99.6,82.9
						C99.6,82.9,99.6,82.9,99.6,82.9z M100,76.4L100,76.4C99.9,76.4,100,76.4,100,76.4z"/>
					<path id="XMLID_672_" class="st1" d="M98,79.7c0,0,0.1,0,0.1,0C98.1,79.7,98,79.7,98,79.7z"/>
					<polygon id="XMLID_671_" class="st1" points="97.5,77.7 97.5,77.7 97.5,77.7 					"/>
					<path id="XMLID_670_" class="st1" d="M97.7,81.7c0,0,0.1,0,0.1,0C97.7,81.7,97.7,81.7,97.7,81.7z"/>
					<path id="XMLID_669_" class="st1" d="M100,83.4L100,83.4c0,0-0.1,0-0.1,0C99.9,83.3,100,83.3,100,83.4z"/>
					<path id="XMLID_668_" class="st1" d="M98.4,83.4C98.4,83.4,98.4,83.4,98.4,83.4l0.1,0.1C98.5,83.4,98.4,83.3,98.4,83.4z"/>
					<path id="XMLID_667_" class="st1" d="M99.1,83.2c-0.2,0-0.1,0-0.1,0l0,0C99.3,83.3,99.2,83.3,99.1,83.2z"/>
					<path id="XMLID_666_" class="st1" d="M99,83.3C99.1,83.3,99.1,83.3,99,83.3C99.2,83.3,99.1,83.3,99,83.3z"/>
					<path id="XMLID_665_" class="st1" d="M99.7,83c-0.1,0,0.3,0.1,0.2,0.1C100.2,83.2,99.6,82.9,99.7,83z"/>
					<polygon id="XMLID_664_" class="st1" points="98.5,83.1 98.7,83.1 98.5,83.1 					"/>
					<path id="XMLID_663_" class="st1" d="M98.7,82.9L98.7,82.9C98.7,83,98.7,83,98.7,82.9C98.7,83,98.8,82.9,98.7,82.9z"/>
					<path id="XMLID_662_" class="st1" d="M98.7,83C98.7,83,98.7,83,98.7,83C98.7,83,98.7,83,98.7,83z"/>
					<polygon id="XMLID_661_" class="st1" points="98.4,83 98.5,83 98.5,83 					"/>
					<path id="XMLID_660_" class="st1" d="M98.8,82.5L98.8,82.5c-0.2-0.1-0.2-0.1-0.2-0.1C98.7,82.4,98.7,82.5,98.8,82.5z"/>
					<path id="XMLID_659_" class="st1" d="M98.1,82.5c0.1,0,0.1,0,0.2,0L98,82.5L98.1,82.5z"/>
					<path id="XMLID_658_" class="st1" d="M98.1,82.4c-0.1,0-0.2-0.1-0.2,0C97.9,82.3,98,82.4,98.1,82.4z"/>
					<polygon id="XMLID_657_" class="st1" points="98.6,81.7 98.6,81.7 99.1,81.8 					"/>
					<path id="XMLID_656_" class="st1" d="M97.4,81c-0.1,0,0.3,0,0.2,0.1c0.1,0,0.1,0,0.2,0C97.6,81,97.7,81,97.4,81z"/>
					<path id="XMLID_655_" class="st1" d="M97.8,81.1C97.8,81.1,97.8,81.1,97.8,81.1C97.8,81.1,97.8,81.1,97.8,81.1z"/>
					<polygon id="XMLID_654_" class="st1" points="100.5,74.4 100.6,74.4 100.4,74.4 					"/>
					<path id="XMLID_653_" class="st1" d="M100.1,74.3l0.3,0L100.1,74.3C100.2,74.3,100.2,74.3,100.1,74.3z"/>
					<path id="XMLID_652_" class="st1" d="M97.1,78.9L97.1,78.9c0.2,0,0.2,0,0.2,0L97.1,78.9z"/>
					<polygon id="XMLID_651_" class="st1" points="97.4,78.4 97.4,78.4 97.7,78.4 					"/>
					<path id="XMLID_650_" class="st1" d="M97,78C97,78,97.1,78.1,97,78C97,78,97.4,78,97,78z"/>
				</g>
			</g>
		</g>
	</g>
</g>
<g id="XMLID_9_">
	<g id="XMLID_547_">
		<g id="XMLID_551_">
			<g id="XMLID_552_">
				<g id="XMLID_553_">
					<path id="XMLID_641_" class="st1" d="M52.2,116.2c0,0,0,0.2,0,0.2C52.2,116.4,52.2,116.2,52.2,116.2z"/>
					<polygon id="XMLID_640_" class="st1" points="52.5,115.7 52.5,115.8 52.5,115.5 					"/>
					<path id="XMLID_639_" class="st1" d="M52.8,115.6c-0.1-0.4-0.1,0.1-0.2,0l0-0.1l0,0.3C52.7,115.7,52.8,115.5,52.8,115.6z"/>
					<path id="XMLID_638_" class="st1" d="M53.1,116.4C53.1,116.3,53.1,116.3,53.1,116.4C53.1,116.4,53.1,116.4,53.1,116.4
						C53.1,116.4,53.1,116.4,53.1,116.4z"/>
					<path id="XMLID_637_" class="st1" d="M53.1,116.4C53,116.4,53.1,116.5,53.1,116.4L53.1,116.4z"/>
					<path id="XMLID_636_" class="st1" d="M53.2,116.3l0,0.1c0,0.1,0.1,0.1,0.1,0.2C53.3,116.5,53.3,116.4,53.2,116.3z"/>
					<path id="XMLID_635_" class="st1" d="M53.3,116L53.3,116C53.2,116.1,53.3,116.1,53.3,116z"/>
					<path id="XMLID_634_" class="st1" d="M53.2,116.2l0-0.1C53.2,116,53.2,115.9,53.2,116.2C53.2,116,53.2,116.1,53.2,116.2z"/>
					<path id="XMLID_633_" class="st1" d="M53.2,116.2c0-0.1-0.1-0.1,0-0.3C53,116,53.1,116.2,53.2,116.2z"/>
					<path id="XMLID_632_" class="st1" d="M52.8,115.3l0-0.1L52.8,115.3C52.8,115.2,52.8,115.4,52.8,115.3z"/>
					<path id="XMLID_631_" class="st1" d="M53.6,116.5c0-0.1,0-0.2-0.1-0.3l0,0.1C53.5,116.3,53.6,116.3,53.6,116.5z"/>
					<path id="XMLID_630_" class="st1" d="M53.5,116.2l0-0.1C53.5,116,53.5,116.1,53.5,116.2z"/>
					<polygon id="XMLID_629_" class="st1" points="53.2,115.6 53.2,115.9 53.2,115.6 					"/>
					<polygon id="XMLID_628_" class="st1" points="53.8,116.4 53.8,116.6 53.8,116.3 					"/>
					<path id="XMLID_627_" class="st1" d="M53.9,116.4c0,0.2,0.1,0.3,0,0.3c0,0,0-0.2,0.1-0.3C54,116.5,54,116.5,53.9,116.4z"/>
					<path id="XMLID_626_" class="st1" d="M54,116.3c0,0,0,0.1,0,0.2C54,116.4,54,116.4,54,116.3z"/>
					<path id="XMLID_625_" class="st1" d="M53.6,116c0,0,0,0.2,0.1,0.2L53.6,116L53.6,116z"/>
					<path id="XMLID_624_" class="st1" d="M53.7,116L53.7,116C53.7,116,53.7,116,53.7,116C53.7,116,53.7,116,53.7,116z"/>
					<path id="XMLID_623_" class="st1" d="M53.6,116L53.6,116C53.6,116,53.6,116,53.6,116z"/>
					<path id="XMLID_622_" class="st1" d="M53.4,115.8c0-0.1,0.1-0.3,0-0.4C53.4,115.5,53.4,115.6,53.4,115.8z"/>
					<path id="XMLID_621_" class="st1" d="M53.6,115.8L53.6,115.8c-0.1,0,0,0.1,0,0.2L53.6,115.8z"/>
					<polygon id="XMLID_620_" class="st1" points="53.6,115.7 53.6,115.8 53.6,115.8 					"/>
					<path id="XMLID_619_" class="st1" d="M53.9,116.1c0-0.1,0-0.1,0.1-0.1c0,0-0.1-0.1-0.1-0.1C53.9,116,53.9,116.1,53.9,116.1z"/>
					<path id="XMLID_618_" class="st1" d="M53.8,116L53.8,116C53.8,116,53.8,116,53.8,116z"/>
					<polygon id="XMLID_617_" class="st1" points="54.3,115.9 54.3,115.9 54.3,115.9 					"/>
					<path id="XMLID_616_" class="st1" d="M53.9,115.9C53.8,115.8,53.8,115.9,53.9,115.9C53.8,115.9,53.9,115.9,53.9,115.9
						C53.9,115.9,53.9,115.9,53.9,115.9z"/>
					<path id="XMLID_615_" class="st1" d="M54.1,116.2c0,0,0-0.1-0.1-0.1C54.1,116.1,54.1,116.2,54.1,116.2z"/>
					<path id="XMLID_614_" class="st1" d="M53.8,116.1L53.8,116.1C53.8,116.1,53.8,116.1,53.8,116.1z"/>
					<path id="XMLID_613_" class="st1" d="M53.8,116.1c0,0,0-0.1,0-0.1C53.8,116,53.8,116,53.8,116.1
						C53.8,116,53.8,116.1,53.8,116.1z"/>
					<path id="XMLID_612_" class="st1" d="M54.2,114.5c0,0.2,0,0.4-0.1,0.2c0,0.2,0.1,0.8,0.2,1.2c0-0.1,0-0.2,0-0.3
						c0-0.1-0.2-0.2-0.1-0.4c0.1-0.1,0.1,0.1,0.1,0.2C54.2,115.1,54.3,114.9,54.2,114.5l0,0.2C54.2,114.6,54.2,114.5,54.2,114.5z"/>
					<path id="XMLID_611_" class="st1" d="M54.2,115.9L54.2,115.9c0,0.1,0,0.1,0.1,0.3c0-0.1,0-0.2,0-0.2L54.2,115.9L54.2,115.9z"/>
					<path id="XMLID_610_" class="st1" d="M54.1,115.9c0-0.2,0-0.3,0-0.6c-0.1,0,0,0.2-0.1,0.3C54.1,115.6,54,115.8,54.1,115.9
						C54,115.9,54,115.9,54.1,115.9c0,0.1,0,0.1,0,0.1l0,0l0,0l0,0C54.1,116,54,116,54.1,115.9L54.1,115.9
						C54.1,116,54.1,115.9,54.1,115.9C54.1,116,54.1,116,54.1,115.9l0,0.1l0,0l0.1-0.1C54.1,115.9,54.1,115.9,54.1,115.9z"/>
					<path id="XMLID_609_" class="st1" d="M53.4,114.9C53.4,114.9,53.4,114.9,53.4,114.9C53.4,114.9,53.4,114.9,53.4,114.9z"/>
					<path id="XMLID_608_" class="st1" d="M53.4,115c0,0,0,0.1,0,0.1C53.4,115,53.4,115,53.4,115c-0.1,0-0.1,0.1,0,0.2l0,0
						c0.1,0.1,0.1,0.3,0.1,0.4C53.5,115.3,53.5,115.2,53.4,115z"/>
					<path id="XMLID_607_" class="st1" d="M53.7,115.4l0.1-0.1l-0.1-0.2l0,0.1C53.7,115.2,53.7,115.3,53.7,115.4z"/>
					<polygon id="XMLID_606_" class="st1" points="54.3,116 54.3,116.3 54.3,115.9 					"/>
					<polygon id="XMLID_605_" class="st1" points="54.4,116 54.5,116.2 54.5,116.1 					"/>
					<path id="XMLID_604_" class="st1" d="M59.5,111.4L59.5,111.4C59.5,111.4,59.5,111.4,59.5,111.4z"/>
					<path id="XMLID_603_" class="st1" d="M59.4,111.6L59.4,111.6C59.4,111.6,59.4,111.6,59.4,111.6z"/>
					<path id="XMLID_602_" class="st1" d="M57.5,115.5c0.1,0.2,0.2,0.5,0.2,0.2L57.5,115.5C57.6,115.6,57.5,115.5,57.5,115.5z"/>
					<path id="XMLID_601_" class="st1" d="M59,113.4L59,113.4c0,0,0,0.1,0,0.1C59,113.5,59,113.5,59,113.4z"/>
					<path id="XMLID_600_" class="st1" d="M58.5,112.6l0.1,0.1C58.6,112.7,58.6,112.7,58.5,112.6z"/>
					<path id="XMLID_599_" class="st1" d="M60,110.6l-0.2-0.2C59.8,110.4,59.9,110.5,60,110.6z"/>
					<path id="XMLID_598_" class="st1" d="M55.6,115.8c0,0.1,0.1,0.1,0.1,0.1C55.7,115.8,55.6,115.6,55.6,115.8z"/>
					<path id="XMLID_597_" class="st1" d="M61.2,113.2c0,0,0-0.1-0.1-0.1C61.1,113.1,61.1,113.1,61.2,113.2z"/>
					<path id="XMLID_596_" class="st1" d="M55.9,115.9C55.8,115.8,55.8,115.8,55.9,115.9c0,0-0.1,0-0.1,0
						C55.8,116,55.8,116,55.9,115.9z"/>
					<path id="XMLID_595_" class="st1" d="M61.8,107.9C61.8,107.9,61.8,107.9,61.8,107.9C61.8,107.9,61.8,107.9,61.8,107.9z"/>
					<path id="XMLID_594_" class="st1" d="M64.1,107C64.1,107,64.1,107,64.1,107C64.1,107,64.1,107,64.1,107z"/>
					<path id="XMLID_593_" class="st1" d="M54.9,116C54.9,116,54.9,116.1,54.9,116L54.9,116z"/>
					<path id="XMLID_592_" class="st1" d="M54.7,115.2c0,0,0-0.1,0-0.1C54.7,115.1,54.7,115.1,54.7,115.2z"/>
					<path id="XMLID_591_" class="st1" d="M55.9,114.4L55.9,114.4C55.9,114.4,55.9,114.4,55.9,114.4z"/>
					<path id="XMLID_590_" class="st1" d="M54.9,115.9C54.9,116,54.9,116,54.9,115.9C54.9,116,54.9,116,54.9,115.9z"/>
					<path id="XMLID_589_" class="st1" d="M54.9,116C54.9,116,54.9,116,54.9,116C54.9,116.1,54.9,116.1,54.9,116z"/>
					<path id="XMLID_588_" class="st1" d="M55,116C54.9,116,54.9,116,55,116C54.9,116,54.9,116,55,116C54.9,116,54.9,116,55,116z"/>
					<path id="XMLID_587_" class="st1" d="M61.6,109.7C61.6,109.7,61.7,109.7,61.6,109.7C61.6,109.7,61.6,109.7,61.6,109.7z"/>
					<polygon id="XMLID_586_" class="st1" points="57.5,113.1 57.5,113.1 57.5,113.1 					"/>
					<path id="XMLID_585_" class="st1" d="M57.5,112.9c0.1,0.3,0,0.2,0,0.2l0.2,0.6L57.5,112.9z"/>
					<path id="XMLID_577_" class="st1" d="M59.8,111.1l-0.2-0.1c-0.2-0.3-0.1-0.2-0.3-0.4c0.5,0.5-0.1,0.2,0.4,0.7l-0.1-0.1
						c0,0,0,0,0,0c-0.3-0.2,0.3,0.4,0.2,0.4c-0.1,0-0.2-0.1-0.2-0.1l0.1,0.2c0,0-0.1-0.1-0.1-0.1l0,0.1l0,0c0.1,0.1,0.2,0.2,0.2,0.3
						c-0.1-0.1,0-0.1-0.1-0.1l0.1,0.2c-0.1-0.1-0.2-0.3-0.2-0.3c-0.5-0.5,0.1,0.2-0.3,0l0-0.1c-0.3-0.3-0.2-0.1-0.4-0.3
						c0.1,0.1,0.5,0.4,0.6,0.5c-0.1,0-0.1,0,0,0.1c-0.2-0.2-0.2-0.1-0.2-0.1l-0.2-0.2c0,0.1,0.1,0.2,0.2,0.4c-0.1,0-0.2-0.2-0.4-0.3
						c-0.1,0,0.3,0.3,0.3,0.4c-0.1-0.1-0.1,0.1,0,0.3c-0.1-0.1-0.1-0.2-0.2-0.2l0.1,0.2c0,0-0.1-0.1-0.1-0.1c0,0.1,0.2,0.3,0.2,0.4
						c0.2,0.3-0.4-0.4-0.2,0c-0.1-0.1-0.1-0.2-0.2-0.3c0.1,0.3,0.1,0.2,0.2,0.6l-0.2-0.1c0.2,0.2,0.3,0.5,0.4,0.7
						c0.1,0.1,0.2,0.2,0.2,0.2l0,0.2c0,0-0.1-0.1-0.2-0.3l0,0.1c-0.1-0.1-0.2-0.3-0.3-0.4c0,0,0.1,0.1,0.1,0.2
						c-0.1-0.2-0.2-0.4-0.3-0.5c0,0,0,0.1,0,0.1c0,0,0-0.1-0.1-0.1c0,0,0,0,0,0.1l-0.2-0.3l0.1,0.1l-0.2-0.1
						c0.1,0.4,0.3,0.9,0.3,1.1c-0.1-0.3-0.2-0.4-0.3-0.7c0.2,0.3,0-0.2,0.1-0.1c0,0-0.1-0.2-0.1-0.2l0,0.3c-0.1-0.2-0.1-0.2-0.2-0.2
						c0.3,0.5,0.1,0.3,0.1,0.5c-0.1-0.2-0.1-0.3-0.1-0.3c-0.2-0.3,0.2,0.6,0,0.3c0,0,0,0,0-0.1c0,0.2-0.1,0.1-0.1-0.1l0,0
						c-0.1,0-0.3,0.1-0.1,0.5c0-0.1-0.2-0.5-0.2-0.6c0,0,0.1,0.4,0.2,0.7c0.1,0.4,0.1,0.7,0.1,0.7c-0.1-0.4-0.4-1.2-0.4-1.4
						c0,0-0.1-0.1-0.1,0c0,0,0.2,0.5,0.2,0.5c-0.2-0.4-0.1-0.2-0.3-0.5c0,0.1,0.2,0.6,0.1,0.6c0-0.1-0.2-0.6-0.2-0.6l0.1,0.6
						c0-0.1-0.1-0.5-0.2-0.6c0,0.1-0.1,0-0.1,0.1l0.1,0.1c-0.1-0.1,0.1,0.8,0,0.8c0-0.1-0.1-0.7-0.2-0.8c0,0.3,0.2,1.4,0.1,1.7
						l-0.1-0.2l0,0.2c0-0.5-0.1-1.4-0.1-1.8c-0.1-0.1-0.1-0.2-0.1-0.2c-0.1-0.2,0-0.2,0-0.3l-0.2-0.1c0.1,0.3,0,0.4,0,0.6l0.1-0.4
						c0.1,0.3,0.1,1,0,1c-0.1-0.1-0.1-0.6-0.1-0.7c0,0.1-0.1,0.2-0.1,0.2l0-0.2c-0.1-0.1,0,0.5-0.1,0.2c0,0-0.1-0.4-0.1-0.2
						c0.1,0.4,0.3,1.6,0.3,1.9c0,0-0.2-0.4-0.3-0.5c-0.1-0.3-0.1-0.7-0.1-1c0,0.1,0,0.2,0,0.3c0-0.1,0-0.3-0.1-0.2
						c0,0.4-0.1,0,0,0.3c0,0.1-0.1-0.1-0.1,0c0.1,0.2,0.1,0.8,0,0.9c0-0.1,0-0.2-0.1-0.3c-0.1,0-0.2-0.2-0.3-0.2
						c0-0.1-0.1-0.2-0.1-0.3c0,0.1,0,0.2,0,0.2c-0.1-0.3,0.1-0.1,0-0.4c0,0.2-0.1,0.3-0.1,0.4c0.1,0.3,0.1,0,0.2-0.1
						c0.1,0.4,0,0.9-0.1,1.1c-0.1,0.1-0.1-0.3-0.1-0.2c-0.2-0.1-0.1,0.8-0.2,0.5c-0.1-0.3-0.1-0.6-0.1-0.8c0.1-0.1,0.1,0.2,0.2,0.1
						l-0.1-0.1c0-0.1,0.1-0.2,0.1-0.1c-0.1-0.2-0.3,0-0.5-0.2c0,0.1,0,0.2,0,0.3l0,0c0.1,0.2,0,0.3,0,0.4c0,0.2-0.1,0.4-0.2,0.3
						l-0.1-0.3c0,0.1,0.1,0.2,0.1,0.1c0,0.1-0.2-0.4-0.2,0l0.1,0.2c0,0.2-0.1,0.5-0.1,0.4c0.1,0.3,0,0,0.1,0.3
						c-0.1-0.4,0.2,0,0.1-0.5c0.1,0.4,0.1,0.2,0.2,0.5c0-0.1,0-0.2,0-0.2c0,0,0-0.1,0-0.1l0,0l0,0c0,0,0,0,0,0c0,0,0-0.1,0-0.2
						c0-0.2,0.1-0.2,0.1-0.4c0,0,0,0.1,0,0.2l0-0.2c0,0.2,0.1,0.4,0.1,0.5l0.1,0c0.1,0.1,0.1,0.2,0.2,0.1c0,0,0.1-0.3,0-0.1l0.1-0.2
						l0,0.1c0.1,0,0.2-0.4,0.4,0c0-0.1,0.1-0.1,0.1-0.1l0,0.2c0-0.1,0.2,0.2,0.2,0c0.1,0.5,0.3,0.1,0.4,0.2l0-0.3
						c0.1,0,0.1-0.1,0.2-0.2l0-0.2c0-0.2,0.2,0.1,0.3,0.1c0,0.1,0,0.1-0.1,0c0.2,0.5,0.2-0.4,0.4-0.1c0-0.1,0-0.1,0.1,0c0,0,0,0,0,0
						l0,0c0,0,0.1,0.1,0.1,0.1c0-0.1,0-0.1-0.1-0.1c0,0,0.1,0,0.1-0.1l0.1,0.2c0,0,0,0,0,0c0.1,0.1,0-0.1-0.1-0.3c0,0,0-0.1,0-0.2
						c0.1,0.4,0.1-0.2,0.2,0.3c0-0.2,0.1-0.2,0-0.6c0,0.1,0,0.1,0,0.1c0.1,0,0.1,0.1,0.1-0.1L58,115l-0.1-0.4
						c0.1,0.2,0.2,0.3,0.2,0.5c0-0.4,0.1-0.2,0-0.6l0.1,0.2c0,0,0-0.3,0.1-0.1c0.2,0.3,0.4-0.1,0.8,0.1c-0.3-0.5,0.2,0.2,0-0.2
						c0.1,0.1,0.1,0.2,0.2,0.3c0-0.2,0.3,0.1,0.2-0.3c0.1,0.1,0.1,0.2,0.1,0.3c0,0,0-0.1,0-0.1c0.1,0.1,0,0.1,0.1,0.2
						c0.1-0.1-0.1-0.5-0.3-0.8c0.2,0.1,0.2,0.1,0.1-0.2c0.1,0.1,0.2,0.2,0.2,0.3c0,0,0.3,0,0.1-0.3c0.1,0.1,0.1,0,0,0
						c0.1,0,0.1,0,0.2-0.1l-0.1,0c-0.2-0.3,0-0.1,0-0.2l0,0c0.3,0.1,0-0.1,0.3,0l-0.2-0.2c-0.3-0.4,0.3,0.2,0.2-0.1l-0.1-0.1
						c-0.1-0.2,0.6,0.5,0.7,0.5c0,0,0,0.1,0,0.1c0.3,0.1-0.2-0.3-0.2-0.4c0.1,0.1,0.3,0.3,0.4,0.3c0.1,0.1-0.3-0.5,0-0.4
						c-0.1-0.1-0.2-0.2-0.3-0.3c0-0.1,0.5,0.2,0.2-0.1c0,0,0.1,0,0.1,0.1c0-0.1,0-0.2-0.2-0.4c0.7,0.6-0.1-0.5,0.5,0l0.1-0.1
						l0.1,0.1c0.1,0,0-0.2-0.1-0.3c0.1,0,0.1,0.1,0.1,0.1c0.2,0,0.2,0,0-0.4l0.2,0.2c-0.1-0.1,0.4,0.1,0.3-0.2c0,0,0.1,0.1,0.1,0.1
						c-0.1-0.3,0.8,0.1,0.1-0.5l-0.1-0.2c-0.1,0.1-0.3-0.3-0.5-0.3c0-0.1,0.3,0.1,0.3,0.1l0,0c0.4,0.3,0.2,0,0.5,0.2
						c0.1-0.2,0.5-0.3,0.7-0.5l-0.3-0.2l0.1-0.1c0.1,0,0.3,0.1,0.2,0.2c0.2,0.1-0.1-0.2-0.2-0.2c0.2,0,0.4,0.3,0.4,0.2l0-0.1l0,0
						c-0.1-0.1-0.2-0.2-0.2-0.3c0.1,0,0.2,0.1,0.2,0.1c0,0,0,0,0,0l0.1-0.1l-0.3-0.1c-0.1-0.1,0.1-0.1-0.3-0.2
						c0.5,0.2,0.4-0.3,0.5-0.3c-0.2-0.2-0.1-0.2-0.1-0.3c-0.1,0-0.4-0.1-0.3-0.2c0.6,0.3,0.3,0,0.8,0.1c-0.3-0.1,0-0.2-0.5-0.3
						c0.1,0,0.2,0.1,0.4,0.1c-0.2-0.2,0.3-0.3,0.2-0.5c-0.1,0-0.2,0-0.4-0.1l0.5,0c0-0.1-0.5-0.1-0.2-0.2c-0.1,0-0.2,0-0.2,0
						c0.2-0.2,0.2-0.4,0.2-0.6c0-0.2,0-0.4,0.4-0.7c-0.2,0.1-0.2,0-0.2,0c0,0-0.2,0-0.3,0l0.3-0.2c-0.3,0-0.1-0.2-0.4-0.2l0.1,0
						c-0.4,0-0.8,0.2-1.3,0.3c0.4,0-0.6,0.2,0,0.2c-0.1,0-0.2,0-0.3,0c0.2,0,0.3,0,0.2,0.1l-0.1,0c0.1,0.1-0.2,0.2-0.3,0.3l0.2,0
						c0,0-0.1,0-0.2,0c0.4,0.1,0-0.1,0.4,0c-0.5,0,0,0.2-0.6,0.2c0,0,0.3,0,0.3,0.1l-0.2,0l0.2,0.1c0,0-0.2,0-0.4,0c0,0,0,0,0,0
						c-0.2,0,0,0.1,0,0.1l0.1,0c0.1,0.2-0.1,0.3,0.1,0.5l0.1,0c0.2,0.2-0.2,0-0.1,0.2l0,0c0.1,0.1,0.1,0.1,0.1,0.1
						c-0.1-0.1-0.3-0.1-0.4-0.2c0.2,0.2,0.1,0.1,0.5,0.4L62,109c0.1,0.1,0.2,0.1,0.2,0.2c-0.1-0.1-0.3-0.1-0.5-0.2
						c-0.4-0.1,0.3,0.4-0.3,0.1c0.4,0.3,0.3,0,0.4,0.1c0.2,0.1,0.3,0.2,0.3,0.3c0,0-0.6-0.3-0.7-0.2c0,0,0,0,0,0
						c-0.1,0,0.1,0.2-0.1,0.1c0.3,0.2,0,0,0.3,0.3l0-0.1c0.1,0.1,0.4,0.4,0.2,0.4c-0.1-0.1-0.1-0.1-0.2-0.2c-0.1,0,0,0.1-0.1,0
						c-0.3-0.2,0-0.2-0.2-0.4c-0.2-0.1,0.2,0.3-0.2,0c0.5,0.3-0.1,0,0.2,0.3l-0.2-0.1c0,0,0.1,0.1,0.1,0.1l-0.2-0.2
						c0.2,0.2-0.3,0-0.2,0.1c0.1-0.1,0.3,0.1,0.4,0.2c0.2,0.3-0.6-0.3-0.6-0.1c0,0,0.2,0,0.2,0.1c-0.1,0-0.2,0-0.3-0.1
						c0,0.1,0.2,0.1,0.3,0.3c-0.3-0.1,0.1,0.1,0.1,0.2l-0.2-0.2c-0.2,0,0.4,0.3,0.2,0.3l-0.2-0.3l0,0.1l-0.2-0.2
						c0.1,0.2,0.1,0.2,0,0.2c0.1,0.1,0.4,0.3,0.3,0.3c-0.1-0.1-0.2-0.2-0.2-0.1c-0.1-0.1-0.3-0.3,0-0.1c-0.1-0.1-0.1-0.1-0.2-0.2
						c-0.2-0.1-0.1,0.1-0.1,0.1c0,0,0,0,0.1,0l0.2,0.3c-0.1,0-0.1-0.1-0.2-0.2c0,0,0.1,0.1,0.1,0.2c-0.2-0.1-0.3-0.3-0.4-0.4
						l0.1,0.2c-0.1-0.1-0.2-0.1-0.3-0.2c-0.1,0,0.2,0.4,0,0.3c0,0,0,0.1,0.1,0.1c-0.1,0-0.3-0.1-0.2,0.2l-0.3-0.2
						c0,0.1,0.4,0.3,0.4,0.4c0,0.1-0.3-0.2-0.3-0.2C59.8,111,60,111.3,59.8,111.1C59.7,111.1,59.8,111.1,59.8,111.1z M59.3,111.8
						C59.3,111.8,59.2,111.6,59.3,111.8C59.5,112,59.4,111.9,59.3,111.8z M58.6,113.1C58.6,113,58.6,113,58.6,113.1
						C58.7,113.1,58.7,113.1,58.6,113.1z M55.2,115.8C55.2,115.8,55.2,115.8,55.2,115.8C55.2,115.9,55.2,115.8,55.2,115.8z
						 M55.1,115.7c0,0,0,0.1,0,0.1C55.1,115.7,55.1,115.7,55.1,115.7C55.1,115.7,55.1,115.6,55.1,115.7z M63.2,110.4L63.2,110.4
						C63.1,110.3,63.2,110.3,63.2,110.4z"/>
					<path id="XMLID_576_" class="st1" d="M58.6,112.7c0,0,0.1,0.1,0.1,0.1C58.6,112.8,58.6,112.8,58.6,112.7z"/>
					<polygon id="XMLID_575_" class="st1" points="60,110.6 60.1,110.6 60,110.6 					"/>
					<path id="XMLID_574_" class="st1" d="M56.1,113.4c0,0,0,0.1,0.1,0.1C56.1,113.5,56.1,113.4,56.1,113.4z"/>
					<path id="XMLID_573_" class="st1" d="M54.7,116.2L54.7,116.2c0-0.1,0-0.1,0-0.1C54.7,116.1,54.7,116.2,54.7,116.2z"/>
					<path id="XMLID_572_" class="st1" d="M54,114.7C54,114.7,54,114.7,54,114.7l0,0.2C54,114.8,54.1,114.7,54,114.7z"/>
					<path id="XMLID_571_" class="st1" d="M54.5,115.4C54.5,115.1,54.5,115.2,54.5,115.4L54.5,115.4
						C54.5,115.6,54.5,115.5,54.5,115.4z"/>
					<path id="XMLID_570_" class="st1" d="M54.4,115.3C54.4,115.3,54.4,115.3,54.4,115.3C54.4,115.4,54.4,115.3,54.4,115.3z"/>
					<path id="XMLID_569_" class="st1" d="M55,115.8c0-0.1,0,0.3,0,0.2C55,116.3,55.1,115.7,55,115.8z"/>
					<polygon id="XMLID_568_" class="st1" points="54.4,114.7 54.5,114.9 54.5,114.7 					"/>
					<path id="XMLID_567_" class="st1" d="M54.7,114.8L54.7,114.8C54.7,114.8,54.7,114.8,54.7,114.8
						C54.7,114.9,54.7,114.9,54.7,114.8z"/>
					<path id="XMLID_566_" class="st1" d="M54.7,114.8C54.6,114.8,54.6,114.9,54.7,114.8C54.6,114.9,54.6,114.9,54.7,114.8z"/>
					<polygon id="XMLID_565_" class="st1" points="54.5,114.6 54.5,114.6 54.6,114.6 					"/>
					<path id="XMLID_564_" class="st1" d="M55.4,114.8L55.4,114.8c0.1-0.2,0-0.2,0-0.2C55.4,114.7,55.4,114.7,55.4,114.8z"/>
					<path id="XMLID_563_" class="st1" d="M55.1,114.1c0,0.1,0,0.1,0.1,0.2l0-0.3L55.1,114.1z"/>
					<path id="XMLID_562_" class="st1" d="M55.3,114c0-0.1,0.1-0.3,0-0.2C55.3,113.9,55.2,113.9,55.3,114z"/>
					<polygon id="XMLID_561_" class="st1" points="56.3,114.3 56.3,114.3 56.4,114.8 					"/>
					<path id="XMLID_560_" class="st1" d="M56.9,112.9c-0.1-0.1,0.1,0.3,0,0.2c0,0.1,0.1,0.1,0.1,0.2C57,113.1,57,113.2,56.9,112.9z
						"/>
					<path id="XMLID_559_" class="st1" d="M57,113.3C57,113.3,57,113.3,57,113.3C57,113.3,57,113.3,57,113.3z"/>
					<polygon id="XMLID_558_" class="st1" points="64.3,106.7 64.4,106.6 64.3,106.7 					"/>
					<path id="XMLID_557_" class="st1" d="M63.9,106.6l0.3-0.1L63.9,106.6C64,106.6,64,106.6,63.9,106.6z"/>
					<path id="XMLID_556_" class="st1" d="M58.7,111.4L58.7,111.4c0.1,0.1,0.1,0.1,0.2,0.1L58.7,111.4z"/>
					<polygon id="XMLID_555_" class="st1" points="59.3,111.2 59.3,111.2 59.5,111.4 					"/>
					<path id="XMLID_554_" class="st1" d="M59.4,110.5C59.4,110.5,59.4,110.6,59.4,110.5C59.4,110.5,59.7,110.8,59.4,110.5z"/>
				</g>
			</g>
		</g>
	</g>
</g>
</svg>
