<?xml version="1.0" encoding="utf-8"?>
<!-- Generator: Adobe Illustrator 19.0.0, SVG Export Plug-In . SVG Version: 6.00 Build 0)  -->
<svg version="1.1" id="Warstwa_1" xmlns="http://www.w3.org/2000/svg" xmlns:xlink="http://www.w3.org/1999/xlink" x="0px" y="0px"
	 viewBox="0 0 186.2 285.2" style="enable-background:new 0 0 186.2 285.2;" xml:space="preserve">
<style type="text/css">
	.st0{fill-rule:evenodd;clip-rule:evenodd;fill:#010202;}
</style>
<g id="XMLID_232_">
	<path id="XMLID_284_" class="st0" d="M40.1,81.3c0.9,0.9,1.9,1.8,2.8,2.8c1.1,1.3,2.1,2.6,3.2,4.1c0.1-0.3,0.2-0.6,0.4-0.9
		c1.1,0.4,2.2,0.9,3.3,1.3c1.7,0.6,3.4,1.2,5.1,1.5c2,0.4,3.8,0.9,5.4,1.8c1.5-1.1,1.5-1.4,0.2-3.1c0,0.4-0.1,0.8-0.1,1.1
		c0,0.3,0,0.7,0.1,1c-3.8-0.2-5.4-2.6-8.1-4.3c2.1,0,3,1.1,4.4,1.7c0.3-0.5,0.5-1,0.7-1.5c-1.5-1.3-3.2-2.3-5.3-2.9
		c-2.7-0.7-5.4-1.5-8.1-2.2c-0.1,1.9,1.5,3.3,2.8,4.9c-1.4-0.5-2.6-1.3-2.9-2.5c-0.5-2-2.2-3.4-3.6-5c-2.2-2.5-3.9-5.3-5.8-7.9
		c-2.5-3.5-5.1-7-7.7-10.5c-1-1.4-1.9-2.9-2.6-4.4c0.4,0.4,0.8,0.8,1.1,1.2c5.1,6,9.7,12.2,13.7,18.6c0.8,1.3,1.5,2.9,2.9,3.8
		c1.7,1.1,4,1.6,6,2.4c0.7,0.2,1.5,0.4,2.3,0.5c-1-1.2-1.9-2.3-2.7-3.5c-0.1-0.1,0-0.3-0.1-0.7c1.7,1.5,3.2,2.9,4.8,4.3
		c0.4-1.2,0.9-2.3,1.1-3.3c0.1-0.4-0.4-0.9-0.8-1.2c-1.3-1.1-3-1.9-4.9-2.4c-1.8-0.5-3.7-1.1-5.6-1.7c0.9,2.1,2,4.2,3.6,6.3
		c-0.3-0.1-0.8-0.2-1-0.4c-0.8-0.7-1.8-1.4-2.2-2.2c-1.3-2.7-3.5-5-5.3-7.5c-3.2-4.4-6.3-8.8-9.4-13.1c-0.1-0.2-0.1-0.3,0-0.6
		c4.6,5.3,8.2,11,12.5,16.5c0.7-1,0.7-1,0-1.6c-1.5-1.3-2.6-2.7-2.7-4.4c0-0.3-0.4-0.7-0.7-1c-4.4-4.6-8-9.5-11.2-14.6
		c-0.4-0.7-0.8-1.4-1.1-2.1c4.2,5.3,7.8,10.9,12.8,15.9c-0.8-1.4-1.6-2.7-2.3-4.1c-2.2-4.1-4.4-8.3-6.4-12.4c-0.7-1.4-1-2.9-1.3-4.5
		c2.9,5.6,5.8,11.3,8.7,17c0.2-0.3,0.4-0.5,0.7-1c0.2,0.6,0.4,1,0.5,1.4c0.1,1.4,0.7,2.7,1.6,3.9c0.2,0.3,0.5,0.6,0.8,0.8
		c2.2,1.2,4.3,2.4,7,2.9c1.6,0.3,3.2,0.9,4.9,1.3c0.3-0.6,1.7-1.1,1.1-2.1c1.4-0.5,1.6-1.2,0.6-2.5c-0.2,0.9-0.4,1.7-0.6,2.5
		c-0.1-0.3-0.3-0.7-0.4-1c-0.2-1.2-0.5-2.4-0.7-3.6c0,0,0.3,0,0.8-0.1c-0.4-0.6-0.8-1.1-1.2-1.5c-0.9,1-1.7,1.9-2.6,2.8
		c-1.1,1.1-2,2.1-1.3,3.7c-1.2-0.3-1.3-0.9-1.3-1.6c-0.1-1.6-2.5-4.3-4.6-4.6c-2.7-0.4-4.1-1.6-5-3.5c-1.4-2.7-3.3-5.3-4.7-8
		c-1.1-2-1.8-4.2-2.8-6.2c-0.4-0.8,0.7-1.5,0-2.3c-0.7-0.9-1-1.9-1.4-2.9c-0.4-0.9-0.6-1.9-0.8-2.8c1.9,2.3,3,4.9,4.1,7.5
		c0.2,0.5,0.6,0.9,0.9,1.4c0,0.1-0.1,0.3,0,0.4c1.2,3.2,2.3,6.3,3.5,9.5c0.2,0.5,0.6,0.9,0.9,1.5c0.4-0.7,0.8-1.2,1.1-1.7
		c0.5-0.3,1-0.6,1.6-1c-1.4-1.3-2.7-2.5-4-3.7c-0.1-0.2-0.3-0.4-0.4-0.7c-0.5-1-1.1-2-1.6-3c1.9,2.2,3.8,4.3,5.7,6.5
		c1,1.1,2.4,1.7,4.1,2.1c-3.8-3.4-6.6-7.2-8.7-11.3c0.1-0.1,0.2-0.1,0.3-0.2c0.3,0.3,0.7,0.7,1,1c2.9,3.5,5.8,7,9.8,9.9
		c0.1,0-0.2,0.3-0.3,0.5c-1.4-1.1-2.7-2.1-4.1-3.2c0.3,0.8,0.8,1.5,1.4,2.1c0.6,0.7,1.4,1.4,2.7,1c0.8,0.3,1.6,0.6,2.4,1
		c0.1,0,0.2-0.1,0.2-0.1c-5-5.3-10-10.6-15.1-15.9c0.1-0.1,0.3-0.2,0.4-0.2c1.6,1.5,3.2,2.9,4.7,4.5c3.8,4,7.4,8.2,11.2,12.2
		c0.4,0.5,0.8,1,1.7,1c-0.5,0.4-0.7,0.8-0.4,1.3c0.5,0.9,1.1,1.8,1.6,2.7c0.1,0,0.3-0.1,0.4-0.1c-0.2-0.5-0.5-1-0.7-1.5
		c-0.3-0.8-0.6-1.5-1-2.3c-1.2-2-2.4-3.9-3.6-5.9c0.1,0,0.3-0.1,0.4-0.1c3.1,4.3,5,9,7.7,13.4c0-0.4,0-0.8,0-1.2c0.1,0,0.1,0,0.2,0
		c0.7,1.5,1.4,3,2,4.5c0.2,0,0.3-0.1,0.5-0.1c-2.6-7.1-4.2-14.4-6-21.7c0.1,0,0.3,0,0.4-0.1c1.8,5.7,3.4,11.5,5.4,17.2
		c2,5.7,4.2,11.4,6.7,17c0-0.3,0-0.7,0-1.3c1.4,1.2,2.6,2.1,3.9,3c1.5,1,2.9,2.2,4.6,2.9c2.2,1,4,2.2,5.5,3.8
		c1.2-0.7,1.8-1.6,2.4-2.4c0.9-1.2,1.7-2.5,2.5-3.8c0.2-0.2,0.2-0.6,0.1-0.8c-0.3-1.1-0.6-2.2-0.9-3.4c-2.1,1.4-4,2.7-5.4,4.4
		c-1,1.1-0.8,2.2,0.5,3.3c0.4-0.9,0.9-1.7,1.4-2.8c0.6,1.1,0.4,2.3-0.3,4.2c-2.4-0.7-3.5-2.2-4.5-3.7c-0.8-1.2-1.8-2.3-2.4-3.8
		c2.1,0.8,2.7,2.3,3.9,3.4c0.5-0.6,0.9-1.2,1.3-1.8c-1.7-2.7-4.1-5-7.5-6.7c-1.9-1-3.5-2.3-5.4-3.4c-0.7,2.5,0.6,4.9,1.2,7.2
		c-1.5-1.3-2-2.8-2.3-4.5c-0.1-0.8,0-1.6-0.1-2.5c0-0.5,0.2-1.1-0.7-1.3c-0.2,0-0.2-0.3-0.3-0.5c-0.5-1.3-0.8-2.6-1.5-3.8
		c-1.6-2.4-1.4-5-2.2-7.4c-1.9-6.3-3.7-12.5-5.9-18.8c-0.8-2.2-1.2-4.4-1.5-6.7c0.5,1.1,1,2.1,1.4,3.2c1.4,3.7,2.7,7.3,4,11
		c0.7,1.9,1.2,3.8,1.8,5.7c0,0.1,0,0.3,0.1,0.4c0.2,0.1,0.6,0,0.6,0.4c0,0.8,0.1,1.6,0.3,2.3c1,3.9,2,7.8,3.1,11.7
		c0.1,0.5,0.5,0.8,1.1,1.1c1.1,0.7,1.9,1.6,2.9,2.4c1.4,1,2.9,2,4.5,2.9C69,72.8,68.1,71,68.2,69c1.6,1.9,2.3,4.2,4,6.5
		c0.3-0.8,0.4-1.3,0.6-1.8c0.2-0.5,0.3-1.1,0.8-1.5c1-1,0.7-1.9,0.1-2.8c-1-1.5-2.3-2.9-4-3.9c-2-1.3-3.9-2.6-6-3.9
		c0.2,3,0.8,6,1.8,9c-1.6-1.1-2.4-2.5-2.6-4c-0.6-4.2-2.4-8.2-3.7-12.2c-1.7-5.7-3.5-11.5-5.2-17.2c-0.4-1.2-0.7-2.5-0.9-3.7
		c3.6,8.7,5.8,17.6,8.9,26.5c0.9-1.4,0.9-1.4,0.2-2.6c-1.1-1.9-1.7-3.8-1.3-5.8c0.1-0.4-0.1-0.9-0.2-1.3c-1.6-4.1-3.3-8.1-4.8-12.2
		c-1.1-3.2-1.9-6.6-2.7-9.9c-0.5-1.8-0.9-3.5-1.3-5.3c-0.1-0.5-0.1-1-0.1-1.4c2.8,9.3,5.3,18.7,9.7,27.8c-0.1-0.8-0.2-1.6-0.4-2.3
		c-0.6-2.9-1.3-5.9-1.8-8.8c-0.7-4.2-1.5-8.4-2-12.6c-0.3-2.7-0.1-5.5-0.1-7.4c1.2,7.9,2.6,16.6,3.9,25.4c0.5-0.5,0.9-0.8,1.3-1.2
		c-0.1,1.2-0.3,2.4-0.2,3.6c0.2,1.6,0.1,3.3,1.1,4.7c1.7,2.4,3.9,4.5,7.1,6c1.7,0.8,3.2,1.7,4.1,3c3.3-2.1,4.6-4,3.7-5.6
		c-0.8,0.9-0.5,2.1-2,3c0.6-2.2,1.5-4.2,0.5-6.2c0.5,0,0.8,0,1.3,0.1c-0.2-0.8-0.5-1.6-0.7-2.3c-1.2,1-2.2,2-3.5,2.8
		c-1.9,1.2-3.3,2.5-2.8,4.6c-1.2-0.9-1.3-1.1-0.9-2.4c0.1-0.5,0.3-1,0.1-1.5c-0.2-0.8-0.7-1.6-1-2.4c-0.7-1.6-1.8-3-3.9-3.9
		c-1.5-0.7-2.4-1.6-2.6-2.9c0-0.2-0.2-0.3-0.4-0.5c-0.2-1.2-0.3-2.4-0.6-3.6c-1.4-4.4-1.9-8.9-2.6-13.4c-0.3-2.2-0.3-4.4-0.5-6.8
		c0.8,0.6,0,1.5,1.1,1.8c-0.1,1-0.2,2-0.3,3c0.2,0,0.3,0,0.5,0c-0.1-1-0.1-2-0.2-2.9c-0.4-3.7-0.7-7.3-1.1-11c1.3,2.8,1.8,5.7,2,8.6
		c0.5,5.8,0.8,11.6,1.2,17.3c0.1,0.9,0.3,1.8,0.5,2.7c1.3-1,2.6-1.8,3.9-2.8c-1-1.9-2-3.9-3.1-5.8l0,0c-0.5-2.2-1-4.5-1.5-6.8l0,0
		c0.3,0.8,0.7,1.6,0.9,2.4c0.8,3.3,2.4,6.4,4,9.5c0.7,1.3,2,2.3,3.4,3.4c0.1-0.5,0.2-0.7,0.2-0.9l0,0c1.6,0.9,3.1,1.8,4.8,2.8
		c-3.5-8.4-7.9-16.5-10.9-24.9c0.3,0.4,0.6,0.8,0.8,1.2c3.7,7.3,7.4,14.6,10.2,22.1c0.5,1.3,1.1,2.5,1.6,3.7
		c0.1,0.4,0.2,0.8,0.1,1.1c-0.2,1-0.3,1.9,0.4,2.8c0.2,0.3,0.1,0.8,0.1,1.1c0.1,0.4,0.2,0.7,0.4,1c0.5-1.3-1.1-10.9-2.3-14.6l0,0
		c1,0.1,0.7,0.7,0.8,1.1c0.6,2.8,1.3,5.7,1.8,8.5c0.5,2.9,0.9,5.9,1.3,8.9c0.1,0.6,0.2,1.1,0.7,1.6c0.5,0.5,0.5,1.4,0.7,2.1
		c0.3,1,0.6,1.9,1,3.1c0-3,0-5.8,0-8.6c0.1-3.9,0.1-7.8,0.3-11.7c0.2-2.6-0.3-5.2-0.6-7.9c-0.3-2.1-0.4-4.3-0.4-6.4
		c0.4,1.4,0.8,2.8,1.2,4.4c0.1-0.3,0.2-0.4,0.3-0.7c0.4,3.3,0.8,6.6,1.2,9.8c0.4,3.2,0.9,6.4,1.4,9.7c1.2-3,0.7-6,0.3-9
		c-0.3-1.9-0.5-3.8-0.7-5.7c-0.3-2.5-0.5-5-0.5-7.6c2,8.9,2.8,17.9,4.1,27.2c0.9-0.9,1.3-1.6,0.8-2.6c-0.9-2-1.2-4-0.3-6
		c0.1-0.3,0.1-0.7,0-1c-1.4-4.4-2.1-8.9-2.8-13.4c-0.4-2.3-0.4-4.6-0.6-6.8c-0.2-2.3-0.4-4.6-0.6-6.8c-0.1-0.8,0-1.5,0.2-2.3
		c1.2,9.6,2.1,19.1,4.8,28.6c0-0.9,0-1.8,0-2.7c-0.1-2.8-0.2-5.6-0.2-8.5c0-4.5,0-9,0.3-13.4c0.2-2.7,0.8-5.3,1.5-7.9
		c-0.1,1.6-0.3,3.3-0.4,4.9c-0.1,0.9-0.2,1.7-0.2,2.6C91.1,22.6,91,28.3,91,34c0,0.5,0,1,0,1.5c0.6-0.4,1-0.7,1.5-1
		c-0.3,1.1-0.6,2.2-0.9,3.3c-0.5,1.8-0.7,3.7,0.2,5.3c1.3,2.5,3.1,4.8,6,6.6c1.5,0.9,2.8,1.9,3.5,3.4c1.9-1,3.5-2,4.6-3.5
		c0.4-0.6,0.5-1.2,0.2-2.1c-0.9,1.1-1.2,2.2-2.4,2.9c0.7-2,2-3.8,1.4-5.9c0.5,0.1,0.8,0.1,1.2,0.2c-0.1-0.8-0.1-1.6-0.2-2.4
		c-1.4,0.9-2.6,1.8-4,2.5c-2.2,1.1-3.5,2.2-3.6,4.2c-1-0.7-0.9-1.5-0.5-2.2c0.7-1.1,0.4-2.1,0.2-3.1c-0.4-2.2-1.2-4.2-3.8-5.6
		c-1.2-0.7-1.8-1.7-1.7-2.8c0-0.3-0.1-0.6-0.2-0.9c-0.1-1.3-0.2-2.6-0.2-3.9c-0.1-4.2-0.2-8.5-0.1-12.7c0-2.6,0.5-5.1,0.9-7.6
		c0,1.9,0,3.9,0,5.8c0.8-4.7,0.5-9.5,1.8-14.1c0.5,5.8,0.1,11.6-0.8,17.3c-0.5,3.3-0.7,6.6-1,9.9c0,0.4,0.1,0.8,0.1,1.5
		c0.5-0.5,0.6-0.8,1-1c1.2-0.6,0.9-1.5,0.8-2.4c-0.3-2.1-0.5-4.2-0.2-6.3c0.1,0,0.3,0,0.4,0c0.2,2.6,0.4,5.2,0.6,8
		c0.6-0.3,1.2-0.6,1.8-0.9c-1.6-4.4-2.9-8.8-2.2-13.7c0.4,2.6,0.5,4.9,1,7.2c0.4,2.1,1.1,4.2,1.8,6.3c0.4,1.2,1.5,2.2,2.7,3.2
		c-1.1-2.9-1.6-5.9-2.1-8.9c-0.4-3-0.7-6-0.7-9c0.2,0,0.3,0,0.5,0c0.7,3.2,1.3,6.4,2.2,9.5c0.8,2.8,2,5.5,3,8.3
		c0.1,0.3,0.5,0.6-0.1,0.8c-1-2.1-2.1-4.1-3.2-6.3c0.1,1.1,0.3,2.1,0.4,3.1c0,0.3,0.1,0.7,0.3,1c0.4,1,0.8,2,2.4,2.2
		c0.6,0.7,1.2,1.3,2.1,2.2c-2.1-8.9-5-17.4-6.5-26.1c0.1,0.3,0.3,0.7,0.4,1c1.5,4.9,3,9.9,4.4,14.8c1.1,3.9,1.8,7.9,2.7,11.8
		c0,0.2-0.2,0.5-0.4,0.7c0.1,0.1,0.1,0.2,0.1,0.3c0,1.6,0,3.1,0,4.7c0,0.3,0.3,0.5,0.4,0.8c0.2,0,0.3,0,0.4-0.1c0-1.4,0-2.8,0-4.2
		c0-0.6-0.3-1.1-1-1.5c0.6-0.1,1.1-0.3,1.1-0.8c0-0.9-0.1-1.8-0.1-2.6c0-2.9,0-5.7,0.1-8.6c0.2,1.7,0.4,3.5,0.4,5.2
		c0,5.6,0,11.2,0,16.8c0,0.5,0.2,0.9,0.3,1.4c0.1,0.2,0.3,0.5,0.2,0.7c-0.7,1.5,0.7,2.7,0.8,4.1c0.9-5,1.6-9.9,2.6-14.9
		c1-5,2.2-10,3.7-14.9c-0.3,2-0.6,4.1-1,6.1c-1.1,6-2.3,12-3.4,18.1c-0.5,3-0.8,6.1-1.2,9.1c0,0.3,0,0.6,0.1,0.9
		c1.8-6.8,3.9-13.5,6.9-20.1c0,0.3,0,0.6-0.1,0.9c-2.3,6.3-4,12.7-5.4,19.1c-0.7,3.4-1.5,6.8-2.1,10.2c-0.4,2.6-0.7,5.1-1,7.7
		c-0.1,0.8-0.2,1.7-0.5,2.4c-0.9,2.1-0.8,4.2-0.5,6.4c1.8-7.5,3-15.1,5.7-22.6c-1.1,4.9-2.2,9.8-3.3,14.7c0.2,0,0.3,0,0.5,0.1
		c0.6-1.5,1.2-3,1.8-4.6c-2,7.9-4.6,15.8-4.5,23.9c1-1.9,1.2-3.8,1.5-5.8c0.2-0.8,0.3-1.5,0.5-2.3c0.1-0.2,0.4-0.4,0.5-0.5l0,0
		c-0.2,1.7-0.5,3.4-0.7,5.1c0.2,0,0.3,0,0.5,0c0.6-2.5,1.3-5,2-7.5c0.6-2.1,1.1-4.2,1.7-6.3c0.1-0.2,0.4-0.3,0.5-0.5l0,0
		c-1.6,6.1-3.2,12.2-4.8,18.3c-0.2,0.8-0.4,1.7-0.4,2.6c0.2-0.2,0.5-0.4,0.6-0.6c0.5-1.4,1-2.9,1.5-4.4c0.7-2.3,1.4-4.6,2.2-7
		c1.3-4,2.8-7.9,3.8-11.9c1.6-6.2,2.9-12.4,4.2-18.6c0.4-1.7,0.5-3.3,0.9-5c-0.4,7.4-1.6,14.7-3.2,22.1c0.3-0.6,0.6-1.1,0.9-1.7
		c0.3-0.6,0.6-1.3,0.8-2c1.9-5.9,3.7-11.9,5.6-17.8c1.2-3.7,2.4-7.5,3.6-11.2c0.1,0,0.3,0,0.4,0.1c-1.3,5-2.5,9.9-4,14.9
		c-1.5,4.9-3.1,9.8-4.8,15c0.6-0.8,1.1-1.4,1.6-2.1c0.6-0.7,1.3-1.2,1.3-2.1c0-0.1,0.1-0.3,0.2-0.4c2-1.5,2.3-3.7,3.3-5.5
		c1.8-3.3,3.4-6.7,5.2-10.1c0.6-1.2,1.3-2.4,2-3.6c0.1,0,0.3,0.1,0.4,0.1c-1.4,2.6-2.8,5.3-4.1,7.9c0.1,0,0.3,0.1,0.4,0.1
		c3.2-3.9,6.4-7.9,9.6-11.8c3.2-3.9,6.5-7.8,10.4-11.4c-0.2,0.3-0.3,0.7-0.6,1c-4.6,5.5-9.2,10.9-13.8,16.4c-1.1,1.3-2.1,2.6-3.2,4
		c1.4-0.4,2.7-0.8,3.9-1.2c0.6-0.2,1.3-0.6,1.7-1c0.9-1,1.7-2.1,2.4-3.3c-2,1.3-3,3.2-5.5,4.1c5.4-4.6,9.2-10.1,13.4-15.5
		c0.3,2-5.3,10.3-10.6,15.8c0.5-0.1,0.9-0.2,1.2-0.3c1.8-1,3.5-2.1,4.6-3.6c1.8-2.4,3.6-4.7,5.5-7.1c0.2-0.2,0.5-0.4,0.7-0.6l0,0
		c-0.3,0.8-0.7,1.5-1,2.3c-0.2,0.4-0.4,0.8-0.5,1.2c-1.9,2-3.7,4-5.7,6.1c0.7,0.3,0.4,1.3,1.7,1.1c0.3,0.7,0.6,1.4,1.1,2.3
		c0.4-0.6,0.8-1.1,1-1.5c1.3-3.2,2.7-6.3,3.8-9.5c1.6-4.6,3.6-9.2,5.9-13.6c0.3-0.6,0.8-1.1,1.5-1.6c-0.5,1.3-0.9,2.5-1.4,3.8
		c-0.6,1.4-1.3,2.8-1.9,4.2c-0.2,0.5-0.3,1.1-0.4,1.7c-0.4,0.7-0.9,1.5-1.3,2.2c0.2,0,0.3,0.1,0.5,0.1c0.2-0.8,0.5-1.6,0.7-2.4
		c0.5-0.7,0.9-1.3,1.5-2.2c-1.6,5.2-3.9,9.9-6.4,14.6c-1.2,2.2-2.6,4.2-3.8,6.4c-0.4,0.6-0.5,1.3-0.8,1.9c-0.1,0.1-0.4,0.2-0.4,0.3
		c-0.7,1.5-2.2,2.2-4.1,2.8c-0.7,0.2-1.4,0.4-1.9,0.7c-2.3,1.8-4.6,3.6-4.7,6.3c0,0.7-0.2,1.4-1.7,1.8c1.3-1.7,0.5-3.1-0.6-4.3
		c-1.1-1.3-2.4-2.5-3-4.1c-0.5,0.8-1,1.5-1.5,2.4c0.5,0,0.8-0.1,1.5-0.1c-1.8,1.9-1.4,4-1.6,5.9c-0.2,0-0.3,0-0.5,0
		c-0.1-1.1-0.3-2.1-0.5-3.5c-1.7,2.7,0.3,4.6,1.6,6.5c1.3-0.6,2.4-1.3,3.6-1.7c2.6-0.7,4.9-1.7,7.2-2.9c3.1-1.6,4.7-3.7,5.6-6.3
		c0.4-1.3,0.6-2.6,0.9-3.9c0.2,0.4,0.5,0.8,0.8,1.4c2-4.1,4-8.1,6-12.2c2-4,3.9-8.1,6-12.1c-0.4,1.1-0.8,2.2-1.1,3.4
		c-1.1,4.2-3.5,8-5.5,12c-1.7,3.4-3.3,6.9-5.1,10.3c-0.6,1.2-1.3,2.3-2,3.5c0.1,0.1,0.3,0.1,0.4,0.2c0.3-0.4,0.6-0.7,0.9-1.1
		c4.7-5.8,8.6-12,12.6-18c0.4-0.7,0.8-1.3,1.3-2c0.2-0.3,0.6-0.5,0.9-0.7l0,0c-1.7,2.9-3.3,5.8-5.1,8.7c-3.2,5.1-6.8,10.1-10.9,14.9
		c-0.3,0.3-0.6,0.7-0.6,1.1c-0.1,2.2-1.4,4-3.2,5.7c-0.8,0.7-0.9,1.3-0.3,2.4c5.5-8.2,11-16.3,16.4-24.3c0.2,0.1,0.3,0.1,0.5,0.2
		c-0.9,1.5-1.8,3-2.7,4.4c-2.2,3.5-4.5,7-6.8,10.5c-1.7,2.5-3.4,5-5.2,7.4c-1.8,2.5-3.6,5-4.9,7.7c-0.8,1.6-2.1,3-4.1,4
		c1.9-2.8,3.4-5.6,4.6-8.5c-2.8,1.1-5.5,2.2-8.2,3.3c-2,0.9-3.6,2.1-4.8,3.6c-0.2,0.2-0.4,0.5-0.3,0.8c0.3,1.3,0.6,2.6,0.9,4.1
		c2.3-1.6,3.5-3.8,5.7-5.5c0,0.9-0.2,1.4-1.3,2.8c-0.7,0.8-1.4,1.6-2.3,2.6c1.7-0.4,3-0.8,4.2-1.4c1.9-0.9,3.7-1.8,5.6-2.7
		c0.3-0.2,0.6-0.5,0.8-0.8c2.3-3.8,4.6-7.7,6.9-11.5c0.5-0.8,1.2-1.6,1.8-2.4c1.3-2,2.6-3.9,4-5.9c2-2.8,4.1-5.6,6.1-8.4
		c0.7-0.9,1.4-1.9,2.4-2.7c-0.1,0.3-0.2,0.7-0.4,1c-2.7,4-5.4,8-8.1,12c-2.6,4-5.2,8.1-7.8,12.1c-0.2,0.3-0.3,0.6-0.4,1
		c-0.4,1-0.9,1.9-1.9,2.7c-1.2,1-1.9,2.3-2.8,3.5c-0.3,0.4-0.4,0.8-1.2,1c-0.5,0.2-0.7,1-0.8,1.5c-0.6,2-1.6,3.9-3.5,5.5
		c-0.2,0.1-0.4,0.3-0.7,0.3c1.2-2.2,3.4-4.2,3.3-6.8c-2,0.8-3.9,1.8-6,2.4c-3.9,1.1-7.1,2.8-9.7,5.3c0.2,0.6,0.4,1.2,0.7,1.9
		c1.6-0.9,2.7-2.3,5-2.7c-1.3,1.5-2.7,2.6-4.1,3.8c-1.4,1.2-2.8,2.3-5.3,2.4c0.2-1.3,0.4-2.6,0.6-4.3c1.1,1.1,0.7,2.1,1,2.9
		c1.6-0.7,2.1-1.4,1.6-2.7c-0.4-1-1-2.1-1.7-2.9c-1.2-1.4-2.4-2.8-2.6-4.5c-2.4,2.3-2.6,5.1-3.7,7.8c0.5-0.6,1.1-1.2,1.6-1.9
		c0.8,0.4,0.7,0.9,0.8,1.4c0.5,1.9,1,3.8,2.3,5.7c0.8-0.5,1.5-0.9,2.3-1.2c0.9-0.4,1.9-0.9,2.9-1.2c2.9-0.7,5.6-1.7,8-3.1
		c1-0.6,2.1-1,3.4-1.7c-0.1,0.5-0.2,0.8-0.3,1.2c8.2-10.1,15.7-20.4,22.3-31c-0.8,2.4-2.4,4.5-3.6,6.7c-1.3,2.3-2.7,4.6-4.1,6.8
		c-1.4,2.2-3,4.4-4.4,6.7c1.7-0.9,2.2-2.5,3.6-3.8c0,0.5,0,0.8,0,1.1c4-4,7.4-8.2,11.9-11.8c-1.6,1.7-3.2,3.4-4.7,5.2
		c-1.2,1.1-2.4,2.3-3.2,3.7c0.3-0.1,0.6-0.1,0.8-0.3c0.3-0.3,0.4-0.7,0.8-0.9c1.1-0.7,1.5-1.5,1.5-2.5c0.4-0.2,1-0.2,1.3-0.5
		c4.4-3.1,8.8-6.2,13.3-9.2c2.1-1.4,4.4-2.7,6.5-4c0.1-0.1,0.3-0.1,0.6-0.1c-5.9,4.6-12.7,8.4-18.9,12.9c1-0.1,1.8-0.3,2.6-0.2
		c1.7,0.1,2.9-0.4,3.9-1.3c0.5-0.4,1-0.8,1.4-1.3c-1.9,0.7-3.2,2-5.6,2.3c2.7-1.5,5.1-2.9,7.5-4.4c2.4-1.4,4.2-3.3,6.8-4.5
		c-3.2,3.6-6.9,6.8-11.5,9.4c1.2,0.1,2.8-0.2,4.1-1c2-1.3,3.9-2.6,5.8-3.9c0.3-0.2,0.6-0.3,0.9-0.5c-0.5,0.6-1.1,1.2-1.6,1.8
		c-1.8,1.1-3.6,2.2-5.3,3.3c0.3,0.6,0.3,1.2,1.3,1.1c0.1,0.6,0.1,1.2,0.2,2.1c0.6-0.5,1-0.8,1.3-1.1c2.3-3,4.5-6,6.7-9.1
		c0.1-0.1,0-0.3-0.1-0.4c0.8-0.9,1.7-1.7,2.5-2.6c1.1-1.2,2.2-2.5,3.3-3.7c0.4-0.4,0.9-0.7,1.3-1c0.1,0.1,0.2,0.1,0.3,0.2
		c-1.2,1.5-2.3,3-3.5,4.5c-0.5,0.6-0.8,1.1-0.9,1.8c-0.1,0.9-0.9,1.8-1.6,2.6c-3.1,3.5-6,7.1-9.9,10.2c-0.8,0.7-1.3,1.3-0.6,2.4
		c2.4-2.6,4.7-5.2,7-7.7c2.3-2.5,4.6-5,7-7.4c-1,1.4-1.9,3-3,4.3c-3.5,4-7.2,7.9-10.9,11.9c-0.7,0.8-1.6,1.5-2.2,2.5
		c0.3-0.2,0.7-0.3,1-0.5c4-3.2,8-6.3,12-9.5c1.7-1.4,3.4-2.8,5.1-4.2l0,0c-1,1-1.9,2.1-3,3c-4.1,3.9-8.4,7.6-13.3,11
		c-0.6,0.4-1.2,0.8-1.8,1.2c-0.8,0.5-1.3,1-1.6,1.7c-0.6,1.3-1.8,2.3-3.3,3c-0.9,0.4-1.3,0.9-0.9,1.9c5.9-4.9,11.7-9.7,17.4-14.5
		c0.1,0,0.2,0.1,0.3,0.1c-0.1,0.2-0.2,0.5-0.4,0.6c-5.3,4.8-10.9,9.4-16.6,13.9c-1.4,1.1-2.6,2.3-3.8,3.5c-1.1,1.1-2.4,2-4.5,2.5
		c2-1.9,3.8-3.8,6-5.9c-0.8,0.1-1.2,0.2-1.6,0.3c-1.6,0.2-3.1,0.5-4.7,0.6c-2.8,0.2-5,1-6.8,2.4c0,1.1,0,2.3,0,3.7
		c2-1.1,3.8-2.2,5.7-3.2c-0.6,1.4-2.1,2.3-3.8,3.2c1.8,0.2,3.2,0,4.5-0.3c1.4-0.3,2.8-0.5,4.2-0.9c0.5-0.1,0.9-0.4,1.2-0.7
		c1.8-1.6,3.6-3.1,5.3-4.7c5.3-4.9,11-9.6,17.1-14c0.5-0.3,1-0.6,1.7-0.8c-1.4,1.3-2.9,2.6-4.4,3.9c-3.1,2.6-6.4,5.2-9.5,7.9
		c-1.9,1.6-3.6,3.5-5.3,5.2c-0.4,0.1-0.9,0.2-1.1,0.4c-1.6,1.2-2.9,2.6-4.7,3.5c-1.4,0.8-2.1,1.7-2.9,2.7c-0.9,1.1-2,2-3.8,2.4
		c1.5-1.4,3.5-2.5,4-4.4c-3,0.3-5.9,0.5-8.8,0.8c-2.2,0.2-4.1,1-5.9,2c0.1,0.5,0.1,1,0.2,1.5c1.5-0.3,2.7-1.2,4.3-0.9
		c-2.7,1.2-4.9,3.2-8.7,2.7c0.2-0.7,0.4-1.3,0.7-2.3c-1.5,1.1-2.1,2.1-1.1,3.2c1.4-0.2,2.8-0.7,4.2-0.6c3.3,0,6.4-0.4,9.5-1.1
		c0.7-0.2,1.5-0.2,2.2-0.2c1.5-1.1,3.1-2.2,4.7-3.3c2.2-1.6,4.7-3,6-5.2c0-0.1,0.2-0.1,0.3-0.2c0.2,0.6,0,1-0.5,1.5
		c-0.8,0.9-1.6,1.8-2.2,2.8c5-2.8,8.8-6.4,12.3-10.1c0.1,0.1,0.3,0.2,0.4,0.2c-4.2,4.5-8.5,8.9-12.7,13.4c0,0,0.1,0.1,0.1,0.1
		c1-0.6,2-1.2,3-1.8c0.1,0.1,0.2,0.2,0.3,0.2c-0.2,0.2-0.3,0.5-0.5,0.6c-1.5,1-3.1,2-4.6,3c-2.1,1.4-4.1,2.9-6.1,4.3
		c-1.4,1-2.9,1.9-4.4,2.9c-0.6,0.4-1.2,0.9-1.7,1.5c0.3-0.2,0.7-0.3,1-0.5c4.1-2.6,8.1-5.1,12.2-7.7c1.1-0.7,2.2-1.3,3.4-1.9
		c0.1,0.1,0.2,0.2,0.3,0.2c-0.9,0.6-1.8,1.2-2.7,1.8c-6.1,4.3-12.4,8.5-19.1,12.4c-4.3,2.5-8.7,5-13.1,7.3c-1.4,0.8-3.1,1.2-4.8,1.7
		c-0.8,0.2-1.4,0.5-1.8,1c-1.7,2-3.2,4-4.5,6.2c-2.6,4.4-5,8.8-7.1,13.3c-1.3,2.8-2.4,5.6-3.7,8.8c1.5-0.4,2.6-0.7,3.7-0.9
		c1.4-0.2,2.9-0.4,4.3-0.3c2.6,0.1,4.7,0.9,6.2,2.7c1.3,1.6,2.1,3.2,2.6,5c1.2,3.9,1.1,7.8,0.9,11.8c-0.2,3.8-0.8,7.7-1.3,11.5
		c-0.8,5.4-1.7,10.7-2.5,16.1c-0.7,4.4-0.9,8.7-1,13.1c-0.1,6.4,0.7,12.8,2.4,19c1.4,5.2,3.3,10.2,7.3,14.8
		c-1.2-0.4-1.7-0.8-2.5-1.7c-2.2-2.7-3.9-5.6-5.1-8.7c-1.7-4.5-2.5-9.1-3.3-13.6c-0.4-2.3-0.5-4.6-0.5-6.9c0-3.7-0.2-7.3-0.9-10.9
		c-1-5.1-1-10.2-1.1-15.3c-0.1-6.1-1.2-12.1-3.3-18c-0.9-2.4-2.7-4.4-5.4-6c-0.3-0.2-0.6-0.4-1-0.5c-1.3-0.4-2.4-0.1-2.8,0.9
		c-0.8,1.8-1.4,3.6-2.3,5.7c0-1.6,0-2.9,0-4.3c-1.3,1.9-1.6,3.9-0.9,5.6c0.7-0.1,1.4-0.1,2.2-0.2c0.9,0.8,2,1.6,0.8,2.7
		c2.3,1.7,2.1,2.5-0.9,3.1c0.6-0.5,1.1-0.9,1.7-1.4c-0.4-0.5-0.8-0.9-1.2-1.4c-1.8,0.2-3.4,1.1-5.6,0.5c1-0.3,1.8-0.6,2.7-0.9
		c-0.1-0.4-0.2-0.7-0.3-1.2c-4.8,0.9-9.6,1.9-14.2-0.2c-0.5,0.9-0.1,1.5,0.9,1.8c1.2,0.3,2.5,0.6,3.8,0.7c1.8,0.1,3.6,0,5.5,0
		c-1,0.7-3.4,1.1-5.6,1.1c-2,0-3.8-0.5-5.5-1.6c-0.5,0.9,0.3,1.4,1,1.7c1,0.4,2.1,0.8,3.3,1c2.7,0.4,5.4,0.5,8.1,0.3
		c1.2-0.1,2.4-0.1,3.6-0.1c-1.8,0.9-3.9,1-5.9,1.2c-2,0.2-4,0-6.1,0c0.1,0.3,0.3,0.6,0.5,1c3.2,0,6.3,0,9.5,0
		c-2.9,1.3-6.1,0.9-9.3,1c-0.1,0.5-0.3,0.9-0.3,1.4c-0.2,3.6-1,7-2.1,10.5c-1.4,4.6-2.4,9.2-4,13.7c-2.3,6.8-4.6,13.7-7.6,20.4
		c-3.8,8.4-8.3,16.5-12.4,24.8c-0.1,0.2-0.3,0.4-0.7,0.5c0.6-1.6,1.2-3.3,1.9-4.9c2.5-5.4,4.9-10.8,7.5-16.2
		c3.4-7,6.2-14.2,8.5-21.4c0.9-2.9,2.1-5.8,2.9-8.8c1.4-5,2.8-10,4.1-15c0.4-1.7,0.6-3.5,1-5.2c-1.9-0.5-2.7-1.6-3-2.9
		c0,0,0-0.1-0.1-0.1c-2.1-1.3-0.9-2.9-0.7-4.5c0.2-1.3,0.5-2.5-0.2-3.9c-1.1-2.2-1.6-4.5-2.4-6.8c-0.1-0.3-0.2-0.5-0.3-0.9
		c-2.4-0.1-3.8,0.9-5.4,2c-4.7,3.2-6.5,7.5-7.4,12c-1.2,5.7-2.2,11.5-3.2,17.2c-1,5.2-2.8,10.3-5.5,15.2c-1.6,2.9-2.9,5.9-4.1,9
		c0.4-0.5,0.9-1.1,1.3-1.6c2.7-4,5.5-7.9,7.2-12.2c1.3-3,2.5-6,3.4-9c1.4-4.6,2.6-9.1,3.8-13.7c0.2-0.7,0.7-1.5,0.4-2
		c-0.7-1.2,0.3-2.1,0.7-3.1c0.9-2.4,2.1-4.8,3.1-7.2c0.7-1.6,1.7-3,4-4c-0.7,1-1.4,1.9-2,2.8c-2,2.9-2.8,6-3.5,9.1
		c-0.8,3.4-1.6,6.9-2.4,10.4c-1.1,4.5-2.5,9-4.2,13.4c-2.6,6.5-6.5,12.6-11.1,18.5c-2.1,2.7-4.1,5.5-6.1,8.2c-1.6,2.2-3.6,4.2-6,6
		c-0.9,0.7-1.7,1.5-2.6,2.4c0-0.3,0-0.4,0-0.6c-1.4,0.2-2.8,0.5-4.1,0.7c0-0.1-0.1-0.1-0.1-0.2c0.4-0.2,0.9-0.4,1.3-0.6
		c1.4-0.7,2.8-1.3,4.1-2c2.1-1.1,3.3-2.7,4.2-4.4c3.2-5.8,6.3-11.6,9.4-17.4c1.5-2.8,2.8-5.7,4.2-8.5c1.7-3.5,2.4-7.1,3.1-10.7
		c0.7-3.1,1.2-6.2,1.8-9.3c0.4-2.3,0.8-4.5,1.4-6.8c0.7-2.8,1.8-5.5,3.6-8c1.7-2.4,4.5-4.2,7.4-5.8c0.8-0.4,2-0.4,3.2-0.7
		c-0.9-2.6-1.7-5.3-2.8-7.9c-1.7-4-3.5-8-5.5-11.9c-1.7-3.3-3.8-6.5-5.8-9.8c-0.4-0.6-0.9-1-1.8-1.2c-1-0.3-2.1-0.7-2.9-1.2
		c-2.3-1.7-4.5-3.4-6.7-5.2c-0.3-0.3-0.5-0.6-0.5-1.1c1,0.4,2,0.9,3,1.2c1.1,0.3,2.3,0.3,3.6,0.2c-1.8-1.1-3.6-2.2-5.4-3.3
		c2.4,0.3,4.1,1.5,6.1,2.4c-0.9-3.2-1.5-3.8-6.6-4.7c-2.2-0.4-4.4-0.6-6.8-0.9c1,0.8,1.9,1.6,2.8,2.4c1,0.7,2.1,1.4,3,2.3
		c-0.2-0.1-0.5-0.1-0.7-0.2c-2-1-4-2-5.7-3.5c-3.1-2.8-6.7-5.4-10.1-8.1c-2.8-2.3-5.6-4.5-8.4-6.8c-0.3-0.2-0.4-0.5-0.4-0.8
		c5.9,4.5,11.7,9.1,17.8,13.8c-0.1-0.4-0.1-0.6-0.2-0.8c-1-1.7-2.5-3.1-4.2-4.4c-5.5-4.3-10.7-8.8-15.5-13.5c-0.1-0.1-0.1-0.2,0-0.5
		c3.2,2.7,6.5,5.4,9.7,8.1c-1.2-2-3.2-3.5-4.8-5.3c0.1-0.1,0.2-0.1,0.3-0.2c2.2,1.9,4.5,3.9,6.8,5.9c0.1-0.3,0.1-0.5,0.2-0.8
		c1.9,0.5,3.6,1.2,5.5,1.5c1.8,0.4,3.8,0.5,5.7,0.7c0.9,0.3,1.8,0.7,3.1,1.1c0.3-2.1,0.6-3.9,0.9-5.8c0.1,0,0.2-0.1,0.4-0.1
		c0.4,0.4,0.8,0.7,1.2,1.1c0.1-0.1,0.2-0.2,0.4-0.3c0.7,0.8,1.4,1.7,2.1,2.5c0.1,0,0.3-0.1,0.4-0.1c-1.7-3.1-3.3-6.2-5.1-9.3
		c-0.6-1.1-1.7-2-2.6-3c-0.1,0.5,0.1,1,0.4,1.4c1.2,1.8,2.4,3.6,3.5,5.4c0.6,1,0.9,2.1,1.3,3.2c-0.4-0.4-0.8-0.8-1.1-1.2
		c-0.7-0.9-1.3-1.8-1.9-2.7c-0.3-0.4-0.8-0.8-1.2-1.1c-0.6,1.3-1.1,2.5-1.6,3.6c-0.3,0.8-0.7,1.6-0.9,2.4c-0.2,1,0.1,1.4,1.5,1.8
		c0.5-0.5-0.3-1.3,0.6-2c0.4,1.1,0.7,2,1.1,2.9c-0.9,0-1.7,0.1-2.5,0.1c-0.7-0.5-1.5-0.9-2.2-1.4c-1.2-0.7-2.4-1.3-3.9-2.2
		c2-0.1,3,0.8,4.5,1.3c0.1-0.6,0.2-1,0.2-1.5c-2.3-1.5-4.9-2.4-7.9-2.8c-1.9-0.2-3.7-0.7-5.7-1.1c0.2,1.9,2.2,3,3.7,4.6
		c-1.8-0.6-2.5-1.5-3.3-2.3c-0.2-0.2-0.3-0.4-0.4-0.7c-0.7-0.8-1-1.7-2.3-2.4c-1.6-0.9-2.8-2.3-4.1-3.5c-5-4.8-10-9.7-14.9-14.6
		c-1.4-1.4-2.8-2.8-4.1-4.3c0.8,0.3,1.3,0.8,1.9,1.3c5.8,4.9,11.1,10,16.2,15.3c1.1,1.1,2.1,2.2,3.2,3.3c0.9,0.9,1.9,1.6,3.4,2
		c2.2,0.5,4.2,1.4,6.8,1.5c-1.3-1.2-2.9-2-3.4-3.5c1.7,1.1,3.3,2.3,5.3,3.6c0-1.4,0.1-2.4,0-3.5c0-0.3-0.4-0.6-0.7-0.8
		c-1.4-1-3-1.7-4.9-2.1c-2-0.4-4-0.8-6.2-1.3c1.4,2.1,3.1,4,5,5.8c-1.4-0.3-2.5-0.9-3.2-1.8c-3.5-4.2-8.1-7.8-12.1-11.7
		c-2.1-2.1-4.2-4.2-6.3-6.3c-0.2-0.2-0.3-0.5-0.4-0.8l0,0c0.7,0.5,1.5,1,2,1.5c3.9,3.7,7.7,7.4,11.5,11.1c0.4,0.4,0.8,0.7,1.4,1.2
		c0.4-0.7,0.2-1.2-0.5-1.6c-1.8-1-3-2.3-3.6-3.9c-0.1-0.3-0.5-0.7-0.8-0.9c-4.4-3.4-8.3-7-12-10.8c-1.3-1.4-2.6-2.8-3.8-4.3
		c5.2,4.6,9.8,9.6,15.5,13.8c-2.5-3.1-5-6.2-7.5-9.3c-2.5-3.1-5.4-6-6.8-9.5c4,5,8.1,10,12.2,15.1c0.8-0.9,0.3-1.6-0.4-2.2
		c-3.6-3.3-6.4-7-9.2-10.7c-0.4-0.6-0.5-1.2-0.7-1.9c-0.2-0.3-0.3-0.7-0.5-1c-0.4-0.5-0.8-1.1-1.2-1.6c-1-1.5-1.9-3-2.9-4.4
		c-0.1-0.2-0.2-0.3-0.2-0.5c1.8,1.4,3,3.1,4.2,4.8c2.6,3.7,5,7.5,7.5,11.2c0.5,0.8,1.2,1.6,2,2.6c0.3-0.7,0.6-1.2,0.8-1.7l0,0
		c0.3-0.4,0.7-0.8,0.8-1c-1.5-1.2-2.7-2.2-4-3.3c-0.2-0.1-0.3-0.2-0.5-0.4c-0.8-0.8-1.6-1.6-2.3-2.4c3.4,2.4,5.9,5.4,10.6,6.7
		c0.2-0.3,0.3-0.6,0.5-0.8l0,0c0.3,0.2,0.6,0.4,1,0.4c1.1,0.2,2.2,0.3,3.5,0.4c-5.8-4.5-11.6-9-17.4-13.5c0.1-0.1,0.2-0.2,0.3-0.2
		c0.4,0.2,0.7,0.4,1.1,0.6c6.1,4.4,12,8.9,17.5,13.8c0.5,0.4,0.9,1,1.8,0.8c-0.5,1.1-0.2,1.8,1.3,2.3c0.1,0.5,0.1,1.1,1.2,1.5
		c-0.3-0.7-0.5-1.2-1.2-1.5c-0.2-0.4-0.5-0.8-0.7-1.3c-0.2-0.3-0.3-0.7-0.5-1c-1-1.2-2.1-2.4-3.1-3.6l0,0c0.5,0.4,1.1,0.8,1.5,1.2
		c2.3,2.8,4.4,5.5,6.7,8.3c0.4,0.5,1.1,0.9,1.7,1.4c0.2,0.8,0.8,1.3,1.8,1.6c-0.7-0.5-0.7-1.4-1.9-1.5c-0.2-0.4-0.3-0.9-0.6-1.3
		c-0.5-0.8-1.1-1.5-1.7-2.2c0.1,0,0.2-0.1,0.3-0.1c0.7,0.7,1.4,1.5,2.1,2.2c0.1,0,0.2-0.1,0.2-0.1c-1.5-2.7-3.1-5.4-4.6-8.2
		c-1.5-2.8-2.9-5.6-4.2-8.4c2.8,4.4,5.4,8.9,9.6,12.9c0.1-1.7-1.7-3-1.3-4.7C38.4,78.4,39.2,79.9,40.1,81.3c0,0.4,0,0.9,0.1,1.3
		c0.6,2.2,2.7,3.7,4.3,5.5c-1.1-1.9-2.5-3.8-3.8-5.7C40.4,82,40.2,81.7,40.1,81.3z M139.2,87.1c-1.1,1.5-2.2,3-3.2,4.6
		c-0.7,1.1-1.3,2.1-2,3.2c1.4-1.4,2.4-2.9,3.7-4.3C138.6,89.5,139.1,88.4,139.2,87.1c1.3-0.4,1.3-0.5,1-1.9
		C139.8,86,139.5,86.6,139.2,87.1z M142.8,110.9c-1.8,0.7-3,1.9-2.9,3.2c1-1,2-2,3-3c-0.2,0.5-0.3,0.9-0.5,1.5
		c3.5-1.7,5.5-4.1,7.4-6.6c-2.2,1.5-4.2,3.1-6.2,4.7C143.3,110.8,143,110.8,142.8,110.9z M145.2,87.1c-1,1.7-0.5,3.6-1.2,5.5
		c1.9-0.3,2.4-1.3,2.8-2.3c0.5-1.3,0.3-2.6-0.7-3.9C145.7,86.7,145.4,86.9,145.2,87.1c1.3-1.3,0.2-2.7-0.2-4.2c-0.4,0.4-0.8,0.7-1,1
		c-1,1.5-2.1,2.9-3.1,4.4c-0.8,1.3-0.7,1.6,0.6,3C142.8,89.8,144,88.5,145.2,87.1z M53.6,70.5c-0.4,0.1-1.1,0.2-1.3,0.5
		c-1.1,1.2-1.6,2.5-1.2,4c0.2,0.9,0.7,1.5,2,1.9c0.2-1.9,0.3-3.7,0.5-5.5c0.7,1.6,1.5,3.1,2.3,4.8c1.3-1,2-1.8,1.4-3.1
		c-0.6-1.5-1-3-1.5-4.5c-0.1-0.4-0.4-0.8-0.7-1.3c-0.7,0.9-1.2,1.7-1.7,2.4C53.4,69.9,53.6,70.3,53.6,70.5z M134.8,117.8
		L134.8,117.8c0.7-0.7,1.3-1.3,2-2.1c-2.3,0.1-4.5,0.2-6.6,0.3c-0.9,0-1.7,0.1-2.5,0.3c-3.2,0.6-4.3,1.5-4.6,3.9
		c2.1-0.8,4.3-1.6,6.4-2.4c0.1,0.1,0.1,0.2,0.2,0.3c-1.8,1.4-4.2,2.2-6.3,3.4c5.7,0.4,9.9-1.4,13.6-4.2
		C136.2,117.4,135.5,117.6,134.8,117.8z M88.3,77.4c0-0.7,0-1.4,0.1-2.2c0-0.6-0.1-1.2-1.2-1.6c0.1,1.6,0.3,3.1,0.4,4.8
		C87.9,77.9,88.2,77.6,88.3,77.4c0.1,0.2,0.1,0.4,0,0.7c-0.8,2.2,0.4,4.1,2.2,5.7c1.1,1,2.2,1.9,3.3,2.9c0.1,0,0.1-0.1,0.2-0.1
		c-0.7-1.1-1.3-2.2-2-3.4c0.1-0.1,0.3-0.1,0.4-0.2c1.2,1.4,2.4,2.8,3.5,4.1c0.7-1.1,1.5-2.3,2.4-3.8c-1.1-1-2.1-2.3-3.5-3.2
		c-2.1-1.5-4.4-2.8-5.9-4.6c0,0-0.1,0-0.3,0C88.6,76,88.5,76.7,88.3,77.4z M88.7,99.4c-0.3-0.4-0.6-0.8-1-1.5
		C87.3,99,87.7,99.3,88.7,99.4c0.1,0.3,0.2,0.7,0.3,1.1c0.8,2,3.1,2.9,5.2,4.3c-1.1-2.6-2.2-4.9-3.2-7.3c0.1,0,0.3-0.1,0.4-0.1
		c1.8,2,2.8,4.3,4.2,6.4c0.3-0.7,0.3-1.5,0.6-2.1c0.9-1.7,0.2-3.2-1.3-4.5c-2.3-1.9-4.8-3.7-7.3-5.6c-0.2,0.2-0.3,0.3-0.3,0.4
		c0,0.2,0,0.4-0.1,0.6c-0.2,1.8,0.6,3.5,1.2,5.1C88.6,98.2,88.6,98.8,88.7,99.4z M119.4,75c0.3-0.7,0.5-1.4,0.8-2.1
		c-0.2,0-0.4,0-0.6-0.1C119.5,73.6,119.4,74.3,119.4,75c0.1,0.1,0.3,0.2,0.4,0.3c0.4,2.3,2.5,3.9,3.8,6.2c1.5-1.9,0.8-3.8,1.8-5.5
		c0.2,1.4,0.3,2.8,0.5,4.3c0.7-0.6,1.6-0.9,1.7-1.4c0.6-1.7,1.1-3.5,0.1-5.3c-1.1-1.8-2.4-3.6-3.6-5.5c-2,2.6-3.3,5.3-3.1,8.5
		C120.2,76,119.8,75.5,119.4,75z M70.2,106.1c-0.4-0.2-0.9-0.4-1.6-0.6c0.2,0.5,0.4,0.9,0.6,1.4C69.7,106.5,70,106.3,70.2,106.1
		c-0.2,0.6,0.1,1,0.4,1.6c1.2,1.9,3.7,2.6,6.2,3.9c-1.7-2.5-3.5-4.6-4.3-7.1c2.2,1.7,3.5,3.8,5.3,5.7c0.2-0.8,0-1.6,0.3-2.3
		c0.4-1.2-0.1-2.1-1-3c-0.8-0.8-1.6-1.5-2.6-2.2c-2.6-1.6-5.8-2.6-7.9-4.7c0.2,1.1,0.4,2.1,0.8,3c0.2,0.6,0.7,1.2,1,1.7
		C69,103.8,69.6,104.9,70.2,106.1z M118.2,118.5c1.2,0.3,1.2,0.3,1.4-0.7C119.1,118,118.7,118.2,118.2,118.5
		c0.3-0.4,0.5-0.8,0.8-1.2c0.9-1,1.9-2,3-2.9c1.1-1.1,1.8-2.3,2.4-3.6c-2.1,1.3-4.6,1.9-7.1,2.6c-1.7,0.5-3.4,1.3-4.9,2.1
		c-0.9,0.5-1.6,1.2-2,1.9c-0.5,1.1-0.6,2.3-0.9,3.7c1.3-1.1,2.4-2,3.5-2.8c1.1-0.8,2.1-1.8,3.9-2.1c-2.1,1.9-4.2,3.9-6.4,6
		c1.7-0.4,3.2-0.7,4.5-1.2C116.3,120.4,117.8,119.8,118.2,118.5z M146.9,84.7c0.4-0.9,0.7-1.8,0.5-3C146,82.7,146.7,83.7,146.9,84.7
		c0.3,0.7,0.6,1.4,0.8,2c1.4-0.2,2.7-0.5,3.9-0.5c2.5,0,4.8-0.5,7.1-1.1c2.2-0.5,3.7-1.7,4.7-3.1c0.5-0.7,0.8-1.5,1.2-2.2
		c-1.4,0.2-2.6,0.6-3.8,0.6c-1.6,0-3,0.5-4.1,1.3c-1.1,0.8-2.5,1.4-2.7,2.7c-0.1,0.5-0.4,1.1-1.5,1c0.7-1.2,0.8-2.1,0.2-3.1
		c-0.7-1.2-1.4-2.5-2.1-3.8c-0.5,0.4-1,0.9-1.5,1.3c0.5,0.1,0.7,0.2,0.6,0.2c-0.6,1.2-1.3,2.3-1.7,3.5
		C147.9,84.1,147.5,84.4,146.9,84.7z M57.7,105.8c-1-0.5-2-0.9-3.2-1.5c0.7,1.4,1.2,2.6,1.8,3.8c0.6,1.1,1.2,2.3,1.8,3.4
		c0.7,1.2,1.3,2.3,2.1,3.5c0.8,1.1,1.6,2.1,2.5,3.1c0.9,1,1,2.3,2.5,3c-0.2-0.6-0.5-1.3-0.7-1.9c0.6,0.2,0.9,0.5,1.1,0.7
		c1.2,1.6,2.7,3,4.4,4.3c0.8,0.6,1.5,1.2,2.3,1.8c1.6,1.2,3.5,1.8,5.9,2c0.2-2,0.3-3.8,0.5-5.7c0.1-0.9-0.5-1.3-1.5-1.6
		c-0.4,1.6-0.4,3.2-2.6,4.1c0.2-0.5,0.6-0.9,0.9-1.4c0.6-1.3,1.4-2.6,0.2-4c-1-1.1-1.9-2.3-2.9-3.5c-0.2-0.2-0.5-0.7-0.6-0.7
		c-1,0.2-0.9-0.4-1-0.8c-0.1-0.6-0.1-1.2-0.3-1.7c-0.1-0.6-0.3-1.2-0.6-2c-1.2,1.8-0.4,3.4-0.8,5c-4.3-0.9-6.1-1.8-8.6-4.3
		c-1.1-1.1-2.1-2.4-3.1-3.5c-0.3-0.4-0.5-0.8-0.8-1.2c-0.2-0.4,0.2-0.6,0.7-0.7c1.3,1.9,3.8,2,6.5,2.3c-1.8-1.6-3.8-2.6-5-4.2
		c0.1-0.1,0.2-0.1,0.3-0.2c1.8,1.1,3.7,2.3,5.8,3.5c-0.2-0.8-0.4-1.3-0.4-1.8c0.1-1.1-0.7-1.7-1.8-2.3c-0.5-0.3-1-0.5-1.5-0.7
		c-2.8-0.7-5.6-1.4-8.5-2.1c0.2,1,0.9,1.8,1.7,2.5C55.8,104,56.7,104.9,57.7,105.8z M79.5,161.1L79.5,161.1
		c-0.3-4.1-1.3-8.1-3.4-11.9c-1.9-3.4-3.6-6.8-5.7-10.1c-1.2-1.8-1.4-3.9-3.7-5.3c-1.4-0.8-1.4-3.4-0.7-4.8c0.7,1.1-0.1,2.7,2,3.5
		c0.6-3.1-0.3-6-2.1-8.8c-0.6,1.8-1.2,3.6-1.3,5.4c-0.1,1.9,0.3,3.7,0.5,5.6c-0.4,0-0.9-0.1-1.6-0.1c5.4,6.3,8.3,13.2,11.3,20
		c3.1,6.8,5.1,13.9,6.7,21c2.8,1,4.7,1.3,6.9,1c-2.4-5.7-4.7-11.3-7.1-17c-0.2,0-0.3,0-0.5,0.1c0.8,4.2,2.2,8.4,2.3,12.7
		c-0.3-0.3-0.5-0.6-0.5-0.9c-0.4-1.7-0.9-3.3-1.3-5C80.6,164.7,80.1,162.9,79.5,161.1z M79.4,128.8c-0.9-0.1-1.9-0.1-3.1-0.2
		c0.7,0.8,1.1,1.4,1.6,1.9c1.6,1.9,2.3,4,3,6.1c1.8,5.3,3.4,10.6,3.9,16.1c0.1,0.6,0.2,1.2,0.2,1.9c-0.4-0.1-0.6-0.3-0.6-0.5
		c-1.3-4.9-2.6-9.8-4-14.7c-0.9-3.5-1.9-7-4.4-10.1c-0.6-0.7-1.2-1.2-2.2-1.5c-1.7-0.6-3.1-1.4-4.2-2.6c-1.1-1.1-2.5-2.1-3.8-3.2
		c-0.1,0.3,0,0.5,0.2,0.7c1.8,1.8,2.6,3.8,3,6c0.3,1.4,0.4,2.9-0.5,4.3c-0.2,0.3-0.2,0.8,0,1.1c0.5,1,1.2,2,1.8,3.1
		c1.6,2.6,3.3,5.2,4.7,7.9c2.2,4,4.3,8.1,6.1,12.2c2.2,4.9,4.1,10,6.1,15c0.6,1.4,0.9,2.9,1.4,4.5c2.3,0.2,4.3-0.5,6.5-0.8
		c-0.1-1-0.2-1.8-0.3-2.7c-0.3-2.1-0.9-4.1-0.9-6.2c-0.1-3.7-1.1-7.4-1.8-11c-1.2-6-2.5-12-3.8-18c-0.8-3.8-1.8-7.7-2.8-11.5
		c-0.4-1.4-0.7-2.9-1.4-4.2c-0.3-0.5-0.3-0.9,0-1.3c3-3.3,3.6-7.1,4-11c0-0.2-0.1-0.5-0.3-0.9c-1.3,1.5-2.5,2.9-3.6,4.2
		c-2.1,2.4-3.5,5-3.9,7.9c-0.1,0.8,0,1.4,0.4,2.1c1.8,3.1,3.2,6.4,4.1,9.7c1.3,5,2.4,10,4,14.9c2.3,6.9,3.8,13.8,4.7,20.8
		c0.1,1,0.3,2,0.4,3c-0.1,0-0.1,0-0.2,0c-0.6-2.3-1.2-4.5-1.8-6.8c-0.1,0-0.2,0-0.2,0c0.2,2,0.4,3.9,0.5,5.9c-0.2,0-0.3,0-0.5,0
		c-0.9-5.3-1.8-10.6-3.8-15.9c1.2,0.5,1.4,1.3,1.7,2c0.3,0.8,0.6,1.5,0.9,2.3c0.1-0.6,0.1-1.2-0.1-1.7c-1.2-4.4-2.5-8.8-3.8-13.1
		c-1.3-4.7-2.5-9.5-4-14.2c-0.7-2.2-1.7-4.2-2.6-6.4c-0.5,1.5-0.8,2.9-1,4.3C79,128.3,79.2,128.6,79.4,128.8L79.4,128.8z
		 M93.8,115.5c0.1,0,0.3,0,0.4,0c0.2,2.6,0.5,5.1,0.5,7.7c0,4.2-0.2,8.5-0.2,12.7c0,6.7-0.1,13.4,0.1,20c0.1,2.5-0.4,5.1,0.9,7.6
		c0.1,0.2,0.1,0.4,0,0.6c-0.6,1.4-0.1,2.7,0.3,4.2c0.2-0.3,0.3-0.4,0.3-0.5c0.1-0.7,0.2-1.4,0.3-2c1-5.6,1.5-11.3,1.6-17
		c0-5.6-0.1-11.3-0.1-16.9c0-3.6,0-7.2,0-10.8c0-0.6,0-1.2,0-1.8c0-1.5-0.1-3,0.1-4.5c0.2-1.8,1.2-3.5,2.6-5
		c0.2-0.2,0.6-0.4,1.2-0.7c-3.6,7.3-3.6,7.3-3.1,9c1.5-1.5,1.7-2.1,1.1-2.6c0.7-1.1,1.4-2,2-3c0.7-1.3,1.3-2.6,1.9-4
		c0.6-1.5,1.2-2.9,1.8-4.4c-0.2-0.1-0.3-0.1-0.5-0.2c-1.9,1.8-3.8,3.6-5.7,5.4c-2,1.9-2.4,4.2-3.7,6.6c-1.5-1.5-3.1-2.7-4.2-4.1
		c-1.1-1.4-1.6-2.9-2.5-4.7c0.1,0.5,0,0.7,0.1,0.9c0.7,2.4,0.5,4.8-0.1,7.1c-0.5,2-1.2,4-3.1,5.6c-1,0.8-0.9,1.4-0.6,2.4
		c1.1,2.9,2.2,5.7,2.9,8.6c1.2,4.9,2.1,9.8,3.2,14.7c0.5,2.5,1.1,5.1,1.7,7.6c0.1,0,0.3,0,0.4,0C93,141.1,93.5,128.3,93.8,115.5z
		 M113.7,208.5c0.1,0,0.2,0,0.3,0c0-0.1,0.1-0.3,0.1-0.4c0.5-4.1,1-8.1,1.6-12.2c0.4-2.5,1-4.9,1.3-7.4c0.6-4.1,1.1-8.2,1.6-12.3
		c0.4-3.7,0.6-7.5-0.1-11.2c-0.5-2.4-0.9-4.8-2.9-6.9c-0.8-0.8-1.7-1.4-3.1-1.7c-3.1-0.7-5.9-0.1-8.7,0.7c-0.9,0.3-1.4,0.6-1.6,1.3
		c-0.4,1.5-1,3-1.5,4.5c-0.4,1.3-0.7,2.7-1.1,4.3c1.7-0.7,2.8-0.3,4,0.3c3.2,1.7,5.3,3.9,6.5,6.6c2.1,5.1,3,10.4,3.3,15.7
		c0.2,3.7-0.1,7.5-0.1,11.2C113.3,203.6,113.6,206.1,113.7,208.5z M99.4,152.5c0.1,0,0.3,0,0.4,0c0.1-0.1,0.2-0.2,0.3-0.4
		c2.1-5.6,4.7-11,8.3-16.2c2.1-3.1,4.3-6.1,7.4-8.8c1-0.8,1.4-2.8,0.8-4.3c-0.4,0.7-0.8,1.3-1.1,1.9c-0.3,0.6-0.6,1.2-0.9,1.8
		c-0.1,0.2-0.6,0.4-0.6,0.4c-0.7-0.3-0.8,0.1-1.1,0.4c-2.2,2.4-5.3,3.9-9.1,4.9c0.1-1.2,0.4-2.4,0.3-3.6c-0.1-1.2-0.3-2.4-0.7-3.6
		c-0.4-1.2-0.9-2.3-1.4-3.5c-0.6-1.1-0.8-2.3-2-3.5c-0.6,2.4-1.2,4.5-1,6.7c0.2,2.1,0.7,4.2,1.1,6.3c-0.4-0.2-0.8-0.4-1-0.5
		c0,4.7,0,9.5,0,14.2c0.2,0,0.3,0,0.5,0c1.1-4.2,2.2-8.4,3.8-12.5c0,1.3-0.1,2.6-0.4,3.9c-1.1,4.6-2.3,9.3-3.4,13.9
		C99.3,150.7,99.4,151.6,99.4,152.5z M94.3,73.5c1.9,0.7,2.1,2.2,3.2,3.4c0.6-0.6,1.1-1.1,1.6-1.6c-1.2-2.9-3.2-5.4-6.3-7.4
		c-1.5-1-2.7-2.3-4-3.4c-0.2-0.2-0.4-0.4-0.9-0.8c-0.1,1.6-0.4,2.8-0.3,4.1c0.1,1.3,0.4,2.5,0.6,3.7c-1,0-0.9,0.4-0.6,0.8
		c1.1,1.2,2.2,2.5,3.5,3.7c1.1,1,2.2,2,3.6,2.7c2,1.1,3.3,2.6,4.6,4.2c2.1-1.4,3.5-3,4.9-4.7c0.4-0.4,0.5-1,1.4-1.1
		c0.2,0.7,0.4,1.4,0.6,2.2c0.9-2.3,1-7.2,0.3-8.1c-1.1,0.9-2.3,1.8-3.5,2.7c-1.3,0.9-2.7,1.7-3.9,2.7c-1.3,1-1.3,1.8-0.2,3.3
		c0.9-0.6,0.7-1.8,2.4-2.4c-0.6,1.6-1,2.8-1.5,4.2C95.9,79.5,95.7,76.3,94.3,73.5z M90.4,63.5c-1.4-1.7-1.9-3.3-2-5
		c-0.1-2.2-0.3-4.5-0.5-6.7c-0.1-0.9-0.3-1.7-0.4-2.6c-0.1-0.9-0.3-1.7-0.5-2.6c-0.4,0.4-0.5,0.8-0.5,1.1c-0.7,3.7-0.6,7.4,0,11.1
		c0.2,1.1,0,2.2,1.5,3.1c1.1,0.7,1.6,1.9,2.4,2.8c1,1.1,2.2,2.1,3.9,3c-0.4-1.1-0.8-2.1-1-3c-0.2-0.9-0.2-1.9-0.2-2.8
		c1.6,2,1.6,4.4,3.1,6.6c0.3-0.6,0.5-1,0.8-1.3c0.4-0.6,0.8-1.4,1.4-1.9c0.7-0.6,0.8-1.2,0.5-1.9c-0.8-2.1-2.1-3.9-4.1-5.4
		c-1.5-1.2-2.7-2.5-4.1-3.7c-0.1-0.1-0.3-0.2-0.8-0.5C90,57.1,90.2,60.2,90.4,63.5z M98.2,94.1c0.8-1.8,1.3-3.6,2.8-5.1
		c-0.4,2-0.8,4-1.2,6.1c0.1,0,0.3,0.1,0.4,0.1c1.2-1.3,2.4-2.6,3.5-4c0.7-0.8,1.3-1.7,1.6-2.6c0.4-1.3,0.5-2.6,0.8-3.9
		c0.4-2.2-0.4-4.2-0.9-6.7c-1.4,2.7-3.9,4.5-6.2,6.3c-0.9,0.7-1.4,1.6-1.7,2.6C96.7,89.4,97.8,91.7,98.2,94.1z M109.7,112
		c0.6-2.1,1.2-4.2,1.8-6.2c0.1,0,0.3,0,0.4,0c0.1,1.9-0.1,3.8-0.3,5.7c1.4-1.8,2.8-3.7,3.9-5.6c0.7-1.2,0.9-2.4,0.3-3.7
		c-1.3-2.5-3-4.8-3-7.8C107.8,100.1,106.1,105.7,109.7,112z M80.3,95.3c0.1,0,0.3,0,0.4,0c0,1,0,2,0,3c0,1-0.5,2,0,3.3
		c0.7-1,1.2-1.8,1.8-2.5c2.1-2.6,2.8-5.4,2.5-8.4c-0.2-2.2-0.9-4.4-2.1-6.8c-0.9,2.7-3,4.7-5,6.8c-0.8,0.9-1.3,1.8-1.3,2.8
		c0,1.7,0.5,3.3,1.2,4.9c0.2,0.4,0.4,0.8,0.5,1.2c0.2,0.4,0.3,0.8,0.5,1.2C79.1,99,79.5,97.1,80.3,95.3z M107.3,60.9
		c-2,1.2-3.6,2.2-5.2,3.2c-1,0.6-2.1,1.2-2.8,2c-1.6,1.8-3.3,3.6-0.9,5.8c0.2,0.2,0.3,0.5,0.5,0.8c0.8-1.3,1.5-2.5,2.3-3.7
		c0.1,0,0.2,0,0.3,0.1c-0.4,1.7-0.9,3.3-1.3,5.2c2.5-1.1,4.4-2.2,5.4-3.9c0.5-0.8,0.8-1.6,1.1-2.5C107.4,65.7,107.4,63.5,107.3,60.9
		z M119,77.9c-1.3,2.5-2.4,4.8-2.7,7.3c-0.4,2.7,0.7,4.8,3.2,7c0.4-1.9,0.8-3.6,1.2-5.2c0.1,0,0.2,0,0.3,0c0.1,1.3,0.3,2.6,0.4,4
		c0.9-0.6,1.8-1.1,2.6-1.7c0.3-0.2,0.6-0.5,0.6-0.7c0-2-0.1-4.1-1.6-5.9c-1-1.2-1.9-2.4-2.9-3.6C119.8,78.7,119.5,78.4,119,77.9z
		 M105,91.8c-2.2,2.5-4.4,4.8-6.3,7.2c-1.6,2-2,4.2-1.6,6.5c0,0.3,0.3,0.5,0.6,1c0.6-2.6,1.5-4.9,3.5-6.8c0,0.5-0.1,1.1-0.3,1.6
		c-0.4,1.4-1,2.7-1.3,4.1c-0.2,0.8-0.4,1.5-1.3,2.1c-0.7,0.4-0.8,1-0.7,1.8c0.4-0.3,0.7-0.4,0.8-0.6c1.5-1.4,2.9-2.8,4.4-4.2
		c1-0.9,1.8-1.8,1.9-3.1c0.1-0.9,0.5-1.8,0.8-2.7C106.1,96.4,106.5,94.2,105,91.8z M80.8,115.3c0.2-0.1,0.4-0.1,0.4-0.1
		c1.6-2,3.2-3.9,4.8-5.9c0.2-0.3,0.4-0.6,0.4-0.9c0.2-2.1,0.3-4.2,0.4-6.3c0.1-1.5-0.4-3-1.7-4.5c-1.6,2.4-3.1,4.5-4.5,6.7
		c-1.2,1.7-1.5,3.6-1.4,5.5c0.1,0.9,0.2,1.9,1.1,2.9c0.4-2.4,0.6-4.7,2.3-6.7c0.1,0.5,0.1,1,0,1.5c-0.2,1.5-0.3,3-0.6,4.5
		c-0.1,0.6-0.4,1.2-0.9,1.7C80.7,114.3,80.6,114.7,80.8,115.3z M106.3,122.9c0.4-0.1,0.5-0.2,0.6-0.2c0.2-0.2,0.3-0.3,0.4-0.5
		c1.3-1.8,1.9-3.8,1.7-5.8c-0.3-2.9-1.5-5.7-2.6-8.6c-0.9,1.5-1.5,3-2.5,4.3c-0.9,1.2-1.4,2.5-1.7,3.8c-0.1,0.3-0.1,0.6-0.2,0.9
		c-0.4,0.8-0.2,1.6,0.2,2.4c0.8,1.8,1.6,3.6,2.3,5.4c0.1,0.2,0.3,0.5,0.4,0.7c0.1,0,0.3,0,0.4-0.1c-0.1-0.5-0.1-1-0.2-1.5
		c-0.1-0.6-0.4-1.2-0.3-1.8c0.2-1.6,0.6-3.3,0.9-4.9c0.1-0.4,0.2-0.8,0.4-1.2C107.2,118.2,107,120.5,106.3,122.9z M77.2,89.7
		c-1.3-0.9-2.6-2.1-4.3-3c-2.7-1.4-5.4-2.8-7.4-4.8c-0.2-0.2-0.6-0.4-0.9-0.6c0.2,2,0.7,3.8,1.3,5.7c0.2,0.5,0.3,1.1,0.7,1.5
		c2,1.8,4,3.6,7,5.2c-1-1.3-1.9-2.3-2.7-3.3c0.1-0.1,0.3-0.1,0.4-0.2c1.4,1.2,2.8,2.4,4,3.5C75.9,92.5,76.4,91.3,77.2,89.7z
		 M119.5,105c0.1,0.1,0.2,0.1,0.3,0.2c1.3-0.5,2.6-1,3.8-1.6c2-1,4.2-1.9,5.2-3.7c0.3-0.5,0.7-1,1-1.4c0.7-1.2,1.4-2.5,2.2-3.8
		c-0.4,0.1-0.5,0.1-0.6,0.1c-2.9,1.8-6.2,3.1-9.8,4c-2,0.5-3.5,1.5-4.8,2.3c0.2,1.5,0.4,2.8,0.5,4c0.9-0.5,1.6-1.1,2.5-1.5
		c0.9-0.5,1.8-0.9,2.7-1.3c0.1,0.1,0.1,0.1,0.2,0.2C121.5,103.4,120.5,104.2,119.5,105z M35.9,89.6c-0.8-1.6-1.4-2.9-2-4.3
		c0.5-0.5,0.4-0.7-1-1.3c-0.3,0.7-0.5,1.5-1,2.2c-1,1.4-1.7,2.7-0.9,4.3c-0.5-0.3-1-0.6-1-1c-0.2-1.5-1.6-2.3-2.8-3.2
		c-1-0.8-2.2-1.4-3.8-1.4c-1.5-0.1-2.7-0.6-3.6-1.4c0.4,0.9,0.6,1.8,1.2,2.6c0.8,1,1.5,2.1,2.7,2.8c2,1.1,4.4,1.9,7,2.3
		c1.7,0.2,3.3,0.6,5,0.9c1.5-2.2,1.7-3.5,0.3-4.5C35.9,88.1,35.9,88.7,35.9,89.6z M101.4,63.1c1.7-1.1,3.2-2,4.6-3
		c0.3-0.2,0.5-0.4,0.6-0.7c0.3-0.9,0.4-1.8,0.7-2.7c0.8-2.1,0.3-4.2,0-6.2c-1.8,1.2-3.4,2.3-5,3.4c-2,1.3-2.9,2.9-3.3,4.8
		c-0.2,1.1,0.3,1.9,1.1,2.9c0.5-1.5,1.1-2.9,2.7-4.2C102.3,59.5,101,61.1,101.4,63.1z M74.8,68c0.5-1.4,0.6-2.8,1.9-4.1
		c0.1,1.9-1.2,3.6-0.3,5.5c2.2-1.1,2.8-2.4,2.1-4.1c-0.3-0.7-0.2-1.5-0.2-2.3c0.1,0,0.2,0,0.3,0c0.3,1.2,0.6,2.4,1,3.9
		c0.8-0.7,1.3-1.2,1.7-1.5c-1-0.8-0.2-1.5-0.2-2.2c0-0.7,0.1-1.5,0.1-2.2c-0.1-0.8-0.2-1.5-0.4-2.3c-0.2-0.7-0.4-1.5-0.6-2.3
		c-1.3,1.2-2.4,2.2-3.5,3.2c-0.6,0.5-1.2,1-1.8,1.6c-1.1,1.1-1.5,2.4-1.6,3.7C73.3,66,73.3,67.1,74.8,68z M71.9,65.2
		c0.5-1.6,1-3.1,1.6-4.9c-0.5-1.1-1.8-1.9-3.3-2.7c-2-0.9-3.9-2-5.2-3.5c-0.7-0.7-1.5-1.3-2.3-2c0.2,1.5,0.2,1.5-0.8,1.5
		c0.5,0.9,0.8,1.8,1.5,2.5c1.7,1.8,3.6,3.5,5.4,5.2c0,0-0.1,0.2-0.1,0.3c-2.4-0.8-3.2-2.7-5-4.1C63.7,59.8,66.9,62.7,71.9,65.2z
		 M90.7,50.3c0.6,3.5,3.6,5.9,6.9,8.1c0.8-1.5,1.6-3,2.5-4.6c-0.4-1.3-1.7-2.3-3.2-3.2c-1.6-1-3.1-2.1-4.1-3.5
		c-0.7-1-1.5-1.9-2.4-2.9c0.1,0.7,0.1,1.5,0.2,2.2c-0.1,0-0.2,0-0.3,0c-0.1-0.2-0.2-0.3-0.5-0.7c0,1.2,0,2.2,0.7,3.1
		c1.6,1.9,3.1,3.8,4.6,5.8c0,0-0.1,0.1-0.2,0.2C92.8,53.6,92.3,51.7,90.7,50.3z M139.5,72.3c-2.1,0.9-3.4,2.5-6.1,2.7
		c2.3-1.5,4.6-2.9,7-4.3c1.1-0.6,1.4-1.4,1.9-2.1c-0.7-0.1-0.7-0.4-0.4-0.8c0.2-0.2,0.3-0.5,0.4-0.7c-3.2,1.8-6.5,3.4-10.3,4.3
		c-1.2,0.3-2.1,1.1-2.8,1.5c0,1.9,0,3.5,0,5.2C133.3,76.8,137.3,75.4,139.5,72.3z M52.1,107.7c-0.4,1.9-0.8,3.7-1.4,5.5
		c-0.3,0.9-0.2,1.7,0.3,2.5c1,1.6,2.7,2.9,4.5,4.3c-0.4-1.5-0.8-2.7-1.2-3.9c0.1,0,0.3-0.1,0.4-0.1c0.7,1.3,1.5,2.6,2.2,3.9
		c0.4-0.9,0.6-1.7,0.7-2.5c0-1.2,0.2-2.4-0.3-3.5C56.3,111.6,54.8,109.3,52.1,107.7z M77.2,75.4c0.1,0,0.2,0,0.4,0.1
		c-0.1,1.7-0.3,3.3-0.5,5.3c1.2-0.9,2.1-1.4,2.9-2.1c1.1-0.8,1.5-1.8,1-2.9c-0.4-0.9-0.5-1.9-0.7-2.9c-0.3-1.2-0.6-2.4-1-3.9
		c-0.9,0.7-1.6,1.2-2.4,1.6c-2.2,1.5-3,3.5-3.7,5.5c-0.1,0.2,0,0.5,0.2,0.7c0.7,0.8,1.5,1.5,2.3,2.3C76.2,77.9,76.7,76.7,77.2,75.4z
		 M117.2,127.8c-1.1,0-1.7,0.1-2.2,0.7c-1.2,1.7-2.6,3.3-3.8,4.9c-4.7,6.6-7.9,13.6-10.5,20.7c-0.5,1.3-0.8,2.6-1.2,4.1
		c1.2-0.4,1.7-0.8,2-1.6c2-6.3,4.9-12.3,8.3-18.2C111.8,134.8,113.5,131,117.2,127.8z M127.2,103.5c-0.1,0-0.2-0.1-0.3-0.1
		c-2.2,1-4.4,2.1-6.7,3c-3.2,1.2-5.3,3.1-7.2,5.3c-0.2,0.2-0.2,0.4-0.4,1c2.6-1.7,4.6-3.5,7.2-4.7c0.1,0.1,0.2,0.1,0.3,0.2
		c-1.9,1.6-3.9,3.2-5.8,4.8c2.3-0.5,4.5-1.1,6.7-1.8c0.8-0.3,2-0.7,2.1-1.2c0.2-1,1.4-1.5,1.8-2.3
		C125.6,106.4,126.4,105,127.2,103.5z M66.4,90.4c-0.1,0.1-0.2,0.3-0.2,0.5c0.4,1.8,0.3,3.6,1.5,5.2c0.2,0.2,0.4,0.5,0.4,0.7
		c-0.1,1.5,1.4,2.1,2.6,2.8c1.3,0.7,2.6,1.3,3.9,2c0.3,0.2,0.7,0.3,1.3,0.5c-1.6-2.1-3-4-4.4-5.9c0.1-0.1,0.2-0.1,0.3-0.2
		c2.2,1.7,3.6,3.7,5.6,5.5c-0.7-2.3-1.8-4.5-4.1-6.2C71.1,93.7,68.8,92.1,66.4,90.4z M88,83.1c-0.1,0.1-0.2,0.2-0.2,0.3
		c-0.1,1.8-0.5,3.6,0.3,5.5c0.4,0.9,0.3,2,1.3,2.7c1.8,1.2,3.6,2.5,5.4,3.7c0.1,0,0.1-0.1,0.2-0.1c-1.1-2-2.1-4-3.2-6
		c0.1,0,0.3-0.1,0.4-0.1c1.9,1.9,3,4.2,4.7,6.2c-0.5-2.7-1.3-5.2-3.8-7.4C91.3,86.4,89.7,84.8,88,83.1z M46,106.2
		c3.4-3,1.1-7.9-2.2-10.6c-0.6,1.1-1,2.2-1.7,3.3c-1.2,1.8-1.3,3.7-0.5,5.6c0.9,0.4,1.8,0.7,2.8,1.1c-0.1-1.1-0.2-2-0.3-2.9
		c0.1,0,0.2,0,0.3,0C44.8,103.8,45.3,105,46,106.2z M61.4,127.9c-0.6-1.7-1.3-3.3-0.8-5c0.3,0.3,0.5,0.7,0.6,1
		c0.4,1,0.9,1.9,1.2,2.9c0.2,0.5,0.3,1.1,0.2,1.7c-0.1,0.5-0.2,0.8,0.5,1.2c0.4-1.9,0.8-3.7,1.2-5.5c0-0.2,0.1-0.4,0-0.6
		c-1-1.9-1.9-3.7-3-5.5c-0.4-0.7-1.2-1.3-2.5-1.7c-0.2,2.3-0.5,4.4-0.5,6.6C58.4,124.9,59.4,126.6,61.4,127.9z M59.9,92.5
		c-1.3-0.5-2.6-1.1-4-1.4c-3-0.6-5.9-1.3-8.5-2.6c-0.1,0-0.2,0-0.5,0c0.4,0.7,0.9,1.3,1.2,2c1.4,3.2,5,4.3,9,5.1
		c-0.8-0.5-1.5-1-2.3-1.6c0.1-0.1,0.2-0.1,0.2-0.2c1.5,0.7,2.9,1.3,4.2,1.9C59.5,94.7,59.7,93.7,59.9,92.5z M71.5,51.7
		c1.1-0.8,2.3-1.5,3.1-2.3c1.4-1.4,2.2-2.8,1.2-4.6c-0.6-1.1-1.1-2.3-1.7-3.4c-0.5-0.9-1.2-1.8-2.5-2.4c-0.5,1.1-1.1,2.1-1.5,3.2
		c-0.6,1.7-1.2,3.4-0.5,5.2C70.3,48.7,70.9,50.1,71.5,51.7z M134.7,110c5.6,0.1,10.3-2.2,11.6-5.3c-3,1-6.2,1.2-9.4,1.2
		c-1.5,0-2.9,0.5-4.3,0.7c-0.1,1.2-0.2,2.2-0.3,3.2c1.6-0.4,3.2-0.7,4.8-1.1c0,0.1,0.1,0.1,0.1,0.2
		C136.3,109.3,135.5,109.6,134.7,110z M133.9,64.8c1.1-1.5,2.2-2.7,3.1-4.1c0.5-0.7,0.9-1.6,0.9-2.4c0.1-1.9-0.1-3.9-0.2-5.9
		c-1.6,0.4-2.5,1.1-3.3,1.9c-1.1,1.2-2,2.4-3,3.6c-0.8,0.8-0.8,1.7-0.6,2.7C131.3,62.2,132.6,63.5,133.9,64.8z M99.6,45
		c1.2-0.7,2.5-1.2,3.5-2c1.2-0.9,2.5-2,2.2-3.4c-0.3-1.5-0.7-3-1.2-4.4c-0.3-1-0.9-2-2.1-2.7c-0.7,1-1.4,1.9-1.9,2.8
		c-0.9,1.5-1.8,3-1.5,4.8C98.9,41.6,99.2,43.2,99.6,45z M36.8,109.8c2.4,3.7,5.8,5.9,11.4,6.4c-0.7-0.4-1.3-0.8-1.9-1.2
		c0.1-0.1,0.2-0.2,0.2-0.3c1.2,0.4,2.3,0.8,3.5,1.2c-0.1-1-0.2-2-0.2-3.1c-1.6-0.6-3.2-1.1-5-1.2c-2.2-0.1-4.4-0.5-6.4-1.3
		C38,110.2,37.5,110.1,36.8,109.8z M38.8,67.1c0.2,0.6,0.6,1,0.5,1.4c-0.2,1,0.5,1.4,1.5,1.8c1.8,0.8,3.5,1.7,5.3,2.6
		c0.1,0.1,0.2,0.2,0.3,0.4c-2.2-0.1-3.5-1.4-5.3-1.9c2.1,2.4,5.5,3.3,8.9,4c0.1-1.3,0.2-2.5,0.3-4c-0.8-0.3-1.8-0.9-2.9-1.1
		C44.3,69.7,41.6,68.6,38.8,67.1z M38.3,88.7c-0.6,1.3-1.1,2.5-1.7,3.8c-0.7,1.5-0.5,2.8,0.3,4.2c0.4,0.7,1,1,2,1.3
		c-0.1-1.1-0.3-2.1-0.4-3.1c1.2,1.1,0.8,2.6,2.3,3.6c1.2-2.1,2.3-4,1.8-6.2c-0.1,0.3,0,0.6,0,1c0,0.3-0.1,0.7-0.2,1
		C41.7,92.2,40.4,90.3,38.3,88.7z M160.4,85.6c-1.6,0.4-3.1,0.9-4.7,1.1c-1.6,0.2-3.3,0.1-4.9,0.3c-0.9,0.1-1.7,0.4-2.3,0.6
		c-0.4,1.4-0.6,2.6-1,3.9c1.8-0.2,3.6-0.3,5.4-0.6c2-0.3,4-1.3,4.3-2c-1.8,0.3-3.4,1.4-5.4,1c2.1-0.7,4.2-1.3,6.4-1.9
		c0.7-0.2,1.3-0.4,1.6-1C160,86.7,160.2,86.2,160.4,85.6z M65.1,37c-0.3,0.2-0.5,0.3-0.5,0.4c-1.4,2-0.5,4-0.4,6
		c0,0.2,0.2,0.4,0.4,0.5c1,0.6,2,1.4,3.3,1.7c0.7-2.1,1.4-4,2-6c0.1-0.2,0.1-0.6-0.1-0.7c-1.1-0.9-1.8-2-3.5-2.7
		c-0.8,1.5,0.3,3-0.1,4.6C65.3,39.6,65.3,38.3,65.1,37z M143.7,50.4c-1.4,0.7-2.3,1.3-3.4,1.8c-0.9,0.4-1.2,0.9-1.1,1.7
		c0.1,1.5,0,3.1,0,4.7c0,0.3,0,0.6,0,1c2.7-0.5,5-1.2,5.3-3.5c0-0.3,0.3-0.6,0.5-1c0.4-1.1,0.6-2.1-0.1-3.4
		c-0.9,1.3-1.1,2.6-2.7,3.7C142.6,53.7,143.8,52.4,143.7,50.4z M95.7,29.8c-0.4,0.3-0.5,0.5-0.7,0.6c-1.4,1.8-1.1,3.7-1.2,5.7
		c0,0.2,0.1,0.4,0.3,0.5c1,0.7,1.9,1.4,2.9,2.1c1.1-2,2.1-3.8,3-5.6c0.1-0.3,0.3-0.6,0.1-0.8c-0.9-1-1.4-2.3-3-3.1
		c-0.9,1.6-0.3,3.1-0.7,4.8C95.4,32.5,96,31.2,95.7,29.8z M26.8,93.7c2.4,2.1,5.5,2.8,9.1,3c-0.2-0.5-0.4-0.9-0.5-1.3
		c-0.1-0.4-0.2-0.8-0.3-1.1c-0.1-1.4-0.5-1.7-2.3-2.1c-0.7-0.1-1.4-0.2-2.1-0.3c-1.5-0.3-3-0.6-4.5-1c-0.8-0.2-1.6-0.5-2.4-0.8
		c0.1,0.5,0.2,1,0.4,1.4c0.3,0.4,0.7,0.9,1.2,1.1c1.9,0.7,3.8,1.4,5.7,2.1c0.3,0.1,0.5,0.3,0.8,0.4c-0.1,0.1-0.1,0.2-0.2,0.3
		C30,94.8,28.4,94.2,26.8,93.7z M95.4,114.4c-0.6-1.1-1.3-2.2-1.7-3.3c-0.4-1.1-1-2.3-0.4-3.7c0.9,1.9,1.1,3.7,2.4,5.6
		c0.4-0.9,0.6-1.6,1.1-2.1c0.5-0.7,0.4-1.3,0.1-1.9c-1.3-2.6-4.3-4-7.3-5.9C90.5,107.3,91.8,111.2,95.4,114.4z M50.6,94.8
		c0.2,0.4,0.2,0.9,0.5,1.2c0.7,1,1.2,2.1,2.3,3c0.6,0.6,1,1.2,2,1.4c1.9,0.5,3.9,0.8,5.8,1.2c0.1-0.1,0.1-0.2,0.2-0.2
		c-1.5-1.1-2.9-2.1-4.4-3.2c0.1-0.1,0.1-0.1,0.2-0.2c1.8,1,3.7,2,5.5,2.9c-1-1.6-2.5-3-4.6-3.7C55.7,96.5,53.2,95.7,50.6,94.8z
		 M133.7,112.4c0.1,0.1,0.2,0.2,0.3,0.3c-1.9,0.8-3.8,1.6-5.7,2.5c1.9,0,3.8,0,5.6,0c0.7,0,1.5-0.1,2.1-0.4c1-0.5,1.9-1.1,2.6-1.7
		c0.9-0.8,1.6-1.7,2.5-2.7c-3,0.5-5.7,0.9-8.4,1.3c-2.3,0.4-4.1,1.5-5.5,2.8C129.3,113.8,131.5,113.1,133.7,112.4z M53.9,121.7
		c-0.8-0.5-1.4-0.8-2-1.1c-0.6-0.3-1.3-0.7-1.9-1c-0.5-0.3-1.2-0.5-1.3-1.1c2,0.8,3.9,1.6,5.9,2.5c-1.4-1.5-3.1-2.7-5.4-3.3
		c-2.4-0.6-4.8-1.2-7.4-1.8c0.4,0.5,0.7,0.9,1,1.3c0.8,1,1.9,1.8,2.9,2.7c0.8,0.7,1.8,1.1,2.9,1.3C50.3,121.4,51.9,121.5,53.9,121.7
		z M46.5,65.3c1.4-1.1,2.6-2.2,3-3.7c0.1-0.4,0.2-0.9-0.1-1.2c-1-1.2-2.1-2.4-3.3-3.4c-0.5-0.4-1.4-0.7-2.1-1.1
		c-0.2,0.9-0.5,1.6-0.5,2.3c-0.1,1.3-0.5,2.7,0.5,4C44.7,63.3,45.6,64.3,46.5,65.3z M153.8,82.3c1.3-0.9,2.6-1.7,3.8-2.6
		c0.4-0.3,0.7-0.7,0.9-1.1c0.7-1.6,0.8-3.2,0.8-4.9c-2.4,0.1-3.8,1.4-5.4,2.4c-1.9,1.1-2,2.5-1.4,4
		C152.9,80.9,153.4,81.6,153.8,82.3z M109.9,125.1c0,1.4-1,2.3-2,3.3c-0.9,0.9-2.1,1.7-3.1,2.6c2.8-1.4,5.4-2.8,7.2-4.9
		c0.2-0.2,0.3-0.5,0.3-0.8c-0.2-0.7-0.4-1.5-0.7-2.3c-1.2,0.4-2.3,0.7-3.3,1.1c-2.7,1.1-3.6,2.9-2.7,5.4c0.8-0.8,1.5-1.4,2.2-2.1
		C108.4,126.6,109.1,125.9,109.9,125.1z M79.3,119.5c2.5-4.1-0.5-6-4-7.4c-0.5,0.8-1,1.6-1.5,2.4c1.1,2.5,3.3,4.5,5.6,6.5
		c-1.7-2-3.2-4.1-3.1-6.6C77.2,116,78.2,117.6,79.3,119.5z M24.8,78.2c0.1,1.3,0.1,2.2,0.3,3.1c0.3,1,0.5,2,1.2,2.9
		c0.9,1.1,2.3,2.1,3.5,3.1c0.4-0.6,0.8-1,1-1.5c1-1.7,1-3.4-1.1-4.8c-0.7-0.5-1.3-1.1-2.1-1.5C26.9,79.1,26,78.8,24.8,78.2z
		 M165.6,74.6c-1,0.6-1.4,1.6-2.7,2c0.5-1.2,2-1.9,1.9-3.3c-1.5,0.3-2.7,0.6-4,0.9c-0.5,1.8-0.9,3.4-1.3,5.1c3,0.4,3.7,0.2,5.1-1.6
		c0.2-0.2,0.5-0.5,0.6-0.7C165.6,76.3,166,75.6,165.6,74.6z M42,61.6c0.2-1.7,0.4-3.1,0.5-4.6c0-0.3-0.1-0.6-0.4-0.7
		c-1-0.5-2.1-0.9-3.4-1.5c-0.4,1.4,0.8,2.4,0.6,3.5c-0.6-0.8-1.1-1.5-1.8-2.4c-1.2,1.7,0,3.1,0.7,4.5C38.9,61.4,40.7,61.2,42,61.6z
		 M21.2,80.5c-0.1,0-0.2,0.1-0.3,0.2c-0.6-0.6-1.2-1.2-1.9-1.9c-0.3,1.4,0.4,2.4,1.1,3.3c1.2,1.7,2,2,4.6,1.7
		c-0.3-1.4-0.5-2.9-0.8-4.3c-0.1-0.3-0.3-0.6-0.5-0.7c-1.1-0.4-2.2-0.7-3.3-1.1c-0.1,0.1-0.2,0.2-0.3,0.3
		C20.1,78.8,20.6,79.7,21.2,80.5z M68.8,115c-2-1.1-3.5-2.4-4.2-4.1c0.7,0.4,1.3,0.9,1.9,1.4c0.6,0.5,1.3,1,2,1.6
		c0.9-2.8-0.3-3.5-3.2-4.3c-1.3-0.4-2.6-0.6-4-0.9c-0.4-0.1-0.8,0-1.3,0C62.3,111.4,64.9,113.6,68.8,115z M117.5,125.8
		c0.1,0.1,0.2,0.1,0.3,0.2c1.5-0.8,2.9-1.6,4.4-2.4c0.1,0.1,0.2,0.2,0.3,0.3c-1.1,0.8-2.2,1.6-3.3,2.3c3.4-0.5,5.7-2.2,8.3-3.8
		c-2.1-0.3-6.2-0.2-7.6,0.3c-1.2,0.4-2.2,0.9-2.2,2C117.7,125.1,117.6,125.4,117.5,125.8z M63.5,133c-0.1-2.7-0.3-2.9-3-3.7
		c-1.4-0.4-3.1-0.5-4.6-0.7c-0.4,0-0.8,0-1.3,0.1c3.1,2.8,7.2,5.1,9.6,5.3c-3.2-1.5-4.4-2.4-4.7-3.5C60.8,131.3,62.1,132.1,63.5,133
		z M126.6,113.5c1.3-1.1,2.7-2.1,3.9-3.2c1.7-1.5,1.3-3.1,0.3-4.8C127.7,107.7,127.5,110.7,126.6,113.5z M63.7,100.3
		c-0.1-2.9,0.6-5.9-1.8-8.5c-1.7,1.6-2.3,3.3-1,5.1C61.8,98,62.8,99.1,63.7,100.3z M84.1,59.4c1.4-6.1-0.2-12-0.7-17.8
		C82.6,45.8,83.1,57.2,84.1,59.4z M58.4,75.6c-2,1.7-2,1.7-1.2,3.5c0.5,1,0.8,1.9,1.2,2.9c0.3,0.7,0.6,1.3,1,2.1
		c1-0.8,1.5-1.6,1.3-2.4C60.1,79.8,59.3,77.8,58.4,75.6z M139.4,90.5c-0.3,0.2-0.5,0.4-0.6,0.5c-1.2,1.6-2.5,3.2-3.7,4.8
		c-0.6,0.9-0.4,1.7,0.2,2.6c0.3-0.1,0.4-0.1,0.5-0.2c1.5-1.7,2.9-3.5,4.3-5.2c0.2-0.2,0.2-0.6,0.1-0.8
		C140.1,91.6,139.8,91.1,139.4,90.5z M141,93.6c-3,1.7-2,4.1-2.7,6.3c1.2-0.4,2.2-0.7,3.1-1C142.1,97,142.3,95.3,141,93.6z
		 M56.3,84.9c0.2-1,0.3-1.8,0.6-2.6c0.5-1.4-0.2-2.6-1-3.9c-1.9,1.4-2.2,3.1-2.2,4.8c0,0.2,0.2,0.5,0.4,0.6
		C54.8,84.1,55.5,84.5,56.3,84.9z M86.6,71.8c0-0.8,0.2-1.5,0.1-2.3c-0.2-1.9-0.3-3.9,0.2-5.8c0.1-0.2,0.1-0.6-0.1-0.7
		c-1.2-0.6-0.6-1.6-1-2.3c-0.2-0.3-0.2-0.7-0.4-1C84.7,63.9,85.4,67.9,86.6,71.8z M81.9,67.1c-1.9,0.9-2,1.1-1.7,2.4
		c0.4,1.7,0.8,3.3,1.3,5c0.1,0.2,0.3,0.5,0.5,0.9C83,72.4,82.6,69.8,81.9,67.1z M35.9,79.8c2.2,3.6,3.9,7.4,6.8,10.8
		C41.9,87.5,40,84.4,35.9,79.8z M126,109.2c0.1,0,0.3,0.1,0.4,0.1c1-1.3,2-2.6,3.2-3.8c1-1,0.9-2,0.5-3.4
		C127.9,104.4,126.6,106.7,126,109.2z M63.5,88.7c-0.6,1.1-1,2-0.4,3.2c0.7,1.1,1.1,2.4,1.6,3.6c0.1,0.2,0.3,0.4,0.6,0.8
		C65.7,93.4,64.9,90.2,63.5,88.7z M159.5,98.9c-0.1-0.1-0.2-0.1-0.3-0.2c-3.6,2.6-7.1,5.3-9.2,8.8c0.1,0.1,0.2,0.1,0.3,0.2
		C153.4,104.7,156.5,101.8,159.5,98.9z M43.4,89c1.1,3.1,2.9,6.2,5.1,7.3C47.9,93.7,46.8,92.1,43.4,89z M67.9,108.7c0-1.5,0-3,0-4.4
		c0-0.7-0.2-1.4-1.7-1.7C65.5,104.9,65.7,106.9,67.9,108.7z M120,121c2.2-1,3.6-3.5,3.1-5.6c-1.3,0.3-1.7,0.5-1.9,1.4
		C120.8,118.2,120.4,119.7,120,121z M131.7,103c1.2-1.4,2.1-2.5,3.1-3.6c-0.3-0.5-0.6-1-0.9-1.5C131.4,100,131,100.9,131.7,103z
		 M62,89.2c1.2-2,1-3.4-0.7-5.4c-0.4,0.6-1.4,1-1,1.8C60.7,86.7,61.3,87.8,62,89.2z M61.8,80.9c0.2-2.1-2.2-9.3-3.1-10.1
		c-0.8,1.2,1.1,2,0.7,3.3c-0.3,1,0.7,2.2,1.1,3.3C60.9,78.6,61.3,79.8,61.8,80.9z M85.7,88.2c0.5-2.2,0.7-4.3-0.1-6.5
		C84.9,83.9,84.8,86.1,85.7,88.2z M59.2,85.8c-0.6,0.8-1,1.3-1.3,1.9c-0.5,1-0.2,1.5,1.2,2.1c0.2-0.6,0.1-1.3,0.5-1.8
		C60.2,87.3,59.9,86.7,59.2,85.8z M134.3,104.2c2.1-0.7,2.3-1.7,0.7-4c-0.4,0.6-0.8,1.1-0.9,1.6C134,102.6,134.2,103.3,134.3,104.2z
		 M154.9,99.9c-2,1.2-5.6,4.3-6.1,5.4C150.8,103.4,153.8,102.2,154.9,99.9z M84.1,82.4c-0.4-1.8,0.4-3.9-1.3-5.6
		C82.6,78.8,83.4,80.6,84.1,82.4z M128.2,60.3c0.2,0.1,0.4,0.1,0.6,0.2c0.4-1.7,2.3-3,2.2-4.8c-0.2,0-0.3-0.1-0.5-0.1
		C129.8,57.1,129,58.7,128.2,60.3z M98.2,163.3c-0.1,1.6-0.3,3.2-0.4,4.8C98.2,166.5,99.4,164.9,98.2,163.3z M49.1,94.8
		c-0.1,0-0.3,0.1-0.4,0.1c0.5,1.6,1.7,3.6,2.7,4.1C50.6,97.6,49.8,96.2,49.1,94.8z M113,124.4c1-0.6,1.8-1.2,1.8-2.3
		c-0.7,0.2-1.3,0.3-1.8,0.5C113,123.3,113,123.9,113,124.4z M98.2,176c-2,0.8-2,0.8-1.7,2C98.5,177.5,98.6,177.4,98.2,176z
		 M73.3,113.3c0.9-1.6,1.1-2.4-0.8-2.5C72.2,111.9,72.2,111.9,73.3,113.3z M57.9,85.6c1.1-0.9,1-1.3-0.7-3.6
		C57.5,83.4,57.7,84.4,57.9,85.6z M54.8,77.5c0.6-1,0.4-1.7-0.7-2.8C54.1,75.7,54,76.6,54.8,77.5z M136.7,100.2
		c0.4-0.9,0.9-1.8,1.3-2.7C137.2,98.3,135.6,98.8,136.7,100.2z M143.7,90.5c-1.7,1-2,1.5-1.2,2.5C142.9,92.1,143.3,91.3,143.7,90.5z
		 M100.7,158.6c-1.6,0.7-0.9,1.6-1.2,2.3c0.1,0,0.3,0.1,0.4,0.1C100.2,160.3,100.4,159.6,100.7,158.6z M118.2,120.7
		c-0.6,0.9-0.6,1.5,0,2C119.1,122.1,118.6,121.5,118.2,120.7z M109.5,59.3c-0.1,0-0.3,0-0.4,0c-0.1,0.8-0.3,1.6-0.4,2.5
		c0.1,0,0.2,0,0.3,0C109.1,60.9,109.3,60.1,109.5,59.3z M69.7,108.7c-0.9,0.8-1.5,1.3-0.6,2c0.2-0.4,0.4-0.8,0.5-1.1
		C69.7,109.4,69.7,109.2,69.7,108.7z M83,183.5c0.4-0.9,0.4-0.9-1-1.2C82.4,182.7,82.7,183.1,83,183.5z M83.8,65.1
		c-0.2,0-0.3,0-0.5,0c0.1,0.5,0.2,0.9,0.3,1.4c0.1,0,0.1,0,0.2,0C83.8,66,83.8,65.5,83.8,65.1z M109,56.3c-0.1,0-0.2,0-0.4,0
		c-0.1,0.4-0.3,0.9-0.4,1.3c0.2,0,0.4,0,0.6,0.1C108.9,57.2,109,56.7,109,56.3z M117.2,77.6c0.1,0,0.2,0.1,0.4,0.1
		c0.2-0.6,0.4-1.2,0.6-1.7c-0.1,0-0.3,0-0.4-0.1C117.6,76.4,117.4,77,117.2,77.6z M140.2,115.3c0.1,0.1,0.1,0.1,0.2,0.1
		c0.3-0.2,0.6-0.4,0.9-0.6c-0.1-0.1-0.1-0.1-0.2-0.2C140.8,114.9,140.5,115.1,140.2,115.3z M86.1,96c-0.2,0-0.3,0.1-0.5,0.1
		c0.1,0.2,0.3,0.4,0.4,0.7c0.1,0,0.1,0,0.2-0.1C86.2,96.5,86.1,96.3,86.1,96z"/>
	<path id="XMLID_277_" class="st0" d="M116.7,274.1c-1.1-0.1-1.1-0.9-1.4-1.4c-1.1-2.2-2.1-4.5-3.2-6.8c-1.4-3-1.8-6.1-2.4-9.2
		c-1.3-6.7-2.6-13.4-4-20.1c-0.7-3.3-1.8-6.6-2.5-9.9c-0.9-4.1-1.6-8.3-2.3-12.4c-0.3-1.6-0.6-3.3-1.2-4.9c0,1.1-0.1,2.2,0,3.2
		c0.7,6.5,1.1,12.9,2.1,19.3c1.2,7.7,3,15.4,4.5,23.1c0.8,3.8,1.7,7.6,2.4,11.4c0.4,2.3,1.9,4.3,3.5,6.3c0.8,1,1.5,2,1.8,3.2
		c-2.1-1.8-3.6-3.9-5.2-6c-0.6,0.3-1.1,0.6-1.5,0.9c-1.1,0.9-2.4,0.6-3.6,0.4c-0.4-0.1-0.7-0.5-0.8-0.9c-1.9-6.3-3.9-12.5-5.6-18.8
		c-0.8-2.8-1.1-5.7-1.6-8.5c-0.3-1.5-0.6-3-0.7-4.5c-0.4-4-0.8-8-1.2-11.9c0-0.2,0-0.5-0.4-0.7c0,0.6,0,1.3,0,1.9
		c0,3.4,0,6.7,0.1,10.1c0.2,4.6,0.7,9.2,1,13.8c0.3,4.1,0.6,8.2,1,12.3c0.2,2.6,0.5,5.1,0.8,7.7c0.2,2.4,0.5,4.8,0.7,7.1
		c0,0.4,0.3,0.8,0.6,1.5c-0.5,0.5-1.4,0.8-2.6,0.5c-0.6-0.1-1.3-0.2-1.9-0.2c-1.6-0.2-1.8-0.4-2-1.6c-0.2-2-0.4-4.1-0.6-6.1
		c-0.1-1.5-0.3-2.9-0.5-4.4c0-0.3-0.2-0.6-0.3-0.8c-0.5,0.1-1,0.1-1.4,0.2c-2.3,0.3-2.9,0-2.9-1.7c0-1.7,0-3.3,0-5
		c-0.1-7.3-0.2-14.5-0.2-21.8c0-2.8,0.4-5.5,0.6-8.3c0.2-2.9,0.3-5.7,0.5-8.6c0.2-2.4,0.5-4.8,0.7-7.3c0-0.4,0-0.9-0.3-1.3
		c-0.1,0.7-0.4,1.3-0.4,2c-0.5,5.6-1,11.2-1.6,16.7c-0.2,1.8-0.6,3.6-0.8,5.4c-0.3,2.9-0.5,5.7-0.7,8.6c-0.3,3-0.5,6-0.8,9
		c0,0.2,0,0.4,0,0.6c-0.1,3.2-0.2,6.4-0.4,9.6c-0.1,2.3-0.2,4.7-0.5,7c-0.1,1.2-0.6,2.3-1,3.4c-0.4,1.4-0.9,2.8-1.3,4.3
		c-0.1,0.4-0.4,0.8-0.7,1.4c-0.5-0.2-0.9-0.3-1.2-0.5c-2.3-1.5-3.5-3.2-3.4-5.5c0.1-2.4,0.2-4.8,0.3-7.1c0-0.9,0-1.8-0.2-2.7
		c-0.3,1.3-0.6,2.7-0.8,4c-0.5,3.4-0.9,6.8-1.3,10.1c-0.1,0.8-0.5,1.1-1.6,0.8c-0.7-0.2-1.5-0.4-2.1-0.7c-1.1-0.5-1.1-0.5-0.4-1.5
		c0.3-0.5,0.5-1,0.6-1.5c0.5-2.4,1-4.8,1.5-7.2c0.5-2.3,0.9-4.6,1.5-6.9c1-4.1,2.2-8.2,3.2-12.3c0.6-2.5,1-5,1.7-7.5
		c1.6-6,3.4-11.9,5.2-17.8c1.2-4.2,2.5-8.4,3.8-12.7c0.1-0.4,0.3-0.8,0.8-1.2c-0.1,0.4-0.2,0.9-0.4,1.3c-1.1,4.2-2.3,8.4-3.4,12.6
		c-1.7,6.2-3.5,12.5-5.1,18.7c-1.5,5.9-3,11.8-4.4,17.7c-1,4.3-1.7,8.6-2.6,12.8c-0.4,1.6-1,3.2-1.5,4.9c0.7,0.2,1.4,0.4,2.1,0.7
		c0.6-3.5,1.1-6.8,1.7-10.1c0.3-1.7,0.8-3.5,1.1-5.2c0.7-3,1.3-6.1,2-9.1c0.7-3.2,1.6-6.3,2.3-9.5c1.2-5.5,2.7-10.9,4.4-16.3
		c0.5-1.7,0.7-3.6,1.1-5.3c1-3.9,2-7.8,3.1-11.7c1.5-5.2,2.6-10.4,3.4-15.7c0.2-1.2,0.5-2.3,0.7-3.5c0.2-1.1,0.2-2.3,0.4-3.5
		c0.6,0.9,1,1.7,0.7,2.8c-0.4,1.4-0.5,2.8-0.6,4.2c-0.3,5-0.6,10-0.8,15c-0.2,4-0.3,8-0.4,12c-0.1,2.2-0.3,4.4-0.2,6.6
		c0.1,3.8,0.4,7.7,0.6,11.5c0,0.2,0,0.5,0,0.7c0,7.2,0.6,14.4,1.2,21.6c0.4,4.1,0.6,8.3,0.9,12.4c0.1,0.8,0.3,1.5,0.5,2.4
		c1,0.2,2,0.3,3.3,0.5c0-0.8,0.2-1.5,0.1-2.3c-0.5-3.2-1-6.5-1.5-9.7c-0.3-2.4-0.4-4.8-0.6-7.1c-0.3-3.5-0.7-7.1-1-10.6
		c-0.2-2.3-0.4-4.6-0.4-6.9c-0.1-8.8-0.1-17.6-0.2-26.5c-0.1-5.2-0.3-10.4-0.3-15.6c0-4,0-8,0.1-12c0-0.4,0.1-0.7,0.4-1.1
		c0.1,0.2,0.2,0.4,0.2,0.6c0.3,3.8,0.5,7.7,0.9,11.5c0,0.4,0.6,0.8,0.7,1.3c0.1,0.6-0.1,1.2-0.2,1.7c-0.1,0.6-0.1,1.3-0.1,1.9
		c0,0.6,0,1.2,0,1.8c0.3,4.2,0.5,8.4,0.9,12.5c0.4,5.1,0.8,10.2,1.3,15.3c0.2,1.7,0.5,3.4,0.7,5.1c0.5,3.2,0.9,6.5,1.5,9.7
		c0.9,4.5,2,9,3.1,13.5c0.6,2.4,1.2,4.8,1.8,7.1c2,0.8,2.5,0.7,5.2-0.9c-0.3-0.7-0.7-1.5-1-2.4c-0.2-0.6-1.1-1.1,0-1.8
		c0.2-0.1-0.1-0.7-0.2-1.1c-1.2-4-2.7-8-3.7-12.1c-1.1-4.2-2-8.3-2.7-12.5c-1.2-6.4-1.9-12.9-2.6-19.3c-0.7-6.2-0.8-12.4-1.2-18.5
		c-0.3-5.3-0.3-10.6,0.1-15.9c0.1-1,0-1.9,0-3.1c1.1,0.6,1.2,1.3,1.3,2c0.2,2,0.3,4.1,0.5,6.1c0.5,5.5,1,11.1,1.7,16.6
		c0.6,4.5,1.3,9.1,2.3,13.6c1,4.9,2.3,9.7,3.4,14.5c1.3,5.8,2.7,11.6,4,17.4c0.7,3.2,1,6.5,1.7,9.7c0.4,1.7,1,3.3,1.7,4.9
		C114.7,269.7,115.7,271.9,116.7,274.1L116.7,274.1z M75.8,278.2c0.2-1.3,0.5-2.6,0.5-3.9c0-3.7,0.4-7.4,1-11c0.5-3.2,1-6.5,1.4-9.7
		c0.4-2.7,0.7-5.5,1.1-8.2c-0.3,0.3-0.5,0.6-0.6,0.9c-0.7,3.3-1.4,6.6-2,9.9c-0.7,3.9-1.1,7.8-1.7,11.7c-0.3,1.8-0.6,3.7-0.6,5.5
		C74.8,275.1,74.3,276.8,75.8,278.2c0.3,0.9,1,1.6,2,2c0.5-1.4,1-2.7,1.5-4c0.4-1.3,0.9-2.7,1-4c0.3-4.2,0.5-8.4,0.8-12.7
		c0.1-2.3,0.2-4.7,0.4-7c0.2-2.7,0.4-5.4,0.6-8.2c0.1-1.7,0.3-3.4,0.4-5.1c-0.2,0-0.4,0-0.5,0c-0.6,3.2-1.1,6.4-1.6,9.6
		c-0.5,3-0.9,6-1.2,9c-0.5,4-1,8-1.5,12c-0.3,2.2-0.5,4.5-0.8,6.7C76.6,277.2,76.1,277.7,75.8,278.2z M89.7,266.9c0-0.8,0-1.4,0-1.9
		c-0.3-3.5-0.7-7-0.9-10.5c-0.3-5.1-0.5-10.1-0.7-15.2c-0.1-3-0.3-6-0.3-9.1c0-4,0.2-8,0.3-12c-0.3,1.1-0.5,2.2-0.6,3.3
		c-0.2,2.6-0.3,5.3-0.5,7.9c-0.3,3.5-0.8,7-0.8,10.5c0,8.6,0.1,17.1,0.3,25.7c0,0.5,0.1,0.9,0.2,1.6C87.8,267.1,88.7,267,89.7,266.9
		z M82.2,232.8c-1.5,3.2-3.1,10-2.8,11.3C80.6,240.3,81.9,236.6,82.2,232.8z M99.6,207.9c0.1,0,0.1,0,0.2,0c0-0.6-0.1-1.2-0.1-1.8
		c0,0-0.1,0-0.1,0C99.6,206.7,99.6,207.3,99.6,207.9z M82.4,231.8c0.1,0,0.1,0,0.2-0.1c0-0.3,0-0.6,0-0.9c-0.2,0.1-0.2,0.3-0.2,0.4
		C82.4,231.4,82.4,231.6,82.4,231.8z"/>
	<path id="XMLID_276_" class="st0" d="M82.7,209.9c-6.1,18.4-14,36.4-23.5,54c0.9,0.6,1.8,1.2,2.9,2.1c-1.7-0.1-2.4-1-3.5-1.5
		c-0.8,0.4-1.7,1.1-2.7,0.5c-1-0.6-1.1-1.6-0.6-2.5c0.4,0.6,0.8,1.2,1.3,2c1.5-0.8,2.4-1.6,2.9-2.6c1.3-2.5,2.4-5,3.6-7.6
		c2.1-4.4,4.3-8.9,6.4-13.3c2-4.3,3.9-8.7,5.8-13c1.1-2.7,2-5.5,3.1-8.2C79.8,216.4,81.3,213.2,82.7,209.9z"/>
	<path id="XMLID_275_" class="st0" d="M70.4,37.1c-0.4-0.4-1-0.8-1.2-1.2c-1.7-3.9-3.3-7.8-4.1-11.9c-0.1-0.6-0.4-1.1-0.5-1.7
		c-0.1-0.5,0-1.1,0.2-1.7c2.4,5.9,4.4,11.7,8.2,17.2c-2.1-1.4-2.5-3.5-4.2-5.1C69.4,34.2,69.9,35.6,70.4,37.1L70.4,37.1z"/>
	<path id="XMLID_274_" class="st0" d="M74.5,243.5c-0.5,3.4-9.3,20.9-11.2,22.4c0.5-1.1,0.9-2,1.4-2.9c2.8-5.7,5.5-11.4,8.4-17.1
		C73.4,245,74,244.3,74.5,243.5z"/>
	<path id="XMLID_273_" class="st0" d="M23.4,77.2c-0.8,0.4-1.3,0-1.7-0.4c-2.4-2.2-4.9-4.3-7.3-6.5c-1-0.9-1.7-1.9-2.3-3.1
		c0.6,0.5,1.2,0.9,1.8,1.4c3.5,3.1,7.2,6.1,11.7,8.7c-1.2,0.1-1.7-0.4-2.3-0.8c-0.7-0.4-1.3-0.8-2.1-1.1
		C21.7,76.2,22.2,76.9,23.4,77.2C23.4,77.3,23.4,77.2,23.4,77.2z"/>
	<path id="XMLID_272_" class="st0" d="M63.4,29.3c0.1,0.6,0.2,1.2,0.3,1.8c0.3,1.3,0.6,2.7,0.9,4c0,0.1-0.1,0.2-0.3,0.6
		c-1.1-2.4-1.3-4.6-2-7.2C62.9,29,63.1,29.2,63.4,29.3C63.4,29.3,63.4,29.3,63.4,29.3z"/>
	<path id="XMLID_271_" class="st0" d="M14.7,73.8c0.2,0.1,0.3,0.2,0.5,0.4c0.2,0.3,0.4,0.7,0.7,1c0.8,1.1,1.7,2.1,2.5,3.2l0,0
		c-1.9-1.3-3.1-2.9-4.6-4.6C14.3,73.7,14.5,73.7,14.7,73.8z"/>
	<path id="XMLID_270_" class="st0" d="M45.1,67.6c-1.9-0.6-3-1.8-4.3-2.9C42.9,65.1,43.9,66.5,45.1,67.6z"/>
	<path id="XMLID_269_" class="st0" d="M116.7,274.2c0.1,0.2,0.2,0.3,0.4,0.5c0.3-0.3,0.6-0.5,1-0.8c-0.2,1.6-1.5,2.4-3.1,2.9
		C115.6,275.9,117,275.3,116.7,274.2C116.7,274.1,116.7,274.2,116.7,274.2z"/>
	<path id="XMLID_268_" class="st0" d="M75.7,33.5c-0.2-1-0.4-2-0.5-3c0.1,0,0.3,0,0.4,0C75.6,31.5,75.7,32.5,75.7,33.5
		C75.7,33.5,75.7,33.5,75.7,33.5z"/>
	<path id="XMLID_267_" class="st0" d="M61.9,22.6c-0.1-0.2-0.2-0.4-0.2-0.6c0-0.6,0-1.1,0.2-1.7C61.9,21.1,61.9,21.8,61.9,22.6
		C61.9,22.6,61.9,22.6,61.9,22.6z"/>
	<path id="XMLID_266_" class="st0" d="M7.1,67.8c0.3,0.1,0.6,0.2,1,0.3c0.2,0.3,0.3,0.7,0.5,1C7.5,69,7.6,68.2,7.1,67.8z"/>
	<path id="XMLID_265_" class="st0" d="M23.6,48.4c-0.3-0.5-0.5-1-0.8-1.4c0.1,0,0.2-0.1,0.3-0.1c0.3,0.5,0.6,0.9,0.9,1.4
		C23.9,48.3,23.7,48.3,23.6,48.4z"/>
	<path id="XMLID_264_" class="st0" d="M27.9,76c-0.4-0.4-0.8-0.8-1.3-1.2C27.5,75,27.9,75.4,27.9,76L27.9,76z"/>
	<path id="XMLID_263_" class="st0" d="M113.9,77.3c-0.1-0.5-0.1-0.9-0.2-1.4c0.1,0,0.2,0,0.3,0C114,76.4,114,76.8,113.9,77.3
		C113.9,77.3,113.9,77.3,113.9,77.3z"/>
	<path id="XMLID_262_" class="st0" d="M110,86.5c-0.1-0.5-0.1-0.9-0.2-1.4c0.1,0,0.1,0,0.2,0C110,85.5,110,86,110,86.5L110,86.5z"/>
	<path id="XMLID_261_" class="st0" d="M27.6,103c-0.2-0.2-0.5-0.4-0.7-0.6c0,0,0.1-0.1,0.1-0.1c0.3,0.2,0.5,0.4,0.8,0.6
		C27.8,102.9,27.7,103,27.6,103z"/>
	<path id="XMLID_260_" class="st0" d="M11.2,81.5c-0.4-0.3-0.9-0.6-1.3-0.9c0.1-0.1,0.3-0.2,0.4-0.2C10.6,80.8,10.9,81.2,11.2,81.5
		L11.2,81.5z"/>
	<path id="XMLID_259_" class="st0" d="M114.4,74c0,0.2,0,0.4,0,0.6c0,0-0.1,0-0.1,0C114.3,74.4,114.3,74.2,114.4,74
		C114.3,73.9,114.3,74,114.4,74z"/>
	<path id="XMLID_258_" class="st0" d="M136,44.6c0.2-0.3,0.3-0.6,0.5-0.9c0.1,0,0.2,0,0.2,0.1c-0.2,0.3-0.3,0.6-0.5,0.9
		C136.2,44.7,136.1,44.7,136,44.6z"/>
	<path id="XMLID_257_" class="st0" d="M34.6,50.5c0.6,1.1,1.3,2.3,1.9,3.4c0.2,0.4,0.4,0.9,0.5,1.4c-1-1.4-2-2.7-3-4.1
		c-0.3-0.4-0.5-0.9,0.1-1.3C34.4,50,34.5,50.3,34.6,50.5z"/>
	<path id="XMLID_256_" class="st0" d="M79.3,128.8c2.5,3.4,3.7,7.2,4.5,11c0.9,4.3,1.6,8.7,2.4,13c0,0.1,0,0.3-0.2,0.5
		c-0.3-0.7-0.6-1.5-0.8-2.2c-0.2-0.8-0.3-1.6-0.5-2.5c-0.7-3.4-1.2-6.8-2.1-10.2c-0.7-2.7-1.9-5.2-2.9-7.9
		C79.5,129.9,79.5,129.3,79.3,128.8C79.4,128.8,79.3,128.8,79.3,128.8z"/>
	<path id="XMLID_255_" class="st0" d="M74.5,133.3c0.5,0.5,1.1,1,1.4,1.6c1.3,2.2,2.4,4.5,3,6.9c0.7,3,1.4,5.9,2.1,8.9
		c0.1,0.3,0,0.6-0.1,0.9C78.8,145.5,77.7,139.2,74.5,133.3z"/>
	<path id="XMLID_254_" class="st0" d="M89.9,173c-1.9-5.4-2.9-11-6.4-16.4c1.6,0.6,2.2,1.5,2.6,2.5c1.6,3.6,3,7.2,3.4,11.1
		C89.5,171.1,89.7,172,89.9,173z"/>
	<path id="XMLID_253_" class="st0" d="M77.8,148c-2.3-5.5-4.4-10.9-7.3-16.3C74.5,136.8,76.6,142.3,77.8,148z"/>
	<path id="XMLID_252_" class="st0" d="M84.7,115.3c-0.7,2.3-1.3,4.4-1.9,6.5c0,0.1-0.2,0.2-0.3,0.3
		C81.5,120.3,82.6,116.9,84.7,115.3z"/>
	<path id="XMLID_251_" class="st0" d="M95.6,162.4c-0.3-4.6,0.1-9.1,0.9-13.6C96.6,153.4,96.4,157.9,95.6,162.4z"/>
	<path id="XMLID_250_" class="st0" d="M101.8,162.4c1.4-0.7,2.6-1,4.3-0.3c2.3,1,3.8,2.3,4.8,4.1c2,3.7,2.5,6.3,1.8,10.7
		c-0.3-1.9-0.4-3.5-0.9-5.1c-0.7-2.2-1.6-4.3-2.9-6.3C107.6,163.5,105.2,162.3,101.8,162.4z"/>
	<path id="XMLID_249_" class="st0" d="M79.5,161.1c0.1,1.1,0.2,2.1,0.4,3.2c-1.8-3.7-2.6-7.7-5.1-11.5c1.2,0.6,1.6,1.2,1.9,1.8
		c0.9,2.1,1.8,4.3,2.7,6.4C79.4,161,79.5,161.1,79.5,161.1L79.5,161.1z"/>
	<path id="XMLID_248_" class="st0" d="M101.3,131.7c0-2.3,0-4.6,0-7C102.9,126.1,103,129,101.3,131.7z"/>
	<path id="XMLID_247_" class="st0" d="M64.8,116.2c3.1,0.2,4.7,1.8,6.4,3.7c0-1.2,0-2.1,0-3c0.2,0,0.3,0,0.5,0
		c0.6,2.4,1.3,4.8,1.9,7.2c-0.6,0.1-1.1,0.1-1.8,0.2C70.4,121.3,69.2,118,64.8,116.2z"/>
	<path id="XMLID_246_" class="st0" d="M135.1,67.6c1.8-1.5,3-3.2,5.7-4.4C139.1,65.5,136.7,67.4,135.1,67.6z"/>
	<path id="XMLID_245_" class="st0" d="M96.9,47.2c-1.2-0.9-2.5-3.4-2.9-5.3C95.3,42.8,96.8,45.4,96.9,47.2z"/>
	<path id="XMLID_244_" class="st0" d="M65.5,49.2c2.1,1.3,2.7,3.2,4,5C68.1,53.7,66.8,52.2,65.5,49.2z"/>
	<path id="XMLID_243_" class="st0" d="M28.8,89.9c-1.5-0.8-3-1.7-4.5-2.5c2.2,0.2,3.4,1.3,4.9,2.2C29.1,89.7,29,89.8,28.8,89.9z"/>
	<path id="XMLID_242_" class="st0" d="M134.8,117.8c-0.8,1.2-2.2,1.8-4,2.1C132.2,119.2,133.1,118.1,134.8,117.8L134.8,117.8z"/>
	<path id="XMLID_241_" class="st0" d="M71.3,41.4c1.4,2.3,1.3,4.7,0,7.1c-0.1-0.7-0.1-1.2-0.2-1.7c-0.1-1.3-0.2-2.5-0.2-3.8
		C70.9,42.5,71.2,41.9,71.3,41.4z"/>
	<path id="XMLID_240_" class="st0" d="M72.9,43.7c1.3,1.1,1.3,3.3,0,5.3C72.4,48.1,72.5,45.5,72.9,43.7z"/>
	<path id="XMLID_239_" class="st0" d="M135.2,57.5c0.5-0.9,1.1-1.7,1.8-2.8c0.5,1.1,0.1,1.8-0.2,2.5c-0.3,0.7-0.5,1.5-0.8,2.2
		c-0.3,0.8-0.6,1.5-0.9,2.3c-0.1,0-0.3,0-0.4-0.1C134.9,60.3,135.1,58.9,135.2,57.5L135.2,57.5z"/>
	<path id="XMLID_238_" class="st0" d="M135.3,57.4c-0.4,1.1-0.8,2.2-1.2,3.4c-0.2,0.5-0.3,0.9-0.5,1.6c-0.9-2.1-0.2-4.5,1.6-5.6
		C135.2,57,135.2,57.2,135.3,57.4C135.2,57.5,135.3,57.4,135.3,57.4z"/>
	<path id="XMLID_237_" class="st0" d="M101.7,38.1c-0.5,1.2-0.9,2.4-1.4,3.5c-0.1,0-0.3,0-0.5-0.1c0-0.5,0.1-1,0.1-1.5
		c0.2-1.3,0.3-2.6,0.6-3.9c0.1-0.5,0.3-1,0.7-1.4C101.8,36,101.9,37.1,101.7,38.1L101.7,38.1z"/>
	<path id="XMLID_236_" class="st0" d="M101.7,38.2c0.2-0.3,0.4-0.7,0.6-1.1c1.2,1.2,0.8,3.4-1,5.6c-0.2-1.1,0.2-2,0.3-2.9
		C101.7,39.3,101.7,38.7,101.7,38.2C101.7,38.1,101.7,38.2,101.7,38.2z"/>
	<path id="XMLID_235_" class="st0" d="M44.5,57.9c0.2,0.3,0.4,0.7,0.7,1c0.1,0.2,0.3,0.4,0.4,0.4c1.8,0,1.7,0.9,1.8,1.8
		c0.1,0.7,0,1.3,0,2.3c-1.1-1-0.8-2.1-1.5-3.2c0,1,0,1.8,0,2.6c-0.9-1.6-1.6-3.1-1.8-4.7C44.2,57.9,44.4,57.9,44.5,57.9z"/>
	<path id="XMLID_234_" class="st0" d="M28.2,83.1c0.1,0.6,0.2,1.2,0.3,1.8c-1.4-1.4-2.3-3-2.8-4.7c0.6,0.5,1.1,1.1,1.7,1.6
		C27.7,82.3,28,82.7,28.2,83.1z"/>
	<path id="XMLID_233_" class="st0" d="M28.2,83.1c-0.2-0.4-0.5-0.9-0.7-1.3c0.1-0.1,0.2-0.3,0.4-0.4c0.4,0.3,0.9,0.5,1.1,0.8
		c0.5,0.9,1.1,1.8,0.8,3.2C29.1,84.5,28.7,83.8,28.2,83.1z"/>
</g>
</svg>
