<?xml version="1.0" encoding="utf-8"?>
<!-- Generator: Adobe Illustrator 19.0.0, SVG Export Plug-In . SVG Version: 6.00 Build 0)  -->
<svg version="1.1" id="Warstwa_1" xmlns="http://www.w3.org/2000/svg" xmlns:xlink="http://www.w3.org/1999/xlink" x="0px" y="0px"
	 viewBox="0 0 43 76" style="enable-background:new 0 0 43 76;" xml:space="preserve">
<style type="text/css">
	.st0{fill:#BFA161;}
</style>
<path id="XMLID_53_" class="st0" d="M18.7,4.4c-0.2,0-0.3,0.2-0.5,0.2c-0.3,0.2-0.7,0.3-0.9,0.5c-1,0.9-0.9,2.1-0.5,2.4
	c0.3,0.3,1.2-0.2,1.4-0.9c1.1,0.5-0.7,2.4-2.3,1.4c-1.4-1,0-4.5,2.8-5.4C19,2.7,18.8,4.4,18.7,4.4"/>
<path id="XMLID_52_" class="st0" d="M9.4,16.5c0.2,0,0.7-1,0.9-1c0,0,2.3,1.9,2.4,3.8c-0.2,0.2,0.3,0.3-0.5,0.2
	c-0.2-0.2-2.1-2.3-2.3-2.3c-0.2,0,0.4,1.2,0.2,1.2c-0.2,0-1.6-1.6-1.7-1.6c-0.2,0,0.7,1.2,0.5,1.2c-0.7-0.2-3.1-1.2-4.9-1.2
	c0,0,2.8,1.1,3.5,1.2c0.2,0-2.8,0.7-2.6,0.7c0.2,0.2,2.6-0.5,5.1,0.3l-0.9,0.3c0.2,0.2,1.9,0.5,2.1,0.7c-0.3,1.9-5.8,2.3-7,3.1
	c0.5,0,4.2-0.5,4.4-0.4c0,0.2-4.5,1.7-4.5,1.9c-0.2,0.2,2.6-0.7,3.1-0.5c0.2,0-1.7,1.2-2.8,2.3c-0.2,0,1.9-0.5,1.7-0.5
	c-1.2,1.9-1.7,4-1.7,4.7c-0.2,0.2,0,0.7-0.2,0.5c0,0-0.7-0.9-0.9-2.6c0-0.2-0.9,0.7-0.9,0.5c0-0.7,0.7-1.9,0.9-2.8
	c-0.5,0-1.2,1.4-1.4,1.2c0-0.2,1-3.1,1-3.3c-0.2-0.2-1.7,1-1.7,0.7c0-0.4,1.7-2.3,1.6-2.4c-0.2,0-1.4-0.7-1.6-1.2
	C1.4,21,7.2,22.2,7.5,21c1-2.8-4.7-0.4-4.5-0.7c0.3-0.5,0-1.4,0.3-1.8c0-0.2-1.4,0.4-1.7,0c0.2-0.2,0.9-1,1.4-1.6
	c0.2,0.2-2.1-1.1-2.1-1.4c0-0.4,2.6,0.2,3,0.3c0.3,0-0.2-1.4,0.2-1.2c0.4,0.2,1.6,1,1.9,1.2c0.7,0.2-0.2-1.4,0.2-1.4
	c0.5-0.2,1.6,2.1,1.9,1c0.4-0.7-0.2-0.9,0.2-1C8.6,14.5,9.3,16.5,9.4,16.5"/>
<path id="XMLID_51_" class="st0" d="M18,21.7c0.2,0.2-1-0.2-1,0.2c0.5,0.7,1,1.7,1,2.5c-0.2,0.3-1.2-1.2-1.4-0.9
	c-0.2,0.7,2.1,2.8,1.6,3.3c-0.3,0.2-1.4-0.5-1.6-0.9c0,0,0.7,1.6,0.7,2.3l-1.2-0.9c0.2,1.2-0.2,2.4-0.4,2.6c0,0.9-0.9-3.1-0.9-2.3
	c-0.2,0.2-0.7,1.2-0.9,1.2c-0.3-0.4,0-1,0.2-1.6c0-0.3-1,0.2-1.2,0c0-0.2,0.5-0.9,0.7-1c0-0.7,0.2-1.6-1.2-1.4
	c-2.8,0.3,0.5,2.6-0.2,3.8c-0.2,0.2-1.7-1.4-1.7-1.4c-0.7,0.5,0.5,1,0,1.7c-0.2,0.2-1.2-1.2-1-1.2l-0.5,1.6L8.2,28
	c-0.7,1-0.4,1.7-0.7,3c-0.2,0.2-0.5-1.6-0.7-1.6c-0.2,0.3-2.1,2.1-2.3,1.9c0.5-1.4,1.4-3.5,2.1-4.5c0.2-0.2,0.2,1.6,0.3,1.4
	c0.5-0.7,0.3-2.3,1.2-3.1c0.2-0.4,0.2,1.7,0.5,1.6c0.2-0.4,0.5-3.5,0.9-3.7c0.2-0.2,0.3,2.8,0.5,2.8c0.2-0.2,0-4,2.6-4.7
	c0-0.2,0.2,1.4,0.3,1.6c0,0.2,0.3-0.5,0.3-0.4c0.2,0.2,1.6,4.4,1.7,4.4c0.2-0.2-0.9-4.2-0.9-4.5c0,0,1.2,1.7,1.4,1.7
	c0.2,0-1.6-3-1.6-3c0-0.2,2.3,1.7,2.3,1.6c-0.5-1-2.4-2.4-2.4-2.4C14.5,19.1,17.8,21.3,18,21.7"/>
<path id="XMLID_50_" class="st0" d="M29.1,48.7c-0.2,0-0.4-1.7-0.5-1.7c-0.2,0-2.3,2.8-1.9,4.7c0,0,0.9,1.2,1.4,0.7
	c0.2,0,1.7-2.6,1.7-2.6c0.2-0.2,0,1.2,0.2,1.2c0.2,0,1.2-1.8,1.4-1.9c0.2,0-0.5,1.4-0.3,1.4c0.7-0.3,2.8-2.1,4.5-2.3
	c0,0-2.6,1.6-3.1,1.9c-0.2,0,2.8,0,2.6,0.2c0,0-2.6,0-4.7,1.2c-0.2,0.2,0.9,0.2,0.7,0.3c0,0.2-1.7,0.9-1.7,1
	c0.7,1.9,6.3,1.1,7.5,1.6c-0.5,0-4.2,0.4-4.2,0.5c0,0.2,4.7,0.7,4.7,0.9c0.2,0.2-2.6,0-3.1,0.4c-0.2,0,1.9,0.7,3.1,1.4
	c0.2,0.2-1.9,0-1.7,0c1.6,1.6,2.6,3.5,2.8,4.2c0,0.2,0.2,0.7,0.2,0.5c0,0,0.5-1.2,0.2-2.8c0-0.2,1,0.3,1,0.2c-0.2-0.7-1-1.6-1.4-2.4
	c0.5-0.2,1.6,1,1.6,0.9c0-0.2-1.6-2.8-1.6-3c0-0.2,1.7,0.5,1.7,0.4c-0.2-0.4-2.3-1.9-2.1-1.9c0-0.2,1-1,1.2-1.6
	c-0.2-0.5-5.6,2.1-6.3,0.9c-1.6-2.4,4.5-1.4,4.4-1.6c-0.5-0.5-0.3-1.4-0.7-1.7c-0.2-0.2,1.4,0.2,1.6-0.2c-0.2-0.2-1.1-1-1.6-1.4
	c-0.2,0.2,1.9-1.4,1.7-1.8c-0.2-0.3-2.6,0.7-2.8,0.9c-0.4,0.2-0.2-1.2-0.5-1c-0.3,0.2-1.4,1.4-1.6,1.6c-0.2,0-0.2-1.4-0.5-1.4
	c-0.5,0-1.2,1.4-1.7,1.6c-0.3,0,0.5-1.6,0.2-1.6C31.1,46.3,29.1,48.7,29.1,48.7"/>
<path id="XMLID_49_" class="st0" d="M23.2,55.9c0,0.2,1-0.3,0.9,0c-0.2,0.9-0.5,1.9-0.2,2.6c0.2,0.4,0.9-1.4,1-1
	c0.2,0.5-1.4,3.1-0.9,3.5c0.4,0,1.2-0.9,1.4-1.2c0,0-0.3,1.6-0.2,2.4c0,0,0.9-1.2,0.9-1c0.3,1.2,0.9,2.3,1,2.3
	c0.2,0.9,0.2-3.1,0.4-2.3c0.2,0.2,0.9,0.9,0.9,0.9c0.3-0.4-0.2-0.9-0.3-1.4c-0.2-0.5,1,0,1-0.3c0,0-0.7-0.7-0.9-0.9
	c-0.2-0.5-0.3-1.4,0.9-1.6c3-0.2,0.2,2.8,1,3.7c0.2,0.2,1.4-1.8,1.4-1.8c0.7,0.4-0.2,1.2,0.3,1.8c0.2,0.2,1-1.4,0.7-1.4l0.9,1.4
	l0.3-1.6c1,0.9,0.7,1.7,1.4,2.8c0.2,0.2,0.2-1.6,0.4-1.7c0.3,0.4,2.6,1.7,2.6,1.4c-0.9-1.2-2.1-3-3.1-4c-0.2-0.2,0.3,1.7,0,1.4
	c-0.5-0.3-0.9-2.1-1.7-2.8c-0.3-0.2,0.2,1.9-0.2,1.8c-0.3-0.2-1.4-3.1-1.7-3.3c-0.2-0.2,0.4,2.8,0.2,2.8c-0.3-0.2-0.9-4-3.5-4
	c-0.2-0.2,0,1.4,0,1.6c0,0.2-0.4-0.5-0.5-0.4c0,0.2-0.5,4.7-0.7,4.7c0,0,0-4.2,0-4.5c0,0-0.9,2.1-1,1.9c-0.2,0,0.9-3.1,0.9-3.1
	c0-0.2-1.7,2.1-1.7,1.9c0.2-1.2,1.7-2.8,1.7-2.8C26,52.7,23.4,55.5,23.2,55.9"/>
<path id="XMLID_48_" class="st0" d="M14.8,54.7c0,0.5-0.5,0.9-0.3,1.4c-0.3,0.5,0.3,1-0.2,1.6c-0.4,0-0.9,0-1.1-0.3
	c0-0.9-0.2-1.9,0.7-2.4c0.2-0.2,0.7-1,1.1-0.9L14.8,54.7z"/>
<path id="XMLID_47_" class="st0" d="M8.2,41.9c0,0,0,0.2,0,0.4c-0.2,0.5-1.7,1.2-2.1,1c-0.3-0.2-0.5-1-0.5-1.8
	c0-0.5,1.2-0.7,1.7-0.3C7.7,41.6,8,41.4,8.2,41.9"/>
<path id="XMLID_46_" class="st0" d="M13.6,43.7c0,0,0,0-0.2,0.4c-0.2,0.5,0.9,1.9,1,1.9c0.3,0.2,1-0.5,1.4-1.1
	c0.3-0.5-0.5-1.2-1.2-1.2C14.3,43.5,14.1,43.3,13.6,43.7"/>
<path id="XMLID_45_" class="st0" d="M6.6,46.3c-0.4,0.4-0.9,0.2-1.6,0.4c-0.3-0.4-0.5-0.9-0.5-1.4c0-0.4,0.2-0.7,0.3-1
	c0.3-0.2,0.7-0.2,0.9,0C6.1,44.7,6.8,45.6,6.6,46.3"/>
<path id="XMLID_44_" class="st0" d="M12.4,48.2c0.2,0.5,0.7,0.5,1,1c0.5,0,0.9-0.3,1.2-0.7c0.3-0.4,0.3-0.7,0.3-1.1
	c-0.2-0.3-0.5-0.5-0.9-0.5C13.6,47.2,12.6,47.3,12.4,48.2"/>
<path id="XMLID_43_" class="st0" d="M13.4,45.4c0.2,0.3,0.5,0.9,0,1.2c-0.2,0.2-1.2,0.9-1.6,0.7c-0.5-0.2-0.7-0.7-1-1.2
	c-0.2-0.4,0.5-1.1,1-1.2C12,44.9,13.4,45.2,13.4,45.4"/>
<path id="XMLID_42_" class="st0" d="M7.3,43.3c-0.3,0.3-0.9,0.5-0.7,1c0,0.3,0.5,1.6,0.9,1.6c0.5,0.2,1-0.2,1.6-0.3
	c0.3-0.2,0.2-1-0.2-1.6C8.9,43.8,7.5,43.3,7.3,43.3"/>
<path id="XMLID_41_" class="st0" d="M5.4,49.8c-0.2,0.2-0.5,0.7-0.2,1c0,0.2,0.7,0.9,0.9,0.7c0.4,0,0.7,0,0.9-0.5
	c0-0.4-0.2-0.7-0.5-1C6.1,49.6,5.6,49.8,5.4,49.8"/>
<path id="XMLID_40_" class="st0" d="M11.2,51.7c0.2,0.3,0.2,0.9-0.3,1c-0.2,0-1,0.2-1,0c-0.3-0.2-0.5-0.5-0.3-0.9
	c0.2-0.3,0.5-0.5,0.9-0.7C10.8,51.2,11.2,51.5,11.2,51.7"/>
<path id="XMLID_39_" class="st0" d="M14.5,41.6c-0.3,0.4-0.3,0.4-0.7,0.4c-0.9,0.2-1.7-0.5-1.7-0.7c1.2-0.7,2.3-1.6,3-3
	C15.4,38.1,15.5,40.5,14.5,41.6"/>
<path id="XMLID_38_" class="st0" d="M15.9,43c-0.4,0-0.7-0.2-0.9-0.5c0-0.2,0-0.5,0.2-0.9c0.9,0,2.1,0,2.8-0.9
	C18.1,40.9,17.8,42.6,15.9,43"/>
<path id="XMLID_37_" class="st0" d="M8.7,39.8c0.2,0.4,0.2,0.5,0.4,0.5c0.7,0.7,1.7,0.7,1.9,0.5c-0.7-1.2-1-2.6-0.7-4
	C10.1,36.5,8.6,38.3,8.7,39.8"/>
<path id="XMLID_36_" class="st0" d="M6.8,40c0.3,0.2,0.7,0.4,1,0.2C8,40,8.2,39.7,8.2,39.5c-0.7-0.7-1.6-1.4-1.7-2.4
	C6.3,37,5.6,38.6,6.8,40"/>
<path id="XMLID_35_" class="st0" d="M10.3,44.9c0.3,0,1.6-0.5,1.9-0.9c0.3-0.2,0.5-0.7,0.5-1c-0.2-0.3-1.2-0.9-1.6-1
	c-0.3-0.2-1.4-0.4-1.6-0.2c-0.3,0.2-0.5,0.9-0.5,1.2c0.2,0.5,0.7,1.6,1,1.7L10.3,44.9z"/>
<path id="XMLID_34_" class="st0" d="M9.1,48.7c0.3,0,1.4-0.5,1.7-0.9c0.3-0.2,0.2-0.7,0-0.9c0-0.3-0.7-0.9-1-0.9
	c-0.3-0.2-1-0.2-1.2,0C8.4,46.3,7.9,46.6,8,47c0,0.3,0.5,1.4,0.9,1.6L9.1,48.7z"/>
<path id="XMLID_33_" class="st0" d="M8.2,51.3c0.3,0,1.2-0.3,1.4-0.5c0.3-0.2,0.2-0.7,0-0.9c0-0.2-0.5-0.5-0.9-0.7
	c-0.2,0-0.9,0-1,0.2c-0.2,0-0.5,0.3-0.4,0.7c0,0.2,0.5,1.1,0.7,1.2H8.2z"/>
<path id="XMLID_32_" class="st0" d="M7.5,53.6c0.2,0,0.9-0.2,1-0.5c0.2-0.2,0.2-0.4,0-0.5c0-0.2-0.3-0.5-0.7-0.5
	c-0.2-0.2-0.7-0.2-0.9,0c-0.2,0-0.3,0.4-0.3,0.5c0.2,0.3,0.5,0.9,0.7,1H7.5z"/>
<path id="XMLID_31_" class="st0" d="M5.4,47.2c-0.4,0.2-0.7,0.9-0.4,1.2c0,0.4,1,0.9,1.4,0.7c0.5,0,1.2-0.2,1.4-0.7
	c0-0.5-0.3-1-0.7-1.2C6.6,46.8,5.6,47,5.4,47.2"/>
<path id="XMLID_30_" class="st0" d="M12.7,49.4c0.2,0.5,0.2,1.2-0.4,1.4c-0.2,0-1.4,0-1.6-0.4c-0.3-0.3-0.9-0.9-0.5-1.4
	c0.2-0.5,0.7-0.5,1.2-0.5C12,48.6,12.7,49.3,12.7,49.4"/>
<path id="XMLID_29_" class="st0" d="M32.1,12.8c0,0,0,0,0,0.2c0.2,0.5,1.7,0.9,2.1,0.7c0.2-0.2,0.3-0.9,0.2-1.4c0-0.5-1-0.5-1.6-0.2
	C32.5,12.4,32.3,12.3,32.1,12.8"/>
<path id="XMLID_28_" class="st0" d="M27.6,14.5c0,0,0,0.2,0.2,0.3c0.2,0.3-0.7,1.6-0.9,1.6c-0.4,0.2-1-0.2-1.4-0.7
	c-0.3-0.3,0.4-1,1-1C26.9,14.5,27,14.4,27.6,14.5"/>
<path id="XMLID_27_" class="st0" d="M33.9,16.1c0.5,0.3,0.9,0,1.4,0.2c0.4-0.2,0.5-0.7,0.5-1.2c0-0.2-0.2-0.5-0.5-0.7
	c-0.2-0.2-0.5-0.2-0.7,0C34.2,14.9,33.7,15.6,33.9,16.1"/>
<path id="XMLID_26_" class="st0" d="M28.8,18c0,0.5-0.5,0.7-0.9,1c-0.2,0.2-0.7-0.2-1-0.5c-0.2-0.2-0.2-0.5-0.4-0.9
	c0.2-0.2,0.4-0.4,0.7-0.4C27.7,17.5,28.6,17.5,28.8,18"/>
<path id="XMLID_25_" class="st0" d="M27.7,15.9c0,0.4-0.3,0.7,0,1.1c0.2,0.2,1,0.5,1.4,0.3c0.5-0.2,0.7-0.7,0.9-1
	c0.2-0.2-0.5-0.7-0.9-0.9C29,15.4,27.7,15.8,27.7,15.9"/>
<path id="XMLID_24_" class="st0" d="M33,13.8c0.3,0.2,0.9,0.3,0.9,0.7c0,0.3-0.3,1.4-0.7,1.4c-0.5,0.2-1,0-1.6-0.2
	c-0.3,0-0.2-0.9,0-1.2C31.6,14.4,32.8,13.8,33,13.8"/>
<path id="XMLID_23_" class="st0" d="M35.2,18.9c0.2,0.2,0.5,0.5,0.4,0.9c-0.2,0-0.7,0.7-0.9,0.5c-0.2,0-0.7,0-0.7-0.4
	c-0.2-0.4,0-0.7,0.3-0.9C34.6,18.7,35.1,18.9,35.2,18.9"/>
<path id="XMLID_22_" class="st0" d="M30.2,20.8c-0.2,0.4,0,0.7,0.4,0.9c0.2,0,1,0,1-0.2c0.2-0.2,0.5-0.4,0.2-0.7
	c-0.2-0.3-0.5-0.3-0.9-0.3C30.5,20.3,30.2,20.8,30.2,20.8"/>
<path id="XMLID_21_" class="st0" d="M26.5,13c0.4,0.2,0.4,0.4,0.7,0.4c0.7-0.2,1.4-0.7,1.4-0.9c-1-0.3-2.1-1-2.8-2.1
	C25.5,10.3,25.5,12.1,26.5,13"/>
<path id="XMLID_20_" class="st0" d="M25.3,14.2c0.3,0,0.7-0.2,0.9-0.3c0-0.4,0-0.5-0.2-0.7c-0.9,0-1.9,0-2.6-0.5
	C23.2,12.6,23.6,14,25.3,14.2"/>
<path id="XMLID_19_" class="st0" d="M31.4,11.1c0,0.3,0,0.3-0.2,0.5c-0.7,0.5-1.6,0.7-1.7,0.5c0.5-1,0.7-2.3,0.4-3.3
	C30,8.4,31.6,9.8,31.4,11.1"/>
<path id="XMLID_18_" class="st0" d="M33.3,11.2c-0.3,0-0.7,0.2-1,0.2c-0.2-0.2-0.3-0.3-0.3-0.7c0.7-0.5,1.4-1.2,1.4-1.9
	C33.5,8.6,34.4,9.8,33.3,11.2"/>
<path id="XMLID_17_" class="st0" d="M30.5,15.2c-0.4,0.2-1.6-0.2-1.9-0.3c-0.3-0.3-0.5-0.7-0.5-0.9c0.2-0.4,0.9-0.9,1.4-1.1
	c0.4-0.2,1.2-0.3,1.4-0.2c0.2,0,0.5,0.5,0.5,0.9c0,0.4-0.5,1.4-0.7,1.6H30.5z"/>
<path id="XMLID_16_" class="st0" d="M31.9,18.2c-0.3,0.2-1.4-0.2-1.8-0.5C29.8,17.5,30,17.2,30,17c0.2-0.2,0.7-0.7,0.9-0.7
	c0.3-0.2,1-0.2,1.2-0.2c0.3,0.2,0.7,0.3,0.5,0.7C32.6,17.2,32.3,18,31.9,18.2z"/>
<path id="XMLID_15_" class="st0" d="M32.8,20.3c-0.2,0-1-0.2-1.2-0.4c-0.3-0.2-0.2-0.4-0.2-0.5c0-0.2,0.5-0.5,0.7-0.7
	c0.3-0.2,0.9-0.2,1,0c0.2,0,0.5,0.2,0.5,0.5c0,0.2-0.5,0.9-0.7,1H32.8z"/>
<path id="XMLID_14_" class="st0" d="M33.7,22c-0.2,0-0.9-0.2-1.1-0.2c-0.2-0.2,0-0.3,0-0.5c0-0.2,0.4-0.5,0.5-0.5
	c0.2-0.2,0.7-0.2,0.9,0c0.2,0,0.3,0.2,0.3,0.4c0,0.2-0.3,0.7-0.5,0.9H33.7z"/>
<path id="XMLID_13_" class="st0" d="M35.1,16.8c0.2,0,0.7,0.5,0.5,0.9c-0.2,0.2-1,0.9-1.4,0.7c-0.5,0-1.1-0.2-1.2-0.5
	c-0.2-0.3,0.2-0.7,0.5-1.1C33.9,16.5,34.9,16.6,35.1,16.8"/>
<path id="XMLID_12_" class="st0" d="M28.4,19.2c0,0.3,0,0.9,0.5,1c0.2,0,1.2-0.2,1.4-0.4c0.3-0.4,0.7-0.9,0.5-1.2
	c-0.3-0.3-0.9-0.5-1.2-0.5C29.1,18.4,28.6,19.1,28.4,19.2"/>
<path id="XMLID_11_" class="st0" d="M30.4,27.8c-0.2,0-1-2.3-1.2-2.3c-0.2,0-2.3,2.6-1.6,4.9c0,0,0.9,1.4,1.7,1
	c0.9-0.7-0.5-3.8-0.4-3.8c0.4-0.2,1.4,2.8,1.6,2.6c0.2,0,0.9-2.6,1-2.8c0,0-0.3,2.3-0.2,2.3c0.2,0,1.2-2.4,1.4-2.4
	c0.2,0-0.7,2.4-0.5,2.3c1.6-1.2,2.4-3,2.6-3.1c0.2,0-1.2,2.6-1,2.6c0.5-0.2,2.6-2.1,2.8-2.1l-1.9,1.9c0.5-0.2,4-1.9,4-1.9
	c0,0.2-3.1,1.9-3.8,2.1c0,0.2,2.3-0.2,3.5-0.2c0,0-4.2,0.7-4.5,0.9c-0.2,0,3.5,0.2,3.3,0.4c-0.2,0.2-6.6,0-6.8,1.9
	c-0.2,1.9,6.5,1.4,8.2,1.4c-0.5,0-5.1,1.2-5.2,1.4c0,0,4.7-0.7,6.1,0c0.2,0-4.4,0.5-4.2,0.5c2.3,0.5,3.7,1.4,3.7,1.6
	c0,0.2-3.3-1.1-3.8-0.9c-0.2,0.2,2.8,1.7,4,3.3c0,0-3-1.6-2.8-1.6c1.6,1.9,2.3,4,2.4,4.9c0,0.2,0,0.7,0.2,0.5c0,0,0.5-1.2,0.5-2.8
	c0-0.4,1,0.3,1,0.2c-0.2-0.7-0.9-1.9-1.2-2.8c0.5,0,1.6,1.4,1.6,1.2c0-0.2-1.4-3.1-1.4-3.3c0.2-0.4,2.4,0,2.4-0.4
	c-0.2-0.3-3-1.2-3-1.4c0.2-0.2,1.7-1,2.1-1.6c-0.3-0.5-6.1,1.4-6.8,0.2c-1.2-2.6,6.3-0.5,6.3-0.7c-0.7-0.7-1.7-1.9-2.1-2.3
	c-0.2-0.2,1.4,0.2,1.7-0.2c-0.2-0.2-1-1.1-1.6-1.6c-0.2,0.2,2.3-1.4,2.1-1.7c-0.2-0.4-2.8,0.5-3.1,0.7c-0.4,0.2-0.5-2.6-0.9-2.4
	c-0.3,0.2-0.7,2.6-0.9,2.6c-0.4,0.2-0.4-2.8-0.7-2.8c-0.5-0.2-1,3.1-1.4,3.1c-0.2,0,0-2.1-0.2-2.4c0-0.2-1.4,1.9-1.4,1.9
	c-0.2-0.7-0.2-1.9-0.3-1.9C31.4,24.8,30.5,27.8,30.4,27.8"/>
<path id="XMLID_10_" class="st0" d="M23.4,34.4c-0.2,0.2,1.2-0.2,1,0c-0.5,1-0.9,2.1-0.7,2.8c0.2,0.2,1.2-1.2,1.2-1
	c0.2,0.4-1.4,2.1-0.9,3.7c0.2,0,1-0.7,1.2-1c0,0-0.9,1.7-0.9,2.4c0,0.2,1.6-1,1.6-1c0,1.4,0,3.3,0,3.5c0.3,0.7,1.2-3.3,1.4-3.1
	c0.2,0,1.4,2.3,1.4,2.3c0.4-0.3,0-1.7-0.2-2.4c-0.2-0.5,1.7,0.9,1.9,0.5c0-0.2-1.9-1.9-2.1-2.1c-0.5-0.7-0.5-1.9,1-1.9
	c2.3,0.2-0.2,4.4,0.7,5.4c0.2,0.2,1.8-2.8,1.8-2.8c0.5,0.5-0.5,1.2,0,2.1c0.2,0,1.2-1.6,1-1.6l0.7,1.6l0.5-1.6c0.9,1,0.5,1.9,1,3.1
	c0.4,0.2,0.5-1.7,0.5-1.9c0.3,0.5,2.8,2.3,3,2.1c-0.9-1.6-2.3-4.5-3.1-5.8c-0.2-0.2,0.2,3.3-0.2,3c-0.3-0.5-0.2-3.1-1.2-4
	c-0.2-0.2-0.4,3-0.5,2.6c-0.4-0.2-0.2-3-0.5-3.3c-0.3-0.2-0.3,3-0.5,3.1c-0.2-0.2,0.2-2.1-0.7-3.7c0,0-0.5,4.5-0.9,4.4
	c0.2-2.6,0.3-3.5-0.2-4.9c-0.5-0.9-0.7-0.9-1.6-1c-2.4,0-2.6,4.4-0.4,6.3l-1-0.9c0,0.5,0.3,1.6,0.2,1.6c-0.2,0-0.9-3.3-1-3.5
	c0,0.3-0.3,3.7-0.5,3.7c-0.2,0,0-2.3,0.4-4.2c0,0-1.2,3-1.2,2.8c0.2-1,1.9-5.6,1.9-5.8c0-0.2-2.4,4.4-2.6,4.4
	c-0.2-0.2,2.3-4.9,2.3-5.1c0,0-2.3,2.3-2.3,2.1c0.2-0.5,0.9-1.2,1.2-1.7c0.2,0-1.6,0.5-1.6,0.5c0-0.2,2.8-1.7,2.8-1.7
	C25.5,30.9,23.6,34.1,23.4,34.4"/>
<path id="XMLID_4_" class="st0" d="M22.5,40.9v2.4c-0.2-0.7-0.2-1.4-0.2-2.3C22.3,40.9,22.5,40.9,22.5,40.9 M22.5,62.2
	c-0.2,0-0.3-0.2-0.5-0.4v-7.3c0-0.2-0.3-0.4-0.7-0.4c-0.3-0.2-1.4,1.2-1.4,1.2s-0.3,0.4-0.3,0.5v4.5c-0.2-0.3-0.3-0.5-0.5-0.7
	c-0.9-1-0.5-2.4-0.3-3.7c0.3-0.7,0.7-1.6,1.4-2.1c0.4-0.2,1-0.9,2.4-1.4v-1c-0.2,0-0.2,0-0.3,0c0-0.2,0-0.3,0.3-0.5v-1.9
	c-0.2,0.2-0.3,0.4-0.5,0.4V33.2c0-0.2-0.5-0.5-0.7-0.2c-1.2,1.2-1.7,2.6-1.7,3.8v14.8c-1.1,1.2-2.1,2.4-2.8,3.7
	c-0.2,0.7-0.5,1.4-0.5,2.3c0.2,0.3,0.9,0.2,0.9,0.7c0,0.4,0.2,0.7,0,0.9c-1-0.3-1.7-1.4-2.8-1.2c-0.7,0-1.1,0.2-1.4,0.5
	c-0.7,0.5-0.7,1.2-0.5,1.7c0.4,0.7,0.9,1.4,1.7,0.9c0.5-0.4,1-0.7,1-1.4c-0.2-0.3-0.5-0.3-0.9-0.3c-0.2,0-0.2,0.2-0.2,0.3
	c-0.2,0.2-0.4,0.4-0.5,0.4c-0.4-0.2,0-0.5,0-0.7c0-0.3,0.3-0.5,0.5-0.7c0.9,0,1.2,0.7,1.9,0.9c0.9,0.3,0.7,1.2,1.4,1.7
	c0.7,0.5,1.4,1,2.1,1.6v3.8c0,0,0,0-0.2,0c-0.9,0.5-1.4,0.7-1.6,1.6c-0.2,0.9,0.3,1.6,0.7,2.1c0.2,0.2,0.7,1,0.7,0.9
	c0.2-0.3-0.2-1.4-0.2-1.7c0-0.3,0.2-0.7,0.5-1c0,3.8,0,6.5,0,6.5H22c0,0,0-2.8,0-7.2c0.2-0.2,0.4-0.2,0.5-0.2v-1.9
	c-0.2,0-0.3,0-0.5,0.2v-1.4c0.2,0.2,0.4,0.2,0.5,0.4V62.2z M22.5,51c0.5,0,0.9-0.5,1.2-0.7c0.3-0.3,0.5-0.9,1.1-1.2
	c0.5-1.2,0.5-3,0.2-4c-0.3-1-2.1-4-2.4-4.2v2.4c0,0,0,0.2,0,0.3c0,0.2,0.9,0.7,1,2.6l-0.2,1.6c-0.2,0.5-0.5,0.9-0.9,1.2V51z
	 M22.5,52.6c0.7-0.2,1.6-0.4,2.6-0.4c0-0.2,0.3-0.5,0.2-0.5c-1.1-0.5-1.8-0.5-2.8-0.2V52.6z M25.3,65.7c-0.2-1.2-0.9-2.1-1.8-3
	c-0.4-0.2-0.7-0.4-1-0.5v2.6c0.2,0.2,0.4,0.4,0.5,0.4c0,0.2-0.2,0.3-0.2,0.3c-0.2,0-0.4,0-0.4,0.2v1.9c0.4-0.2,0.9-0.2,0.9-0.2
	c0.2,0-0.5,0.7-0.5,0.9c-0.4,1.9-0.4,4.2,0,6.1c0.2,0.2,0.3,0.3,0.7,0.3c0.4,0.4,0.9-0.3,1,0.4c0.2,0.2,0.5,0.2,0.5,0
	c0.2-0.9-0.2-1.7-0.3-2.8c0,0-0.2-2.6,0-3.8C25.1,67.4,25.3,66.7,25.3,65.7z"/>
<path id="XMLID_3_" class="st0" d="M26,29.7C25.5,29.4,25,29,24.1,29c0.7-1.4,0.7-4-0.3-5.2l-1.2-2.1c-0.5,0.2,0,1.9,0,2.4
	c0,0.3,0.2,0.5,0.2,0.7c0.4,1.6,0.7,2.3,0.2,3.7c-0.4,0.4-0.7,0.7-0.9,0.9V15.8c0-0.3-0.7,0-0.7,0l-1.4,2.4c0,0-0.3,0.7-0.3,1v12
	c-0.7,0.9-1.6,2.3-1.7,4.5c-0.4-0.2-0.5-0.3-1-0.3c-0.4-0.2-0.7-0.2-1.2-0.2c-2.4,0.4-2.6,1-3.3,1.9c-0.4,0.3,0.2,0.7,0.2,1
	c0,0.2,0.9-0.3,1-0.3c0.3-0.9,1-1,1.9-1.2c0.7-0.2,1.4,0.2,2.1,0.3c0.7,0.2,0.4,0.9,0.7,1.2c0.2,0.3,0.5,2.4,0.9,2.6
	c0.5,0.3,0-1.9,0.2-2.3c-0.2-0.5-0.2-1-0.2-1.7c-0.2-2.3,1-4.5,3-5.9c2.1-1,3.7,0.2,4.2,0l0.7-0.2C26.9,30.8,26.2,29.9,26,29.7"/>
<path id="XMLID_2_" class="st0" d="M23.9,8.4c0-1.2-0.2-2.4-0.7-3.3c-0.3-0.2-0.5-1.6-0.9-1.2c0,0.5-0.2,1.7,0.2,2.6
	c0.4,1.4,0,3-0.5,4.4V3c0-0.5-0.5-1.4-0.5-1.4s-1.2,0-1.4,0c-0.2,0-0.5,0.7-0.5,1.2v11.5c0,0,0,0,0.2,0.2c-0.9,1.2-1.6,2.3-1.6,3.1
	c-0.7-0.2-1.2-0.4-1.9-0.4c-0.5,0.2-1.2,0.4-1.7,0.7c-0.5-0.2-0.9,0-1,0.5c0,0.2,0.5,0.5,0.7,0.5c1,0.5,3.3-2.1,4,1.2
	c0.4,0.3,0.5,0.3,0.9,0.2c-0.7-3.1,3-6.6,3.8-8.9c0.2-0.2,0.2-0.3,0.3-0.5c0.9-1.2,1.4-1.2,1.4-1.4c2.3-1.7,3-0.2,3.5,0.9
	c0.2,0.2,0.2-0.2,0.3-0.2C28.6,9.8,27.7,6.2,23.9,8.4"/>
</svg>
