<?xml version="1.0" encoding="utf-8"?>
<!-- Generator: Adobe Illustrator 19.0.0, SVG Export Plug-In . SVG Version: 6.00 Build 0)  -->
<svg version="1.1" id="Warstwa_1" xmlns="http://www.w3.org/2000/svg" xmlns:xlink="http://www.w3.org/1999/xlink" x="0px" y="0px"
	 viewBox="0 0 97.5 126.5" style="enable-background:new 0 0 97.5 126.5;" xml:space="preserve">
<style type="text/css">
	.st0{fill-rule:evenodd;clip-rule:evenodd;fill:#010202;}
</style>
<g id="XMLID_449_">
	<path id="XMLID_515_" class="st0" d="M38.6,31.9c0,0.4,0.1,0.9,0.1,1.3c-0.7-0.4-1.3-0.8-1.9-1.2c-1-0.6-2.1-0.7-3.2-0.4
		c-0.7,0.2-1.4,0.3-2.3,0.5c0.3,0.2,0.5,0.4,0.7,0.4c0.8,0.3,1.5,0.5,2.4,0.4c1-0.1,1.9,0.1,2.9,0.2c0.3,0,0.6,0.2,0.9,0.4
		c0,0.1,0,0.1-0.1,0.2c-0.4,0-0.9-0.1-1.3-0.1c-3.7-0.4-6.8,0.8-9.2,3.7c-0.1,0.1-0.1,0.2-0.2,0.4c1.4-0.7,2.7-0.5,4.1-0.3
		c1.5,0.2,2.9,0.1,4.4-0.2c1-0.2,1.9-0.7,2.5-1.7c0,0.6,0,0.7-0.3,1c-0.5,0.6-1.2,1-2,1.3c-0.3,0.1-0.6,0.2-0.6,0.5
		c0.1,1.6-0.1,3.3,0.6,5c1.1-1,2.3-1.9,3.2-2.9c1-1,1.7-2.3,2.5-3.4c0.4,0.3,0.8,0.5,1.1,0.8c0.8,0.5,1.3,1.2,1.6,2.1
		c0.1,0.3,0.2,0.7,0.3,1.2c0.2-0.7,0.7-1.1,0.5-1.7c-0.3-0.9-0.5-1.8-1.4-2.3c-0.7-0.5-1.5-0.8-2.4-0.8c-0.4,0-0.8,0-1.1-0.2
		c-0.9-0.3-1.1-0.7-1-1.7c0.1,0,0.2,0.1,0.2,0.1c0.2,0.7,0.8,0.8,1.4,0.8c0.7,0,1.4,0,2.1,0c-0.4-0.5-1-0.7-1.6-0.9
		c-0.6-0.3-1.3-0.5-2-0.8c1-0.6,2.4-0.2,4,0.8c1.3,0.8,1.9,2,2.3,3.6c1.2-2.8,2.5-5.4,5.1-7c-0.4,0.5-0.7,1-1.1,1.4
		c-1.6,1.7-2.7,3.8-3.5,5.9c-0.2,0.5-0.2,1-0.2,1.5l0,0c-0.7,0.1-0.9,0.6-1,1.2c-0.1,1-0.3,1.9-0.5,2.9c-0.2,0.1-0.4,0.3-0.7,0.6
		c-0.3-0.5-0.3-1-0.4-1.5c-0.1-0.8-0.1-1.6-0.2-2.3c-0.1-1-0.6-2-1.2-2.8c-0.5,1-1,2-1.5,2.9c1.7,1.3,2.2,3.1,1.9,5.3
		c1.5-0.2,2.8-1,4.3-0.8c-0.1,0.5-0.5,0.6-0.8,0.7c-0.2,0.1-0.5,0.1-0.4,0.5c-0.3,0-0.7-0.1-0.9,0c-1.5,0.4-2.9,0.9-4.3,1.4
		c-0.3,0.1-0.6,0.3-1,0.5c0.7,0.5,1.4,0.6,2.1,0.6c1,0,1.9-0.2,2.7-0.8c0.6-0.4,1.3-0.8,1.2-1.6c0,0,0.1,0,0.2,0
		c1,0.6,2.1,1.1,3.1,1.7c0.2,0.1,0.4,0.3,0.5,0.4c1.1,1.3,1.9,2.8,2.2,4.5c0.1,0.3,0,0.7-0.1,1c-0.1,0-0.2,0-0.3,0
		c-0.3-0.9-0.7-1.7-1-2.6c-0.6,1.1-1.2,2.1-1.7,3.1c0.4,1.7,1.7,3,2.8,4.5c0.5-1,1-2,1.5-3c0.8-1.5,1.2-3.1,0.9-4.8
		c-0.9,2.8-1.1,3.2-2.2,3.7c-0.2-0.4,0.1-0.7,0.3-0.9c0.3-0.7,0.7-1.5,0.9-2.2c0.4-1.4,0.3-1.8-0.1-3.2c0.5,0.1,1,0.2,1.4,0.3
		c-0.7-0.8-1.4-1.7-2.2-2.4c-0.5-0.5-1.1-0.8-1.7-1.1c-0.4-0.2-0.8-0.1-1.4-0.1c0-0.8,0.3-1.7-0.2-2.6c-0.5,0.9-0.7,2-2,2.2
		c0.4-0.5,0.7-0.9,1-1.4c0.2-0.5,0.4-1,0.4-1.5c0-0.5-0.2-1.1-0.2-1.6c1.1,0.4,2.2,2.6,2.1,4.4c0.2,0,0.3,0.1,0.5,0.2
		c0.9,0.2,1.6,0.6,2.2,1.3c1,1.2,2.2,2.2,3.8,2.7c0.3,0.1,0.6,0.4,1,0.7c-1.3,0.6-2.4,0.8-3.6,0.2c0,0.2-0.1,0.3,0,0.3
		c0.4,0.7,0.8,1.3,1.2,2c0.3,0.5,0.7,1,0.8,1.5c0.4,1.3,0.7,2.7,1.1,4c0.3,1.1,0.1,1.3-1,1.1c-0.3,1-0.6,2-0.9,2.9
		c-0.3,1-1,1.9-0.6,3c-0.2,0-0.4,0.1-0.5,0.1c-0.2,0.8-0.3,1.5-0.5,2.2c-0.1,0.4-0.4,0.8-0.7,1c-0.6,0.4-0.7,0.9-0.9,1.5
		c-0.3,0.9-0.7,1.8-1.6,2.3c-0.1,0.1-0.2,0.1-0.4,0.2c-0.3-0.2-0.6-0.5-0.9-0.7c-1,1.5-2.3,2.7-3.8,3.6c-0.6,0.4-0.7,0.3-1.1-0.2
		c-0.2-0.3-0.4-0.6-0.6-0.9c-0.7,0.3-1.3,0.7-1.9,0.9c-1,0.4-1.2,0.2-1.4-0.7c-0.1-0.3-0.2-0.5-0.2-0.8c-0.1-1-0.5-1.8-1-2.7
		c-0.4,0.6-0.8,1.2-1.6,1.3c-0.7-1.2-0.8-2.6-0.6-4c-0.2-0.2-0.4-0.3-0.5-0.5c0.2-0.2,0.4-0.3,0.6-0.5c0.6-0.9,1.4-1.5,2.3-2.1
		c0.6-0.4,1.2-0.8,1.8-1.2c-0.4-1.2-0.8-2.3-1.2-3.4c-0.3,0.2-0.6,0.4-1,0.6c-0.5,0.3-1,0.6-1.5,0.7c-0.6,0.1-1.1,0.4-1.4,0.9
		c0.2,1.1,0.4,2.3,0.5,3.4c0.1,0.5,0,1.1-0.1,1.6c-0.7-0.4-0.8-1.1-0.9-1.8c-0.2-0.9-0.3-1.8-0.4-2.7c-0.6,0-0.8,0.4-0.9,0.9
		c-0.3,1-0.5,1.9-0.7,2.9c-0.2,0.8-0.2,1.6-0.4,2.5c0.5-0.2,0.9-0.4,1.3-0.6c0.1,0,0.1,0.1,0.2,0.1c-1,2.2-1.3,4.5-1.1,7
		c0.3-0.1,0.5-0.2,0.8-0.2c0.2,0.3-0.4,1.1-1.5,1.7c0-1.2-0.1-2.4,0-3.5c0.1-1.2,0.3-2.3,0.5-3.5c-0.2,0.1-0.5,0.2-0.7,0.3
		c-0.1-0.1-0.1-0.1-0.1-0.2c0-0.2,0.1-0.5,0.1-0.7c-0.2-1.3,0-2.5,0.4-3.6c0.3-0.9,0.6-1.7,0.9-2.6c0.1-0.3,0.2-0.7,0.2-1
		c-0.2-1.3,0.1-2.5,0.5-3.6c0.2-0.7,0.5-1.4,0.8-2.1c0.1-0.3,0.2-0.6,0.1-0.9c-0.1-0.3,0-0.8,0.1-1.1c0.4-1.9,1.1-3.6,2.6-4.9
		c0.3-0.3,0.7-0.6,1.2-0.5c-0.1,0.1-0.1,0.3-0.2,0.4c-1,1.3-1.9,2.6-2.4,4.2c-0.1,0.3-0.1,0.6-0.2,1.1c2-0.9,4.2-1.2,5.9-2.4
		c0.2-0.9,0.3-1.7,0.4-2.5c-0.9-0.2-1.8-0.5-2.7-0.7c-0.3-0.1-0.5-0.1-0.8-0.2c-0.3-0.3-0.7-0.6-1.1-0.9c-0.4,0.1-0.8,0.2-1.2,0.4
		c-0.4,1.9-1.7,3.1-3.3,4.1c0.4,0.8,0.9,1.5,1.3,2.3c0.3,0.5,0.3,1,0,1.6c-0.4,0.7-0.7,1.4-1.3,1.9c-0.2,0.2-0.3,0.5-0.4,0.7
		c-0.8-0.1-1.2-0.7-1.5-1.3c-0.3-0.6-0.5-1.2-0.7-1.8c-0.7,0.5-0.8,0.4-1.3-0.1c-0.1-0.1-0.3-0.3-0.4-0.4c-0.9-0.3-1.3-1.1-1.5-1.9
		c-0.3-0.7-0.4-1.5-0.7-2.3c-0.5,0.3-0.6,1-1.4,1c-0.1-1.3-0.4-2.5-0.3-3.8c0-0.6,0-1.1-0.3-1.7c-0.1-0.2-0.2-0.5-0.3-0.9
		c-0.9,1.2-1.8,2.5-3,3.4c0.3-1.5,1.4-3.2,2.6-3.8c0.4-0.2,0.5-0.4,0.7-0.8c0.3-0.8,0.7-1.6,1.1-2.4c0.2-0.5,0.7-1,0.6-1.7
		c0-0.3,0.3-0.8,0.6-1.1c0.6-0.7,1.3-1.3,2.1-2c-0.6,0.2-1.2,0.4-1.8,0.6c-0.5-0.3-0.3-0.7-0.1-1.1c1-1.6,2.3-2.8,4.1-3.5
		c0.4-0.2,0.8-0.3,1.2-0.5c-1.7-1.1-2.4-1.9-2.5-2.8c0.6,0.2,1.2,0.4,1.8,0.5c0.6,0,1.2-0.1,1.9-0.2c-0.2-0.6-0.3-1.1-0.5-1.6
		c-0.3-0.8-0.7-1.6-1.1-2.4c-0.6-1.5-1.9-2.5-3.3-3.3c-0.2,1-0.5,2-1.3,2.7c-2.1-0.4-4.2-0.8-6.4-1.2c0.2,0.4,0.4,0.7,0.7,1.3
		c-2-0.6-3.6-0.1-5.2,0.8c0.3,0.2,0.6,0.4,1,0.6c-0.5,0.4-1,0.3-1.4,0.1c-0.4-0.2-0.8-0.5-1.3-0.9c1.8-0.5,3.3-1.8,5.5-1.3
		c-0.3-0.4-0.5-0.7-0.7-1.1c0.4-0.1,0.7-0.3,1.1-0.3c0.5,0,1.1,0,1.6,0.1c1.6,0.3,3.2,0.7,4.9,1.1c0.2-0.6,0.4-1.2,0.6-1.9
		c0.1-0.3,0-0.7-0.1-1c-0.1-0.4-0.2-0.7-0.3-1.1c-0.5-1.5,0-2.4,1.4-2.9c0.2-0.1,0.5-0.2,0.7-0.2c0.6-0.1,1-0.4,1.3-1
		c0.2-0.3,0.4-0.7,0.7-0.9c1.1-1.2,1.6-1.3,2.9-0.4c0,0,0,0,0,0c0,0.1,0,0.2,0,0.4c-0.2,0-0.3,0-0.3,0c-1.2-0.4-1.6-0.2-2.3,0.8
		c-0.1,0.2-0.2,0.3-0.3,0.5c-0.4,0.7-0.9,1.3-1.8,1.4c-0.3,0-0.6,0.2-0.8,0.3c-0.8,0.3-1,0.6-0.9,1.7c0.1-0.1,0.3-0.1,0.3-0.1
		c0.7-0.8,1.6-0.9,2.7-0.9c1.5,0.1,2-0.3,2.5-1.8c0.1-0.4,0.3-0.8,0.5-1.3c0.2,0.3,0.3,0.5,0.3,0.6c0,0.8,0,1.6-0.1,2.3
		c-0.4,1.8-0.5,3.6-0.2,5.4c0.3,1.6,0.6,3.3,0.9,4.9c0,0.2,0.1,0.3,0.2,0.5c0.3,0,0.7,0.1,1.1,0.2c-1.6-4.1-2.2-8.1-0.7-12.3
		c0.9,0.2,1.5-0.2,2-0.8c1.5-1.8,3.5-1.9,5.5-1.9c1.4,0,2.8,0.4,4.1,0.9c1.3,0.6,2.3,1.5,3.4,2.5c1.4,1.3,2.4,3,3.1,4.8
		c0,0.1,0.1,0.2-0.1,0.5c-0.5-0.7-1.1-1.5-1.6-2.2c-1-1.6-2.3-2.9-3.8-4c-2.1-1.4-4.4-1.9-6.9-1.6c-0.7,0.1-1.3,0.3-1.9,0.4
		c0.4,0.6,0.7,1.1,1,1.6c0.1-0.2,0.2-0.5,0.4-1c0.3,0.5,0.4,0.9,0.6,1.3c0.6-0.5,0.4-1.5,1.3-1.8c-0.3,1-0.5,1.9-0.8,2.8
		c0,0.1-0.1,0.1-0.3,0.2c-0.2-0.2-0.3-0.4-0.6-0.7c-0.2,0.4-0.4,0.7-0.6,1.1c-0.7,1.9-1.3,3.8-1.2,5.8c0,0.9,0.3,1.8,0.4,2.7
		c0.1,0.3,0.1,0.6,0.1,0.9l0,0c-0.5-0.2-0.7-0.6-0.8-1.1c-0.6-2-0.5-4,0-6.1c0.3-1.2,0.8-2.4,1.2-3.7c-0.6-0.4-0.7-1.4-1.6-1.6
		c-0.4,0.3-0.7,0.7-1.1,1c0.9,0.4,1.5,0.9,1.6,1.9c-1-0.7-1.9-1.7-3.3-1.5c-0.4,1.2-0.7,2.5-0.7,3.8c0,2.3,0.3,4.6,1,6.8
		c0.3,0.8,0.5,1.6,1.4,1.9C37.8,31.7,38.1,32.1,38.6,31.9L38.6,31.9z M30.4,48.7c0.2,0,0.4-0.1,0.7-0.1c0.5,1.3,0.9,2.5,1.4,3.8
		c1.2-0.6,2.9-2.4,3.2-3.5c-0.2,0-0.5,0-0.7,0c-1-0.1-1.1-0.1-1.3-1.1c-0.1-0.6-0.2-1.2-0.3-1.8c-1.2,0.5-2,1.3-2.9,2.2
		C30.4,48.3,30.4,48.6,30.4,48.7c-0.9-0.3-1.3-1-1.6-1.9c-0.2-0.6-0.3-1.3-0.5-2c-0.9,0.4-1.4,1-1.1,2c0.1,0.2,0,0.5,0,0.7
		c0.1,1.8,0.3,3.5,0.9,5.4C28.8,51.4,29.2,49.8,30.4,48.7z M40.1,71.8c1.7-0.7,3.1-1.8,4.4-2.9c-0.9-3.3-1-3.4-0.4-4.1
		c0.6,1.4,1.1,2.8,1.8,4.4c1.2-1.3,2.2-2.4,3.3-3.6c-0.7-1.1-1-2.3-0.9-3.8c-0.3,0.3-0.5,0.5-0.7,0.6c-0.2,0.2-0.3,0.5-0.5,0.5
		c-0.2,0.1-0.5-0.1-0.7-0.2c-0.9,0.7-1.8,1.3-2.6,2c-0.3,0.2-0.7,0.5-1,0.7c-0.5,0.4-0.9,0.4-1.2-0.1c-0.2-0.2-0.4-0.5-0.5-0.7
		c-0.9,0.6-1.8,1.2-2.6,1.7C39,68.1,39.5,69.9,40.1,71.8z M43.8,57.5c0.7-0.6,1.3-1.2,1.9-1.6c1.8-1.4,3.4-2.9,4.1-5.2
		c-0.6-1.6-2.2-2-3.6-2.8c-1,1.2-1,1.2-3.3,2.2C42.9,52.5,42.8,55,43.8,57.5z M34.2,45.6c0.1,0.9,0.2,1.8,0.2,2.7
		c2-0.4,3.6-1.1,4.8-2.7c-0.4-1.8-0.4-1.8-0.2-2.6c0.6,1.3,1.2,2.6,1.8,3.8c0.5-0.2,1-0.3,1.5-0.5c-0.2-0.9-0.4-1.7-0.5-2.5
		c-0.2-1-0.7-1.9-1.5-2.5c-0.7,0.5-1.4,0.9-2.1,1.4c-0.5,0.3-1,0.6-1.5,1c-0.4,0.2-0.6,0.5-0.6,1c0,0-0.1,0.1-0.2,0.2
		c-0.2-0.1-0.4-0.2-0.7-0.3C35,44.9,34.6,45.2,34.2,45.6z M34.5,39.8c-1.2,0.9-2.7,1.2-4.2,1.3c-0.5,0-0.6,0.4-0.7,0.7
		c-0.5,1.9-0.3,3.8,0.5,5.9c1.1-2,3.2-2.7,4.6-4C34.7,42.3,34.6,41.1,34.5,39.8z M42.6,57.5c-0.6,0.5-1.2,1.1-1.8,1.6
		c-0.5,0.5-0.6,0.6-0.4,1.3c0.2,0.6,0.5,1.3,0.8,1.9c0.3,0.7,0.7,1.4,1.1,2.1c1.4-0.9,2.7-1.7,3.9-2.5c-0.6-1.4-1.2-2.8-1.1-4.4
		c-0.5,0.3-0.9,0.6-1.3,0.9C43.4,58.1,43,57.8,42.6,57.5z M36.7,55.6c-0.3,1.9-0.1,4.4,0.4,5.1c1.8-1.2,3.6-2.5,5.2-3.9
		c-0.1-1.1-0.3-2-0.4-2.9C40.1,54.4,38.4,55,36.7,55.6z M33.4,19.8c-0.9,1-1.9,1-2.9,0.9c-0.7-0.1-1.3,0.3-1.8,0.8
		c-0.6,0.6-0.6,0.9,0.2,1.3c1.9,1,3.3,2.3,3.9,4.4c0.4,1.2,0.8,2.4,1.2,3.6c0.1,0,0.2,0,0.3,0c0.1,0,0.1-0.1,0.2-0.1
		C33.4,27.1,32.8,23.7,33.4,19.8z M51.5,68.2c0.8-1.1,1.3-2.1,1.5-3.3c0.1-0.3,0-0.6-0.2-0.9c-1.2-1.4-2.4-2.7-2.7-4.8
		c-0.5,0.7-0.9,1.2-1.2,1.8c0.3,1.2,0.5,2.5,0.9,3.6C50.2,65.8,50.9,66.9,51.5,68.2z M48.3,71.1c-0.3-0.8-0.6-1.6-1-2.5
		c-0.6,0.4-1.1,0.9-1.7,1.3c-0.3-0.1-0.5-0.2-0.7-0.3c-0.7,0.6-1.4,1.1-2.1,1.7c0.5,1,1,2.1,1.7,3.2C45.9,73.3,47.1,72.2,48.3,71.1z
		 M50.6,59.3c0.6,1.9,1.9,3.1,3,4.5c0.3-1.2,0.6-2.3,0.9-3.3c0.1-0.5,0.3-1.1,0.5-1.6c0.1-0.2,0.1-0.5,0-0.6c-0.4-0.5-0.9-1-1.3-1.5
		c-0.6,1-1.2,1.9-1.7,2.8C51.5,59.5,51.1,59.4,50.6,59.3z M47.3,61.3c0.8-0.9,1.6-1.7,2.4-2.6c-0.4-0.5-0.8-1-1.1-1.5
		c-0.3-0.5-0.5-1.2-0.8-1.8c-0.7,0.5-1.3,1-2,1.5C46,58.3,46.6,60.3,47.3,61.3z M29.9,37.9c-0.9,0.8-1.7,1.4-2.5,2.2
		c1.3-0.1,2.5-0.1,3.7-0.3c1-0.1,2-0.4,3-0.7c0.4-0.1,0.8-0.4,0.7-1.1C33,38.4,31.4,38,29.9,37.9z M31.7,53.2
		c-0.4-1.3-0.8-2.6-1.2-3.8c-0.5,1.3-1.1,2.5-1.6,3.7c-0.1,0.2-0.1,0.5,0,0.7c0.3,0.6,0.6,1.3,1,2C30.5,54.7,31.1,53.9,31.7,53.2z
		 M34,56.1c-0.5-0.9-0.9-1.8-1.4-2.8c-0.5,0.7-1,1.3-1.5,1.9c-0.1,0.2-0.2,0.5-0.1,0.6c0.5,0.9,1,1.7,1.6,2.6
		C33.1,57.6,33.6,56.9,34,56.1z M51.4,68.6c-0.7-0.8-1.3-1.5-1.9-2.2c-0.5,0.6-0.9,1.1-1.4,1.7c0.6,1.1,1.1,2.1,1.7,3.2
		C50.4,70.3,50.9,69.4,51.4,68.6z M25.6,45.5c1-0.6,1.8-1.1,2.7-1.7c0.3-0.8,0.7-1.8,1.1-2.8c-0.5,0.1-1.1,0.2-1.6,0.3
		c-0.2,0-0.3,0.2-0.4,0.3C26.7,42.9,26.1,44.2,25.6,45.5z M36.4,60.8c-0.6-1.1-0.8-2.3-0.8-3.6c-0.6,1.6-1.2,3.1-1.2,4.9
		C35,61.7,35.6,61.3,36.4,60.8z M54.7,53.3c-0.3,1.1-0.6,2.1-0.9,3.2c0.7,0.4,1.3,0.9,2,1.3C55.6,56.2,55.4,54.7,54.7,53.3z
		 M40.3,72.7c0.1,0.5,0.2,1.1,0.4,1.8c0.8-0.4,1.5-0.7,2.3-1c-0.2-0.6-0.4-1.2-0.5-1.7C41.7,72,41.1,72.3,40.3,72.7z M37.8,66.7
		c-0.3,0.3-0.7,0.6-0.7,0.8c0.1,1.1-0.1,2.2,0.3,3.4c0.4-0.3,0.7-0.6,1.1-0.9C38.3,69,38.1,68,37.8,66.7z M25.6,51.3
		c0.6-0.3,0.7-0.6,0.7-1c0-1.3,0-2.6,0-3.9c-0.4,0.2-0.7,0.5-0.7,1C25.7,48.6,25.6,49.9,25.6,51.3z M38.2,48.2c0.9,0,1.3-0.7,2-1.2
		c-0.2-0.2-0.3-0.3-0.3-0.3C39.3,47.3,38.8,47.7,38.2,48.2z"/>
	<path id="XMLID_512_" class="st0" d="M39.3,13.2c1.2-0.5,2.4-0.9,3.5-1.5c2.7-1.4,5.1-3.1,7.5-4.9C51.5,5.9,52.8,5,54,4.1
		c1.1,0.8,1.2,1,0.7,2.1c-0.2,0.5-0.4,1-0.7,1.4c-0.2,0.2-0.6,0.6-0.8,0.5c-0.6-0.1-0.7,0.3-1.1,0.5c-0.9,0.7-1.9,1.4-2.8,2.1
		c0,0.6,0,1.3,0,2.3c1-0.8,1.8-1.5,2.6-2.1c0.8-0.6,1.6-1.2,2.5-1.9c0.2,0.6,0.4,1.2,0.6,1.8c2.4-0.7,4.8-1.7,7.6-1.6
		c-0.4,0.5-0.7,0.8-1.1,1.3c2.5-0.3,4.9-0.1,7.3,0.1c-0.3,0.7-0.9,1.1-2.4,1.7c0.2-0.4,0.3-0.7,0.5-1c-2.2-0.2-4.4-0.1-6.8,0.1
		c0.3-0.5,0.4-0.9,0.7-1.4c-2.4,0.6-4.6,0.9-6.7,2.5c0-0.8,0-1.4,0-2c-1.6,0.7-4.1,2.6-5.1,4.1c-0.2-0.7-0.4-1.4-0.6-2.2
		c-1,0.8-1.8,1.8-3.2,2.3c0.3-0.9,1.1-1.2,1.6-1.7c0.5-0.5,1-1.1,1.6-1.6c0-0.1-0.1-0.1-0.1-0.2c-2.1,1.1-4.2,2.1-6.5,3.3
		c2.8,0.5,5.4,1,7.7,2.6c2.2,1.5,3.8,3.6,5.2,5.9c0.7-0.4,1.3-0.8,1.8-1.4c1-1.4,2.3-2.1,4-2.3c1.6-0.2,3.3-0.5,4.9-0.8
		c1.1-2,2.8-3.5,4.9-4.6c-1.1-0.3-2.1-0.6-3.2-1c0-0.1,0-0.1,0-0.2c0.2-0.1,0.3-0.2,0.5-0.2c0.7,0.1,1.5,0.1,2.2,0.3
		c1.5,0.5,3,1.1,4.5,1.6c-0.1,1.2-1.3,0.7-1.9,1.3c2.5,0.4,4.7,1.3,6.7,2.8c-0.8,0.2-1.7,0.3-2.7,0.6c1.3,0.8,2.4,1.5,3.5,2.2
		c1.1,0.7,2.2,1.5,3.3,2.3c0,0.1,0,0.1,0,0.2c-0.5,0.1-0.9,0.2-1.5,0.3c0.6,0.7,1.3,1.1,2.1,1.3c0.7,0.2,1.5,0.3,2.3,0.5
		c-0.3,1.2-1.4,0.9-2.2,1.3c0.5,0.6,1,1.1,1.7,1.5c0.9,0.5,1.8,1.1,2.4,2.3c-0.4,0.2-0.8,0.5-1.3,0.7c0.6,0.5,1.2,1,1.9,1.5
		c0.2,0.1,0.4,0.3,0.5,0.5c0.5,0.5,0.4,0.8-0.3,1c-0.1,0-0.3,0.1-0.6,0.1c0.6,0.7,1.2,1.4,1.8,2c0.5,0.5,1.1,1,1.7,1.5
		c0.3,0.3,0.5,0.6,0.6,0.9c-0.2,0.9-0.9,0.3-1.5,0.7c1.2,0.2,2.2,0.3,3.3,0.5c-0.6,1.4-1.5,2.3-3.1,2.6c0.2,0.2,0.5,0.2,0.5,0.4
		c0.1,0.2,0,0.5-0.1,0.6c-0.6,1.1-1.5,1.6-2.7,1.9c-0.3,0.1-0.6,0.1-0.9,0.1c0.3,0.6,0.8,0.9,1.5,1.2c-1.3,1.1-2.7,1.5-4.4,1.5
		c0.2,0.2,0.3,0.3,0.4,0.5c0.1,0.1,0.2,0.3,0.4,0.5c-1.8,1-3.5,0.3-5.3,0.1c0.3,0.3,0.5,0.5,0.8,0.8c-0.7,1.4-3.2,1.6-4.7,0.4
		c0.6-0.3,1.3-0.1,1.9-0.2c0.6-0.1,1.2-0.2,1.8-0.3c-0.1-0.8-0.4-1.2-1.1-1.4c-1.9-0.6-3.3-1.9-4.5-3.3c-1.1-1.2-1.9-2.5-2.8-3.8
		c-1.3-1.9-2.5-4-4.2-5.6c-1.1-1-2.2-2-3.3-3.1c0.2,0.1,0.5,0.2,0.7,0.4c3.2,2,5.5,4.8,7.5,8c1.6,2.6,3.7,4.8,6.1,6.6
		c0.1,0,0.1,0.1,0.2,0.1c1.1,0.8,2.3,1.5,3.8,1.2c0.3-0.1,0.7,0,1.1,0c0.3,0,0.6-0.1,1.1-0.1c-0.4-0.4-0.6-0.7-0.9-1
		c1.5-0.4,3-0.2,4.4-1.2c-0.4-0.4-0.7-0.8-1.1-1.2c1.5-0.5,2.7-1.3,3.9-2.3c-0.2-0.2-0.5-0.4-0.7-0.6c0-0.6,0.6-0.7,0.9-0.9
		c0.6-0.3,1.2-0.6,1.7-1.3c-1.2-0.3-2.6-0.2-3.3-1.7c0.3-0.2,0.7-0.3,1.1-0.5c-0.7-0.6-1.5-1.2-2.1-1.9c-0.6-0.7-1.1-1.5-1.7-2.4
		c0.3-0.2,0.5-0.3,0.8-0.4c-0.8-0.9-1.8-1.6-2.3-2.8c0.5-0.1,0.9-0.2,1.6-0.4c-1.7-1.2-3.3-2.3-4.5-3.9c0.1-0.5,0.8-0.3,1.1-0.6
		c-1.3-0.9-2.6-1.7-4-2.6c0.3-0.5,0.8-0.3,1.4-0.5c-1-0.7-1.8-1.5-2.7-2c-0.4-0.2-0.8-0.5-1.2-0.8c-0.6-0.4-1-0.9-1-1.6
		c0.2-0.1,0.5-0.2,0.7-0.2c0.2-0.1,0.4-0.1,0.7-0.4c-1.2-0.4-2.4-0.8-3.6-1.2c-0.7-0.2-1.4-0.5-2.1-0.8c-0.2-0.1-0.4-0.4-0.5-0.6
		c0.2-0.2,0.4-0.3,0.6-0.5c0.2-0.1,0.3-0.1,0.6-0.3c-0.7-0.3-1.3-0.5-1.8-0.7c-2.5,1.8-3.8,3.1-4.7,4.4c1.5,0.2,2.9-0.6,4.6-0.7
		c-0.3,0.3-0.5,0.4-0.7,0.5c-1,0.5-2.1,0.9-3.2,0.8c-2.4-0.1-4.8,0.5-7.2,0.8c-1.1,0.1-1.9,0.8-2.6,1.6c-0.5,0.6-1,1.1-1.7,1.4
		c-0.4,0.2-0.6,0.5-0.4,0.9c0.1,0.4,0.1,0.8,0.2,1.1c-0.4-1.3-1.2-2.4-2-3.4c-1.3-1.7-2.6-3.4-4.6-4.5c-1.6-0.9-3.3-1.4-5.1-1.9
		c-0.7-0.2-1.5-0.3-2.4-0.5c0.2-0.2,0.3-0.5,0.5-0.6c1-0.6,1.9-1.2,2.9-1.7c2-1.1,4-2.1,5.9-3.2c0.2-0.1,0.4-0.3,0.6-0.4
		c1-0.7,2-1.4,1.5-2.9c-0.2,0.1-0.4,0.2-0.6,0.3c-2,1.4-3.9,2.9-5.9,4.3c-2.6,1.8-5.5,3.1-8.5,4.1c-0.9,0.3-1.7,0.5-2.6,0.7l0,0
		c0.2-0.2,0.4-0.4,0.6-0.5c0.9-0.4,1.7-0.7,2.6-1C38.7,13.6,39,13.4,39.3,13.2L39.3,13.2z M53.3,7.2c0.8-0.6,1.1-1.5,0.6-2.4
		C53.4,5.5,53.1,6.2,53.3,7.2z"/>
	<path id="XMLID_421_" class="st0" d="M28.6,67.9c0.4,0.3,0.7,0.4,1,0.6c0.9-1.2,0.6-2.6,0.2-4.1c0.6,0.2,1,0.4,1.5,0.5
		c0.3-1,0.2-1.9,0.1-2.8c-0.1-0.6,0-1.2,0.3-1.8c0.1-0.1,0.2-0.2,0.4-0.4c0.1,1.5,0.3,2.9,0.3,4.2c0,1-0.6,1.8-1.2,2.6
		c-0.2,0.2-0.3,0.4-0.3,0.6c0,0.8-0.4,1.4-1,1.9c-0.4,0.3-0.6,0.7-0.6,1.2c0.1,1.7-0.9,2.9-2,4.2c-0.2-0.2-0.3-0.4-0.5-0.7
		c-0.5,1.6-1.2,3.1-0.8,5.1c-0.6-0.3-0.9-0.6-1.2-0.8c-0.2,0.9-0.5,1.7-0.7,2.6c-0.1,0.4-0.2,0.7-0.9,0.5c0.2,1.2,0.4,2.3,0.7,3.4
		c0.3,1,0.8,1.9,1.3,3c-0.2,0-0.4,0-0.6-0.1c-1.3-0.6-2.3-1.5-3.2-2.7c-0.3-0.4-0.7-0.7-1.2-0.9c-0.6-0.3-1.1-0.7-1.6-1.1
		c-0.7-0.6-1.2-1.3-1.9-2c-0.5-0.5-0.7-0.5-1.2-0.1c-0.4,0.4-0.6,0.2-1-0.1c-0.7-0.6-1-1.5-1.3-2.4c-1.4-0.2-1.6-0.4-1.7-1.8
		c-0.1-1-0.4-2-1-2.9c-0.4,0.4-0.9,0.7-1.3,1.1c-1-1.4-1.4-3-1.6-4.7c-0.8-0.1-0.7,1.2-1.7,0.8c-0.2-0.9-0.5-1.9-0.6-2.8
		c-0.1-1,0.2-2,0.3-3c-0.4,0.1-0.8,0.3-1.2,0.4c-0.6,0.2-0.8,0.1-0.7-0.6c0-0.1,0-0.2,0.1-0.3c0.4-1.2,0.8-2.3,0.8-3.6
		c0-0.2,0.1-0.4,0.3-0.5c0.5,1.3,0.2,2.6-0.2,4c0.6-0.1,1.1-0.2,1.6-0.2c0.5,1.8-0.2,3.6,0.5,5.2c0.4-0.1,0.8-0.1,1.1-0.2
		c0.6,1.5,1.1,2.9,1.6,4.5c0.3-0.5,0.5-0.9,0.8-1.3c0.2,0.2,0.4,0.3,0.5,0.4c0.7,1,1.4,2.1,1.5,3.4c0,0.2,0,0.5,0.1,0.7
		c0.1,0.3,0.3,0.6,0.7,0.4c0.4-0.2,0.5,0,0.6,0.3c0.4,0.8,0.8,1.7,1.2,2.5c0.5-0.2,0.9-0.4,1.2-0.4c0.5,0.1,0.9,0.3,1.3,0.6
		c0.4,0.3,0.7,0.6,1,0.9c0.3,0.3,0.6,0.6,1.1,0.9c-0.3-0.6-0.6-1.1-0.8-1.7c-1.8-3.5-2.7-7.2-3-11.1c-0.3-3.3-0.2-6.5,0.6-9.7
		c0.6-2,1.3-4,2-6c0.4-1,1-1.9,1.9-2.6c-0.1,0.4-0.3,0.8-0.4,1.2c-1.3,2.9-2.3,5.9-2.9,9.1c-0.5,3-0.5,6-0.1,9
		c0.3,1.8,0.5,3.6,1,5.2c1.1,3.7,2.9,7,5.3,10c0,0,0.1,0.1,0.2,0.1c-0.2-1-0.3-2-0.5-2.9c-0.2-1-0.4-2-0.6-3.2
		c0.5,0.3,0.8,0.4,1.2,0.6c0.5-1,0.7-2.1,0.5-3.2c-0.1-0.4-0.1-0.8,0.3-1.1c0.6,0.1,0.5,0.8,1,1.2c0.1-0.5,0.3-1,0.4-1.4
		c0.2-1,0.8-1.9,0.5-2.9c0-0.2,0.1-0.5,0.3-0.5c0.2-0.1,0.5,0,0.6,0.1c0.2,0.2,0.4,0.4,0.6,0.7c0.6-0.6,1-1.3,1.1-2.2
		c0-0.6,0-1.3,0-1.9C28.6,68.8,28.6,68.5,28.6,67.9z"/>
	<path id="XMLID_420_" class="st0" d="M63.1,89.4c0,1.4,0,2.9,0,4.3c0,0,0,0.1,0,0.1c-0.3,1.9,0.9,3.2,1.8,4.7
		c0.2,0.4,0.5,0.8,0.7,1.2c0.1,0.3,0.2,0.6,0.3,0.9c-0.1,0-0.1,0.1-0.2,0.1c-0.8-1.1-1.6-2.3-2.5-3.5c-0.1,1-0.1,1.9-0.2,2.8
		c-0.7-1.3-0.6-2.6-0.6-3.9c-0.1-3.1-0.1-6.2-0.5-9.3c-0.1-0.3-0.1-0.7-0.3-1c-0.9-2.4-1.9-4.7-2.8-7.1c-0.5-1.5-1.2-2.9-2-4.2
		c-0.1-0.2-0.3-0.4-0.5-0.5c0.3,2,0,3.9-0.2,5.9c-0.2,2.7-0.7,5.3-1,8c-0.2,1.1-0.5,2.2-0.7,3.2c0,0.3,0,0.6,0.1,0.8
		c0.6,1.3,1.2,2.6,1.9,4c0.6,1.3,1.4,2.5,2.5,3.5c0.1,0.1,0.2,0.2,0.4,0.5c-0.4-0.2-0.6-0.2-0.7-0.3c-1.2-0.7-2-1.7-2.6-3
		c-0.5-1.2-1-2.3-1.5-3.5c0-0.1-0.1-0.2-0.4-0.3c-0.2,1.6-0.3,3.2-0.5,4.9c-0.4-0.6-0.5-1.3-0.5-2c0-2.1,0.4-4.1,0.8-6.1
		c0.4-1.9,0.8-3.8,1-5.8c0.3-2.7,0.6-5.4,0.8-8.2c0.1-1.7-0.3-3.3-1.1-4.8c-0.2-0.5-0.4-0.9-0.7-1.4c0.1,0,0.1-0.1,0.2-0.1
		c0.2,0.2,0.4,0.4,0.6,0.6c0.9,1.3,1.9,2.6,2.8,3.9c1.2,1.7,1.9,3.6,2.6,5.5c1.2,3.3,2.5,6.5,4.1,9.6c0.9,1.8,2.2,3.5,3.3,5.2
		c1.3,2,2.9,3.6,4.7,5.2c1.3,1.1,2.5,2.3,3.7,3.5c0.5,0.4,0.9,0.9,1.4,1.3c-1.1-0.3-6.6-4.5-8.2-6.3C66.7,95.4,64.9,92.4,63.1,89.4z
		"/>
	<path id="XMLID_419_" class="st0" d="M67.5,101.8c0.4,0.1,0.8,0.1,1.1,0.2c0.6,0.2,1.3,0.5,1.9,0.8c2.6,1.4,5.4,1.8,8.4,1.9
		c-0.2-0.2-0.3-0.4-0.5-0.5c-0.9-0.7-1.7-1.6-2.2-2.7c-0.4-1.1-0.9-2.1-1.7-2.9c-0.1-0.1-0.1-0.2-0.1-0.3c0.4-0.6,0.9-0.2,1.4-0.2
		c0.5-1.6,0.6-3.2-0.5-4.6C75,92.9,75,92.9,75,92.2c0.4,0.1,0.8,0.2,1.2,0.4c0.3,0.2,0.7,0.4,1.1,0.7c-0.1-0.4-0.2-0.6-0.2-0.8
		c-0.3-0.9-0.5-1.7-0.2-2.7c0.1-0.4,0-0.8-0.1-1.1c-0.2-0.5-0.5-1-0.7-1.5c-0.1-0.3-0.4-0.6-0.1-0.9c0.8,0.1,1.6,0.4,2.3,0.9
		c-0.3-1.5-0.4-3.2-1.7-4.3c-0.1-0.1-0.2-0.4-0.3-0.6c0.8-0.4,1.6-0.3,2.5-0.1c0.1-1.5-0.4-2.8-1.3-3.9c-0.1-0.1-0.2-0.2-0.4-0.3
		c-0.2-0.3-0.8-0.5-0.5-0.9c0.2-0.3,0.7-0.4,1-0.4c0.4-0.1,0.9,0,1.4,0c-0.1-0.3-0.1-0.5-0.2-0.7c-0.6-1-1.2-2.1-1.9-3.1
		c-0.2-0.3-0.5-0.6-0.2-1.1c0.3,0,0.7,0,1,0c-0.6-2.6-2.3-4.4-4.1-6.4c0.5-0.1,1-0.3,1.5-0.4c-0.2-0.6-0.7-1.1-1.2-1.4
		c-0.5-0.3-1.1-0.6-1.8-0.9c1-0.2,1.7,0,2.4,0.5c1.1,0.7,1.7,1.9,2.7,2.9c-0.9,0.4-1.5-0.5-2.3-0.2c0.1,0.2,0.3,0.4,0.4,0.5
		c1,0.8,1.7,1.9,2.3,3c0.4,0.8,0.7,1.5,1.1,2.3c0.5,1.1,0.4,1.2-0.8,1.4c0.5,0.9,1,1.8,1.5,2.6c0.2,0.4,0.4,0.9,0.6,1.3
		c0.2,0.7,0,0.9-0.7,0.7c-0.3-0.1-0.7-0.2-1-0.2c-0.1,0-0.2,0-0.4,0c1,1.7,2.3,3.3,1.2,5.5c-0.4-0.1-0.8-0.1-1.3-0.2
		c0.7,1.9,1.7,3.7,1,5.8c-0.8-0.3-1-1.2-1.9-1.4c0,0.1,0,0.2,0.1,0.3c0.6,1,0.7,2,0.6,3.1c-0.2,1,0.3,2,0.8,2.9
		c0.2,0.3,0.3,0.7,0.6,1.1c-1.1,0.3-1.6-0.6-2.5-0.9c1,1.8,0.6,3.4,0.1,5c-0.1,0.2-0.3,0.3-0.6,0.6c0.7,1.2,1.1,2.7,2.2,3.9
		c1.1,1.1,2.6,1.4,3.9,2.2c-2.8,0.5-5.6,0.4-8.4-0.2C71.3,104.5,68.3,103,67.5,101.8z"/>
	<path id="XMLID_418_" class="st0" d="M65.5,32.2c1.7,0.9,3.3,1.7,4.9,2.5c0.4,0.2,0.8,0.4,1.2,0.6c0.5,0.3,0.9,0.3,1.4,0.1
		c0.3-0.2,0.7-0.3,1.1-0.5c0.8-0.3,1.4-0.8,1.8-1.6c0.4-0.7,1-1.4,1.5-2c0.1,0.7-0.4,1.2-0.6,1.8c0.4,0.1,0.6-0.2,0.8-0.4
		c1.3-0.9,2.7-1.4,4.2-1.8c0.4-0.1,0.9-0.1,1.4-0.1c0,0.1,0,0.1,0,0.2c-0.1,0.1-0.2,0.2-0.4,0.2c-0.7,0.3-1.5,0.5-2.2,0.8
		c-1,0.5-2,0.9-2.9,1.5c-1.4,0.8-2.7,1.8-4.3,2.3c-0.1,0-0.1,0.1-0.3,0.2c3.2,1.6,6.2,3.6,9.7,4.6c1.2,0.4,2.5,0.5,3.7,0.7
		c0.4,0.1,0.7,0.1,1.1,0.3c-2.9,0.4-5.5-0.4-8.2-1.5c0.5,1.6,2.5,3.7,6.2,5.7c-1.1-0.2-2.2-0.4-3.2-1.1c-1.5-1.1-2.9-2.3-3.6-4.1
		c-0.3-0.7-0.8-1.1-1.5-1.5c-3.6-1.9-7.1-3.8-10.7-5.7c-1.6-0.8-3.3-1.5-4.9-2.1c-1.2-0.5-2.4-0.8-3.6-1.2c-0.1,0-0.2-0.1-0.4-0.2
		c0.6,0,1.1,0,1.7,0c-0.3-1.1,0.4-1.9,1-2.8c0.9-1.3,2.1-2.3,3.6-3.1c2-1,4-2.1,5.8-3.6c0.7-0.6,1.4-1.2,2-1.8
		c0.4-0.3,0.8-0.6,1.2-0.8c-0.7,1.4-2,2.2-3.2,3.4c1.5-0.4,2.9-0.8,4.3-0.4c-0.5,0.1-1.1,0.3-1.6,0.4c-1.3,0.3-2.6,0.6-4,1
		c-0.1,0-0.2,0.1-0.4,0.1c-1.7,0.9-3.3,1.7-5,2.7c-1.3,0.8-2.4,1.9-3.1,3.3c-0.3,0.5-0.5,1.1-0.4,1.7c1.3,0.5,2.6,1.1,3.9,1.5
		c1,0.4,2,0.2,3-0.2c2.2-0.9,4.2-2.1,6-3.6c1.6-1.3,3.4-2,5.5-2c0.4,0,0.7,0,1.1,0c-0.3,0.1-0.6,0.2-0.9,0.2c-2.2,0.3-4.2,1.1-6,2.6
		C70.3,30.3,68.1,31.5,65.5,32.2z"/>
	<path id="XMLID_417_" class="st0" d="M3.9,60.3c-0.5-0.7-0.6-1.3-0.6-1.9c0-0.6,0-1.1,0-1.8c-0.9,0.2-0.8,1.6-1.8,1.6
		C1,57,1.5,54.4,3,51.2c-0.3-0.1-0.6-0.1-0.9-0.2c-0.6-0.2-0.8-0.7-0.3-1.1c0.7-0.7,1.3-1.5,1.6-2.5c0.4-0.9,0.9-1.7,1.3-2.6
		c-0.5-0.2-1-0.3-1.6-0.5c0.5-1.1,1.1-2,1.8-2.8c0.7-0.8,1.4-1.6,2.2-2.5c-0.2-0.1-0.4-0.1-0.6-0.1C6.9,37,8,35.7,9.2,34.4
		c-0.3-0.1-0.6-0.1-0.9-0.2C8,34,7.9,33.7,8.2,33.5c1.4-1.2,2.5-2.8,4.4-3.3c0.1,0,0.2-0.2,0.3-0.4c0.7-0.8,1.4-1.7,2.7-1.6
		c-0.4,0.6-1.3,0.5-1.4,1.3c0.2,0.1,0.4,0.1,0.6,0.2c0.2,0.1,0.3,0.3,0.4,0.4c-0.2,0.1-0.3,0.3-0.5,0.3c-0.4,0.1-0.8,0.2-1.2,0.2
		c-1.6,0.3-2.6,1.4-3.7,2.6c0.6,0.2,1.1-0.5,1.6,0.2c0,0.6-0.5,0.9-0.9,1.2c-1.2,0.7-2,1.8-2.7,3.1c0.5,0,0.9,0,1.6,0.1
		c-0.7,0.7-1.3,1.2-1.9,1.9c-0.6,0.6-1,1.3-1.5,2c-0.5,0.7-1,1.3-1.5,2.1C5.2,43.9,5.9,44,6.7,44c-0.2,0.3-0.3,0.4-0.4,0.5
		c-0.6,0.7-1.2,1.4-1.5,2.4C4.3,48,3.8,49,3.4,50c0.3,0.1,0.6,0.1,1.1,0.2c-1,1.8-1.8,3.6-2,5.6c0.5-0.2,1-0.3,1.5-0.4
		c0.5-0.1,0.8,0.1,0.6,0.5c-0.3,1.2-0.3,2.4-0.4,3.6C4.2,59.7,4.1,59.9,3.9,60.3z"/>
	<path id="XMLID_416_" class="st0" d="M49,97.4c0.2-0.7,0.1-1.4,0.9-1.7c1.1,2,2.9,3.3,5,4.1c0.2-0.4,0.3-0.6,0.5-0.9
		c0.3-0.4,0.6-0.5,0.9-0.1c1.5,1.5,3.3,2.3,5.1,3.1c0.2,0.1,0.4,0.1,0.6,0.2c0.1,0,0.3,0,0.4,0c-0.1-0.3-0.2-0.6-0.3-1
		c0.3,0,0.4,0,0.6,0.1c0.6,0.3,1.2,0.6,1.7,0.9c0.8,0.4,1.6,0.7,2.6,0.5c-0.1,0.5-0.5,0.6-0.8,0.5c-0.4,0-0.9-0.2-1.3-0.3
		c-0.4-0.1-0.7-0.3-1.1-0.4c-0.1,0.2-0.1,0.3-0.1,0.5c-3-0.3-5.5-1.7-7.7-3.6c-0.1,0.1-0.2,0.2-0.2,0.3c-0.2,1-0.2,1-1.2,0.7
		c-1.5-0.4-2.7-1.3-3.9-2.3c-0.2-0.2-0.5-0.4-0.8-0.7c-0.1,0.3-0.2,0.6-0.3,0.8c-1.7-0.3-2.5-0.8-5.2-3.5c-0.1,0-0.1,0-0.2,0
		c-0.6,1.1-0.8,1.2-1.5,0.1c-0.7-1.1-1.3-2.3-2-3.5c-0.3-0.5-0.4-1-0.7-1.6c-0.2,0.3-0.4,0.5-0.6,0.8c-0.5,0.6-0.8,0.6-1.2-0.1
		c-0.7-1.4-1.2-2.9-1.2-4.6c-0.8,0.2-0.6,1.3-1.6,1.4c-0.6-2.2-0.7-4.3-0.5-6.8c-0.3,0.4-0.6,0.7-0.8,1c-0.8-1.4-1-3.9-0.4-5.1
		c0.5,0.6,0.3,1.2,0.4,1.9c0.1,0.6,0.1,1.3,0.2,2c0.4-0.2,0.7-0.4,1.1-0.7c0,1.1,0,2.1,0,3.1c0,1,0.2,2,0.2,3.1
		c0.7-0.4,0.9-1.2,1.8-1.1c0.4,2.7,0.8,4,1.4,5.1c0.5-0.4,0.8-1.2,1.8-1.2c0.3,2.2,1.3,4,2.6,5.9c0.2-0.5,0.3-0.9,0.5-1.4
		C45.5,94.7,46.9,96.4,49,97.4z"/>
	<path id="XMLID_415_" class="st0" d="M53.6,26.7c0.4,0,0.8-0.1,1.4-0.2c-1.2,1.1-1.8,2.4-2.2,3.7c-0.2,0.7-0.4,1.5-0.7,2.2
		c-0.5,1.2-1,2.3-1.5,3.4c0.8-0.3,2.7-2.1,3.3-3.4c0.7-1.5,1.2-3,1.8-4.5c0.6,1,0.3,2.1-1.5,5.9c0.3-0.3,0.5-0.4,0.6-0.5
		c0.8-1,1.3-2.1,1.7-3.3c0.3-1.1,0.3-2.1-0.8-2.9c0.8,0,1.2,0.4,1.3,0.9c0.1,0.8,0.3,1.6,0.1,2.3c-0.4,2-1.4,3.6-3,4.9
		c-0.4,0.3-0.8,0.7-1.2,1c-0.3,0.2-0.7,0.3-1,0.5c0-0.1-0.1-0.1-0.1-0.2c0.1-0.2,0.3-0.4,0.4-0.7c-0.1,0-0.2,0-0.3,0.1
		c-0.7,0.4-1.3,0.8-2,1.2c-0.3,0.1-0.6,0.1-1.2,0.2c0.3-0.8,0.5-1.5,0.8-2.1c-2.1,2.8-3,6-3.1,9.4c-0.1,0-0.1,0-0.2,0
		C46.1,44.3,46,44,46,43.7c0-0.9,0.1-1.9,0.2-2.8c0-0.4,0.1-0.8,0.1-1.2l0,0c0.7-1.4,1.3-2.7,2-4.1c0.7-1.3,1.5-2.6,2.6-3.7
		c0.3-0.3,0.5-0.6,0.6-1c0.5-1.4,1-2.9,2-4.1C53.6,26.9,53.6,26.8,53.6,26.7L53.6,26.7z"/>
	<path id="XMLID_414_" class="st0" d="M16.7,38.8c-1.9-0.8-3.7-1.3-5.7-1.3c1.2-1,4.1-0.4,6.2,0.9c1.4-0.7,2.8-1.4,4.3-2.1
		c0.1,0,0.1-0.1,0.3-0.2c-1.9-1-4.1-1.3-5.9-2.5c2.4,0.2,4.6,0.9,6.7,2.1c1.3-0.5,2.6-0.9,4.1-1.4c-0.5-0.6-1.2-0.9-1.9-1.1
		c-0.9-0.3-1.9-0.6-2.8-0.9c-0.9-0.3-1.8-0.6-2.7-1.1c0.2,0,0.4,0,0.6,0c1.7,0.4,3.3,0.9,5,1.3c0.9,0.3,1.7,0.8,2.4,1.5
		c0.3,0.3,0.7,0.4,1,0.6c-2.8,0.6-5.3,1.8-7.8,3.2c-2.6,1.4-5.1,3.1-7.9,4.2c-0.7,0.3-1.3,0.9-1.7,1.6C10,44.7,9.2,46,8,46.8
		c-0.6,0.4-1.1,0.8-2,0.8c2-1.6,3.6-3.4,4.7-5.6c-0.7-0.1-1.3-0.1-2-0.2c0-0.1,0-0.2,0-0.3c0.3,0,0.6-0.1,1-0.1c0.3,0,0.7,0,1,0
		c0.5,0.1,0.9-0.1,1.4-0.3c1.2-0.6,2.4-1.2,3.6-1.8C15.9,39.3,16.2,39.1,16.7,38.8z"/>
	<path id="XMLID_501_" class="st0" d="M60.7,52.3c0.4-0.8,1.3-0.8,2-1.4c-0.8-0.1-1.4-0.1-2-0.2c-1.8-0.2-2.4-0.7-2.8-2.6
		c-0.1-0.5-0.2-1.1-0.3-1.6c0-0.2,0-0.5,0-0.9c1.1,1.6,2.8,1.9,4.3,2.4c1,0.3,1.8,0.8,2.5,1.6c0.3,0.4,0.6,0.7,1.2,0.7
		c0.2,0,0.5,0.2,0.7,0.3c1.1,0.6,2.4,0.9,3.6,1.2c0-0.4,0-0.7,0-1c0.5,0.4,0.6,0.5,0.9,1.8c-1.5,0.3-2.8-0.2-4.1-0.9
		c-0.1,0.3-0.1,0.5-0.2,0.9c-1.1-0.2-1.4-1.3-2.3-1.7c-0.6,0.4-1.2,0.8-2,1.3c0.3,0.1,0.5,0.2,0.7,0.3c1.6,0.3,2.8,1,4,2.1
		c0.6,0.6,1.4,1,2,1.5c0.2,0.2,0.5,0.4,0.7,0.6c-0.4,0.7-1,0.4-1.5,0.7c1.3,0.7,2.5,1.4,2.3,3.3c-0.2-0.2-0.4-0.3-0.5-0.5
		c-0.6-0.9-1.5-1.6-2.4-2.3c-0.5-0.3-1.1-0.5-1.7-0.8c0.2-0.5,0.8-0.5,1.3-0.7c-1.2-1.1-2.3-2.4-3.9-2.8c-0.6-0.1-1.1-0.4-1.6-0.7
		C61.5,52.6,61.2,52.5,60.7,52.3z M63.6,50c-0.8-0.9-2.1-1.5-5.1-2.5c0.3,0.7,0.5,1.4,0.8,2c0.1,0.2,0.4,0.4,0.6,0.5
		C61.1,50.4,62.3,50.3,63.6,50z"/>
	<path id="XMLID_411_" class="st0" d="M73.2,68.3c-0.5,1.1-1.4,1.4-2.6,1.9c1.6,0.5,3.1,0.2,4.5,1c-1.4,0.5-2.6,0.1-3.9-0.2
		c1.2,2.1,3,3.4,4.7,4.7c0,0.1-0.1,0.1-0.1,0.2c-0.5-0.2-0.9-0.3-1.4-0.5c-1.5-0.8-2.9-1.9-3.9-3.3c-1.2-1.7-2.5-3.4-3.8-5.1
		c-1.8-2.3-4.2-3.8-7-4.5c-0.3-0.1-0.7-0.1-1.1-0.1c0.2-0.4,0.6-0.3,0.9-0.3c2,0.2,3.8,0.7,5.4,1.9c1.8,1.3,3.1,2.9,4.5,4.6
		c0.3,0.3,0.5,0.7,0.8,1C71.3,69.2,72.2,68.7,73.2,68.3z"/>
	<path id="XMLID_410_" class="st0" d="M56.2,69.3c0.7,0,1.3,0,1.8,0c1.1,0,2.1,0.4,3,0.9c0.9,0.6,1.9,1.2,2.7,1.9
		c1.7,1.5,3.2,3.2,4.3,5.1c0.4,0.7,0.8,1.5,1.2,2.2c0.3,0.5,0.6,0.6,1.1,0.5c0.8-0.1,1.6-0.1,2.6-0.1c-0.9,0.8-1.8,0.5-2.8,0.7
		c0.1,0.2,0.2,0.4,0.3,0.6c0.8,0.6,1.5,1.1,2.3,1.6c0.5,0.3,1,0.6,1.4,1C73,83.5,72,82.8,71,82.1c0,0.1-0.1,0.1-0.1,0.2
		c0.5,0.6,0.9,1.3,1.5,2c-1.2-0.3-1.8-0.9-2.3-1.7c-0.6-0.9-1.1-1.9-1.6-2.8c-1.4-2.8-3.3-5.2-5.7-7.3c-1.3-1.1-2.7-2.1-4.4-2.5
		c-0.3-0.1-0.6-0.1-1-0.1C57,69.8,56.7,69.6,56.2,69.3z"/>
	<path id="XMLID_409_" class="st0" d="M51.8,71.1c0.1,2-0.1,3.9-1,5.7c-1.1,2.2-1.8,4.7-2.6,7c-0.8,2.3-0.4,4.5-0.1,6.8
		c0.2,1.1,0.4,2.2,0.6,3.3c0,0.2,0,0.4,0,0.7c-0.6-0.6-0.9-1.3-1-1.9c-0.3-1.2-0.4-2.4-0.6-3.6c-0.1-0.9-0.2-1.7-0.3-2.8
		c-1,1.5-1.8,2.9-2.7,4.2c0,0-0.1,0-0.1,0c0.1-0.3,0.1-0.6,0.2-0.9c0.7-1.4,1.4-2.7,2.1-4.1c0.1-0.2,0.2-0.4,0.3-0.5
		c0.9-0.8,1.2-1.9,1.4-2.9c0.5-2,1.3-3.8,2.2-5.5c0.8-1.5,1.2-3.1,1.4-4.8c0-0.2,0.1-0.5,0.1-0.7C51.6,71.1,51.7,71.1,51.8,71.1z"/>
	<path id="XMLID_408_" class="st0" d="M21.1,43.7c-0.5-0.4-1-0.8-0.8-1.6c0.6,0.3,1.1,0.8,1.7,0.9c0.6,0.1,1.2-0.1,1.9-0.2
		c-0.1,0.1-0.2,0.2-0.3,0.2c-2.8,1.3-5.1,3.2-7.7,4.7c-1.4,0.7-2.7,1.6-4.1,2.2c-1.1,0.5-1.9,1.3-2.6,2.2c-0.7,1-1.5,2-2.3,2.9
		c-0.2,0.3-0.5,0.5-0.8,0.7c0.4-1.9,1.7-3.2,3.1-4.7c-0.8,0.1-1.4,0.2-2,0.3c2.2-1.6,4.7-2.3,7-3.7C16.4,46.3,18.7,45.1,21.1,43.7z"
		/>
	<path id="XMLID_407_" class="st0" d="M60.8,79.4c1.1,0.6,2.1,1.3,2.8,2.4c0.8,1.2,1.8,2.2,3.2,2.7c0.7,0.3,1.5,0.5,2.2,0.7
		c1.1,0.3,2.2,0.6,3.4,1c0.1,0,0.2,0.1,0.3,0.2c-2.4,0.1-4.5-0.6-6.8-1.6c1.8,3.3,3.6,6.4,6.1,9.1c-0.8-0.4-1.4-0.9-1.9-1.5
		c-1.2-1.4-2.4-2.9-3.3-4.6c-1.2-2.1-2.5-4.2-3.9-6.2C62.3,80.8,61.5,80.2,60.8,79.4z"/>
	<path id="XMLID_406_" class="st0" d="M35,15.3c-0.1,0.3-0.2,0.6-0.4,0.9c-0.1-0.1-0.3-0.1-0.5-0.2c0,0,0,0,0,0
		c-0.3-1.6,0.4-3.1,1.8-3.8c0.7-0.4,0.9-1,1-1.7c0.1-0.6,0.1-1.2,0.2-1.8c0.1-2.3,1.8-3.7,4-4.1c0.1,0,0.1,0,0.2,0.1
		c0,0.4-0.3,0.6-0.6,0.8c-1.3,1.3-1.7,2.9-1.2,4.6c0.3,1.1,0.3,2-0.3,3l0,0c-0.2,0-0.4,0-0.7,0c0.8-1.1,0.6-2.1,0.3-3.2
		c-0.2-0.8-0.1-1.7,0.2-2.5c0.1-0.5,0.3-1,0.5-1.6c-0.9,0.6-1.5,1.3-1.7,2.3c-0.1,0.7-0.1,1.4-0.2,2.1c-0.2,1.1-0.4,2.1-1.7,2.6
		c-0.9,0.4-1.1,1.3-1.2,2.2C34.9,15.2,35,15.3,35,15.3L35,15.3z"/>
	<path id="XMLID_405_" class="st0" d="M56.7,35.4c0.4,0.4,0.9,0.8,1.3,1.3c1.7,1.7,3.8,2.8,5.9,3.9c1.8,0.9,3.3,2.2,4.4,3.9
		c0.7,1.1,1.5,2.1,2.3,3.1c0.6,0.8,1.3,1.5,2,2.2c-0.4,0.1-0.8-0.1-1.1-0.3c-0.4-0.4-0.9-0.8-1.2-1.3c-0.9-1.1-1.8-2.2-2.5-3.3
		c-1-1.6-2.4-2.7-4.1-3.5c-1.5-0.8-3.1-1.7-4.5-2.6c-1-0.6-1.8-1.5-2.4-2.6c-0.1-0.2-0.2-0.4-0.2-0.6C56.7,35.4,56.7,35.4,56.7,35.4
		z"/>
	<path id="XMLID_404_" class="st0" d="M19.5,58.1c0.2,0.5,0.3,0.9,0.5,1.3c0.7,2.2,1.4,4.5,2.9,6.4c0.6,0.8,1.2,1.5,1.8,2.2
		c1,1.2,1.4,2.4,1.4,3.9c-0.2-0.2-0.3-0.4-0.4-0.6c-0.8-1.4-1.6-2.8-2.7-4.1c-1.8-2.2-2.9-4.8-3.4-7.6c-0.1-0.4-0.1-0.8-0.1-1.2
		C19.4,58.5,19.4,58.4,19.5,58.1z"/>
	<path id="XMLID_403_" class="st0" d="M39.7,30c1-0.9,2.1-1.9,3.1-2.8c1.3-1.2,2.8-2,4.4-2.6c1.8-0.7,3.6-0.7,5.4-0.2
		c0.8,0.2,1.4,0.6,1.7,1.5c-2.5-1.8-5-1.6-7.5-0.6c-2.3,0.9-4.1,2.5-5.8,4.2c-0.6,0.6-1.1,1.2-1.7,1.7c-0.3,0.2-0.5,0.4-0.8,0.7l0,0
		c0.1-0.2,0.2-0.5,0.3-0.7C39.2,30.8,39.5,30.4,39.7,30L39.7,30z"/>
	<path id="XMLID_402_" class="st0" d="M49.8,30.1C48,31.2,46,31.2,44,31.2c-0.3,0-0.5-0.1-0.5-0.5c0.1-0.1,0.3-0.2,0.4-0.3
		c1.1-0.3,2.1-0.9,2.9-1.7c1.3-1.3,2.9-1.9,4.5-2.3c0.3-0.1,0.6-0.1,0.9,0.1c-1.1,0.5-2.3,0.8-3.3,1.4c-1,0.6-1.8,1.5-2.6,2.5
		c1.1-0.2,2.3-0.4,3.4-0.6C49.8,29.9,49.8,30,49.8,30.1z"/>
	<path id="XMLID_488_" class="st0" d="M82.9,61.4c2,0,2.7,1.7,2,3.5c-0.5,1.1-2.7,1.3-3.3,0.4c-0.7-1.1-0.8-2.4,0-3.4
		C82,61.4,82.4,61.4,82.9,61.4z M82.9,62.2c-0.7,0-1.2,0.5-1.3,1.5c0,0.6,0.6,1.4,1.2,1.4c0.9,0,1.5-0.5,1.5-1.3
		C84.5,62.9,83.9,62.2,82.9,62.2z"/>
	<path id="XMLID_399_" class="st0" d="M18.2,51.6c-0.4,0.3-0.8,0.6-1.3,0.8c-1.2,0.6-2.3,1.1-3.5,1.7c-1.5,0.8-2.8,2-4,3.2
		c-0.5,0.5-1,0.9-1.6,1.3c0.3-0.9,0.9-1.6,1.5-2.2c1.7-1.7,3.5-3.1,5.8-3.9c0.7-0.3,1.4-0.7,2.1-1c0.3-0.1,0.6-0.2,1-0.3
		C18.2,51.5,18.2,51.6,18.2,51.6z"/>
	<path id="XMLID_398_" class="st0" d="M59.3,91.1c-1.1,0.7-1.5,0.6-2.2-0.4c-1.6-2.3-1.3-4,0.6-6c0.1-0.1,0.2-0.1,0.4-0.1
		c-0.1,0.3-0.1,0.5-0.2,0.7c-0.3,0.6-0.6,1.1-0.8,1.6c-0.5,1.3,0,2.9,1.3,3.8c0.4-0.7,0.8-1.3,1.2-2c0.1,0,0.1,0,0.2,0
		c0,0.2,0.1,0.4,0.1,0.6C59.7,89.9,59.5,90.5,59.3,91.1L59.3,91.1z"/>
	<path id="XMLID_397_" class="st0" d="M12.9,60.7c0.7-0.2,0.9-0.8,1.4-1.2c0.4-0.3,0.7-0.7,1.4-0.9c-2,3-4,5.9-6,8.7
		c-0.1,0-0.1-0.1-0.2-0.1c0.1-0.3,0.2-0.6,0.3-0.9c0.7-1.7,1.6-3.2,2.7-4.8C12.6,61.3,12.7,61,12.9,60.7L12.9,60.7z"/>
	<path id="XMLID_396_" class="st0" d="M61.1,119.3c0.8,0.3,1.1,1.1,0.6,1.9c-0.4,0.7-1,1.2-1.8,1.4c-1.2,0.3-2.2-0.4-2.4-1.6
		c-0.2-1.3-0.2-1.9,1.5-2.4c-0.2,0.3-0.3,0.5-0.5,0.7c-0.5,0.6-0.5,1.4,0.1,1.9c0.2,0.2,0.6,0.2,0.9,0.2
		C60.3,121.2,60.9,120.4,61.1,119.3z"/>
	<path id="XMLID_395_" class="st0" d="M73.1,119.9c-0.4,0.7-0.5,1.5-0.2,2.2c0.3,0.6,0.6,0.8,1.2,0.7c0.6-0.2,0.9-0.6,0.8-1.2
		c0-0.2-0.1-0.4-0.2-0.7c0.7,0.1,1.2,0.3,1.4,1c0.2,0.7-0.2,1.2-0.7,1.6c-1.2,1-2.7,0.6-3.3-0.9C71.6,121.2,71.8,120.5,73.1,119.9z"
		/>
	<path id="XMLID_394_" class="st0" d="M27.5,61.3c-1.6-3.3-2.8-6.7-5-9.6c0.4-0.1,0.6,0.2,0.8,0.4c0.7,1,1.5,1.9,2.2,3
		c0.7,1.2,1.3,2.4,1.9,3.6C27.7,59.7,27.7,60.3,27.5,61.3z"/>
	<path id="XMLID_393_" class="st0" d="M41.8,79.8c0,0.9-0.6,1.8,0.5,2.6c1.1-0.5,0.3-1.5,0.5-2.3c0.8,0,1.1,0.6,1.3,1.2
		c0.3,0.8-0.7,2.3-1.6,2.3c-0.2,0-0.5-0.1-0.7-0.2c-0.9-0.7-1.1-2.1-0.5-3.1C41.5,80.1,41.7,80,41.8,79.8z"/>
	<path id="XMLID_392_" class="st0" d="M53.6,26.7c-0.1,0-0.3,0-0.4-0.1c-1.4-1.1-3-1.1-4.6-0.5c-2.6,0.9-4.8,2.6-6.5,4.7
		c-0.5,0.6-0.9,1.2-1.5,1.7c0.1-0.2,0.1-0.3,0.2-0.5c1.7-2.9,4.2-4.9,7.2-6.2c1.4-0.6,2.9-0.8,4.4-0.2C52.9,25.8,53.4,26,53.6,26.7
		L53.6,26.7z"/>
	<path id="XMLID_391_" class="st0" d="M26.6,29.2c-0.7-0.5-1.4-1-2.1-1.6c0.9-0.1,1.7,0.4,2.9,1.6c-0.2,0.2-0.3,0.5-0.5,0.6
		c-1.1,0.4-2.1,1-3.2,0.9c-0.7,0-1.3,0-1.7-0.7c-0.4-0.8-0.3-1.5,0.1-2.5c0.1,0.7,0.2,1.2,0.3,1.6c0.1,0.7,0.3,0.8,1,0.8
		c0.6,0,1.2-0.1,1.7-0.2C25.5,29.7,26,29.4,26.6,29.2z"/>
	<path id="XMLID_390_" class="st0" d="M62.7,109.3c-0.3,0.2-0.5,0.3-0.7,0.5c-0.1,0.1-0.3,0.3-0.3,0.5c-0.1,0.6,0.1,1.3,0.5,1.4
		c0.5,0.2,1.5-0.1,1.8-0.7c0.3-0.5,0.4-1,0.1-1.6c0.7,0.2,0.9,0.4,0.9,1c0,1.4-1.9,2.7-3.1,2c-0.9-0.5-1.3-2.1-0.6-2.9
		C61.5,109.3,62,109.2,62.7,109.3z"/>
	<path id="XMLID_389_" class="st0" d="M30.6,85.1c-0.2,0.4-0.4,0.7-0.5,1c-0.1,0.2-0.2,0.5-0.1,0.7c0,0.4,0.2,0.8,0.6,0.9
		c0.3,0,0.8-0.1,1-0.3c0.2-0.2,0-0.6,0-1c0.4-0.1,0.8-0.1,1.1,0.3c0.3,0.4,0.2,0.8,0,1.2c-0.3,0.6-1.2,1-2,0.9
		c-0.7-0.1-1.2-0.6-1.3-1.4C29.2,86.3,29.4,85.8,30.6,85.1z"/>
	<path id="XMLID_388_" class="st0" d="M45.6,20.4c0.6,0.1,0.7,0.4,0.7,0.8c0,1-1,2.4-2,2.7c-0.9,0.2-1.5-0.3-1.5-1.2
		c0-0.7,0.7-1.8,1.7-2.5c-0.1,0.4-0.2,0.6-0.3,0.8c-0.2,0.5-0.5,1-0.7,1.5c-0.1,0.1,0,0.5,0.1,0.5c0.2,0.1,0.4,0.1,0.6,0
		C45,22.7,45.6,21.7,45.6,20.4z"/>
	<path id="XMLID_387_" class="st0" d="M64.7,62.3c1.4-0.7,2.8-1.3,4.3-0.2c0.3,0.2,0.8,0.3,1.1,0.5c0.3,0.1,0.5,0.4,0.3,0.7
		c-0.6,0.9-1.3,1.6-2.6,1.9c0.6-0.9,1.6-1.1,1.8-2c-0.6-0.3-1.2-0.7-1.9-0.9c-0.3-0.1-0.8-0.1-1.1-0.1c-0.5,0-1,0.2-1.5,0.3
		C65,62.4,64.8,62.3,64.7,62.3z"/>
	<path id="XMLID_386_" class="st0" d="M17.1,67.7c1.4,2.2,3.4,3.9,4.7,6.5C20.2,73.2,17.5,69.6,17.1,67.7z"/>
	<path id="XMLID_385_" class="st0" d="M85.7,73.5c0.1,0.6,0.1,1,0.2,1.4c0.7,0.2,1,0.2,1.2-0.3c0.3-0.7-0.5-0.7-0.8-1
		c0.7-0.4,1.1-0.3,1.5,0.1c0.3,0.4,0.4,0.8,0.1,1.3c-0.5,0.9-1.8,1.2-2.6,0.5c-0.1-0.1-0.2-0.4-0.2-0.6C85,74.4,85.1,73.9,85.7,73.5
		z"/>
	<path id="XMLID_384_" class="st0" d="M68.7,41.7c0.8-0.4,0.8-1.1,0.8-1.8c0.7,0.3,0.9,0.6,0.8,1.1c-0.1,0.7-0.7,1.4-1.3,1.6
		c-0.6,0.1-1.2-0.2-1.7-0.9c-0.5-0.8-0.5-1,0-1.6c0.1,0.3,0.2,0.7,0.5,1C68.1,41.3,68.5,41.5,68.7,41.7z"/>
	<path id="XMLID_383_" class="st0" d="M85.5,35.3c-1.7,2-5.1,3.5-6.9,2.8C81.3,37.8,83.2,36.2,85.5,35.3z"/>
	<path id="XMLID_382_" class="st0" d="M63.3,36.5c0.3,1,0.6,1.9,1.7,2.1c0.4-1,0-1.6-0.8-2.1c1.5,0,2.3,1.2,1.7,2.3
		c-0.2,0.4-0.5,0.6-1,0.5C63.8,39.1,63,37.8,63.3,36.5z"/>
	<path id="XMLID_381_" class="st0" d="M60.1,19.1c0.1-1.5,2.6-4.7,4.4-5.7C63.1,15.3,61.7,17.1,60.1,19.1z"/>
	<path id="XMLID_380_" class="st0" d="M66.5,73.2c1-0.3,2-0.8,2.4-1.9c-0.7-0.6-1.6-0.3-2.4-0.8c0.2-0.1,0.4-0.3,0.6-0.3
		c0.6,0,1.2,0.1,1.8,0.2c0.5,0.1,0.7,0.6,0.6,1.1C69.2,72.5,67.6,73.5,66.5,73.2z"/>
	<path id="XMLID_379_" class="st0" d="M56.8,45.9c-1.1-0.2-2.1-0.5-3.2-0.7c-0.7-0.1-1.3-0.4-1.8-0.9c-0.1-0.1-0.1-0.2-0.3-0.4
		c1.4,0.3,2.6,0.6,3.9,1c0.5,0.1,0.9,0.5,1.4,0.8C56.9,45.7,56.8,45.8,56.8,45.9z"/>
	<path id="XMLID_378_" class="st0" d="M58.1,56.7c1.1,0,1.9,0.8,2.8,0.3c0.2-0.8-0.6-1-0.8-1.5c1-0.1,1.6,0.4,1.7,1.3
		c0,0.6-0.4,1.1-1.1,1.1C59.7,57.9,58.9,57.6,58.1,56.7z"/>
	<path id="XMLID_377_" class="st0" d="M70.7,51.3c1.5,0.1,2.9,0.1,4.2,0.2c0.1-0.2,0.3-0.4,0.4-0.7c0.3,0.5,0.6,0.9,0.9,1.4
		c0.1-0.1,0.1-0.1,0.2-0.2c-0.1,0.1-0.1,0.3-0.1,0.3c-0.7-0.1-1.3-0.2-1.9-0.2c-0.7,0-1.4,0-2,0C71.8,52,71.2,51.8,70.7,51.3z"/>
	<path id="XMLID_376_" class="st0" d="M60,14.4c0.1,0.2,0.2,0.5,0.2,0.7c0,1-1.3,2.2-2.2,2.3c-0.4,0-0.7-0.2-0.8-0.7
		c-0.1-0.6,0.2-1.4,0.8-2.1c0,0.8-0.5,1.5-0.1,2.2c0.6-0.1,1.1-0.4,1.5-0.9c0.3-0.4,0.4-1,0.6-1.5C59.9,14.4,60,14.4,60,14.4z"/>
	<path id="XMLID_375_" class="st0" d="M25.9,41.6c-1.4,0.8-4.2,0.2-5.1-1C22.4,41.2,24.2,40.9,25.9,41.6z"/>
	<path id="XMLID_374_" class="st0" d="M23.8,58.7c-1.2,0-1.3-0.2-1.2-1.3c0.1-0.5,0.1-1,0.3-1.4c0.1-0.3,0.4-0.6,0.6-0.8
		c-0.1,0.9-0.4,1.7-0.2,2.7c0.4-0.1,0.8-0.2,1.2-0.3C24.5,58.1,24,58.3,23.8,58.7L23.8,58.7z"/>
	<path id="XMLID_373_" class="st0" d="M60.6,73.9c0.7-0.1,1.4-0.2,2.3-0.3c-0.2,0.3-0.3,0.6-0.5,0.6c-0.5,0.2-1,0.4-1.6,0.4
		c-0.5,0.1-0.9-0.3-1-0.7c-0.1-0.5,0.1-0.8,0.7-1c0.2-0.1,0.3-0.1,0.5-0.1c0.1,0,0.2,0,0.6,0c-0.4,0.3-0.8,0.6-1.1,0.9
		C60.5,73.7,60.5,73.8,60.6,73.9z"/>
	<path id="XMLID_372_" class="st0" d="M12.9,49.9c-0.2,0.5-0.4,0.9-0.5,1.2c0,0,0,0.1,0.1,0.2c0.4-0.3,0.9-0.6,1.3-0.9
		c0.1,1-0.8,1.8-1.6,1.7c-0.4-0.1-0.6-0.4-0.5-0.9C11.8,50.7,12.2,50.2,12.9,49.9z"/>
	<path id="XMLID_371_" class="st0" d="M54.7,15.1c-0.2,0.7-0.3,1.2,0.2,1.6c0.6-0.4,0.7-1,0.9-1.7c0.4,0.2,0.5,0.5,0.4,0.9
		c-0.1,0.4-0.3,0.7-0.5,1c-0.2,0.3-0.5,0.6-0.9,0.4c-0.3-0.1-0.5-0.5-0.6-0.8C54.1,16.1,53.9,15.5,54.7,15.1z"/>
	<path id="XMLID_370_" class="st0" d="M12.9,60.6c-0.3,0.3-0.6,0.6-1,0.9c-0.7,0.4-1.2,0.3-1.5-0.4c-0.4-0.8-0.3-1.2,0.6-1.6
		c0,0.1,0,0.2,0,0.3c-0.2,1,0,1.2,0.9,1C12.2,60.7,12.5,60.7,12.9,60.6C12.9,60.7,12.9,60.6,12.9,60.6z"/>
	<path id="XMLID_369_" class="st0" d="M11.2,58c0.7,0.6,0.8,0.6,1.5,0.1c0.4-0.3,0.8-0.6,1.2-0.8c0.1,0,0.1,0.1,0.2,0.1
		c0,0.2,0,0.5-0.2,0.6c-0.4,0.4-0.8,0.8-1.2,1c-0.5,0.3-1,0.2-1.5-0.2C11.1,58.7,11.1,58.5,11.2,58z"/>
	<path id="XMLID_368_" class="st0" d="M64.9,60c0.6,0.1,1.2,0.6,1.7-0.1c-0.1-0.6-0.9-0.6-1.2-1.1c0.7,0,1.4,0.3,1.7,0.8
		c0.1,0.2,0.2,0.5,0.1,0.7c-0.3,0.5-0.7,0.6-1.2,0.6C65.4,60.8,65,60.6,64.9,60z"/>
	<path id="XMLID_367_" class="st0" d="M11.9,66.6c0.1,0.7,0.1,1.3,0.2,1.9c0.4-0.2,0.7-0.3,1-0.4c0.1,0.4,0,0.7-0.3,1
		c-0.2,0.2-0.5,0.3-0.8,0.3c-0.3,0-0.5-0.3-0.5-0.6C11.5,68.1,11.4,67.4,11.9,66.6z"/>
	<path id="XMLID_366_" class="st0" d="M59.3,91.1c0.4,0.1,0.3,0.4,0.3,0.7c0.1,1.1,0.2,1.2,1.3,1c-0.1,0.6-0.3,0.9-0.8,0.9
		c-0.4,0-0.9-0.3-1-0.8C59.1,92.3,59.2,91.7,59.3,91.1L59.3,91.1z"/>
	<path id="XMLID_365_" class="st0" d="M66.2,69.4c-0.6,0.7-0.9,0.8-1.4,0.5c-0.4-0.3-0.6-0.8-0.4-1.4c0.1-0.3,0.3-0.7,0.7-0.9
		c0,0.2,0,0.5,0,0.7c-0.1,0.8,0,0.9,0.8,1C65.9,69.3,66,69.3,66.2,69.4z"/>
	<path id="XMLID_364_" class="st0" d="M23.8,58.7c0.1,0.1,0.3,0.2,0.3,0.2c0,0.2-0.1,0.5-0.2,0.8c0.3,0.1,0.5,0.2,0.7,0.3
		c-0.1,0.1-0.1,0.3-0.2,0.3c-0.5,0.4-0.8,0.4-1.1,0.1c-0.3-0.3-0.3-0.8,0-1.2C23.4,59,23.6,58.9,23.8,58.7
		C23.8,58.7,23.8,58.7,23.8,58.7z"/>
	<path id="XMLID_363_" class="st0" d="M54.5,18.8c0.3,0.4,0.4,0.6,0.6,0.9c0.2-0.3,0.4-0.5,0.7-0.9c0.2,0.5,0.1,0.9-0.2,1.2
		c-0.1,0.1-0.4,0.2-0.6,0.1C54.6,19.9,54.4,19.5,54.5,18.8z"/>
	<path id="XMLID_362_" class="st0" d="M18.3,44.1c0.3,0.1,0.7,0.1,1,0.2c-0.4,0.3-0.7,0.3-1,0.1C18.3,44.2,18.3,44.2,18.3,44.1z"/>
</g>
</svg>
