<?xml version="1.0" encoding="utf-8"?>
<!-- Generator: Adobe Illustrator 19.0.0, SVG Export Plug-In . SVG Version: 6.00 Build 0)  -->
<svg version="1.1" id="Warstwa_1" xmlns="http://www.w3.org/2000/svg" xmlns:xlink="http://www.w3.org/1999/xlink" x="0px" y="0px"
	 viewBox="0 0 227.3 122.4" style="enable-background:new 0 0 227.3 122.4;" xml:space="preserve">
<style type="text/css">
	.st0{fill:#BFA161;}
	.st1{fill:#C5213C;}
	.st2{fill:none;stroke:#C5213C;stroke-width:0.25;stroke-miterlimit:10;}
	.st3{fill:#036C41;}
	.st4{fill:none;stroke:#036C41;stroke-width:0.216;stroke-miterlimit:10;}
	.st5{fill:#FFFFFF;}
	.st6{fill:#91875F;}
</style>
<path id="XMLID_130_" class="st0" d="M174.3,83.5c0.4-1.4,1.1-2.3,1.7-3.3c0.5-0.5,1-1.2,1.7-1.7c-0.2,0.7-0.5,1.7-0.7,2.6
	c-0.3,1.2-0.7,2.4-1,3.8c-0.3,1-0.5,2.4-0.7,3.7c-0.3,1.7-0.7,3.5-0.7,5.1c-0.5,2.8-0.9,4.4-1.4,7.2c0,0,0.2-5.1-0.5-5.9
	c-0.7-0.9-2.3,1.9-2.3,1.9c-0.3-2.6,2.3-7.5-3-1.4c1.6-5.1,1-7.7-2.4-3.3c1.6-4.2,6.1-8.7,1.1-6.3c0.9-0.9,1.2-1.4,2.3-2.4
	c0.9-1,1.4-1.6,2.4-2.4c-0.4,1.7-0.5,3.1-0.5,4c-0.2,1,0,1.4,0.5,1.4c0-0.3,0-0.7,0-1.1c0.2-1.4,0.5-2.6,0.9-3.7
	c0.4-1.4,0.9-2.4,1.6-3.5c0.5-0.9,1-1.7,1.8-2.4c0.3-0.3,0.7-0.7,1-1.2c0.2-0.3,0.5-0.5,0.9-1c0.2,0,0.2,0,0.2-0.2
	c0,0.2,0,0.2,0,0.4c-0.3,0.5-0.5,0.9-0.7,1.2c-0.2,0.5-0.3,1-0.5,1.4c-0.5,1.2-1.1,2.1-1.2,3c-0.7,1.4-1,2.6-1.2,3.7
	c-0.3,1.6-0.3,2.8-0.2,4.4c0,0.4,0,0.7,0.2,1.1c0-0.4,0-0.7,0-0.9C173.6,85.7,174,84.5,174.3,83.5"/>
<path id="XMLID_129_" class="st0" d="M180.9,92.7c1.6,4.7,6.8,10.8,6.8,10.8s-6.3-1.2-9.3-7.9c-0.2,2.3-0.2,3.5-0.2,5.8
	c-1.7-1.2-2.3-1.4-2.6-4c0.9-3,1-5.2,1.2-7.5c0.2-1.4,0.3-2.6,0.5-4c0.2-1,0.5-2.1,0.9-3.3c0.3,1.6,0.7,3.1,1,4.7
	C179.7,89.1,180.2,91,180.9,92.7"/>
<path id="XMLID_128_" class="st0" d="M193.5,95.2c-0.2-0.3,0-1.2,0.3-1.7c0.2-0.7,0.5-1.2,0.7-1c1,0.7,1.6,1.2,2.6,1.9
	c-0.2,0.4-0.5,0.7-0.7,0.9C195.8,96,194.7,96.2,193.5,95.2"/>
<path id="XMLID_127_" class="st0" d="M201.7,98.1c-0.2,0.2-0.5,0.3-0.7,0.3c-2.4,1-2.4,0-2.1-1.6c0-0.2,0-0.3,0.2-0.5
	C200.1,95.7,202.6,96.7,201.7,98.1"/>
<path id="XMLID_126_" class="st0" d="M204.3,98c-0.7-0.2-1.2-0.9-1.4-1.6c0-0.5,0.2-0.9,0.7-1.2c0.2-0.2,0.4-0.2,0.5-0.2
	c0.7-0.2,1,0.4,0.9,1.2c0,0.5-0.2,1-0.3,1.4C204.5,97.8,204.5,97.8,204.3,98"/>
<path id="XMLID_125_" class="st0" d="M190.7,87.7c0.7-0.2,1.6-0.2,2.1-0.3c0.2,0,0.3-0.2,0.5-0.2c0.2,0,0.2,0.4,0.2,0.7
	c0,0.4-0.2,1.1,0.2,1.7v0.2c-1.1,1.2-3.7-1.4-4-1.8C190,87.8,190.4,87.7,190.7,87.7"/>
<path id="XMLID_124_" class="st0" d="M202.4,94.3c-0.9,0.2-1.7,0.2-2.4,0c-0.4-0.2-0.5-0.3-0.7-0.5c-0.2-0.2-0.2-0.5,0-0.9
	c0.2-0.2,0.3-0.3,0.3-0.5c0.4-0.5,0.7-0.7,1.1-1c1.6-1.2,2.6-0.7,4,1.7c-0.2,0.3-0.4,0.5-0.7,0.7C203.6,93.9,203.1,94.1,202.4,94.3"
	/>
<path id="XMLID_123_" class="st0" d="M196.3,86.3c0-0.3,0.2-0.7,0.3-0.9c0.9-0.9,2.8,0,4.4,2.3c0,0.2-0.2,0.5-0.3,0.7
	c-0.4,0.7-0.9,1.4-1.4,1.9c-0.5,0.3-0.9,0.5-1.2,0.9c-1.1,0.4-1.9,0.2-2.3-0.9c-0.2-0.3-0.2-0.7-0.4-1c0-0.5,0.2-1,0.2-1.6
	C195.8,87,196.1,86.6,196.3,86.3"/>
<path id="XMLID_122_" class="st0" d="M209.9,96.9c-0.2,0.2-0.5,0.3-0.7,0.5c-0.5,0.2-1,0.5-1.4,0.7c-1.1,0.3-1.6,0-1.8-1.4
	c0-0.3,0-0.9,0-1.6c0,0,0-0.2,0-0.3c0.7-0.9,1.8-1,2.8-0.7c0.4,0.2,0.9,0.5,1,0.9C210.2,95.3,210.4,96,209.9,96.9"/>
<path id="XMLID_121_" class="st0" d="M195.2,83.3c0.2,0.2,0.2,0.2,0.2,0.2C195.4,83.7,195.2,83.7,195.2,83.3"/>
<path id="XMLID_120_" class="st0" d="M176.2,67.8c0.2,0.7,0.3,1.4,0.5,2.1c0,0.3,0.2,0.5,0.2,0.7c-0.7,0.7-0.9,1-1.6,1.6
	c-0.3,0.5-0.5,0.7-0.9,1c-0.5,0.5-0.7,0.7-1.1,1.2c-0.2,0.2-0.2,0.2-0.3,0.4c0-0.2,0-0.5,0-0.7c0-0.9-0.2-1.6-0.5-2.3
	c-0.7-1.9-2.1-3-4-3.3c-0.9-0.2-1.6-0.2-2.4,0c-1.1,0.2-2.3,0.5-3.3,1.2c-1.1,0.5-2.1,1.4-3.1,2.3c-0.9,0.9-1.6,1.9-2.3,3
	c-0.2,0.2-0.3,0.3-0.3,0.7c-1.9,3.3-3.3,10.3-3.3,10.3c-0.5-0.4-0.7-0.5-1.2-0.9c0,0,0-0.3,0.2-0.7c0.2-1.4,1.4-7.3,3.1-10.6
	c0.5-1.2,1.4-2.1,2.1-3c0.9-1,10.1-12.4,16.6-5.6C175.2,65.9,175.7,66.7,176.2,67.8"/>
<path id="XMLID_119_" class="st0" d="M190.2,78.8c0.5,0,0.9,0,1.4,0c1,0,2.1,0.2,2.8,0.7c0.3,0.2,0.5,0.4,0.7,0.5
	c0.2,0.2,0.5,0.5,0.9,0.9c-0.2,0.3-0.3,0.7-0.3,1c-0.2,0.4-0.2,0.7-0.2,0.9c0,0.4-0.2,0.5-0.2,0.5c-1.6-1.4-2.4-2.1-4.2-3.7
	C190.7,79.3,190.5,79.1,190.2,78.8"/>
<path id="XMLID_118_" class="st0" d="M213.4,95.9c-0.5,0.3-1,0.5-1.4,0.5c-0.2,0-0.3-0.2-0.5-0.4c-0.2-0.4-0.2-0.9-0.2-1.6
	c0.2,0,0,0,0.2,0c-0.3-0.7-0.2-0.9,0-0.9c0.5-0.2,1.9,0.7,2.6,1.4c0,0,0,0.2-0.2,0.4C213.7,95.5,213.6,95.7,213.4,95.9"/>
<path id="XMLID_117_" class="st0" d="M208.8,90.5c-0.3,0.2-0.5,0.4-1,0.5c-0.4,0.2-0.5,0.3-0.7,0.5c-0.5,0.2-0.7,0.2-1.2,0.5
	c-0.5-1.4-1-2.1-1.4-2.4c-0.3-0.5-0.5-0.5,0-1.2c0,0,0-0.2,0.2-0.3c0.2,0,0.7,0,1.4,0.2c1.4,0.2,3.5,0.7,2.8,2.1V90.5z"/>
<path id="XMLID_116_" class="st0" d="M210.4,92.7c-0.5,0-1-0.2-1.4-0.7c0.2,0,0.2,0,0.2-0.2c0.4-0.2,0.7-0.5,0.9-0.7
	c0.7-1,0-2.1,0-2.6c-0.2-0.2-0.2-0.2,0-0.3c0.2-0.4,2.8,1.2,3.3,2.4c0,0.2,0.2,0.4,0.2,0.4c-0.7,0.5-1.2,1-1.7,1.4
	C211.3,92.6,210.9,92.7,210.4,92.7"/>
<path id="XMLID_115_" class="st0" d="M181.8,66.4c0.5-0.4,1.2-0.5,1.9-0.7c0.4,0,0.9,0,1.4,0c0.3,0,0.9,0,1.2,0.2
	c0.5,0,1.1,0.2,1.6,0.4c2.4,0.9,4.7,2.8,5.9,4.7h-0.2c-0.3,0-0.5,0-0.9,0c-0.4,0-0.9,0.2-1,0.2c-0.5,0-1,0-1.2,0.2
	c-1.2,0.3-0.4,1.2,1.7,3.5c0.7,0.9,1.7,1.9,2.8,3.3c-1.9-0.9-3.3-1.4-4.5-1.6c-0.7-0.2-1.4-0.2-1.7,0c-0.3,0.2-0.7,0.5-0.7,0.9
	c-0.2,0.3,0,1,0.4,1.7c0.5,1.4,1.9,3.1,4,5.1c-0.2,0.3-0.5,0.5-0.7,0.5c-1.4,0.3-3.8-1.6-4.9-1.9c-0.7-0.2-0.9,0.2-0.2,1.9
	c0.7,1.2,1.7,3.1,3.7,6.1c0,0.2,0,0.2,0,0c-4.9-0.2-7.5-7.1-3.8,1.7c0.4,0.9,0.7,1.7,1.2,3c-1.4-1.2-2.4-3-3.5-4.7
	c-1-1.9-1.9-4.2-2.6-6.3c-0.5-1.6-0.9-3.1-1.2-4.7c0-0.7-0.2-1.4-0.3-2.1c0-0.7-0.2-1.4-0.2-2.1c-0.2-1.2-0.3-2.4-0.3-3.5
	c0-0.7-0.2-1.2-0.2-1.7c0-0.5,0-0.9,0-1.2c0-0.2,0-0.3,0-0.5c0.2-0.2,0.3-0.5,0.5-0.7C180.4,67.2,181.1,66.7,181.8,66.4"/>
<path id="XMLID_114_" class="st0" d="M202.7,83c1-0.4,2.3-0.2,3,0.2c0.5,0.2,1,0.5,1.2,0.9c0.4,0.4,0.4,0.9,0,1.4
	c-0.2,0.2-0.2,0.4-0.4,0.4c-0.5,0.5-1.2,1-1.9,1.4c-0.5,0.2-1,0.2-1.4,0c-0.3-0.5-0.5-0.9-0.7-1.6c-0.3-0.7-0.5-1-0.9-1.9
	C201.9,83.3,202.4,83.1,202.7,83"/>
<path id="XMLID_113_" class="st0" d="M214.1,92.2c0-0.5,0.2-0.7,0.2-0.9c0.7-0.7,2.6,0.7,3.3,1.2c-0.3,0.2-0.7,0.3-0.9,0.5
	C215,93.8,214.1,92.2,214.1,92.2"/>
<path id="XMLID_112_" class="st0" d="M208.5,85.2c0-0.3,0.2-0.7,0-1.2c0.2-0.2,0-0.5,0-0.9V83c0.2,0,0.5,0,0.9,0.2
	c0.2,0,0.5,0.2,0.7,0.5c0.5,0.5,0.9,1.2,1.4,1.6h-0.2c-0.2,0.2-0.4,0.3-0.5,0.3c-0.4,0.4-0.7,0.5-0.9,0.5
	C208.7,86.4,208.5,86.1,208.5,85.2"/>
<path id="XMLID_111_" class="st0" d="M198.4,77.4c-0.4,0.3-0.5,0.5-0.9,0.9c-0.7-1-1.1-1.7-1.7-3c-0.4-0.3-0.5-0.7-0.7-1.2
	c1,0.7,1.6,1,2.6,1.7c0.5,0.3,0.9,0.5,1.4,0.9c0,0,0,0-0.2,0.2C198.7,77,198.6,77.2,198.4,77.4"/>
<path id="XMLID_110_" class="st0" d="M213,87.8c0-0.2,0.2-0.2,0.2-0.3c0.3-0.2,0.5-0.2,1-0.2c0.9,0.3,2.1,1.6,2.5,1.7h-0.2
	c-0.2,0.3-0.2,0.5-0.3,0.5c-0.4,0.5-0.7,0.5-1,0.4c-0.2,0-0.4-0.2-0.5-0.4C214.3,89.2,213.7,88.5,213,87.8"/>
<path id="XMLID_109_" class="st0" d="M202.4,78.4v0.2c0.2,0.3,0.2,0.7,0.2,1c0,0.3,0.2,0.7,0.2,1.2c-1.2,0.3-1.6,0.5-1.7,0.7
	c-0.3,0.2-0.3,0.3-2.6,0.3c-0.2-0.7,0-1.6,0.2-2.3c0.2-0.5,0.5-1,0.9-1.4c0.3-0.2,0.5-0.4,0.9-0.5c0.4,0,0.9,0,1.2,0.2
	C201.9,78.1,202,78.2,202.4,78.4"/>
<path id="XMLID_108_" class="st0" d="M204,79.1c0.2-0.7,0.5-1,1-1c1.7-0.5,4.7,0.7,3.7,2.6l-0.2,0.2c-0.2,0.3-0.9,0.7-1.4,0.5
	c-0.3,0-1-0.2-1.4-0.3c-0.7-0.4-1.2-0.7-1.4-1.1c-0.2-0.2-0.2-0.2-0.2-0.2C204,79.5,204,79.3,204,79.1"/>
<path id="XMLID_107_" class="st0" d="M209.7,81.9c0.2-0.2,0.2-0.2,0.2-0.2c0.9-0.7,0.9-1.4-0.3-2.3c1,0.2,2.4,1,3,2.3
	c-0.4,0.4-1.4,0.4-2.3,0.4C210.1,82.1,209.9,81.9,209.7,81.9"/>
<path id="XMLID_106_" class="st0" d="M214.6,85.2v0.2c-0.3,0.7-0.7,1-0.9,0.9c-0.2,0-0.3-0.2-0.5-0.2c-0.3-0.5-0.7-1.6-0.9-2.6
	c0-0.2,0-0.3,0-0.5C213.4,83.1,214.6,84,214.6,85.2"/>
<path id="XMLID_105_" class="st0" d="M216.5,62.5c-0.2-0.7-0.7-1.9-1.6-3.3c3.1,1.2,7.2,2.3,9.2,4.7c-2.1,0.7-4,0.4-5.4,0.5
	c-1.4,0-1.9,0.9-0.2,4.5c-4-1.8-10.1-3.5-4.4,3.1c-1.7-1.1-3.3-1.9-4.4-2.3c-3.8-1.6-3.8,0.3-3.1,3.8c-5.2-1.4-6.8-3.1-5.6,1.2
	c0,0.2,0,0.3,0.2,0.3c-1.2-0.2-2.6-1.9-3.8-3v-0.2c0-5.2-6.1-8.4-11-8.9c-0.9-0.2-1.7-0.2-2.4,0c-0.2,0-0.4,0-0.5,0
	c0.2,0,0.4-0.2,0.5-0.2c0.5-0.2,1.2-0.3,1.7-0.5c3.1-0.5,6.3,0.2,7.3,0.4c-0.9-0.2-2.6-0.7-6.1-2.1c2.6-1.9,22,5.8,6.8-2.3
	c0.7-0.2,1.6-0.2,2.3,0c6.8,1.2,16.2,12,5.1-1c4.5,0.9,14.1,11.3,6.8,0.5C210.9,57.8,218.4,67.1,216.5,62.5"/>
<path id="XMLID_104_" class="st0" d="M219,77c-1-0.2-2.1-0.4-3-0.7c-2.4,2.6,11,7.7,2.8,7.3c4.7,2.6,6.5,1.9,7.9,3.7
	c-2.3,0-3.5,0-5.8,0c0.4,1.6,1.9,1.9,1.9,1.9c-1,0.2-1.9,0.2-2.6,0c-1.6-0.3-2.3-1.2-2.6-1.7c-0.2-0.4-0.2-0.7-0.2-0.7
	c-1-2.3-2.1-4.4-4.2-7.3c-1.1-0.2-7.5-4.5-10-3c-0.3,0.2-0.7,0.5-0.7,0.5s0.4-0.4,0.4-0.7c0.3-1,1-2.4,6.8-0.3
	c0.4-0.5-0.9-1.4,0.9-3.1c1.6,0.7,3,1,4.5,1.2C220.2,74.6,223.3,77.2,219,77"/>
<path id="XMLID_103_" class="st0" d="M204,55.2c0.2,0.2,0.5,0.2,0.7,0.2C204,55.6,203.6,55.6,204,55.2"/>
<path id="XMLID_102_" class="st0" d="M210.6,48.4c3.5-0.2,7.3,0.3,10.8,3.3c0,0-3,2.1-2.1,2.8c2.8,1.7,7,4.5,8,8.4
	c0.2,0.4,0.2,0.7,0.2,0.9c-2.6-2.4-6.1-4.2-9.6-5.4c-3-0.9-5.9-1.6-8.7-2.1c-1.6-0.3-3.1-0.5-4.5-0.9c0.7-0.2,1.6-0.3,2.8-0.7
	c1.4-0.4,3.1-1,4.5-1.4c1.4-0.5,2.3-0.9,2.1-0.9c-0.5-0.3-1.7-0.3-3.1,0c-1.6,0.2-3.3,0.5-5.1,0.9c-4.7,1.2-9.8,3-9.2,2.1
	c0.3-0.5,2.6-1.7,7.2-3.8c0.2,0,0.2,0,0.4,0c-0.4-0.2-0.5-0.3-0.9-0.3c-2.3-0.5-6.4,1.9-10.6,4.2c-2.4,1.4-4.7,2.8-6.8,3.5
	c0.7-1.4,2.8-3.3,4.9-5.1c3.3-2.6,6.8-5.1,6.3-5.4c-1.2,0.7-4,2.4-6.8,4.9c-2.4,2.1-4.9,4.5-7,7c-0.3,0.5-0.7,0.9-1,1.2
	c-0.2,0.2-0.2,0.4-0.3,0.5c-0.2,0.2-0.4,0.4-0.4,0.5c-0.2,0.4-0.3,0.5-0.7,0.9c0,0-0.2-0.2-0.2-0.3c-0.2-0.2-0.2-0.7,0-1.1
	c0-0.3,0.2-0.5,0.3-0.7c0-0.4,0.2-0.5,0.2-0.7c0.3-0.3,0.5-0.9,0.9-1.2c1.6-2.4,4.2-5.2,6.5-7.7c1.9-2.1,3.8-3.8,4.4-4.7
	c-1.6,1-3.3,2.4-5.1,4.2c-2.4,2.3-4.9,5.1-6.8,7.3c-0.3,0.4-0.7,0.7-1,1c-0.2,0.2-0.3,0.4-0.3,0.5c-0.2,0.2-0.5,0.3-0.5,0.5
	c-0.2,0-0.2,0.2-0.3,0.2c-0.3-0.2-0.5-0.5-0.5-0.9c0-0.4,0-0.5,0.2-0.9c0-0.3,0-0.5,0.2-0.7c0.2-0.3,0.4-0.9,0.7-1.4
	c1.6-2.3,4.2-4.9,6.6-7.5c1.4-1.4,2.6-2.8,3.5-4c-1.4,1.2-2.8,2.3-4.2,3.5c-2.8,2.3-5.4,4.7-7.2,7c-0.2,0.5-0.5,1-0.7,1.4
	c-0.2,0.2-0.2,0.4-0.3,0.5c0,0.3-0.2,0.5-0.2,0.9c-0.2,0.2-0.2,0.2-0.2,0.3c0-0.2-0.2-0.3-0.2-0.7c0-0.3-0.2-0.7-0.2-1
	c-0.2-0.3-0.2-0.7-0.2-1c-0.2-0.7-0.2-1.6-0.3-2.3c-0.4-4.4,1-8.4,2.8-11.2c0.5-0.9,1.1-1.6,1.7-2.3c0.9,1.6,0.2,5.2,3.3,4.7
	c-0.2-0.7,2.6-4.7,5.6-7c0.9-0.7,1.7-1.2,2.4-1.4c0,0.2-1,0.9-1.9,1.9c-1.2,1.4-2.4,3.1-1.2,4.2c1.4,0,2.8-0.9,4-1.6
	c1.6-0.9,3-1.7,4.4-1.7c0.7,0,1.2,0,1.9,0.3c-0.2,0.2-0.5,0.5-0.7,0.7c-0.9,1.2-1.7,2.6-2.3,3.7c-0.4,0.9-0.4,1.6,0,2.1
	c0.7-0.4,1-0.4,1.6-0.7c1.7-0.7,2.6-1,4.4-1.8c1-0.3,1.6-0.7,2.8-1c0,0.7-0.7,1.7-0.9,3c0,0.4,0,0.9,0.4,1.2c0.3,0,0.5-0.2,0.9-0.2
	c1.2-0.5,1.8-0.7,3-1c1-0.4,1.6-0.5,2.6-0.9c-0.5,0.7-1.2,1-1.9,1.6c-0.5,0.5-1,1.2-1,2.1C208.5,48.6,209.4,48.6,210.6,48.4"/>
<path id="XMLID_101_" class="st0" d="M53.2,83.5c-0.3-1.4-1-2.3-1.7-3.3c-0.5-0.5-1-1.2-1.7-1.7c0.2,0.7,0.5,1.7,0.7,2.6
	c0.3,1.2,0.7,2.4,1,3.8c0.3,1,0.5,2.4,0.7,3.7c0.3,1.7,0.5,3.5,0.7,5.1c0.5,2.8,0.9,4.4,1.4,7.2c0,0-0.2-5.1,0.5-5.9
	c0.7-0.9,2.3,1.9,2.3,1.9c0.3-2.6-2.3-7.5,3-1.4c-1.6-5.1-1-7.7,2.4-3.3c-1.7-4.2-6.1-8.7-1.1-6.3c-0.9-0.9-1.4-1.4-2.3-2.4
	c-0.9-1-1.4-1.6-2.4-2.4c0.4,1.7,0.5,3.1,0.5,4c0.2,1,0,1.4-0.5,1.4c0-0.3,0-0.7,0-1.1c-0.2-1.4-0.5-2.6-0.9-3.7
	c-0.4-1.4-0.9-2.4-1.6-3.5c-0.5-0.9-1.1-1.7-1.7-2.4c-0.3-0.3-0.7-0.7-1-1.2c-0.2-0.3-0.5-0.5-0.9-1c-0.2,0-0.2,0-0.2-0.2
	c0,0.2,0,0.2,0,0.4c0.2,0.5,0.5,0.9,0.7,1.2c0.2,0.5,0.3,1,0.5,1.4c0.5,1.2,0.9,2.1,1.2,3c0.7,1.4,1,2.6,1.2,3.7
	c0.3,1.6,0.3,2.8,0.2,4.4c0,0.4,0,0.7-0.2,1.1c0-0.4,0-0.7,0-0.9C53.9,85.7,53.6,84.5,53.2,83.5"/>
<path id="XMLID_100_" class="st0" d="M46.6,92.7c-1.6,4.7-6.8,10.8-6.8,10.8s6.1-1.2,9.2-7.9c0.2,2.3,0.2,3.5,0.2,5.8
	c1.7-1.2,2.3-1.4,2.6-4c-0.9-3-1-5.2-1.2-7.5c-0.2-1.4-0.3-2.6-0.5-4c-0.2-1-0.5-2.1-0.9-3.3c-0.3,1.6-0.7,3.1-1,4.7
	C47.8,89.1,47.3,91,46.6,92.7"/>
<path id="XMLID_99_" class="st0" d="M34,95.2c0.2-0.3,0-1.2-0.3-1.7c-0.2-0.7-0.5-1.2-0.7-1c-1.1,0.7-1.6,1.2-2.6,1.9
	c0.2,0.4,0.5,0.7,0.7,0.9C31.7,96,32.6,96.2,34,95.2"/>
<path id="XMLID_98_" class="st0" d="M25.8,98.1c0.2,0.2,0.5,0.3,0.7,0.3c2.4,1,2.4,0,2.1-1.6c0-0.2-0.2-0.3-0.2-0.5
	C27.4,95.7,24.9,96.7,25.8,98.1"/>
<path id="XMLID_97_" class="st0" d="M23.2,98c0.7-0.2,1.2-0.9,1.4-1.6c0-0.5-0.2-0.9-0.7-1.2C23.7,95,23.5,95,23.4,95
	c-0.9-0.2-1,0.4-1,1.2c0.2,0.5,0.3,1,0.5,1.4C23,97.8,23,97.8,23.2,98"/>
<path id="XMLID_96_" class="st0" d="M36.6,87.7c-0.5-0.2-1.4-0.2-1.9-0.3c-0.2,0-0.4-0.2-0.5-0.2c-0.2,0-0.2,0.4-0.2,0.7
	c0,0.4,0.2,1.1-0.2,1.7v0.2c1,1.2,3.7-1.4,4-1.8C37.5,87.8,37.2,87.7,36.6,87.7"/>
<path id="XMLID_95_" class="st0" d="M25.1,94.3c0.9,0.2,1.7,0.2,2.4,0c0.3-0.2,0.5-0.3,0.7-0.5c0.2-0.2,0.2-0.5,0-0.9
	c-0.2-0.2-0.4-0.3-0.5-0.5c-0.2-0.5-0.5-0.7-0.9-1c-1.6-1.2-2.6-0.7-4,1.7c0.2,0.3,0.4,0.5,0.7,0.7C23.9,93.9,24.4,94.1,25.1,94.3"
	/>
<path id="XMLID_94_" class="st0" d="M31.2,86.3c0-0.3-0.2-0.7-0.3-0.9c-0.9-0.9-3,0-4.5,2.3c0.2,0.2,0.3,0.5,0.3,0.7
	c0.5,0.7,1,1.4,1.6,1.9c0.5,0.3,0.9,0.5,1.2,0.9c1,0.4,1.9,0.2,2.3-0.9c0.2-0.3,0.2-0.7,0.4-1c0-0.5-0.2-1-0.2-1.6
	C31.7,87,31.4,86.6,31.2,86.3"/>
<path id="XMLID_93_" class="st0" d="M17.6,96.9c0.2,0.2,0.5,0.3,0.7,0.5c0.5,0.2,1.1,0.5,1.4,0.7c1.1,0.3,1.6,0,1.7-1.4
	c0-0.3,0-0.9,0-1.6c0,0,0-0.2,0-0.3c-0.7-0.9-1.7-1-2.8-0.7c-0.5,0.2-0.9,0.5-1.1,0.9C17.3,95.3,17.1,96,17.6,96.9"/>
<path id="XMLID_92_" class="st0" d="M32.3,83.3c-0.2,0.2-0.2,0.2-0.2,0.2C32.1,83.7,32.3,83.7,32.3,83.3"/>
<path id="XMLID_91_" class="st0" d="M51.3,67.8c-0.2,0.7-0.3,1.4-0.5,2.1c0,0.3-0.2,0.5-0.2,0.7c0.7,0.7,0.9,1,1.6,1.6
	c0.3,0.5,0.5,0.7,0.9,1c0.5,0.5,0.7,0.7,1.1,1.2c0.2,0.2,0.2,0.2,0.3,0.4c0-0.2,0-0.5,0-0.7c0-0.9,0.2-1.6,0.5-2.3
	c0.7-1.9,2.1-3,4-3.3c0.9-0.2,1.6-0.2,2.4,0c1.1,0.2,2.3,0.5,3.3,1.2c1,0.5,2.1,1.4,3.1,2.3c0.9,0.9,1.6,1.9,2.3,3
	c0.2,0.2,0.3,0.3,0.3,0.7c1.9,3.3,3.3,10.3,3.3,10.3c0.5-0.4,0.7-0.5,1.2-0.9c0,0-0.2-0.3-0.2-0.7c-0.2-1.4-1.4-7.3-3.1-10.6
	c-0.5-1.2-1.4-2.1-2.1-3c-0.9-1-10.1-12.4-16.6-5.6C52.3,65.9,51.8,66.7,51.3,67.8"/>
<path id="XMLID_90_" class="st0" d="M37.3,78.8c-0.5,0-0.9,0-1.4,0c-1,0-2.1,0.2-2.8,0.7c-0.3,0.2-0.5,0.4-0.7,0.5
	c-0.4,0.2-0.5,0.5-0.9,0.9c0.2,0.3,0.3,0.7,0.3,1c0.2,0.4,0.2,0.7,0.2,0.9c0,0.4,0,0.5,0.2,0.5c1.6-1.4,2.4-2.1,4-3.7
	C36.8,79.3,37,79.1,37.3,78.8"/>
<path id="XMLID_89_" class="st0" d="M14.1,95.9c0.5,0.3,1,0.5,1.4,0.5c0.2,0,0.3-0.2,0.5-0.4c0.2-0.4,0.2-0.9,0-1.6
	c0.4-0.7,0.2-0.9,0-0.9c-0.5-0.2-1.9,0.7-2.8,1.4c0.2,0,0.2,0.2,0.2,0.4C13.6,95.5,14,95.7,14.1,95.9"/>
<path id="XMLID_88_" class="st0" d="M18.7,90.5c0.3,0.2,0.5,0.4,1,0.5c0.2,0.2,0.4,0.3,0.7,0.5c0.5,0.2,0.7,0.2,1,0.5
	c0.7-1.4,1.2-2.1,1.6-2.4c0.4-0.5,0.5-0.5,0-1.2c0,0,0-0.2-0.2-0.3c-0.2,0-0.7,0-1.4,0.2c-1.4,0.2-3.5,0.7-2.8,2.1V90.5z"/>
<path id="XMLID_87_" class="st0" d="M17.1,92.7c0.5,0,1-0.2,1.4-0.7c-0.2,0-0.2,0-0.2-0.2c-0.5-0.2-0.7-0.5-0.9-0.7
	c-0.7-1,0-2.1,0-2.6c0.2-0.2,0.2-0.2,0-0.3c-0.2-0.4-2.8,1.2-3.3,2.4C14,90.8,14,91,14,91c0.5,0.5,1.2,1,1.7,1.4
	C16.2,92.6,16.6,92.7,17.1,92.7"/>
<path id="XMLID_86_" class="st0" d="M45.7,66.4c-0.5-0.4-1.2-0.5-1.9-0.7c-0.3,0-0.9,0-1.4,0c-0.3,0-0.9,0-1.2,0.2
	c-0.5,0-1,0.2-1.6,0.4c-2.4,0.9-4.7,2.8-5.9,4.7c0,0,0,0,0.2,0c0.3,0,0.5,0,0.9,0c0.3,0,0.7,0.2,1,0.2c0.5,0,0.9,0,1.2,0.2
	c1.2,0.3,0.3,1.2-1.7,3.5c-0.7,0.9-1.7,1.9-2.8,3.3c1.9-0.9,3.3-1.4,4.5-1.6c0.7-0.2,1.4-0.2,1.7,0c0.3,0.2,0.7,0.5,0.7,0.9
	c0.2,0.3,0,1-0.3,1.7c-0.5,1.4-1.9,3.1-4,5.1c0.2,0.3,0.4,0.5,0.7,0.5c1.4,0.3,3.8-1.6,4.9-1.9c0.7-0.2,0.9,0.2,0.2,1.9
	c-0.7,1.2-1.7,3.1-3.7,6.1c0,0.2,0,0.2,0,0c4.9-0.2,7.5-7.1,3.8,1.7c-0.3,0.9-0.7,1.7-1.2,3c1.4-1.2,2.4-3,3.5-4.7
	c1-1.9,1.9-4.2,2.6-6.3c0.5-1.6,0.9-3.1,1.2-4.7c0-0.7,0.2-1.4,0.4-2.1c0-0.7,0.2-1.4,0.2-2.1c0.2-1.2,0.3-2.4,0.3-3.5
	c0-0.7,0.2-1.2,0.2-1.7c0-0.5,0-0.9,0-1.2c0-0.2,0-0.3,0-0.5c-0.2-0.2-0.3-0.5-0.5-0.7C47.1,67.2,46.4,66.7,45.7,66.4"/>
<path id="XMLID_85_" class="st0" d="M24.8,83c-1-0.4-2.3-0.2-3,0.2c-0.5,0.2-1,0.5-1.2,0.9c-0.4,0.4-0.4,0.9,0,1.4
	c0.2,0.2,0.2,0.4,0.3,0.4c0.4,0.5,1.2,1,1.9,1.4c0.5,0.2,1,0.2,1.4,0c0.3-0.5,0.3-0.9,0.7-1.6c0.4-0.7,0.5-1,0.9-1.9
	C25.6,83.3,25.1,83.1,24.8,83"/>
<path id="XMLID_84_" class="st0" d="M13.4,92.2c0-0.5-0.2-0.7-0.2-0.9c-0.7-0.7-2.6,0.7-3.3,1.2c0.4,0.2,0.7,0.3,0.9,0.5
	C12.6,93.8,13.4,92.2,13.4,92.2"/>
<path id="XMLID_83_" class="st0" d="M19,85.2c-0.2-0.3-0.2-0.7-0.2-1.2c0-0.2,0.2-0.5,0.2-0.9V83c-0.3,0-0.5,0-0.9,0.2
	c-0.2,0-0.5,0.2-0.7,0.5c-0.5,0.5-0.9,1.2-1.4,1.6h0.2c0.2,0.2,0.3,0.3,0.5,0.3c0.3,0.4,0.7,0.5,0.9,0.5C18.8,86.4,19,86.1,19,85.2"
	/>
<path id="XMLID_82_" class="st0" d="M29.1,77.4c0.4,0.3,0.5,0.5,0.9,0.9c0.7-1,1-1.7,1.7-3c0.4-0.3,0.5-0.7,0.7-1.2
	c-1.1,0.7-1.6,1-2.6,1.7c-0.5,0.3-0.9,0.5-1.4,0.9c0,0,0,0,0,0.2C28.8,77,29,77.2,29.1,77.4"/>
<path id="XMLID_81_" class="st0" d="M14.5,87.8c0-0.2-0.2-0.2-0.2-0.3c-0.4-0.2-0.5-0.2-1-0.2c-0.9,0.3-2.1,1.6-2.4,1.7H11
	c0.2,0.3,0.2,0.5,0.3,0.5c0.3,0.5,0.7,0.5,1,0.4c0.2,0,0.3-0.2,0.5-0.4C13.3,89.2,13.8,88.5,14.5,87.8"/>
<path id="XMLID_80_" class="st0" d="M25.1,78.4c0,0,0,0.2-0.2,0.2c0,0.3,0,0.7,0,1c0,0.3-0.2,0.7-0.2,1.2c1.2,0.3,1.4,0.5,1.7,0.7
	c0.3,0.2,0.3,0.3,2.6,0.3c0.2-0.7,0-1.6-0.2-2.3c-0.2-0.5-0.5-1-0.9-1.4c-0.3-0.2-0.5-0.4-0.9-0.5c-0.3,0-0.9,0-1.2,0.2
	C25.6,78.1,25.5,78.2,25.1,78.4"/>
<path id="XMLID_79_" class="st0" d="M23.5,79.1c-0.2-0.7-0.5-1-1-1c-1.7-0.5-4.7,0.7-3.7,2.6l0.2,0.2c0.2,0.3,0.9,0.7,1.4,0.5
	c0.4,0,1-0.2,1.4-0.3c0.7-0.4,1.2-0.7,1.4-1.1c0.2-0.2,0.2-0.2,0.2-0.2C23.4,79.5,23.5,79.3,23.5,79.1"/>
<path id="XMLID_78_" class="st0" d="M17.8,81.9c-0.2-0.2-0.2-0.2-0.2-0.2c-0.9-0.7-0.9-1.4,0.4-2.3c-1,0.2-2.4,1-3,2.3
	c0.3,0.4,1.4,0.4,2.1,0.4C17.4,82.1,17.6,81.9,17.8,81.9"/>
<path id="XMLID_77_" class="st0" d="M12.9,85.2v0.2c0.3,0.7,0.7,1,0.9,0.9c0.2,0,0.4-0.2,0.4-0.2c0.3-0.5,0.9-1.6,1-2.6
	c0-0.2,0-0.3,0-0.5C14.1,83.1,12.9,84,12.9,85.2"/>
<path id="XMLID_76_" class="st0" d="M11,62.5c0.2-0.7,0.7-1.9,1.6-3.3c-3.1,1.2-7.2,2.3-9.2,4.7c2.1,0.7,4,0.4,5.4,0.5
	c1.4,0,1.9,0.9,0.2,4.5c4-1.8,9.9-3.5,4.4,3.1c1.7-1.1,3.1-1.9,4.4-2.3c3.7-1.6,3.8,0.3,3.1,3.8c5.2-1.4,6.8-3.1,5.6,1.2
	c0,0.2,0,0.3-0.2,0.3c1.2-0.2,2.6-1.9,3.8-3v-0.2c0-5.2,6.1-8.4,11-8.9c0.9-0.2,1.6-0.2,2.4,0c0.2,0,0.3,0,0.5,0
	c-0.2,0-0.3-0.2-0.5-0.2c-0.5-0.2-1.2-0.3-1.7-0.5c-3.1-0.5-6.3,0.2-7.3,0.4c0.9-0.2,2.6-0.7,6.1-2.1c-2.6-1.9-22,5.8-6.8-2.3
	c-0.7-0.2-1.6-0.2-2.3,0c-6.8,1.2-16.2,12-5.1-1c-4.5,0.9-14.1,11.3-6.8,0.5C16.6,57.8,9.1,67.1,11,62.5"/>
<path id="XMLID_75_" class="st0" d="M8.5,77c1-0.2,2.1-0.4,3-0.7c2.4,2.6-11,7.7-2.8,7.3c-4.7,2.6-6.5,1.9-7.8,3.7
	c2.3,0,3.5,0,5.8,0c-0.4,1.6-1.9,1.9-1.9,1.9c1,0.2,1.9,0.2,2.6,0c1.6-0.3,2.3-1.2,2.4-1.7c0.3-0.4,0.3-0.7,0.3-0.7
	c1-2.3,2.1-4.4,4-7.3c1.2-0.2,7.7-4.5,10.1-3c0.2,0.2,0.5,0.5,0.5,0.5s-0.2-0.4-0.2-0.7c-0.3-1-1-2.4-7-0.3
	c-0.2-0.5,1.1-1.4-0.7-3.1c-1.6,0.7-3.1,1-4.5,1.2C7.3,74.6,4.2,77.2,8.5,77"/>
<path id="XMLID_74_" class="st0" d="M23.5,55.2c-0.2,0.2-0.5,0.2-0.7,0.2C23.5,55.6,23.9,55.6,23.5,55.2"/>
<path id="XMLID_73_" class="st0" d="M16.9,48.4c-3.7-0.2-7.3,0.3-10.8,3.3c0,0,3,2.1,2.1,2.8c-3,1.7-7,4.5-8,8.4
	C0,63.2,0,63.6,0,63.8c2.6-2.4,6.1-4.2,9.6-5.4c3-0.9,5.9-1.6,8.7-2.1c1.6-0.3,3.1-0.5,4.5-0.9c-0.7-0.2-1.7-0.3-2.8-0.7
	c-1.4-0.4-3.1-1-4.5-1.4c-1.4-0.5-2.3-0.9-2.1-0.9c0.5-0.3,1.6-0.3,3.1,0c1.4,0.2,3.3,0.5,5.1,0.9c4.7,1.2,9.8,3,9.2,2.1
	c-0.4-0.5-2.6-1.7-7.2-3.8c-0.2,0-0.3,0-0.3,0c0.2-0.2,0.5-0.3,0.9-0.3c2.3-0.5,6.5,1.9,10.6,4.2c2.4,1.4,4.7,2.8,6.8,3.5
	c-0.7-1.4-2.8-3.3-4.9-5.1c-3.3-2.6-6.8-5.1-6.3-5.4c1.2,0.7,4,2.4,6.8,4.9c2.4,2.1,4.9,4.5,7,7c0.4,0.5,0.7,0.9,1.1,1.2
	c0.2,0.2,0.2,0.4,0.4,0.5c0.2,0.2,0.3,0.4,0.3,0.5c0.2,0.4,0.3,0.5,0.7,0.9c0,0,0.2-0.2,0.2-0.3c0.2-0.2,0.2-0.7,0-1.1
	c0-0.3-0.2-0.5-0.4-0.7c0-0.4-0.2-0.5-0.2-0.7c-0.3-0.3-0.5-0.9-0.9-1.2c-1.6-2.4-4.2-5.2-6.5-7.7c-1.9-2.1-3.8-3.8-4.4-4.7
	c1.6,1,3.3,2.4,5.1,4.2c2.4,2.3,4.9,5.1,6.8,7.3c0.4,0.4,0.7,0.7,1,1c0.2,0.2,0.2,0.4,0.3,0.5c0.2,0.2,0.5,0.3,0.5,0.5
	c0.2,0,0.2,0.2,0.4,0.2c0.3-0.2,0.5-0.5,0.5-0.9c0-0.4,0-0.5-0.2-0.9c0-0.3,0-0.5-0.2-0.7c-0.2-0.3-0.3-0.9-0.7-1.4
	c-1.6-2.3-4.2-4.9-6.6-7.5c-1.4-1.4-2.6-2.8-3.5-4c1.4,1.2,2.8,2.3,4.2,3.5c2.8,2.3,5.4,4.7,7.2,7c0.2,0.5,0.5,1,0.7,1.4
	c0.2,0.2,0.2,0.4,0.3,0.5c0,0.3,0.2,0.5,0.2,0.9c0.2,0.2,0.2,0.2,0.2,0.3c0-0.2,0.2-0.3,0.2-0.7c0-0.3,0.2-0.7,0.2-1
	c0.2-0.3,0.2-0.7,0.2-1c0.2-0.7,0.2-1.6,0.3-2.3c0.4-4.4-1-8.4-2.8-11.2c-0.5-0.9-1-1.6-1.7-2.3c-0.9,1.6-0.2,5.2-3.3,4.7
	c0.2-0.7-2.6-4.7-5.6-7c-0.9-0.7-1.7-1.2-2.4-1.4c0,0.2,1,0.9,1.9,1.9c1.2,1.4,2.4,3.1,1.2,4.2c-1.4,0-2.8-0.9-4-1.6
	c-1.6-0.9-3-1.7-4.4-1.7c-0.7,0-1.2,0-1.9,0.3c0.2,0.2,0.3,0.5,0.7,0.7c0.7,1.2,1.7,2.6,2.3,3.7c0.4,0.9,0.4,1.6-0.2,2.1
	c-0.5-0.4-0.9-0.4-1.4-0.7c-1.7-0.7-2.6-1-4.4-1.8c-1-0.3-1.6-0.7-2.8-1c0,0.7,0.7,1.7,0.9,3c0,0.4,0,0.9-0.4,1.2
	c-0.3,0-0.5-0.2-0.9-0.2c-1.2-0.5-1.7-0.7-3-1c-1-0.4-1.6-0.5-2.6-0.9c0.5,0.7,1.2,1,1.9,1.6c0.5,0.5,1.1,1.2,1.1,2.1
	C19,48.6,18,48.6,16.9,48.4"/>
<path id="XMLID_72_" class="st0" d="M113.6,122.4C64.6,101.3,55.5,61.8,56,22.2c20.1-4.9,39.4-11.7,57.6-20.8
	c18.5,9.1,37.7,15.9,57.9,20.8C172,61.8,163,101.3,113.6,122.4"/>
<path id="XMLID_71_" class="st1" d="M113.6,116.6c-44.3-19-52.7-54.8-52.2-90.7c18.3-4.4,35.8-10.5,52.2-18.7
	c16.7,8.2,34.2,14.3,52.5,18.7C166.6,61.8,158.3,97.6,113.6,116.6z"/>
<path id="XMLID_70_" class="st2" d="M113.6,116.6c-44.3-19-52.7-54.8-52.2-90.7c18.3-4.4,35.8-10.5,52.2-18.7
	c16.7,8.2,34.2,14.3,52.5,18.7C166.6,61.8,158.3,97.6,113.6,116.6z"/>
<path id="XMLID_69_" class="st3" d="M113.7,7.9c-16.4,8-33.7,14.1-51.6,18.5c-0.5,35.8,7.7,71.4,51.6,90.4V7.9z"/>
<path id="XMLID_68_" class="st4" d="M113.7,7.9c-16.4,8-33.7,14.1-51.6,18.5c-0.5,35.8,7.7,71.4,51.6,90.4V7.9z"/>
<path id="XMLID_65_" class="st5" d="M165.4,29.4c0,30.7-6.8,67.2-51.8,86.5C68.9,96.6,62.1,60.1,62.1,29.4c0-1,0-1.9,0-3
	C80.3,22.2,97.7,16,113.6,7.9c16.2,8,33.7,14.1,51.8,18.5C165.4,27.5,165.4,28.3,165.4,29.4 M166.3,25.2
	c-18.5-4.4-36-10.6-52.4-18.7l-0.3-0.2l-0.2,0.2c-16.2,8-33.8,14.3-52.2,18.7l-0.5,0.2v0.5c0,0.9,0,1.6,0,2.4v2.3
	c0.2,30.9,7.3,67.3,52.7,86.7l0.2,0.2l0.3-0.2c20.8-8.9,35.1-21.8,43.4-39.4c6.5-13.3,9.4-29,9.4-49c0-0.9,0-1.9,0-3v-0.5
	L166.3,25.2z"/>
<path id="XMLID_64_" class="st0" d="M90.7,25.4c-0.2,0-0.3,0.2-0.5,0.2c-0.3,0.2-0.7,0.3-0.9,0.5c-1,0.9-0.9,2.1-0.5,2.4
	c0.3,0.3,1.2-0.2,1.4-0.9c1.1,0.5-0.7,2.4-2.3,1.4c-1.4-1,0-4.5,2.8-5.4C91.1,23.6,90.9,25.4,90.7,25.4"/>
<path id="XMLID_63_" class="st0" d="M81.5,37.4c0.2,0,0.7-1,0.9-1c0,0,2.3,1.9,2.4,3.8c-0.2,0.2,0.3,0.3-0.5,0.2
	c-0.2-0.2-2.1-2.3-2.3-2.3c-0.2,0,0.4,1.2,0.2,1.2c-0.2,0-1.6-1.6-1.7-1.6c-0.2,0,0.7,1.2,0.5,1.2c-0.7-0.2-3.1-1.2-4.9-1.2
	c0,0,2.8,1.1,3.5,1.2c0.2,0-2.8,0.7-2.6,0.7c0.2,0.2,2.6-0.5,5.1,0.3l-0.9,0.3c0.2,0.2,1.9,0.5,2.1,0.7c-0.3,1.9-5.8,2.3-7,3.1
	c0.5,0,4.2-0.5,4.4-0.4c0,0.2-4.5,1.7-4.5,1.9c-0.2,0.2,2.6-0.7,3.1-0.5c0.2,0-1.7,1.2-2.8,2.3c-0.2,0,1.9-0.5,1.7-0.5
	c-1.2,1.9-1.7,4-1.7,4.7c-0.2,0.2,0,0.7-0.2,0.5c0,0-0.7-0.9-0.9-2.6c0-0.2-0.9,0.7-0.9,0.5c0-0.7,0.7-1.9,0.9-2.8
	c-0.5,0-1.2,1.4-1.4,1.2c0-0.2,1-3.1,1-3.3c-0.2-0.2-1.7,1-1.7,0.7c0-0.4,1.7-2.3,1.6-2.4c-0.2,0-1.4-0.7-1.6-1.2
	c0.2-0.3,5.9,0.9,6.3-0.3c1-2.8-4.7-0.4-4.5-0.7c0.3-0.5,0-1.4,0.3-1.8c0-0.2-1.4,0.4-1.7,0c0.2-0.2,0.9-1,1.4-1.6
	c0.2,0.2-2.1-1.1-2.1-1.4c0-0.4,2.6,0.2,3,0.3c0.3,0-0.2-1.4,0.2-1.2c0.4,0.2,1.6,1,1.9,1.2c0.7,0.2-0.2-1.4,0.2-1.4
	c0.5-0.2,1.6,2.1,1.9,1c0.4-0.7-0.2-0.9,0.2-1C80.6,35.5,81.3,37.4,81.5,37.4"/>
<path id="XMLID_62_" class="st0" d="M90,42.7c0.2,0.2-1-0.2-1,0.2c0.5,0.7,1,1.7,1,2.5c-0.2,0.3-1.2-1.2-1.4-0.9
	c-0.2,0.7,2.1,2.8,1.6,3.3c-0.3,0.2-1.4-0.5-1.6-0.9c0,0,0.7,1.6,0.7,2.3l-1.2-0.9c0.2,1.2-0.2,2.4-0.4,2.6c0,0.9-0.9-3.1-0.9-2.3
	c-0.2,0.2-0.7,1.2-0.9,1.2c-0.3-0.4,0-1,0.2-1.6c0-0.3-1,0.2-1.2,0c0-0.2,0.5-0.9,0.7-1c0-0.7,0.2-1.6-1.2-1.4
	c-2.8,0.3,0.5,2.6-0.2,3.8c-0.2,0.2-1.7-1.4-1.7-1.4c-0.7,0.5,0.5,1,0,1.7c-0.2,0.2-1.2-1.2-1-1.2L81,50.3l-0.7-1.4
	c-0.7,1-0.4,1.7-0.7,3c-0.2,0.2-0.5-1.6-0.7-1.6c-0.2,0.3-2.1,2.1-2.3,1.9c0.5-1.4,1.4-3.5,2.1-4.5c0.2-0.2,0.2,1.6,0.3,1.4
	c0.5-0.7,0.3-2.3,1.2-3.1c0.2-0.4,0.2,1.7,0.5,1.6c0.2-0.4,0.5-3.5,0.9-3.7c0.2-0.2,0.3,2.8,0.5,2.8c0.2-0.2,0-4,2.6-4.7
	c0-0.2,0.2,1.4,0.3,1.6c0,0.2,0.3-0.5,0.3-0.4c0.2,0.2,1.6,4.4,1.7,4.4c0.2-0.2-0.9-4.2-0.9-4.5c0,0,1.2,1.7,1.4,1.7
	c0.2,0-1.6-3-1.6-3c0-0.2,2.3,1.7,2.3,1.6c-0.5-1-2.4-2.4-2.4-2.4C86.5,40,89.9,42.3,90,42.7"/>
<path id="XMLID_61_" class="st0" d="M101.2,69.7c-0.2,0-0.4-1.7-0.5-1.7c-0.2,0-2.3,2.8-1.9,4.7c0,0,0.9,1.2,1.4,0.7
	c0.2,0,1.7-2.6,1.7-2.6c0.2-0.2,0,1.2,0.2,1.2c0.2,0,1.2-1.8,1.4-1.9c0.2,0-0.5,1.4-0.3,1.4c0.7-0.3,2.8-2.1,4.5-2.3
	c0,0-2.6,1.6-3.1,1.9c-0.2,0,2.8,0,2.6,0.2c0,0-2.6,0-4.7,1.2c-0.2,0.2,0.9,0.2,0.7,0.3c0,0.2-1.7,0.9-1.7,1
	c0.7,1.9,6.3,1.1,7.5,1.6c-0.5,0-4.2,0.4-4.2,0.5c0,0.2,4.7,0.7,4.7,0.9c0.2,0.2-2.6,0-3.1,0.4c-0.2,0,1.9,0.7,3.1,1.4
	c0.2,0.2-1.9,0-1.7,0c1.6,1.6,2.6,3.5,2.8,4.2c0,0.2,0.2,0.7,0.2,0.5c0,0,0.5-1.2,0.2-2.8c0-0.2,1,0.3,1,0.2c-0.2-0.7-1-1.6-1.4-2.4
	c0.5-0.2,1.6,1,1.6,0.9c0-0.2-1.6-2.8-1.6-3c0-0.2,1.7,0.5,1.7,0.4c-0.2-0.4-2.3-1.9-2.1-1.9c0-0.2,1-1,1.2-1.6
	c-0.2-0.5-5.6,2.1-6.3,0.9c-1.6-2.4,4.5-1.4,4.4-1.6c-0.5-0.5-0.3-1.4-0.7-1.7c-0.2-0.2,1.4,0.2,1.6-0.2c-0.2-0.2-1.1-1-1.6-1.4
	c-0.2,0.2,1.9-1.4,1.7-1.8c-0.2-0.3-2.6,0.7-2.8,0.9c-0.4,0.2-0.2-1.2-0.5-1c-0.3,0.2-1.4,1.4-1.6,1.6c-0.2,0-0.2-1.4-0.5-1.4
	c-0.5,0-1.2,1.4-1.7,1.6c-0.3,0,0.5-1.6,0.2-1.6C103.1,67.2,101.2,69.7,101.2,69.7"/>
<path id="XMLID_60_" class="st0" d="M95.3,76.9c0,0.2,1-0.3,0.9,0c-0.2,0.9-0.5,1.9-0.2,2.6c0.2,0.4,0.9-1.4,1-1
	c0.2,0.5-1.4,3.1-0.9,3.5c0.4,0,1.2-0.9,1.4-1.2c0,0-0.3,1.6-0.2,2.4c0,0,0.9-1.2,0.9-1c0.3,1.2,0.9,2.3,1,2.3
	c0.2,0.9,0.2-3.1,0.4-2.3c0.2,0.2,0.9,0.9,0.9,0.9c0.3-0.4-0.2-0.9-0.3-1.4c-0.2-0.5,1,0,1-0.3c0,0-0.7-0.7-0.9-0.9
	c-0.2-0.5-0.3-1.4,0.9-1.6c3-0.2,0.2,2.8,1,3.7c0.2,0.2,1.4-1.8,1.4-1.8c0.7,0.4-0.2,1.2,0.3,1.8c0.2,0.2,1-1.4,0.7-1.4l0.9,1.4
	l0.3-1.6c1,0.9,0.7,1.7,1.4,2.8c0.2,0.2,0.2-1.6,0.4-1.7c0.3,0.4,2.6,1.7,2.6,1.4c-0.9-1.2-2.1-3-3.1-4c-0.2-0.2,0.3,1.7,0,1.4
	c-0.5-0.3-0.9-2.1-1.7-2.8c-0.3-0.2,0.2,1.9-0.2,1.8c-0.3-0.2-1.4-3.1-1.7-3.3c-0.2-0.2,0.4,2.8,0.2,2.8c-0.3-0.2-0.9-4-3.5-4
	c-0.2-0.2,0,1.4,0,1.6c0,0.2-0.4-0.5-0.5-0.3c0,0.2-0.5,4.7-0.7,4.7c0,0,0-4.2,0-4.5c0,0-0.9,2.1-1,1.9c-0.2,0,0.9-3.1,0.9-3.1
	c0-0.2-1.7,2.1-1.7,1.9c0.2-1.2,1.7-2.8,1.7-2.8C98.1,73.7,95.4,76.5,95.3,76.9"/>
<path id="XMLID_59_" class="st0" d="M86.9,75.6c0,0.5-0.5,0.9-0.3,1.4c-0.3,0.5,0.3,1-0.2,1.6c-0.4,0-0.9,0-1.1-0.3
	c0-0.9-0.2-1.9,0.7-2.4c0.2-0.2,0.7-1,1.1-0.9L86.9,75.6z"/>
<path id="XMLID_58_" class="st0" d="M80.3,62.9c0,0,0,0.2,0,0.4c-0.2,0.5-1.7,1.2-2.1,1c-0.3-0.2-0.5-1-0.5-1.8
	c0-0.5,1.2-0.7,1.7-0.3C79.7,62.5,80.1,62.4,80.3,62.9"/>
<path id="XMLID_57_" class="st0" d="M85.7,64.6c0,0,0,0-0.2,0.4c-0.2,0.5,0.9,1.9,1,1.9c0.3,0.2,1-0.5,1.4-1.1
	c0.3-0.5-0.5-1.2-1.2-1.2C86.4,64.5,86.2,64.3,85.7,64.6"/>
<path id="XMLID_56_" class="st0" d="M78.7,67.2c-0.4,0.4-0.9,0.2-1.6,0.4c-0.3-0.4-0.5-0.9-0.5-1.4c0-0.4,0.2-0.7,0.3-1
	c0.3-0.2,0.7-0.2,0.9,0C78.2,65.7,78.9,66.6,78.7,67.2"/>
<path id="XMLID_55_" class="st0" d="M84.4,69.2c0.2,0.5,0.7,0.5,1,1c0.5,0,0.9-0.3,1.2-0.7c0.3-0.4,0.3-0.7,0.3-1.1
	c-0.2-0.3-0.5-0.5-0.9-0.5C85.7,68.1,84.6,68.3,84.4,69.2"/>
<path id="XMLID_54_" class="st0" d="M85.5,66.4c0.2,0.3,0.5,0.9,0,1.2c-0.2,0.2-1.2,0.9-1.6,0.7c-0.5-0.2-0.7-0.7-1-1.2
	c-0.2-0.4,0.5-1.1,1-1.2C84.1,65.9,85.5,66.2,85.5,66.4"/>
<path id="XMLID_53_" class="st0" d="M79.4,64.3c-0.3,0.3-0.9,0.5-0.7,1c0,0.3,0.5,1.6,0.9,1.6c0.5,0.2,1-0.2,1.6-0.3
	c0.3-0.2,0.2-1-0.2-1.6C81,64.8,79.6,64.3,79.4,64.3"/>
<path id="XMLID_52_" class="st0" d="M77.5,70.7c-0.2,0.2-0.5,0.7-0.2,1c0,0.2,0.7,0.9,0.9,0.7c0.4,0,0.7,0,0.9-0.5
	c0-0.4-0.2-0.7-0.5-1C78.2,70.6,77.6,70.7,77.5,70.7"/>
<path id="XMLID_51_" class="st0" d="M83.2,72.7c0.2,0.3,0.2,0.9-0.3,1c-0.2,0-1,0.2-1,0c-0.3-0.2-0.5-0.5-0.3-0.9
	c0.2-0.3,0.5-0.5,0.9-0.7C82.9,72.1,83.2,72.5,83.2,72.7"/>
<path id="XMLID_50_" class="st0" d="M86.5,62.5c-0.3,0.4-0.3,0.4-0.7,0.4c-0.9,0.2-1.7-0.5-1.7-0.7c1.2-0.7,2.3-1.6,3-3
	C87.4,59.1,87.6,61.5,86.5,62.5"/>
<path id="XMLID_49_" class="st0" d="M87.9,63.9c-0.4,0-0.7-0.2-0.9-0.5c0-0.2,0-0.5,0.2-0.9c0.9,0,2.1,0,2.8-0.9
	C90.2,61.8,89.9,63.6,87.9,63.9"/>
<path id="XMLID_48_" class="st0" d="M80.8,60.8c0.2,0.4,0.2,0.5,0.4,0.5c0.7,0.7,1.7,0.7,1.9,0.5c-0.7-1.2-1-2.6-0.7-4
	C82.2,57.5,80.6,59.2,80.8,60.8"/>
<path id="XMLID_47_" class="st0" d="M78.9,61c0.3,0.2,0.7,0.4,1,0.2c0.2-0.2,0.4-0.5,0.4-0.7c-0.7-0.7-1.6-1.4-1.7-2.4
	C78.3,58,77.6,59.6,78.9,61"/>
<path id="XMLID_46_" class="st0" d="M82.3,65.9c0.3,0,1.6-0.5,1.9-0.9c0.3-0.2,0.5-0.7,0.5-1c-0.2-0.3-1.2-0.9-1.6-1
	c-0.3-0.2-1.4-0.4-1.6-0.2c-0.3,0.2-0.5,0.9-0.5,1.2c0.2,0.5,0.7,1.6,1,1.7L82.3,65.9z"/>
<path id="XMLID_45_" class="st0" d="M81.1,69.7c0.3,0,1.4-0.5,1.7-0.9c0.3-0.2,0.2-0.7,0-0.9c0-0.3-0.7-0.9-1-0.9
	c-0.3-0.2-1-0.2-1.2,0c-0.2,0.2-0.7,0.5-0.5,0.9c0,0.3,0.5,1.4,0.9,1.6L81.1,69.7z"/>
<path id="XMLID_44_" class="st0" d="M80.3,72.3c0.3,0,1.2-0.3,1.4-0.5c0.3-0.2,0.2-0.7,0-0.9c0-0.2-0.5-0.5-0.9-0.7
	c-0.2,0-0.9,0-1,0.2c-0.2,0-0.5,0.3-0.4,0.7c0,0.2,0.5,1.1,0.7,1.2H80.3z"/>
<path id="XMLID_43_" class="st0" d="M79.6,74.6c0.2,0,0.9-0.2,1-0.5c0.2-0.2,0.2-0.4,0-0.5c0-0.2-0.3-0.5-0.7-0.5
	c-0.2-0.2-0.7-0.2-0.9,0c-0.2,0-0.3,0.4-0.3,0.5c0.2,0.3,0.5,0.9,0.7,1H79.6z"/>
<path id="XMLID_42_" class="st0" d="M77.5,68.1c-0.4,0.2-0.7,0.9-0.4,1.2c0,0.4,1,0.9,1.4,0.7c0.5,0,1.2-0.2,1.4-0.7
	c0-0.5-0.3-1-0.7-1.2C78.7,67.8,77.6,68,77.5,68.1"/>
<path id="XMLID_41_" class="st0" d="M84.8,70.4c0.2,0.5,0.2,1.2-0.4,1.4c-0.2,0-1.4,0-1.6-0.4c-0.3-0.3-0.9-0.9-0.5-1.4
	c0.2-0.5,0.7-0.5,1.2-0.5C84.1,69.5,84.8,70.2,84.8,70.4"/>
<path id="XMLID_40_" class="st0" d="M104.2,33.8c0,0,0,0,0,0.2c0.2,0.5,1.7,0.9,2.1,0.7c0.2-0.2,0.3-0.9,0.2-1.4
	c0-0.5-1-0.5-1.6-0.2C104.5,33.4,104.3,33.2,104.2,33.8"/>
<path id="XMLID_39_" class="st0" d="M99.6,35.5c0,0,0,0.2,0.2,0.3c0.2,0.3-0.7,1.6-0.9,1.6c-0.4,0.2-1-0.2-1.4-0.7
	c-0.3-0.3,0.4-1,1-1C98.9,35.5,99.1,35.3,99.6,35.5"/>
<path id="XMLID_38_" class="st0" d="M105.9,37.1c0.5,0.3,0.9,0,1.4,0.2c0.4-0.2,0.5-0.7,0.5-1.2c0-0.2-0.2-0.5-0.5-0.7
	c-0.2-0.2-0.5-0.2-0.7,0C106.3,35.8,105.7,36.5,105.9,37.1"/>
<path id="XMLID_37_" class="st0" d="M100.8,39c0,0.5-0.5,0.7-0.9,1c-0.2,0.2-0.7-0.2-1-0.5c-0.2-0.2-0.2-0.5-0.4-0.9
	c0.2-0.2,0.4-0.4,0.7-0.4C99.8,38.5,100.7,38.5,100.8,39"/>
<path id="XMLID_36_" class="st0" d="M99.8,36.9c0,0.4-0.3,0.7,0,1.1c0.2,0.2,1,0.5,1.4,0.3c0.5-0.2,0.7-0.7,0.9-1
	c0.2-0.2-0.5-0.7-0.9-0.9C101,36.4,99.8,36.7,99.8,36.9"/>
<path id="XMLID_35_" class="st0" d="M105,34.8c0.3,0.2,0.9,0.3,0.9,0.7c0,0.3-0.3,1.4-0.7,1.4c-0.5,0.2-1,0-1.6-0.2
	c-0.3,0-0.2-0.9,0-1.2C103.6,35.3,104.9,34.8,105,34.8"/>
<path id="XMLID_34_" class="st0" d="M107.3,39.9c0.2,0.2,0.5,0.5,0.4,0.9c-0.2,0-0.7,0.7-0.9,0.5c-0.2,0-0.7,0-0.7-0.4
	c-0.2-0.4,0-0.7,0.3-0.9C106.6,39.7,107.1,39.9,107.3,39.9"/>
<path id="XMLID_33_" class="st0" d="M102.2,41.8c-0.2,0.4,0,0.7,0.4,0.9c0.2,0,1,0,1-0.2c0.2-0.2,0.5-0.4,0.2-0.7
	c-0.2-0.3-0.5-0.3-0.9-0.3C102.6,41.3,102.2,41.8,102.2,41.8"/>
<path id="XMLID_32_" class="st0" d="M98.6,33.9c0.4,0.2,0.4,0.4,0.7,0.4c0.7-0.2,1.4-0.7,1.4-0.9c-1-0.3-2.1-1-2.8-2.1
	C97.5,31.3,97.5,33.1,98.6,33.9"/>
<path id="XMLID_31_" class="st0" d="M97.4,35.1c0.3,0,0.7-0.2,0.9-0.3c0-0.4,0-0.5-0.2-0.7c-0.9,0-1.9,0-2.6-0.5
	C95.3,33.6,95.6,35,97.4,35.1"/>
<path id="XMLID_30_" class="st0" d="M103.5,32c0,0.3,0,0.3-0.2,0.5c-0.7,0.5-1.6,0.7-1.7,0.5c0.5-1,0.7-2.3,0.4-3.3
	C102.1,29.4,103.6,30.8,103.5,32"/>
<path id="XMLID_29_" class="st0" d="M105.4,32.2c-0.3,0-0.7,0.2-1,0.2c-0.2-0.2-0.3-0.3-0.3-0.7c0.7-0.5,1.4-1.2,1.4-1.9
	C105.6,29.6,106.4,30.8,105.4,32.2"/>
<path id="XMLID_28_" class="st0" d="M102.6,36.2c-0.4,0.2-1.6-0.2-1.9-0.3c-0.3-0.3-0.5-0.7-0.5-0.9c0.2-0.4,0.9-0.9,1.4-1.1
	c0.4-0.2,1.2-0.3,1.4-0.2c0.2,0,0.5,0.5,0.5,0.9c0,0.4-0.5,1.4-0.7,1.6H102.6z"/>
<path id="XMLID_27_" class="st0" d="M104,39.2c-0.3,0.2-1.4-0.2-1.8-0.5c-0.3-0.2-0.2-0.5-0.2-0.7c0.2-0.2,0.7-0.7,0.9-0.7
	c0.3-0.2,1-0.2,1.2-0.2c0.3,0.2,0.7,0.3,0.5,0.7C104.7,38.1,104.3,39,104,39.2z"/>
<path id="XMLID_26_" class="st0" d="M104.9,41.3c-0.2,0-1-0.2-1.2-0.4c-0.3-0.2-0.2-0.4-0.2-0.5c0-0.2,0.5-0.5,0.7-0.7
	c0.3-0.2,0.9-0.2,1,0c0.2,0,0.5,0.2,0.5,0.5c0,0.2-0.5,0.9-0.7,1H104.9z"/>
<path id="XMLID_25_" class="st0" d="M105.7,43c-0.2,0-0.9-0.2-1.1-0.2c-0.2-0.2,0-0.3,0-0.5c0-0.2,0.4-0.5,0.5-0.5
	c0.2-0.2,0.7-0.2,0.9,0c0.2,0,0.3,0.2,0.3,0.4c0,0.2-0.3,0.7-0.5,0.9H105.7z"/>
<path id="XMLID_24_" class="st0" d="M107.1,37.8c0.2,0,0.7,0.5,0.5,0.9c-0.2,0.2-1,0.9-1.4,0.7c-0.5,0-1.1-0.2-1.2-0.5
	c-0.2-0.3,0.2-0.7,0.5-1.1C105.9,37.4,106.9,37.6,107.1,37.8"/>
<path id="XMLID_23_" class="st0" d="M100.5,40.2c0,0.3,0,0.9,0.5,1c0.2,0,1.2-0.2,1.4-0.4c0.3-0.4,0.7-0.9,0.5-1.2
	c-0.3-0.3-0.9-0.5-1.2-0.5C101.2,39.3,100.7,40,100.5,40.2"/>
<path id="XMLID_22_" class="st0" d="M102.4,48.8c-0.2,0-1-2.3-1.2-2.3c-0.2,0-2.3,2.6-1.6,4.9c0,0,0.9,1.4,1.7,1
	c0.9-0.7-0.5-3.8-0.4-3.8c0.4-0.2,1.4,2.8,1.6,2.6c0.2,0,0.9-2.6,1-2.8c0,0-0.3,2.3-0.2,2.3c0.2,0,1.2-2.4,1.4-2.4
	c0.2,0-0.7,2.4-0.5,2.3c1.6-1.2,2.4-3,2.6-3.1c0.2,0-1.2,2.6-1,2.6c0.5-0.2,2.6-2.1,2.8-2.1l-1.9,1.9c0.5-0.2,4-1.9,4-1.9
	c0,0.2-3.1,1.9-3.8,2.1c0,0.2,2.3-0.2,3.5-0.2c0,0-4.2,0.7-4.5,0.9c-0.2,0,3.5,0.2,3.3,0.4c-0.2,0.2-6.6,0-6.8,1.9
	c-0.2,1.9,6.5,1.4,8.2,1.4c-0.5,0-5.1,1.2-5.2,1.4c0,0,4.7-0.7,6.1,0c0.2,0-4.4,0.5-4.2,0.5c2.3,0.5,3.7,1.4,3.7,1.6
	c0,0.2-3.3-1.1-3.8-0.9c-0.2,0.2,2.8,1.7,4,3.3c0,0-3-1.6-2.8-1.6c1.6,1.9,2.3,4,2.4,4.9c0,0.2,0,0.7,0.2,0.5c0,0,0.5-1.2,0.5-2.8
	c0-0.4,1,0.3,1,0.2c-0.2-0.7-0.9-1.9-1.2-2.8c0.5,0,1.6,1.4,1.6,1.2c0-0.2-1.4-3.1-1.4-3.3c0.2-0.4,2.4,0,2.4-0.4
	c-0.2-0.3-3-1.2-3-1.4c0.2-0.2,1.7-1,2.1-1.6c-0.3-0.5-6.1,1.4-6.8,0.2c-1.2-2.6,6.3-0.5,6.3-0.7c-0.7-0.7-1.7-1.9-2.1-2.3
	c-0.2-0.2,1.4,0.2,1.7-0.2c-0.2-0.2-1-1.1-1.6-1.6c-0.2,0.2,2.3-1.4,2.1-1.7c-0.2-0.4-2.8,0.5-3.1,0.7c-0.4,0.2-0.5-2.6-0.9-2.4
	c-0.3,0.2-0.7,2.6-0.9,2.6c-0.4,0.2-0.4-2.8-0.7-2.8c-0.5-0.2-1,3.1-1.4,3.1c-0.2,0,0-2.1-0.2-2.4c0-0.2-1.4,1.9-1.4,1.9
	c-0.2-0.7-0.2-1.9-0.3-1.9C103.5,45.8,102.6,48.8,102.4,48.8"/>
<path id="XMLID_21_" class="st0" d="M95.4,55.4c-0.2,0.2,1.2-0.2,1,0c-0.5,1-0.9,2.1-0.7,2.8c0.2,0.2,1.2-1.2,1.2-1
	c0.2,0.4-1.4,2.1-0.9,3.7c0.2,0,1-0.7,1.2-1c0,0-0.9,1.7-0.9,2.4c0,0.2,1.6-1,1.6-1c0,1.4,0,3.3,0,3.5c0.3,0.7,1.2-3.3,1.4-3.1
	c0.2,0,1.4,2.3,1.4,2.3c0.4-0.3,0-1.7-0.2-2.4c-0.2-0.5,1.7,0.9,1.9,0.5c0-0.2-1.9-1.9-2.1-2.1c-0.5-0.7-0.5-1.9,1-1.9
	c2.3,0.2-0.2,4.4,0.7,5.4c0.2,0.2,1.8-2.8,1.8-2.8c0.5,0.5-0.5,1.2,0,2.1c0.2,0,1.2-1.6,1-1.6l0.7,1.6l0.5-1.6c0.9,1,0.5,1.9,1,3.1
	c0.4,0.2,0.5-1.7,0.5-1.9c0.3,0.5,2.8,2.3,3,2.1c-0.9-1.6-2.3-4.5-3.1-5.8c-0.2-0.2,0.2,3.3-0.2,3c-0.3-0.5-0.2-3.1-1.2-4
	c-0.2-0.2-0.4,3-0.5,2.6c-0.4-0.2-0.2-3-0.5-3.3c-0.3-0.2-0.3,3-0.5,3.1c-0.2-0.2,0.2-2.1-0.7-3.7c0,0-0.5,4.5-0.9,4.4
	c0.2-2.6,0.3-3.5-0.2-4.9c-0.5-0.9-0.7-0.9-1.6-1c-2.4,0-2.6,4.4-0.4,6.3l-1-0.9c0,0.5,0.3,1.6,0.2,1.6c-0.2,0-0.9-3.3-1-3.5
	c0,0.3-0.3,3.7-0.5,3.7c-0.2,0,0-2.3,0.4-4.2c0,0-1.2,3-1.2,2.8c0.2-1,1.9-5.6,1.9-5.8c0-0.2-2.4,4.4-2.6,4.4
	c-0.2-0.2,2.3-4.9,2.3-5.1c0,0-2.3,2.3-2.3,2.1c0.2-0.5,0.9-1.2,1.2-1.7c0.2,0-1.6,0.5-1.6,0.5c0-0.2,2.8-1.7,2.8-1.7
	C97.5,51.9,95.6,55,95.4,55.4"/>
<path id="XMLID_15_" class="st0" d="M94.6,61.8v2.4c-0.2-0.7-0.2-1.4-0.2-2.3C94.4,61.8,94.6,61.8,94.6,61.8 M94.6,83.1
	c-0.2,0-0.3-0.2-0.5-0.4v-7.3c0-0.2-0.3-0.4-0.7-0.4c-0.3-0.2-1.4,1.2-1.4,1.2s-0.3,0.3-0.3,0.5v4.5c-0.2-0.3-0.3-0.5-0.5-0.7
	c-0.9-1-0.5-2.4-0.3-3.7c0.3-0.7,0.7-1.6,1.4-2.1c0.4-0.2,1-0.9,2.4-1.4v-1c-0.2,0-0.2,0-0.3,0c0-0.2,0-0.3,0.3-0.5V70
	c-0.2,0.2-0.3,0.4-0.5,0.4V54.2c0-0.2-0.5-0.5-0.7-0.2c-1.2,1.2-1.7,2.6-1.7,3.8v14.8c-1.1,1.2-2.1,2.4-2.8,3.7
	c-0.2,0.7-0.5,1.4-0.5,2.3c0.2,0.3,0.9,0.2,0.9,0.7c0,0.4,0.2,0.7,0,0.9c-1-0.3-1.7-1.4-2.8-1.2c-0.7,0-1.1,0.2-1.4,0.5
	c-0.7,0.5-0.7,1.2-0.5,1.7c0.4,0.7,0.9,1.4,1.7,0.9c0.5-0.4,1-0.7,1-1.4c-0.2-0.3-0.5-0.3-0.9-0.3c-0.2,0-0.2,0.2-0.2,0.3
	C86,80.9,85.8,81,85.7,81c-0.4-0.2,0-0.5,0-0.7c0-0.3,0.3-0.5,0.5-0.7c0.9,0,1.2,0.7,1.9,0.9c0.9,0.3,0.7,1.2,1.4,1.7
	c0.7,0.5,1.4,1,2.1,1.6v3.8c0,0,0,0-0.2,0c-0.9,0.5-1.4,0.7-1.6,1.6c-0.2,0.9,0.3,1.6,0.7,2.1c0.2,0.2,0.7,1,0.7,0.9
	c0.2-0.3-0.2-1.4-0.2-1.7c0-0.4,0.2-0.7,0.5-1c0,3.8,0,6.5,0,6.5H94c0,0,0-2.8,0-7.2c0.2-0.2,0.4-0.2,0.5-0.2v-1.9
	c-0.2,0-0.3,0-0.5,0.2v-1.4c0.2,0.2,0.4,0.2,0.5,0.4V83.1z M94.6,72c0.5,0,0.9-0.5,1.2-0.7c0.3-0.3,0.5-0.9,1.1-1.2
	c0.5-1.2,0.5-3,0.2-4c-0.3-1-2.1-4-2.4-4.2v2.4c0,0,0,0.2,0,0.3c0,0.2,0.9,0.7,1,2.6l-0.2,1.6c-0.2,0.5-0.5,0.9-0.9,1.2V72z
	 M94.6,73.5c0.7-0.2,1.6-0.4,2.6-0.4c0-0.2,0.3-0.5,0.2-0.5c-1.1-0.5-1.8-0.5-2.8-0.2V73.5z M97.4,86.6c-0.2-1.2-0.9-2.1-1.8-3
	c-0.4-0.2-0.7-0.4-1-0.5v2.6c0.2,0.2,0.4,0.4,0.5,0.4c0,0.2-0.2,0.3-0.2,0.3c-0.2,0-0.4,0-0.4,0.2v1.9c0.4-0.2,0.9-0.2,0.9-0.2
	c0.2,0-0.5,0.7-0.5,0.9c-0.4,1.9-0.4,4.2,0,6.1c0.2,0.2,0.3,0.3,0.7,0.3c0.4,0.4,0.9-0.3,1,0.4c0.2,0.2,0.5,0.2,0.5,0
	c0.2-0.9-0.2-1.7-0.3-2.8c0,0-0.2-2.6,0-3.8C97.2,88.4,97.4,87.7,97.4,86.6z"/>
<path id="XMLID_14_" class="st0" d="M98.1,50.7C97.5,50.3,97,50,96.1,50c0.7-1.4,0.7-4-0.3-5.2l-1.2-2.1c-0.5,0.2,0,1.9,0,2.4
	c0,0.3,0.2,0.5,0.2,0.7c0.4,1.6,0.7,2.3,0.2,3.7c-0.4,0.4-0.7,0.7-0.9,0.9V36.7c0-0.3-0.7,0-0.7,0l-1.4,2.4c0,0-0.3,0.7-0.3,1v12
	c-0.7,0.9-1.6,2.3-1.7,4.5c-0.4-0.2-0.5-0.3-1-0.3c-0.4-0.2-0.7-0.2-1.2-0.2c-2.4,0.4-2.6,1-3.3,1.9c-0.4,0.3,0.2,0.7,0.2,1
	c0,0.2,0.9-0.3,1-0.3c0.3-0.9,1-1,1.9-1.2c0.7-0.2,1.4,0.2,2.1,0.3c0.7,0.2,0.4,0.9,0.7,1.2c0.2,0.3,0.5,2.4,0.9,2.6
	c0.5,0.3,0-1.9,0.2-2.3c-0.2-0.5-0.2-1-0.2-1.7c-0.2-2.3,1-4.5,3-5.9c2.1-1,3.7,0.2,4.2,0l0.7-0.2C98.9,51.7,98.2,50.9,98.1,50.7"/>
<path id="XMLID_13_" class="st0" d="M96,29.4c0-1.2-0.2-2.4-0.7-3.3c-0.3-0.2-0.5-1.6-0.9-1.2c0,0.5-0.2,1.7,0.2,2.6
	c0.4,1.4,0,3-0.5,4.4V24c0-0.5-0.5-1.4-0.5-1.4s-1.2,0-1.4,0c-0.2,0-0.5,0.7-0.5,1.2v11.5c0,0,0,0,0.2,0.2c-0.9,1.2-1.6,2.3-1.6,3.1
	c-0.7-0.2-1.2-0.4-1.9-0.4c-0.5,0.2-1.2,0.4-1.7,0.7c-0.5-0.2-0.9,0-1,0.5c0,0.2,0.5,0.5,0.7,0.5c1,0.5,3.3-2.1,4,1.2
	c0.4,0.3,0.5,0.3,0.9,0.2c-0.7-3.1,3-6.6,3.8-8.9c0.2-0.2,0.2-0.3,0.3-0.5c0.9-1.2,1.4-1.2,1.4-1.4c2.3-1.7,3-0.2,3.5,0.9
	c0.2,0.2,0.2-0.2,0.3-0.2C100.7,30.8,99.8,27.1,96,29.4"/>
<path id="XMLID_12_" class="st0" d="M153.7,33.4C153.7,33.4,153.7,33.4,153.7,33.4C153.7,33.4,153.7,33.4,153.7,33.4L153.7,33.4z"/>
<path id="XMLID_7_" class="st5" d="M140.3,28c-2.3,0.7-3.3,1.9-3.7,2.1c-0.5,0.5-0.9,1.2-1.2,1.7c-0.3-0.1-0.6-0.2-1.1-0.3
	c1.1-1.7,4.4-5.4,10.9-4c4,0.7,5.7,2.3,7,3.9c-0.6-0.6-1.2-1-2.5-1.8C147.9,28.3,143.6,27.1,140.3,28 M137,33.6c0.2,0,0.7,0,1,0
	c0,0,0.2,0,0.4,0h0.2c0.7-0.2,1.6-0.5,1.6-0.5s-0.3,1-1.7,1.6c-0.2,0-0.2,0-0.5,0.2c-0.4,0.2-0.7,0-0.7,0l-0.4-1.2H137z M132.8,32.9
	c-0.2,0-0.4,0-0.7,0c0,0-0.2,0.5-0.7,0.5l-0.2,0.2c-0.4,0-0.5-0.2-0.9-0.3c0-0.2,0.5,0.2,0.7,0.2c0.2,0,0.4-0.2,0.4-0.2v-0.4
	c-0.2,0-0.9,0-1.2,0.2c-0.4,0-1.1,0.2-1.4,0.2c-0.3,0-0.3,0-0.3,0v-0.2c0,0,0.2,0,1-0.2c0.2,0,0.9-0.2,1.9-0.4c0.2,0,0.3,0,0.7,0
	c0.7,0.2,2.1,0.2,2.1,0.2l0.2,0.3C134.3,33.1,133.1,32.9,132.8,32.9z M143.4,26.8c-5.8-0.5-8.7,3.7-9.1,4c-0.2,0.2-0.3,0.4-0.5,0.7
	c-0.2,0-0.4,0-0.7,0c-0.5,0-1.2,0.2-1.7,0.2c-2.3,0.2-4.9,0.7-5.9,1c-0.7,0-1.2,0.7-1.2,0.9c0,0.2,0.2,0.2,0.2,0.2l1.2-0.2v0.2
	c0,0-0.2,0-0.4,0c-1.6,0.3-1.7,1.2-1.4,1.4c0.2,0,2.4-0.3,2.6-0.3c0,0,0,0.2,0,0.3c0,0.2,0.2,0.4,0.2,0.4h-0.3l-0.2-0.2H124
	c-0.2,0-0.2,0.4-0.3,0.7c-0.2,0.7,0,1.4,0.5,1.6c0.3,0.2,0.5,0.2,0.7,0c0.2-0.2,0.7-0.2,0.9-0.4c0,0.2,0.4,0.7-1,1.4
	c-0.7,0.2-1,0.2-1,0.2s0.5,0.5,1.2,0.5h0.2c1,0,2.4-0.7,2.4-2.1l1.7-0.2c0-0.2-0.2-0.5-0.2-0.5l-1.9-0.2V36h2.6v0.5
	c0.2,0.7,0.5,1.7,1.6,2.3c0.5,0.2,1,0.3,1.7,0.3c1.9-0.2,2.3-2.1,2.3-2.1h0.2c0,0-0.2,2.1-2.3,2.6c-0.1,0-0.1,0-0.1,0l-0.2,0l-0.2,0
	l-0.2,0c-0.1,0-0.2,0-0.2,0l-0.2,0c-0.2,0-0.1,0-0.2,0c0,0-0.3,0-0.4-0.1l-0.2-0.1c0,0-0.1-0.1-0.2-0.1c-0.2-0.1-0.1-0.1-0.3-0.2
	c0,0-0.2-0.1-0.4-0.3c-0.3-0.3-0.6-0.5-0.6-0.5l-0.4,0.3c0,0-1.4,1.2-3.1,1.4c-1.9,0.3-4.2,1.2-5.6,2.1c-0.5,0.3-0.9,0.7-1.3,1
	c-1.4-2.4-3.6-5.5-4-5.9c-0.3-0.5-1.4-1-1.9-1c-0.4-0.2-7.2,0.2-8.7,0.3c-0.4,0-0.9,0.4-1,0.4c-0.2,0.2-0.5,0.5-1.1,0.7
	c0,0.2-0.2,0.2-0.2,0.4h-0.2l-1.7,0.4c0,0-0.9,0-1,0.5c0,0.3,0.8,0.3,1.1,0.3c-0.1,0.1-0.1,0.2-0.2,0.2c-0.3,0.2-0.3,0.4-0.3,0.5
	c0.2,0.2,0.3,0.7,1.6,1c1,0.4,2.1,0.2,2.1,0.2c1.4-0.2,1.6-2.3,1.7-2.4c0.2,0.2,0.5,0.2,0.7,0.3c0,0.2-0.2,0.2-0.2,0.7
	c0,0.3,0.2,0.5,0.2,0.7l0.5-0.7c0,0.2,0,0.3,0,0.3s0.5-0.7,0.7-1c0-0.3-0.3-0.5-0.3-0.7c0.9,0.2,5.4,0.7,5.4,0.7s0.9,0.2,1.2,0.9
	c0.4,0.7,1.2,3.1,2.1,5.9c0.1-0.1,1.6-1,2.7-1.7c-0.1,0.1-0.1,0.1-0.1,0.1c0.2-0.2,0.7-0.4,1.2-0.5c0.7-0.3,1-0.3,1.6-0.5
	c0.5-0.2,0.5-0.2,1.2-0.5c-0.2,0.4-0.4,0.7-0.9,1c-0.3,0.2-2.4,0.7-3,1.1c-1.4,0.9-1.7,2.1-1.7,2.1s0.5-0.4,1.1-0.5
	c0.9-0.4,1.4-0.4,2.1-0.7c0.5-0.2,1.4-0.5,1.4-0.5s-0.2,0.9-1.4,1.2c-1.4,0.5-1.7,0.5-2.6,1.2c-0.3,0.2-0.5,0.5-0.5,0.5l-6.1-0.5
	c0,0-1.6-0.2-1.9,0c-0.3,0-1,0.3-1.4,0.5v0.2c-2.1,0.5-5.6,1.6-6.6,1.9c-0.3,0.2-0.9,0.5-0.9,0.5c0,0.3-0.3,0.7-0.7,1
	c-0.2,0-0.2,0.2-0.2,0.2h-0.2l-1.6,0.9c0,0-1.1,0.3-1.1,0.7c0,0.3,1.4,0,1.4,0c-0.2,0.2-0.2,0.3-0.3,0.3c-0.4,0.3-0.4,0.5-0.2,0.5
	c0.2,0.4,0.5,0.7,1.7,0.7c1,0,1.7-0.3,1.9-0.3c1.2-0.5,1-2.4,1-2.6c0.3,0,0.7-0.2,0.7,0.2c0.2,0.2,0,0.2,0,0.7
	c0.2,0.4,0.3,0.5,0.5,0.5c0,0,0.2-0.7,0.3-0.7c0,0.2,0,0.2,0,0.2s0.4-0.7,0.4-1c0-0.3-0.4-0.5-0.4-0.5c0.9-0.2,5.8-0.7,5.8-0.7
	c0.4,0,0.7-0.2,0.7-0.2l10.1,3.7c0,0,0.3,0.2,0.7,0c0.2,0,1.6-1,1.9-1.2l0.2,0.4l-1.7,1.7c-0.3,0.3-1.6-0.2-1.6-0.2l-4.4-1.4
	c-0.4,1.4-0.5,4.5,4,9.8c3.7,4.2,3.5,3.5,5.4,5.9c0.4,0.5,0.2,0.9,0.2,0.9s0.9-1,0.9-2.8c0-0.5,0.5,0.2,0.3,1.6
	c-0.2,0.7-1,1.4-1,2.6c0.2,1.4-0.4,1.6,0.7,4.7c0.3,1.2,2.1,2.4,3.3,3.1c0.5,0.2,1.9,1,2.4,1.2c0.9,0.4,1.7,0.5,2.3,1.1
	c0.9,1,0.9,1.9,1.4,3.8c0.7,1.9,0.5,2.8,0.4,4.4c-0.2,1.4-0.9,2.4-0.9,2.6c-0.2,0.2,0.9-0.2,0.5,0.2c-0.2,0.3-0.9,0.7-1.4,1
	c-0.5,0.5-2.3,3.5-2.1,3.8c0,0.3,0.7,0,1.2-0.4c0.5-0.3,1-0.5,1-0.5s0.2,0.5,0,1c-0.2,0.4-0.2,1.1,0.7,0.7c0,0,0.3-0.2,0.5-0.2
	c0.5,0.2,1-0.3,1.4-0.5c0.3-0.2,0.9-0.7,1.2-1.2c0.5-0.4,0.5-0.9,0.5-1.2c0-0.4-0.5-1.8-0.5-2.1c0-0.4,0-1,0.5-1.6
	c0.2-0.2,0.2-0.2,0.2-0.2c0.5-0.5,0.7-0.7,1.2-1.2c0.7-0.3,0.5-0.3,0.4-0.9c-0.4-0.5-0.7-1.2-1.2-1.9c-0.2,0-0.2-0.2-0.3-0.4
	c-0.4-0.7-0.7-2.3-0.9-3c-0.2-0.9,0.2-2.3,0.5-3c0.2-0.5,0.4-0.7,0.4-0.9c0-0.2-0.2-0.3-0.5-0.5c-0.4-0.4-1.4-0.5-1.9-1.1
	c-3.8-3.1-3.8-7.2-3.1-7.7c1-0.7,1.9,0.2,2.1,0.5c0.4,0.5,0.5,0.9,0.7,1.6c0.7,1.4,2.4,1.4,2.6,1.4c0,0.2,0.2,0.2,0.2,0.2
	c0.3,0,0.7,0,0.7,0l-0.7-0.7v-0.2l-0.5-0.7c0,0,0.2,0.2,0.5,0.2c0.5,0.2,1,0.2,1.4,0.3c1.4,0.2,2.6-0.7,2.6-0.7s-2.3-0.2-3.7-1.4
	c-0.2,0-0.2-0.2-0.3-0.2c-0.9-0.9,0-1.7-2.3-3.1c-1.4-0.7-1.9,0.9-2.4-2.3c-0.2-0.3-1.2-2.8-2.3-5.8c-0.4-0.9-0.5-1.9-0.9-2.8
	c-1.1-4.7-0.3-6.5-0.3-6.5c0.2,0,0.2,0,0.2,0s0.4-0.4,1.1-1c1.6-1.6,4.9-5.1,5.9-8.9c0.5-2.1,0.2-4.9,0.2-4.9s0.5,0,0.9-0.2
	c0.3,0,0.9,0,1-0.2c1.2-0.5,1.4-1,1.4-1c0,0-0.2,0-0.5,0c-0.2,0-0.3,0-0.3,0s0.2,0,0.2-0.2c1.6-1.6,2.1-4.2,2.1-4.2
	s-0.9,0.7-1.2,1.1c-1,0.5-1.9,0.7-2.6,0.7c-0.4,0-0.7,0-1.2,0c-0.4,0.1-0.6,0.2-0.8,0.2c0.4-0.6,1-1.3,1.9-2c0.5-0.3,1.4-0.7,1.9-1
	c6.8-2.3,11.1,1.7,12.8,3.2c0.2,0.2,0.4,0.5,0.4,0.5s0.3,0.3,0.3,0.3C152.1,30.6,149.9,27.5,143.4,26.8z"/>
<path id="XMLID_6_" class="st5" d="M123,78.9c-3-7.2,0.9-7.8,0.9-7.8c0-0.2,0.2-0.9-0.3-1.6c-1.2-1.4-3.1-3.3-3.1-3.3
	s-3.7,2.8-4.4,5.4c-0.4,1.6-0.5,3.3,1.7,6.6c0.5,1,1.9,1.4,2.4,2.4c0.4,1.2,0,1.9,0,3.8c0,1.7-0.5,2.6-1,3.7
	c-0.7,1.2-1.6,1.9-1.7,2.1c0,0.2,0.9,0,0.5,0.2c-0.2,0.4-1.1,0.4-1.6,0.5c-0.3,0.2-1.7,1.2-2.4,2.1c-0.3,0.2-0.7,0.9-0.9,1
	c-0.3,0.5-0.7,0.9,4.2,1.1c0.2,0,1.1-0.2,1.7-0.5c0.5-0.2,0.5-0.7,0.7-0.9c0.2-0.4,0.2-1.7,0.4-2.1c0-0.2,0.2-0.7,0.9-1.1
	c0.7-0.3,0.9-0.5,1.6-0.7c0.7-0.2,0.5-0.4,0.5-0.7c0-0.5-0.2-1.2-0.5-2.1c-0.2-0.7,0-2.4,0.2-3.1c0.2-0.9,0.9-1.9,1.4-2.3
	c0.4-0.5,0.5-0.7,0.5-0.9c0,0,0-0.2-0.2-0.5C124.2,80,123.3,79.5,123,78.9"/>
<path id="XMLID_3_" class="st5" d="M151.1,39.6C151.2,39.7,151.2,39.7,151.1,39.6z M151.1,39.3C151.1,39.3,151.1,39.3,151.1,39.3
	c-0.8-2.4-2.4-5.2-7.2-6.8c-0.3-0.2-0.7-0.2-1.2-0.3v0.3c0.9,0.2,1.8,0.4,2.6,0.9c3.5,1.7,4.6,3.6,5.4,5.3c-0.4-0.7-1-1.6-1.9-2.4
	c-2.1-2.1-4.2-3-6.6-3.3l-0.9,1.4c5.8,0,8.7,3.7,9.8,5.4c0.2,0.3,0.3,0.7,0.3,0.7l0.1,0.2l0-0.1C151.4,40.2,151.2,39.8,151.1,39.3
	C151.1,39.3,151.1,39.3,151.1,39.3z"/>
<path id="XMLID_2_" class="st6" d="M118.8,50c0,0-9.1-1.4-9.4-1.4c0,0-2.8,0.9-3.7,1.2c0,0-0.9,0.2-0.2-0.2c0,0,2.3-0.9,2.4-0.9
	c0.5-0.5,1.1-0.3,1.4-0.3c0.4-0.2,9.8,1.2,9.8,1.2L118.8,50z"/>
</svg>
