<?xml version="1.0" encoding="utf-8"?>
<!-- Generator: Adobe Illustrator 19.0.0, SVG Export Plug-In . SVG Version: 6.00 Build 0)  -->
<svg version="1.1" id="Warstwa_1" xmlns="http://www.w3.org/2000/svg" xmlns:xlink="http://www.w3.org/1999/xlink" x="0px" y="0px"
	 viewBox="0 0 222 298.7" style="enable-background:new 0 0 222 298.7;" xml:space="preserve">
<style type="text/css">
	.st0{fill:#010202;}
</style>
<path class="st0" d="M80.8,80.7c-3.1-4.2-3.2-6.1-0.1-10.3c0.9-1.2,0.8-2.3,0.5-3.4c-1.2-4.1-2.4-8.1-5.5-11.4
	c-3.9-4.3-7.6-8.7-11.3-13.2c-3.7-4.4-5.3-9.3-3.5-15c1.2-3.9,2.3-4.6,6.4-4.5c1.1,0,2.2,0.3,3.1,0.4C76.8,17.2,84,13.3,93,13.9
	c1.6,0.1,3.2,0.6,4.7,1c4.3,1.3,8.5,1.5,12.8-0.3c2.4-1,5.1-1.4,7.6-1.9c2.9-0.5,5.1,0.8,6.5,3.4c1.3,2.4,1.5,2.5,4.3,2
	c2.6-0.5,5.2-0.8,7.8-1.4c3.8-0.9,7,0.5,10.1,2.3c0.8,0.5,1.3,1.8,1.6,2.8c0.9,3.5,4.2,5.2,7.4,3.8c0.7-0.3,1.4-0.8,2.2-1
	c3.6-1.2,7.1,1,7.5,4.8c0.2,2.1-0.1,4.1-1.3,5.8c-2.3,3.4-4.6,7-7.2,10.2c-5.9,7.3-11,15.1-14.9,23.6c-0.3,0.6-0.6,1.3-0.9,2
	c2,1.8,2.7,4,2.3,6.6c1.6,0.9,3,1.7,4.6,2.5c8.9,4.4,14.8,11.7,19.7,20c1,1.7,1.8,3.4,2.7,5.1c2.6,4.7,4.1,9.7,4.6,15
	c0.4,3.8,1.4,7.4,3.2,10.7c0.2,0.4,0.5,0.9,0.7,1.4c3.3,7.7,6.9,15.4,9.8,23.3c4.5,12.2,8.2,24.6,10,37.5c0.5,3.6,0.5,7.3,0.1,10.9
	c-0.7,6.4,0.2,12.8,0.3,19.1c0,4.6,0.2,9.1-0.6,13.6c-1,5.7-3.2,10.9-6.2,15.8c-7.8,12.7-18.9,21.7-32.3,27.7
	c-3.5,1.6-7.3,2.2-11.1,3.2c-4.5,1.1-9,2.2-13.6,3.2c-3.3,0.7-6.5,1.5-9.8,2c-4,0.5-7.8-0.2-11.7-1.1c-7.8-1.8-15.6-3.6-23.5-5
	c-6.6-1.2-13.2-1.6-20-1.6c-10.8,0-20.6-3.6-28.9-10.5c-3.8-3.2-7-7-10.5-10.6c-0.6-0.6-1.2-1.4-1.6-2.2c-3.1-6.8-6.3-13.5-7.8-21
	c-2-9.8-0.5-19.1,1.5-28.6c3.4-15.8,8.2-31.1,12.8-46.6c2.1-6.9,4.2-13.8,7.1-20.4c2.6-6.1,5.8-11.9,9.9-17.1
	C61.8,112.3,70,100.2,77,87.3c1.1-2,2.4-4,3.6-6C80.7,81.1,80.7,80.9,80.8,80.7z M140.4,104.9c-0.8-2.3-1.5-4.6-2.3-6.9
	c-2-5.6-4-11.3-6-16.9c-0.3-0.8-1-1.7-1.6-1.9c-2.2-0.7-4.4-1.1-7.3-0.6c7.1,6.7,8.4,14.6,6.8,23.3c-2.1-3.7-2.6-8-4.1-11.9
	c-1.6-4-3.5-7.9-5.4-12.1c-2.2-0.2-4.4-0.3-6.9-0.5c1.1,3.5,2.2,6.5,2.8,9.6c0.6,3.1,0.8,6.2,0.8,9.4c0.1,3.1,0.2,6.4-1.6,9.3
	c-2.9-9.1-1.9-18.8-4.3-28.2c-1.8,0.2-3.5,0.4-5.4,0.5c-0.9,4.9-1.9,9.5-2.7,14.2c-0.7,4.6-1.2,9.3-1.8,13.9c-0.2,0-0.5,0.1-0.7,0.1
	c-0.5-1-1.3-2-1.5-3.1c-0.3-1.8-0.4-3.6-0.3-5.4c0.3-5.6,1.7-11,3.6-16.3c0.4-1,0.6-2,1-3.3c-2.4,0.1-4.3-0.5-5.7,1.8
	c-6.5,10.4-12.3,21-16.4,32.5c-0.2,0.7-0.7,1.3-1,2c-0.2-0.1-0.4-0.2-0.6-0.3c0.2-13.3,7.6-23.8,14.3-34.9c-3.3,0.7-6.1,1.4-8.9,2
	c-8.5,18.3-16,30-24.4,40.5c-9.2,11.6-15.2,24.6-19,38.8c-1.1,4.2-2.4,8.4-3.7,12.5c-4.3,13.7-8.9,27.4-11.3,41.6
	c-1,5.8-1.6,11.7-0.6,17.6c1,6.3,2.7,12.4,5.5,18.3c2,4.3,4.3,8.2,7.9,11.4c1.1,1,2,2,3,3c7.6,7.5,16.9,11.3,27.4,11.3
	c8.4,0,16.6,1,24.8,2.4c6.4,1.1,12.7,2.5,19,4.2c5.7,1.6,11.4,1.7,17.1,0.4c4.4-1,8.8-2.4,13.3-3.2c15.7-3,28.3-11,38.5-23.2
	c7.5-9,11.7-19.1,11.1-31c-0.3-4.6-0.4-9.1-0.6-13.7c-0.1-2.2-0.3-4.5,0.1-6.7c0.7-5,0.4-10-0.4-14.8c-1.9-11-5-21.7-8.6-32.3
	c-2-5.7-4.7-11.2-7-16.8c-1.5-3.5-3-6.9-4.3-10.4c-1-2.6-1.9-5.4-2.4-8.1c-0.9-4.9-1.3-9.9-3.7-14.4c-1.2-2.3-2.2-4.8-3.6-7
	c-4.5-7.3-9.7-14-17.4-18.2c-0.8-0.4-1.6-0.9-2.3-1.5c-2.7-2.6-5.8-1.8-9.1-1.6C139.7,91.3,141.8,99,140.4,104.9z M89.4,56.5
	c-0.2,0.1-0.4,0.3-0.6,0.4c-1-1.2-2.2-2.3-2.9-3.6c-2.9-5-5.6-10.1-8.5-15.1c-2.4-4-4.2-8.3-7.3-11.9c-0.7-0.8-1.1-1.7-2.4-1.5
	c-1.5,0.2-1.6,1.5-1.8,2.5c-1.1,4.5-0.3,8.6,2.7,12.3c3.7,4.5,7.3,9.2,10.9,13.8c3.5,4.4,5.6,9.3,5.7,15c0.8,0,1.5,0.1,2.2,0
	c4.2-0.7,8.4-1.5,12.6-2c5.1-0.6,10.3-1,15.4-1.2c3.9-0.1,7.9,0,11.8,0.5c3.2,0.4,6.2,1.6,9.4,2.4c0,0,0.2-0.2,0.3-0.3
	c0.2-0.4,0.5-0.9,0.7-1.4c3.5-7.3,7.8-14.2,13.2-20.3c2.4-2.7,4.9-5.4,7.2-8.3c1.4-1.7,2.4-3.7,3.4-5.7c0.7-1.4,0.9-3-0.3-4.3
	c-1.2-1.3-2.4-0.1-3.5,0.4c-2.9,1.4-5.7,1.3-8.4-0.5c-0.6-0.4-1.2-0.7-1.5-1c-2.2,5.1-4.2,10.2-6.6,15.1c-2.4,4.8-5.2,9.5-9.3,13.3
	c-0.2-0.8-0.2-1.5,0-2.1c0.9-2.3,1.8-4.7,3-7c2.8-5.4,5.8-10.7,8.7-16.1c0.3-0.6,0.5-1.2,0.8-1.8c-3.1,2.3-5.7,5.1-9.4,6.4
	c-3.6,1.3-7.1,3-11.3,1.6c-0.2,1.6-0.4,3-0.6,4.4c-0.6,4.3-1.2,8.6-1.9,12.9c-0.2,1-0.8,1.9-1.2,2.9c-0.2,0-0.5,0-0.7,0
	c-0.4-1-0.9-1.9-1-2.9c-0.2-1.3-0.1-2.7,0.1-3.9c0.8-4.4,1.7-8.8,2.6-13.1c0.3-1.5,0.1-2.4-1.2-3.4c-1.3-1-2.5-1.1-3.9-0.3
	c-2.1,1.2-4.3,2.3-6.4,3.4c-3.9,2-8.1,2.2-12.5,1.3c0.3,1.5,0.5,2.7,0.9,3.8c0.9,3.2,1.9,6.4,2.9,9.6c0.7,2.1,0.5,4.3,0.3,6.5
	c-0.5-0.2-0.8-0.2-0.9-0.3c-0.2-0.2-0.4-0.5-0.6-0.7c-2.7-5.6-4.9-11.4-5-17.7c-0.1-3.2,0.2-6.5,0.4-9.7c0.1-2.2-0.6-3.2-2.8-3.6
	c-2.1-0.4-4.3-0.5-6.2,0.7c-3.1,2-6.4,3.4-10.2,3.4c2.4,4.5,4.9,8.8,7.1,13.2C85,47.5,87.2,52,89.4,56.5z M72.6,25.8
	c2.3,1.7,4.6,1.8,7.1,0.7c1.4-0.6,2.7-1.4,4-2.2c3.4-2,6.9-2.1,10.5-0.8c2.4,0.9,3.2,1.9,3.2,4.5c0,1.5-0.2,3-0.1,4.6
	c0.1,2.1,0.8,2.5,2.9,2.6c4.1,0.1,7.8-1.5,11.1-3.7c4.6-3.1,8.8-3.3,12.9,0.7c1.3,1.2,2.8,1.3,4.5,0.8c4.7-1.5,9.1-3.5,12.4-7.3
	c0.8-0.9,1.8-1.6,2.7-2.4c1.3-1.1,1.2-1.8-0.1-2.9c-1.7-1.4-3.5-1.9-5.7-1.4c-4.4,0.9-8.8,1.8-13.1,2.8c0.9,3.5,2.3,7,1.4,11.5
	c-0.8-1.2-1.5-1.8-1.6-2.5c-0.6-2.6-1.5-5.3-1.5-8c0-1.8-0.4-3.2-1.3-4.7c-1.3-2.2-1.7-2.5-4.1-1.9c-4.5,1.1-9,2.4-13.6,3.6
	c1.4,4.2,2.3,8.4,1.5,13.2c-2.4-1.3-2.6-3.3-2.8-5.1c-0.4-2.8-0.5-5.6-0.8-8.4C88.9,13.1,78,19.3,72.6,25.8z M82.8,72.9
	c-0.2,0.9-0.7,2.1-0.8,3.4c-0.1,1.6,0.7,2.2,2.3,2.1c0.5,0,1-0.2,1.5-0.3c6.6-1.3,13.2-3.2,20-3.2c3.9,0,7.9-0.6,11.8-0.3
	c5.2,0.4,10.4,1.5,15.6,2.1c2.3,0.3,4.6,0,6.9,0c0.5-2.8,0.5-2.8-1.6-3.3c-0.6-0.1-1.3-0.2-1.7-0.6c-1.9-1.8-4.3-2.2-6.6-2.8
	c-8.8-2.3-17.8-1-26.6-0.3C96.8,70.3,90.1,71.8,82.8,72.9z"/>
<path class="st0" d="M52,262.1c-1.5-1.2-2.8-2.1-3.7-3.2c-1.1-1.4-2.1-3-2.8-4.6c-3.3-7.7-5-15.8-5.3-24.1c0-0.7,0-1.4,0.1-2.1
	c0-0.2,0.2-0.3,0.6-0.8c0.4,0.7,0.8,1.3,1,2c0.9,3.8,1.5,7.7,2.5,11.5c1.6,6.5,3.3,12.9,7.3,18.5c0.3,0.4,0.5,0.9,0.7,1.4
	C52.3,260.8,52.2,261,52,262.1z"/>
<path class="st0" d="M64.1,266.3c-1.1,0.1-1.9,0.4-2.3,0.1c-1.1-0.8-2.4-1.6-3.1-2.7c-3.9-6-6.3-12.6-7.1-19.8
	c0-0.3,0.1-0.5,0.3-1.3C55.5,250.8,57.5,259.4,64.1,266.3z"/>
<path class="st0" d="M179.5,239.1c0.3-2.6,0.6-5.4,0.9-8.2c0-0.2,0.4-0.3,0.9-0.6c0.3,0.6,0.7,1.1,0.7,1.6c0,2.6-0.1,5.3-0.1,7.9
	c0,1.4-1,1.5-2.2,1.4c-0.2,1.8-0.4,3.6-0.6,5.4c-0.1,1-0.6,1.8-1.7,1.7c-1.1-0.1-1.6-1-1.4-2c0.4-2.2,1-4.3,1.7-6.4
	C177.7,239.5,178.8,239.4,179.5,239.1z"/>
<path class="st0" d="M72.6,267.9c-2.1,1-3.1,0-3.9-1.2c-0.7-1-1.2-2.1-1.7-3.2c-1.2-2.8-2.4-5.6-3.5-8.3c-0.4-0.9-0.6-1.8-0.6-2.9
	C67.6,256.5,68.6,263,72.6,267.9z"/>
<path class="st0" d="M87.4,271c-3.2-1-6.1-6.6-5.7-10.7c1.1-0.4,1.6,0.4,2.2,1.1C85.7,263.8,87.5,268.6,87.4,271z"/>
<path class="st0" d="M72.9,258.6c3.9,2.6,6.2,6.4,9,9.8c-0.9,1.2-1.7,0.8-2.3,0.3C76.5,265.9,74.2,262.6,72.9,258.6z"/>
<path class="st0" d="M183.7,221.5c3,2.5,3.8,8.4,1.6,11.3C183.9,229.1,183,225.6,183.7,221.5z"/>
<path class="st0" d="M50.2,152.7c-1.1-2.2,0.3-3.5,1.4-4.7c1.2-1.4,2.1-3.3,4.5-3C55.7,148.2,53.2,151.5,50.2,152.7z"/>
<path class="st0" d="M171.4,253.5c0-3.3,1.1-5.7,2.8-8.2c1.6,1.6,0.6,3.2,0.3,4.7C174.3,251.3,173.9,252.9,171.4,253.5z"/>
<path class="st0" d="M52.5,155.3c-0.3,2.4-2,4-3.6,5.6c-0.3,0.2-1,0.2-1.4,0.1c-0.2-0.1-0.4-0.7-0.4-1c0.1-1.6,3-4.7,4.7-5
	C52,154.8,52.2,155.1,52.5,155.3z"/>
<path class="st0" d="M45.7,170.4c-1.3-1.2-0.7-2.3-0.2-3.2c0.6-0.9,1.3-1.8,2.1-2.5c0.6-0.5,1.7,0.4,1.4,1.3
	C48.5,167.8,47.9,169.7,45.7,170.4z"/>
<path class="st0" d="M93.7,271.3c-2.1-1.9-2.3-4.4-2.2-7C93.6,266.1,93.9,268.6,93.7,271.3z"/>
<path class="st0" d="M98.7,266.6c1.3,1.3,2.3,2.7,2.1,5C99.3,270,98.9,268.3,98.7,266.6z"/>
<path class="st0" d="M150.7,34.3c-3,6.7-6.6,13.1-10.6,19.8c-1.3-1.9-0.9-3.4-0.2-4.6c2.3-4,4.7-8,7.1-11.9c0.8-1.3,1.8-2.5,2.7-3.8
	C150.1,33.9,150.4,34.1,150.7,34.3z"/>
<path class="st0" d="M89.1,36.8c3,3,7.4,15.1,7.2,20.4c-1-1.4-1.9-2.2-2.2-3.3c-1.9-5.6-3.7-11.3-5.6-16.9
	C88.7,37,88.9,36.9,89.1,36.8z"/>
<path class="st0" d="M102.5,42.4c2.9,3.1,4.8,9.7,3.7,13.3C104.5,53.3,102.3,45.5,102.5,42.4z"/>
<path class="st0" d="M128,39.7c0,5.4-1.2,10.6-3.4,15.5C124.3,49.7,126.4,44.8,128,39.7z"/>
<g id="XMLID_182_">
	<g id="XMLID_183_">
		<g id="XMLID_184_">
			<path id="XMLID_214_" class="st0" d="M94.7,156c4.3,0,7.9-3.5,7.9-7.9c0-4.3-3.5-7.9-7.9-7.9s-7.9,3.5-7.9,7.9
				C86.8,152.4,90.3,156,94.7,156z M94.7,141.8c3.5,0,6.3,2.8,6.3,6.3s-2.8,6.3-6.3,6.3s-6.3-2.8-6.3-6.3S91.2,141.8,94.7,141.8z"/>
			<path id="XMLID_211_" class="st0" d="M91.5,169.4c2.6,0,4.7-2.1,4.7-4.7s-2.1-4.7-4.7-4.7c-2.6,0-4.7,2.1-4.7,4.7
				S88.9,169.4,91.5,169.4z M91.5,161.5c1.7,0,3.2,1.4,3.2,3.2s-1.4,3.2-3.2,3.2c-1.7,0-3.2-1.4-3.2-3.2S89.8,161.5,91.5,161.5z"/>
			<rect id="XMLID_176_" x="93.9" y="147.3" class="st0" width="1.6" height="1.6"/>
			<rect id="XMLID_175_" x="90.7" y="163.9" class="st0" width="1.6" height="1.6"/>
			<path id="XMLID_206_" class="st0" d="M130.9,149.7c2.6,0,4.7-2.1,4.7-4.7s-2.1-4.7-4.7-4.7s-4.7,2.1-4.7,4.7
				S128.3,149.7,130.9,149.7z M130.9,141.8c1.7,0,3.2,1.4,3.2,3.2c0,1.7-1.4,3.2-3.2,3.2c-1.7,0-3.2-1.4-3.2-3.2
				C127.8,143.2,129.2,141.8,130.9,141.8z"/>
			<rect id="XMLID_172_" x="130.1" y="144.2" class="st0" width="1.6" height="1.6"/>
			<path id="XMLID_202_" class="st0" d="M130.9,159.9c-2.6,0-4.7,2.1-4.7,4.7s2.1,4.7,4.7,4.7s4.7-2.1,4.7-4.7
				S133.5,159.9,130.9,159.9z M130.9,167.8c-1.7,0-3.2-1.4-3.2-3.2s1.4-3.2,3.2-3.2c1.7,0,3.2,1.4,3.2,3.2S132.7,167.8,130.9,167.8z
				"/>
			<rect id="XMLID_169_" x="130.1" y="163.9" class="st0" width="1.6" height="1.6"/>
			<path id="XMLID_198_" class="st0" d="M116,153.6c2.6,0,4.7-2.1,4.7-4.7s-2.1-4.7-4.7-4.7c-2.6,0-4.7,2.1-4.7,4.7
				S113.3,153.6,116,153.6z M116,145.7c1.7,0,3.2,1.4,3.2,3.2c0,1.7-1.4,3.2-3.2,3.2c-1.7,0-3.2-1.4-3.2-3.2
				C112.8,147.2,114.2,145.7,116,145.7z"/>
			<rect id="XMLID_166_" x="115.2" y="148.1" class="st0" width="1.6" height="1.6"/>
			<path id="XMLID_194_" class="st0" d="M127.8,173.3c-4.3,0-7.9,3.5-7.9,7.9c0,4.3,3.5,7.9,7.9,7.9c4.3,0,7.9-3.5,7.9-7.9
				C135.6,176.9,132.1,173.3,127.8,173.3z M127.8,187.5c-3.5,0-6.3-2.8-6.3-6.3c0-3.5,2.8-6.3,6.3-6.3s6.3,2.8,6.3,6.3
				C134.1,184.7,131.2,187.5,127.8,187.5z"/>
			<rect id="XMLID_163_" x="127" y="180.4" class="st0" width="1.6" height="1.6"/>
			<path id="XMLID_190_" class="st0" d="M114.4,158.3c-0.9,0-1.9,0.2-2.7,0.7c-1.3-1.5-3.2-2.3-5.2-2.3c-3.9,0-7.1,3.2-7.1,7.1
				s3.2,7.1,7.1,7.1c2,0,3.9-0.8,5.2-2.3c0.8,0.5,1.7,0.7,2.7,0.7c3,0,5.5-2.5,5.5-5.5S117.4,158.3,114.4,158.3z M114.4,167.8
				c-0.9,0-1.7-0.3-2.4-0.8l-0.6-0.5l-0.5,0.6c-1.1,1.4-2.7,2.2-4.4,2.2c-3,0-5.5-2.5-5.5-5.5s2.5-5.5,5.5-5.5
				c1.7,0,3.4,0.8,4.4,2.2l0.5,0.6l0.6-0.5c0.7-0.5,1.5-0.8,2.4-0.8c2.2,0,3.9,1.8,3.9,3.9S116.5,167.8,114.4,167.8z"/>
			<rect id="XMLID_160_" x="108.9" y="163.1" class="st0" width="1.6" height="1.6"/>
			<path id="XMLID_186_" class="st0" d="M101.8,176.5c-0.9,0-1.9,0.2-2.7,0.7c-1.3-1.5-3.2-2.3-5.2-2.3c-3.9,0-7.1,3.2-7.1,7.1
				c0,3.9,3.2,7.1,7.1,7.1c2,0,3.9-0.8,5.2-2.3c0.8,0.5,1.7,0.7,2.7,0.7c3,0,5.5-2.5,5.5-5.5C107.3,178.9,104.8,176.5,101.8,176.5z
				 M101.8,185.9c-0.9,0-1.7-0.3-2.4-0.8l-0.6-0.5l-0.5,0.6c-1.1,1.4-2.7,2.2-4.4,2.2c-3,0-5.5-2.5-5.5-5.5c0-3,2.5-5.5,5.5-5.5
				c1.7,0,3.4,0.8,4.4,2.2l0.5,0.6l0.6-0.5c0.7-0.5,1.5-0.8,2.4-0.8c2.2,0,3.9,1.8,3.9,3.9C105.7,184.2,103.9,185.9,101.8,185.9z"/>
			<rect id="XMLID_157_" x="96.3" y="181.2" class="st0" width="1.6" height="1.6"/>
		</g>
	</g>
</g>
</svg>
