<?xml version="1.0" encoding="utf-8"?>
<!-- Generator: Adobe Illustrator 19.0.0, SVG Export Plug-In . SVG Version: 6.00 Build 0)  -->
<svg version="1.1" id="Warstwa_1" xmlns="http://www.w3.org/2000/svg" xmlns:xlink="http://www.w3.org/1999/xlink" x="0px" y="0px"
	 viewBox="0 0 69.3 134.7" style="enable-background:new 0 0 69.3 134.7;" xml:space="preserve">
<style type="text/css">
	.st0{fill-rule:evenodd;clip-rule:evenodd;}
</style>
<g>
	<path class="st0" d="M51.5,95.3c0.3-0.1,0.7-0.1,1-0.2c0,0.2,0.1,0.4,0.1,0.5c-0.3,1,0,2.1-0.4,3.1c-0.2,0.4,0.2,1,0.3,1.6
		c-0.8,0.8-0.7,1.2,0.1,2.7c-0.3,0-0.5,0-0.8,0.1c-0.3,0.7,0.4,1.2,0.6,1.9c-0.2,0.1-0.4,0.2-0.6,0.3c-0.5,0.9,0.4,1.7,0.4,2.7
		c-0.3,0-0.5-0.1-0.8-0.1c-0.1-0.9-0.5-1.6-1.2-2.3c-0.3-0.3-0.6-0.5-0.6-1c0.2-0.2,0.4-0.3,0.7-0.1c0.2,0.2,0.4,0.3,0.8,0.6
		c0-0.4,0-0.8-0.1-0.9c-0.7-0.2-0.9-1-1.5-1.4c-0.6-0.4-1.1-0.9-1.6-1.3c-0.4-0.3-0.8-0.3-1.3,0.1c0.2,0.3,0.3,0.6,0.5,0.7
		c0.7,0.6,1.5,1.1,2.2,1.6c0.2,0.1,0.2,0.4,0.3,0.6c-0.4,0.1-0.9,0-1.2,0.5c-0.1,0.9,0.7,0.9,1.2,1.1c-0.2,0.4-0.3,0.7-0.4,1
		c-0.8-0.4-0.8-0.4-1.5-0.2c0.6,1,0.6,1,2.1,0.7c-0.1-0.3-0.1-0.7-0.2-1.3c0.5,0.3,0.8,0.5,1,0.6c0.3,0.2,0.5,0.5,0.8,0.8
		c0.1,0.4,0.2,0.7,0.3,1.1c0.1,0.5-0.2,0.7-0.6,0.7l0,0c-0.2-0.5-0.4-1-0.6-1.5c-0.7,0.2-1.2,0.3-2,0.5c0.5,0.3,0.7,0.4,1,0.6
		c-0.5,0.4,0.2,0.8,0.1,1.2c-0.3,0.2-0.6,0.4-1,0.6c0,0.1,0.1,0.3,0.1,0.4c0.7,0.3,0.6,0.8,0.4,1.5c-0.6-0.5-1.1-1.1-1.9-0.4
		c-0.1,0.4,0.1,0.7,0.4,1c0.5,0.4,0.3,0.8,0.2,1.2c-0.5,0.1-0.9-0.9-1.5-0.1c0.1,0.2,0.3,0.5,0.2,0.7c0,0.5,0.1,0.9,0.6,1.2
		c0.3,0.2,0.4,0.5,0.1,0.9c-0.6-0.2-1.1-0.5-1.1-1.2c0-0.6-0.2-0.9-0.5-1.3c-0.3-0.3-0.6-0.3-0.9,0c0,0.6,1.1,0.7,0.6,1.4
		c0.4,0.4,0.7,0.9,1.2,1.4c-0.7,0.3-1.2,1.1-2,0.6c-0.1,0.3-0.1,0.5-0.2,0.8c-0.3-0.2-0.6-0.3-0.8-0.5c-0.2-0.1-0.5-0.3-0.8-0.5
		c0,0.4,0,0.7-0.1,1.1c-0.3-0.1-0.5-0.3-0.8-0.4c-0.2-0.1-0.4-0.3-0.7-0.4c-0.2,0.2-0.4,0.5-0.7,0.6c-0.2,0.1-0.5-0.2-0.8-0.3
		c-0.3-0.2-0.6-0.3-0.9-0.5c0,0.3-0.1,0.6-0.1,0.9c-0.5-0.2-1-0.3-1.5-0.5c-0.1,0.2-0.3,0.5-0.4,0.8c0.8,0.5,1.5,0.9,2.1,1.3
		c0.2,0.4-0.1,0.5-0.3,0.6c-0.1,0.1-0.1,0.3-0.1,0.5c-0.1,0-0.2,0.1-0.3,0.1c-0.4-0.2-0.8-0.3-1.2-0.5c-0.7-0.4-1.4-0.8-2.1-1.1
		c-0.7-0.3-1.4-0.4-2.3-0.7c1,0.8,1.9,1.3,2.8,1.8c0.9,0.6,1.7,1.1,2.5,1.6c0.6-0.2,1-0.4,1.5-0.5c0-0.1,0-0.3,0-0.6
		c0.7,0,1.4,0.2,2,0.4c0.4,0.1,0.8,0.3,1.2-0.3c0.1-0.2,0.7-0.1,1.1-0.2l0,0c0.5,0.4,1,0.6,1.6,0.6c0.3,0.1,0.5,0.2,0.8,0.3
		c0,0.2,0.1,0.5,0,0.7c0,0.1-0.4,0.2-0.5,0.1c-0.7-0.2-1.3-0.5-2-0.7c-1,1.2-2,0.1-3,0c-0.3,0.3-0.6,0.5-0.9,0.8
		c0.1,0.3,0.3,0.6,0.4,0.8c-0.2,0-0.3,0.1-0.3,0.1c-0.5-0.3-1.1-0.7-1.7-1.1c0.3,0.6,0.3,0.6,0.8,0.9c0.4,0.2,0.8,0.4,0.9,0.9
		c-0.7,0.3-1.1-0.2-1.6-0.5c-0.5-0.3-0.9-0.6-1.3-0.9c-0.4,0.2-0.3,0.4-0.1,0.6c0.6,0.4,1.3,0.8,1.9,1.2c0.4,0.3,0.9,0.6,1.2,1.3
		c-0.3,0-0.6,0.1-0.7,0c-0.3-0.2-0.6-0.5-1-0.9c0,0.4,0,0.6,0,0.9c-0.4-0.2-0.8-0.3-1.1-0.5c-0.6,0.7,0.5,0.9,0.3,1.5
		c-0.3,0-0.6,0-1.1,0c0,0.4,0.1,0.7,0.1,1.1c-0.2,0.1-0.4,0.3-0.6,0.3c-0.9,0-1.8,0.1-2.7,0c-1.7-0.1-3.3-0.3-5-0.4
		c-0.1,0-0.2,0-0.3,0c-0.5-0.2-1,0.2-1.5,0c-0.4-0.2-0.8-0.5-1.4-0.7c0-0.2,0.1-0.4,0.1-0.7c-0.2-0.2-0.5-0.5-0.9-0.8
		c0.7-0.5,1.2,0.3,1.8,0c-0.2-1-1.7-0.8-2-2c0.7,0.2,1.2,0.4,1.7,0.6c0-0.1,0.1-0.1,0.1-0.2c-0.6-0.3-1.3-0.6-1.9-0.9
		c0.4-1,1.1,0,1.6-0.4c-0.1-0.3-0.3-0.6-0.4-1c-1.2,0-2.3,0-3.4,0.2c-0.4,0.1-0.8,0.1-1.2,0.1l0,0c0-0.2,0-0.4,0.1-0.6
		c1-0.2,2,0,2.9-0.4c-0.3-0.6-1.1,0-1.3-0.8c0.6,0.1,1.2,0.2,1.7,0.3c0.1,0,0.3,0.1,0.3,0.3c0.2,0.6,0.5,0.3,0.7,0.3
		c0.2-0.3,0.3-0.5,0.4-0.8c0.1-0.3,0-0.6,0-0.9c0.4,0.1,0.8,0.1,1.2,0.2c-0.5-0.4-1.2-0.6-1-1.3c0.3,0.1,0.7,0.2,1,0.2
		c0,0,0.1-0.1,0.3-0.2c-0.5,0-0.8-0.5-1.3-0.4c0,0.2,0,0.3,0,0.5c-0.9,0.1-1.5-0.7-2.2-1c-0.3,0.3-0.7,0.5-1.1,0.2
		c-0.4-0.3-0.8-0.5-1.2-0.7c-0.1,0-0.2,0-0.3,0c-0.1,0.2-0.2,0.3-0.3,0.5c-0.2-0.1-0.5-0.2-0.7-0.2c0,0.3-0.1,0.6-0.1,0.9
		c-0.1,0-0.2,0.1-0.2,0c-0.2-0.1-0.4-0.2-0.6-0.4c-0.1-0.2-0.2-0.3-0.3-0.5c-0.2-0.4-0.4-0.9-0.7-1.4c0.4-0.1,0.7-0.1,1.1-0.2
		c-0.4-0.4-0.6-0.9-0.4-1.4c0.1-0.2,0.1-0.6,0-0.7c-0.6-0.7-0.2-1.4-0.3-2.1c-0.1-1.7,0.3-3.4,0.2-5.1c-0.1-1.7-0.3-3.4-0.5-5.1
		c-0.1-0.8-0.2-1.5,0.2-2.3c0.3-0.6,0-1.4-0.1-2.2c0-0.4-0.1-0.8-0.2-1.2c0-0.6-0.2-1.1-0.7-1.6c-0.1-0.1-0.2-0.3-0.4-0.6
		c0.7-0.3,1.3-0.4,1.8,0.2c0.9,1.2,1.7,2.4,2.6,3.6c0.1,0.1,0.2,0.3,0.1,0.4c-0.6,0.7,0.2,1.2,0.2,1.8c-0.2,0.2-0.4,0.4-0.7,0.6
		c0.2,0.7,0.8,1.3,0.8,2.3c-1.2-0.5-1.1-1.8-2.1-2.4c0.1,0.3,0.1,0.6,0.2,0.8c0.5,0.9,1,1.7,1.5,2.6c0.2,0.3,0.3,0.6,0,1
		c-0.8-0.1-0.6-1.1-1.2-1.3c-0.2,0.6,0.2,0.9,0.4,1.4c0.5,1,1.1,2.1,1.7,3.1c0.3,0.5,0.5,1-0.2,1.3c0.1,0.8-1,1.4-0.5,2.3
		c0,0.1-0.2,0.3-0.3,0.5c-0.8-0.4-0.5-1.3-1.1-1.7c-0.2,0.3-0.3,0.6-0.5,0.7c-0.3,0.2-0.5,0.4-0.6,0.8c0,0.4,0.2,0.6,0.4,0.9
		c0.1,0.1,0.3,0.3,0.6,0.6c-0.2-0.7-0.4-1.2-0.6-1.9c0.4,0.2,0.7,0.3,0.8,0.4c0.6,0.8,0.9,1.6,1.2,2.7c-0.3,0-0.5-0.1-0.7-0.1
		c0,0.1-0.1,0.2-0.1,0.2c0.1,0.4,0.4,0.7,0.3,1.3c-0.1,0.2,0.4,0.6,0.7,0.9c0.2-0.2,0.2-0.3,0.3-0.4c0.1-0.1,0.2-0.2,0.4-0.3
		c0.4,0.2,0.8,0.5,1.3,0.8c0.1-0.3,0.2-0.6,0.3-0.7c0.7,0.1,1.2,0.2,1.6,0.3c0.4,0.1,0.8,0.2,1.3,0.4c-0.1-0.7-0.8-0.7-0.9-0.9
		c0-0.8-0.1-1.5-0.1-2.1c0.9,0,0.7,1.1,1.2,1.3c0.4-0.2,0.3-0.5,0.1-0.7c-0.6-1.1-1.2-2.1-1.8-3.2c-0.1-0.2-0.1-0.4-0.1-0.9
		c0.5,0.4,0.9,0.7,1.2,0.9c0.1-0.1,0.1-0.1,0.1-0.2c0.1-0.7-0.3-1.3-0.6-1.9c-0.2-0.3-0.4-0.6-0.5-0.9c-0.1-0.1,0-0.4,0.1-0.5
		c0-0.1,0.3-0.1,0.4,0c0.2,0,0.3,0.2,0.5,0.3c0.1-1-0.7-1.5-0.9-2.3c0.3-0.4,0.6-0.9,0.9-1.4c-0.5-0.6-1-1.2-1.6-1.8
		c0.4-0.3,0.8-0.6,1.2-1c0.1-0.5-1.1-1.1,0.1-1.7c-0.4-0.2-0.8-0.3-1.2-0.5c0-0.2,0.1-0.4,0-0.6c-0.1-0.2-0.2-0.4-0.4-0.6
		c-1.5-2-2.9-3.9-4.4-5.9c-0.1-0.1-0.2-0.1-0.3-0.2c0.1,0.4,0.1,0.8,0.2,1.1c0,0.3,0,0.6,0,1.1c-1.8-1-2.5-2.8-3.8-4
		c0.1-0.5,0.2-1,0.3-1.6c-0.3,0.1-0.5,0.2-0.7,0.2c-0.8-1-0.5-2.6-1.8-3.2c-0.1-0.6,0.2-1-0.2-1.5c-0.4-0.6-0.7-1.4-1.1-2.1
		c-0.1-0.2,0-0.5-0.1-0.7c-0.1-0.3-0.2-0.6-0.4-0.7c-0.8-0.3-1.1-1-1.4-1.7c-0.4-0.9-0.7-1.9-1.1-2.9c-0.5-1.3-0.9-2.7-1.5-4
		c-0.4-0.8-0.6-1.6-0.9-2.5c-0.4-1.2-0.6-2.5-1-3.7c-0.1-0.3-0.3-0.6-0.4-0.9C6.3,64.8,6.2,64.4,6,64c-0.1-0.2-0.1-0.5-0.1-0.7
		c1,1.1,1.4,2.5,2.5,3.9c-0.3-1.3-0.9-2.1-1.3-3c-0.3-0.9-0.9-1.7-0.9-2.8c0.3,0.4,0.6,0.9,1,1.4c0.1-0.7,0.1-0.7-0.9-3
		C5.9,59,5.6,58,5.2,57.1c0.1-0.1,0.3-0.2,0.5-0.3c0-0.9-0.8-1.6-0.5-2.7c0.5,0.3,0.6,0.7,0.7,1.1c0.1,0.4,0.3,0.7,0.5,1.1
		C6.6,56.2,6.7,56.1,7,56c-0.3-0.7-0.7-1.4-1-2.1c-0.3-0.7-1-1.2-0.9-2.2C6,52,6,53,6.8,53.4c0-0.3,0.1-0.6,0-0.7
		c-0.3-0.8-0.7-1.5-1.1-2.2c-0.1-0.3-0.2-0.6-0.2-1C5.7,49.5,6,49.6,6,49.8c0.3,0.6,0.6,1.1,0.9,1.7c0.2,0.3,0.4,0.7,0.6,1.1
		c0.2-1,0.2-1,0-1.5c-0.6-1.2-1.2-2.4-1.7-3.8c-0.1-0.4-0.5-0.8-0.8-1.2c-0.2-0.3-0.3-0.6,0.3-0.7c0.7,0.9,0.9,2.2,1.9,3
		c0.1,0,0.2,0,0.3-0.1c-0.2-1-0.9-1.8-1.3-2.7c-0.3-0.9-1-1.6-1-2.7c0.3,0.3,0.7,0.6,1.1,1c0.1-0.3,0.3-0.5,0.2-0.6
		c-0.2-0.6-0.5-1.2-0.8-1.7c-0.2-0.4-0.5-0.8-0.3-1.4c0.3,0.3,0.6,0.5,1.1,0.9C6.4,39.9,6,39,5.6,38.2c-0.1-0.2-0.2-0.3-0.3-0.5
		c0-0.1,0.1-0.3,0.1-0.4c0.1-0.1,0.3,0,0.4,0.1c0.1,0.1,0.2,0.3,0.3,0.5c0.2,0.4,0.4,0.8,0.7,1.1c-0.2-1.1-0.7-2.1-1.1-3.1
		c-0.1-0.3-0.1-0.4,0-0.7c0.4-0.5,0.4-1.2,0.2-1.8c-0.1-0.2-0.1-0.4-0.1-0.6c0-0.8-0.2-1.4-0.8-2c-0.3-0.3-0.1-0.6,0.3-0.9
		c-0.5-0.6-1-1.3-1.7-2.2c0.7,0.2,1.1,0.3,1.5,0.4c0.1-1.1-1.1-1.4-1.4-2.4c0.4,0,0.7-0.1,1.1-0.1c0-0.1,0-0.3,0-0.3
		c-0.5-0.4-0.9-0.8-1.5-1.4c0.9,0,1.4,0,1.9,0.6c0.3,0.4,0.6,0.8,1,1.1c1,0.7,1.8,1.7,2.5,2.7C9,28.8,9.4,29.1,9.9,29
		c1-0.2,1.9,0.4,2.9,0.1c0.1,0,0.4,0.1,0.5,0.3c0.5,0.5,0.9,1,1.3,1.6c0.1,0.2,0.1,0.4,0.1,0.7c0,0.1-0.1,0.3,0,0.4
		c0.7,0.8,0.5,1.8,0.4,2.7c0.7,0.7,1.4,1.4,2.2,2.1c0.2-0.1,0.5-0.2,0.8-0.4c-0.1,0.8,0.2,1.5,0.8,2.1c0.8,0.7,1.5,1.5,2.3,2.3
		c0.6,0.6,1.4,1,2.3,1.2c-0.7-1-1.6-1.8-2.5-2.1c-0.7-1.5-1.8-2.5-2.9-3.4c-0.5-0.5-1-1.1-1.5-1.7c0.1-0.2,0.2-0.3,0.3-0.4
		c0.4-0.4,0.4-0.9,0-1.3c-0.5-0.6-1-1.2-1.5-1.8c-0.3-0.3-0.5-0.6-0.8-1c0.5-0.4,1.1,0.1,1.5-0.5c0.2-0.3,1-0.1,1.5-0.6
		c-0.1-0.2-0.1-0.5-0.2-0.7c0.1-0.1,0.2-0.2,0.2-0.1c0.5,0.2,0.9,0.1,1.3-0.3c0.4-0.4,0.8-0.7,1.2-1c0.1-0.1,0.4,0,0.7,0
		c-0.5,0.8-1.5,1-1.7,1.9c1.7-0.1,1.9-0.3,1.9-1.3c0.3-0.1,0.6-0.2,1.2-0.3c-1.5-1.3-3.1-2.1-4.7-2.8c0.1-0.6,0.4-0.6,0.7-0.4
		c0.6,0.5,1.4,0.7,2.1,1.1c0.2,0.1,0.3,0.1,0.5,0.1C20.9,25.1,21,25,21,25c-0.3-0.2-0.6-0.3-0.9-0.5c0.2-0.2,0.3-0.3,0.3-0.3
		c0.4,0.1,0.8,0.1,1.1,0.2c0.2,0,0.5,0.1,0.6,0.2c1.8,1.1,3.6,2.1,5.5,3.2c0.1,0.1,0.3,0.2,0.4,0.2c1.2,0,2.2,0.7,3.1,1.4
		c0.1,0.1,0.3,0,0.6,0.1c-0.5-0.6-0.9-1-1.4-1.3c-2.2-1.3-4.4-2.6-6.5-4c-0.7-0.5-1.4-1-2-1.7c0.2-0.1,0.3-0.2,0.3-0.1
		c1.8,1.1,3.6,2.2,5.4,3.3c1.3,0.8,2.5,1.5,3.8,2.3c0.2,0.1,0.3,0.4,0.4,0.6c0.7,0.9,1.1,1.1,2.2,1.3c0.3,0,0.6,0.1,0.9,0.1
		c0.3,0,0.7,0,1.2,0c-0.3-0.4-0.5-0.7-0.8-1.1c0.3,0,0.6-0.1,0.8,0c1.7,0.7,3.4,1.6,4.9,2.6c0.2,0.1,0.3,0.2,0.5,0.2
		c0.3-0.3,0-0.5-0.1-0.7c-0.6-0.5-1.2-1-1.9-1.4c-0.9-0.6-1.9-1.1-2.8-1.6c-0.5-0.3-1.1-0.5-1.6,0.2c-0.4-0.3-0.7-0.5-1-0.7
		c0-0.2,0-0.3,0.1-0.3c0.3-0.2,0.7-0.4,1.1-0.6c-0.3-0.2-0.6-0.5-0.9-0.7l0,0c-0.3-0.6-0.8-1.1-1.4-1.5c-0.9-0.5-1.6-1.3-2.6-1.7
		c-0.2,0.3-0.5,0.6-0.7,0.9c0,0-0.1,0-0.2,0c-0.7-0.3-1.4-0.7-2.1-1c-0.1-0.1-0.4,0.1-0.5,0.2c-0.1,0.1,0,0.3,0,0.4
		c0.4,0.3,0.8,0.7,1.3,1c1.8,1,3.5,2.2,5.1,3.4c0.5,0.4,1.1,0.8,1.3,1.6c-0.3-0.1-0.5,0-0.6-0.1c-2.6-1.9-5.3-3.7-7.9-5.6
		c-0.2-0.2-0.5-0.3-0.8-0.3c-0.8-0.2-1.6-0.5-2.4-0.7c0.1-0.4,0.1-0.7,0.2-1c0.3-0.2,0.8,0.2,1-0.4l0,0c0.4,0,0.8,0,1.2,0
		c0.3,0,0.6,0.1,0.9-0.2c0.1-0.1,0.4-0.1,0.7-0.1c0.9,0.1,1.8,0.1,2.8,0.2c0-0.4-0.2-0.6-0.6-0.7c-0.6-0.1-1.2-0.2-2.1-0.4
		c0.4-0.3,0.6-0.4,0.7-0.4c0.6,0,1.3,0,2,0.1c0.2-0.7,0.9-0.8,1.5-1.1c0.6-0.3,1.1,0,1.7,0.2c1.2,0.4,2.3,0.7,3.5,1.1l0,0
		c0.3,0.5,0.4,0.6,0.8,0.4c0.1,0,0.1-0.2,0.1-0.2c0.1-0.1,0.2-0.1,0.3-0.2c1.1,0.3,2.3,0.6,3.4,0.9c0-0.1,0-0.1,0.1-0.2
		c-0.4-0.3-0.8-0.5-1.4-0.9c1.1-0.2,1.8,0.4,2.7,0.4c0.1-0.2,0.2-0.4,0.3-0.6c0.4,0.1,0.8,0.2,1.3,0.2c0.8-0.7,1.4,0,2.1,0.3
		c0.8,0.4,1.5,0.5,2.5,0.3c-0.5-0.5-1-0.7-1.5-0.7c-1,0-1.9-0.4-2.7-1c-0.1-0.1-0.2-0.3-0.4-0.4c0.7-0.5,1.1,0.3,1.7,0.2
		c0.2-0.3,0.4-0.7,0.6-1.2c-0.5-0.4-1.2-0.5-2.1-0.8c0.3-0.1,0.4-0.3,0.5-0.3c0.2,0,0.4,0.1,0.6,0.1c1.2,0.5,2.4,0.7,3.7,0.6
		c1.2,0.7,2.4,1.4,3.7,2.1c0.1,0,0.3-0.1,0.6-0.3c-1.4-1-2.8-1.4-4.3-1.7c-0.5-0.5-1-0.9-1.5-1.4c0.1-0.2,0.3-0.4,0.5-0.6
		c1.1,0,2,0.7,2.9,1.3c0.1-0.2,0.2-0.4,0.4-0.7c-1.4-0.6-2.8-1.1-4.2-1.7c0-0.3,0.2-0.3,0.5-0.3c0.6,0.2,1.3,0.4,1.8,0.5
		c-0.8-0.8-1.3-1-3.6-1.4c-0.4-0.5-0.9-0.9-1.3-1.3c-0.8,0.3-1.6,0.6-2.3,0.8c-0.1,0-0.3,0-0.4,0c-0.2-0.2-0.3-0.4-0.5-0.6
		c-0.9,0.5-1.9,0-2.8,0.3c-0.1,0-0.3-0.2-0.6-0.4c0.4-0.3,0.7-0.4,0.9-0.6c-0.1-0.1-0.1-0.3-0.2-0.3c-0.4-0.2-0.7-0.5-1.2-0.8
		c0.2-0.1,0.3-0.3,0.5-0.3c0.4,0,0.8,0,1.1,0.2c1,0.6,1.9,0.6,2.9,0.2c0.2-0.1,0.5-0.1,0.7,0c0.4,0.1,0.8,0.3,1.2,0.5
		c0.7,0.4,1.4,0.7,2.2,0.6c0.5,0,1.1,0.3,1.6,0.6c0.6,0.4,1.2,0.6,1.9,0.4c0.8-0.2,1.5,0.1,2.4,0.8c-1-0.1-1.8-0.2-2.6-0.3
		c0,0,0,0.1,0,0.1c0.2,0.1,0.4,0.1,0.7,0.2c0,0.2,0,0.4,0,0.7c0.1,0,0.2,0.1,0.3,0.1c1.1-0.6,2.3-0.3,3.4-0.2
		c0.6,0.1,1.2,0.3,1.8,0.4c0.1,0.3,0.1,0.5,0.2,0.8c0,0.2,0,0.5,0,0.9c0.3-0.2,0.5-0.4,0.7-0.6c-0.4-0.5-0.6-0.8-0.9-1.1
		c-0.5-0.3-0.9-0.8-1.4-1c-1.2-0.6-2.5-1.1-3.8-1.5c-1.9-0.7-3.9-1.4-5.8-2.1c-2.3-0.8-4.5-1.2-6.9-0.4c-1,0.3-2.1,0.3-3.2,0.5
		c-0.9-0.3-1.7-1.2-3-1c2.1,1.4,4.3,1.8,6.6,2.3c-0.2,0.6-0.5,1.2-0.7,1.8c0,0.4,0.6,0.6,0.2,1c-0.1,0-0.2,0.1-0.3,0
		c-0.3-0.4-0.7-0.7-0.9-1.1c-0.6-1.4-0.7-1.5-2.2-1c0.9,0.3,1.4,1,1.7,1.8C35,13,35,13,34.7,12.1c-0.6-0.1-1.3-0.2-2-0.3
		c-0.2,0-0.4-0.1-0.6-0.1c-1.1,0.6-2-0.1-2.9-0.4c-0.4-0.1-0.8-0.3-1.3-0.5c0-0.2,0-0.5,0-0.7c-0.5-0.2-0.9-0.5-1.5-0.7
		c-0.6,0.5-1.2,0.5-1.9,0.2c-0.5-0.2-1-0.1-1.4-0.2c-0.8,0.6-0.5,2-1.7,2.4c-0.9-0.4-1.8-0.8-2.9-0.4c-0.1,0-0.2,0-0.3,0
		c-1.2-0.5-2.2,0-3.1,0.8c-0.7,0.6-1.4,1.1-2.3,1.3c-0.5,0.2-0.9,0.3-1.4,0.3c-0.8,0.1-1.4,0.3-2,0.7c-0.5,0.3-1,0.7-1.4,1
		c-0.7,0.5-1.5,0.9-1.7,1.8c-0.4,0-0.7,0-1,0l0,0c0.9-1.9,2.3-3.1,4.3-3.6c0.8-0.2,1.7-0.3,2.4-0.5c0.5-0.2,1-0.6,1.6-0.9
		c-0.3-0.2-0.5-0.3-0.8-0.4c0.7-0.2,1.4-0.4,2-0.7c0.5-0.2,1-0.5,1.4-0.8c0.7-0.5,1.4-0.8,2.3-0.7c0.8,0,1.6-0.2,2.5-0.3
		c0.6-1,1.7-0.7,2.6-1.2c0.8-0.5,1.8-0.7,2.7-1c1.8-0.7,3.6-0.9,5.4-0.1c0.3,0.1,0.7,0.2,1,0.4c1.7,1.1,3.4,0.7,5.1,0.2
		c1.8-0.5,3.5-0.3,5.2,0.3c0.4,0.1,0.7,0.2,1.1,0.3c0.3,0.1,0.6,0,0.9,0.2c0.8,0.5,1.8,0.6,2.7,0.8c0.2,0,0.4,0.1,0.5,0.2
		c0.5,0.7,1.3,0.7,2,0.9c0.6,0.2,1.2,0.4,1.8,0.7c0.4,0.1,0.8,0.4,1.2,0.4c1.3-0.1,2,0.7,2.6,1.6c1.1,1.5,2.3,2.6,4.1,3.2
		c0.6,0.2,1.1,0.6,1.7,0.9c0.4,0.2,0.7,0.5,0.7,1.1c-0.6,0-0.9-0.5-1.4-0.7c-0.5-0.1-1-0.4-1.5-0.5c0.7,0.8,1.9,1,2.4,2.1
		c0.4-0.2,0.7-0.4,1-0.4c0.3,0,0.6,0.2,0.9,0.2c0.1,0.7-0.4,0.9-0.8,1.1c-1,0.6-2.2,0.9-3.4,0.6c-0.2,0.2-0.4,0.5-0.6,0.5
		c-0.4,0-0.8-0.2-1.4-0.4c-0.8,0.8-2,0.5-3,0.5c-0.4,0-0.7-0.2-1.1,0.1c-0.2,0.1-0.5,0.1-0.7,0c-0.3-0.1-0.5-0.2-0.7,0.2
		c0,0.1-0.2,0.2-0.2,0.2c-0.8-0.3-1.4,0.3-2,0.3c-0.7,0-1.5-0.1-2.2-0.2c-0.6-0.2-0.9,0.3-1.4,0.5c-0.5-0.1-1-0.5-1.7-0.1
		c-0.3,0.1-0.8,0-1.1-0.2c-0.5-0.2-0.9-0.3-1.4-0.1c-1,0.4-2.1,0.4-3.2,0.4c-0.3,0-0.7,0-1,0c-0.7,0.1-1.3-0.1-1.7-0.6
		c-0.5-0.5-1.1-0.8-1.8-0.9c-0.6-0.1-1.2-0.3-1.9-0.4c0.3,0.8,1,0.6,1.5,0.8c0.5,0.2,1,0.2,1.6,0.3c0.2,0.8-0.7,0.8-0.7,1.3
		c-0.7,0.2-1.4-0.4-2,0.3c0.2,0.1,0.4,0.3,0.6,0.2c0.7-0.1,1.2-0.1,1.2,0.8c0.8,0.7,1.3,1.6,2.3,2c1.4,0.7,2.8,1.6,4.3,2.3
		c0.2,0.1,0.4,0.3,0.6,0.4c-0.2,0.2-0.3,0.4-0.5,0.6c0.2,0.1,0.3,0.2,0.5,0.3c0.2-0.4,0.4-0.7,0.6-1c-0.3-0.8-1.2-1.1-2-1.8
		c0.4,0,0.7-0.1,0.8,0c0.4,0.2,0.8,0.4,1.1,0.7c0.4,0.3,0.9,0.4,1.4,0c-0.8-1.1-2.1-1.3-3.1-1.9c-1-0.6-2.1-1.1-3.2-2
		c1.3,0.1,2.1,0.7,2.9,1.2c0.8,0.4,1.6,0.9,2.5,1.4c0.8,0.5,1.7,1,2.5,1.5c0.3-0.3,0.2-0.5,0-0.6c-0.4-0.3-0.8-0.5-1.2-0.8
		c-1.2-0.8-2.4-1.5-3.6-2.3c0-0.4,0.2-0.5,0.5-0.4c0.5,0.2,0.9,0.3,1.3,0.6c0.7,0.4,1.4,0.8,2,1.3c0.6,0.5,1.3,0.6,2.1,0.3
		c-0.6-0.5-1.3-0.8-1.9-1.1c-0.6-0.3-1.3-0.6-2.1-0.9c0.2-0.2,0.4-0.4,0.5-0.4c0.7,0.2,1.4,0.5,2.1,0.8c0.5,0.2,0.9,0.6,1.6,0.4
		c-0.4-0.5-0.7-0.9-1-1.4c0.2-0.2,0.4-0.5,0.7-0.7c1.4,0.3,2.9-0.3,4.3-0.1c0.1,0,0.2,0.2,0.5,0.3c-0.3,0.2-0.5,0.4-0.8,0.6
		c0,0.3,0,0.6,0,0.9c0.4,0.3,1.1-0.1,1.3,0.6c-0.4,0.1-0.7,0.3-1.2,0.5c0.3,0.1,0.4,0.2,0.6,0.2c0.1,0.4-0.3,0.5-0.5,0.9
		c0.5,0,1,0,1.5,0c0,0.3,0.1,0.6,0.2,0.8c-0.6-0.1-1.2-0.2-1.9,0.3c0.9,0.5,1.4,0.2,1.8-0.4c0,0,0.1,0,0.1,0c1,0.6,2.1,0.5,3.3,0.1
		c0-0.3,0-0.7,0.1-1c-0.6-0.6-1.5-0.5-2.1-1.1c0.8-0.7,1.4,0.1,2-0.1c0.8-0.3,0.9,0.9,1.7,0.6c0.1-0.2,0.2-0.5,0.3-0.8
		c0.3-0.1,0.6-0.2,1-0.2c0-0.1-0.1-0.3-0.1-0.4c-0.2-0.3-0.4-0.5-0.6-0.8c0.6-0.3,1-0.3,1.5-0.2l0,0c0.1,0.2,0.1,0.6,0.3,0.7
		c0.9,0.4,1.5,1.3,2.6,1.4c0.4,0.1,0.8,0.6,1.2,0.9c0.1,0.1,0.1,0.3,0,0.4c-0.1,0.1-0.3,0.2-0.4,0.2c-0.3-0.1-0.6-0.2-0.9-0.4
		c-0.7-0.4-1.5-0.9-2.5-1.5c0.1,0.4,0.1,0.7,0.2,0.8c1,0.7,2,1.6,3.2,2c0.5,0.2,0.9,0.5,1.4,0.9c-0.2,0.4-0.4,0.7-0.6,1.1
		c0.6,0.8,0.6,0.8,0,1.6c0.3,0.7,1,1.2,1.3,2.4c-0.5-0.5-0.9-0.7-1.2-1c-0.1,0.3,0.5,0.7,0,1c0.2,0.4,0.3,0.8,0.5,1.2
		c0.2,0.3,0.4,0.6,0.7,1.2c-0.5-0.1-0.7-0.2-1.1-0.3c0.1,0.3,0,0.6,0.2,0.8c0.3,0.5,0.7,0.9,1,1.6c-0.3,0-0.5,0-0.6,0
		c-0.4-0.5-0.9-1-1.4-1.4c0.3,0.8,0.8,1.5,1,2.3c0.2,0.8,0.3,1.7,0.4,2.5c-0.8,0.6-0.9,0.6-0.6,1.4c0.3,0.8,0.6,1.5,0.9,2.4
		c-0.4-0.2-0.6-0.3-0.9-0.4c-0.5,1.2,0.6,2,0.8,3.1c-0.2,0.2-0.5,0.4-0.8,0.7c0.1,0.3,0.1,0.7,0.2,1.1c-0.4,0.1-0.8,0.2-1.1,0.3
		c-1.4-1.7-3.2-3-4.8-4.4c-0.4,0.5-0.2,0.7,0.1,0.9c0.8,0.7,1.7,1.3,2.6,2c1.2,1,2.2,2.1,2.9,3.5c0.1,0.1,0.2,0.3,0.2,0.4
		c0,0.2,0,0.5-0.1,0.6c-0.1,0.1-0.4,0-0.7,0c0-0.8-0.3-1.3-0.9-1.7c-0.3-0.3-0.6-0.6-1-0.9c-1-0.8-1.9-1.8-3.1-2.4
		c-0.2,0.8-0.2,0.8,0.1,1c0.7,0.6,1.5,1.2,2.2,1.7c0.9,0.7,1.8,1.5,2.7,2.2c-0.3,0.5-0.9,0.2-1.3,0.3c0.5,0.6,0.5,0.6,1.2,0.3
		c0.5,0.7,0.9,1.4,1.4,2.2c-0.3,0.3-0.5,0.5-0.7,0.7c0.1,0.4,0.2,0.8,0.3,1.3c-0.2,0.2-0.4,0.4-0.4,0.5c-0.3,0.7,0.7,1.1-0.1,1.8
		c-0.5-0.8-0.9-1.6-1.3-2.4c-0.1-0.8-0.5-1.4-1.2-1.9c-1.1-0.8-2.2-1.6-3.3-2.4c-0.3-0.2-0.6-0.4-0.4-0.8c1.1-0.1,2,0.4,2.7,1.2
		c0.2,0.2,0.4,0.4,0.6,0.6c0.6,0.6,1.3,1.2,2,1.8c0.1-0.9-0.5-1.3-1-1.7c-1.4-1.2-2.8-2.3-4.2-3.5c0-0.3,0.1-0.6,0.1-0.8
		c0-0.3-0.1-0.5-0.4-0.4c-0.1,1.2-0.2,2.4-0.3,3.6c0,0.3,0.2,0.6,0.3,0.8c0.2,0.3,0.5,0.5,0.8,0.7c1.2,0.9,2.4,1.7,3.6,2.6
		c0.2,0.2,0.5,0.2,0.8,0.3c0.3,1,0.5,2,0.8,3c0.1,0.3,0,0.6-0.5,0.6c-0.1-0.2-0.3-0.5-0.4-0.7c-0.2-0.5-0.3-1-0.5-1.5
		c-0.1-0.2-0.2-0.5-0.4-0.6c-0.9-0.2-1.3-1.1-1.9-1.6c-0.8-0.7-1.6-1.4-2.7-1.9c-0.3,1-0.2,1.6,0.7,2.2c0.7,0.5,1.3,1.1,1.9,1.6
		c0.4,0.3,0.6,0.7,1.2,0.7c0.1,0,0.3,0.2,0.5,0.3c0.7,0.9,1.3,1.9,1.3,3.2c-0.3,0-0.6-0.1-0.8-0.1l0,0c-0.1-0.5-0.2-0.9-0.4-1.4
		c-0.1-0.2-0.2-0.4-0.3-0.5c-1.4-1-2.7-2-4.2-3.1c-0.3,0.7-0.1,1.2,0.4,1.6c0.2,0.2,0.5,0.4,0.7,0.5c0.8,0.6,1.6,1.3,1.9,2.4
		c0.1,0.2,0.3,0.4,0.5,0.8c-0.6-0.1-0.9-0.3-1.1-0.5c-1.2-1-2.4-2.1-3.6-3.2c0,0,0-0.1-0.1-0.2c0.2-0.3,0.9-0.2,0.9-0.9
		c0-0.5-0.2-1-0.4-1.4c-0.2-0.3-0.4-0.5-0.7-0.9c0.4,0,0.7,0,1.1-0.1c0-0.3,0.1-0.7,0-1c-0.1-0.4-0.4-1-0.3-1.2
		c0.2-0.3,0.3-0.7,0.4-1c0.2-2.7,0.3-5.4,0.6-8c0.2-2.3-0.1-4.5-0.1-6.7c0-0.6-0.5-0.8-0.9-1.2c0.4-0.5,0.8-1.1,0.5-1.8
		c-1.1-0.9-1.9-2.2-2.7-3.4c-0.3-0.4-0.7-0.8-1.1-1.2c-0.1-0.1-0.4,0-0.5,0c-0.1,0-0.1,0.3-0.1,0.4c0.1,0.3,0.2,0.5,0.4,0.8
		c0.6,0.9,1.2,1.8,1.8,2.7c0.1,0.1,0,0.4,0,0.8c-1.1-0.6-1.2-1.8-2.1-2.5c-0.4,0.4-0.8,0.7-1.1,1.1c-0.5,0-1-0.2-1.5-0.1
		c-0.8,0.1-1.6,0-2.2-0.6c-0.2,0.3-0.3,0.6-0.5,0.7c-0.3,0.2-0.4,0.4-0.1,0.8c0.5-0.3,1-0.4,1.7-0.1c0.4,0.2,1,0,1.5,0
		c0.7,0,1.4,0,2.3,0.5c-1.9,0.2-3.6,0-5.3,0.2c0.4,0.7,0.6,1.3,1.7,1.5c-0.8,0.1-1.3,0.2-1.8,0.3c-0.3,0.5,0.1,0.9,0.2,1.4
		c0.1,0.1,0.2,0.2,0.3,0.1c0.4,0,1-0.3,1.3-0.1c0.4,0.2,0.8,0.3,1.2,0.2c0.6-0.6,0.5-1.4,0.1-2.3c0.6,0.1,1,0.2,1.4,0.2
		c0.4,0,0.7,0,1.2,0.1c-0.2,0.6-0.6,0.4-0.9,0.4c-0.3,0-0.6,0.1-0.9,0.2c0,0.9-0.1,1.8,0,2.6c0.2,0.8-0.1,1.6-0.1,2.4
		c0.4,0.2,0.8,0.4,1.4,0.7c-0.4,0.1-0.5,0.2-0.7,0.2c-0.7,0-0.7,0-0.8,0.8c0.2,0.1,0.4,0.1,0.8,0.2c-0.2,0.2-0.3,0.4-0.5,0.5
		c0.1,0.2,0.2,0.4,0.2,0.7c-0.2,0-0.4,0-0.6,0c-0.3,0.7,0,1.2,0.3,1.7c-0.2,0.3-0.4,0.5-0.5,0.7c-0.1,1.3-0.1,2.6-0.2,4
		c0,0.6,0.5,0.7,0.7,1.1c0,0-0.1,0.1-0.1,0.1c-0.1,0-0.3,0.1-0.5,0.1c0,1.2,0,2.3,0,3.5c-0.5-0.3-0.3-0.7-0.3-1
		c-0.1-0.4-0.1-0.8-0.1-1.2c0-0.4-0.1-0.8-0.1-1.2c0-0.4,0-0.7-0.1-1.1c-0.6,0.1-0.5,0.4-0.5,0.7c0.2,1,0,1.9,0.1,2.9
		c0.1,0.6-0.1,1.1-0.5,1.6c0-1,0-2.1,0-3c-0.4-0.6-0.8-1-1.2-1.5l0,0c0.3,0.1,0.7,0.2,1.1,0.3c0-0.6,0-1.2,0-1.6
		c-0.5-0.5-0.9-1-1.4-1.5c0.3,0.1,0.6,0.3,0.9,0.4c0.1,0,0.3,0,0.4,0c0-0.4,0-0.8,0.1-1.2c-0.6-0.1-1.2-0.1-1.8,0
		c0.2,0.3,0.3,0.6,0.5,0.8c-0.6-0.1-1-0.5-1.2-1.3c0.9,0,1.7,0,2.6-0.1c0-0.4-0.1-0.7-0.1-0.9c-1-0.2-1.9,0.1-2.7,0.4
		c-0.8,0.3-1.8,0.1-2.7,0.8c0.3,0.2,0.5,0.4,0.7,0.6c0.7,0.7,1.6,1.2,2.1,2.1l0,0c-0.3-0.2-0.7-0.3-1-0.5c-0.5-0.4-0.9-0.8-1.3-1.2
		c-0.6-0.6-1.1-1.2-2.3-0.6c0.2-0.5,0.3-0.7,0.5-1c-0.7-0.7-1.5-1.5-2.2-2.2c0-0.1,0.1-0.1,0.1-0.2c0.2,0.1,0.4,0.1,0.5,0.2
		c0.6,0.5,1.2,1.1,1.7,1.6c0.3,0.3,0.6,0.5,1,0.4c1.6-0.3,3.3-0.6,4.9-1c0.8-0.2,1.1-1.1,0.6-1.7c-0.4-0.4-0.8-0.8-1.3-1.2
		c-0.1-0.1-0.4-0.2-0.5-0.2c-0.8,0.3-1.7,0.1-2.3,0.7l0,0c-0.8-0.2-1.5,0.1-2.3,0c-0.4,0-0.9,0-1.4,0c0.4-0.9,1.5-0.4,1.9-1
		c-0.1-0.5-0.5-0.7-0.9-0.8c-0.7-0.2-0.9-0.6-0.9-1.2l0,0c1.1,0.5,2.2,0.4,3.4,0.2c0-0.2-0.1-0.4-0.1-0.6c0.3,0.1,0.7,0.2,1,0.3
		c0.5,0.1,0.9,0.1,1.2-0.2c0.2-0.1,0.3-0.4,0.3-0.6c0-0.1-0.5-0.4-0.5-0.3c-0.5,0.3-1,0.1-1.5,0c-0.2,0-0.4,0.1-0.5,0.1
		c0,0.3,0.1,0.5,0.1,0.6c-0.8-0.4-1.7-0.8-2.5-0.1c-0.1,0.1-0.6-0.1-0.6-0.2c-0.5-1-0.9-2-1.4-3c0.2,0.1,0.5,0.2,0.6,0.4
		c0.4,0.5,0.7,1.1,1.1,1.6c0.1,0.1,0.2,0.2,0.4,0.3c0.2-0.2,0.4-0.4,0.7-0.5c1.3,0.4,2.6,0,3.9-0.3c0.1,0,0.2-0.2,0.2-0.3
		c0-0.1-0.2-0.3-0.3-0.3c-0.6,0-1.2,0.1-1.8,0.1c-0.2,0-0.4-0.2-0.8-0.3c2-0.3,2.1-0.4,2.9-1c0-0.1,0-0.3-0.1-0.4
		c-0.5-0.7-1-1.4-1.6-2.1c-0.3-0.3-0.3-0.7-0.3-1.1c0.8,0.7,0.8,0.7,1.6,0.3c-0.2-0.3-0.4-0.6-0.6-0.8c-0.3-0.4-0.9-0.5-0.9-1.1
		c0-0.1-0.5-0.2-0.9-0.4c0.4,0.8,0.6,1.4,0.9,2c-0.6,0.7-0.6,0.7-0.2,1.2c0.2,0.3,0.4,0.5,0.7,0.9c-0.4,0-0.6,0.1-0.7,0
		c-0.3-0.3-0.7-0.7-1-1.1c-0.7-1-1.6-1.7-2.8-2.1c-0.2,0.2-0.3,0.3-0.5,0.5c-1.1-1.2-2.3-2.3-3-3.8c-0.4,0.1-0.7,0.2-1,0.3
		c0.1,0.3,0.2,0.5,0.3,0.7c-0.6,0.2-0.6,0.2-0.8,0.6c-0.2-0.1-0.5-0.2-0.5,0.2c-0.1,0.3-0.1,0.7,0.5,0.6c0-0.2-0.1-0.5-0.1-0.7
		c1.7,1.5,2.8,3.4,3.8,5.4c0.2,0.3,0.1,0.7,0.2,1.1c-0.2-0.4-0.5-0.7-0.7-1.1c-0.8-1.1-1.5-2.3-2.2-3.5c-0.3-0.5-0.7-0.6-1.4-0.8
		c0.3,0.6,0.5,1,0.7,1.2c0.8,0.5,0.9,1.3,1.3,2c0.3,0.5,0.1,1-0.2,1.8c-0.2-0.9-0.7-1.4-0.8-2.1c-0.1-0.8-0.8-1.3-1.8-1.2
		c0.1,1,1,1.6,1.2,2.5c-0.4,0.5-0.6-0.3-0.9-0.1C34.1,38,34.1,38,35,38.7c0.2-0.2,0.3-0.4,0.5-0.8c0.2,0.2,0.4,0.4,0.5,0.6
		c0.9,1.5,1.9,3.1,2.8,4.6c0,0-0.1,0.1-0.2,0.4c-0.9-1.3-1.8-2.6-2.8-4c-0.1,0.3-0.3,0.5-0.2,0.6c0.2,0.5,0.4,1,0.6,1.5
		c0.2,0.5,0.7,0.8,0.6,1.5c-0.3-0.2-0.5-0.3-0.8-0.4c0,0.1-0.1,0.1-0.1,0.2c0,0.6-0.1,1.3-0.1,1.9c0,0.6,0.2,1.2,0.4,1.8
		c-0.2,0-0.4-0.1-0.7-0.1c0-0.2,0-0.4,0-0.6c0.2-1.1-0.1-2-0.7-2.9c-0.5-0.7-1-1.5-1.1-2.4c0.6,0.2,0.8,0.7,1.1,1.1
		c0.2,0.3,0.4,0.5,0.6,0.7c0.1,0,0.1-0.1,0.2-0.1c-0.2-0.5-0.3-1.1-0.5-1.6c-0.4,0-0.8-0.5-1.2-0.1c-0.6-0.2-0.6-0.2-1.2,0.4
		c0.2,0.6,0.4,1.2,0.7,2c-0.8-0.3-0.9-1.3-1.7-1.4c0,0.7,0.4,1.1,0.7,1.6c0.2,0.5,0.6,0.9,0.7,1.4c0.2,0.5,0.6,1,0.5,1.8
		c-0.8-0.5-0.7-1.4-1.2-2c-0.5-0.6-0.7-1.3-1.3-2.2c0,0.5-0.1,0.7-0.1,0.9c0.5,1.3,1.1,2.5,1.6,3.8c0.1,0.3,0.4,0.5,0.5,0.7
		c0.1,0.1,0,0.3,0,0.5c-0.8,0.1-1-1-1.9-0.7c0.5,0.4,1.2,0.6,0.9,1.4c0.7,0.2,0.8,0.9,1.2,1.4c0.3,0.3,0.3,0.3,0,1.1
		c0.4,0.5,0.9,0.9,1.4,1.4c0,0.1-0.1,0.1-0.1,0.2c-0.2-0.1-0.4-0.1-0.6-0.2c-0.8-0.6-1.5-1.2-2.6-2c0.2,0.5,0.2,0.7,0.3,0.8
		c1.2,1,2.4,1.9,3.6,2.8c0.1,0.1,0.3,0.2,0.5,0.2c0.2,0,0.5,0,0.6,0.1c0.2,0.1,0.2,0.4,0.3,0.7c0.1,0.9,0,1.3-0.8,2.6
		c-1.1-0.9-2.2-1.8-3.3-2.7c-1.1-0.8-2.2-1.6-3.4-2.4c-0.3,0.3-0.6,0.5-0.8,0.8c0.3,0.6,0.6,1.1,1,1.8c-0.5-0.1-0.7-0.4-1-0.5
		c-0.3-0.2-0.6-0.3-0.9-0.5c-0.3,0.3-0.6,0.5-1,0.8c0.6,0.4,1.2,0.8,1.8,1.2c0.6,0.4,1,0.9,1.8,1c0.3,0,0.5,0.3,0.7,0.5
		c1.3,1.1,2.6,2.3,3.9,3.4c0.4,0.3,0.8,0.6,1.2,0.8c0.6,0.3,0.5,1,1,1.3c0,0-0.1,0.2-0.1,0.5c-0.3-0.3-0.6-0.5-0.9-0.8
		c-1.7-1.6-3.6-2.9-5.5-4.2c-1.9-1.4-3.8-2.8-5.7-4.2c-0.5-0.4-1.1-0.8-1.7-1.3c-0.2,0.4-0.4,0.7-0.6,1.1c1.8,1.1,3.5,2.1,5.3,3.2
		c1.7,1.1,3.3,2.3,4.9,3.6c-0.2-0.1-0.5-0.1-0.7-0.2c-2.1-1.4-4.3-2.8-6.4-4.2c-0.8-0.5-1.5-1-2.4-1.3c-0.3,0.4-0.2,0.7,0.1,0.9
		c0.3,0.2,0.7,0.4,1,0.6c2,1.2,4,2.5,6,3.7c0.3,0.2,0.6,0.5,1.1,0.4c0.2,0,0.5,0.2,0.7,0.4c1.8,1.7,3.6,3.3,5.4,5
		c-0.4,0.2-0.7,0.3-1.1,0.5c-0.2-0.4-0.1-0.8-0.6-1.2c-1.2-0.9-2.1-2-3.3-2.9c-1.2-1-2.6-1.8-3.8-2.7c-0.3,0.4-0.6,0.8-0.9,1
		c-0.3,0.2-0.7,0.2-1.2,0.4c0.9,1,1.9,1.8,3,2.4c0.8,0.4,1.5,0.9,2.1,1.6c0,0-0.1,0.1-0.1,0.1c-1.9-0.9-3.5-2.1-5.1-3.4
		c-1.4-1.1-2.9-2.2-4.3-3.3c-0.4,0.3-0.2,0.5,0,0.7c1.1,0.8,1.8,1.9,2.7,2.8c0.4,0.4,0.8,0.9,1.3,1.2c1.4,1,2.8,2,4.2,3
		c0.7,0.5,1.6,1,2,1.9c0.2,0.4,0.6,0.6,1,0.9c1.6,1.3,3.3,2.6,4.9,4c0.5,0.4,1,0.9,1.4,1.4c-0.4,0.3-0.5,0-0.7-0.1
		c-1.5-1.3-3-2.5-4.5-3.8c-1.1-0.9-2.3-1.8-3.5-2.7c-0.3-0.2-0.5-0.4-0.8-0.7c-2.4-2.2-5.2-4-8-5.7c-0.1,0-0.2,0-0.4,0
		c0.1,0.2,0.1,0.4,0.2,0.5c0.8,1,1.8,1.7,2.9,2.4c2.2,1.4,4.2,2.9,6.3,4.3c0.1,0.1,0.3,0.3,0.6,0.6c-0.5-0.1-0.7-0.1-1-0.2
		c0,0.1-0.1,0.2,0,0.3c1.1,1,2.2,2.1,3.3,3.1c1,0.9,2,1.7,3,2.6c0.1,0.1,0.2,0.3,0.3,0.5c0,0.1-0.1,0.1-0.2,0.2
		c-0.8-0.6-1.5-1.2-2.3-1.8c-0.3,0.6-0.2,1.1,0.3,1.5c0.5,0.4,1,0.9,1.5,1.4l0,0c-0.5,0.1-0.8-0.2-1.2-0.4c-0.3-0.2-0.6-0.4-1-0.7
		c-0.1,0.4-0.3,0.6-0.4,0.9c0.3,0.4,0.5,0.7,0.8,1.1c-0.2,0-0.3,0.1-0.3,0.1c-0.6-0.6-1.2-0.5-1.9-0.3l-0.1,0
		c-0.2-1.3-1.1-2.2-1.9-3.1c0,0,0.1-0.1,0.1-0.1c0.5,0.3,1,0.6,1.5,1c0.3-0.4,0.3-0.9,0.1-1.1c-0.7-0.6-1.3-1.5-2.4-1.2
		c-0.1,0-0.3,0-0.4,0l0,0c0.1-0.3,0.2-0.6,0.2-0.9c-1.1-1.1-2.5-1.9-3.9-2.6c-0.1,0.2-0.1,0.3-0.2,0.5l0,0c-0.4,0.1-0.7-0.1-0.9-0.4
		c-0.9-1.5-2.4-2.1-3.8-3.4c0.2,0.9,0.4,1.5,0.9,2c0.8,0.8,1.5,1.5,2.2,2.3c0.4,0.5,0.8,1,1.2,1.5c-0.1,0.5-0.2,0.8-0.2,1.2
		c3.3,3,7.1,5.3,10.7,8.3c-1.2,0.1-1.9-0.4-2.8-0.6c-0.8-0.3-1.7-0.5-2.7-0.9c0.6,1.1,1.6,1.1,2.3,1.6c0.7,0.5,1.4,0.9,2,1.5
		c-0.2,0-0.3,0.1-0.5,0c-2.2-1.3-4.4-2.6-6.5-3.9c-0.5-0.3-1.1-0.6-1.8-0.8c1.2,1.7,2.3,2.6,3.9,3.3c0.4,0.2,0.9,0.5,1.3,0.8
		c1.5,1.1,3.1,1.6,5,1.5c1.1,0,1.2,0.1,1.5,1.5c-0.1,0-0.3,0-0.4,0.1c-0.1-0.6-0.5-0.8-1.1-0.8c-0.9-0.1-1.7-0.1-2.6-0.2
		c0,0.2,0,0.3,0,0.5c-0.7-0.4-1.3-0.8-2-1.1c-0.2,0.3-0.4,0.5-0.6,0.8c0.4,0.4,0.8,0.6,1.3,0.6c1.6,0.1,3.3,0.1,4.9,0.2
		c0.4,0.1,0.8,0.3,1.1,0.3c1.4,0,2.7,0.4,4.1,0.6c0.2,0,0.4,0.2,0.6,0.6c-0.4-0.1-0.7-0.1-1.1-0.2c-0.4-0.1-0.8-0.1-1.2-0.2
		c-0.8-0.1-1.6-0.4-2.5,0c-0.1,0.1-0.4,0-0.6,0c-1.3-0.6-2.7-0.3-4.1-0.5c0.2,0.2,0.5,0.5,0.7,0.6c0.5,0.3,1,0.6,1.6,0.8
		c2.1,1.1,2,1.6,4.4,1.4c0.1,0,0.2,0.1,0.4,0.2c-0.4,0-0.7,0-1.1,0c0,0.2,0,0.4,0,0.6c-1.2-0.4-2.3-0.9-3.6-0.8
		c0.5,0.5,1,0.9,1.6,1.4c-0.7-0.3-1.5-0.5-2.1-0.9c-0.9-0.6-1.9-0.8-2.9-1c-0.9-0.2-1.8-0.4-2.7-0.6c-0.2,0-0.4,0-0.9,0
		c0.5,0.4,0.8,0.6,1,0.8c0.8,0.5,1.5,0.9,2.3,1.3c0.1,0,0.1,0.2,0.1,0.2c-0.3,0.1-0.7,0.2-1.1,0.3c0.6,0.7,1.2,1.2,1.8,1.6
		c0.4,0.2,0.9,0.2,1.2,0.5c0.9,0.9,2.2,1.3,3.2,2c0,0,0.2,0,0.3-0.1c-0.2-0.3-0.5-0.5-0.7-0.8c1,0.1,1.7,1.1,2.9,0.6
		c-0.7-0.9-1.7-1.1-2.6-1.6c-0.8-0.5-1.8-0.7-2.7-1.4c0.1-0.1,0.2-0.1,0.2-0.1c2.3,0.8,4.5,1.9,6.6,3.2c0.2,0.1,0.3,0.4,0.4,0.6
		c0.1,0.2,0.1,0.5,0.3,0.6c0.4,0.4,0.9,0.8,1.3,1.2c0.6,0.5,1.2,0.4,2,0c-0.7-0.2-1.1-0.3-1.2-0.9c0-0.1-0.2-0.2-0.3-0.3
		c-0.5-0.5-1-0.9-1.5-1.4c-0.5-0.5-1-1.1-1.6-1.5c-0.7-0.4-1.5-0.5-2.4-0.7c0.4-0.1,0.6-0.2,0.9-0.3c-0.1-0.2-0.1-0.3-0.1-0.4
		c0.4,0.2,0.9,0.2,1.1,0.5c0.6,0.6,1.2,0.5,2,0.3c-0.2-0.4-0.3-0.6-0.5-0.8c0.3,0.2,0.7,0.4,1,0.6c0.9,0.8,1.9,0.8,3.1,0.8
		c-1-1.5-2.5-1.8-4.1-1.9c0,0.2,0,0.3,0,0.5c-0.8-0.4-1.5-0.8-2.3-1.1c-0.1,0-0.1-0.2-0.1-0.3c1.1,0.2,2.1,0.5,3.2,0.4
		c1.1-0.1,2,0.7,3.1,0.3c-0.3-0.8-0.9-1.2-1.7-1.3c-0.5-0.1-1.1,0-1.6-0.1c-0.3,0-0.5-0.1-0.9-0.2c1-0.5,1.7-0.5,7.9,0.5
		c0-0.1,0-0.3,0.1-0.4c0-0.1,0.1-0.1,0.1-0.2c1.8,1.4,2.1,1.7,2.4,2.8c-0.5-0.5-0.9-0.9-1.4-1.2c-0.5-0.3-1.1-0.4-1.7-0.5
		c-0.2,0.4,0.1,0.6,0.3,0.7c1,0.7,1.7,1.6,2.5,2.4c-0.3,0.3-0.4,0-0.5-0.1c-0.7-0.9-1.6-1.1-2.8-1c0.2,0.2,0.4,0.4,0.6,0.6
		c0.6,0.6,1.4,1,1.7,1.8c-0.5-0.3-0.9-0.6-1.4-0.9c-0.2-0.1-0.5-0.2-0.7-0.4c-0.7-1.1-1.6-1.8-3.2-1.7c1,0.9,1.8,1.9,3.3,1.6
		c0.1,0.1,0.1,0.2,0.2,0.4c-0.2,0.1-0.5,0.1-0.7,0.2c0.2,0.4,0.4,0.6,0.5,0.9c-0.4-0.2-0.9-0.5-1.3-0.7c-0.9-0.7-1.6-0.8-3-0.5
		c1.9,1.7,3.7,3.2,5.8,4.6c0.4,0.3,0.9,0.4,1.3,0.5c0.5-0.4,0.3-0.8,0-1.1c-0.5-0.6-0.9-1.1-1.4-1.7c0.7,0.1,1,0.9,1.7,0.8
		C52,96,51.8,95.6,51.5,95.3z M19.9,35.4c0.1,0.4,0.1,0.9,0.7,1C20.6,35.9,20.2,35.7,19.9,35.4c-0.4-0.9-0.4-0.9-1.1-1.5
		C19,34.6,19.4,35.1,19.9,35.4z M33.8,19.8c-0.4-0.3-0.7-0.5-1.4-0.5C32.9,19.9,33.3,19.8,33.8,19.8c0.7,0.3,1.3,0.6,2,0.8
		c0,0,0.1-0.1,0.2-0.1C35.3,20,34.6,19.8,33.8,19.8z M23.4,45.5c0.4,0,0.9,0.8,1.4-0.1c-0.3-0.2-0.6-0.5-1-0.8
		C23.6,45,23.5,45.3,23.4,45.5c-0.1,0.1-0.3,0.1-0.5,0.1c0.3,0.5,0.3,0.5,0.8,0.8C23.6,46.1,23.5,45.8,23.4,45.5z M41.4,114.4
		c0-0.4,0-0.8-0.5-1C40.6,114,41.2,114.1,41.4,114.4c0,0.1-0.1,0.3-0.2,0.5c-0.1,0.5,0.1,0.8,0.6,0.8c0.2,0,0.4-0.1,0.7-0.1
		C42.2,115,42,114.5,41.4,114.4z M25.4,47.8c0.4,0.1,0.7,0.2,1.1,0.3c0.2-0.2,0.4-0.4,0.5-0.5c0.1-0.1,0.2-0.3,0.4-0.4
		c-0.7-0.6-0.8-0.6-1.2-0.2C25.9,47.2,25.7,47.6,25.4,47.8c-0.4,0.2-0.8,0.4-1,0.9c0.9,0.6,0.9,0.6,1.5-0.2
		C25.8,48.3,25.6,48.1,25.4,47.8z M27.6,49.1C27,49,26.4,49,26,49.5c0,0.1-0.1,0.2-0.1,0.3c0.3,0.2,0.7,0.4,1.1,0.7
		c0.3-0.3,0.6-0.6,0.9-0.8C27.7,49.5,27.7,49.3,27.6,49.1c0.4-0.1,0.9,0.4,1.3-0.4c-0.2-0.3-0.1-0.9-0.8-1.1
		c-0.3,0.3-0.6,0.5-0.9,0.8C27.3,48.7,27.5,48.9,27.6,49.1z M24.1,77.7c-0.3,0.1-0.5,0.2-0.8,0.4c0.2,0.3,0.2,1,0.6,0.7
		c0.5-0.3,0.7,0.6,1.2,0.1C24.7,78.5,24.4,78.1,24.1,77.7c-0.1-0.3-0.2-0.6-0.3-0.9c0.9,0.2,1,1.1,1.8,1.4c-0.2-1.1-1.1-1.6-1.7-2.4
		c-0.4,0.2-0.7,0.4-1,0.7c0.2,0.3,0.3,0.5,0.4,0.7C23.5,77.3,23.8,77.5,24.1,77.7z M28.4,52c0.7,0.1,1.1-0.1,1.5-0.9
		c-0.3-0.4-0.7-0.9-1.4-1c-0.3,0.3-0.5,0.7-0.8,0.9C28,51.4,28.3,51.7,28.4,52c-0.4-0.1-0.8-0.3-1.3-0.5c-0.2,0.2-0.4,0.4-0.6,0.7
		c0.5,0.4,0.8,0.6,1.2,0.9C28.2,52.9,28.5,52.6,28.4,52z M49.1,41.1c-0.1,0.5-0.1,0.9-0.2,1.4c0.3,0.3,0.7,0.3,1-0.1
		c0-0.4,0-0.8-0.1-1.2C49.6,41.1,49.3,41.1,49.1,41.1c0.2-0.1,0.4-0.2,0.6-0.3c0.4-0.2,0.4-0.6,0.4-1c-0.1-0.4-0.5-0.6-0.8-0.5
		c-0.6,0.2-1.2,0-1.9,0.1c-0.2,0-0.4,0.2-0.8,0.4C47.8,39.9,48.6,40.2,49.1,41.1z M23.2,66.8c-0.2-0.3-0.5-0.6-0.7-0.9
		c-0.2-0.4-0.3-0.8-0.5-1.5c-0.3,0.5-0.6,0.8-0.7,1.1c-0.1,0.1-0.1,0.3-0.2,0.4C21.6,66.4,22.3,66.9,23.2,66.8
		c0.8,1.2,1.7,2.1,3.1,2.6c1-0.5,1.1-0.4,1.4,0.4c0.1,0.2,0.1,0.4,0.3,0.5c0.7,0.5,1.5,1.1,2.3,1.6c0.3-0.3,0.6-0.5,0.8-0.7
		c-1.2-1-2.3-2-3.3-2.9c0.1-0.1,0.1-0.3,0.2-0.4c-1-0.7-2-1.4-3.1-2.1C24.4,66.3,24.1,67.2,23.2,66.8z M12.5,44
		c-0.2-0.2-0.4-0.3-0.6-0.4c-0.1,0-0.3,0.1-0.7,0.4C11.9,44,12.2,44,12.5,44c-0.1,0.3-0.2,0.6-0.2,0.9c0.1,0.1,0.1,0.1,0.2,0.1
		c0.6,0.3,0.8,0.7,0.6,0.9c-0.3,0.3-0.6,0.1-0.9-0.1c-0.5-0.4-0.9-0.8-1.4-1.1c-0.3-0.3-0.6-0.2-0.9,0.2c0,0.8,0.7,1.3,1.2,1.9
		c0.5,0.5,1.1,0.8,1.7,1.7c-0.6-0.2-0.9-0.3-1.2-0.5c-0.3-0.2-0.6-0.5-1-0.7c-0.4-0.2-0.6-0.1-0.7,0.4c0.6,0.4,1,1.1,1.8,1.4
		c0.5,0.1,0.8,0.6,0.7,1.4c-1-0.2-1.8-0.9-2.9-0.8c0,1,0.5,1.6,1.2,2.2c0.5-0.4,0.8-0.7,1.2-1.1c1,0.4,1.7,1.1,2.1,2
		c0.1,0.2,0.2,0.3,0.3,0.4c0.3-0.1,0.6-0.1,0.9-0.2c0.6,0.4,0.9,1.1,1.8,1.4c-0.5-0.6-0.7-0.9-1-1.3c0.3-0.2,0.5-0.3,0.8-0.5
		c-0.1-1-0.2-2.1-0.3-3.2c-0.4-0.1-0.7-0.1-1-0.2c-1-0.2-1.5-0.9-1.7-1.8c-0.3-1.2,0.6-2,1.8-1.6c0.3,0.1,0.5,0.3,0.8,0.2
		c0.3-0.8,0-1.4-0.5-1.8c0.2-0.6,0.4-1.1,0.6-1.6c0.1-0.5,0-0.6-0.7-0.8c-0.1,0.1-0.1,0.3-0.2,0.4c-0.4,1-1.1,1.2-1.9,0.6
		c-1.2-1-2.5-1.9-3.7-2.9c-0.3-0.2-0.6-0.5-1-0.7c-0.3-0.2-0.6-0.1-0.6,0.4c1.8,1.7,3.9,3.1,6,4.9c-0.3,0.1-0.5,0.2-0.7,0.2
		C13.4,44.5,13,44.2,12.5,44z M17.5,65.9c0.2-0.5,0.3-1.1,0.5-1.6c-1-0.7-1-0.7-1.6-0.1C16.7,64.9,16.8,65.6,17.5,65.9
		c0,0.4,0,0.8,0,1.2c-0.6-0.2-0.8-0.7-1-1.1c-0.5-1.2-1.2-2.2-2-3.2c-0.1-0.1-0.2-0.2-0.3-0.3c-0.4,0.1-0.8,0.2-1.2,0.4
		c0.9,1.2,1.7,2.3,2.5,3.4c0.2,0.3,0.2,0.5-0.2,0.6c-1.1-1.5-2.2-3.1-3.4-4.6c-0.7-0.9-1.5-1.8-2.4-2.5c-0.4-0.3-0.7-0.6-0.9-1
		c-0.4-0.9-0.9-1.3-1.9-1.7c0.5,1.1,1,2,1.8,2.7c0.9,0.8,1.6,1.7,2.4,2.6c0.1,0.1,0.3,0.3,0,0.5c-0.7,0.1-0.8-0.9-1.5-0.9
		c0.2,0.8,0.6,1.3,1.2,1.9c0.6,0.6,1.2,1.3,1.7,2c0.3,0.3,0.5,0.7,0.1,1.2c-0.1,0.1,0,0.3,0,0.5c0.1,0.3,0.1,0.5,0.3,1
		c-1.1-0.6-1.6-1.5-2.3-2.1c-0.7-0.6-1.2-1.5-2.3-2c0.2,0.7,0.5,1.2,0.9,1.6c1.1,1.1,2.1,2.1,3.1,3.3c0.4,0.6,0.9,1.1,1.3,1.8
		c-0.3,0.2-0.5,0.3-0.9,0.5c0.6,0.6,1.1,1.2,1.6,1.8c0.2,0.2,0.4,0.3,0.5,0.5c0.2,0.2,0.3,0.4,0,0.6c-0.1,0.1-0.4,0-0.5-0.1
		c-0.4-0.4-0.9-0.8-1.3-1.2c-0.1-0.1-0.3-0.2-0.4-0.3c0.1,0.4,0.3,0.7,0.6,1c0.6,0.6,1.2,1.2,1.8,1.8c0.2,0.3,0.2,0.5-0.2,0.7
		c-0.4-0.3-0.8-0.6-1.2-0.8c-0.1-0.4-0.4-0.6-0.9-0.8c0.1,0.4,0.2,0.7,0.3,1.1c0.3-0.1,0.4-0.2,0.6-0.3c0,0.7,0.3,1.2,0.8,1.6
		c0.5,0.4,0.9,0.9,1.4,1.3c0.5,0.4,0.4,0.8,0.2,1.3c-0.5-0.4-0.9-0.8-1.5-1.3c0,0.8-0.2,1.3,0.5,1.8c0.3-0.2,0.7-0.3,1-0.5
		c0.3,0.3,0.6,0.5,0.8,0.8c0.4,0.5,0.8,1.1,1.5,1.5c0-0.4,0-0.7,0.1-0.9c0.1-0.3,0.1-0.5,0.2-0.8c-0.7-0.7-0.7-0.7-0.8-1.5
		c0.3,0.2,0.5,0.4,0.8,0.6c0.3,0.1,0.5,0.3,0.5,0.6c0,0.6,0.6,0.9,1,1.2c0.3,0.2,0.7,0.2,1.1,0.3c-0.3-0.9-0.8-1.3-1.5-1.4
		c0-0.7,0-0.7-0.5-1.2c-0.2,0.2-0.4,0.4-0.6,0.6c0.2-0.7-0.2-1.1-0.7-1.5c0.7-0.8-0.3-1.2-0.5-1.9c0.9-0.6,0.2-1.5,0.3-2.5
		c0.3,0.2,0.4,0.3,0.6,0.4c0.5,0.6,0.9,1.1,1.4,1.7c0.5,0.6,0.9,0.7,1.8,0.3c-0.4-0.5-1.1-0.4-1.6-0.7c0.1-0.2,0.2-0.4,0.4-0.7
		c-0.3-0.4-0.5-0.8-0.9-1c-0.3-0.3-0.7-0.4-1.1-0.6c0.1-0.2,0.2-0.3,0.3-0.5c-0.7-1.1-1.9-1.8-2.2-3.2c0.3-0.1,0.6-0.2,0.8-0.3
		c1,1,1.8,1.9,2.7,2.8c0.5,0.5,1,0.9,1.5,1.4c0.2,0.3,0.3,0.5,0.5,0.8c0.3,0.5,0.7,0.9,1,1.4c0,0,0.2,0,0.3,0c0-0.2,0-0.4,0-0.7
		c0.3,0.1,0.4,0.2,0.7,0.4c0.1-0.4,0.1-0.8,0.2-1.1c-0.5-0.5-0.9-1-1.4-1.4c-0.2-0.2-0.6-0.3-0.9-0.4c-0.2-0.1-0.3-0.3-0.4-0.4
		c-1-1.3-1.9-2.6-2.9-3.9c-0.1-0.1-0.1-0.3-0.1-0.6c0.3,0.2,0.5,0.3,0.6,0.4c0.6,0.7,1.2,1.4,1.7,2.2c0.3,0.4,0.7,0.5,1,0.8
		c0.1,0,0.1,0.1,0.2,0.1c0.4,0.4,0.8,0.8,1.4,1.2c0.1-0.6,0.3-1,0.3-1.4c-0.9-1.4-2.1-2.4-3.5-3.6c0.2,0.6,0.4,0.9,0.5,1.2
		c-0.1,0-0.1,0.1-0.2,0.1c-0.5-0.7-1-1.3-1.5-2c0.4,0,0.9,0,1.1-0.6c-0.3-0.3-0.6-0.6-0.9-0.9c-0.6,0.5-0.6,0.5-0.5,0.8
		c0.1,0.2,0.2,0.4,0.3,0.7C18.1,66.3,18,65.8,17.5,65.9z M11.7,40.1c1,0.8,1.9,1.6,3,2.3c0.5-1.4,0.5-1.4,1.5-1.9
		c-0.4-0.7-0.4-0.7-1.1-1c-0.6-0.2-0.9-0.6-0.9-1.2c0-0.7,0.1-1.1,0.5-1.1c0.1,0,0.2,0,0.3,0.1c0.4,0.2,0.3,0.6,0.3,0.9
		c0,0,0,0.1,0.1,0.1c0.3,0,0.5,0.1,0.8,0.1c-0.1,1,0.3,1.7,1.3,2.1c0-1.1,0-2,0-3c-0.9-0.8-1.8-1.7-2.8-2.6
		c-0.9,0.5-1.6,0.2-2.1-0.5c-0.2-0.3-0.4-0.5-0.7-0.7c-0.2-0.1-0.4-0.2-0.7-0.3c0.1,0.4,0.2,0.6,0.3,0.8c-0.9,0.5-1.3-0.8-2.2-0.4
		c0.5,0.4,0.9,0.7,1.3,1.1c0.7,0.6,1.4,1.2,2.1,1.9c0,0,0,0.2,0,0.3c-0.3,0-0.5,0-0.8-0.1c-0.1,0.4-0.2,0.7-0.3,1.1
		c0.7,0.6,1.6,1,2.3,1.8C13,40.3,12.4,39.2,11.7,40.1z M32.7,94.6c0.9,0.9,1.9,0.9,2.8,1c0,0,0-0.1,0-0.1c0.1-0.2-0.5-0.3,0-0.6
		c0.7,0.6,1.7,1,2,1.9c0,0.1,0.1,0.2,0.2,0.2c0.9,1,1.8,1.9,2.7,2.9c0.8,0.8,1.8,1,3,0.7c-0.2-0.3-0.4-0.6-0.6-0.8
		c-1.1-1-2.2-2.1-3.4-3.1c-0.9-0.2-1.6-1-2.3-1.4c-1.3-0.8-2.9-1.2-4.1-2.2c-0.1-0.1-0.2-0.1-0.3-0.1c-1.2-0.2-2.4-0.5-3.6-0.7
		c-0.1,0-0.3,0.1-0.5,0.1c0.5,0.6,1.2,0.8,1.7,1.2c0.6,0.4,1.3,0.4,1.9,0.7c0.6,0.2,1.3-0.1,1.8,0.6C33.8,94.6,33.4,94.6,32.7,94.6z
		 M28.3,119.1c-0.1,1.4,0,1.6,1.1,2.3c1.2,0.8,2.4,1.5,3.6,2.2c0.2,0.1,0.4,0.1,0.6,0.2c0.2-0.6-0.2-0.8-0.5-1
		c-0.9-0.6-1.8-1.1-2.8-1.7c-0.4-0.3-0.8-0.6-1.4-1.2c1.4,0.5,2.2,1.2,3.2,1.8c1,0.5,1.9,1.1,3.1,1.7c-0.6-1.2-1.9-1.3-2.5-2.6
		c1.4,0.5,2.2,1.5,3.4,1.7c-1.4-1-2.8-2-4.2-2.9c-0.1-0.1-0.3-0.1-0.4-0.1c-0.5,0.5-0.9,0.1-1.3-0.2c-0.4-0.3-0.7-0.5-1.2-0.2
		C28.9,119.2,28.5,119.1,28.3,119.1z M19.6,51.3c-0.6-0.4-0.2-1.3-0.5-1.8c-0.4-0.7,0.2-1.3-0.1-2.1c-0.5-0.3-0.8-1.1-1.6-1.4
		c0,0.7-0.2,1.5,0,2c0.4,0.7-0.2,1.3-0.1,1.9c0.2,1.1,0.2,2.2,0.2,3.4c0,0.7,0.3,1.2,0.9,1.4c0.5-0.3,1-0.6,1.4-0.9
		c0.1-1.1-0.8-1.6-1.1-2.6C19.1,51.2,19.3,51.2,19.6,51.3z M9.6,56.6c0.4-0.4,0.7-0.4,1-0.1c0.3,0.3,0.6,0.7,0.9,1
		c0.5,0.6,1,1.3,1.6,1.9c0.3,0.4,0.8,0.6,1.1,0.9c0.3,0.4,0.5,0.8,0.7,1.4c0.2-0.2,0.4-0.3,0.6-0.5c-1.6-2.3-3.1-4.5-4.6-6.7
		c-0.2-0.3-0.5-0.6-0.7-0.9c0,0-0.1-0.1-0.1-0.1c0,0-0.1,0-0.3,0.1c0,0.2-0.1,0.5,0,0.7c0.1,0.3,0.5,0.5,0.7,0.8
		c0.2,0.3,0.2,0.6-0.3,0.7c-0.3-0.2-0.7-0.5-1.3-1C9.2,55.6,9.3,56,9.6,56.6z M16.4,82c0.2,0.3,0.4,0.6,0.5,1c0.1,0.4,0,0.8,0,1.1
		c1,1.1,1.9,2.1,2.9,3.1c0.4,0.4,0.7,0.7,1.2,0.5c-1-0.8-1.1-1-0.8-2.3c-0.2,0-0.5,0-0.7-0.1C18.8,84,17.7,82.9,16.4,82z M42.8,98
		c0-0.3,0.1-0.7-0.1-0.8c-0.6-0.6-1.3-1.2-2-1.8c-0.4-0.3-1-0.4-1.6-0.3c0.1,0.2,0.1,0.3,0.2,0.4c1.1,1.4,2.6,2.5,3.9,3.7
		c0.5,0.5,1,0.3,1.6-0.1C44.3,98.5,43.7,98,42.8,98z M22.4,44.8c-1.4-1.4-2.7-2.8-4.2-4.2c-0.3,0.6-0.2,1,0.1,1.4
		c0.9,1,1.7,2.1,2.7,3.1C21.6,45.7,21.8,45.7,22.4,44.8z M22,92.9c1.1,1.7,2.2,3.3,3.6,4.7c0.4-0.3,0.7-0.5,0.9-0.8
		c0.1-0.9-0.7-1.1-1.2-1.4c0.1-0.3,0.3-0.5,0.2-0.7c-0.3-0.5-0.5,0.3-0.8,0.1C23.7,94.4,23.4,93,22,92.9z M48.1,99.1
		c-0.5,0.2-1,0.2-1.3,0.7c0.9,0.7,1.7,1.4,2.5,2.1c0.1,0.1,0.4,0.3,0.5,0.2c0.6-0.2,1,0.4,1.8,0.5C50.7,101,49.3,100.2,48.1,99.1z
		 M47.9,96.9c-0.3,0.3-0.6,0.5-0.9,0.8c1.6,0.9,2.5,2.6,4.4,3.1c0.3-0.6,0.2-1.1-0.3-1.5C49.9,98.5,48.9,97.7,47.9,96.9z M11.8,61.1
		c0.2-0.6,0.3-1,0.4-1.6c-0.3-0.4-0.7-0.8-1-1.2c-0.5,0.1-0.9,0.1-1.2-0.3c-0.3-0.4-0.7-0.7-1-1.1c-0.2-0.2-0.5-0.4-0.9-0.7
		c0.1,0.8,0.4,1.2,0.7,1.6c0.7,0.7,1.3,1.5,2,2.2C11.1,60.4,11.4,60.7,11.8,61.1z M18.7,87.5c0.1,0.3,0.1,0.6,0.2,0.8
		c0,0.2,0.1,0.4,0.2,0.5c0.8,1.2,1.7,2.4,2.5,3.7c0.3-0.4,0.7,0,0.9-0.5c-0.3-0.3-0.6-0.6-0.9-0.9c-0.1-0.1-0.3-0.3-0.4-0.4
		C20.9,89.3,19.9,88.4,18.7,87.5z M29.3,84.8c-1.7-1.7-3.7-2.5-5.5-3.7c0,0-0.2,0.1-0.3,0.2c0.3,0.2,0.5,0.5,0.7,0.7
		c0.5,0.3,1,0.7,1.4,1.2C26.4,84.3,27.7,84.8,29.3,84.8z M41.6,92.8c1,1,1.9,1.9,2.9,2.7c0.2,0.2,0.6,0.3,0.9,0.4
		c0.2,0,0.5-0.2,0.8-0.3c-1.1-0.9-2-1.7-2.9-2.5C42.9,92.7,42.3,92.7,41.6,92.8z M62.7,47.1c-0.1-0.7-0.3-1.2-0.7-1.5
		c-1.2-0.9-2.2-2.2-3.7-2.9C58.6,44,58.6,44,62.7,47.1z M17.4,43.8c-0.3,0.6-0.2,1,0.2,1.4c1.2,1.2,2.3,2.4,3.4,3.6
		c0.2,0.2,0.5,0.3,0.8,0.5c-0.5-0.7-1-1.3-1.6-1.9c-0.2-0.2-0.5-0.5-0.6-0.8C19.1,45.5,18.3,44.7,17.4,43.8z M28.6,8.6
		c0,0.1,0,0.2,0,0.3c-0.6-0.1-1.2-0.2-1.8-0.3c0.5,0.4,1.1,0.7,1.7,1c0,0,0.1,0.1,0.1,0c0.3-0.1,0.6-0.2,1-0.2
		c0.5,0,0.6-0.3,0.6-0.7c-0.3-0.5-0.5-0.9-0.8-1.4c-0.7,0-1.4,0-2.2,0.4C27.6,8.1,28.1,8.3,28.6,8.6z M20.8,42.3
		c0.1-0.2,0.2-0.3,0.2-0.4c0.1-0.1,0.1-0.3,0.1-0.4c-0.9-1.1-1.7-2.1-2.9-3c-0.1,1.2-0.1,1.2,0.4,1.8c0.4,0.5,0.9,0.9,1.3,1.4
		C20.2,41.9,20.5,42.1,20.8,42.3z M22.7,58.6c0.8,0.6,1.4,1.5,2.3,2.1c-0.1-0.5-0.3-0.8-0.2-1.1c0.1-0.3,0.3-0.6,0.6-1.1
		c-0.6-0.4-1.3-0.7-1.9-1.1C23.2,57.9,23,58.2,22.7,58.6z M16.1,60.8c0.2-0.3,0.4-0.5,0.4-0.6c0-0.2-0.1-0.4-0.3-0.5
		c-0.5-0.2-0.8-0.6-0.9-1.2c0-0.2-0.3-0.4-0.4-0.6c-0.7-0.9-1.4-1.8-2.1-2.6c-0.2-0.3-0.5-0.5-0.8-0.7c-0.1,0.1-0.1,0.1-0.2,0.2
		C13.1,56.7,14.5,58.6,16.1,60.8z M24.1,84.8c1.2,0.6,2.3,1.1,3.4,1.6c-0.1,0.1-0.1,0.2-0.2,0.4c0.6,0.1,1.2,0.2,2,0.4
		c-0.9-1-1.9-1.5-2.8-2.2C25.8,85,25.1,84.1,24.1,84.8z M27.1,76c-0.8-1.1-1.5-1.6-2.7-2.2c0.1,0.6,0.7,1.1,0.4,1.8
		c0,0.1,0.1,0.3,0.2,0.4c0.3,0.3,0.7,0.7,1.1,1c0,0,0.2,0,0.3,0c0-0.2,0-0.4,0-0.7C26.6,76.2,26.8,76.1,27.1,76z M20.8,46.6
		c0.4-0.5,0.2-0.8-0.1-1.1c-0.9-1-1.7-2-2.6-3c-0.1-0.1-0.2-0.1-0.5-0.2c0,0.2-0.1,0.5-0.1,0.6C18.4,44.3,19.6,45.5,20.8,46.6z
		 M46.4,23.6c0,0.1,0,0.2-0.1,0.2c0.2,0.1,0.5,0.3,0.7,0.5c0.2,0.2,0.4,0.5,0.7,0.8c0.5-0.1,1-0.2,1.6-0.3c0-0.5,0-0.9,0-1.5
		c-0.6,0.1-1,0.2-1.5,0.2C47.3,23.6,46.9,23.6,46.4,23.6z M25.8,90.2c0.7,1,1.7,1.1,2.6,1.3c0.8,0.3,1.7,0.3,2.8,0.5
		C29.6,90.6,27.8,90.5,25.8,90.2z M34,88.2c-0.5-0.6-1.2-1-1.7-1.5c-0.9-0.9-2-1.1-3.3-1.1C30.7,86.5,32.3,87.5,34,88.2z
		 M45.2,113.8c-1-1.6-1-1.6-3-1.1c0.1,0.5,0.2,0.9,0.3,1.5c0.3-0.1,0.6-0.1,0.9-0.2c0-0.4-0.1-0.7-0.1-1.1
		C44,113.2,44.2,114.4,45.2,113.8z M32.5,80.1c-1.1-0.7-2.1-1.4-3.2-2c-0.5-0.3-0.8,0.1-1.2,0.5C29.5,79.5,31,79.8,32.5,80.1z
		 M24.6,79.6c0.8,1.6,2.7,2.7,4.1,2.7c-0.8-1.1-2.1-1.3-2.9-2.1C25.5,79.9,25,79.8,24.6,79.6z M38,98.8c-0.2,1-0.2,1,0.6,0.8
		c0.4,0.1,0.5,0.8,1.2,0.7c-0.3-1.2-1.1-1.9-2.1-2.6c0,0-0.1,0-0.1,0c0.2,0.2,0.3,0.3,0.5,0.5c-0.3,0-0.7,0.1-1.1,0.1
		C37.4,98.5,37.7,98.7,38,98.8z M49.1,91.2c-0.9-1.3-2-1.7-3.5-1.6C46.5,90.8,47.6,91.4,49.1,91.2z M20.5,77.1
		c0.5,1.4,1.2,2.2,2.4,2.2c-0.3-0.5-0.5-1-0.7-1.6c-0.1-0.4-0.3-0.6-0.7-0.6C21.3,77.1,21,77.1,20.5,77.1z M21.6,64
		c-0.6-0.6-1-0.7-1.3-0.5c0,0.2,0,0.4,0,0.6c-0.6-0.3-1-0.2-1.2,0.5c0.4,0.2,0.7,0.4,1.1,0.6C21,65.1,21.4,64.6,21.6,64z M32.9,53.4
		c-0.3,0.9,0.1,1.4,2.1,2.7c0.4-0.2,0.5-0.5,0.2-0.8C34.4,54.7,33.7,54.1,32.9,53.4z M45,110.3c-0.3-0.1-0.7-0.1-1-0.2
		c-0.2-0.4-0.2-1-1-1c0.4,0.5,0.3,1.3,0.9,1.3c0.9,0.1,0.3,1,0.8,1.3c0.4,0.2,0.8,0.2,1.3,0C45.6,111.3,45.3,110.8,45,110.3z
		 M45.9,43.8c-0.4-0.3-0.6-0.6-0.8-0.6c-0.8-0.1-1.6,0-2.5,0.3c0.2,0.3,0.3,0.5,0.4,0.8C44,44.1,44.9,44,45.9,43.8z M37.7,30.4
		c0.2,0.5,0.2,1,0.7,1.2c0.7,0.3,1.3,0.7,1.9,1c0.2,0.1,0.4-0.2,1-0.4C39.7,31.9,39,30.9,37.7,30.4z M47.3,98.7
		c-1.2-1.3-1.2-1.3-2.6-0.6c0.4,0.3,0.7,0.6,1.1,0.9C46.3,99,46.8,98.9,47.3,98.7z M18.7,64c0.5-0.5,0.8-0.9,1.2-1.2
		c-0.3-0.5-0.5-0.8-0.7-1.2c-0.5,0.1-0.4,0.5-0.6,0.8c-0.1,0.3-0.5,0.4-0.9,0.6C18,63.3,18.3,63.6,18.7,64z M24.9,53.9
		c-0.2-0.5-0.6-0.8-0.5-1.5c0.1-0.4-0.5-0.8-0.9-0.5c-0.4,0.3-0.6-0.4-0.9,0C22.7,53.3,24.2,53.2,24.9,53.9z M51.9,32.7
		c-0.6-1.3-0.7-1.3-1.9-1.1C50.3,33,50.5,33.2,51.9,32.7z M31.7,94.9c-0.8-0.9-1.9-0.9-2.8-1.2c-0.3-0.1-0.6-0.2-0.9,0.1
		C28.7,94.6,29.3,94.7,31.7,94.9z M34.7,40.1c-0.4-0.9-0.9-1.4-1.6-1.6c-0.5-0.1-1,0-1.5,0.4c0.6,0.5,0.6,0.5,1.1,0
		C33.6,39.8,33.6,39.8,34.7,40.1z M48.3,43.1c-0.6-0.1-1.2-0.2-1.7-0.2c-0.2,0-0.4,0.1-0.6,0.1c0.4,0.7,0.9,0.8,1.5,0.6
		c0.1,0,0.3,0.1,0.5,0.1c-0.1,0.3-0.2,0.6-0.3,1c0.2,0.1,0.4,0.3,0.7,0.4C48.4,44.3,48.3,43.8,48.3,43.1z M60.6,52.9
		c-0.2-0.3-0.4-0.5-0.6-0.7c-0.2-0.2-0.4-0.4-0.7-0.6c-0.3-0.2-0.5-0.5-0.8-0.7c-0.2-0.2-0.5-0.4-0.9-0.4c0,0.2-0.1,0.4,0,0.5
		C58.4,51.9,59.5,52.4,60.6,52.9z M23.5,26.8c0.4,0.3,0.5,0.4,0.7,0.6c0.9,0.4,1.8,0.9,2.8,1.3c0.2,0.1,0.4,0.1,0.9,0.2
		c-1.1-0.7-1.8-1.2-2.6-1.7c-0.3-0.2-0.6-0.4-0.9-0.5C24.2,26.6,23.9,26.7,23.5,26.8z M47.3,107.8c-0.7-1.3-0.7-1.3-2-1.1
		C46.1,108.1,46.1,108.1,47.3,107.8z M24.2,51.2c0.4,0.3,0.8,0.6,0.8,0.5c0.4-0.4,1.3,0.1,1.4-0.9c-0.3-0.2-0.6-0.4-1-0.7
		C25,50.5,24.7,50.8,24.2,51.2z M23.5,49.8c-0.2,0.1-0.3,0.2-0.6,0.4c0.3,0.2,0.5,0.4,0.8,0.6c0.4-0.3,0.7-0.6,1.1-1
		c-0.4-0.6-0.8-0.9-1.5-1C23.3,49.3,23.4,49.5,23.5,49.8z M19.2,92.2c0.1-0.9-0.3-1.5-0.6-2.1c-0.2,0-0.3,0-0.5,0
		c-0.2,0-0.3-0.1-0.5-0.1C17.8,90.9,18.4,91.5,19.2,92.2z M36.9,102.9c0.6,0.3,1.1,0.3,1.4-0.1c0.3-0.3,0.6-0.6,0.9-1
		c0-0.1,0-0.2,0-0.3c-0.2-0.1-0.4-0.2-0.7-0.4c-0.1,0.4-0.1,0.7-0.1,1C37.7,101.9,37.4,102.3,36.9,102.9z M44,106.7
		c-0.2,0.1-0.5,0.1-0.9,0.2c0.3,0.6,0.6,1,0.8,1.4c0.5,0,0.9,0.2,1.4-0.2C44.5,108,44.5,107.1,44,106.7z M20.9,99.7
		c-0.4-1.1-0.9-2.1-1.8-3C19,98.2,20.1,98.8,20.9,99.7z M12,51.7c0.2,0.4,0.3,0.6,0.5,1.1c-0.4-0.1-0.6-0.1-0.8-0.2
		c0,0.6,0.2,1,0.7,1.1c0.3,0.1,0.7,0,0.9-0.4C13.2,52.7,12.9,52.1,12,51.7z M11.8,32.8c0-0.6-0.3-0.9-0.7-0.7
		c-0.7,0.2-1.2,0-1.8-0.3c-0.1,0-0.2,0-0.5,0.1C9.7,32.7,10.8,32.7,11.8,32.8z M22.2,82.1c0.2-0.5,0.3-0.9,0.3-0.9
		c-0.5-0.4-0.8-1-1.2-1.6c-0.2-0.2-0.5-0.3-0.7,0.1C21,80.4,21.5,81.1,22.2,82.1z M14.6,33.1c-0.2-0.4-0.4-0.7-0.5-0.9
		C14,31.9,14,31.7,14,31.3c-0.3,0.2-0.4,0.4-0.6,0.5c-0.2,0.1-0.5,0-0.9,0C13,32.6,13.5,33.1,14.6,33.1z M60.5,47.1
		c0-0.3,0.1-0.5,0-0.5c-0.9-1-1.4-1.3-2.3-1.5C58.7,46.1,59.6,46.6,60.5,47.1z M36.4,98.2c-0.4-1-1.2-1.3-2.2-1.2
		C34.7,97.8,35.2,98.5,36.4,98.2z M11.2,43c-0.5-0.7-1-1.1-1.9-0.9c0.2,0.6,0.5,1.1,1.1,1.3C10.7,43.3,10.9,43.2,11.2,43z
		 M50.9,18.8c-0.7-0.8-1.7-1.2-2.8-1.3C48.8,18.3,49.8,18.5,50.9,18.8z M28.3,89.1c-1.1-1.4-1.5-1.6-2.5-1.4
		C26.2,88.6,27.2,88.6,28.3,89.1z M61.4,33.4c0.5,0.3,0.6,0.9,1.2,0.7c0.1,0,0.3-0.2,0.4-0.4c-0.4-0.4-0.8-0.8-1.3-1.2
		C61.6,32.9,61.5,33.1,61.4,33.4z M47.1,113.5c-0.3-0.5-0.5-0.8-0.7-1.2c-0.3,0.1-0.6,0.2-1.1,0.4c0.4,0.4,0.7,0.7,1.1,0.9
		C46.4,113.7,46.7,113.6,47.1,113.5z M21.5,107.9c-0.2-1-0.5-1.8-1.3-2.7c0,0.4-0.2,0.8-0.1,0.9C20.5,106.8,21,107.3,21.5,107.9z
		 M43.8,111.9c-0.3-0.9-0.3-0.8-1.2-0.8c-0.5,0-0.8,0.2-0.7,0.8C42.5,111.9,43.1,111.9,43.8,111.9z M17.2,62.7
		c0.3-0.4,0.4-0.6,0.6-0.8c-0.3-0.4-0.6-0.7-1-1.1c-0.2,0.4-0.4,0.6-0.4,0.8C16.6,61.9,16.9,62.2,17.2,62.7z M15.8,61.7
		c-0.3,0.4-0.4,0.6-0.6,0.8c0.3,0.4,0.6,0.8,1,1.3c0.2-0.3,0.3-0.5,0.5-0.8C16.4,62.6,16.2,62.2,15.8,61.7z M8.8,63.5
		c0.6,1.1,1,1.5,2,2.2C10.3,64.7,9.6,64,8.8,63.5z M26.8,97.5c0.3,0.5,0.6,1.1,1.1,1.5c0.3,0.2,0.5,0.3,0.7-0.1
		C28,97.9,28,97.9,26.8,97.5z M44.2,108.9c0.2,0.4,0.2,0.6,0.3,0.6c0.5,0,1-0.1,1.5-0.1c0,0,0.1-0.2,0.1-0.2c0-0.1-0.1-0.2-0.2-0.2
		C45.4,108.9,44.9,108.9,44.2,108.9z M25.9,44.4c-0.9-0.7-0.9-0.7-1.5,0C25.3,45,25.3,45,25.9,44.4z M43.2,34.2
		c-0.2-0.9-1.1-1.1-1.8-1.7C41.5,33.8,42.5,33.9,43.2,34.2z M49.2,51.9c0.3-1.4,0.3-1.7-0.1-2.6C48.9,50.3,48.8,51,49.2,51.9z
		 M29.1,49.7c0.6,0.3,1,1,1.8,0.8c-0.2-0.9-0.9-1-1.4-1.3C29.3,49.4,29.3,49.5,29.1,49.7z M31.4,71.6c-0.1,0.3-0.2,0.5-0.2,0.6
		c0.4,0.6,1.1,0.9,2,1.1C32.7,72.5,32.1,72.1,31.4,71.6z M46.5,105.4c0.7,0.8,0.7,0.8,1.6,0.4C47.6,105.1,47.6,105.1,46.5,105.4z
		 M19,32.5c0.4-0.5,0.1-0.8-0.2-1c-0.4-0.2-0.8-0.4-1.5-0.6C18,31.5,18.5,32,19,32.5z M48.2,32.7c-0.4-0.7-0.7-1.2-1.4-1.3
		C47,32.6,47,32.6,48.2,32.7z M42.3,105.1c0.1,0.2,0.1,0.4,0.2,0.6c0.2,0.3,0.4,0.4,0.7,0.2c0.3-0.2,0.3-0.5,0.2-0.8
		C43.2,104.8,43.1,104.8,42.3,105.1z M31.4,53c0.1-0.7,0-0.9-0.5-1.2c-0.4-0.2-0.6,0-0.8,0.4C30.5,52.5,30.9,52.7,31.4,53z M55,32.2
		c0.2,0.8,0.6,1.4,1.3,2C56.2,33.1,55.7,32.6,55,32.2z M31.1,100.3c1.3,0.2,1.3,0.2,1.8-0.2C31.6,99.6,31.6,99.6,31.1,100.3z
		 M40.3,101.8c0.6,0.7,0.6,0.7,1.3,0.4c-0.5-0.7-0.5-0.8-0.7-0.7C40.7,101.5,40.5,101.6,40.3,101.8z M21.7,37.8
		c0.3,0.1,0.6,0.2,0.8,0.2c0.1,0,0.2-0.4,0.2-0.6c0-0.2-0.2-0.5-0.5-0.9C22,37,21.9,37.4,21.7,37.8z M11,72.7c0.4-1.3,0.4-1.3-0.5-2
		C10.3,71.4,10.6,71.9,11,72.7z M19.7,83.8c0.1-0.4-0.3-0.9,0.2-1.3c-0.1-0.1-0.2-0.3-0.4-0.4c-0.3,0.3-0.5,0.6-0.8,0.8
		C18.9,83.3,19,83.8,19.7,83.8z M47,41.5c0.5,0.2,0.8,0.1,1.1-0.3c0.1-0.1,0-0.4-0.1-0.5c-0.1-0.1-0.4-0.2-0.5-0.1
		C47.3,40.8,46.9,41,47,41.5z M18.4,76.9c0.3,0.7,0.3,0.7,1,1.1C19.6,77,19.5,76.8,18.4,76.9z M38,105.9c-0.5-0.3-0.9-0.5-1.4-0.3
		c0.2,0.5,0.3,1,0.8,0.9C37.6,106.5,37.8,106.1,38,105.9z M28.7,40.3c-0.1,0.5-0.2,0.8-0.1,1c0.1,0.2,0.3,0.1,0.4-0.1
		c0.2-0.2,0.3-0.1,0.5,0c0.2,0.1,0.4,0.1,0.8,0.3C29.9,40.7,29.3,40.8,28.7,40.3z M49.6,44.6C49.3,44.8,49,44.9,49,45
		c-0.1,0.5,0,0.8,0.6,1C49.6,45.6,49.6,45.2,49.6,44.6z M42.6,104.1c0-0.5-0.2-0.8-0.6-1c-0.4,0.2-0.7,0.4-0.5,0.8
		C41.7,104.4,42.2,104.4,42.6,104.1z M30.1,126c-0.1,0.5,0.1,0.6,0.1,0.8c0.1,0.3,0,0.6,0.1,0.8c0,0.1,0.3,0.2,0.5,0.2
		c0,0,0.2-0.3,0.1-0.4C30.8,127,30.5,126.6,30.1,126z M21.8,43.5c0.3-0.3,0.5-0.5,0.6-0.7c0.1-0.2-0.3-0.6-0.6-0.5
		c-0.2,0.1-0.5,0.3-0.5,0.4C21.4,43,21.6,43.2,21.8,43.5z M34.2,105c0,0.7,0.4,1,0.8,1c0.2,0,0.3-0.3,0.6-0.6
		C35,105.2,34.7,105.1,34.2,105z M24.4,28.7c1,0.8,1,0.8,1.5,0.4C25.6,28.7,25.2,28.6,24.4,28.7z M33,105c-0.7-0.7-0.9-0.6-1.4,0.1
		C32.1,105.3,32.6,105.7,33,105z M21.2,35.7c0-0.9-0.3-1.3-0.7-1.8c-0.1-0.1-0.3-0.1-0.8-0.2C20.3,34.4,20.7,35,21.2,35.7z
		 M36.6,108.1c-0.2,0.3-0.4,0.6-0.4,0.8c0,0.3,0.3,0.4,0.6,0.4c0.1,0,0.2-0.1,0.4-0.2C37.1,108.8,36.9,108.5,36.6,108.1z M31,96.8
		c-0.5-0.4-0.9-0.9-1.7-1C29.6,96.7,30.1,97,31,96.8z M42.3,109.3c-0.4,0.6-0.6,0.9-1,1.4c0.6,0,0.9-0.1,1.2-0.1
		c0.1,0,0.1-0.1,0.2-0.2C42.6,110,42.5,109.8,42.3,109.3z M33.3,102.2c-0.8-1-1-1-1.5,0C32.3,102.2,32.7,102.2,33.3,102.2z
		 M49.7,44.3c0.1-0.4,0.2-0.7,0.3-1c-0.4-0.3-0.7-0.3-0.9,0c-0.1,0.1-0.1,0.3,0,0.4C49.1,43.9,49.4,44.1,49.7,44.3z M43.2,101.5
		c0.3,0.7,0.8,0.8,1.3,0.5C44,101.2,44,101.2,43.2,101.5z M27.7,100.2c-0.5,0.6-0.3,1-0.1,1.5c0,0.1,0.3,0.1,0.5,0.1
		c0.1,0,0.2-0.3,0.1-0.4C28,101,27.9,100.7,27.7,100.2z M49.3,47.7c-0.4,0.6-0.5,1-0.2,1.3c0,0,0.2,0.1,0.3,0c0.4-0.3,0.2-0.7,0.2-1
		C49.5,47.9,49.4,47.8,49.3,47.7z M30,122.7c-0.1,0.7,0.4,0.8,0.8,1C31.1,123,31.1,123,30,122.7z M22.1,29.5
		c-0.3-0.3-0.5-0.5-0.7-0.7c0,0-0.4,0.2-0.4,0.3c-0.1,0.3,0.3,0.6,0.6,0.6C21.7,29.8,21.8,29.7,22.1,29.5z M62.8,31.7
		c-0.3-0.9-0.7-1.2-1.3-1.4C61.5,31.1,61.9,31.4,62.8,31.7z M26.8,43.5c-0.7-0.6-0.7-0.6-1.2-0.2C26.4,44,26.4,44,26.8,43.5z
		 M34,106.8c-0.4-0.4-0.9-0.5-1.4-0.3C33.2,107.4,33.3,107.4,34,106.8z M36.1,88.5c-0.8-0.7-0.8-0.7-1.5-0.8
		C35.3,88.5,35.3,88.5,36.1,88.5z M7.8,61c-0.1-0.9-0.1-0.9-0.9-1.4C7.1,60.2,7.2,60.8,7.8,61z M21.1,83.4c0.3-0.3,0.5-0.5,0.9-0.8
		c-0.5-0.2-0.8-0.3-1.2-0.5C20.9,82.6,21,82.9,21.1,83.4z M18.2,61.5c0.2-0.2,0.3-0.3,0.5-0.5c-0.3-0.3-0.6-0.6-0.9-0.9
		C17.3,60.8,18,61,18.2,61.5z M32.6,9.8c-0.6-0.1-1.1-0.8-2-0.5C31.2,9.9,31.9,9.7,32.6,9.8z M34.6,103.9c-0.6-0.6-1.1-0.6-1.9-0.2
		C33.4,104,33.9,104.3,34.6,103.9z M40.4,105.7c-1.1,0.1-1.1,0.1-1.3,0.5C40,106.3,40,106.3,40.4,105.7z M10.5,38.4
		c-0.6-0.3-0.9-0.9-1.7-1.1C9.2,38.1,9.7,38.5,10.5,38.4z M27.9,96.7c0.5,0.7,0.9,1.1,1.7,1C29.2,97.1,28.7,96.9,27.9,96.7z
		 M31.3,40.9c-0.2-0.7-0.4-1.1-0.9-1.3C30.5,40.1,30.5,40.7,31.3,40.9z M27,77.3c0.1,0.1,0.3,0.4,0.5,0.4c0.2,0.1,0.5,0,0.8-0.1
		c-0.1-0.3-0.1-0.6-0.2-0.8c-0.3,0.1-0.6,0.1-0.8,0.2C27.2,77,27.1,77.1,27,77.3z M39.9,113.9c-0.2-0.7-0.2-0.7-1-0.4
		C39.1,114,39.4,114,39.9,113.9z M47.4,96.5c-0.3-0.2-0.5-0.4-0.7-0.5c-0.3,0.2-0.5,0.4-0.8,0.7C46.6,96.8,46.6,96.8,47.4,96.5z
		 M35.4,96.1c0.4,0.5,0.8,0.7,1.5,0.6C36.5,96.2,36.1,95.9,35.4,96.1z M33.8,108.1c0.6,0,0,1,0.7,0.8c0.2-0.1,0.4-0.3,0.6-0.6
		c-0.3-0.1-0.5-0.2-0.7-0.2C34.3,108.1,34.1,108.1,33.8,108.1z M32.5,124.3c0.2,0.8,0.2,0.8,1.1,0.8
		C33.6,124.5,33.2,124.4,32.5,124.3z M30.8,125.5c0-0.2,0.1-0.5,0-0.7c-0.2-0.2-0.5-0.3-0.8-0.5C30,125.2,30,125.2,30.8,125.5z
		 M39.8,107.6c0,0.1,0,0.2,0,0.3c0.4,0,0.7,0.1,1.1,0.1c0.1,0,0.3-0.3,0.5-0.5c-0.4-0.1-0.5-0.1-0.7-0.1
		C40.4,107.5,40.1,107.6,39.8,107.6z M27.2,123c0.1-0.7-0.1-0.8-1.1-0.5C26.3,123,26.8,122.9,27.2,123z M43,114.7
		c0.3,0.6,0.6,1,1.3,0.6C43.9,114.6,43.9,114.6,43,114.7z M51.2,16.2c0,0.1-0.1,0.2-0.1,0.3c0.4,0.1,0.8,0.5,1.6,0.3
		C52,16.5,51.6,16.3,51.2,16.2z M34.2,33.9c-0.4-0.2-0.9-0.6-1.7-0.3C33.2,33.9,33.7,34.1,34.2,33.9z M38.2,110.8
		c-0.1-0.3,0-0.6-0.1-0.6c-0.2-0.1-0.4-0.1-0.7-0.1c-0.1,0-0.2,0.1-0.6,0.2C37.5,110.4,37.7,110.6,38.2,110.8z M22.7,39.4
		c-0.1,0.1-0.2,0.2-0.2,0.2c0.3,0.4,0.7,0.7,1.2,0.8C23.3,40.1,23,39.7,22.7,39.4z M7,41.5c0,0.9,0,0.9,0.9,1
		C7.5,42.1,7.2,41.8,7,41.5z M28.3,102.8c0.2,0.3,0.3,0.5,0.5,0.8c0.4-0.2,0.5-0.4,0.3-0.7C28.9,102.5,28.6,102.6,28.3,102.8z
		 M28.4,46.2c-0.2-0.1-0.3-0.3-0.6-0.4c-0.1,0-0.3,0.1-0.5,0.2c0.1,0.2,0.1,0.5,0.3,0.6C28,46.8,28.2,46.7,28.4,46.2z M15.1,48.4
		c0.3-0.4,0.4-0.5,0.5-0.7c-0.3-0.2-0.6-0.3-1.1-0.6C14.8,47.6,14.9,47.9,15.1,48.4z M38.2,111.5c0,0.1-0.1,0.2-0.1,0.3
		c0.2,0.2,0.2,0.6,0.7,0.4c0.1-0.1,0.2-0.3,0.4-0.5C38.7,111.6,38.4,111.6,38.2,111.5z M35.6,104c0.1,0.3,0.3,0.6,0.7,0.5
		c0.1,0,0.2-0.1,0.2-0.1c0-0.1,0-0.3,0-0.4C36.2,103.8,35.9,103.6,35.6,104z M14.8,54.8c-0.1,0.1-0.1,0.1-0.2,0.2
		c0.2,0.4,0.4,0.8,1.2,1.1C15.4,55.5,15.1,55.2,14.8,54.8z M16.5,58.6c-0.1,0.6,0.1,0.9,0.5,1.2C17.4,59.3,17.4,59.3,16.5,58.6z
		 M23.5,83.5c0.2,0.3,0.4,0.5,0.6,0.7c0.1,0.1,0.3,0,0.4-0.1c0.1-0.1,0-0.3,0-0.4C24.2,83.5,24,83.3,23.5,83.5z M48.1,111.5
		c-0.7-0.5-0.7-0.5-1.4,0C47.1,111.8,47.5,111.6,48.1,111.5z M33.3,97.5c0.1-0.8,0.1-0.8-1.1-0.8C32.6,97,33,97.2,33.3,97.5z
		 M9.3,71.7c0.1-1,0.1-1-0.7-1.8C8.9,70.7,9.1,71.2,9.3,71.7z M29.1,124.8c0.3-0.8,0.3-0.8-0.3-1.1
		C28.8,124.1,28.6,124.5,29.1,124.8z M29.3,122.8c0.2-0.5,0.3-0.9-0.4-1C28.7,122.3,28.7,122.7,29.3,122.8z M34.5,109.9
		c0.3,0.7,0.7,0.6,1,0.5c0.1,0,0.1-0.2,0.3-0.4C35.4,110,35,110,34.5,109.9z M32.5,108.2c-0.3-0.5-0.3-0.5-0.9-0.5
		C31.9,108.3,31.9,108.3,32.5,108.2z M30.3,106.2c0.2,0.3,0.4,0.5,0.6,0.8c0.2-0.2,0.4-0.4,0.7-0.8
		C31.1,106.2,30.8,106.2,30.3,106.2z M30.5,105c-0.3-0.1-0.5-0.2-0.7-0.3c-0.1,0-0.2,0.1-0.3,0.2c0.2,0.1,0.3,0.3,0.5,0.4
		C30,105.4,30.2,105.2,30.5,105z M37.9,104.2c0.6,0.3,1,0.3,1.6-0.1C38.8,103.8,38.4,103.6,37.9,104.2z M35.5,103
		c0.2-0.6,0-0.8-0.5-0.9c-0.1,0-0.3,0.1-0.3,0.2C34.6,102.8,35,102.9,35.5,103z M46.8,100.6c-0.4-0.3-0.7-0.5-1.2-0.8
		C46.1,100.8,46.1,100.8,46.8,100.6z M33.2,98.5c0.4,0.3,0.7,0.5,1,0.7c0,0,0.2-0.1,0.2-0.2c0-0.1,0-0.2,0-0.2
		C34.1,98.4,33.8,98.3,33.2,98.5z M30.9,97.9c0.3,0.6,0.7,0.7,1.3,0.6C31.8,98.1,31.5,97.8,30.9,97.9z M23.8,80.2
		c-0.5-0.4-0.8-0.5-1.3-0.2C22.9,80.4,23.2,80.5,23.8,80.2z M19.1,29.5c-0.4-0.1-0.6-0.2-0.8-0.2c-0.3,0-0.5,0.3-0.4,0.5
		c0.2,0.1,0.4,0.2,0.6,0.2C18.7,29.9,18.8,29.7,19.1,29.5z M58.8,35.7c0.6,0.9,0.6,0.9,1.2,0.9C59.6,36.3,59.3,36.1,58.8,35.7z
		 M29,38c0.3,0.3,0.6,0.5,1,0.3C29.5,37.6,29.5,37.6,29,38z M22.4,58c0.2-0.2,0.3-0.5,0.5-0.7c0,0,0-0.2-0.1-0.2
		C21.9,57.4,21.9,57.4,22.4,58z M13.7,62c-0.2-0.7-0.3-1-1-1.2c0.1,0.3,0.1,0.6,0.2,0.8C13.1,61.7,13.3,61.8,13.7,62z M28.6,108.8
		c0.5,0.4,0.9,0.6,1.5,0.1C29.5,108.8,29.1,108.8,28.6,108.8z M46,110.5c0.3,0,0.5,0,0.8-0.1c0,0,0.1-0.1,0.1-0.3
		C46.6,109.9,46.2,109.8,46,110.5z M30.3,111.3c0.3,0.5,0.6,0.5,1.1,0.2C31,111.1,30.7,111.1,30.3,111.3z M15.6,83.1
		c-0.1-0.4-0.3-0.7-0.5-1.3C14.9,82.5,15.1,82.9,15.6,83.1z M35.3,107.2c0.5,0.4,0.5,0.4,1,0.1C36,107,35.7,106.9,35.3,107.2z
		 M49.2,46.2c-0.1,0.3-0.2,0.5-0.2,0.6c0,0.2,0.2,0.3,0.3,0.5c0.1-0.1,0.3-0.2,0.3-0.2C49.5,46.9,49.4,46.7,49.2,46.2z M25.6,45.8
		c-0.2,0.2-0.3,0.4-0.4,0.5c0,0,0.2,0.3,0.3,0.2c0.2-0.1,0.3-0.2,0.5-0.4C25.8,46.1,25.7,46,25.6,45.8z M29.1,42.1
		c0,0.4-0.2,0.8,0.2,1c0.1,0,0.3,0,0.4-0.1C29.8,42.7,29.6,42.4,29.1,42.1z M25.4,42.4c-0.3-0.1-0.5-0.3-0.6-0.3
		c-0.1,0-0.3,0.2-0.4,0.3c0.1,0.1,0.2,0.4,0.3,0.4C24.9,42.8,25.1,42.6,25.4,42.4z M28.3,38.6c-0.2,0.3-0.4,0.6,0.1,0.8
		c0.1,0,0.3,0,0.4-0.1c0.2-0.3-0.1-0.5-0.3-0.7C28.4,38.6,28.4,38.6,28.3,38.6z M33.3,35.8c-0.1,0.1-0.1,0.2-0.2,0.3
		c0.2,0.2,0.3,0.3,0.5,0.5c0.1-0.1,0.2-0.3,0.3-0.4C33.7,36,33.5,35.9,33.3,35.8z M29.8,30.2C29.8,30.3,29.8,30.3,29.8,30.2
		c0.5,0.1,1,0.1,1.5,0.1c0,0,0-0.1,0-0.1C30.8,30.2,30.3,30.2,29.8,30.2z M10.2,30.4c0.6,0.7,0.7,0.8,1,0.5
		C11,30.5,10.8,30.2,10.2,30.4z M24.3,30c0-0.1,0-0.2,0-0.2c-0.1-0.3-0.2-0.6-0.6-0.4c-0.1,0.1-0.2,0.2-0.3,0.3
		c0.2,0.1,0.4,0.3,0.6,0.4C24.1,30.1,24.2,30,24.3,30z M36.6,26.9c0,0.1,0,0.2,0,0.2c0.3,0.3,0.7,0.6,1.3,0.4
		C37.4,27.3,37,27.2,36.6,26.9z M50.9,20c-0.7-0.3-1-0.5-1.4-0.7c0.2,0.3,0.5,0.5,0.7,0.7C50.3,20,50.4,20,50.9,20z M59.1,18.3
		c-0.5-0.6-0.5-0.6-1.1-0.4C58.4,18,58.7,18.1,59.1,18.3z M21.9,10.5c-0.8,0.3-0.8,0.3-0.3,0.7C21.7,11,21.8,10.7,21.9,10.5z
		 M23.9,71.6c0,0.9,0,0.9,0.7,0.8C24.3,72.2,24.1,71.9,23.9,71.6z M36.6,126.4c0.1-0.7-0.2-0.9-0.7-1.1
		C35.8,126,36.1,126.2,36.6,126.4z M30.9,90.1c-0.4-0.3-0.7-0.6-1.2-0.7C30.1,89.8,30.2,90.2,30.9,90.1z M32.4,95.9
		c0.5,0.2,0.9,0.3,1.4,0.5C33.4,95.8,33.1,95.7,32.4,95.9z M47.1,109c0.3,0,0.6,0,1,0C47.8,108.4,47.5,108.4,47.1,109z M37.6,107.5
		c0.5,0.3,0.5,0.3,1,0.1C38.1,107.4,38.1,107.4,37.6,107.5z M44.2,103.3c0.4,0,0.6,0.1,0.7,0c0.1-0.1,0.2-0.3,0.3-0.4
		c-0.1-0.1-0.3-0.2-0.4-0.2C44.6,102.8,44.5,103,44.2,103.3z M39.1,110.7c0.5,0,0.7,0,0.9-0.1c0.1,0,0.2-0.3,0.2-0.3
		c-0.1-0.1-0.3-0.3-0.4-0.2C39.6,110.2,39.5,110.3,39.1,110.7z M13.7,55.4c0,0,0.1-0.1,0.1-0.1c-0.3-0.3-0.5-0.5-0.8-0.8
		c-0.1,0.1-0.1,0.1-0.2,0.2C13.2,54.8,13.5,55.1,13.7,55.4z M41.7,109.3c0-0.1,0-0.2-0.1-0.3c-0.2,0-0.5,0-0.7,0
		c-0.1,0-0.2,0.2-0.2,0.3c0,0.1,0.2,0.3,0.3,0.3C41.2,109.6,41.4,109.4,41.7,109.3z M26.4,54.5c0.4-0.9-0.1-0.9-0.5-1.1
		C26,53.7,26.1,54,26.4,54.5z M26.9,45.3c-0.1-0.2-0.2-0.3-0.2-0.3c-0.2,0.1-0.4,0.2-0.6,0.3c0.1,0.1,0.2,0.3,0.2,0.3
		C26.5,45.5,26.7,45.4,26.9,45.3z M25.6,41.2c-0.2,0.2-0.3,0.3-0.3,0.4c0,0.3,0.3,0.4,0.6,0.3c0.1,0,0.2-0.2,0.2-0.2
		C25.9,41.6,25.8,41.4,25.6,41.2z M21.6,75.5c-0.5-0.5-0.7-0.7-1-0.9C20.6,75,20.7,75.4,21.6,75.5z M9.4,35.5
		c0.1,0.5,0.4,0.6,0.8,0.5C9.9,35.9,9.7,35.7,9.4,35.5z M27.8,35.4c-0.1-0.3-0.2-0.8-0.8-0.5C27.4,35.1,27.6,35.3,27.8,35.4z
		 M45,32.2c-0.1,0.3-0.2,0.4-0.2,0.5c0.1,0.1,0.3,0.2,0.4,0.3c0,0,0.2-0.1,0.2-0.1C45.3,32.7,45.2,32.5,45,32.2z M25.5,31.6
		c0-0.1,0.1-0.1,0.1-0.2c-0.1-0.1-0.1-0.2-0.2-0.3c-0.1-0.1-0.3-0.1-0.4-0.2c0,0.2,0,0.4,0.1,0.5C25.1,31.5,25.3,31.5,25.5,31.6z
		 M59.4,27.6c0.5,0.3,0.7,0.5,1.2,0.7C60.5,27.5,60.1,27.5,59.4,27.6z M23.1,27.6c0.1,0.6,0.3,0.8,0.9,0.5
		C23.6,27.9,23.3,27.8,23.1,27.6z M57.9,26c-0.1,0-0.2,0.1-0.2,0.1c0.1,0.2,0.1,0.3,0.2,0.5c0.1,0.1,0.2,0.1,0.4,0.1
		c0-0.1,0.1-0.3,0-0.4C58.2,26.2,58,26.1,57.9,26z M38.9,115.4c-0.4-0.6-0.7-0.5-1-0.2C38.1,115.3,38.4,115.3,38.9,115.4z
		 M53.9,18.6c-0.1,0-0.2-0.1-0.2-0.1c-0.1,0.1-0.3,0.2-0.4,0.4c-0.1,0.1,0,0.2,0,0.3c0.1,0,0.3,0.1,0.4,0
		C53.8,19,53.9,18.8,53.9,18.6z M27.8,37.5c-0.2-0.4-0.3-0.6-0.5-0.9c-0.2,0.3-0.3,0.4-0.4,0.6C27.2,37.3,27.4,37.4,27.8,37.5z
		 M42,10.8c0.5,0.2,0.8,0.2,1.2-0.5C42.7,10.6,42.4,10.7,42,10.8z M38.2,109.2c0.5,0.2,0.9,0.3,1.4,0
		C39.1,108.9,38.8,108.6,38.2,109.2z M16.2,86.3c0.1-0.1,0.1-0.2,0.1-0.2c0-0.3-0.1-0.6-0.4-0.6c-0.1,0-0.2,0-0.3,0.1
		c0.1,0.2,0.2,0.4,0.3,0.6C15.9,86.2,16,86.2,16.2,86.3z M40,111.8c0.6,0.4,0.6,0.4,1-0.1C40.6,111.7,40.3,111.8,40,111.8z
		 M33.2,126.2c-0.1,0.1-0.1,0.2-0.2,0.2c0.3,0.2,0.6,0.4,0.9,0.6c0-0.1,0.1-0.1,0.1-0.2C33.8,126.7,33.5,126.5,33.2,126.2z
		 M34.9,100.4c0.3,0.2,0.5,0.4,0.6,0.4c0,0,0.3-0.2,0.2-0.3C35.7,100.1,35.4,100.1,34.9,100.4z M16,58.4c0-0.7-0.3-1-0.8-1
		C15.4,57.6,15.6,57.9,16,58.4z M26.3,98.2c-0.1,0.3-0.5,0.6,0,0.7c0.1,0,0.2-0.1,0.2-0.1C26.5,98.6,26.4,98.4,26.3,98.2z M31,45
		c-0.4,0.5-0.4,0.5,0.4,0.8C31.2,45.5,31.1,45.3,31,45z M33.9,75.9c-0.1,0-0.1-0.1-0.2-0.1c-0.1,0.1-0.2,0.2-0.3,0.3
		c-0.1,0.1-0.2,0.2-0.3,0.3c0.2,0.1,0.3,0.2,0.4,0.3C33.7,76.4,33.8,76.2,33.9,75.9z M26.9,40.1c0.3,0.2,0.5,0.3,0.7,0.4
		C27.6,40.2,27.5,39.8,26.9,40.1z M7.3,39.6c0,0.4,0,0.6,0,0.7c0.1,0.1,0.2,0.2,0.3,0.3c0.1,0,0.1-0.1,0.2-0.1
		C7.6,40.3,7.5,40,7.3,39.6z M59,40.4c0.2-0.2,0.1-0.4,0-0.5c-0.1-0.1-0.2-0.2-0.3-0.3c-0.1,0-0.1,0.1-0.2,0.1
		C58.7,39.9,58.8,40.2,59,40.4z M30.8,36.8c0,0.1,0,0.1-0.1,0.2c0.2,0.1,0.4,0.1,0.7,0.2c0-0.1,0-0.1,0.1-0.2
		C31.2,37,31,36.9,30.8,36.8z M21.7,88.9c0,0.1-0.1,0.1-0.1,0.2c0.3,0,0.6,0.1,0.9,0.1c0-0.1,0-0.2,0-0.2C22.3,89,22,89,21.7,88.9z
		 M23,87.4c0-0.1,0.1-0.1,0.1-0.2c-0.2-0.1-0.3-0.2-0.5-0.3c-0.1,0.1-0.1,0.2-0.2,0.3C22.6,87.3,22.8,87.3,23,87.4z M23.1,28.9
		c-0.5-0.3-0.7-0.4-1.1-0.6C22.1,28.9,22.3,29,23.1,28.9z M23.4,85.9c0,0.1-0.1,0.1-0.1,0.2c0.2,0.1,0.3,0.3,0.5,0.4
		c0.1-0.1,0.1-0.2,0.2-0.3C23.8,86.1,23.6,86,23.4,85.9z M49.4,27.9c-0.1-0.1-0.2-0.1-0.4-0.2c0,0.1-0.1,0.2-0.1,0.2
		c0,0.1,0.1,0.2,0.2,0.3C49.2,28.1,49.3,28,49.4,27.9z M42.6,107.5c-0.1,0.1-0.2,0.1-0.3,0.2c0.1,0.2,0.2,0.4,0.4,0.6
		c0.1,0,0.1-0.1,0.2-0.1C42.8,108,42.7,107.8,42.6,107.5z M58.3,18.9c-0.4-0.4-0.5-0.5-0.6-0.6c-0.1,0-0.2,0-0.2,0
		c0,0.1,0,0.3,0.1,0.3C57.6,18.7,57.8,18.8,58.3,18.9z M30.3,103.2c0.3,0.1,0.4,0.2,0.5,0.2c0.2,0,0.3-0.1,0.5-0.2
		c-0.1-0.1-0.3-0.3-0.4-0.3C30.7,102.9,30.6,103,30.3,103.2z M53.9,17.1c0-0.1-0.1-0.1-0.1-0.2c-0.2,0.1-0.4,0.2-0.6,0.3
		c0.1,0.1,0.2,0.2,0.3,0.3C53.7,17.4,53.8,17.3,53.9,17.1z M45.1,105.7c-0.2-0.1-0.3-0.2-0.5-0.3c0,0.1-0.1,0.2-0.1,0.2
		c0,0.3,0.3,0.5,0.5,0.4C45,106,45,105.9,45.1,105.7z M31.2,123.9c0.4,0.3,0.5,0.3,0.7,0.4c0-0.1,0.2-0.2,0.1-0.2
		c-0.1-0.2-0.2-0.3-0.3-0.4C31.7,123.6,31.5,123.8,31.2,123.9z M29.6,110.1c0.1,0.1,0.2,0.2,0.2,0.2c0.2,0,0.5,0,0.7-0.1
		c0,0,0-0.2,0-0.2c-0.2,0-0.4,0-0.7,0C29.8,109.9,29.7,110,29.6,110.1z"/>
	<path class="st0" d="M12.2,86.9c0.2,0.2,0.4,0.3,0.5,0.5c0.5,1.3,0.9,2.7,1.4,4c0.3,0.7,0.7,1.4,0.9,2.2c0.4,1.2,0.7,2.4,1,3.7
		c0.7,2.6,0.6,5.3,0.7,7.9c0,0.5,0.1,1.1,0.2,1.6c0.1,1.9,0.5,3.8-0.2,5.7c-0.1,0.2-0.1,0.5-0.1,0.7c0.2,1.1-0.2,2-0.5,3
		c-0.2,0.8-0.5,1.5-1.2,1.8c-0.7,2.1-0.3,4-0.1,6c0.1,0.8,0.4,1.5,1.2,1.9c2,1.3,4,2.6,6.5,2.9c1.1,0.1,2.2,0.5,3.3,0.7
		c1.2,0.2,2.3,0.2,3.5,0.3c2.4,0.2,4.9,0.5,7.4,0.4c1.1-0.1,2.3-0.2,3.4-0.3c0.5,0,1.1,0,1.6-0.1c1.1,0,2.2,0.1,3.2-0.4
		c0.2-0.1,0.4-0.1,0.6-0.1c1.9-0.1,3.7-0.7,5.4-1.2c1.6-0.5,3.2-1.4,4.4-2.6c0.2-0.2,0.4-0.3,0.5-0.6c0.2-1,0.4-2,0.6-3
		c0.1-0.7,0.1-1.4,0.3-2c0.2-0.9-0.2-1.8-0.3-2.6c-0.2-1.3-0.7-2.6-1-3.8c-0.1-0.5-0.3-1-0.7-1.3c-0.5-0.4-0.6-0.8-0.7-1.3
		c-0.6-2.9-0.5-5.9-0.4-8.8c0-0.4,0.1-0.9,0.2-1.3c0.1-0.8,0.2-1.6,0.2-2.3c0.1-3.2,0.3-6.4,1.3-9.5c0.3-0.8,0.5-1.7,0.9-2.5
		c0.9-2,1.7-4,2.7-5.9c1.1-2.2,1.9-4.5,2.6-6.9c0.6-1.9,1-3.8,1.8-5.6c0.4-1,0.5-2.1,0.7-3.2c0.3-1.7,0.6-3.5,0.9-5.2
		c0.2-1.4,0.4-2.7,0.5-4.1c0-0.1,0-0.3,0-0.4c0.6-2.5,0.5-5,0.6-7.5c0.1-2.3-0.1-4.5,0-6.7c0-3,0-6.1,0-9.1c0-1.1-0.1-2.2-0.2-3.2
		c-0.1-1,0-2,0-2.9c0.1-1.5-0.1-2.9-0.3-4.4c0-0.5-0.3-0.9-0.1-1.4c0.5,0.6,0.8,1.1,0.9,1.9c0.1,1,0.2,2.1,0.3,3.1
		c0.1,2.3,0.2,4.6,0.3,6.9c0.1,1.6,0.2,3.2,0.3,4.8c0.1,1,0.1,2-0.2,3.1c-0.2,0.5-0.1,1.2,0,1.8c0.3,2.6,0.3,5.1,0,7.6
		c0,0.4-0.1,0.8-0.1,1.2c0.2,2.3-0.4,4.5-0.7,6.7c-0.1,0.8-0.2,1.6-0.2,2.3c-0.2,2.8-0.6,5.6-1.5,8.2c-0.2,0.6-0.4,1.2-0.5,1.9
		c-0.2,1.3-0.6,2.5-1.1,3.6c-0.4,0.9-0.8,1.9-1.1,2.9c-0.6,1.8-1.3,3.5-2,5.2c-0.2,0.5-0.4,1-0.7,1.5c-1,1.5-1.6,3.3-2.2,5
		c0,0,0,0.1,0,0.1c-1.3,2.6-1.8,5.3-2,8.1c0,0.9-0.1,1.9-0.2,2.8c0,0.9,0,1.8-0.1,2.7c0,1.9-0.1,3.8,0.1,5.7c0.1,1,0.1,2.1,0.2,3.1
		c0,0.3,0.1,0.7,0.2,1c0.9,1.8,1.3,3.8,2.1,5.6c0.3,0.7,0.5,1.4,0.4,2.1c-0.1,1.4-0.1,2.8-0.2,4.1c-0.1,1.3-0.7,2.3-1.7,3.1
		c-1.8,1.7-4.1,2.5-6.4,3.3c-1.9,0.6-3.8,0.8-5.8,1.1c-0.7,0.1-1.5,0.1-2.1,0.5c-0.2,0.2-0.7,0.1-1,0.1c-3.3,0.2-6.7,0.2-10,0
		c-0.9,0-1.9-0.2-2.8-0.4c-2.7-0.6-5.4-1.1-8-1.8c-0.8-0.2-1.5-0.6-2.3-1c-0.4-0.2-0.8-0.3-1.2-0.5c-0.8-0.4-1.1-1-1.4-1.8
		c-0.1-0.3-0.2-0.7-0.3-1.2c-0.1,0.5-0.2,0.8-0.2,1.1c-0.5-0.6-0.6-0.6-0.6-1.3c0-1,0-2.1,0-3.1c0-0.5,0-1-0.1-1.5
		c-0.2-0.7,0-1.3,0.5-1.8c0.6-0.6,0.8-1.3,1.1-2c0.5-1.3,0.8-2.6,0.9-4c0.1-0.8,0.6-1.5,0.4-2.3c-0.5-2.1-0.3-4.2-0.4-6.3
		c0-0.8-0.2-1.5-0.1-2.3c0.1-0.7-0.2-1.4-0.4-2.1c-0.4-1.6-0.8-3.2-1.3-4.8c-0.6-2.1-1.3-4.2-1.9-6.3C12.1,87.5,12,87.2,12.2,86.9
		L12.2,86.9z"/>
	<path class="st0" d="M5.4,17.4c0,0.5,0,1.1-0.1,1.6C5.6,19.3,6,19.6,6.5,20c0.5-0.3,1.1,0,1.5-0.7c0.3,0.2,0.7,0.4,1,0.5
		c0.4,0.2,0.8,0.4,1.2,0.1c0.2-0.1,0.5,0,0.8,0.1c0.2,0,0.5,0.1,0.6,0.1c0.6-0.7,1.2-0.1,1.7,0c0.8,0.2,1.6,0.6,2.6,0.7
		c-0.1-0.3-0.2-0.5-0.3-0.9c0.2,0,0.4,0,0.6,0.1c0.7,0.3,1.3,0.7,2,1c0.9,0.4,1.8,1.1,2.9,1.1c0.3,0,0.5,0.2,0.4,0.5
		c-0.1,0.2-0.4,0.3-0.6,0.3c-0.2,0-0.5-0.1-0.7-0.2c-0.4-0.2-0.7-0.4-1-0.5c-0.4,0.2-0.7,0.4-1.2,0.6c-0.5-0.3-1-0.6-1.6-0.9
		c-0.5-0.1-0.9,0.6-1.4,0.3c-0.4-0.2-0.9-0.4-1.4-0.6c-0.3,0.1-0.6,0.4-1,0.4c-0.3,0-0.7-0.2-1-0.2c-1-0.2-2-0.2-3-0.1
		c-0.6,0.1-1.3-0.2-2.2-0.3c0,0-0.2,0.2-0.4,0.3c-0.4,0.3-0.9,0.3-1.4,0.1c-0.4-0.2-0.8-0.2-1.4-0.3c0,0.4-0.1,0.6-0.1,0.9
		c-0.1,2.4-0.2,4.8-0.3,7.2c-0.1,2.1,0,4.1,0,6.2c0,1.4-0.1,2.8,0,4.3c0,1,0.2,1.9,0.2,2.9c0,0.7,0.2,1.5-0.3,2.2
		c-0.6-0.5-0.7-1.2-0.7-1.9c0-1.6,0.1-3.1,0.2-4.7c0.1-1.4,0.1-2.8,0.1-4.3c0-1.6-0.1-3.2-0.2-4.8c-0.1-1.3,0.1-2.5,0.2-3.8
		c0.1-1.4,0.3-2.8,0.1-4.3c0-0.3,0.1-0.7,0.1-1c0.8-0.4,0.9-0.4,1.3-1.1C4,18.3,4.5,17.6,5.4,17.4L5.4,17.4z"/>
	<path class="st0" d="M49.4,62.9c0.1,0,0.3,0,0.4,0c0.9,0.9,1.9,1.7,2.8,2.6c0.1,0,0,0.2,0.1,0.5c-0.3-0.3-0.6-0.4-0.8-0.7
		c-0.3,0.2-0.6,0.3-0.9,0.5c0.1,0.1,0.1,0.3,0.1,0.4c0.4,0.6,1.1,0.4,1.8,0.6c-0.3,0.4-0.5,0.7-1,0.5c-0.5-0.2-0.9-0.4-1.5-0.2
		c0.5,1.1,1.7,1.6,2.4,2.9c-1-0.6-1.7-0.8-2.6-0.6l0,0c0.3-0.1,0.6-0.3,1-0.4c-0.7-0.6-1.3-1.2-1.9-1.9c-0.4,0-0.9-0.1-1.4-0.1
		c-0.3,0-0.4,0.2-0.4,0.5C46.8,67.2,46,67,45.7,66c0.3-0.2,0.6,0,0.9-0.1c0.3,0,0.6-0.1,0.9-0.1c-0.5-1-0.6-1.1-1.5-1
		c-0.4,0-0.9,0.1-1.5,0.1c0.3-0.3,0.4-0.6,0.6-0.7c0.3-0.2,0.9,0,0.8-0.6c0.9,0,1.1,1.2,2.2,0.8c-0.7-0.8-1.4-1.4-2.2-2
		c-0.2-0.1-0.4-0.1-0.7-0.1c-0.5,0-1,0-1.4,0c-0.1-0.5,0.2-0.6,0.5-0.6c0.8-0.1,1.6-0.2,2.4-0.4c-1-0.3-2.1,0.3-3.1-0.4
		c0.1-0.3,0.1-0.6,0.2-0.9c0.3-0.1,0.7-0.2,1-0.3c0-0.1,0-0.3-0.1-0.4c-0.5-0.6-1.1-0.8-1.9-0.6c0-0.3,0.1-0.6,0.1-0.8
		c1.1,0.1,2.1,0.3,3.2-0.2c0.3-0.2,1,0,1.4,0.3c0.6,0.5,1.3,0.4,1.9,0.5c0.4,0.1,1,0,1.5,0.6c-1-0.1-1.8-0.1-2.7-0.2
		c0.1,0.7,1,0.7,1.1,1c0.2,0.7,0.8,0.6,1.3,1c-0.3,0.1-0.5,0.2-0.8,0.3c-0.6,0-1.1,0-1.9,0C48.6,61.9,49,62.4,49.4,62.9
		c-0.5-0.3-1.1-0.7-1.7-1c-0.4,0.2-0.7,0.4-1.1,0.5c0.4,0.4,0.8,0.7,1.1,1c0.9,0.7,1.7,1.6,3.2,1.1c-0.3-0.3-0.6-0.5-0.8-0.7
		C49.8,63.5,49.6,63.2,49.4,62.9z M47.8,59.9c-0.5-1.3-1.3-1.6-2.8-1C45.6,60.2,46.7,59.9,47.8,59.9z M46.6,66.5
		c0.9,0.3,1.4,0.3,2,0C48,66.3,47.5,66.2,46.6,66.5z M50.6,66.6c-0.7-0.7-0.7-0.7-1.4-0.3C49.6,66.7,50,66.9,50.6,66.6z M47.9,65
		c0.8,0.7,0.8,0.7,1.3,0.3C48.9,64.9,48.4,64.9,47.9,65z"/>
	<path class="st0" d="M19,117.9c0.1,0.2,0.2,0.3,0.3,0.5c0.1,0.7,0.3,1.3,0.4,2c-0.3,0.1-0.5,0.2-0.7,0.4c0.1,0.8,0.1,0.8,1,1.3
		c-0.2,0.2-0.3,0.3-0.6,0.5c0.6,0.1,1.1,0.2,1.6,0.4l0,0c0.1,0.2,0.2,0.3,0.3,0.6c-1.2,0.5-2.2-0.6-3.4-0.1c0.8,0.2,1.6,0.5,2.5,0.7
		c-0.1,0.3-0.2,0.5-0.3,0.8c1.3,0.4,2.7,0.9,4,2c-0.4,0.1-0.6,0.1-0.8,0.1c-0.4-0.1-0.9-0.2-1.3-0.4c-1.4-0.6-2.8-0.9-4.3-1.1
		c-0.5-0.1-0.9-0.2-1.4-0.3c-0.2-1.3-0.5-2.6-0.4-3.8c0.1-0.6-0.2-1.3-0.3-2c0-0.1,0-0.3,0-0.6c0.4,0.1,0.8,0.2,1.1,0.3
		c0-0.2,0-0.4,0-0.8c0.4,0.1,0.8,0.1,1.2,0.2C18,117.9,18.5,117.9,19,117.9z"/>
	<path class="st0" d="M61.5,63.2c0,0.3,0,0.6,0.1,0.9c0.5,1.1,0,2.2-0.1,3.3c0,0.2-0.3,0.4-0.5,0.6c0,0.5,0.6,1.1,0.1,1.7
		c-0.2-0.2-0.4-0.3-0.6-0.5c0,0.1-0.1,0.1-0.1,0.2c0.1,0.4,0.2,0.8,0.2,1.2c0,0.2-0.1,0.4-0.3,0.8c-0.3-0.4-0.5-0.7-0.5-0.9
		c0-0.7-0.4-1-0.9-1.4c-1.1-0.9-2.1-1.9-3.2-3c0-0.1,0.1-0.3,0.2-0.5c0.1-0.2,0.2-0.3,0.3-0.6c0.7,0.7,1.4,1.3,2,1.8
		c0.6,0.5,0.9,1.2,1.6,2c0.2-1.4,0.2-1.4-0.6-1.8c-1.2-0.6-2.1-1.6-3.1-2.5c0.2-1,0.1-2-0.9-2.8c0.6-0.1,0.8-0.2,1-0.2
		c0.7,1.3,2,2,3.1,2.8c0.1,0.5-0.3,0.6-0.6,0.5c-0.5-0.2-0.9-0.6-1.3-0.9c-0.3-0.2-0.6-0.4-0.9-0.7c-0.3,0.4-0.2,0.8,0.1,1
		c0.8,0.6,1.5,1.2,2.3,1.8c0.3,0.2,0.8,0.3,1.3,0.6c0.1-0.3,0.2-0.6,0.2-0.9c0-0.3-0.2-0.6-0.4-1c0.3-0.1,0.5-0.2,0.8-0.4
		c-0.1-0.3-0.2-0.7-0.3-1.1c-0.1-0.4-0.5-0.7-0.2-1.1C61.1,62.1,61,63,61.5,63.2L61.5,63.2z"/>
	<path class="st0" d="M46.5,122.6c-0.3-0.1-0.5-0.2-0.8-0.3c-0.5-0.4-1-0.6-1.6-0.6l0,0c0-0.5,0.3-0.7,0.8-0.6
		c0.6,0.2,1.2,0.4,1.8,0.6c0.4,0.2,0.9,0.3,1.6,0.6c-0.6-0.8-1.4-0.6-1.9-1.2c0.2-0.1,0.4-0.3,0.5-0.3c0.6,0.1,0.8-0.3,1.2-0.6
		c0.8,0.3,1.6,0.5,2.4,0.8c0.1-0.2,0.2-0.5,0.2-0.7c0.6-0.1,1.1,0.3,1.6,0.5c0.8,0.3,0.8,0.3,1.4-0.4c-0.4-0.9-0.8-1.9-1.2-2.9
		c0.4,0,0.7,0,1.1,0.1l0,0c0.5,0.3,0.9,0.5,1.5,0.8c0,0.5-0.1,1-0.1,1.6c0.3,0.2,0.6,0.5,1,0.8c-0.2,0.4-0.5,0.6-0.7,1
		c-0.1,0.3-0.2,0.6-0.3,1.1c-0.7-0.4-1.3-0.7-2-1.1c-0.3,0.2-0.5,0.5-0.8,0.7c-0.9-0.3-1.8-0.7-2.7-1c0,0,0,0.1-0.1,0.1
		c0.4,0.3,0.7,0.5,1,0.9c0.1,0.1,0.1,0.4,0.1,0.8c-0.6-0.4-1-0.6-1.4-0.9c-0.2,0.3-0.3,0.6-0.4,0.8
		C47.8,123.5,47.3,122.6,46.5,122.6z"/>
	<path class="st0" d="M24.1,21c-1.4,0-2.5-0.7-3.7-1.3c-0.4-0.2-0.7-0.4-1.2-0.6c-0.1,0.7,0.3,1,0.8,1.2c0.8,0.4,1.7,0.7,2.5,1.1
		c0,0.4-0.3,0.4-0.4,0.3c-0.6-0.1-1.3-0.3-1.8-0.5c-1.1-0.5-2.2-1.1-3.3-1.7c-0.1-0.1-0.2-0.2-0.4-0.5c0.7,0.2,1.2,0.3,1.7,0.5
		c0.1-0.2,0.2-0.4,0.3-0.6c0.1-0.2,0.2-0.5,0.2-0.7c0.6,0.1,1.2,0.2,2,0.3c-0.3-0.4-0.4-0.6-0.6-0.9c0.4-0.1,0.7-0.1,1.1-0.2
		c-0.1-0.2-0.1-0.3-0.2-0.4c-0.2-0.1-0.4-0.1-0.6-0.1c-0.4-0.1-0.7-0.1-0.7-0.6c0.1-0.4,0.5-0.2,0.7-0.3c1.2-0.4,1.2-0.4,2.1-0.1
		c0.6,0.2,1.3,0.3,2,0.5c0.6,0.1,1,0.4,1,1.1c0,0.1-0.1,0.2-0.1,0.2c-1.6-1.1-2-1-2.5,1c0.2,0.3,0.5,0.6,0.9,1.2
		c-0.7-0.2-1.1-0.3-1.6-0.4C22.6,20.3,23.7,20.2,24.1,21L24.1,21z"/>
	<path class="st0" d="M55.8,70.4c0.1-0.3,0.3-0.5,0.4-0.8c-0.6-1-1.9-1.3-2.4-2.5c0.6,0.1,1.6,0.8,2.3,1.4c0.7,0.6,1.3,1.3,2,2.1
		c0.1-0.4,0.2-0.6,0.3-1c0.8,0.9,1.5,1.6,1.4,2.8c0,0.2,0,0.5-0.1,0.5c-0.8,0.5-0.4,1.1-0.3,1.8c-0.2,0.2-0.5,0.4-0.7,0.6
		c-0.2,0.5,0.7,1.1-0.2,1.6c-0.1-0.2-0.3-0.3-0.3-0.5C57.9,75.7,57.8,75,57,75c-0.1,0-0.2-0.2-0.3-0.3c-0.7-0.9-1.4-1.7-2.2-2.6
		c0.6,0,0.6,0,2.4,1.7c0.1-0.4,0.1-0.8,0.1-1.2c-0.8-0.8-1.6-1.7-2.5-2.7C55.3,69.7,55.6,70,55.8,70.4c0.5,0.4,0.9,0.7,1.3,1.1
		c0.1,0.1,0.4,0.3,0.5,0.3c0.6-0.3,0.8,0.4,1.2,0.6c0-0.9,0-0.9-0.5-1.1c-0.6-0.2-1.2-0.5-1.7-0.7C56.3,70.4,56.1,70.4,55.8,70.4z"
		/>
	<path class="st0" d="M50.3,75.1c0-0.2,0-0.4,0-0.6l0,0c0.3,0.2,0.7,0.4,0.9,0.6c1.1,1,2.2,2.1,3.3,3.1c0.1,0.1,0.3,0.2,0.7,0.4
		c-0.5-0.7-0.8-1.1-1.1-1.6c0.5-0.7-0.2-0.9-0.5-1.2c-0.7-0.8-1.5-1.7-2.2-2.5l0,0c0.2,0.1,0.5,0.2,0.7,0.4c0.8,0.7,1.6,1.5,2.4,2.2
		c0.4,0.4,0.7,0.8,1.3,0.9c0.3-0.4,0-0.6-0.2-0.7c-0.6-0.6-1.2-1.1-1.8-1.7c0.2-0.2,0.3-0.3,0.4-0.5c-0.2-0.2-0.4-0.4-0.6-0.6
		c-0.2-0.2-0.4-0.5-0.6-0.8c1,0.4,2,1.3,2.6,2.3c0.3,0.6,0.7,1.1,1.4,1.1c0.1,0,0.3,0.1,0.4,0.2c0.5,0.6,0.7,1.3,0.4,2.4
		c-0.4-0.5-0.6-0.8-0.8-1.1c0,0-0.1,0-0.1,0c0.1,0.5,0.2,1,0.3,1.5c0.1,0.5,0.3,1-0.1,1.6c-0.5-0.2-0.4-0.7-0.5-1
		c-0.1-0.3-0.2-0.6-0.3-0.9c-0.2,0.1-0.4,0.1-0.5,0.1c0,0.1,0,0.2,0,0.3c0.3,0.7,0.6,1.5,0.8,2.2c0,0.2-0.1,0.4-0.3,0.9
		c-0.3-0.8-0.6-1.3-0.7-1.7c-0.2-0.7-0.6-1.2-1.2-1.6c-1-0.9-1.9-1.8-2.9-2.7C51.2,75.7,50.7,75.4,50.3,75.1L50.3,75.1z"/>
	<path class="st0" d="M52.2,85.4c-0.9-0.2-1.3-0.7-1.7-1.1c-0.7-0.7-1.4-1.5-2.1-2.2c-0.3-0.3-0.5-0.4-1,0c1.8,2.2,3.5,4.5,5.5,6.6
		c-0.4,0.3-0.5,0-0.7-0.1c-0.5-0.4-0.9-0.9-1.4-1.3c-0.2-0.2-0.6-0.4-0.8-0.3c-0.6,0.3-0.9,0-1.3-0.3c-0.1-0.1-0.1-0.2-0.2-0.2
		c-0.9-0.1-1.1-0.9-1.6-1.5c1.1,0.1,1.6,1.3,2.9,1.2c-0.5-0.8-1-1.5-1.6-2.1c-1.1,0-2.1,0.5-3.5,0.1c1.1-0.5,2-0.4,3-0.7
		c-0.4-0.5-0.6-0.8-0.9-1.2c-0.7,0-1.4,0-2.4,0c0.4-0.3,0.6-0.5,0.8-0.5c0.7-0.2,1.4-0.3,2.2-0.4c-0.1-0.6-0.5-0.9-0.9-1.4
		c-0.5,0-0.9,0.1-1.6,0.1c0.7-1,1.5-0.8,2.2-0.7c0.3,0.9,0.3,0.9,1.2,1.7c0.3-0.1,0.7-0.1,1.2-0.2c-0.3,0.4-0.4,0.7-0.6,1
		C49.9,82.8,50.9,84,52.2,85.4z"/>
	<path class="st0" d="M26.8,12.5c-0.1,0-0.2,0-0.3-0.1c-0.1-0.1-0.4-0.3-0.3-0.4c0-0.1,0.2-0.4,0.4-0.4c0.3,0,0.7,0.1,0.9-0.3
		c0.1-0.1,0.4-0.1,0.5-0.1c0.4,0.1,0.8,0.2,1.1,0.3c0.7,0.3,1.4,0.7,2.2,0.7c0.1,0,0.3,0.3,0.3,0.4c0,0.1-0.3,0.4-0.3,0.4
		c-0.6-0.3-0.8,0.3-1.1,0.5c-0.3,0.3-0.5,0.8-1.1,0.6c-0.4,0.6-0.9,0.6-1.5,0.4c-0.9,0.7-1.5,0.2-2.1-0.4c-1.3-0.1-1.2-1-1.1-1.9
		c0-0.1,0.1-0.3,0.1-0.4c0.4,0.2,0.4,0.2,0.6,0.7c0.2-0.1,0.3-0.2,0.6-0.3c0.1,0.4,0.2,0.7,0.3,1.2c0.2-0.1,0.4-0.1,0.5-0.2
		C26.5,13.1,26.6,12.8,26.8,12.5z"/>
	<path class="st0" d="M50.3,69.4c0.7,0.6,1.2,1.4,2,2.2c-0.9-0.1-1.2-0.8-1.8-1.2c-0.3,0.1-0.7,0.1-1.2,0.2c0.1,0.2,0.1,0.3,0.2,0.4
		c0.6,0.6,1.3,1,1.8,1.7c0.1,0.1,0.2,0.3,0.2,0.5l0,0c-1-0.2-1.8-1-2.9-1c0,0.3,0,0.4,0,0.6c0,0-0.1,0.1-0.1,0.1
		c-0.3-0.2-0.6-0.5-1-0.7c-1.5,0.1-2.9,0-4.5-0.2c0.6-0.3,1.2-0.2,1.9-0.2c0.7,0,1.5,0,2.2,0c0.7,0,1.4,0,2.1,0
		c-0.3-1-0.5-1.2-1.3-1.2c-0.9,0-1.8,0.1-2.6,0.2c-0.4,0-0.7,0-1.1-0.1c0.9-0.4,1.9-0.3,2.8-0.5c0.9-0.2,1.9,0.1,3-0.3
		c-0.8-0.4-1.2-1.2-2.1-1c0,0.1,0,0.1,0,0.1c0,0,0.1,0.1,0.1,0.1c0.1,0,0.2,0.1,0.3,0.1c-0.2,0.1-0.4,0.2-0.6,0.2
		c-0.6-0.2-1.2-0.5-1.8-0.6c-0.6-0.1-1.2-0.1-2-0.1c0.3-0.3,0.5-0.6,0.6-0.5c1,0.4,2,0.2,3,0.1c0.2,0,0.3-0.3,0.5-0.5
		c0.5,0.5,1.3,0,2,0.4c-0.2,0.2-0.4,0.2-0.6,0.4C49.7,69,50,69.2,50.3,69.4L50.3,69.4z"/>
	<path class="st0" d="M47.6,126.8c1.4-0.6,2.5-1.1,3.7-1.6c-0.5-0.4-1.2,0.4-1.4-0.5c0.2-0.1,0.4-0.2,0.6-0.3
		c0.6-0.2,1.2-0.3,1.8-0.5c0.5-0.2,1.1-0.4,0.9-1.1c0.8,0.1,1.4,0.4,2,0.8c-0.6,0.6-1.1,1.3-1.6,1.8c-0.2,0.2-0.5,0.3-0.8,0.4
		c-1.6,0.4-3.1,0.8-4.7,1.2C48.1,127.1,48,127,47.6,126.8z"/>
	<path class="st0" d="M36.2,19.6c-1.3-0.7-2.6-1.4-4-1.9c-1-0.3-1.7-1.2-2.8-1.8c1-1,1.9-0.5,3-0.2c-0.4,0.3-0.6,0.5-0.8,0.8
		c0.7,0.7,1.7,0.9,2.6,1.1c-0.4-0.3-0.7-0.5-1.2-0.9c1.5,0.2,3.3,0.9,4.5,1.9C37.1,18.9,36.7,19.2,36.2,19.6L36.2,19.6z"/>
	<path class="st0" d="M53.3,83.6c0.2,0.1,0.5,0.3,0.7,0.4c-0.1-1.4-1.1-2.4-2-3.3c-1-1-2.1-1.8-3.1-2.8c-0.5-0.5-1-0.7-1.7-0.8
		c-0.5,0-1.1,0-1.5-0.5c1.2-0.2,1.2-0.2,1.7-0.7c0.3,0.2,0.7,0.4,1,0.6c0.2,0.1,0.4,0.2,0.4,0.3c0.1,0.6,0.6,0.9,1,1.2
		c1.3,1.2,2.7,2.3,3.9,3.5c0.8,0.8,1.2,1.8,1.1,3c0,0.4,0,0.7,0.1,1.3c-0.4-0.4-0.7-0.6-0.9-0.9c-0.1,0.4-0.2,0.7-0.3,1.1
		c-0.2-0.1-0.3-0.1-0.3-0.2c-0.3-0.8-0.6-1.6-0.2-2.4C53.2,83.7,53.3,83.6,53.3,83.6z"/>
	<path class="st0" d="M2.7,55.9c-0.2-1-0.6-1.9-0.6-2.9c0.1-2.2,0-4.5,0-6.7c0-0.2,0-0.4,0.1-0.5c0.2,0,0.3,0.1,0.3,0.1
		c-0.1,0.9,0.5,1.6,0.4,2.5c0,0.4,0,0.9,0,1.3c0,1.3,0,2.6,0,4c0,0.4,0,0.8,0,1.2C2.9,55.1,2.8,55.5,2.7,55.9z"/>
	<path class="st0" d="M6.8,23.6c0.1-0.4-0.3-0.6-0.5-0.8c-0.2-0.2-0.4-0.5-0.6-0.9c0.8,0,1.3,0.2,1.8,0.6c1.2,1,2.3,2.1,3.5,3.1
		c0.4,0.4,0.9,0.8,0.6,1.6C9.9,26,8.7,24.3,6.8,23.6L6.8,23.6z"/>
	<path class="st0" d="M34.7,68c0-0.6-0.6-0.8-1-1.2c-0.7-0.7-1.5-1.4-2.2-2.1c-0.2-0.2-0.3-0.5-0.7-0.9c0.4,0.1,0.6,0.1,0.7,0.2
		c2,1.9,4.1,3.6,6.2,5.3c0.1,0.1,0.1,0.2,0.2,0.4c-0.3,0-0.6,0.1-0.8,0c-0.5-0.2-0.7-0.8-1.3-0.8l0,0C35.6,68.3,35.3,67.9,34.7,68
		L34.7,68z"/>
	<path class="st0" d="M38.2,13.9c0,0.2,0.1,0.5,0,0.7c-0.1,0.2-0.2,0.4,0,0.7c0.3,0.4,0.3,0.7-0.3,0.8c-0.4,0.1,0.1,0.3-0.1,0.5
		c-0.3,0.3-0.5,0.2-0.8,0.1c-0.2-0.1-0.4-0.2-0.6-0.3C36,15,36,15,37,14.4c-0.1-0.2-0.3-0.4-0.6-0.8C37.2,13.7,37.7,13.8,38.2,13.9
		L38.2,13.9z"/>
	<path class="st0" d="M21.3,95.1c0.5,0.3,0.8,0.5,1,0.7c1.8,2.2,2.7,3.8,3,5.2c-0.2-0.1-0.4,0-0.5-0.1c-1.1-1.7-2.2-3.5-3.3-5.2
		C21.4,95.6,21.4,95.5,21.3,95.1z"/>
	<path class="st0" d="M31.5,65.8c0.6,0.4,1.2,0.8,1.8,1.2c0.5,0.3,1,0.6,1.4,0.9l0,0c0.3,0.4,0.7,0.8,1.2,0.9l0,0
		c0.7,0.6,1.3,1.3,2,1.9c0.2,0.2,0.2,0.2,0.4,0.9c-0.2-0.2-0.4-0.3-0.6-0.4c-1.9-1.6-3.9-3.1-5.8-4.7c-0.2-0.2-0.3-0.4-0.5-0.6
		C31.4,65.9,31.4,65.9,31.5,65.8z"/>
	<path class="st0" d="M5.1,71.2c0.2-0.1,0.5-0.3,0.7-0.5c0.6,1.8,1.2,3.5,1.8,5.2c0.1,0.4,0.3,0.8,0,1.4c-0.2-0.2-0.4-0.3-0.5-0.5
		c-0.2-0.4-0.3-0.8-0.4-1.2c-0.3-1.4-0.7-2.7-1.5-3.9C5.1,71.5,5.1,71.4,5.1,71.2L5.1,71.2z"/>
	<path class="st0" d="M9.8,81.9c0.3-0.1,0.7-0.1,0.9,0.2c0.5,1.1,1,2.1,1.4,3.2c0.2,0.5,0,1.1,0,1.6l0,0c-0.7-0.9-1.3-1.9-1.6-3
		C10.3,83.2,10.1,82.5,9.8,81.9L9.8,81.9z"/>
	<path class="st0" d="M32.6,57.3c1,0.2,1.4,0.7,2,1c0.3,0.1,0.6,0.1,1.1,0.2c0.4,0.7,0.8,1.6,1.7,2.3c-0.1,0.1-0.2,0.2-0.2,0.2
		c-0.2-0.1-0.3-0.1-0.5-0.2c-0.7-0.6-1.6-1.1-2.2-1.8c-0.4-0.4-0.9-0.7-1.4-1.1C33,57.8,32.9,57.7,32.6,57.3z"/>
	<path class="st0" d="M49.3,89c-0.1,0-0.3,0-0.4-0.1c-0.9-0.9-2-1-3.2-0.9c-0.3,0-0.6-0.2-1-0.3c0.7-0.7,1.4-0.2,2.1-0.4
		c-0.1-0.3-0.3-0.5-0.4-0.7c0.9,0,1.2,0.8,1.9,1.1c0.6,0.2,1.3,0.4,1.9,0.8c-0.2,0-0.5,0-0.7,0.1c0,0.1,0,0.2,0,0.3
		C49.4,88.9,49.4,89,49.3,89z"/>
	<path class="st0" d="M58.9,23.7c-0.1-0.2-0.1-0.4-0.2-0.5c-0.4-0.3-0.8-0.6-1.3-1c0.8-0.2,1.1,0.2,1.5,0.4c0.5,0.2,1.1,0.5,1.6,0.8
		c0.5,0.3,0.9,0.5,1.4,0.9c0.4,0.3,0.9,0.5,1.2,1.2c-0.4,0-0.6,0-0.8-0.1c-0.5-0.3-0.9-0.6-1.3-0.9C60.3,24,59.7,23.7,58.9,23.7
		L58.9,23.7z"/>
	<path class="st0" d="M3.3,61.8c0.1,0.1,0.4,0.2,0.4,0.4c0.4,2,0.8,4,1.1,6c0,0.1,0,0.2-0.1,0.4c-0.2-0.3-0.4-0.5-0.5-0.7
		c-0.3-1.1-0.5-2.2-0.7-3.3c-0.1-0.8-0.2-1.4-0.9-2C3,62.3,3.1,62.1,3.3,61.8L3.3,61.8z"/>
	<path class="st0" d="M50.3,74.4c-0.1,0-0.4,0-0.4-0.1c-0.4-0.5-1-0.5-1.6-0.5c-1,0-2.1,0.1-3.1,0.2c-0.6,0-1.2,0.1-2,0
		c0.4-0.2,0.6-0.4,0.8-0.4c1.4-0.1,2.8-0.2,4.2-0.3c0.1,0,0.2-0.2,0.3-0.3c0,0,0.1-0.1,0.1-0.1C49.4,73.2,50,73.7,50.3,74.4
		L50.3,74.4z"/>
	<path class="st0" d="M6.8,23.6c0.6,0.4,0.8,1.1,1,1.9c-0.4,0-0.7,0.1-0.8,0C6,24.6,5,23.8,4.1,22.7c0.4,0,0.7-0.2,0.8-0.1
		c0.4,0.3,0.8,0.7,1.2,1.1C6.3,24,6.6,23.8,6.8,23.6L6.8,23.6z"/>
	<path class="st0" d="M52.6,78.6c0.8,0.7,1.7,1.3,2.4,2.1c0.4,0.5,0.5,1.3,0.8,2c0,0.1-0.2,0.3-0.3,0.3c-0.1,0-0.2-0.1-0.4-0.2
		c0,0-0.1-0.1-0.1-0.1c-0.3-1.5-1.2-2.6-2.5-3.5c-0.1-0.1-0.1-0.2-0.2-0.4C52.4,78.7,52.5,78.6,52.6,78.6z"/>
	<path class="st0" d="M3.3,61.8c-0.1-0.1-0.3-0.3-0.4-0.4c-0.4-1.5-0.6-3-0.4-4.5c0-0.1,0.1-0.1,0.3-0.3C3.1,57.1,3,57.7,3,58.3
		c0.1,0.6,0.3,1.2,0.4,1.9C3.4,60.7,3.3,61.2,3.3,61.8L3.3,61.8z"/>
	<path class="st0" d="M50.3,75c-0.2,0.6-0.5,0.9-1.3,0.8c-1.3-0.2-2.6-0.1-3.9-0.2c-0.4,0-0.8,0-1.1-0.5c0.6,0.1,1.2,0.1,1.7,0.2
		c0.5,0,1.1-0.1,1.6,0.1c0.6,0.1,1-0.4,1.5-0.4C49.3,75,49.8,75,50.3,75L50.3,75z"/>
	<path class="st0" d="M34.3,25.7c0,0.2,0,0.4,0.1,0.7c-0.7,0-1.2-0.4-1.7-0.7c-1.8-1-1.8-1.1-2.4-2c0.3,0.1,0.6,0.1,0.8,0.2
		c0.8,0.5,1.6,1,2.4,1.5C33.7,25.6,34.1,25.6,34.3,25.7L34.3,25.7z"/>
	<path class="st0" d="M30.8,74.8c-0.2-0.2-0.5-0.3-0.7-0.5c-1.2-1-2.4-2.1-3.6-3.1c-0.3-0.2-0.7-0.5-0.6-0.9l0,0
		c0.5,0.3,1,0.7,1.5,1c0.8,0.6,1.6,1.3,2.3,1.9l0,0c0.4,0.5,0.8,0.9,1.3,1.4C30.8,74.7,30.8,74.8,30.8,74.8z"/>
	<path class="st0" d="M31.3,77.2c-1.6-1.1-3-2.5-4.4-4c0.1-0.1,0.2-0.2,0.2-0.2c0,0,0.1,0,0.1,0c1.4,1.3,2.8,2.7,4.2,4
		C31.4,77.1,31.4,77.2,31.3,77.2z"/>
	<path class="st0" d="M47.3,56.1c-0.4-0.2-0.6-0.2-0.7-0.2c-1.3-1.3-2.6-2.6-3.9-3.9c0,0,0-0.2,0-0.3C43.7,52.2,45.3,53.7,47.3,56.1
		z"/>
	<path class="st0" d="M11.1,24.7c0.5,0.4,1,0.7,1.2,1c0.3,0.5,0.8,0.7,1.3,0.8c0,0.4-0.1,0.8-0.1,1.1c-0.4,0.2-0.8,0.2-0.9-0.2
		c-0.2-0.9-0.8-1.5-1.4-2.2C11.1,25.3,11.1,25.1,11.1,24.7z"/>
	<path class="st0" d="M51.2,109.6c0.4,0.7,0.7,1.4,1.1,2.3c-0.3,0-0.6,0-0.7-0.1c-0.6-0.8-1.2-1.6-1.6-2.5
		C50.7,108.7,50.8,109.6,51.2,109.6L51.2,109.6z"/>
	<path class="st0" d="M13.2,25c-0.7,0.3-1-0.1-1.3-0.5c-0.3-0.4-0.3-0.9,0-1.4c0.2-0.3,0.6-0.3,0.9,0c0.1,0.2,0.2,0.4,0.3,0.6
		c-0.2,0.1-0.4,0.2-0.6,0.3c0.1,0.2,0.2,0.3,0.3,0.4C12.9,24.7,13.1,24.8,13.2,25z"/>
	<path class="st0" d="M62.1,22.8c0.1,0.6-0.2,0.8-0.6,0.7c-0.9-0.3-1.5-0.9-2.1-1.7c0,0,0-0.1,0.1-0.2
		C60.5,21.7,61.1,22.7,62.1,22.8z"/>
	<path class="st0" d="M47.6,78.3c-1.1,0.6-2.2,0.8-3.3,0.2c0,0,0-0.3,0-0.4c0.6,0.1,1.2,0.3,1.7,0.3C46.5,78.5,47,78.4,47.6,78.3z"
		/>
	<path class="st0" d="M44.1,45.2c0.4,0.2,0.8,0.4,1.3,0.7c-1.1,0.5-2,0.6-3,0.6c0.3-1,1.1-0.4,1.6-0.8
		C44.1,45.5,44.1,45.3,44.1,45.2L44.1,45.2z"/>
	<path class="st0" d="M6.6,19.2c-0.4-0.6-0.2-1.1,0.1-1.3c0.3-0.2,0.8-0.3,1.2-0.4c0.1,0,0.2,0.2,0.3,0.3c0,0.1-0.1,0.4-0.1,0.4
		C7.4,18.3,7,18.7,6.6,19.2z"/>
	<path class="st0" d="M13.9,14.3c-0.6,0.4-1.1,0.7-1.7,1.1c-0.1-0.2-0.3-0.3-0.3-0.5c0-0.5,0.5-0.7,0.9-0.8
		C13.2,13.8,13.6,13.8,13.9,14.3z"/>
	<path class="st0" d="M35.1,79.9c1,0.5,2.1,1,2.9,1.9C36.7,81.7,36.1,80.5,35.1,79.9z"/>
	<path class="st0" d="M9.3,27.2c0-0.2-0.1-0.5-0.1-0.7c0.1-0.1,0.1-0.2,0.2-0.2c0.8,0.2,1.2,0.7,1.2,1.8C10,27.8,9.6,27.5,9.3,27.2
		L9.3,27.2z"/>
	<path class="st0" d="M53.6,117.6c-0.5-0.3-0.9-0.6-1.5-1c0.3-0.1,0.5-0.3,0.6-0.3c0.4,0.1,0.7,0.2,1.1,0.4c0.2,0.1,0.2,0.3,0.4,0.5
		C53.9,117.4,53.7,117.5,53.6,117.6L53.6,117.6z"/>
	<path class="st0" d="M40.9,78.7c1.1,0.2,2.1,0.8,3.2,1.6C42.7,80.2,41.9,79.3,40.9,78.7z"/>
	<path class="st0" d="M9.2,27.2c0.1,0.3,0.2,0.6,0.3,1c-0.9-0.4-1.3-0.8-1.9-1.7C8.4,26.4,8.7,27.1,9.2,27.2L9.2,27.2z"/>
	<path class="st0" d="M53.2,83.7c-0.7-0.6-1.3-1.1-1.9-1.7c-0.2-0.1-0.3-0.3-0.3-0.6c0.9,0.6,1.8,1.3,2.4,2.2
		C53.3,83.6,53.2,83.7,53.2,83.7z"/>
	<path class="st0" d="M16.4,16.2c0.3,0,0.6-0.1,0.8,0c0.4,0.1,0.5,0.6,0.2,0.8c-0.2,0.2-0.6,0.3-1,0.5C16.4,17,16.4,16.6,16.4,16.2
		L16.4,16.2z"/>
	<path class="st0" d="M37.4,76.2c0.6,0.2,1,0.7,1.1,1.5c-0.4-0.1-0.7-0.2-1.1-0.3c-0.1-0.4-0.1-0.7-0.2-1.1
		C37.3,76.3,37.3,76.2,37.4,76.2z"/>
	<path class="st0" d="M56,24.6c-0.6,0-1.2,0.4-1.7-0.1C54.8,23.8,54.8,23.8,56,24.6z"/>
	<path class="st0" d="M30.4,54.6c1.1,0.2,1.3,0.9,2,1.4C31.6,56,31.2,55.8,30.4,54.6z"/>
	<path class="st0" d="M37.7,38.9c-0.6-0.4-0.8-0.9-0.6-1.6C37.6,37.7,38.2,38.1,37.7,38.9z"/>
	<path class="st0" d="M32.5,15c-0.7,0.2-1.1-0.1-1.5-0.2c-0.1,0-0.1-0.2-0.1-0.4c0-0.1,0.1-0.2,0.2-0.1C31.6,14.3,32.1,14.4,32.5,15
		z"/>
	<path class="st0" d="M34.4,45.9c-0.2-0.7-0.9-1.1-1-2.1c0.3,0.2,0.5,0.2,0.6,0.4c0.3,0.5,0.5,1,0.7,1.6
		C34.6,45.8,34.5,45.9,34.4,45.9z"/>
	<path class="st0" d="M40.6,80.8c-0.7,0-1.3-0.3-2.1-0.9C39.6,79.9,40.1,80.3,40.6,80.8z"/>
	<path class="st0" d="M9.8,81.9c-0.8-0.8-0.8-0.8-1-1.8c0.3,0.2,0.6,0.2,0.6,0.4C9.6,80.9,9.7,81.4,9.8,81.9L9.8,81.9z"/>
	<path class="st0" d="M52.1,78.1c-0.9,0-1.2-0.8-1.8-1.2c0.1-0.1,0.1-0.1,0.2-0.2c0.2,0.1,0.4,0.3,0.5,0.4
		C51.4,77.4,51.7,77.7,52.1,78.1z"/>
	<path class="st0" d="M25.1,18.1c-0.2,0.2-0.4,0.3-0.5,0.5c-0.1-0.2-0.4-0.4-0.4-0.5c0-0.1,0.3-0.3,0.4-0.5
		C24.7,17.7,24.9,17.9,25.1,18.1z"/>
	<path class="st0" d="M9.9,22.4c-0.1,0.2-0.2,0.4-0.4,0.5c-0.1,0.1-0.3,0.1-0.4,0c-0.1-0.1-0.2-0.2-0.2-0.3c0-0.2,0.1-0.4,0.3-0.5
		C9.3,22,9.5,22,9.7,22C9.7,22,9.8,22.2,9.9,22.4z"/>
	<path class="st0" d="M48.9,116.3c0.5,0.4,0.8,0.6,1.2,0.9c-0.3,0.1-0.5,0.3-0.6,0.2C49.2,117.2,48.9,117,48.9,116.3z"/>
	<path class="st0" d="M43.7,82.4c0.5,0,0.9,0.2,1.2,0.9C44.2,83.1,43.9,82.9,43.7,82.4z"/>
	<path class="st0" d="M23.1,13.6c-0.2,0.2-0.3,0.3-0.5,0.4c-0.3,0-0.5-0.2-0.4-0.4c0-0.2,0.2-0.4,0.3-0.5
		C22.7,13.1,22.9,13.3,23.1,13.6z"/>
	<path class="st0" d="M26.8,15.8c0.5,0.2,0.6,0.5,0.4,0.8c-0.1,0.1-0.3,0.1-0.5,0.1c-0.1,0-0.2-0.3-0.2-0.4
		C26.6,16.2,26.7,16,26.8,15.8z"/>
	<path class="st0" d="M50.8,116.3c-1.2,0.1-1.2,0.1-1.1-0.7C50.1,115.8,50.4,116,50.8,116.3z"/>
	<path class="st0" d="M47.4,53.2c-0.8-0.1-1.1-0.6-1.5-1.2l0,0C46.6,52.1,47,52.6,47.4,53.2L47.4,53.2z"/>
	<path class="st0" d="M32.7,77.9L32.7,77.9c0.1,0.1,0.1,0.3,0.2,0.4l0,0c-0.7-0.1-1.1-0.6-1.5-1.1c0,0,0.1-0.1,0.1-0.1
		C31.9,77.3,32.3,77.6,32.7,77.9z"/>
	<path class="st0" d="M25.4,15.1c0.1,0,0.1,0,0.1,0.1c0.2,0.2,0.4,0.5,0.2,0.7c-0.1,0.1-0.4,0.1-0.5,0C25,15.6,25,15.3,25.4,15.1z"
		/>
	<path class="st0" d="M40.6,42.3c-0.4,0-0.9,0.2-1-0.6C40.1,41.6,40.4,41.8,40.6,42.3L40.6,42.3z"/>
	<path class="st0" d="M26.5,18.5c-0.3,0.2-0.4,0.4-0.5,0.3c-0.1,0-0.2-0.2-0.3-0.4c0-0.1,0.2-0.2,0.3-0.2
		C26.1,18.2,26.3,18.4,26.5,18.5z"/>
	<path class="st0" d="M14.4,18.9c-0.2-0.3-0.4-0.4-0.4-0.5c0-0.1,0.2-0.3,0.4-0.3c0,0,0.3,0.2,0.3,0.2
		C14.7,18.5,14.5,18.6,14.4,18.9z"/>
	<path class="st0" d="M38.2,13.9c0-0.1-0.1-0.3,0-0.4c0.1-0.2,0.2-0.3,0.3-0.4c0,0,0.3,0.1,0.3,0.2c0,0.2,0,0.4-0.1,0.5
		C38.6,13.9,38.3,13.8,38.2,13.9L38.2,13.9z"/>
	<path class="st0" d="M5.1,71.2c-0.4-0.6-0.4-0.6,0-1C5.4,70.6,5.2,70.9,5.1,71.2L5.1,71.2z"/>
	<path class="st0" d="M32.9,78.3c0.4,0.1,0.9,0.3,1.2,0.9C33.4,79.1,33.1,78.7,32.9,78.3L32.9,78.3z"/>
	<path class="st0" d="M50.7,53.1c0.3,0.2,0.7,0.5,1,0.7c-0.6,0.1-1-0.1-1.2-0.6C50.6,53.2,50.6,53.2,50.7,53.1z"/>
	<path class="st0" d="M36.7,77.4c0.3,0.2,0.5,0.4,0.8,0.6c0,0,0,0.1-0.1,0.1C37.3,78,37.1,78,37,77.8C36.9,77.7,36.8,77.5,36.7,77.4
		L36.7,77.4z"/>
	<path class="st0" d="M16.2,17.9c0.1,0.1,0.2,0.1,0.2,0.2c0,0.2-0.1,0.4-0.1,0.7c-0.1,0-0.3,0-0.4-0.1c-0.2-0.3-0.1-0.5,0.1-0.7
		C16.1,17.9,16.1,17.9,16.2,17.9z"/>
	<path class="st0" d="M13.3,17.7c0.1,0.2,0.2,0.3,0.3,0.4c-0.1,0.1-0.2,0.2-0.4,0.3c-0.1,0-0.3-0.2-0.3-0.2
		C13,18,13.1,17.9,13.3,17.7z"/>
	<path class="st0" d="M16.4,16.2c-0.1,0.1-0.3,0.2-0.4,0.2c-0.2,0-0.3-0.1-0.4-0.2c0-0.1,0-0.2,0.1-0.4c0.2,0,0.3,0.1,0.5,0.1
		C16.2,16,16.3,16.1,16.4,16.2L16.4,16.2z"/>
	<path class="st0" d="M21.2,13.3c-0.2,0.1-0.4,0.3-0.5,0.3c-0.1,0-0.3-0.3-0.3-0.4c0-0.1,0.2-0.2,0.4-0.4
		C20.9,12.9,21,13.1,21.2,13.3z"/>
	<path class="st0" d="M34.2,12.4c0.2,0.2,0.4,0.4,0.4,0.5c0,0.1-0.2,0.3-0.4,0.3c-0.1,0-0.3-0.2-0.3-0.3
		C33.9,12.8,34,12.7,34.2,12.4z"/>
	<path class="st0" d="M42.2,81.7c-0.3-0.1-0.6-0.3-0.9-0.4c0-0.1,0.1-0.1,0.1-0.2c0.3,0.1,0.6,0.3,0.9,0.4
		C42.2,81.5,42.2,81.6,42.2,81.7z"/>
	<path class="st0" d="M20.9,73.4c0.1-0.3,0.2-0.5,0.5-0.2c0.2,0.2,0.4,0.5,0.6,0.9c-0.3,0.1-0.4,0.1-0.6,0.2
		C21.2,73.9,21.1,73.6,20.9,73.4z"/>
	<path class="st0" d="M21.2,70.8c-0.1-0.3-0.1-0.6-0.2-1.1c0.5,0.3,0.7,0.6,0.8,0.9c0,0.1-0.2,0.2-0.3,0.3
		C21.3,70.9,21.3,70.9,21.2,70.8z"/>
	<path class="st0" d="M37.6,33c1.5,1.3,2.5,2.9,3.3,4.8c-0.9-0.5-1.2-1.5-1.9-2.2c-0.6-0.7-1.2-1.5-1.8-2.3
		C37.4,33.2,37.5,33.1,37.6,33z"/>
	<path class="st0" d="M40.2,34.2c1.3,0.9,2.4,2.3,2.7,3.4C42.1,37.2,40.9,35.7,40.2,34.2z"/>
	<path class="st0" d="M50,95.7c-0.7-0.1-1.2-0.6-1.5-1.2C49.3,94.6,49.7,95.1,50,95.7z"/>
	<path class="st0" d="M13.5,66.7c0.6,0.5,0.9,1.1,1.1,2.1C13.9,68,13.5,67.4,13.5,66.7z"/>
	<path class="st0" d="M19.8,71.4c-0.4-0.1-0.9-0.2-0.8-0.9C19.4,70.9,19.6,71.2,19.8,71.4z"/>
</g>
</svg>
