<?xml version="1.0" encoding="utf-8"?>
<!-- Generator: Adobe Illustrator 19.0.0, SVG Export Plug-In . SVG Version: 6.00 Build 0)  -->
<svg version="1.1" id="Warstwa_1" xmlns="http://www.w3.org/2000/svg" xmlns:xlink="http://www.w3.org/1999/xlink" x="0px" y="0px"
	 viewBox="0 0 188.1 240.5" style="enable-background:new 0 0 188.1 240.5;" xml:space="preserve">
<style type="text/css">
	.st0{fill:#FFFFFF;}
</style>
<g id="XMLID_561_">
	<path id="XMLID_804_" d="M122.2,24.3c0.6,0.4,0.7,0.9,0.5,1.5c-0.2,0.5-0.3,1-0.7,1.5c-0.3,0.3-0.5,0.6-0.8,0.9
		c-0.2,0.3-0.5,0.5-0.5,0.9c0,0.1-0.1,0.2-0.2,0.3c-0.7,0.8-1.2,1.7-1.7,2.6c-0.1,0.1-0.2,0.2-0.3,0.3c-0.3,0.3-0.4,0.6-0.3,1
		c0,0.1,0,0.3-0.1,0.4c-0.4,0.3-0.9,0.6-1.4,1c-0.1,0.1,0.1,0.5-0.3,0.6c0,0-0.1,0.1-0.1,0.1c0.2,0.5-0.2,0.6-0.5,0.7
		c0,0-0.1,0.1-0.1,0.1c-0.6,1.1-1.4,2-2,3.1c-0.3,0.5-0.5,1.1-0.7,1.6c-0.1,0.1,0,0.4,0.1,0.5c0.3,0.7,0.4,1.3-0.1,1.9
		c-0.1,0.1-0.1,0.3-0.1,0.4c0,0.2,0,0.4-0.1,0.6c-0.3,0.1-0.5,0-0.6,0.1c-0.2,0.1-0.4,0.4-0.2,0.7c0.1,0.3,0.1,0.6-0.2,0.9
		c-0.2,0.2-0.2,0.6-0.2,0.8c0,0.5,0,0.5-0.5,0.8c0.3,0.5-0.1,0.8-0.5,1.1c-0.3,0.2-0.4,0.4-0.5,0.7c0,0.2-0.2,0.4-0.4,0.6
		c-0.2,0.2-0.4,0.4-0.4,0.8c0,0.2-0.2,0.3-0.3,0.5c-0.2,0.2-0.2,0.4-0.2,0.6c0,0.6-0.3,1.1-0.7,1.6c-0.5,0.6-1,1.3-1.4,1.9
		c-0.2,0.2,0,0.5-0.2,0.7c-0.4,0.5-0.5,1.1-0.8,1.6c-0.1,0.3-0.3,0.6-0.5,0.8c-0.2,0.3-0.5,0.6-0.4,1c0,0.2-0.1,0.5-0.2,0.7
		c-0.2,0.4-0.3,0.8-0.6,1.1c-0.5,0.7-0.8,1.5-1.1,2.3c-0.3,0.8-0.7,1.5-1,2.3c-0.3,0.8-0.6,1.5-0.9,2.3c-0.3,0.8-0.6,1.6-1,2.4
		c-0.1,0.2-0.2,0.5-0.2,0.7c-0.1,0.8-0.4,1.5-0.8,2.1c-0.1,0.1-0.1,0.3-0.1,0.4c-0.1,0.2-0.2,0.5-0.3,0.6c-0.3,0.3-0.4,0.7-0.4,1.2
		c0,0.3-0.1,0.6-0.2,0.9c-0.4,0.8-0.7,1.6-0.9,2.5c-0.1,0.6-0.5,1.1-0.7,1.7c-0.2,0.6-0.4,1.2-0.6,1.8c-0.3,0.8-0.6,1.5-0.8,2.3
		c-0.2,0.7-0.6,1.3-0.8,2c0,0.1-0.1,0.2,0,0.3c0.1,0.5,0,0.9-0.2,1.3c0,0-0.1,0.1-0.1,0.1c0,0.6-0.4,1.1-0.5,1.7
		c-0.2,0.7-0.3,1.4-0.6,2c0,0.1-0.1,0.2,0,0.2c0.1,0.8-0.3,1.5-0.6,2.1c-0.3,0.7-0.5,1.4-0.6,2.2c0,0.5-0.2,1-0.2,1.5
		c0,0.9-0.5,1.8-0.3,2.7c0.1,0.3-0.1,0.7-0.1,1c-0.1,0.4-0.1,0.7-0.2,1.1c0,0.3-0.1,0.6-0.3,0.9c-0.2,0.2-0.2,0.6-0.1,0.9
		c0.1,0.8,0,1.6-0.1,2.3c0,0.3-0.1,0.6-0.1,0.9c-0.1,1-0.2,2-0.5,2.9c0,0.1-0.1,0.2,0,0.4c0.1,0.5-0.1,1-0.2,1.5
		c-0.1,0.5-0.2,1-0.3,1.5c-0.2,0.9-0.3,1.9-0.5,2.8c-0.1,0.5-0.2,0.9-0.3,1.4c-0.1,0.4-0.1,0.7-0.2,1.1c-0.1,0.4-0.2,0.7-0.4,1.1
		c0,0.1-0.1,0.3-0.1,0.4c-0.2,1.1-0.4,2.1-0.6,3.2c-0.1,0.7-0.4,1.3-0.4,2c0,1-0.4,1.9-0.3,2.9c0,0.1,0,0.3,0,0.4
		c0,0.4,0.1,0.5,0.5,0.5c0.4,0,0.7,0.2,0.6,0.7c-0.1,0.6-0.2,1.3-0.3,1.9c-0.1,0.6-0.3,1.2-0.5,1.7c0,0.1-0.1,0.1-0.1,0.2
		c-0.2,1.3-0.9,2.4-1.5,3.6c-0.2,0.4-0.2,0.8-0.4,1.2c-0.4,0.9-0.5,1.9-0.7,2.9c-0.1,0.6-0.1,1.2-0.2,1.8c0,0.1,0,0.2,0,0.2
		c-0.4,0.7-0.2,1.4-0.4,2.1c-0.2,0.6-0.1,1.2-0.3,1.8c-0.1,0.4-0.4,0.7-0.5,1c-0.1,0.2-0.2,0.4-0.3,0.7c-0.2,1.3-0.6,2.4-1.5,3.4
		c-0.2,0.2-0.4,0.4-0.3,0.7c0,0.1,0,0.2-0.1,0.2c-0.4,0.4-0.5,0.9-0.5,1.4c-0.1,0.4-0.3,0.8-0.6,1.1c-0.6,0.4-1,1-1.4,1.6
		c-0.3,0.5-0.5,1-0.8,1.5c-0.5,0.6-1,1.2-1.6,1.8c-0.7,0.7-1.3,1.4-1.2,2.5c0,0.4-0.3,0.6-0.7,0.8c0.2,0.2,0.3,0.3,0.5,0.5
		c-0.1,0.4-0.5,0.2-0.8,0.5c0.1,0.2,0.2,0.4,0.3,0.6c-0.3,0.6-0.6,1.2-0.9,1.7c0,0.1-0.1,0.1-0.2,0.2c-0.6,0.5-1.2,0.9-1.9,1.3
		c-0.4,0.2-0.8,0.5-1.1,0.8c-0.3,0.3-0.7,0.3-1,0.7c0,0.1-0.3,0-0.4,0c-0.2,0-0.3-0.2-0.4-0.2c-0.4-0.1-0.6-0.1-1,0.1
		c-0.5,0.4-1.2,0.5-1.8,0.7c-0.2,0.1-0.4,0.1-0.6,0.2c-0.1,0-0.1,0.1-0.2,0.1c-0.5-0.1-0.9,0.3-1.4,0.4c-0.7,0.2-1.4,0.3-2,0.7
		c-0.3,0.2-0.8,0.3-1.2,0.5c-0.2,0.1-0.5,0.1-0.7,0.2c-0.3,0.1-0.5,0.2-0.9,0.2c-0.6-0.1-0.8,0.3-0.8,0.9c0.1,0.5-0.2,0.8-0.4,1.2
		c-0.1,0.2-0.5,0.3-0.7,0.3c-0.5,0-0.8,0.2-1.2,0.5c-0.3,0.2-0.6,0.3-0.9,0.4c-0.8,0.2-1.7,0.3-2.6,0.5c-0.6,0.1-1.2,0.2-1.8,0.6
		c-0.3,0.2-0.8,0.2-1.2,0.2c-0.5,0-0.9,0-1.4-0.1c-0.7-0.1-1.1-0.5-1.2-1.2c-0.1-0.7-0.1-0.7-0.8-0.7c-0.3,0-0.7,0-1,0
		c-0.4,0-0.8,0-1.2-0.3c-0.3-0.2-0.6-0.2-0.9-0.2c-0.4,0.1-0.9-0.1-1.3-0.1c-0.4,0-0.7-0.4-1.1-0.7c-0.3-0.2-0.6-0.5-1-0.3
		c-0.2,0.1-0.6-0.2-0.8-0.3c-0.4-0.2-0.7-0.4-1.1-0.6c-0.2-0.1-0.5-0.2-0.8-0.2c-0.4,0-0.7,0-1-0.3c-0.1-0.1-0.1-0.1-0.2-0.1
		c-0.5,0.1-0.8-0.4-1.2-0.6c-0.2-0.1-0.4-0.2-0.6-0.2c-0.5-0.1-0.8,0.2-1,0.6c-0.1,0.3-0.2,0.7-0.5,0.7c-0.3-0.3-0.6-0.5-0.9-0.8
		c-0.3-0.3-0.3-0.7-0.4-1.1c0,0,0.1-0.2,0.2-0.2c0.1,0,0.2,0,0.4,0c0.7,0.2,1.4-0.7,1.3-1.5c0-0.1-0.2-0.2-0.3-0.3
		c-0.6-0.3-1.2-0.6-1.7-1c-0.3-0.2-0.6-0.3-0.9-0.2c-0.1,0-0.2,0.1-0.2,0.1c-0.2,0.5-0.7,0.7-0.9,1.1c0,0.1,0.1,0.2,0.1,0.3
		c0,0-0.1,0.1-0.1,0.1c-0.1-0.1-0.3-0.1-0.4-0.2c-0.3-0.5-0.7-0.8-1.2-1c-0.2-0.1-0.4-0.2-0.4-0.5c0-0.9-0.6-1.6-1.1-2.2
		c-0.6-0.7-1-1.4-1.4-2.2c-0.2-0.5-0.5-1-0.8-1.5c-0.4-0.6-0.6-1.3-1.1-1.8c-0.3-0.3-0.5-0.7-0.8-1.1c-0.1-0.1-0.1-0.3-0.2-0.4
		c-0.2-0.3-0.3-0.7-0.5-1c-0.2-0.3-0.3-0.6-0.4-1.1c0-0.8-0.3-1.5-0.4-2.3c-0.1-0.2-0.3-0.5-0.3-0.7c-0.1-0.5-0.3-1.1-0.3-1.6
		c0-0.8-0.3-1.5-0.5-2.2c0-0.1,0.1-0.3,0.1-0.5c0-0.2,0.1-0.4,0-0.5c-0.3-0.4-0.4-0.8-0.2-1.3c0,0,0-0.1,0-0.1c0,0,0-0.1-0.1-0.1
		c-0.7,0-0.8,0-0.8-0.8c0-0.3,0-0.5,0-0.8c0.1-0.4,0.1-0.7-0.2-0.9c-0.1-0.1-0.1-0.3,0-0.4c0.1-0.3,0.1-0.6,0-0.8
		c-0.2-0.3-0.1-0.5,0.1-0.8c0.3-0.4,0.5-0.8,0.3-1.2c0-0.1,0-0.3,0-0.4c0-0.3,0-0.5-0.3-0.7c-0.2-0.1-0.3-0.3-0.3-0.6
		c0-0.5,0.1-1,0.1-1.5c0-0.1,0.2-0.2,0.3-0.3c0.5-0.4,0.6-0.9,0.2-1.4c-0.1-0.1-0.1-0.2-0.2-0.2c-0.6-0.3-0.3-0.8-0.3-1.3
		c0-0.3,0.1-0.5,0.1-0.8c0-0.2,0.1-0.3,0.1-0.5c0-0.1,0.1-0.1,0.1-0.2c0.2-0.7,0.4-1.4,0.6-2.1c0-0.1,0-0.2,0.1-0.2
		c0.4-0.5,0.5-1.1,0.8-1.6c0.3-0.5,0.5-1.1,0.4-1.7c0-0.4,0.2-0.7,0.3-1.1c0.1-0.2,0.1-0.4,0.2-0.6c0.1-0.7,0.2-1.4,0.3-2.1
		c0.1-0.3,0.1-0.7,0.5-0.9c0.1,0.5,0.3,0.8,0.2,1.3c-0.1,0.4,0.2,0.5,0.4,0.6c0.2,0.2,0.4,0,0.6-0.1c0.1-0.1,0.2-0.3,0.2-0.4
		c0-0.8,0.6-1.4,0.5-2.2c0-0.1,0-0.2,0.1-0.3c0.6-0.6,0.8-1.5,1-2.3c0.1-0.4,0.2-0.7,0.5-0.9c0.4-0.4,0.5-0.9,0.6-1.4
		c0-0.3,0.1-0.5,0.4-0.7c0.5-0.4,1-0.8,1.3-1.4c0.3-0.6,0.9-1,1.3-1.6c0.3-0.4,0.7-0.7,1-1.1c0.3-0.4,0.7-0.8,1.1-1.1
		c0.2-0.2,0.4-0.5,0.6-0.7c0.5-0.5,0.9-1,1.4-1.5c0.1-0.2,0.3-0.4,0.3-0.6c0-0.2,0.2-0.3,0.3-0.5c0.2-0.1,0.4-0.2,0.5-0.4
		c0.2-0.8,0.9-1.2,1.4-1.8c0.2-0.2,0.4-0.4,0.6-0.6c0.2-0.1,0.3-0.3,0.5-0.4c0.8-0.3,1.3-0.8,1.7-1.4c0.3-0.3,0.4-0.8,0.7-1.1
		c0.4-0.4,0.9-0.8,1.3-1.2c0.2-0.2,0.4-0.3,0.6-0.5c0.3-0.3,0.6-0.6,0.8-0.9c0.2-0.3,0.4-0.6,0.4-0.9c0-0.3,0.2-0.4,0.4-0.5
		c0.3-0.1,0.5-0.3,0.6-0.6c0.1-0.4,0.5-0.4,0.7-0.7c0.1-0.1,0.2-0.1,0.3-0.2c0.4-0.6,0.9-1,1.4-1.5c0.3-0.2,0.5-0.5,0.7-0.8
		c0.4-0.6,0.9-1.1,1.4-1.6c0.1-0.1,0.2-0.1,0.3-0.2c1-0.4,1.7-1,2.4-1.8c0.5-0.5,0.9-1.1,1.3-1.6c0.3-0.4,0.6-0.7,1.1-0.9
		c0.2-0.1,0.4-0.2,0.5-0.4c0.6-0.9,1.6-1.1,2.5-1.5c0.1,0,0.2-0.1,0.2,0c0.5,0.1,0.8-0.3,1.2-0.5c0.6-0.5,1.1-1,1.8-1.3
		c0.3-0.1,0.5-0.4,0.8-0.6c0.2-0.2,0.5-0.3,0.6-0.4c0.3-0.3,0.5-0.7,0.7-1.1c0.1-0.2,0.2-0.5,0.3-0.7c0.1-0.2,0.2-0.4,0.2-0.5
		c0.1-0.5,0.5-0.9,0.7-1.3c0.4-0.6,1.1-0.8,1.8-1.1c0.4-0.2,0.8-0.4,1-0.8c0.3-0.5,0.8-0.9,1.3-1.2c0.6-0.4,1.3-0.7,1.8-1.3
		c0.4-0.5,1-0.8,1.4-1.3c0.1-0.1,0.2-0.2,0.3-0.2c0.5-0.1,0.8-0.5,1.3-0.7c0.1,0,0.2-0.1,0.3-0.2c0.7-0.6,1.3-1.1,2-1.7
		c0.6-0.5,1.1-1.2,1.6-1.7c0.1-0.1,0.2-0.2,0.3-0.3c0.4-0.2,0.7-0.5,1-0.8c0.4-0.4,0.9-0.6,1.3-0.9c0.3-0.2,0.5-0.5,0.7-0.7
		c0.3-0.3,0.6-0.6,1-0.8c0.4-0.2,0.7-0.7,1-1c0.8-0.7,1.5-1.5,2.3-2.2c0.5-0.5,1.1-0.9,1.6-1.4c0.1-0.1,0.2-0.1,0.2-0.2
		c0.1-0.5,0.5-0.8,0.9-1c0.2-0.1,0.4-0.2,0.5-0.4c0.5-1,1.6-1.3,2.2-2.2c0.1-0.2,0.3-0.3,0.5-0.4c0.1-0.1,0.2-0.1,0.2-0.2
		c0.1-0.6,0.7-0.7,0.9-1.1c0-0.1,0.1-0.2,0.2-0.2c0.7-0.6,1.5-1.2,2.1-1.8c0.6-0.7,1.4-1.2,2-1.9c0.6-0.6,1.3-1.3,1.9-1.9
		c0.5-0.5,0.9-1,1.4-1.6c0.3-0.4,0.7-0.7,0.7-1.3c0-0.1,0-0.2,0.1-0.3c0.5-0.5,0.8-1.2,1.5-1.6c0.5-0.3,0.8-0.7,1-1.2
		c0.3-0.4,0.6-0.8,1-1.1c0.7-0.5,1.4-1,1.9-1.7c0.1-0.1,0.2-0.2,0.3-0.2c0.2-0.2,0.5-0.4,0.7-0.7c0.4-0.5,0.7-1.1,1.2-1.6
		c0.3-0.3,0.5-0.6,0.9-0.8c0.6-0.3,1.3-0.6,1.9-0.9c0,0,0,0,0.1,0c0.7-0.8,1.7-1.2,2.3-2.1c0.3-0.5,0.8-1,1.4-1.3
		c1.1-0.5,1.9-1.4,2.7-2.3c0.4-0.5,0.9-1,1.3-1.4c0.4-0.4,0.8-0.8,1.1-1.3c0,0,0.1-0.1,0.1-0.2c0.5-0.5,1-1,1.6-1.5
		c0.4-0.4,1.4-1.8,1.6-2.4c0.4,0.1,0.6-0.1,0.8-0.4c0-0.1,0.1-0.2,0.1-0.2c0.5-0.4,1.1-0.9,1.6-1.3
		C121.9,24.6,122.1,24.5,122.2,24.3L122.2,24.3z M55.1,93.4c0.5-0.2,0.8-0.5,1-1c0.2-0.4-0.1-0.8-0.5-0.8c-0.7,0-1.3,0.5-2,0.6
		c-0.1,0-0.1,0.1-0.1,0.1c-0.3,0.3-0.6,0.6-0.9,0.9c-0.1,0.1-0.2,0.2-0.3,0.3c-0.5,0.2-0.7,0.6-0.9,1.1c-0.1,0.3-0.4,0.5-0.4,0.8
		c0,0.1-0.1,0.2-0.2,0.3c-0.3,0.3-0.7,0.5-1,0.8c-0.5,0.5-0.9,0.9-1.3,1.4c-0.1,0.2-0.3,0.3-0.5,0.4c-0.6,0.5-1.3,1-1.9,1.6
		c-0.6,0.6-1,1.4-1.8,1.9c-0.2,0.1-0.4,0.3-0.6,0.5c-0.5,0.5-0.9,1-1.4,1.5c-0.2,0.2-0.4,0.5-0.7,0.7c-0.3,0.4-0.6,0.9-1,1.1
		c-0.6,0.3-1.1,0.7-1.5,1.3c0,0-0.1,0-0.1,0.1c-0.2,0.3-0.6,0.5-0.7,0.8c-0.2,0.4-0.4,0.8-0.6,1.2c-0.2,0.2-0.2,0.4-0.1,0.7
		c0.1,0.1,0,0.4,0,0.4c-0.4,0.1-0.5,0.6-0.7,0.9c-0.3,0.5-0.7,0.9-1.1,1.2c-0.2,0.1-0.2,0.4-0.3,0.6c-0.1,0.2-0.1,0.3-0.3,0.5
		c-0.4,0.4-0.8,0.9-1.2,1.3c-0.1,0.1-0.2,0.1-0.3,0.1c-0.5,0.1-0.8,0.3-1.1,0.7c-0.4,0.5-0.6,1.2-1.2,1.6c0,0,0,0,0,0.1
		c-0.2,0.4-0.5,0.9-0.7,1.3c-0.3,0.5-0.7,0.9-1.1,1.4c-0.3,0.4-0.7,0.6-1,1c-0.3,0.4-0.6,0.9-0.9,1.4c-0.1,0.1-0.2,0.3-0.3,0.4
		c-0.5,0.4-0.8,0.8-0.9,1.5c-0.1,0.6-0.4,1-0.9,1.3c-0.6,0.3-1.1,0.8-1.2,1.6c0,0.2-0.2,0.4-0.3,0.5c-0.5,0.7-0.8,1.5-0.9,2.4
		c-0.1,0.3-0.1,0.5-0.3,0.8c-0.1,0.1-0.2,0.3-0.2,0.4c0.1,0.3,0,0.5-0.1,0.7c-0.1,0.1-0.1,0.3,0,0.5c0.1,0.4,0.2,0.8-0.1,1.2
		c0,0.1,0,0.2,0,0.2c0,0.2,0,0.5,0.1,0.7c0,0.3,0,0.6,0.1,0.8c0.1,0.4,0.1,0.7-0.2,1c-0.1,0.1-0.2,0.2-0.1,0.3
		c0.1,0.4-0.2,0.7-0.4,1c0.3,0.8,0.3,2.1,0.1,2.5c-0.3,0-0.3-0.2-0.4-0.4c0-0.2,0-0.4-0.1-0.7c0-0.3-0.3-0.5-0.5-0.5
		c-0.3,0.1-0.7,0.2-0.8,0.5c-0.1,0.3-0.4,0.5-0.6,0.8c-0.2,0.5-0.5,1-0.2,1.5c0.1,0.1,0,0.3-0.1,0.4c0,0.1-0.1,0.2-0.1,0.3
		c0.1,0.3-0.1,0.5-0.3,0.7c-0.3,0.2-0.3,0.4-0.2,0.7c0.1,0.2,0.1,0.4,0.1,0.6c-0.1,0.5,0,1.1,0.1,1.6c0,0.4,0.1,0.7,0.2,1.1
		c0.1,0.2,0.1,0.5,0.2,0.7c0.2,0.4,0.3,0.7,0,1.1c-0.4,0.6-0.2,1.3,0.5,1.7c0.7,0.3,1.3,0.7,1.7,1.4c0.1,0.2,0.2,0.4,0.4,0.6
		c0.1,0.1,0.2,0.2,0.4,0.4c0.1-0.3,0.1-0.5,0.1-0.6c0-0.2-0.1-0.3-0.1-0.5c0.6-0.1,0.7,0,0.8,0.5c0.1,0.4,0.2,0.8,0.6,1
		c0.3,0.2,0.4,0.4,0.4,0.7c0,0.6,0.2,1.1,0.9,1.3c0.1,0,0.1,0.1,0.2,0.1c0.5,0.3,0.5,0.7,0,1.1c-0.1,0.1-0.3,0.3-0.3,0.4
		c0,0.4,0.1,0.8,0.2,1.2c0.1,0.4,0.4,0.9,0.5,1.3c0.3,0.9,0.4,1.8,1,2.6c0,0,0,0.1,0,0.2c-0.1,0.4,0.2,0.7,0.5,0.9
		c0.6,0.3,1.1,0.6,1.6,0.8c0.1,0.3,0.1,0.6,0.2,0.8c0.4,0.5,0.8,1.1,1.4,1.4c0.2,0.1,0.4,0.3,0.6,0.4c0.3,0.4,0.2,0.8-0.2,1
		c-0.7,0.3-1.2,0.1-1.4-0.7c-0.1-0.4-0.3-0.6-0.7-0.7c-0.3-0.1-0.4-0.2-0.6-0.5c-0.1-0.2-0.1-0.4-0.3-0.5c-0.3-0.2-0.5-0.5-0.5-0.9
		c0-0.2-0.2-0.4-0.4-0.3c-0.3,0.1-0.5,0-0.7-0.1c-0.3-0.1-0.7-0.3-1.1,0c0.2,0.3,0.3,0.5,0.4,0.7c0.3,0.6,0.5,1.2,0.9,1.7
		c0.2,0.3,0.5,0.5,0.7,0.8c0.4,0.4,0.9,0.7,1.3,1.1c0.3,0.2,0.5,0.4,0.8,0.4c0.4,0.1,0.8,0.5,1.3,0.4c0,0,0,0,0.1,0
		c0.4,0.2,0.7,0.5,1.1,0.7c0.5,0.3,1,0.7,1.7,0.6c0.1,0,0.2,0,0.2,0.1c0.4,0.2,0.7,0.4,1.1,0.5c0.5,0.2,1.1,0.4,1.6,0.5
		c0.6,0.1,1.2,0.2,1.9,0.2c0.4,0,0.8-0.1,1.2,0.1c0,0,0.1,0,0.2,0c0.8-0.3,1.7-0.5,2.5-0.8c0.4-0.1,0.8-0.2,1.1,0.1
		c0.1,0.1,0.3,0.1,0.4,0.1c0.2,0,0.3,0,0.5,0c0.2,0.1,0.4,0.1,0.5-0.1c0.3-0.3,0.6-0.3,0.9-0.1c0.3,0.2,0.5,0.2,0.8,0.1
		c0.1-0.1,0.3,0,0.5,0c0.1,0,0.3,0.1,0.4,0c0.7-0.3,1.4-0.3,2.1,0c0.1,0,0.2,0,0.2,0c0.3,0,0.6,0.1,0.8,0.3c0.1,0.1,0.3,0.3,0.4,0.3
		c0.3-0.1,0.5,0,0.7,0.1c0.2,0,0.4,0,0.6-0.1c0.3-0.2,0.6-0.2,0.9-0.1c0.1,0,0.2,0.1,0.2,0.1c0.5-0.2,0.9,0,1.2,0.3
		c0.2-0.2,0.4-0.3,0.6-0.4c0.1-0.1,0.3-0.1,0.4-0.1c0.6,0,1.2,0.1,1.7,0c0.3,0,0.6-0.1,0.9,0.1c0.3,0.1,0.5,0,0.5-0.3
		c0-0.1,0-0.2,0-0.4c-0.1-0.3,0.1-0.4,0.3-0.6c0.4-0.2,0.7-0.4,1.1-0.5c0.4-0.1,0.9-0.1,1.2-0.5c0.1,0.7-0.4,1.1-1.6,1.8
		c0.1,0,0.2,0.1,0.2,0.1c0.3,0,0.5,0,0.7,0.2c0.2,0.2,0.4,0.3,0.7,0.1c0.9-0.5,1.9-1,2.8-1.6c0.2-0.1,0.3-0.6,0.2-0.8
		c-0.1-0.2-0.4-0.3-0.8-0.1c-0.2,0.1-0.4,0.2-0.6,0.3c-0.3,0.2-0.6,0.2-1-0.1c0.1-0.1,0.1-0.2,0.1-0.3c0.3-0.3,0.7-0.6,1-1
		c0.4-0.4,0.8-0.6,1.4-0.6c0.5,0,1.1-0.1,1.6-0.2c0.5-0.1,0.9-0.4,1.3-0.6c0.2-0.1,0.4-0.4,0.6-0.5c0.7-0.5,1.4-0.9,1.8-1.8
		c0.2-0.5,0.5-0.9,0.9-1.3c0.5-0.6,1-1.2,1.4-2c0-0.1,0.1-0.1,0.1-0.2c0.2-0.3,0.4-0.6,0.5-0.9c0.1-0.5,0.3-1,0.6-1.3
		c0.6-0.7,1.1-1.3,1.5-2.1c0.3-0.7,0.7-1.4,1-2.1c0.1-0.3,0.3-0.6,0.4-0.9c0.2-0.5,0.4-1,0.7-1.5c0.3-0.7,0.5-1.5,0.9-2.1
		c0.1-0.1,0.1-0.2,0.1-0.3c-0.1-0.4,0.1-0.8,0.2-1.1c0.1-0.6,0.2-1.2,0.5-1.7c0.3-0.7,0.4-1.4,0.4-2.2c0-0.6,0.1-1.3,0.3-1.9
		c0.2-0.7,0.2-1.4,0.6-2c0-0.1,0.1-0.2,0.1-0.2c-0.3-0.5,0-0.9,0.1-1.3c0.1-0.8,0.3-1.5,0.5-2.2c0.2-0.6,0.3-1.3,0.9-1.7
		c0.2-0.1,0.2-0.3,0.2-0.5c0-0.7-0.3-1.3,0.1-2c0,0,0,0,0-0.1c-0.1-0.4,0-0.9,0.1-1.3c0.1-0.5,0.1-1,0.1-1.4c0-0.5,0.1-1.1,0.1-1.6
		c0,0,0-0.1,0-0.1c0.3-0.3,0.2-0.7,0.2-1.1c0-0.2,0-0.5,0.1-0.7c0-0.4,0.1-0.8,0.2-1.2c0-0.2,0-0.4,0.1-0.5c0-0.4,0-0.8,0.1-1.3
		c0.1-0.6,0-1.2,0.3-1.8c0.2-0.4,0.1-0.9,0.3-1.4c0-0.1,0-0.2-0.1-0.2c0-0.1,0-0.2,0-0.4c0.1-0.8,0.3-1.5,0.4-2.3
		c0.1-0.9,0.4-1.7,0.4-2.6c0-0.8,0.2-1.5,0.3-2.3c0-0.1,0-0.1,0.1-0.2c0.2-0.4,0.1-0.9,0.3-1.2c0.2-0.4,0.4-0.8,0.6-1.2
		c0.1-0.1,0.1-0.2,0.1-0.3c0.1-0.6,0.1-1.2,0.1-1.8c0-0.1,0-0.2,0.1-0.3c0.2-0.4,0.4-0.8,0.7-1.1c0.3-0.4,0.2-0.8,0.2-1.2
		c0-0.3,0-0.5,0-0.8c0-0.4,0-0.8,0.1-1.1c0-0.2,0-0.4,0-0.6c0.2-0.6,0.3-1.1,0.1-1.7c0-0.2,0-0.4,0-0.6c0.1-0.3,0.3-0.6,0.5-1
		c0-0.1,0.1-0.2,0.1-0.3c-0.1-0.3-0.2-0.7-0.3-1c-0.2-0.3-0.2-0.6-0.1-0.9c0.4-1,0.4-2.1,0.5-3.1c0.1-0.6,0.3-1.1,0.4-1.7
		c0.1-0.6,0.5-1.1,0.4-1.8c-0.1-0.4-0.1-0.8,0-1.1c0.1-0.5,0.4-1,0.7-1.3c0.4-0.5,0.6-1.1,1-1.6c0.1-0.1,0.1-0.3,0.2-0.5
		c0.2-1.3,0.5-2.6,1.3-3.7c0,0,0.1-0.1,0.1-0.2c0-0.6,0.2-1.1,0.4-1.6c0.2-0.4,0.3-0.8,0.5-1.2c0.2-0.4,0.4-0.8,0.5-1.2
		c0.1-0.3,0.2-0.6,0.3-0.8c0.2-0.4,0.4-0.8,0.5-1.2c0.2-0.7,0.6-1.3,1-1.9c0.2-0.2,0.3-0.4,0.3-0.6c0-0.1,0.1-0.2,0.1-0.3
		c0.1-0.2,0.2-0.4,0.2-0.6c0.2-0.6,0.4-1.1,0.7-1.6c0.3-0.4,0.6-0.7,0.7-1.2c0.1-1,0.3-1.9,1.1-2.6c0,0,0-0.1,0-0.1
		c0-0.5,0.2-0.9,0.5-1.3c0.1-0.2,0.3-0.4,0.3-0.7c0.2-0.7,0.3-1.5,0.9-2c0,0,0.1-0.1,0.1-0.2c0.4-0.7,0.9-1.4,1-2.3
		c0-0.1,0.1-0.2,0.1-0.3c0.4-0.4,0.4-0.9,0.6-1.4c0.2-0.5,0.2-1,0.7-1.4c0.1,0,0.1-0.1,0.1-0.2c0.3-0.6,0.6-1.2,0.9-1.8
		c0.2-0.4,0.5-0.8,0.6-1.3c0.1-0.6,0.5-1.1,0.8-1.6c0.2-0.4,0.5-0.6,0.7-1c0.4-0.7,0.8-1.3,0.7-2.2c-0.1-0.6,0.1-1,0.5-1.5
		c0.4-0.5,0.9-0.9,1-1.5c0-0.2,0.2-0.5-0.1-0.6c-0.3-0.2-0.5,0-0.6,0.2c-0.2,0.2-0.4,0.5-0.6,0.7c-0.6,0.7-0.8,1.6-1.6,2
		c0,0-0.1,0.1-0.1,0.2c-0.2,0.3-0.5,0.6-0.7,0.8c-0.2,0.3-0.5,0.5-0.6,0.8c-0.3,0.4-0.5,0.9-0.7,1.3c0,0.1-0.1,0.2-0.2,0.2
		c-0.4,0-0.4,0.4-0.5,0.6c-0.2,0-0.4,0.1-0.5,0.1c-0.2,0.5-0.5,0.8-0.9,1c-0.4,0.3-0.9,0.6-1.3,0.9c-0.3,0.3-0.6,0.6-0.8,1
		c-0.1,0.2-0.3,0.4-0.5,0.5c-0.2,0.1-0.5,0.3-0.6,0.4c-0.1,0.5-0.4,0.7-0.8,0.8c-0.5,0.2-0.7,0.7-1,1.1c-0.2,0.3-0.4,0.6-0.7,0.8
		c-0.3,0.2-0.5,0.4-0.7,0.7C93,59,93,59.1,92.9,59.2c-0.8,0.8-1.6,1.7-2.5,2.5c-0.2,0.2-0.5,0.3-0.8,0.5c-0.4,0.3-0.7,0.6-1,0.9
		c-0.4,0.3-0.8,0.6-1,1.1c0,0.1-0.1,0.2-0.2,0.2c-0.6,0.5-1.2,1.1-1.8,1.6c-0.3,0.3-0.6,0.5-0.6,0.9c-0.3,0.2-0.6,0.4-0.8,0.6
		c-0.5,0.4-1.1,0.9-1.6,1.3c-0.2,0.2-0.4,0.4-0.6,0.7c-0.7,0.6-1.3,1.2-2,1.8c-0.1,0.1-0.2,0.2-0.3,0.3c-0.1,0.2-0.3,0.3-0.4,0.5
		c-0.2,0.2-0.4,0.4-0.6,0.7c-0.2,0.3-0.4,0.5-0.7,0.6c-0.7,0.3-1.2,0.8-1.7,1.4c-0.2,0.2-0.3,0.4-0.6,0.5c-0.5,0.2-0.9,0.6-1.2,1
		c-0.3,0.4-0.7,0.8-1.2,1c-0.1,0.1-0.3,0.1-0.4,0.2c-1.2,1.1-2.4,2.2-3.6,3.3c-0.7,0.7-1.4,1.3-2.2,1.9c-0.4,0.2-0.7,0.5-1,0.8
		c-0.2,0.2-0.4,0.4-0.6,0.5c-0.1,0.1-0.3,0.2-0.3,0.3c-0.2,0.6-0.6,1-1.1,1.3c-0.5,0.3-1,0.6-1.6,0.9c-0.3,0.1-0.5,0.5-0.7,0.8
		c-0.2,0.3-0.4,0.4-0.8,0.4c-0.2,0-0.5,0.1-0.7,0.2c-0.5,0.3-0.9,0.6-1.5,0.5c-0.2,0-0.3,0.1-0.5,0.2c-0.5,0.3-0.7,0.8-0.9,1.3
		c-0.1,0.3-0.3,0.5-0.6,0.6c-0.1,0-0.1,0.1-0.2,0.1c-0.1,0.3-0.2,0.5,0,0.7c0.1,0,0.1,0,0.2-0.1c0.5-0.6,1.2-0.7,1.8-1
		c0.1,0,0.3,0,0.4,0.1c0.2,0.3-0.1,1.2-0.4,1.3c-0.6,0.1-1.1,0.3-1.5,0.9c0,0-0.1,0-0.1,0.1c-0.5,0.3-1,0.6-1.4,1
		C55.5,93.8,55.3,93.8,55.1,93.4z M67.6,79.9c0.2,0,0.3-0.1,0.4-0.1c0.6-0.2,1.1-0.4,1.6-0.8c0.5-0.5,1-0.9,1.5-1.4
		c0.2-0.1,0.3-0.3,0.1-0.5c-0.1-0.2-0.3-0.4-0.6-0.3c-0.5,0.2-1,0.3-1.3,0.7c-0.1,0.1-0.2,0.2-0.3,0.3c-0.5,0.5-1.1,0.9-1.6,1.4
		c-0.1,0.1-0.1,0.3,0,0.4C67.4,79.8,67.6,79.8,67.6,79.9z M96.6,75.5c0.2-0.2,0.4-0.3,0.4-0.4c0.1-0.4,0.2-0.8,0.2-1.2
		c0-0.3-0.2-0.5-0.5-0.3c-0.1,0.1-0.3,0.2-0.4,0.3c-0.2,0.2-0.3,0.4-0.4,0.6c-0.2,0.2-0.3,0.5-0.1,0.8c0.2,0.3,0.2,0.7,0,1
		c0,0.1,0,0.2,0,0.3C96.2,76.2,96.7,76.1,96.6,75.5z M92.9,86.2c0-0.3-0.2-0.5-0.5-0.5c-0.2,0-0.6,0.4-0.7,0.7
		c0,0.3,0.3,0.6,0.6,0.6C92.6,86.9,92.9,86.6,92.9,86.2z M93.9,82.4c0,0.2,0,0.3,0,0.5C94.1,82.7,94.1,82.6,93.9,82.4z"/>
	<path id="XMLID_793_" d="M150.5,185.2c0.3-0.1,0.5-0.3,0.3-0.7c-0.2-0.4,0.1-0.6,0.5-0.7c-0.4-0.5-0.2-0.9-0.3-1.4
		c0-0.6-0.1-1.2-0.2-1.8c0-0.1-0.2-0.2-0.2-0.3c-0.2-0.2-0.4-0.4-0.6-0.6c-0.1-0.1-0.2-0.2-0.3-0.2c-0.4,0-0.6-0.4-0.9-0.6
		c-0.4-0.3-0.4-0.8-0.5-1.2c0-0.2-0.1-0.5-0.1-0.7c0-0.1-0.1-0.2,0-0.4c0-0.5,0.1-1-0.2-1.5c0,0,0-0.1,0.1-0.1
		c0.3,0.1,0.5,0.3,0.8,0.4c0.4,0.2,0.6,0.1,0.7-0.4c0.1-0.1,0.1-0.3,0.1-0.5c0-0.6,0-1.2-0.3-1.7c-0.1-0.2,0-0.4,0-0.6
		c0-0.2-0.1-0.3-0.3-0.3c-0.5,0.1-0.8,0.6-0.8,1.1c0,0.3,0,0.5,0.1,0.8c0,0.2,0,0.4-0.3,0.5c-0.4-0.5-0.7-0.9-0.7-1.5
		c0-0.4-0.2-0.8-0.2-1.1c0-0.3,0-0.6,0.1-0.9c0-0.2,0-0.4,0-0.6c-0.1-0.5-0.2-1,0.1-1.4c0.1-0.2,0.1-0.3-0.1-0.5
		c-0.6-0.6-0.6-1.3-0.4-2c0.1-0.5,0.1-1.1-0.1-1.5c-0.3-1-0.5-1.9-0.3-2.9c0-0.1-0.1-0.3-0.2-0.4c-0.3-0.3-0.4-0.6-0.5-1
		c-0.1-1-0.2-2-0.3-3c0-0.1,0-0.1,0-0.2c-0.2-0.4-0.3-0.8-0.2-1.2c0.1-0.6-0.3-1.2-0.4-1.7c-0.1-0.4-0.3-0.8-0.4-1.2
		c-0.1-0.6-0.2-1.3-0.2-1.9c0-0.6,0-1.2-0.1-1.8c0-0.2,0-0.3,0-0.5c-0.2-0.6-0.2-1.3-0.2-2c0-0.4-0.1-0.8-0.2-1.2
		c-0.2-0.9-0.4-1.7-0.5-2.6c-0.1-0.7-0.2-1.3-0.3-2c-0.2-0.7-0.2-1.3-0.2-2c0-0.8-0.1-1.5-0.3-2.2c-0.1-0.4-0.1-0.9-0.1-1.3
		c0-0.2,0-0.4-0.1-0.6c-0.5-0.7-0.5-1.4-0.3-2.1c0.1-0.7-0.1-1.2-0.4-1.7c-0.1-0.3-0.4-0.3-0.6-0.1c-0.3,0.2-0.6,0.5-0.7,0.9
		c-0.2,0.5-0.2,1-0.7,1.4c0,0-0.1,0.1-0.1,0.1c-0.2,0.7-0.7,1.2-1,1.7c-0.1,0.2-0.3,0.3-0.4,0.4c-0.5-0.4-0.5-0.4-0.2-1.3
		c-0.1-0.1-0.2-0.1-0.4-0.2c-0.1,0-0.3-0.1-0.5-0.1c-0.1,0.2-0.3,0.3-0.4,0.5c-0.3,0.5-0.6,1-0.9,1.5c-0.2,0.4-0.4,0.7-0.6,1.1
		c-0.3,0.5-0.7,0.9-0.9,1.4c-0.5,1.1-1.5,1.9-2.2,2.9c-0.1,0.1-0.1,0.2-0.2,0.4c-0.3,0.4-0.5,0.7-0.8,1.1c-0.1,0.1-0.3,0.2-0.4,0.4
		c-0.8,1.2-1.8,2.3-2.3,3.6c-0.2,0.5-0.6,0.9-1.1,1.3c-0.5,0.4-1.1,0.9-1.5,1.5c-0.3,0.7-0.8,1.3-1.2,2c-0.2,0.3-0.4,0.5-0.7,0.7
		c-0.5,0.4-0.8,0.9-1.4,1.2c-0.1,0.1-0.2,0.3-0.3,0.5c-0.2,0.4-0.4,0.8-0.7,1c-0.4,0.3-0.8,0.8-1.3,1c-0.1,0-0.2,0.2-0.2,0.3
		c-0.5,0.7-1,1.4-1.6,2.1c-0.2,0.2-0.4,0.3-0.6,0.6c-0.5,0.9-1.3,1.6-2.1,2.2c-0.4,0.3-0.8,0.6-1.2,1c-0.1,0.1-0.3,0.2-0.3,0.3
		c-0.4,0.6-1,1-1.5,1.5c-0.7,0.6-1.3,1.3-2,1.9c-0.1,0.1-0.2,0.2-0.2,0.3c-0.1,0.4-0.4,0.6-0.7,0.7c-0.5,0.1-0.9,0.3-1,0.9
		c0,0.1-0.1,0.2-0.1,0.2c-0.4,0.3-0.7,0.8-1.2,1c-0.3,0.1-0.5,0.5-0.8,0.6c-0.4,0.3-0.7,0.5-1.1,0.7c-0.6,0.3-1.1,0.7-1.5,1.2
		c-0.3,0.4-0.6,0.8-0.9,1.1c-0.1,0.2-0.2,0.4-0.3,0.5c-0.1,0.2-0.3,0.4-0.5,0.6c-0.4,0.3-0.7,0.7-0.9,1.1c-0.3,0.5-0.2,1-0.4,1.5
		c0.4,0.2,0.4,0.2,1.2-0.5c0.3,0.1,0.3,0.3,0.3,0.5c-0.1,0.4-0.2,0.7-0.6,0.9c-0.3,0.1-0.6,0.3-0.5,0.7c0,0.1,0,0.1,0,0.2
		c-0.5,0.7-0.5,1.6-1.1,2.2c-0.3,0.3-0.4,0.8-0.6,1.2c-0.1,0.1-0.1,0.2-0.2,0.4c-0.2-0.1-0.4-0.2-0.5-0.3c-0.2-0.1-0.4-0.1-0.5,0.1
		c-0.1,0.1-0.2,0.3-0.3,0.4c-0.3,0.4-0.6,0.8-0.9,1.2c-0.1,0.2-0.5,1.3-0.5,1.6c-0.1,0.7-0.1,1.3-0.3,2c-0.1,0.4-0.3,0.7-0.5,1
		c-0.2,0.4-0.2,0.9-0.1,1.3c0,0.1,0.1,0.2,0,0.4c-0.1,0.5-0.2,1-0.3,1.5c0,0,0,0.1,0,0.1c0,0.7,0,1.4,0.1,2.1c0,0.2,0.2,0.5,0.4,0.7
		c0.1,0.2,0.3,0.3,0.4,0.5c0.1,0,0.3,0,0.5,0.1c-0.4,0.2-0.7,0.5-0.6,1.1c-0.4-0.1-0.8-0.2-1.2,0.1c-0.2,0.2-0.4,0.3-0.5,0.6
		c0,0.2-0.1,0.5,0,0.7c0,0.6,0,1.3,0.1,1.9c0,0.4,0,0.7-0.4,0.9c0.2,0.4,0.3,0.7,0.5,1c0.6-0.1,1.2,0,1.7,0.2
		c0.1,0.2-0.3,0.5,0.1,0.6c0.1,0,0.3-0.2,0.5-0.4c0.1-0.2,0.3-0.3,0.4-0.6c-0.6-0.3-0.6-0.7-0.5-1.3c0.1-0.4-0.1-0.8,0.1-1.2
		c0.1-0.1-0.1-0.3-0.2-0.6c0.6,0.4,1.1,0.2,1.6,0.1c0.1,0,0.3,0.1,0.3,0.2c0,0.1,0,0.3-0.1,0.4c-0.1,0.2-0.4,0.3-0.4,0.4
		c0,0.3,0.1,0.6,0.2,0.9c0.1,0.4,0.4,0.7,0.2,1.1c0,0.1,0.1,0.3,0.2,0.4c-0.3,0.8-0.4,0.9,0.2,1.6c0.3,0.4,0.2,0.7,0,1.1
		c-0.1,0.2-0.3,0.4-0.4,0.7c-0.3,0.6-0.1,1.2,0.5,1.3c0.4,0.1,0.6,0.3,0.8,0.6c0.2,0.3,0.2,0.5,0.1,0.9c-0.2,0.8,0,1.3,0.6,1.8
		c0.3,0.2,0.7,0.5,0.9,0.9c0.2,0.4,0.3,0.8,0.3,1.2c0,0.3,0,0.5,0.2,0.7c0.1,0.2,0.2,0.4,0.3,0.6c0.6-0.3,0.9,0.1,1.2,0.5
		c0.1,0.1,0.3,0.2,0.4,0.3c0.4,0.3,0.9,0.5,1,0.9c-0.3,0.3-0.5,0.6-0.7,0.9c-0.3-0.3-0.6-0.5-0.9-0.8c-0.3-0.3-0.6-0.3-1-0.2
		c-0.3,0.1-0.6,0.1-0.9,0.1c0,0,0-0.1-0.1-0.1c0.1-0.1,0.3-0.2,0.4-0.3c0.5-0.3,0.5-0.5,0.1-1c-0.1,0.1-0.2,0.1-0.4,0.2
		c-0.1-0.1-0.1-0.1-0.1-0.1c-0.2-0.3-0.5-0.5-0.9-0.6c-0.2-0.1-0.4-0.3-0.5-0.5c-0.3-0.5-0.6-0.9-1.1-1.2c-0.4-0.2-0.7-0.7-0.9-1.1
		c-0.2-0.5-0.5-0.9-0.9-1.2c-0.1-0.1-0.3-0.1-0.4-0.1c-0.2,0-0.4,0-0.5,0c0-0.1-0.1-0.1-0.1-0.2c0.1-0.6,0-0.7-0.6-0.6
		c-0.4,0.1-0.7-0.1-0.9-0.6c-0.3-0.6-0.6-1.2-0.7-1.9c0-0.2-0.1-0.4-0.2-0.6c-0.2-0.4-0.4-0.8-0.5-1.2c0-0.1,0-0.1,0-0.2
		c0.3-0.6,0-1.2-0.2-1.8c-0.6-1.3-0.5-2.6-0.3-3.9c0.1-0.8,0.5-1.7,0.7-2.5c0.2-0.8,0.4-1.7,0.4-2.6c0-0.6,0-1.3,0.2-1.9
		c0.2-0.4,0.1-0.8,0.1-1.3c0-0.2,0.1-0.4,0.1-0.7c0-0.5,0.1-1-0.1-1.5c-0.2-0.7-0.1-1.2,0.2-1.8c0.2-0.4,0.4-1,0.8-1.3
		c0.1-0.1,0.1-0.2,0.1-0.3c0-0.1,0-0.2,0.1-0.3c0.4-0.5,0.5-1.1,0.7-1.7c0.1-0.5,0.4-0.9,0.7-1.4c0.7-1.1,1.3-2.3,2.1-3.4
		c0.2-0.3,0.3-0.7,0.5-1c0.5-0.8,1-1.5,1.5-2.2c0.4-0.5,0.6-1,0.9-1.5c0.3-0.4,0.5-0.9,0.9-1.2c0.9-1.1,2-2.1,2.9-3.2
		c0.7-0.9,1.6-1.7,2.1-2.8c0-0.1,0.1-0.1,0.1-0.1c1-1,1.9-2,2.9-3c0.7-0.8,1.4-1.6,2.1-2.4c0.6-0.7,1.2-1.5,1.8-2.3
		c0.2-0.2,0.4-0.4,0.6-0.6c0.3-0.2,0.6-0.5,0.9-0.7c0,0,0,0,0,0c1-0.4,1.3-1.4,2.2-1.9c0.3-0.2,0.5-0.7,0.8-1.1
		c0.3-0.5,0.4-1,0.7-1.5c0.3-0.6,0.8-1.1,1.4-1.3c0.3-0.1,0.6-0.2,0.8,0.1c0.2,0.2,0.4,0.3,0.6,0.1c0.8-0.4,1.7-0.9,2.3-1.6
		c0.7-0.9,1.4-1.9,1.8-3c0.1-0.2,0.1-0.3,0.2-0.4c0.5-0.5,0.7-1.2,1-1.8c0.1-0.2,0.2-0.4,0.3-0.5c0.5-0.4,0.7-1,0.8-1.6
		c0-0.1,0-0.2,0.1-0.3c0.4-0.4,0.6-0.9,0.7-1.4c0-0.1,0.1-0.2,0.1-0.2c-0.1-0.5,0.1-0.9,0.3-1.3c0.3-0.7,0.6-1.4,1.1-2
		c0.4-0.5,0.6-1.1,0.9-1.7c0.1-0.3,0.2-0.5,0.3-0.8c0.5-0.7,0.8-1.4,1-2.3c0.1-0.5,0.4-1,0.6-1.4c0.2-0.4,0.3-0.8,0.4-1.1
		c0.1-0.2,0.2-0.4,0.3-0.5c0.3-0.6,0.7-1.1,0.9-1.8c0.2-1,0.6-1.9,1.1-2.8c0.3-0.6,0.5-1.2,0.6-1.8c0.1-0.5,0.3-0.9,0.4-1.3
		c0.1-0.3,0.2-0.5,0.6-0.6c0.2,0,0.3-0.4,0.5-0.6c0.3,0.7,0.4,1.3,0.1,2c-0.1,0.3-0.3,0.6-0.4,0.9c-0.2,0.4-0.3,0.7-0.5,1.1
		c-0.2,0.3-0.4,0.7-0.4,1.1c-0.1,0.5-0.4,0.9-0.6,1.4c0,0.1-0.1,0.2-0.1,0.2c0.1,0.2,0.2,0.3,0.3,0.4c-0.1,0.2-0.1,0.4-0.2,0.7
		c0.9-0.3,1.4-1,1.5-1.8c0-0.1,0-0.3,0.1-0.4c0.4-0.4,0.6-0.9,0.7-1.4c0.1-0.4,0.4-0.9,0.6-1.3c0.1-0.2,0.2-0.4,0.2-0.7
		c0-0.2,0-0.4,0-0.6c0-0.1,0-0.2,0-0.3c0-0.3-0.1-0.5-0.2-0.8c-0.1-0.3-0.1-0.6-0.4-0.7c0,0-0.1,0-0.1-0.1c0-0.5-0.5-0.7-0.8-1.2
		c0.1-0.3,0.3-0.6,0.4-0.9c0.1-0.2,0.2-0.5,0.2-0.7c0-0.1,0-0.2,0.1-0.3c0.7-0.5,0.7-1.4,1-2.1c0.2-0.6,0.5-1.2,0.5-1.8
		c0-0.2,0.2-0.3,0.4-0.3c0.7-0.2,0.6-0.2,0.8-0.9c0.1-0.7,0-1.4,0.5-2c0.1-0.2,0.2-0.3,0.3-0.5c0.2-0.3,0.5-0.6,0.6-1
		c0.5-0.9,0.8-1.1,1.8-0.9c0-0.2,0.1-0.3,0.1-0.5c0.1-0.3,0.3-0.6,0.5-0.8c0.2-0.3,0.5-0.5,0.8-0.8c0.2-0.1,0.4-0.3,0.6-0.1
		c0,0.5,0,1.1-0.1,1.6c-0.1,0.4-0.3,0.7-0.5,1.1c0,0.5-0.1,1-0.1,1.5c0,0.2,0,0.3,0.1,0.5c0.3,0.9,0.4,1.8,0.1,2.7
		c-0.1,0.4-0.3,0.6-0.7,0.6c-0.3,0-0.5,0.2-0.7,0.4c-0.4,0.7-0.5,1.4-0.5,2.1c0,0.5-0.1,0.9-0.1,1.4c0,0.4,0,0.8,0.3,1.3
		c0.1-0.2,0.2-0.2,0.3-0.4c0.1-0.6,0.4-1.2,0.9-1.6c0.2-0.2,0.2-0.4,0.1-0.7c-0.1-0.5-0.1-0.5,0.1-1c0.3,0.1,0.4,0.3,0.5,0.5
		c0,0.2,0.1,0.3,0.1,0.5c0.1,1.2,0,2.3,0,3.4c-0.4,0.1-0.7,0-1-0.1c-0.4-0.1-0.5-0.1-0.6,0.3c-0.1,0.4-0.3,0.8-0.4,1.1
		c0,0.1,0,0.2,0,0.2c0.2,0.3,0,0.7,0,1c0,0.7-0.1,1.4-0.6,2c-0.1,0.1-0.1,0.2-0.1,0.3c-0.2,0.7-0.2,0.7,0.3,1.1
		c0.2,0.1,0.3,0.2,0.5,0.4c0.4,0.4,0.3,1-0.3,1.1c-0.4,0.1-0.5,0.4-0.5,0.7c0,0.4,0.1,0.9-0.2,1.3c-0.1,0.1-0.2,0.3-0.3,0.4
		c-0.6,0.4-0.6,1.1-0.5,1.7c0,0.4,0.8,0.8,1.2,0.7c0.4-0.1,0.8-0.2,1.2-0.3c0.1,0,0.3-0.1,0.3-0.2c0.2-0.6,0.7-1.1,0.7-1.8
		c0-0.2,0-0.4-0.1-0.6c-0.2-0.5-0.2-0.8,0.2-1.3c0.3,0.3,0.5,0.6,0.5,1c0,0.7,0.1,1.4-0.1,2c-0.2,0.6-0.1,1.2-0.1,1.7
		c0,0.8-0.1,1.6-0.3,2.3c-0.1,0.2,0,0.4,0,0.6c0,0.1,0,0.2,0,0.3c-0.1,0.9-0.2,1.8-0.3,2.8c0,0.3,0.1,0.5,0.1,0.8
		c0,0.8,0.1,1.6-0.1,2.4c0,0.1,0,0.3,0,0.4c0.1,0.7,0.1,1.5,0.3,2.2c0.1,0.5,0.3,1,0.4,1.5c0.1,0.3,0.1,0.6,0.2,0.9c0,0.5,0,1,0,1.5
		c0.1,0.5,0.2,1,0.3,1.5c0.1,0.6,0.2,1.2,0.4,1.8c0.1,0.3,0.2,0.7,0.3,1c0,0.2,0.1,0.4,0.1,0.5c-0.1,0.4,0.1,0.7,0.2,1
		c0.1,0.2,0.2,0.5,0.2,0.7c0,0.5,0.2,0.9,0.4,1.3c0.2,0.5,0.5,1,0.7,1.5c0.1,0.1,0.1,0.3,0.1,0.4c0,0.6,0.2,1.2,0,1.9
		c-0.1,0.1,0.1,0.3,0.1,0.5c0.1,0.2,0.2,0.5,0.3,0.7c0.1,0.1,0.1,0.3,0.2,0.4c0.4,0.5,0.4,1,0.4,1.5c0,0.2,0,0.5,0.1,0.7
		c0.1,0.4,0.1,0.8-0.2,1.2c-0.1,0.1-0.1,0.3-0.3,0.6c0.3,0,0.5,0,0.7,0c0.5,0,1.2,0.7,1,1.2c-0.3,0.6-0.1,1.2,0,1.7
		c0,0.3,0.1,0.6,0.5,0.7c-0.1,0.3-0.2,0.5-0.3,0.8c-0.1,0.3-0.1,0.6,0.2,0.9c0.1,0.1,0.2,0.2,0.3,0.4c0,0.1,0.1,0.3,0,0.4
		c-0.4,0.5-0.3,1.1,0,1.6c0.3,0.5,0.5,1,0.4,1.6c0.4,0.9,0.2,1.8,0.3,2.6c0,0.4,0,0.8,0.1,1.3c0.1,0.2-0.1,0.5-0.1,0.8
		c0,0.7,0.1,1.4,0.2,2.1c0.1,0.7,0.1,1.3,0.2,2c0,0.2,0,0.4,0,0.5c0.1,0.6,0.2,1.2,0.3,1.8c0.1,0.5,0.2,0.9,0.4,1.3
		c0.2,0.3,0.3,0.7,0.2,1.1c-0.1,0.5-0.2,1-0.3,1.5c-0.1,0.5-0.3,1-0.1,1.5c0,0.1,0,0.2,0,0.3c-0.2,0.5-0.1,1,0.2,1.5
		c0.3,0.4,0.4,1,0.5,1.5c0,0.1-0.1,0.3-0.2,0.4c-0.2,0.2-0.1,0.4-0.1,0.7c0.1,0.3,0.2,0.4,0.5,0.4c0.4,0,0.6,0.4,0.6,0.7
		c0.1,0.8-0.1,1.4-0.5,2.1c-0.3,0.4-0.7,0.9-0.5,1.5c0,0.1,0,0.2,0,0.2c-0.3,0.4-0.2,0.9-0.2,1.3c-0.1,0.6,0,1.2-0.1,1.8
		c0,0.1-0.1,0.3-0.1,0.4c-0.3,0.7-0.7,1.3-0.8,2c-0.2,0.7-0.5,1.3-0.8,2c-0.3,0.6-0.6,1.2-0.9,1.7c-0.1,0.3-0.4,0.5-0.5,0.7
		c-0.4,0.6-0.7,1.2-1.1,1.7c-0.3,0.3-0.3,0.7,0,1c0.3,0.4,0.3,0.5,0,0.9c-0.3,0.3-0.5,0.6-1,0.6c-0.2,0-0.3,0.2-0.5,0.3
		c-1,0.6-1.8,1.4-2.4,2.3c-0.1,0.1-0.2,0.2-0.3,0.3c-0.3,0.2-0.6,0.5-0.9,0.7c-0.2,0.1-0.4,0.3-0.6,0.2c-0.3,0-0.3-0.3-0.3-0.5
		c0-0.1,0-0.1,0-0.2c-0.1-0.4-0.3-0.6-0.7-0.4c-0.2,0.1-0.5,0.2-0.7,0.3c-0.6,0.3-1.2,0.5-1.9,0.2c-0.3-0.1-0.8-0.1-1.1,0
		c-0.4,0.1-0.8,0.4-1.3,0.3c0,0-0.1,0-0.1,0c-0.7,0.5-1.6,0.6-2.4,1.2c-0.5,0.4-1.2,0.7-1.9,0.9c-0.2,0-0.4,0.2-0.6,0.3
		c-0.3,0.1-0.6,0.2-0.9,0.4c-0.2,0.1-0.4,0.2-0.6,0.4c-0.1,0.1,0,0.3,0,0.5c0.1,0.2,0.3,0.2,0.5,0.1c0.4-0.1,0.8-0.1,1.1-0.4
		c0.5-0.4,0.9-0.2,1.3-0.1c0.2,0,0.3,0,0.5,0c0.3-0.1,0.6,0,0.8,0.2c0.4,0.3,0.4,0.8-0.1,1c-0.4,0.1-0.7,0.2-1.1,0.2
		c-0.4,0-0.7,0-1,0.3c-0.1,0.1-0.4,0.2-0.6,0.2c-0.5,0-0.9,0.1-1.3,0.4c-0.3,0.2-0.7,0.2-1.1,0.2c-0.6,0-1.2,0.1-1.9,0.1
		c-0.2,0-0.4,0.1-0.5,0.1c-0.5-0.2-1-0.1-1.4,0c-0.2,0-0.4,0-0.6-0.1c-0.1,0-0.2-0.1-0.3-0.1c-0.5,0.2-1,0-1.5-0.1
		c-0.3,0-0.6,0-0.8,0c-0.4,0.1-0.8,0-1.3,0c-0.7-0.1-1.5-0.1-2.2-0.3c-0.8-0.2-1.5-0.1-2.3-0.2c-0.8-0.1-1.7-0.1-2.4-0.5
		c-0.6-0.4-1.2-0.5-1.8-0.8c-0.1,0-0.2-0.1-0.3-0.1c-0.5,0-0.9-0.1-1.3-0.5c-0.1-0.1-0.2-0.1-0.3-0.1c-0.2-0.1-0.4-0.1-0.6-0.1
		c-0.1,0-0.2,0-0.4-0.1c-0.1,0-0.1,0-0.2,0c-0.8-0.1-1.5-0.2-2.3-0.3c-0.3-0.1-0.6-0.3-0.6-0.7c0-0.4-0.2-0.6-0.6-0.7
		c-0.2,0-0.3-0.2-0.5-0.3c-0.3-0.1-0.6-0.3-0.9-0.4c-0.4-0.1-0.9-0.2-1.3-0.3c-0.5-0.1-0.7-0.5-0.3-0.8c0.5-0.4,0.9-1,1.7-0.9
		c0.6,0.1,1.1,0.5,1.2,1.1c0.1,0.5,0.3,0.7,0.7,0.9c0.4,0.2,0.8,0.4,1,0.9c0.7,0,1.3,0.2,1.8,0.6c0.1,0.1,0.3,0.1,0.3,0.1
		c0.4-0.2,0.8,0.1,1.2,0.1c0,0,0.1,0,0.1,0c0.2,0.6,0.8,0.3,1.1,0.5c0.2,0.1,0.5,0.1,0.7,0.2c0.1,0,0.2,0.1,0.3,0.1
		c0.1,0,0.2,0,0.3,0c0.6,0.1,1.3,0.3,1.9,0.4c0.8,0.1,1.5,0.4,2.3,0.3c0.6-0.1,1.2-0.2,1.8-0.3c0.8-0.2,1.6-0.4,2.4-0.6
		c0.4-0.1,0.7-0.2,1-0.6c-0.1-0.1-0.2-0.1-0.4-0.2c-0.2-0.1-0.4-0.1-0.5-0.2c-0.2-0.1-0.3-0.2-0.2-0.4c0.1-0.2,0.3-0.4,0.5-0.3
		c0.6,0.2,1.3,0,1.9,0.1c0.2,0,0.4,0,0.5-0.1c0.2,0,0.5-0.1,0.7-0.1c0.3-0.1,0.6-0.1,0.9-0.2c0.7-0.1,1.3-0.2,2-0.4
		c0.5-0.1,0.9-0.1,1.3-0.4c1.1-0.6,2.3-0.8,3.5-0.8c0.3,0,0.7-0.1,1-0.2c0.2,0,0.4,0,0.5-0.1c0.3-0.1,0.7-0.2,1-0.3
		c0.4-0.2,0.8-0.4,1.2-0.6c0.9-0.4,1.7-1,2.3-1.7c0.5-0.6,1-1.2,1.5-1.8c0.7-0.9,1.4-1.9,2.6-2.2c0.3-0.1,0.6-0.5,0.8-0.8
		c0.2-0.4,0.3-0.8,0.4-1.3c0.2,0,0.4,0,0.6,0c0.5-0.1,0.9-0.4,1.1-1c0.1-0.4,0.4-0.6,0.6-0.9c0.2-0.2,0.4-0.4,0.6-0.7
		c0.2-0.2,0.3-0.5,0.5-0.8c0.1-0.2,0.2-0.3,0.3-0.5c0.4-0.6,0.9-1.2,1.2-1.9c0.2-0.5,0.2-0.9,0.2-1.4c0-0.1-0.1-0.2,0-0.2
		c0.3-0.5,0.2-1.1,0.4-1.7c0.2-0.5,0.1-1,0.2-1.5c0-0.1,0-0.2-0.1-0.3c-0.1-0.1-0.3-0.2-0.4-0.2c-0.2,0-0.2,0.2-0.1,0.4
		c0,0.1,0,0.1,0,0.2c-0.7,0.2-0.6-0.6-1.1-0.8c0.2-0.4,0.4-0.8,0.6-1.2c0.2-0.5,0.2-1-0.2-1.4c-0.4-0.4-0.4-0.9-0.2-1.3
		c0.2-0.6,0.2-1.1,0.2-1.7c0-0.9,0-1.8,0-2.7c0-0.4-0.1-0.8-0.3-1.1c-0.2-0.3-0.2-0.6-0.2-1C150.6,185.6,150.6,185.4,150.5,185.2z
		 M146.6,213.3c0.7,0.1,1.4-0.4,1.6-0.9c0-0.1,0.1-0.3,0.2-0.4c0.5-0.5,1-0.9,1.5-1.4c0.1-0.1,0.1-0.2,0.2-0.3
		c-0.4-0.8-0.8-0.1-1.2-0.1c-0.2,0.4-0.3,0.8-0.6,1c-0.5,0.6-1.1,1.2-1.6,1.8C146.6,213.2,146.6,213.2,146.6,213.3z M152,183.8
		c-0.2,0.6-0.1,0.6,0,1c0.1,0.1,0.1,0.3,0.1,0.4c0.1,0.4,0.3,0.6,0.7,0.6c0.3,0,0.5-0.2,0.4-0.5C153,184.7,152.5,184.3,152,183.8z
		 M144.7,132.5c0.1,0,0.3,0.1,0.4,0.1c0.4,0,0.6-0.3,0.5-0.7c0-0.1-0.1-0.2-0.2-0.2c-0.1,0-0.2,0-0.2,0.1
		C145,132,144.8,132.3,144.7,132.5z M130.7,221.5c0.1-0.2,0.3-0.3,0.3-0.4c0.1-0.2-0.2-0.4-0.5-0.4c-0.2,0-0.4,0.1-0.3,0.3
		C130.3,221.2,130.5,221.3,130.7,221.5z M152.2,195c0.2-0.3,0.3-0.4,0.3-0.5c0-0.2-0.1-0.4-0.4-0.4c-0.2,0-0.4,0.1-0.3,0.3
		C151.9,194.6,152,194.7,152.2,195z M143.6,214.2c0.7,0.2,0.9,0.2,1.1-0.3C144.3,213.7,144,214,143.6,214.2z M98.5,180.4
		c-0.1,0.4,0,0.6,0.2,0.6c0.1,0,0.2-0.1,0.3-0.2C99,180.7,98.9,180.5,98.5,180.4z M145.1,141.4c0,0,0.1-0.1,0.1-0.1
		c0-0.2-0.2-0.3-0.5-0.1C144.9,141.2,145,141.3,145.1,141.4z M152.6,188.3c0,0,0-0.1-0.1-0.1c-0.1,0-0.1,0-0.2,0
		c-0.1,0-0.2,0-0.2,0.1c0,0.1,0.1,0.1,0.1,0.2C152.4,188.4,152.5,188.3,152.6,188.3z"/>
	<path id="XMLID_792_" d="M132.5,207.7c-0.5-0.1-1-0.2-1.6-0.4c-0.2,0-0.4,0-0.6-0.1c-0.6-0.1-0.9-0.4-0.9-1.1c0-0.1,0-0.2,0-0.2
		c0-0.2-0.1-0.5,0.2-0.6c0.3-0.1,0.5-0.2,0.9-0.1c0.5,0.2,1,0.1,1.5-0.1c0.7-0.3,1.5-0.6,2.2-1.1c0.5-0.3,1-0.6,1.5-1
		c0.9-0.7,1.7-1.5,2.5-2.2c0.4-0.4,0.7-1,1.1-1.5c0.1-0.1,0.1-0.3,0.1-0.4c0-0.2,0-0.3,0.2-0.5c0.1-0.1,0.3-0.3,0.3-0.4
		c0.2-0.5,0.4-1,0.6-1.5c0.2-0.3,0.5-0.6,0.7-0.9c0.1-0.1,0.3-0.1,0.3,0c0.3,0.2,0.5,0.1,0.8,0c0.4-0.1,0.6,0,0.5,0.4
		c-0.1,0.6-0.2,1.1-0.6,1.6c-0.6,0.8-1.1,1.7-1.7,2.5c-0.2,0.3-0.2,0.6-0.1,0.9c0.2,0.5,0,1.1-0.5,1.4c-0.1,0.1-0.3,0.1-0.3,0.2
		c-0.1,0.4-0.4,0.6-0.6,0.9c-0.8,1-1.6,2-2.6,2.7c-0.6,0.4-1.2,0.8-2,0.9c-0.4,0-0.9,0.2-1.3,0.3C133,207.6,132.8,207.7,132.5,207.7
		z"/>
	<path id="XMLID_791_" d="M105.7,219.6c-0.4,0.2-0.7,0.2-1-0.1c-0.2-0.2-0.5-0.5-0.6-0.7c-0.2-0.3-0.1-0.6,0.1-0.7
		c0.3-0.2,0.6-0.1,0.8,0.2c0.2,0.2,0.3,0.4,0.5,0.7C105.6,219.1,105.6,219.3,105.7,219.6z"/>
	<path id="XMLID_790_" d="M116,218.4c-0.6,0-1.3,0.3-1.7-0.4c0.1-0.3,0.3-0.5,0.6-0.6c0.5-0.2,0.9,0.1,1,0.7
		C115.9,218.1,116,218.2,116,218.4z"/>
	<path id="XMLID_789_" d="M98.6,192.9c-0.4,0.1-0.7-0.1-0.8-0.3c-0.1-0.1-0.2-0.3-0.1-0.5c0.1-0.3,0.2-0.5,0.4-0.8
		c0.1-0.2,0.3-0.2,0.4-0.1c0.3,0.3,0.5,0.5,0.4,1C98.7,192.5,98.7,192.7,98.6,192.9z"/>
	<path id="XMLID_788_" d="M100,184.6c-0.3-0.5-0.5-0.9-0.7-1.3c0-0.1-0.1-0.2,0-0.2c0-0.2,0.1-0.5,0.2-0.6c0.2-0.1,0.3,0.2,0.5,0.3
		c0.5,0.4,0.4,0.9,0.3,1.4C100.2,184.3,100.1,184.4,100,184.6z"/>
	<path id="XMLID_787_" d="M20.3,123.3c0-0.2-0.1-0.5-0.1-0.7c0-0.3,0.1-0.6,0.4-0.7c0.1-0.1,0.3-0.1,0.4,0c0.1,0.1,0.2,0.3,0.2,0.4
		c-0.1,0.3-0.2,0.7-0.3,1C20.7,123.5,20.5,123.4,20.3,123.3z"/>
	<path id="XMLID_786_" d="M98.9,186.3c0.1,0.3,0.1,0.5,0.2,0.8c0.1,0.4-0.1,0.6-0.4,0.8c-0.1,0.1-0.2,0-0.5,0.1
		c0.1-0.5,0.1-0.9,0.2-1.2C98.5,186.5,98.7,186.3,98.9,186.3L98.9,186.3z"/>
	<path id="XMLID_785_" d="M139.6,220.3c-0.4,0.3-0.8,0.5-1.1,0.7c-0.2,0.1-0.3,0-0.4-0.2c-0.1-0.2-0.1-0.4,0.2-0.4
		c0.4,0,0.8-0.1,1.1-0.2C139.4,220.2,139.5,220.2,139.6,220.3z"/>
	<path id="XMLID_784_" d="M98.8,195c-0.4-0.1-0.6-0.2-0.7-0.5c0-0.2,0.1-0.3,0.4-0.3C98.5,194.4,98.6,194.6,98.8,195z"/>
	<path id="XMLID_783_" d="M143.7,217.9c0.3-0.6,0.4-0.6,0.8-0.3C144.3,217.8,144.1,218,143.7,217.9z"/>
	<path id="XMLID_782_" d="M113.7,218.5c-0.3-0.1-0.5-0.2-0.7-0.3C113.6,217.9,113.6,217.9,113.7,218.5z"/>
	<path id="XMLID_781_" d="M137.6,136.1c0.1,0.3-0.1,0.4-0.4,0.6C137.1,136.3,137.3,136.2,137.6,136.1z"/>
	<path id="XMLID_780_" d="M98.9,186.3c0.1-0.4,0.1-0.4,0.4-0.7C99.4,186,99.2,186.2,98.9,186.3C98.9,186.3,98.9,186.3,98.9,186.3z"
		/>
	<path id="XMLID_779_" d="M96.5,197.2c0-0.1-0.1-0.1,0-0.1c0,0,0.1-0.1,0.1-0.1c0,0,0.1,0.1,0.1,0.1
		C96.7,197.2,96.6,197.2,96.5,197.2z"/>
	<path id="XMLID_778_" d="M122.2,24.4c0-0.1,0.1-0.2,0.1-0.4C122.6,24.2,122.4,24.3,122.2,24.4C122.2,24.3,122.2,24.4,122.2,24.4z"
		/>
	<path id="XMLID_777_" d="M139,118.7C138.9,118.7,138.9,118.7,139,118.7c-0.1,0.1-0.1,0-0.2,0C138.8,118.7,138.9,118.6,139,118.7
		C138.9,118.6,138.9,118.6,139,118.7z"/>
	<path id="XMLID_776_" d="M146.3,113C146.3,113,146.3,113.1,146.3,113c-0.1,0.1-0.1,0.1-0.2,0.1C146.2,113,146.2,113,146.3,113
		C146.2,112.9,146.3,113,146.3,113z"/>
	<path id="XMLID_775_" d="M21.5,119.8C21.5,119.8,21.4,119.9,21.5,119.8c-0.1,0.1-0.1,0.1-0.2,0.1C21.3,119.8,21.3,119.8,21.5,119.8
		C21.4,119.7,21.4,119.8,21.5,119.8z"/>
	<path id="XMLID_774_" d="M123.5,218.5c-0.1,0.1-0.1,0.1-0.2,0.2c0-0.1,0-0.1,0-0.2C123.3,218.5,123.4,218.5,123.5,218.5z"/>
	<path id="XMLID_766_" class="st0" d="M67.6,79.9c-0.1-0.1-0.2-0.2-0.3-0.3c0-0.1,0-0.4,0-0.4c0.5-0.5,1.1-1,1.6-1.4
		c0.1-0.1,0.2-0.2,0.3-0.3c0.3-0.5,0.8-0.5,1.3-0.7c0.3-0.1,0.4,0.1,0.6,0.3c0.2,0.2,0,0.4-0.1,0.5c-0.5,0.5-1,0.9-1.5,1.4
		c-0.4,0.5-1,0.6-1.6,0.8C67.9,79.9,67.8,79.9,67.6,79.9z"/>
	<path id="XMLID_765_" class="st0" d="M96.6,75.5c0.2,0.6-0.3,0.8-0.7,1.1c0-0.1,0-0.2,0-0.3c0.2-0.4,0.2-0.7,0-1
		c-0.2-0.3-0.1-0.5,0.1-0.8c0.2-0.2,0.3-0.4,0.4-0.6c0.1-0.1,0.2-0.3,0.4-0.3c0.3-0.1,0.5,0.1,0.5,0.3c-0.1,0.4-0.1,0.8-0.2,1.2
		C97,75.2,96.8,75.3,96.6,75.5z"/>
	<path id="XMLID_764_" class="st0" d="M92.9,86.2c0,0.4-0.3,0.7-0.6,0.7c-0.3,0-0.6-0.3-0.6-0.6c0-0.3,0.4-0.7,0.7-0.7
		C92.6,85.6,92.9,85.9,92.9,86.2z"/>
	<path id="XMLID_763_" class="st0" d="M93.9,82.4c0.2,0.2,0.2,0.3,0,0.5C93.9,82.8,93.9,82.6,93.9,82.4z"/>
	<path id="XMLID_762_" class="st0" d="M146.6,213.3c0-0.1,0-0.2,0.1-0.2c0.5-0.6,1.1-1.2,1.6-1.8c0.2-0.3,0.4-0.7,0.6-1
		c0.4,0.1,0.8-0.6,1.2,0.1c-0.1,0.1-0.1,0.2-0.2,0.3c-0.5,0.5-1,0.9-1.5,1.4c-0.1,0.1-0.1,0.3-0.2,0.4
		C148,213,147.3,213.4,146.6,213.3z"/>
	<path id="XMLID_761_" class="st0" d="M152,183.8c0.5,0.5,1,0.9,1.2,1.5c0.1,0.2-0.1,0.5-0.4,0.5c-0.4,0-0.6-0.2-0.7-0.6
		c0-0.1-0.1-0.3-0.1-0.4C151.9,184.4,151.9,184.4,152,183.8z"/>
	<path id="XMLID_760_" class="st0" d="M144.7,132.5c0.2-0.3,0.3-0.5,0.5-0.7c0-0.1,0.1-0.1,0.2-0.1c0.1,0,0.2,0.1,0.2,0.2
		c0.1,0.3-0.1,0.7-0.5,0.7C144.9,132.6,144.8,132.5,144.7,132.5z"/>
	<path id="XMLID_759_" class="st0" d="M130.7,221.5c-0.2-0.2-0.4-0.3-0.5-0.4c-0.1-0.2,0.1-0.3,0.3-0.3c0.2,0,0.5,0.2,0.5,0.4
		C131,221.2,130.8,221.3,130.7,221.5z"/>
	<path id="XMLID_758_" class="st0" d="M152.2,195c-0.2-0.3-0.3-0.5-0.3-0.7c0-0.2,0.1-0.3,0.3-0.3c0.2,0,0.4,0.2,0.4,0.4
		C152.5,194.7,152.4,194.8,152.2,195z"/>
	<path id="XMLID_757_" class="st0" d="M143.6,214.2c0.4-0.2,0.7-0.5,1.1-0.3C144.5,214.3,144.3,214.4,143.6,214.2z"/>
	<path id="XMLID_756_" class="st0" d="M98.5,180.4c0.4,0.1,0.6,0.2,0.5,0.4c0,0.1-0.2,0.2-0.3,0.2C98.5,181.1,98.4,180.8,98.5,180.4
		z"/>
	<path id="XMLID_755_" class="st0" d="M145.1,141.4c-0.1-0.1-0.2-0.1-0.4-0.3c0.3-0.2,0.5-0.1,0.5,0.1
		C145.2,141.3,145.1,141.3,145.1,141.4z"/>
	<path id="XMLID_754_" class="st0" d="M152.6,188.3c-0.1,0.1-0.2,0.1-0.3,0.2c0-0.1-0.1-0.1-0.1-0.2c0.1,0,0.2,0,0.2-0.1
		c0.1,0,0.1,0,0.2,0C152.5,188.2,152.6,188.3,152.6,188.3z"/>
	<path id="XMLID_750_" d="M38.7,138.9c0-0.3,0-0.7,0.2-1.2c0.3-0.7,0.3-1.5,0.5-2.2c0.1-0.6,0.4-1.1,0.6-1.7
		c0.2-0.6,0.3-1.2,0.5-1.9c0.1-0.5,0.3-1,0.5-1.5c0-0.1,0.2-0.3,0.3-0.4c0.5-0.3,0.8-0.7,0.9-1.3c0-0.1,0-0.1,0.1-0.2
		c0.4-0.2,0.6-0.7,0.8-1.1c0.1-0.2,0.3-0.3,0.5-0.4c0.1-0.1,0.3-0.2,0.4-0.2c0.4-0.3,1-0.3,1.4-0.1c0.5,0.4,0.8,0.9,0.7,1.4
		c-0.2,0.9-0.4,1.8-0.6,2.6c0,0.1,0,0.3-0.1,0.3c-0.3,0.3-0.4,0.7-0.5,1.1c-0.1,0.5-0.1,0.9-0.2,1.4c-0.1,0.4-0.2,0.7-0.3,1.1
		c0,0.1-0.1,0.2-0.1,0.4c0.1,0.8-0.3,1.5-0.3,2.3c0,0.3-0.2,0.5-0.5,0.6c-0.3,0.1-0.4,0.3-0.4,0.6c0,0.5,0,1-0.2,1.4
		c-0.1,0.3-0.2,0.6-0.5,0.8c-0.2,0.1-0.2,0.3-0.4,0.5c-0.3,0.5-0.6,0.5-1.1,0.3c-0.3-0.1-0.6-0.2-0.8-0.2c-0.4,0.2-0.8,0.4-1.1,0.8
		c-0.4,0.5-0.7,1.1-1.1,1.6c-0.3,0.4-0.8,0.7-1.2,1.1c-0.2,0.1-0.3,0.1-0.5-0.1c-0.1-0.1-0.2-0.3-0.2-0.4c0.4-0.7,0.8-1.3,1.1-1.9
		c0.1-0.1,0.1-0.2,0.1-0.3c0-0.1,0-0.2,0.1-0.2c0.4-0.4,0.9-0.8,1.3-1.1c0.5-0.3,0.5-0.8,0.6-1.2C39.3,139.4,39,139.2,38.7,138.9z
		 M41.7,132.5c0,0.3,0,0.5-0.1,0.7c-0.1,0.4-0.2,0.7-0.4,1.1c-0.3,0.6-0.4,1.4-0.5,2c0,0.1,0,0.2,0,0.4c0,0.2,0.2,0.4,0.4,0.2
		c0.5-0.3,1-0.4,1.2-1c0.1-0.4,0.4-0.8,0.6-1.2c0-0.1,0-0.2,0.1-0.2c0.1-0.2,0.1-0.5,0.2-0.7c0.2-0.6,0.4-1.2,0.3-1.8
		c-0.1-0.3-0.3-0.5-0.7-0.5c-0.2,0-0.7,0.3-0.8,0.5c0.1,0.2,0.1,0.3,0.2,0.5C42,132.4,41.8,132.4,41.7,132.5z M42.7,139.1
		c0-0.1-0.1-0.2-0.1-0.2c-0.3-0.5-0.5-0.5-0.9-0.2c-0.3,0.2-0.5,0.5-0.6,0.9c-0.1,0.1,0,0.5,0.2,0.6c0.2,0.2,0.4,0,0.5-0.2
		C42.1,139.7,42.4,139.4,42.7,139.1z"/>
	<path id="XMLID_749_" d="M21.5,141.7c-0.1-0.3-0.1-0.5-0.1-0.7c0-0.1,0.1-0.2,0.2-0.2c0.1,0,0.2,0.1,0.3,0.2
		C21.9,141.2,21.9,141.4,21.5,141.7z"/>
	<path id="XMLID_748_" d="M21.3,141.9c0.1,0.1,0.2,0.2,0.2,0.3c0,0.1-0.1,0.2-0.2,0.2c-0.1-0.1-0.2-0.2-0.2-0.3
		C21.2,142.1,21.3,142,21.3,141.9z"/>
	<path id="XMLID_747_" d="M22.1,146.9c-0.1,0.2-0.2,0.3-0.3,0.5c-0.1-0.1-0.1-0.2-0.1-0.2C21.6,146.9,21.7,146.8,22.1,146.9z"/>
	<path id="XMLID_746_" d="M21.8,146.2C21.8,146.2,21.7,146.3,21.8,146.2c-0.1,0-0.1,0-0.1,0C21.7,146.2,21.7,146.2,21.8,146.2
		C21.7,146.2,21.8,146.2,21.8,146.2z"/>
	<path id="XMLID_745_" class="st0" d="M41.7,132.5c0.2-0.1,0.3-0.1,0.5-0.2c-0.1-0.2-0.1-0.3-0.2-0.5c0-0.2,0.6-0.5,0.8-0.5
		c0.4,0,0.6,0.2,0.7,0.5c0.1,0.6-0.1,1.2-0.3,1.8c-0.1,0.2-0.1,0.5-0.2,0.7c0,0.1,0,0.2-0.1,0.2c-0.2,0.4-0.5,0.8-0.6,1.2
		c-0.2,0.6-0.7,0.8-1.2,1c-0.2,0.1-0.4,0-0.4-0.2c0-0.1,0-0.2,0-0.4c0.1-0.7,0.2-1.4,0.5-2c0.2-0.3,0.3-0.7,0.4-1.1
		C41.7,133,41.7,132.8,41.7,132.5z"/>
	<path id="XMLID_744_" class="st0" d="M42.7,139.1c-0.4,0.3-0.7,0.6-1,0.9c-0.1,0.1-0.3,0.4-0.5,0.2c-0.1-0.1-0.2-0.4-0.2-0.6
		c0.1-0.3,0.4-0.6,0.6-0.9c0.4-0.3,0.6-0.3,0.9,0.2C42.7,139,42.7,139,42.7,139.1z"/>
</g>
</svg>
